<svg id="Capa_1" enable-background="new 0 0 512.011 512.011" height="512" viewBox="0 0 512.011 512.011" width="512" xmlns="http://www.w3.org/2000/svg"><g><path d="m343.788 48.796 73.967-41.285s-11.632 78.78-37.539 107.86c0 0 144.841 44.56 68.672 265.124 0 0-6.831-27.852-16.158-49.014-6.759 18.524-25.66 50.975-40.601 70.215-53.68 69.125-136.124 102.816-136.124 102.816s-82.444-33.691-136.124-102.816c-14.941-19.24-33.841-51.691-40.601-70.215-9.327 21.162-16.158 49.014-16.158 49.014-76.168-220.565 68.673-265.125 68.673-265.125-25.907-29.079-37.539-107.859-37.539-107.859l73.967 41.285c8.644 4.825 18.378 7.357 28.278 7.357h119.01c9.899 0 19.633-2.532 28.277-7.357z" fill="#f1f1f4"/><path d="m380.216 115.37c25.907-29.08 37.539-107.86 37.539-107.86l-50.444 28.156c-3.785 13.596-8.637 28-14.618 40.207-5.219 10.652-1.569 23.475 8.555 29.655 34.726 21.198 96.484 80.696 57.082 224.551-1.111 4.056-4.743 6.909-8.947 7.028s-8-2.522-9.336-6.51c-.013-.038-.025-.075-.038-.113-1.065-3.175-3.933-5.4-7.273-5.642-3.34-.243-6.498 1.544-8.011 4.532-8.859 17.492-21.767 38.376-32.596 52.32-50.901 65.547-127.664 99.232-135.476 102.545 22.943 13.566 39.352 20.271 39.352 20.271s82.444-33.691 136.124-102.816c14.941-19.24 33.841-51.691 40.601-70.215 9.327 21.162 16.158 49.014 16.158 49.014 76.168-220.563-68.672-265.123-68.672-265.123z" fill="#dfdde2"/><path d="m119.882 401.695c-7.273-9.366-15.484-21.862-22.777-34.359-14.334 23.565-29.132 56.657-29.132 92.847v44.328h188.033c-.001 0-82.444-33.691-136.124-102.816z" fill="#f1f1f4"/><path d="m67.973 484.511v20h188.033s-16.19-6.616-38.892-20z" fill="#dfdde2"/><path d="m392.129 401.695c-53.68 69.125-136.124 102.816-136.124 102.816h188.033v-44.328c0-36.19-14.799-69.282-29.132-92.847-7.293 12.497-15.504 24.993-22.777 34.359z" fill="#f1f1f4"/><path d="m414.906 367.336c-5.733 9.824-12.033 19.647-17.999 27.95 4.337 14.029 7.132 29.171 7.132 44.897v6.866c0 20.689-16.772 37.461-37.461 37.461h-71.679c-22.702 13.384-38.892 20-38.892 20h188.033v-44.328c-.002-36.189-14.801-69.282-29.134-92.846z" fill="#dfdde2"/><g fill="#e490b7"><path d="m94.256 7.511s11.632 78.78 37.539 107.86l5.61-1.726c12.961-3.988 18.512-19.234 11.186-30.646-20.686-32.226-54.335-75.488-54.335-75.488z"/><path d="m417.755 7.511s-11.632 78.78-37.539 107.86l-5.61-1.726c-12.961-3.988-18.512-19.234-11.186-30.646 20.686-32.226 54.335-75.488 54.335-75.488z"/><path d="m256.005 248.837-19.517-19.517c-2.159-2.159-1.909-5.782.592-7.536 11.326-7.943 26.525-7.943 37.851 0 2.5 1.754 2.751 5.376.592 7.536z"/></g><path d="m232.774 215.644c-6.305 4.421-7.053 13.515-1.589 18.979l17.32 17.32v4.668c0 .71-1.001 1.906-2.857 2.724-8.497 3.747-20.647 9.968-30.278 18.324-8.201 7.117-21.16 9.976-33.013 7.283-6.302-1.431-12.125-3.947-17.314-7.481 4.549-7.669 16.143-24.15 35.728-32.562 3.806-1.635 5.566-6.045 3.931-9.851-1.634-3.806-6.044-5.565-9.851-3.931-23.729 10.192-37.372 29.35-43.392 39.863-3.643 6.363-1.638 14.195 4.766 18.623 6.842 4.73 14.516 8.084 22.809 9.968 16.665 3.783 34.698-.631 46.165-10.581 8.652-7.507 20.317-13.202 26.5-15.929 1.569-.692 3.009-1.528 4.304-2.482 1.295.954 2.735 1.79 4.304 2.482 6.184 2.727 17.849 8.422 26.5 15.929 11.53 10.005 29.596 14.343 46.165 10.581 8.293-1.884 15.967-5.237 22.809-9.967 6.404-4.428 8.409-12.26 4.766-18.624-6.02-10.513-19.662-29.67-43.391-39.862-3.805-1.635-8.216.125-9.851 3.931s.125 8.216 3.931 9.851c19.585 8.412 31.18 24.894 35.728 32.562-5.189 3.534-11.012 6.05-17.314 7.481-11.854 2.692-24.812-.167-33.013-7.283-9.63-8.356-21.781-14.577-30.278-18.324-1.855-.818-2.857-2.014-2.857-2.724v-4.668l17.32-17.32c5.463-5.463 4.718-14.557-1.589-18.979-13.892-9.747-32.565-9.746-46.459-.001zm35.176 10.643-11.944 11.944-11.944-11.944c7.445-3.949 16.441-3.949 23.888 0z"/><path d="m279.789 313.67c-13.114 8.471-34.453 8.471-47.567 0-3.478-2.247-8.121-1.25-10.369 2.23-2.248 3.479-1.249 8.122 2.23 10.369 18.198 11.756 45.646 11.756 63.845 0 3.479-2.247 4.478-6.89 2.23-10.369-2.247-3.48-6.891-4.479-10.369-2.23z"/><path d="m263.505 97.202c0-4.142-3.358-7.5-7.5-7.5s-7.5 3.358-7.5 7.5v23.686l-8.088 8.088c-2.929 2.929-2.929 7.677 0 10.606 2.928 2.929 7.677 2.929 10.606 0l4.982-4.982 4.982 4.982c2.928 2.929 7.677 2.929 10.606 0s2.929-7.678 0-10.606l-8.088-8.088z"/><path d="m63.467 387.986c3.322-.152 6.147-2.475 6.94-5.705.049-.202 3.762-15.223 9.326-31.25 2.575 5.175 5.517 10.673 8.678 16.237-16.13 27.554-25.372 54.954-27.482 81.505-.347 4.365 3.1 8.095 7.485 8.095 3.873 0 7.156-2.979 7.468-6.906 2.064-25.969 11.784-49.896 21.401-67.834 5.54 8.839 11.306 17.254 16.674 24.168 34.642 44.609 80.357 74.534 109.802 90.716h-148.286v-12.999c0-4.142-3.358-7.5-7.5-7.5s-7.5 3.358-7.5 7.5v20.499c0 4.142 3.358 7.5 7.5 7.5h376.065c4.142 0 7.5-3.358 7.5-7.5v-44.328c0-36.763-14.686-70.213-27.94-92.911 3.17-5.581 6.11-11.079 8.678-16.241 5.564 16.027 9.277 31.048 9.327 31.25.793 3.229 3.618 5.552 6.94 5.705 3.336.161 6.348-1.9 7.434-5.043 28.886-83.646 30.114-152.479 3.65-204.587-20.42-40.208-51.762-58.975-67.518-66.273.443-.672.882-1.356 1.315-2.052l47.1-4.516c4.124-.396 7.146-4.059 6.75-8.182s-4.056-7.148-8.182-6.75l-37.348 3.581c1.762-3.93 3.417-8.011 4.967-12.164l44.255-13.379c3.965-1.199 6.208-5.385 5.009-9.35s-5.386-6.207-9.35-5.009l-34.075 10.302c8.219-27.28 12.186-53.03 12.603-55.816.8-4.815-3.151-9.157-8.107-8.703-2.297.222-.233-.597-76.913 42.203-7.509 4.191-16.023 6.406-24.623 6.406h-23.943c-4.142 0-7.5 3.358-7.5 7.5s3.358 7.5 7.5 7.5h23.943c11.153 0 22.195-2.873 31.933-8.309l42.886-23.937c-10.719 14.533-23.444 32.308-33.222 47.54-10.018 15.606-2.416 36.417 15.292 41.865 7.654 2.355 5.024 1.552 5.592 1.721.436.136 43.826 14.198 68.419 62.928 13.241 26.235 18.834 57.33 16.787 92.995-29.498-53.038-68.752-68.884-70.631-69.617-3.849-1.503-8.178.399-9.691 4.245-1.514 3.845.38 8.195 4.22 9.722.462.183 46.049 18.935 73.053 83.777-2.389 15.276-6.013 31.281-10.874 47.994-2.663-8.336-5.968-17.694-9.683-26.122-1.234-2.801-4.046-4.565-7.107-4.471-3.06.1-5.751 2.049-6.801 4.925-5.602 15.353-20.918 42.586-34.868 62-2.417 3.364-1.649 8.05 1.714 10.467 3.364 2.417 8.05 1.649 10.467-1.714 3.91-5.441 7.885-11.402 11.731-17.536 11.034 20.57 21.81 48.284 21.81 78.057v36.828h-148.32c24.394-13.419 59.996-36.299 91.278-69.188 2.854-3.001 2.736-7.749-.266-10.604-3.001-2.854-7.748-2.736-10.604.266-28.486 29.95-61.364 51.507-84.733 64.659 12.078-17.523 26.793-43.425 38.502-78.046 1.327-3.924-.778-8.18-4.702-9.507-3.925-1.329-8.181.778-9.507 4.702-17.243 50.982-41.671 82.364-52.181 94.278-10.517-11.922-34.941-43.304-52.182-94.278-1.327-3.924-5.584-6.03-9.507-4.702-3.924 1.327-6.029 5.583-4.702 9.507 11.711 34.626 26.428 60.53 38.507 78.053-28.324-15.944-70.643-44.269-102.316-85.056-14.67-18.891-33.118-50.754-39.479-68.186-1.049-2.876-3.741-4.825-6.801-4.925-3.044-.091-5.873 1.669-7.107 4.471-3.715 8.428-7.02 17.787-9.683 26.123-4.861-16.714-8.485-32.718-10.874-47.994 26.951-64.715 72.412-83.52 73.049-83.776 3.846-1.512 5.746-5.852 4.244-9.704-1.504-3.859-5.853-5.766-9.712-4.264-1.879.733-41.133 16.579-70.631 69.617-2.047-35.665 3.546-66.76 16.787-92.995 24.594-48.729 67.984-62.792 68.402-62.922.47-.147-1.617.497 5.609-1.726 17.723-5.452 25.301-26.273 15.293-41.865-9.777-15.232-22.502-33.007-33.222-47.54l42.887 23.938c9.738 5.435 20.78 8.308 31.932 8.308h60.067c4.142 0 7.5-3.358 7.5-7.5s-3.358-7.5-7.5-7.5h-60.065c-8.599 0-17.113-2.215-24.622-6.406-77.929-43.5-74.737-42.105-77.225-42.23-1.557-.138-3.583.407-5.141 1.681-2.145 1.755-3.085 4.466-2.653 7.052.421 2.819 4.389 28.551 12.602 55.809l-34.076-10.302c-3.964-1.199-8.15 1.044-9.35 5.009-1.199 3.965 1.044 8.151 5.009 9.35l44.255 13.38c1.55 4.153 3.205 8.234 4.967 12.164l-37.349-3.581c-4.125-.4-7.786 2.626-8.182 6.75-.396 4.123 2.626 7.786 6.75 8.182l47.1 4.517c.434.695.872 1.379 1.315 2.051-15.755 7.299-47.098 26.065-67.518 66.274-26.463 52.108-25.235 120.941 3.65 204.587 1.088 3.142 4.112 5.205 7.435 5.042zm306.264-300.936c10.104-15.74 23.462-34.309 34.358-49.025-4.896 20.863-13.654 51.44-26.498 68.691l-.78-.24c-8.214-2.527-11.731-12.18-7.08-19.426zm-234.531 19.426-.779.24c-12.816-17.217-21.594-47.83-26.489-68.679 10.893 14.712 24.244 33.273 34.349 49.013 4.658 7.259 1.116 16.904-7.081 19.426z"/><path d="m285.456 248.566c-2.217 3.499-1.177 8.132 2.322 10.349l29.269 18.542c3.491 2.212 8.128 1.185 10.349-2.322 2.217-3.499 1.177-8.132-2.322-10.349l-29.269-18.542c-3.499-2.217-8.133-1.177-10.349 2.322z"/><path d="m216.206 246.245-29.269 18.542c-3.499 2.217-4.539 6.85-2.322 10.349 2.223 3.51 6.861 4.532 10.349 2.322l29.269-18.542c3.499-2.217 4.539-6.85 2.322-10.349-2.216-3.5-6.85-4.541-10.349-2.322z"/><path d="m232.523 188.104v-5.287c0-10.082-6.801-18.944-16.538-21.553l-49.689-13.314c-3.999-1.067-8.113 1.302-9.186 5.303-1.072 4.001 1.302 8.114 5.304 9.186l49.689 13.314c3.191.855 5.42 3.759 5.42 7.063v5.287c0 4.142 3.358 7.5 7.5 7.5s7.5-3.357 7.5-7.499z"/><path d="m286.988 195.604c4.142 0 7.5-3.358 7.5-7.5v-5.287c0-3.304 2.229-6.208 5.42-7.063l49.689-13.314c4.001-1.072 6.375-5.185 5.304-9.186-1.072-4.001-5.182-6.372-9.186-5.303l-49.689 13.314c-9.737 2.608-16.538 11.471-16.538 21.553v5.287c0 4.141 3.358 7.499 7.5 7.499z"/></g></svg>