<svg id="Capa_1" enable-background="new 0 0 512.001 512.001" height="512" viewBox="0 0 512.001 512.001" width="512" xmlns="http://www.w3.org/2000/svg"><g><path d="m256 333.6v4.892c0 9.867-7.999 17.866-17.866 17.866h-41.007c-7.366 0-13.914-3.499-18.074-8.926-61.637-22.211-86.352-66.538-89.583-72.788 16.329-24.777 37.597-51.63 50.879-71.747h-.001l-10.16-28.246c-15.796-43.913-14.422-92.172 3.847-135.115 4.664-10.962 19.524-12.604 26.467-2.923l67.896 94.662c8.853-1.897 18.096-2.901 27.603-2.901s18.75 1.005 27.603 2.901l67.896-94.662c6.943-9.681 21.804-8.04 26.467 2.923 18.268 42.943 19.642 91.202 3.847 135.115l-10.16 28.246h-.001c13.275 20.106 34.548 46.963 50.881 71.746l-.001.001c-3.231 6.25-27.947 50.577-89.583 72.788-4.16 5.427-10.708 8.926-18.074 8.926h-41.007c-9.867 0-17.866-7.999-17.866-17.866v-4.892z" fill="#f1d59d"/><path d="m371.651 202.898 10.161-28.246c15.796-43.913 14.422-92.172-3.847-135.115-4.664-10.963-19.524-12.604-26.467-2.923l-5.148 7.178c9.805 36.35 8.343 75.05-4.538 110.86l-5.024 13.968c-3.218 8.946-1.858 18.901 3.641 26.656l30.571 43.111c7.529 10.617 7.053 24.914-1.086 35.071-12.158 15.174-33.608 35.964-67.455 50.258-4.797 2.026-9.41 4.534-13.498 7.76-3.875 3.058-8.769 4.884-14.088 4.884h-117.746c-1.178 0-2.336-.09-3.466-.263 7.662 4.143 16.108 7.991 25.392 11.337 4.16 5.427 10.708 8.926 18.074 8.926h41.007c9.867 0 17.866-7.999 17.866-17.866 0 9.867 7.999 17.866 17.866 17.866h41.007c7.366 0 13.914-3.499 18.074-8.926 61.636-22.211 86.352-66.537 89.583-72.788l.001-.001c-16.332-24.784-37.605-51.641-50.88-71.747z" fill="#efcb84"/><path d="m334.426 319.151c-3.567-7.64-10.061-13.525-17.832-16.797l-24.937-10.498c-8.097-3.409-13.362-11.338-13.362-20.123 0-12.313-9.982-22.295-22.295-22.295s-22.295 9.982-22.295 22.295c0 8.785-5.265 16.714-13.362 20.123l-24.982 10.517c-7.293 3.07-13.483 8.438-17.136 15.458-2.493 4.791-3.857 10.183-3.857 15.769 0 5.203 1.746 9.999 4.685 13.833 4.16 5.427 10.708 8.926 18.074 8.926h41.007c9.867 0 17.866-7.999 17.866-17.866 0 9.867 7.999 17.866 17.866 17.866h41.007c7.366 0 13.914-3.499 18.074-8.926 2.938-3.834 4.685-8.629 4.685-13.833 0-5.079-1.127-9.997-3.206-14.449z" fill="#fbf6ec"/><path d="m337.632 333.6c0-5.079-1.127-9.997-3.206-14.449-1.542-3.304-3.633-6.28-6.137-8.858-7.664 4.812-16.25 9.377-25.829 13.423-4.797 2.026-9.41 4.534-13.498 7.76-3.875 3.058-8.769 4.884-14.088 4.884h-100.34c.5 4.135 2.108 7.928 4.519 11.074 4.16 5.427 10.708 8.926 18.074 8.926h41.007c9.867 0 17.866-7.999 17.866-17.866 0 9.867 7.999 17.866 17.866 17.866h41.007c7.366 0 13.914-3.499 18.074-8.926 2.939-3.835 4.685-8.631 4.685-13.834z" fill="#f4e2c1"/><path d="m277.816 304.08c-14.285-3.879-29.347-3.879-43.632 0l-8.012 2.175 29.828 27.345 29.828-27.344z" fill="#ffbee4"/><path d="m420.72 426.981c-41.643 47.837-122.567 44.02-122.567 44.02l3.164-16.237c3.072-15.765 1.315-31.815-4.66-46.213-11.069 34.052-31.185 59.234-40.657 59.234s-29.588-25.182-40.657-59.234c-5.975 14.398-7.732 30.448-4.66 46.213l3.164 16.237s-80.923 3.817-122.567-44.02c-3.369 11.777-5.489 24.363-5.489 37.394v40.126h170.209 170.208v-40.126c0-13.03-2.119-25.617-5.488-37.394z" fill="#f1d59d"/><path d="m420.72 426.981c-9.855 11.321-21.91 19.748-34.571 26.018-1.041 17.572-15.62 31.501-33.453 31.501h-136.696-130.208v20h170.208 170.208v-40.126c0-13.029-2.119-25.616-5.488-37.393z" fill="#efcb84"/><path d="m151.106 67.133c-9.494 32.331-8.536 66.831 3.004 98.913l4.383 12.185 36.605-49.764z" fill="#fbf6ec"/><path d="m360.894 67.133c9.494 32.331 8.536 66.831-3.004 98.913l-4.383 12.185-36.605-49.764z" fill="#fbf6ec"/><path d="m339.957 159.81 13.551 18.422 4.383-12.185c11.54-32.082 12.498-66.582 3.004-98.913l-8.605 11.997c1.771 25.411-1.706 51.136-10.477 75.521z" fill="#f9efda"/><path d="m273.867 356.359c-9.867 0-17.866-7.999-17.866-17.866 0 9.867-7.999 17.866-17.866 17.866h-19.68v3.244c0 14.201 25.652 46.917 37.546 46.917 11.895 0 37.546-32.717 37.546-46.917v-3.244z" fill="#fbf6ec"/><path d="m273.867 356.359c-.553 0-1.1-.025-1.641-.075-4.863 14.249-22.054 35.517-32.922 39.559 6.12 6.275 12.333 10.677 16.696 10.677 11.895 0 37.546-32.717 37.546-46.917v-3.244z" fill="#f9efda"/><path d="m230.269 385.112c-6.711-9.156-11.815-19.175-11.815-25.509v-1.2l-2.451-2.044h-18.876c-7.366 0-13.914-3.499-18.074-8.926-49.003-17.658-74.668-49.294-84.755-64.663-19.481 21.205-27.157 50.83-27.157 73.589 0 121.563 146.706 114.643 146.706 114.643l-3.164-16.237c-4.892-25.102 2.459-50.926 19.586-69.653z" fill="#fbf6ec"/><path d="m230.269 385.112c-6.711-9.156-11.815-19.175-11.815-25.509v-1.2l-2.451-2.044h-18.876c-6.217 0-11.851-2.492-15.958-6.533.33.748.686 1.508 1.066 2.278 3.975 8.046 3.528 17.572-1.165 25.221-10.408 16.966-14.287 37.432-10.387 57.44 1.674 8.59-5.228 16.438-13.962 15.871-12.661-.822-30.906-3.097-49.725-9.135 43.444 32.492 106.851 29.501 106.851 29.501l-3.164-16.237c-4.892-25.102 2.459-50.926 19.586-69.653z" fill="#f9efda"/><path d="m281.731 385.112c6.711-9.156 11.815-19.175 11.815-25.509v-1.2l2.451-2.044h18.876c7.366 0 13.914-3.499 18.074-8.926 49.003-17.658 74.668-49.294 84.755-64.663 19.481 21.205 27.157 50.83 27.157 73.589 0 121.563-146.706 114.643-146.706 114.643l3.164-16.237c4.892-25.102-2.458-50.926-19.586-69.653z" fill="#fbf6ec"/><path d="m417.702 282.77c-3.649 5.559-9.337 13.248-17.43 21.633 3.167 11.111 4.587 22.168 4.587 31.956 0 77.251-59.245 102.616-102.437 110.843-.247 2.523-.614 5.047-1.104 7.563l-3.164 16.237s146.706 6.92 146.706-114.643c-.001-22.759-7.676-52.384-27.158-73.589z" fill="#f9efda"/><path d="m281.731 385.112c.004-.006.009-.012.013-.018-8.334 11.377-19.152 21.426-25.744 21.426-6.589 0-17.398-10.038-25.731-21.407-6.37 6.965-11.388 14.913-14.926 23.439 11.069 34.052 31.186 59.235 40.657 59.235 9.472 0 29.588-25.183 40.657-59.235-3.538-8.527-8.555-16.474-14.926-23.44z" fill="#f4e2c1"/><path d="m201.193 124.096-43.992-61.334c-3.629-5.06-11.53-3.735-13.291 2.258-10.029 34.155-8.943 69.967 3.143 103.565l4.383 12.185c2.026 5.634 9.545 6.737 13.099 1.905l36.605-49.764c1.925-2.616 1.946-6.175.053-8.815zm-40.402 38.354c-8.855-25.185-10.943-51.704-6.202-77.593l31.24 43.555z"/><path d="m325.423 116.588c-3.364-2.414-8.051-1.643-10.466 1.723l-4.149 5.785c-1.894 2.64-1.872 6.198.053 8.815l36.604 49.764c3.549 4.824 11.068 3.738 13.1-1.905l4.384-12.186c12.084-33.599 13.171-69.411 3.142-103.565-1.762-6-9.665-7.314-13.291-2.258l-19 26.49c-2.414 3.366-1.643 8.051 1.724 10.465 3.364 2.414 8.051 1.644 10.466-1.723l9.423-13.138c4.74 25.889 2.653 52.409-6.202 77.593l-25.037-34.039.975-1.358c2.412-3.363 1.64-8.049-1.726-10.463z"/><path d="m83.014 428.79c-3.134 12.084-4.722 24.037-4.722 35.586v40.125c0 4.142 3.358 7.5 7.5 7.5h340.416c4.143 0 7.5-3.358 7.5-7.5v-40.126c0-11.549-1.587-23.501-4.721-35.585 15.52-19.32 23.373-43.619 23.373-72.431 0-4.914-.334-10.008-.994-15.14-.528-4.108-4.287-7.012-8.395-6.483-4.108.528-7.011 4.287-6.482 8.395 1.131 8.806 1.131 17.71.186 26.748-7.213-11.01-16.862-20.345-28.319-27.215-3.552-2.128-8.159-.978-10.289 2.575-2.131 3.552-.978 8.159 2.574 10.29 14.36 8.612 25.299 21.894 31.01 37.583-4.264 12.411-10.907 23.286-19.896 32.539-3.665-19.774-14.034-37.84-29.626-51.044-3.162-2.678-7.895-2.284-10.57.877-2.677 3.161-2.284 7.894.877 10.57 15.229 12.895 24.448 31.382 25.657 51.19-12.176 8.558-25.934 14.348-39.251 18.26 3.651-19.345.73-39.602-8.51-57.218-1.924-3.668-6.459-5.081-10.125-3.158-3.669 1.924-5.082 6.457-3.158 10.125 8.752 16.688 10.668 36.232 5.435 54.245-14.461 2.865-27.223 3.744-35.224 3.984l1.419-7.283c3.284-16.854 1.466-34.184-4.836-49.797-.146-.487-.341-.958-.581-1.405-3.074-7.254-7.125-14.118-12.091-20.366 3.866-5.914 8.12-13.668 9.453-20.772h14.25c8.713 0 16.809-3.646 22.549-10.078 42.351-15.746 67.577-41.261 80.739-58.611 3.612 4.977 6.786 10.478 9.48 16.439 1.254 2.772 3.982 4.413 6.84 4.413 5.383 0 9.089-5.589 6.83-10.591-3.904-8.638-8.707-16.477-14.316-23.374.989-1.687 1.715-3.034 2.198-3.969 1.246-2.41 1.094-5.306-.399-7.572-15.719-23.852-35.445-48.91-48.804-68.643l8.879-24.685c12.882-35.813 14.832-74.124 5.973-110.547l10.089-14.066c2.414-3.366 1.643-8.051-1.724-10.465-3.363-2.414-8.051-1.643-10.466 1.723l-3.293 4.592c-1.006-2.871-2.082-5.725-3.227-8.56l7.928-11.053c2.414-3.366 1.643-8.051-1.724-10.465-3.363-2.414-8.052-1.643-10.466 1.723l-4.884 6.81c-2.099-1.481-4.458-2.6-7-3.301l8.398-11.709c2.414-3.366 1.643-8.051-1.724-10.466-3.366-2.413-8.051-1.643-10.466 1.724-7.758 10.817-73.819 102.921-85.971 119.864-15.976-2.82-32.639-2.822-48.627 0-67.582-94.225-18.083-25.211-85.971-119.862-2.413-3.366-7.098-4.138-10.465-1.723-3.366 2.414-4.138 7.1-1.723 10.465l8.398 11.709c-2.542.7-4.901 1.82-7 3.301l-4.884-6.81c-2.413-3.366-7.098-4.138-10.465-1.723-3.366 2.414-4.138 7.1-1.723 10.465l7.927 11.052c-1.146 2.835-2.221 5.689-3.227 8.561l-3.293-4.591c-2.413-3.366-7.098-4.137-10.465-1.724-3.366 2.415-4.138 7.1-1.724 10.466l10.088 14.066c-8.858 36.423-6.909 74.734 5.973 110.547l8.879 24.685c-4.603 6.798-9.981 14.249-15.177 21.374-2.44 3.347-1.706 8.039 1.641 10.479s8.038 1.705 10.479-1.641c6.108-8.377 12.475-17.211 17.654-25.057 1.303-1.973 1.598-4.445.798-6.67l-10.16-28.247c-12.199-33.914-13.765-70.258-4.824-104.651.093-.285.17-.576.228-.869 2.507-9.446 6.306-19.865 8.475-24.533 2.492-5.115 9.779-5.96 13.283-1.075l64.191 89.498c-12.115 12.528-19.336 28.947-20.366 46.372-.245 4.135 2.909 7.686 7.044 7.93 4.163.242 7.687-2.933 7.93-7.044.837-14.166 6.825-27.493 16.86-37.527l2.041-2.041c5.377-1.049 10.867-1.737 16.392-2.064v75.397c0 4.142 3.358 7.5 7.5 7.5 4.143 0 7.5-3.358 7.5-7.5v-75.397c5.525.326 11.015 1.015 16.392 2.064l2.041 2.041c10.035 10.035 16.023 23.362 16.86 37.527.244 4.12 3.778 7.287 7.93 7.044 4.135-.244 7.289-3.794 7.045-7.93-1.031-17.425-8.251-33.843-20.366-46.372l64.191-89.498c2.392-3.335 5.81-3.345 7.171-3.196 2.609.288 4.879 1.727 6.177 4.409 1.903 4.083 5.764 14.424 8.41 24.397.059.293.135.582.228.866 8.942 34.393 7.375 70.738-4.824 104.652l-10.16 28.247c-.8 2.225-.504 4.698.799 6.671 12.702 19.239 32.566 44.492 48.346 67.944-3.725 6.2-12.06 18.449-26.316 31.407l-18.991-18.992c-3.186-3.186-4.94-7.422-4.94-11.928v-6.863c0-12.662-7.496-24.126-19.098-29.205-3.794-1.661-8.217.069-9.878 3.863s.067 8.217 3.862 9.878c6.144 2.689 10.113 8.76 10.113 15.464v6.863c0 8.513 3.315 16.516 9.334 22.535l17.99 17.991c-8.617 6.487-18.793 12.823-30.691 18.343.341-14.747-7.563-29.131-20.77-36.782-3.582-2.075-8.172-.854-10.249 2.73s-.854 8.173 2.729 10.25c8.202 4.752 13.298 13.593 13.298 23.072 0 8.339-6.724 15.259-15.259 15.259h-41.007c-5.716 0-10.366-4.65-10.366-10.367v-1.593l27.396-25.115c4.349-3.987 2.591-11.221-3.104-12.766l-8.012-2.175c-15.56-4.225-32.006-4.225-47.562 0l-8.012 2.175c-5.693 1.545-7.453 8.779-3.103 12.766l27.396 25.115v1.593c0 5.716-4.65 10.367-10.366 10.367h-41.007c-8.539 0-15.259-6.923-15.259-15.259 0-9.479 5.095-18.32 13.298-23.072 3.584-2.077 4.806-6.666 2.73-10.25-2.077-3.583-6.666-4.806-10.25-2.73-13.48 7.811-21.106 22.371-20.769 36.782-11.898-5.52-22.074-11.856-30.692-18.343l17.99-17.99c6.02-6.019 9.334-14.022 9.334-22.535v-6.863c0-6.705 3.97-12.774 10.113-15.464 3.794-1.661 5.524-6.084 3.863-9.878-1.662-3.795-6.087-5.523-9.878-3.863-11.602 5.079-19.098 16.542-19.098 29.205v6.863c0 4.506-1.754 8.742-4.941 11.928l-18.991 18.992c-14.256-12.958-22.591-25.207-26.316-31.407 2.99-4.442 6.338-9.264 10.155-14.627 2.402-3.375 1.613-8.058-1.761-10.459s-8.058-1.613-10.459 1.761c-5.036 7.076-9.285 13.248-12.988 18.868-1.493 2.266-1.646 5.161-.4 7.571.484.935 1.21 2.283 2.199 3.971-15.964 19.662-25.365 46.983-25.365 74.298-.001 28.811 7.852 53.11 23.372 72.43zm333.521 13.003c1.444 7.677 2.173 15.234 2.173 22.581v32.626h-325.416v-32.625c0-7.348.729-14.905 2.173-22.582 38.625 34.06 96.157 36.795 113.624 36.795 2.885 0 4.678-.075 5.111-.095 4.555-.215 7.885-4.427 7.008-8.926l-3.165-16.237c-1.328-6.815-1.65-13.724-1.026-20.516 11.017 22.995 26.324 42.472 38.982 42.472s27.965-19.476 38.982-42.471c.624 6.792.302 13.701-1.026 20.515l-3.164 16.237c-.874 4.484 2.437 8.711 7.008 8.926.434.021 2.224.095 5.111.095 17.474 0 75.003-2.738 113.625-36.795zm-134.769-44.722c2.664 3.748 4.953 7.727 6.852 11.873-7.474 21.748-17.76 37.328-25.117 45.308v-22.732c0-4.142-3.357-7.5-7.5-7.5-4.142 0-7.5 3.358-7.5 7.5v22.732c-7.357-7.98-17.643-23.56-25.117-45.308 1.898-4.146 4.188-8.124 6.852-11.872 6.637 7.621 16.627 16.948 25.766 16.948 9.136 0 19.126-9.327 25.764-16.949zm-11.211-86.988-14.555 13.343-14.554-13.343c9.605-1.879 19.5-1.879 29.109 0zm-14.555 46.399c4.588 4.557 10.904 7.376 17.866 7.376h11.277c-2.205 6.436-7.172 13.987-11.425 19.41-8.95 11.415-15.946 15.597-17.672 15.752-1.817-.156-8.813-4.338-17.763-15.752-1.275-1.626-1.955-2.584-2.072-2.735-4.761-6.509-7.912-12.469-9.353-16.676h11.276c6.962.002 13.278-2.818 17.866-7.375zm-162.159-61.308c13.16 17.348 38.384 42.86 80.737 58.607 5.74 6.432 13.836 10.078 22.549 10.078h14.25c1.333 7.104 5.586 14.858 9.453 20.772-4.966 6.249-9.018 13.113-12.092 20.367-.24.446-.434.916-.58 1.402-6.303 15.613-8.121 32.945-4.836 49.799l1.421 7.293c-7.999-.232-20.756-1.101-35.216-3.963-5.246-18.021-3.333-37.579 5.425-54.277 1.924-3.668.51-8.202-3.158-10.125-3.669-1.924-8.202-.51-10.125 3.158-9.245 17.626-12.164 37.895-8.504 57.25-13.312-3.913-27.069-9.711-39.258-18.287 1.208-19.81 10.429-38.299 25.658-51.195 3.161-2.676 3.554-7.409.877-10.57-2.676-3.16-7.407-3.554-10.57-.877-15.593 13.203-25.961 31.269-29.626 51.044-8.989-9.253-15.632-20.129-19.896-32.54 5.711-15.688 16.649-28.969 31.01-37.582 3.552-2.13 4.705-6.737 2.575-10.29-2.13-3.552-6.737-4.705-10.29-2.575-11.456 6.87-21.105 16.205-28.318 27.214-.456-4.366-.685-8.873-.685-13.519-.001-17.57 5.17-41.832 19.199-61.184z"/><circle cx="222.843" cy="331.359" r="7.5"/><circle cx="197.843" cy="331.359" r="7.5"/><circle cx="289.157" cy="331.359" r="7.5"/><circle cx="314.157" cy="331.359" r="7.5"/><path d="m231.112 263.501c4.142 0 7.5-3.358 7.5-7.5v-10.639c0-8.548-5.767-16.064-14.024-18.277l-38.313-10.266c-3.997-1.067-8.113 1.302-9.186 5.304-1.072 4.001 1.303 8.113 5.304 9.186l38.313 10.266c1.711.458 2.906 2.016 2.906 3.788v10.639c0 4.141 3.358 7.499 7.5 7.499z"/><path d="m273.389 245.362v10.639c0 4.142 3.357 7.5 7.5 7.5s7.5-3.358 7.5-7.5v-10.639c0-1.772 1.195-3.329 2.906-3.788l38.313-10.266c4.001-1.072 6.375-5.185 5.303-9.186-1.071-4.001-5.183-6.375-9.186-5.304l-38.313 10.266c-8.257 2.214-14.023 9.729-14.023 18.278z"/></g></svg>