<svg id="Capa_1" enable-background="new 0 0 512.068 512.068" height="512" viewBox="0 0 512.068 512.068" width="512" xmlns="http://www.w3.org/2000/svg"><g><path d="m430.942 477.076c-9.042-45.684-35.06-84.385-70.712-110.071-8.524-6.141-12.897-16.534-11.367-26.928l1.521-10.34c-31.389 24.036-66.431 39.345-94.35 39.345s-62.961-15.309-94.35-39.345l1.521 10.34c1.53 10.394-2.843 20.786-11.367 26.928-35.652 25.686-61.671 64.388-70.712 110.071l-5.441 27.491h180.349 180.349z" fill="#f1f1f4"/><path d="m421.619 174.597c-.789 1.9-3.333 2.243-4.588.612-17.619-22.881-51.049-59.556-96.539-79.44-1.847-.807-2.167-3.29-.587-4.543l1.865-1.478c-18.84-6.358-40.627-10.251-65.735-10.251s-46.895 3.893-65.735 10.251l1.865 1.478c1.58 1.252 1.26 3.735-.587 4.543-45.49 19.884-78.919 56.559-96.539 79.44-1.256 1.63-3.799 1.288-4.588-.612-6.767 12.356-9.551 20.822-9.551 20.822 0 85.407 108.101 173.664 175.135 173.664 67.035 0 175.135-88.257 175.135-173.664-.001 0-2.784-8.467-9.551-20.822z" fill="#f1f1f4"/><path d="m421.619 174.596c-.79 1.901-3.333 2.243-4.588.613-17.62-22.881-51.049-59.556-96.539-79.44-1.847-.807-2.167-3.29-.587-4.543l1.865-1.478c-8.324-2.809-17.224-5.137-26.73-6.86 38.095 20.655 66.308 51.953 81.992 72.321 1.255 1.63 3.799 1.288 4.588-.612.068.124.135.247.202.37 7.699 14.135 9.936 30.64 6.201 46.297-18.247 76.473-111.716 147.82-171.988 147.82-11.407 0-24.004-2.556-37.055-7.218 26.515 16.938 54.177 27.218 77.055 27.218 67.035 0 175.135-88.257 175.135-173.664-.001-.001-2.784-8.468-9.551-20.824z" fill="#dfdde2"/><path d="m393.258 193.507c-.039-.051-.078-.102-.118-.153-21.557-27.937-52.186-47.478-86.599-55.281l-1.712-.388c-13.336-3.024-22.802-14.877-22.802-28.552 0-1.697-1.263-3.143-2.948-3.338-7.472-.864-15.163-1.298-23.044-1.298s-15.572.434-23.044 1.298c-1.686.195-2.948 1.641-2.948 3.338 0 13.674-9.466 25.528-22.802 28.552l-1.712.388c-34.413 7.804-65.042 27.345-86.599 55.281-.039.051-.079.102-.118.153-2.205 2.866-4.812 5.299-7.711 7.247 2.152 28.942 21.47 62.714 52.597 91.499 4.548 4.205 9.249 8.203 14.04 11.962 3.199 5.636 8.756 9.757 15.331 11.021 3.983 2.612 7.98 5.044 11.958 7.277 5.266 27.984 26.93 46.57 51.01 46.57s45.744-18.587 51.01-46.57c3.977-2.233 7.975-4.665 11.958-7.277 6.574-1.264 12.132-5.385 15.331-11.021 4.791-3.758 9.492-7.756 14.04-11.962 31.127-28.785 50.444-62.557 52.597-91.499-2.904-1.948-5.51-4.382-7.715-7.247z" fill="#a298a5"/><path d="m307.043 322.512c3.977-2.233 7.975-4.665 11.958-7.277 6.574-1.264 12.132-5.385 15.331-11.021 4.791-3.758 9.492-7.756 14.04-11.962 31.127-28.785 50.444-62.557 52.597-91.499-2.899-1.948-5.506-4.381-7.711-7.247-.039-.051-.078-.102-.118-.153-1.114-1.443-2.252-2.864-3.414-4.262-.18 4.076-.746 8.151-1.705 12.171-18.174 76.165-110.965 147.246-171.258 147.816 9.76 12.559 24.032 20.004 39.271 20.004 24.079 0 45.744-18.587 51.009-46.57z" fill="#8b818e"/><path d="m430.942 477.076c-9.042-45.684-35.06-84.385-70.712-110.071-8.524-6.141-12.897-16.534-11.367-26.928l1.521-10.34c-9.182 7.031-18.676 13.314-28.213 18.687 34.654 25.682 59.895 63.802 68.771 108.652 2.817 14.233-8.075 27.491-22.584 27.491h-288.715l-3.958 20h360.698z" fill="#dfdde2"/><path d="m452.9 16.442c-8.618-10.338-23.793-11.807-34.206-3.549l-98.789 78.333c-1.579 1.252-1.26 3.735.587 4.543 45.49 19.884 78.919 56.559 96.538 79.44 1.256 1.63 3.799 1.288 4.588-.612l12.673-30.51c5.116-12.317 5.677-26.054 1.583-38.747l21.326-65.018c2.682-8.176 1.21-17.271-4.3-23.88z" fill="#a298a5"/><path d="m59.167 16.442c-5.509 6.609-6.982 15.704-4.3 23.879l21.326 65.018c-4.095 12.693-3.533 26.43 1.583 38.747l12.673 30.51c.789 1.9 3.333 2.243 4.588.612 17.619-22.881 51.049-59.556 96.539-79.44 1.847-.807 2.167-3.29.587-4.543l-98.789-78.332c-10.414-8.257-25.589-6.789-34.207 3.549z" fill="#a298a5"/><path d="m256.034 291.964-22.655-24.354c-4.085-4.392-.971-11.543 5.027-11.543h35.254c5.998 0 9.113 7.151 5.027 11.543z" fill="#665e66"/><path d="m68.333 105.439c-3.829 13.699-2.956 28.347 2.518 41.525l11.309 27.228c-5.79 11.075-8.274 18.543-8.386 18.884-.248.756-.375 1.547-.375 2.343 0 29.232 12.053 60.706 33.952 90.19h-14.665c-4.143 0-7.5 3.358-7.5 7.5s3.357 7.5 7.5 7.5h26.812c6.144 6.987 12.807 13.764 19.932 20.273l-30.899 12.767c-3.828 1.582-5.649 5.967-4.067 9.796 1.586 3.84 5.981 5.645 9.796 4.067l37.935-15.674c.835.673 1.673 1.34 2.513 2l1.079 7.332c1.128 7.667-2.064 15.235-8.331 19.75-16.141 11.628-30.236 25.677-41.895 41.755-3.619 4.99.02 11.903 6.065 11.903 2.321 0 4.61-1.075 6.077-3.098 10.719-14.782 23.679-27.698 38.521-38.39 9.004-6.488 14.337-16.614 14.76-27.448 29.328 19.556 59.899 30.941 85.05 30.941s55.722-11.385 85.05-30.941c.424 10.834 5.756 20.96 14.761 27.448 35.252 25.398 59.31 62.845 67.739 105.442l3.669 18.536h-342.439l3.669-18.536c2.518-12.722 6.474-25.138 11.76-36.903 1.698-3.778.011-8.217-3.768-9.915-3.776-1.697-8.216-.012-9.914 3.768-5.751 12.8-10.056 26.305-12.793 40.139l-5.441 27.492c-.917 4.635 2.634 8.956 7.357 8.956h360.699c4.724 0 8.274-4.323 7.357-8.956l-5.441-27.492c-9.171-46.338-35.34-87.073-73.686-114.7-6.268-4.516-9.46-12.084-8.332-19.751l1.079-7.332c.84-.66 1.677-1.327 2.513-2l37.935 15.674c3.828 1.581 8.214-.239 9.796-4.067 1.582-3.829-.239-8.214-4.067-9.796l-30.899-12.767c7.351-6.718 13.967-13.491 19.932-20.273h26.812c4.143 0 7.5-3.358 7.5-7.5s-3.357-7.5-7.5-7.5h-14.664c21.899-29.484 33.952-60.958 33.952-90.19 0-.796-.127-1.587-.375-2.343-.113-.34-2.595-7.809-8.386-18.884l11.309-27.226c5.475-13.177 6.347-27.825 2.518-41.525l20.592-62.78c3.518-10.722 1.346-22.608-5.666-31.02-11.259-13.508-30.862-15.539-44.627-4.624l-93.772 74.355c-39.965-12.518-88.46-12.528-128.457 0l-12.332-9.779c-3.246-2.574-7.964-2.029-10.537 1.217s-2.028 7.963 1.217 10.536l11.206 8.886c-39.854 19.433-70.035 50.925-87.129 71.918l-9.527-22.939c-4.429-10.661-4.916-22.583-1.372-33.568.487-1.509.482-3.134-.012-4.64l-21.327-65.019c-1.919-5.852-.794-12.266 2.936-16.74 6.004-7.203 16.45-8.291 23.785-2.475l54.036 42.847c3.246 2.572 7.963 2.029 10.537-1.217 2.573-3.246 2.028-7.963-1.217-10.537l-54.036-42.846c-13.766-10.913-33.369-8.884-44.627 4.624-7.012 8.411-9.184 20.297-5.666 31.02zm71.655 195.169h21.756c2.852 2.542 5.781 5.028 8.76 7.434l-15.656 6.469c-5.305-4.575-10.291-9.27-14.86-13.903zm116.046-19.655-16.172-17.385h32.344zm0 35.812c4.226 3.953 9.899 6.376 16.128 6.376h27.095c-5.09 22.738-22.615 38.442-43.223 38.442s-38.133-15.704-43.223-38.442h27.095c6.229 0 11.902-2.424 16.128-6.376zm48.57 32.223c4.08-6.384 7.188-13.671 9.076-21.635 2.762-1.613 5.532-3.318 8.277-5.094 2.656-.659 5.174-1.673 7.5-2.989l14.436 5.965c-12.874 9.65-26.243 17.701-39.289 23.753zm-136.43-23.753 14.436-5.965c2.326 1.315 4.844 2.33 7.501 2.989 2.743 1.774 5.513 3.479 8.277 5.093 1.888 7.965 4.996 15.251 9.076 21.636-13.046-6.051-26.415-14.103-39.29-23.753zm189.046-10.724-15.656-6.469c2.978-2.406 5.908-4.892 8.759-7.434h21.756c-4.582 4.647-9.571 9.342-14.859 13.903zm66.134-295.741c7.333-5.816 17.781-4.728 23.785 2.475 3.729 4.474 4.854 10.888 2.936 16.739l-21.326 65.018c-.494 1.506-.499 3.131-.012 4.64 3.544 10.987 3.057 22.908-1.371 33.568l-9.528 22.939c-17.093-20.991-47.275-52.485-87.129-71.917zm-322.375 161.015c15.706-20.396 48.752-57.541 93.601-77.144 3.374-1.474 5.649-4.572 6.04-8.25 34.61-9.87 76.168-9.884 110.828 0 .39 3.676 2.664 6.775 6.04 8.25 44.849 19.604 77.895 56.748 93.6 77.143 1.676 2.178 4.156 3.559 6.823 3.889 3.167 6.319 5.008 11.008 5.75 13.014-.389 28.623-13.927 59.915-37.988 88.921h-19.999c8.291-8.897 15.569-18.175 21.733-27.716 2.248-3.479 1.249-8.122-2.229-10.37-3.479-2.248-8.122-1.249-10.37 2.23-8.076 12.501-18.267 24.557-30.306 35.855h-.694c-3.339-12.942-15.112-22.532-29.083-22.532-4.143 0-7.5 3.358-7.5 7.5s3.357 7.5 7.5 7.5c8.288 0 15.031 6.743 15.031 15.032 0 8.27-6.725 15.032-15.031 15.032h-42.562c-4.758 0-8.628-3.871-8.628-8.628v-4.599l20.646-22.194c8.559-9.199 2.024-24.151-10.519-24.151h-35.254c-12.565 0-19.062 14.969-10.519 24.151l20.646 22.194v4.599c0 4.757-3.87 8.628-8.628 8.628h-42.562c-8.288 0-15.031-6.744-15.031-15.032s6.743-15.032 15.031-15.032c4.143 0 7.5-3.358 7.5-7.5s-3.357-7.5-7.5-7.5c-13.971 0-25.744 9.589-29.083 22.532h-.694c-27.317-25.652-45.186-55.689-48.578-81.447 3.423-2.933 5.232-5.469 5.877-6.226 34.189-44.307 83.207-52.593 84.032-52.937 15.634-3.546 26.896-16.479 28.458-32.124 3.662-.351 7.404-.596 11.178-.735v19.324c0 4.142 3.357 7.5 7.5 7.5s7.5-3.358 7.5-7.5v-19.324c3.774.14 7.516.384 11.179.735 1.562 15.645 12.824 28.579 28.458 32.124 1.331.567 49.001 7.346 84.143 53.082 1.721 2.236 3.65 4.271 5.767 6.082-.639 4.859-1.795 9.916-3.449 15.082-1.264 3.945.91 8.167 4.854 9.43 3.942 1.262 8.168-.909 9.431-4.855 2.47-7.71 3.994-15.284 4.532-22.51.2-2.689-1.059-5.279-3.297-6.782-2.469-1.658-4.322-3.504-6.074-5.755-22.561-29.238-54.835-49.841-90.878-58.014l-1.711-.388c-9.986-2.265-16.961-10.998-16.961-21.237 0-5.517-4.121-10.155-9.588-10.788-15.496-1.792-32.283-1.796-47.812 0-5.465.633-9.586 5.271-9.586 10.788 0 10.239-6.975 18.973-16.961 21.237l-1.712.388c-36.044 8.174-68.318 28.777-90.83 57.952-1.767 2.276-3.603 4.125-6.122 5.817-2.238 1.503-3.497 4.093-3.297 6.782 2.01 27.026 17.388 57.093 42.769 84.299h-19.994c-24.061-29.006-37.599-60.298-37.988-88.921.744-2.012 2.585-6.7 5.75-13.015 2.666-.329 5.146-1.709 6.821-3.886z"/><path d="m406.888 136.672c2.874 2.977 7.622 3.066 10.604.187 2.98-2.877 3.063-7.625.187-10.605-13.155-13.628-27.102-25.708-41.449-35.903-.757-.537-.786-1.688-.022-2.292l61.646-48.88c3.245-2.574 3.79-7.291 1.217-10.537s-7.29-3.79-10.537-1.217l-61.646 48.881c-8.568 6.794-8.277 19.925.653 26.272 13.594 9.661 26.833 21.131 39.347 34.094z"/><path d="m135.838 90.351c-14.348 10.196-28.294 22.275-41.449 35.903-2.877 2.98-2.794 7.728.187 10.605 2.978 2.874 7.725 2.795 10.604-.187 12.515-12.963 25.753-24.434 39.348-34.094 8.943-6.357 9.205-19.49.652-26.272l-61.645-48.88c-3.246-2.573-7.963-2.029-10.537 1.217-2.573 3.246-2.028 7.963 1.217 10.536l61.646 48.881c.76.604.735 1.752-.023 2.291z"/><path d="m331.919 445.073c2.47-3.326 1.775-8.023-1.55-10.493s-8.022-1.776-10.493 1.549c-35.592 47.929-92.071 47.957-127.684 0-2.471-3.326-7.168-4.019-10.493-1.549-3.325 2.469-4.02 7.167-1.55 10.493 41.628 56.055 110.152 56.04 151.77 0z"/><path d="m218.123 200.14-47.192-12.645c-4.002-1.07-8.114 1.303-9.186 5.304s1.302 8.113 5.303 9.186l47.192 12.645c2.866.768 4.868 3.377 4.868 6.345v5.021c0 4.142 3.357 7.5 7.5 7.5s7.5-3.358 7.5-7.5v-5.021c0-9.746-6.573-18.314-15.985-20.835z"/><path d="m341.137 187.494-47.192 12.645c-9.412 2.522-15.985 11.089-15.985 20.834v5.021c0 4.142 3.357 7.5 7.5 7.5s7.5-3.358 7.5-7.5v-5.021c0-2.968 2.002-5.577 4.868-6.345l47.192-12.645c4.001-1.072 6.375-5.185 5.303-9.186-1.071-4-5.184-6.372-9.186-5.303z"/></g></svg>