<svg id="Capa_1" enable-background="new 0 0 512 512" height="512" viewBox="0 0 512 512" width="512" xmlns="http://www.w3.org/2000/svg"><g><path d="m141.32 101.654c11.148-7.893 23.174-14.12 35.796-18.591l-72.195-44.723 1.381 14.683c1.933 20.568 12.641 39.739 30.087 52.166.598-.451 1.202-.895 1.814-1.328z" fill="#8b818e"/><path d="m405.698 53.022 1.381-14.682-72.196 44.722c12.622 4.472 24.649 10.699 35.797 18.592l3.117 2.207c.611.433 1.215.875 1.812 1.326 17.447-12.424 28.156-31.595 30.089-52.165z" fill="#8b818e"/><path d="m106.302 53.023-1.381-14.683 72.195 44.723c4.511-1.598 9.099-2.973 13.749-4.118 7.223-1.779 8.782-11.333 2.458-15.25l-86.111-53.343c-6.762-4.19-15.412-3.752-21.717 1.098-4.768 3.667-7.319 9.526-6.755 15.514l2.671 28.399c1.643 17.466 7.976 34.163 18.329 48.325l10.22 13.98c3.278 4.484 9.871 4.54 13.353.212 3.812-4.737 8.203-9.012 13.075-12.692-17.445-12.427-28.153-31.597-30.086-52.165z" fill="#a298a5"/><path d="m426.505 11.45c-6.305-4.85-14.954-5.288-21.717-1.099l-86.111 53.343c-6.324 3.918-4.765 13.471 2.458 15.25 4.65 1.146 9.237 2.52 13.748 4.118l72.196-44.722-1.381 14.682c-1.933 20.57-12.642 39.741-30.089 52.165 4.873 3.68 9.264 7.956 13.077 12.693 3.482 4.327 10.075 4.272 13.353-.212l10.22-13.98c10.354-14.162 16.687-30.86 18.329-48.326l2.671-28.399c.564-5.987-1.987-11.846-6.754-15.513z" fill="#a298a5"/><path d="m418.66 462.339c27.303-21.512 48.411-49.882 61.171-82.215l24.67-62.514-15.962-15.008c-12.834-12.067-21.248-28.091-23.895-45.508 9.727-6.771 18.833-14.391 27.214-22.771l6.275-6.275-49.687-54.782-.52-.628c-10.474-12.663-18.469-27.144-23.982-42.625-2.499-7.018-6.327-15.15-13.111-24.373l-8.793 12.028c-3.278 4.484-9.871 4.54-13.354.212-4.279-5.318-9.288-10.054-14.889-14.02l-3.117-2.207c-15.132-10.714-31.884-18.359-49.545-22.71-7.223-1.779-8.782-11.333-2.458-15.25l12.711-7.874c-14.716-4.04-29.99-6.123-45.429-6.123h-59.916c-15.439 0-30.713 2.083-45.429 6.123l12.711 7.874c6.324 3.918 4.765 13.471-2.458 15.25-17.661 4.351-34.413 11.996-49.545 22.71l-3.117 2.207c-5.601 3.965-10.609 8.702-14.889 14.02-3.482 4.328-10.075 4.272-13.354-.212l-8.793-12.028c-6.784 9.223-10.612 17.355-13.111 24.373-5.513 15.481-13.508 29.962-23.982 42.625l-.52.628-49.687 54.782 6.275 6.275c8.38 8.38 17.487 16 27.214 22.771-2.647 17.416-11.061 33.441-23.895 45.508l-15.963 15.008 24.67 62.514c12.76 32.333 33.868 60.702 61.17 82.215 34.655 27.305 77.491 42.153 121.611 42.153h82.097c44.12 0 86.956-14.848 121.612-42.153z" fill="#f1f1f4"/><path d="m411.911 185.889-3.278-14.396s-41.284-7.516-92.139-56.861c-25.823-25.056-42.86-31.988-60.494-31.988s-34.671 6.933-60.493 31.989c-50.855 49.345-92.139 56.861-92.139 56.861l-3.278 14.396c-8.679 38.11 12.232 76.75 48.883 90.33l27.087 10.036c5.99 2.197 11.778 4.762 17.35 7.687 5.327 2.796 11.436 3.727 17.323 2.486l32.219-6.792c7.605-1.603 13.048-8.314 13.048-16.086v-7 7c0 7.772 5.443 14.482 13.048 16.086l32.219 6.792c5.887 1.241 11.996.31 17.323-2.486 5.572-2.925 11.36-5.49 17.35-7.687l27.087-10.036c36.651-13.58 57.562-52.22 48.884-90.331z" fill="#a298a5"/><path d="m411.911 185.889-3.278-14.396s-15.483-2.819-39.166-16.338l2.444 10.733c8.678 38.111-12.232 76.751-48.884 90.331l-27.087 10.036c-5.99 2.197-11.778 4.762-17.35 7.687-5.327 2.796-11.436 3.728-17.323 2.486l-5.17-1.09c.761 6.995 5.936 12.819 12.951 14.298l32.219 6.792c5.887 1.241 11.995.31 17.323-2.486 5.572-2.925 11.36-5.49 17.35-7.687l27.087-10.036c36.651-13.579 57.562-52.219 48.884-90.33z" fill="#8b818e"/><path d="m275.316 232.593h-38.631c-5.403 0-8.109 6.533-4.288 10.353l23.603 23.605 23.604-23.604c3.821-3.821 1.115-10.354-4.288-10.354z" fill="#665e66"/><g fill="#dfdde2"><path d="m274.78 49.698c-.49 3.933 1.812 8.127 6.355 9.247 11.683 2.878 22.968 7.198 33.65 12.894-.387-3.021.826-6.245 3.892-8.144l12.711-7.874c-14.716-4.04-29.99-6.123-45.429-6.123z"/><path d="m488.538 302.602c-12.834-12.067-21.248-28.091-23.895-45.508 9.727-6.771 18.833-14.391 27.214-22.771l6.275-6.275-49.687-54.782-.521-.63c-10.473-12.662-18.468-27.142-23.98-42.623-2.499-7.019-6.327-15.15-13.111-24.374l-8.793 12.028c-3.255 4.452-9.84 4.59-13.292.288-1.042-1.299-2.128-2.562-3.255-3.789 5.423 13.918 12.901 26.947 22.433 38.47l.52.628 43.725 48.208c3.339 3.681 3.201 9.334-.313 12.848-2.522 2.522-5.992 5.589-9.61 8.644-12.451 10.514-15.77 28.521-7.44 42.527 3.731 6.274 8.341 12.039 13.731 17.107 9.637 9.061 12.775 23.083 7.919 35.388l-16.627 42.134c-12.76 32.333-33.868 60.702-61.17 82.215-34.655 27.305-77.491 42.153-121.611 42.153h-82.097c-23.119 0-45.885-4.077-67.307-11.887 31.814 20.74 69.079 31.887 107.307 31.887h82.097c44.12 0 86.956-14.848 121.611-42.153 27.303-21.512 48.411-49.882 61.17-82.215l24.67-62.514z"/><path d="m93.341 462.339c-15.961-12.576-29.805-27.495-41.101-44.179-3.336 14.365-5.049 29.145-5.049 44.065v42.262h166.386c-43.635-.306-85.942-15.127-120.236-42.148z"/></g><path d="m418.66 462.339c-34.295 27.021-76.602 41.843-120.235 42.148h166.385v-42.262c0-14.921-1.714-29.7-5.049-44.065-11.297 16.684-25.141 31.603-41.101 44.179z" fill="#c6c1c8"/><path d="m509.638 312.147-15.962-15.008c-10.454-9.83-17.733-22.732-20.792-36.712 14.139-10.344 22.209-18.733 30.551-27.074 2.829-2.829 2.94-7.379.253-10.342l-49.573-54.657c-9.651-11.65-17.442-24.952-23.105-40.856-2.709-7.607-6.321-14.782-10.982-21.797 10.134-14.718 16.353-31.814 18.029-49.635l2.671-28.398c.81-8.606-2.797-16.891-9.649-22.162-8.727-6.712-20.879-7.327-30.238-1.53l-70.656 43.769c-14.448-3.681-29.31-5.546-44.225-5.546h-59.916c-14.917 0-29.779 1.865-44.225 5.546l-70.657-43.769c-9.36-5.799-21.514-5.184-30.24 1.529-6.852 5.271-10.458 13.556-9.648 22.161l2.671 28.399c1.675 17.822 7.895 34.918 18.028 49.635-4.662 7.016-8.273 14.19-10.982 21.797-5.361 15.056-12.997 28.635-22.692 40.357-.64.775-16.052 17.743-49.986 55.156-2.687 2.963-2.576 7.514.253 10.342 9.017 9.017 16.587 16.858 30.551 27.074-3.059 13.98-10.338 26.882-20.792 36.712l-15.963 15.009c-2.237 2.104-2.966 5.36-1.839 8.217l24.67 62.514c5.095 12.91 11.483 25.224 19.03 36.761-3.009 13.978-4.533 28.288-4.533 42.586v42.262c0 4.142 3.357 7.5 7.5 7.5h417.619c4.143 0 7.5-3.358 7.5-7.5v-42.262c0-14.298-1.524-28.608-4.533-42.586 12.414-18.978 17.586-33.102 23.236-47.42 1.521-3.853-.371-8.209-4.224-9.729-3.852-1.52-8.208.371-9.729 4.224l-4.206 10.659c-29.029 73.561-99.82 119.621-175.805 119.621h-82.098c-75.997 0-146.781-46.071-175.805-119.621l-22.803-57.782 12.258-11.525c13.992-13.156 23.286-30.858 26.172-49.845.429-2.826-.784-5.649-3.13-7.282-10.679-7.435-18.988-14.712-27.419-23.143 49.943-55.064 44.71-49.263 45.632-50.377 10.816-13.078 19.318-28.181 25.268-44.889 1.684-4.73 3.792-9.278 6.37-13.736l2.413 3.301c6.168 8.434 18.648 8.692 25.252.487 5.947-7.393 11.192-11.053 16.496-14.808 14.044-9.943 29.893-17.332 47.006-21.548 12.268-3.022 16.234-18.354 7.189-26.924 8.652-1.399 17.412-2.104 26.194-2.104h59.916c8.781 0 17.541.706 26.194 2.104-9.062 8.587-5.054 23.908 7.189 26.924 18.551 4.57 35.832 12.899 51.748 24.945 4.352 3.287 8.307 7.125 11.755 11.411 6.587 8.186 19.069 7.966 25.251-.488l2.413-3.301c2.578 4.458 4.686 9.005 6.37 13.736 6.288 17.659 14.945 32.428 25.791 45.522.184.22-3.107-3.414 45.108 49.745-8.342 8.339-16.629 15.632-27.419 23.143-2.346 1.633-3.56 4.457-3.13 7.282 2.886 18.987 12.18 36.688 26.172 49.845l12.256 11.523-5.277 13.373c-1.952 4.947 1.726 10.255 6.975 10.255 2.989 0 5.814-1.8 6.979-4.749l7.145-18.104c1.125-2.858.396-6.113-1.841-8.217zm-54.113 124.29c1.187 8.542 1.785 17.167 1.785 25.787v34.762h-83.597c31.14-12.615 59.448-32.951 81.812-60.549zm-317.238 60.549h-83.597v-34.762c0-8.621.598-17.246 1.785-25.787 21.152 26.102 48.889 47.212 81.812 60.549zm-1.73-401.15c-12.882-10.853-21.079-26.306-22.755-43.172l46.891 29.047c-8.648 4.061-16.44 8.673-24.136 14.125zm53.215-24.918c-.094.595-.503.696-.7.745-3.693.91-7.386 1.969-11.019 3.159l-69.183-42.858c-5.254-3.255-11.996.913-11.416 7.078l1.381 14.682c1.874 19.94 11.145 38.302 25.818 51.625-2.555 2.447-4.956 5.063-7.182 7.83-.431.534-1.121.524-1.456.063-11.073-15.148 5.201 7.113-10.22-13.98-9.552-13.065-15.401-28.487-16.917-44.601l-2.671-28.4c-.839-8.913 9.523-14.2 17.056-9.534l86.111 53.343c.181.112.483.3.398.848zm204.757 42.261c-2.227-2.768-4.628-5.384-7.183-7.83 14.674-13.321 23.945-31.682 25.819-51.624l1.381-14.682c.579-6.155-6.152-10.34-11.416-7.078l-23.898 14.804c-3.521 2.182-4.607 6.804-2.427 10.326 2.183 3.521 6.807 4.608 10.325 2.426l11.068-6.856c-1.676 16.87-9.873 32.321-22.756 43.172-7.717-5.461-15.469-10.055-24.136-14.125l5.644-3.496c3.521-2.182 4.607-6.804 2.427-10.326-2.182-3.521-6.805-4.606-10.325-2.426l-15.105 9.357c-3.632-1.189-7.324-2.248-11.018-3.158-.197-.048-.606-.149-.7-.745-.086-.547.217-.735.397-.847 17.122-10.607 68.915-42.691 86.112-53.344 7.564-4.688 17.89.661 17.055 9.535l-2.671 28.399c-1.516 16.113-7.365 31.537-16.917 44.602-26.734 36.569 18.6-25.443-10.22 13.979-.329.455-1.019.479-1.456-.063z"/><path d="m146.332 460.537c28.695-13.188 53.584-33.726 71.975-59.394l10.573-14.757c2.412-3.367 1.639-8.052-1.729-10.465-3.367-2.411-8.051-1.639-10.465 1.729l-10.573 14.757c-16.875 23.553-39.713 42.399-66.045 54.5-3.764 1.73-5.413 6.183-3.683 9.947 1.721 3.745 6.166 5.421 9.947 3.683z"/><path d="m293.693 401.144c18.388 25.664 43.271 46.199 71.96 59.386 3.748 1.722 8.209.099 9.947-3.682 1.73-3.764.081-8.217-3.682-9.947-26.326-12.101-49.16-30.945-66.032-54.494l-10.573-14.757c-2.413-3.368-7.099-4.14-10.465-1.729-3.367 2.413-4.141 7.098-1.729 10.465z"/><path d="m77.034 367.247c-4.091 0-7.438 3.287-7.497 7.391-.061 4.142 3.248 7.548 7.39 7.608 16.386.238 19.235.29 21.318.29 28.792 0 57.677-6.463 83.709-18.75 3.746-1.768 5.35-6.238 3.581-9.983-1.768-3.746-6.238-5.35-9.983-3.581-24.817 11.714-52.443 17.693-79.881 17.296-24.934-.363-17.058-.271-18.637-.271z"/><path d="m416.548 382.516 18.525-.27c4.142-.06 7.45-3.466 7.39-7.608-.06-4.121-3.438-7.445-7.608-7.39l-18.525.27c-27.447.386-55.063-5.583-79.881-17.296-3.745-1.768-8.216-.166-9.983 3.581-1.769 3.746-.165 8.215 3.581 9.983 26.918 12.706 56.852 19.165 86.501 18.73z"/><path d="m274.438 202.642c0 4.142 3.357 7.5 7.5 7.5s7.5-3.358 7.5-7.5v-4.418c0-2.204 1.487-4.142 3.616-4.712l41.522-11.126c4.001-1.072 6.375-5.185 5.303-9.186-1.071-4.001-5.185-6.374-9.186-5.304l-41.522 11.126c-8.675 2.325-14.733 10.221-14.733 19.202z"/><path d="m172.121 173.2c-1.072 4.001 1.302 8.113 5.303 9.186l41.522 11.126c2.129.57 3.616 2.508 3.616 4.712v4.418c0 4.142 3.357 7.5 7.5 7.5s7.5-3.358 7.5-7.5v-4.418c0-8.981-6.059-16.877-14.733-19.202l-41.522-11.126c-4.001-1.07-8.115 1.303-9.186 5.304z"/><path d="m263.5 152.595v-37.897c0-4.142-3.357-7.5-7.5-7.5s-7.5 3.358-7.5 7.5v37.897c0 4.142 3.357 7.5 7.5 7.5s7.5-3.358 7.5-7.5z"/><path d="m299.103 329.31c2.946-2.912 2.974-7.661.062-10.606-2.914-2.946-7.662-2.973-10.606-.061-18.051 17.845-47.059 17.85-65.115 0-2.945-2.913-7.694-2.885-10.606.061s-2.885 7.694.062 10.606c23.894 23.625 62.298 23.633 86.203 0z"/><path d="m283.241 156.186c3.835 1.518 8.203-.349 9.732-4.215l8.295-20.966c1.524-3.852-.363-8.209-4.215-9.733-3.85-1.524-8.21.363-9.732 4.215l-8.295 20.966c-1.524 3.851.364 8.209 4.215 9.733z"/><path d="m226.002 156.714c5.27 0 8.923-5.332 6.972-10.261l-8.295-20.966c-1.522-3.852-5.881-5.738-9.732-4.215-3.852 1.524-5.739 5.882-4.215 9.733l8.295 20.966c1.164 2.947 3.988 4.743 6.975 4.743z"/><path d="m84.719 258.847c.804 4.074 4.756 6.707 8.81 5.907l19.633-3.872c8.903 9.744 20.151 17.533 33.207 22.37.222.082 2.982-1.225-36.562 16.65-3.774 1.707-5.451 6.149-3.745 9.924 1.705 3.773 6.147 5.451 9.923 3.745l50.548-22.848c8.806 3.263 14.654 5.273 23.394 9.86 6.921 3.632 14.861 4.763 22.354 3.184l32.221-6.793c4.43-.934 8.371-3.087 11.5-6.061 3.129 2.974 7.07 5.127 11.501 6.062l32.22 6.792c7.586 1.598 15.518.404 22.354-3.185 8.72-4.576 14.737-6.653 23.394-9.86l50.548 22.848c3.759 1.7 8.21.043 9.923-3.745 1.706-3.774.029-8.217-3.745-9.924l-36.712-16.594c13.233-4.9 24.443-12.67 33.357-22.426 21.271 4.195 20.044 4.015 21.092 4.015 3.51 0 6.646-2.477 7.351-6.05.802-4.064-1.844-8.008-5.907-8.81l-12.55-2.475c11.216-18.439 15.48-41.025 10.399-63.339l-3.278-14.396c-.666-2.928-3.015-5.175-5.969-5.713-.391-.071-39.604-7.654-88.261-54.865-24.969-24.223-44.008-34.104-65.719-34.104s-40.75 9.881-65.716 34.106c-2.592 2.515-5.247 5.003-7.895 7.396-3.073 2.777-3.313 7.521-.534 10.593 2.778 3.074 7.521 3.313 10.593.534 2.778-2.511 5.564-5.121 8.281-7.758 25.55-24.792 40.573-29.871 55.271-29.871s29.721 5.08 55.271 29.871c42.311 41.054 78.273 54.073 91.077 57.658l2.251 9.882c4.627 20.321-.148 40.917-11.667 56.874l-71.19-14.039c-4.063-.8-8.008 1.843-8.81 5.907s1.844 8.008 5.907 8.81l62.051 12.237c-5.971 4.974-12.846 9.019-20.47 11.844l-14.386 5.33-36.377-16.443c-3.775-1.707-8.217-.028-9.923 3.745-1.706 3.774-.029 8.217 3.745 9.924l22.758 10.287c-3.797 1.613-7.521 3.376-11.133 5.271-3.838 2.014-8.202 2.651-12.29 1.789l-32.219-6.792c-4.111-.867-7.096-4.545-7.096-8.747v-3.893l21.408-21.408c3.893-3.893 5.047-9.695 2.939-14.782-2.106-5.087-7.026-8.374-12.532-8.374h-38.631c-5.506 0-10.426 3.287-12.532 8.374-2.107 5.087-.953 10.889 2.939 14.782l21.408 21.408v3.893c0 4.202-2.984 7.88-7.095 8.747l-32.22 6.792c-4.083.861-8.449.226-12.29-1.788-3.613-1.897-7.339-3.661-11.133-5.272l22.758-10.287c3.774-1.707 5.451-6.149 3.745-9.924-1.705-3.773-6.147-5.449-9.923-3.745l-36.377 16.443-14.386-5.33c-7.624-2.825-14.499-6.87-20.47-11.844l62.051-12.237c4.063-.801 6.709-4.746 5.907-8.81-.802-4.063-4.736-6.711-8.81-5.907l-71.19 14.039c-11.518-15.957-16.294-36.553-11.667-56.874l2.253-9.89c8.85-2.49 28.812-9.509 54.275-27.167 3.403-2.361 4.249-7.034 1.889-10.437-2.36-3.404-7.032-4.249-10.438-1.889-31.075 21.551-53.162 25.907-53.357 25.943-2.954.538-5.303 2.786-5.969 5.713l-3.278 14.396c-5.081 22.313-.817 44.899 10.399 63.338l-12.55 2.475c-4.059.801-6.705 4.746-5.903 8.81zm187.132-18.754-15.851 15.851-15.851-15.851z"/></g></svg>