<svg id="Capa_1" enable-background="new 0 0 512.023 512.023" height="512" viewBox="0 0 512.023 512.023" width="512" xmlns="http://www.w3.org/2000/svg"><g><path d="m292.541 395.35c-20.175 0-36.53-16.355-36.53-36.53 0 20.175-16.355 36.53-36.53 36.53h-31.076c13.18 14.393 38.515 24.135 67.606 24.135s54.426-9.742 67.606-24.135z" fill="#afaab4"/><path d="m465.93 10.126c-9.165-4.133-19.805-3.303-28.218 2.2l-91.086 59.584c-25.25-11.984-53.492-18.69-83.301-18.69h-14.627c-29.808 0-58.051 6.705-83.301 18.69l-91.085-59.584c-8.413-5.504-19.054-6.333-28.219-2.2-11.884 5.359-18.828 17.897-17.066 30.814l5.503 40.358c2.386 17.5 12.88 32.852 28.32 41.429l.387 8.903c.496 11.417 3.975 22.446 10.014 32.022-12.217 25.447-19.061 53.963-19.061 84.078 0 80.873 65.027 146.558 145.648 147.621h19.645c20.175 0 36.53-16.355 36.53-36.53 0 20.175 16.355 36.53 36.53 36.53h19.645c80.621-1.063 145.648-66.748 145.648-147.621 0-30.115-6.844-58.631-19.061-84.078 6.039-9.575 9.517-20.605 10.014-32.022l.387-8.903c15.439-8.577 25.933-23.929 28.32-41.429l5.503-40.358c1.759-12.917-5.185-25.455-17.069-30.814z" fill="#c6c1c8"/><path d="m179.482 375.35h-19.645c-15.052-.199-29.561-2.65-43.205-7.032 23.566 16.679 52.234 26.624 83.205 27.032h19.645c14.225 0 26.551-8.132 32.584-20z" fill="#afaab4"/><path d="m465.93 10.126c-7.534-3.398-16.066-3.441-23.538-.291.888 3.554 1.121 7.313.604 11.105l-5.503 40.358c-2.07 15.184-10.245 28.751-22.458 37.679-3.694 2.7-5.999 6.899-6.198 11.47l-.051 1.183c-.319 7.343-1.872 14.526-4.546 21.264-2.964 7.468-2.974 15.752-.014 23.222 8.781 22.163 13.608 46.325 13.608 71.613 0 80.873-65.027 146.558-145.648 147.621h-12.229c6.033 11.868 18.359 20 32.584 20h19.645c80.62-1.063 145.647-66.748 145.647-147.621 0-30.115-6.844-58.631-19.061-84.078 6.039-9.575 9.517-20.605 10.014-32.022l.387-8.903c15.439-8.577 25.933-23.929 28.32-41.429l5.503-40.358c1.762-12.916-5.182-25.454-17.066-30.813z" fill="#afaab4"/><path d="m256.012 337.01-33.156-33.156c-3.385-3.385-.988-9.174 3.8-9.174h58.711c4.788 0 7.185 5.788 3.8 9.174z" fill="#f9c6da"/><path d="m75.89 99.254 13.133 7.297.652 15.01.387 8.903c.079 1.82.289 3.628.625 5.409.435 2.307 3.431 2.954 4.81 1.053 12.529-17.275 27.904-32.357 45.431-44.552 1.554-1.081 1.504-3.399-.08-4.435l-81.235-53.142c-.43-.281-.921-.424-1.415-.424-.361 0-.724.076-1.066.231-1.036.467-1.653 1.581-1.5 2.708l5.504 40.357c1.236 9.07 6.752 17.139 14.754 21.585z" fill="#f1f1f4"/><path d="m436.133 99.254-13.133 7.296-.652 15.01-.387 8.903c-.079 1.82-.289 3.628-.625 5.409-.435 2.307-3.431 2.954-4.81 1.053-12.529-17.275-27.904-32.357-45.431-44.552-1.554-1.081-1.504-3.399.08-4.435l81.236-53.141c.43-.281.921-.424 1.415-.424.361 0 .724.076 1.066.231 1.036.467 1.653 1.581 1.5 2.708l-5.504 40.357c-1.237 9.07-6.753 17.139-14.755 21.585z" fill="#f1f1f4"/><path d="m454.891 34.604c-.342-.155-.705-.231-1.066-.231-.494 0-.985.143-1.415.424l-12.41 8.119-2.507 18.382c-2.07 15.184-10.245 28.751-22.458 37.679-3.694 2.7-5.999 6.899-6.198 11.47l-.051 1.183c-.193 4.44-.838 8.821-1.908 13.08 3.377 3.936 6.597 8.011 9.647 12.216 1.378 1.901 4.375 1.254 4.81-1.053.336-1.782.546-3.59.625-5.409l.387-8.903.653-15.011 13.133-7.297c8.002-4.445 13.518-12.514 14.755-21.585l5.504-40.357c.152-1.126-.464-2.24-1.501-2.707z" fill="#dfdde2"/><path d="m423.555 427.391c-13.271-11.164-21.834-26.931-23.975-44.141l-2.049-16.476c-20.925 15.376-46.051 25.368-73.337 27.934-13.008 14.745-38.662 24.777-68.183 24.777s-55.174-10.032-68.183-24.777c-27.286-2.566-52.413-12.558-73.337-27.934l-2.049 16.476c-2.14 17.21-10.703 32.976-23.974 44.14-24.67 20.754-43.878 47.237-55.945 77.132h446.977c-12.067-29.894-31.275-56.377-55.945-77.131z" fill="#c6c1c8"/><path d="m423.555 427.391c-13.271-11.165-21.834-26.931-23.975-44.141l-2.049-16.476c-9.728 7.149-20.365 13.133-31.704 17.749 4.185 8.719 10.198 16.534 17.727 22.867 12.205 10.267 23.072 21.937 32.4 34.727 12.862 17.638.431 42.405-21.398 42.405h-352.625c-3.498 6.469-6.641 13.145-9.408 20h446.977c-12.067-29.894-31.275-56.377-55.945-77.131z" fill="#afaab4"/><path d="m285.921 257.962v6.373c0 4.142 3.357 7.5 7.5 7.5s7.5-3.358 7.5-7.5v-6.373c0-4.678 3.156-8.79 7.675-10l59.889-16.047c4.001-1.072 6.375-5.185 5.303-9.186-1.072-4-5.185-6.374-9.186-5.303l-59.889 16.047c-11.065 2.964-18.792 13.035-18.792 24.489z"/><path d="m218.601 271.835c4.143 0 7.5-3.358 7.5-7.5v-6.373c0-11.455-7.728-21.525-18.791-24.49l-59.889-16.047c-4.002-1.07-8.114 1.303-9.186 5.303-1.072 4.001 1.302 8.114 5.303 9.186l59.889 16.047c4.519 1.21 7.674 5.323 7.674 10v6.373c0 4.143 3.358 7.501 7.5 7.501z"/><path d="m456.491 127.073c15.42-10.005 25.937-26.445 28.434-44.762l5.503-40.357c2.194-16.09-6.612-31.989-21.414-38.665-11.559-5.213-24.795-4.183-35.407 2.76l-87.608 57.31c-26.039-11.707-53.831-17.639-82.673-17.639h-14.627c-28.842 0-56.634 5.932-82.673 17.639l-87.609-57.31c-10.61-6.941-23.847-7.974-35.406-2.76-14.803 6.675-23.609 22.574-21.416 38.664l5.504 40.357c2.497 18.316 13.015 34.757 28.433 44.762l.212 4.883c.49 11.254 3.602 22.268 9.039 32.101-6.625 14.542-11.497 29.841-14.496 45.537-.778 4.068 1.89 7.997 5.958 8.774 4.072.777 7.997-1.891 8.774-5.959 3.01-15.744 8.054-31.056 14.993-45.511 1.117-2.327.96-5.064-.417-7.248-5.362-8.501-8.429-18.303-8.865-28.346l-.387-8.903c-.113-2.605-1.571-4.964-3.851-6.23-13.305-7.392-22.475-20.807-24.53-35.887l-5.504-40.356c-1.303-9.557 3.928-19 12.72-22.964 6.864-3.097 14.727-2.483 21.028 1.639l91.086 59.584c2.186 1.43 4.959 1.62 7.321.499 8.834-4.193 17.894-7.659 27.147-10.39v30.424c0 18.347 3.808 36.837 11.038 53.722-7.325 13.651-12.243 28.324-14.633 43.675-.637 4.093 2.165 7.927 6.258 8.564 4.07.636 7.924-2.145 8.564-6.257 1.518-9.758 4.185-19.209 7.959-28.241l20.17 43.579c1.749 3.777 6.216 5.388 9.957 3.656 3.759-1.74 5.396-6.197 3.656-9.957l-26.74-57.774c-7.563-16.5-11.23-33.838-11.23-50.967v-34.173c3.744-.77 7.515-1.425 11.312-1.963v36.136c0 15.842 3.517 31.813 10.17 46.187l2.875 6.212c1.269 2.74 3.979 4.352 6.812 4.352 5.412 0 9.118-5.645 6.802-10.652l-2.875-6.212c-5.746-12.413-8.783-26.205-8.783-39.886v-37.65c3.75-.227 7.521-.344 11.312-.35v49.602c0 4.142 3.357 7.5 7.5 7.5s7.5-3.358 7.5-7.5v-49.602c3.791.001 7.562.113 11.312.335v37.664c0 13.681-3.037 27.473-8.783 39.887l-2.875 6.212c-2.317 5.008 1.388 10.652 6.802 10.652 2.832 0 5.544-1.613 6.812-4.352l2.875-6.211c6.653-14.374 10.17-30.345 10.17-46.187v-36.173c3.797.533 7.568 1.182 11.312 1.947v34.226c0 16.839-3.533 34.129-11.224 50.953l-26.746 57.788c-1.739 3.759-.103 8.217 3.656 9.957 3.755 1.737 8.214.109 9.957-3.656l20.17-43.579c3.775 9.032 6.441 18.483 7.959 28.241.641 4.116 4.498 6.893 8.564 6.257 4.093-.637 6.895-4.471 6.258-8.564-2.39-15.351-7.307-30.024-14.633-43.675 7.23-16.885 11.038-35.374 11.038-53.722v-30.5c9.343 2.743 18.488 6.234 27.403 10.465 2.362 1.121 5.136.931 7.321-.499l91.086-59.584c6.302-4.124 14.163-4.735 21.029-1.639 8.791 3.965 14.021 13.408 12.718 22.964l-5.503 40.357c-2.056 15.079-11.226 28.494-24.53 35.886-2.279 1.266-3.737 3.625-3.851 6.23l-.388 8.903c-.437 10.042-3.501 19.843-8.864 28.346-1.377 2.183-1.534 4.92-.417 7.247 17.233 35.897 21.562 75.19 16.141 105.412-9.842-9.701-20.412-18.819-31.447-27.123-3.313-2.492-8.013-1.826-10.503 1.483-2.49 3.31-1.826 8.012 1.483 10.502 15.797 11.887 25.662 21.534 36.286 32.158-2.479 7.896-5.642 15.5-9.418 22.741-8.733-8.314-17.98-16.154-27.585-23.382-3.312-2.492-8.012-1.827-10.503 1.483-2.49 3.31-1.826 8.012 1.483 10.502 10.06 7.571 19.705 15.844 28.741 24.649-1.117 1.668-2.269 3.31-3.455 4.927-19.368-3.164-31.793-3.19-50.081-3.746-8.663-17.397-26.636-29.378-47.354-29.378-4.143 0-7.5 3.358-7.5 7.5s3.357 7.5 7.5 7.5c11.76 0 22.284 5.389 29.234 13.827l-18.498-.562c-4.108-.138-7.599 3.128-7.724 7.269-.126 4.14 3.128 7.598 7.269 7.724l26.549.806c1.548 6.482 1.405 13.56-.762 20.324l-30.2-9.288c-3.963-1.219-8.156 1.005-9.374 4.964s1.005 8.156 4.964 9.373l27.046 8.318c-3.407 3.896-7.597 7.09-12.323 9.333-9.377 2.197-19.346 3.497-29.794 3.635-21.312 0-20.225.022-21.507-.059-15.117-.96-27.168-13.561-27.168-28.971v-18.704l30.958-30.959c3.695-3.695 4.791-9.202 2.792-14.03-2-4.828-6.669-7.948-11.895-7.948h-58.711c-5.226 0-9.895 3.12-11.895 7.948-1.999 4.828-.903 10.335 2.791 14.029l30.959 30.959c0 18.789.006 18.861-.01 19.452-.376 14.781-11.86 26.871-26.422 28.167-1.777.159-1.13.115-22.174.115-10.272-.138-20.286-1.399-29.924-3.664-4.701-2.242-8.87-5.425-12.262-9.304l27.047-8.318c3.959-1.217 6.182-5.414 4.964-9.373-1.219-3.959-5.416-6.183-9.374-4.964l-30.2 9.288c-2.059-6.427-2.392-13.498-.762-20.324l26.549-.806c4.141-.126 7.395-3.584 7.269-7.724s-3.57-7.402-7.724-7.269l-18.498.562c6.95-8.438 17.475-13.827 29.234-13.827 4.143 0 7.5-3.358 7.5-7.5s-3.357-7.5-7.5-7.5c-20.718 0-38.691 11.981-47.354 29.378-18.553.563-30.695.579-50.075 3.745-1.186-1.618-2.339-3.261-3.457-4.929 9.035-8.804 18.679-17.077 28.738-24.646 3.31-2.491 3.974-7.193 1.483-10.502s-7.193-3.974-10.503-1.483c-9.605 7.228-18.851 15.067-27.583 23.381-3.778-7.241-6.941-14.844-9.42-22.74 11.224-11.224 20.663-20.401 36.286-32.157 3.31-2.49 3.974-7.192 1.483-10.502-2.491-3.309-7.19-3.974-10.503-1.483-11.034 8.303-21.604 17.42-31.448 27.122-1.433-7.989-2.181-16.203-2.181-24.579 0-4.142-3.357-7.5-7.5-7.5s-7.5 3.358-7.5 7.5c0 30.93 9.014 60.521 25.789 85.729-7.331 1.69-10.1 2.543-34.466 9.303-3.991 1.107-6.329 5.241-5.222 9.232.921 3.321 3.937 5.497 7.223 5.497 1.463 0-.049.296 25.526-6.799 5.545-1.538 11.145-2.878 16.784-4.016 7.155 8.614 15.293 16.534 24.189 23.487l-.618 4.967c-19.438 6.034-38.148 14.385-55.621 24.825-3.556 2.125-4.716 6.729-2.592 10.286 2.135 3.573 6.746 4.705 10.285 2.591 14.255-8.518 29.385-15.558 45.077-20.983-3.452 11.932-10.345 22.182-19.406 29.804-8.504 7.155-16.405 15.001-23.622 23.428-.257.261-.49.536-.701.823-14.111 16.652-25.564 35.538-33.748 55.814-1.986 4.922 1.641 10.307 6.955 10.307h446.978c5.307 0 8.943-5.379 6.955-10.307-8.183-20.272-19.634-39.156-33.743-55.807-.214-.292-.452-.572-.713-.836-7.216-8.424-15.114-16.268-23.617-23.421-9.436-7.938-16.085-18.33-19.405-29.804 15.692 5.425 30.822 12.465 45.077 20.983 3.576 2.137 8.174.942 10.285-2.591 2.124-3.556.964-8.161-2.592-10.286-17.473-10.44-36.183-18.791-55.621-24.825l-.617-4.966c8.877-6.938 17.018-14.853 24.189-23.487 10.671 2.154 15.127 3.556 40.302 10.541 3.99 1.106 8.124-1.229 9.231-5.222 1.107-3.991-1.23-8.125-5.222-9.232-24.459-6.786-27.167-7.62-34.466-9.303 16.775-25.208 25.789-54.799 25.789-85.729 0-29.222-6.084-57.35-18.092-83.674 5.438-9.834 8.548-20.848 9.037-32.1zm-176.257 175.108-24.223 24.223-24.223-24.223zm-180.166 41.592c13.193-1.658 21.607-1.74 33.949-2.115-1.281 8.055-.69 16.412 1.799 24.267l-6.013 1.849c-10.972-6.632-20.975-14.725-29.735-24.001zm336.201 106.164c-13.901 12.38-31.427 20.17-50.041 22.127-4.119.433-7.107 4.124-6.675 8.243.432 4.103 4.105 7.107 8.243 6.675 21.619-2.273 41.982-11.283 58.176-25.602 8.625 11.022 16.037 22.99 22.048 35.643h-424.017c6.011-12.653 13.423-24.621 22.048-35.643 16.193 14.319 36.557 23.329 58.176 25.602 4.136.432 7.811-2.57 8.243-6.675.433-4.119-2.556-7.81-6.675-8.243-18.614-1.957-36.14-9.747-50.041-22.127 13.863-15.102 19.463-16.974 27.747-27.195l12.361 10.969c20.018 17.765 45.78 27.548 72.544 27.548 4.143 0 7.5-3.358 7.5-7.5s-3.357-7.5-7.5-7.5c-23.09 0-45.317-8.441-62.587-23.768l-13.996-12.42c3.8-7.281 6.421-15.185 7.719-23.448l8.195-2.52c11.844 6.451 24.484 11.312 37.653 14.468 6.111 2.631 12.814 4.141 19.849 4.27 19.244 18.623 51.617 25.576 79.12 23.889 4.134-.254 7.279-3.811 7.026-7.945-.254-4.134-3.813-7.291-7.946-7.026-17.179 1.055-36.167-1.518-51.774-8.908h7.818c15.193 0 28.613-7.734 36.529-19.474 7.916 11.739 21.336 19.474 36.529 19.474h7.69c-1.515.714-3.083 1.394-4.7 2.036-3.85 1.528-5.731 5.888-4.203 9.738 1.521 3.831 5.869 5.739 9.738 4.204 10.278-4.08 19.08-9.562 25.719-15.987 7.017-.129 13.705-1.632 19.804-4.251 13.18-3.155 25.838-8.023 37.701-14.486l8.192 2.519c1.298 8.264 3.918 16.167 7.719 23.448l-13.996 12.42c-17.27 15.326-39.497 23.767-62.587 23.767-4.143 0-7.5 3.358-7.5 7.5s3.357 7.5 7.5 7.5c26.764 0 52.526-9.784 72.544-27.548l12.36-10.969c8.48 10.462 13.453 11.623 27.747 27.195zm-54.029-82.157-6.032-1.855c2.484-7.84 3.082-16.197 1.799-24.267 12.447.378 20.812.464 33.959 2.116-8.759 9.278-18.759 17.373-29.726 24.006z"/><path d="m144.954 81.661-81.234-53.14c-2.857-1.871-6.587-2.151-9.671-.754-4.041 1.822-6.446 6.163-5.849 10.559l5.504 40.356c1.554 11.4 8.486 21.541 18.544 27.128l9.465 5.258c.918 21.12.805 21.95 1.605 26.192.91 4.832 5.127 8.279 10 8.279 3.223 0 6.306-1.529 8.251-4.211 12.079-16.654 26.763-31.054 43.641-42.798 5.909-4.108 5.782-12.919-.256-16.869zm-47.731 40.804-.706-16.241c-.113-2.605-1.571-4.964-3.851-6.23l-13.133-7.296c-5.948-3.304-10.048-9.301-10.966-16.042l-4.049-29.687 66.364 43.413c-12.466 9.35-23.738 20.095-33.659 32.083z"/><path d="m387.952 76.962c-2.269-3.466-6.918-4.438-10.382-2.17l-10.501 6.869c-6.022 3.94-6.183 12.748-.259 16.868 16.881 11.746 31.564 26.146 43.643 42.798 1.944 2.683 5.028 4.213 8.251 4.212 4.883 0 9.093-3.456 10.001-8.277.822-4.358.702-5.412 1.605-26.194l9.465-5.258c10.058-5.587 16.99-15.729 18.544-27.127l5.504-40.359c.598-4.393-1.808-8.734-5.838-10.551-3.108-1.409-6.826-1.121-9.68.749l-40.911 26.762c-3.467 2.268-4.438 6.916-2.171 10.382 2.268 3.466 6.918 4.438 10.382 2.17l31.899-20.867-4.049 29.688c-.918 6.74-5.018 12.737-10.966 16.042l-13.133 7.296c-2.279 1.267-3.737 3.625-3.851 6.23l-.706 16.241c-9.922-11.988-21.193-22.732-33.66-32.084l4.641-3.036c3.468-2.269 4.44-6.917 2.172-10.384z"/></g></svg>