<svg id="Capa_1" enable-background="new 0 0 512.02 512.02" height="512" viewBox="0 0 512.02 512.02" width="512" xmlns="http://www.w3.org/2000/svg"><g><path d="m425.1 170.982-19.14-41.272c-2.305 8.42-13.86 9.388-17.533 1.468l-1.964-4.234c-11.007-23.734-29.825-43.029-53.394-54.384-2.232-1.076-4.489-2.104-6.769-3.084-7.049-3.032-7.582-12.843-.963-16.725l1.541-.904c-45.546-17.862-96.192-17.862-141.737 0l1.541.904c6.619 3.882 6.086 13.694-.963 16.725-2.279.98-4.536 2.008-6.769 3.084-23.569 11.355-42.387 30.651-53.394 54.384l-1.964 4.234c-3.673 7.92-15.228 6.953-17.533-1.468l-19.141 41.272c-10.979 23.674-15.23 49.912-12.288 75.842 4.326 38.125 21.454 73.656 48.586 100.788l6.206 6.206c20.202 20.202 47.601 31.551 76.171 31.551 19.065 0 37.293-7.832 50.415-21.662 13.122 13.83 31.35 21.662 50.415 21.662 28.57 0 55.969-11.349 76.171-31.551l6.206-6.206c27.132-27.132 44.26-62.663 48.586-100.788 2.945-25.93-1.307-52.168-12.286-75.842z" fill="#f1f1f4"/><path d="m398.805 9.658-73.468 43.092c-6.619 3.882-6.086 13.694.963 16.725 2.279.98 4.536 2.008 6.769 3.084 23.569 11.355 42.387 30.651 53.394 54.384l1.964 4.234c3.673 7.92 15.228 6.953 17.533-1.468l4.455-16.274c6.209-22.683 9.808-46 10.726-69.5l.798-20.421c.474-12.136-12.656-20.001-23.134-13.856z" fill="#efa5c3"/><path d="m113.214 9.658 73.468 43.092c6.619 3.882 6.086 13.694-.963 16.725-2.279.98-4.536 2.008-6.769 3.084-23.569 11.355-42.387 30.651-53.394 54.384l-1.964 4.234c-3.673 7.92-15.228 6.953-17.533-1.468l-4.455-16.274c-6.209-22.683-9.808-46-10.726-69.499l-.798-20.421c-.474-12.137 12.656-20.002 23.134-13.857z" fill="#f9c6da"/><path d="m256.01 246.211-26.89-26.89c-.328-.328-.328-.861 0-1.189 14.851-14.851 38.928-14.851 53.779 0 .328.328.328.861 0 1.189z" fill="#f9c6da"/><path d="m406.245 365.095-14.889-20.093c-.841.878-1.692 1.748-2.553 2.609l-6.206 6.206c-20.202 20.202-47.601 31.551-76.171 31.551-19.065 0-37.293-7.832-50.415-21.662-13.122 13.83-31.35 21.662-50.415 21.662-28.57 0-55.969-11.349-76.171-31.551l-6.206-6.206c-.861-.861-1.712-1.731-2.553-2.609l-14.889 20.093c-21.909 29.566-33.736 65.391-33.736 102.19v37.234h367.941v-37.235c-.001-36.798-11.828-72.623-33.737-102.189z" fill="#f1f1f4"/><path d="m425.1 170.982-19.14-41.272c-2.305 8.42-13.86 9.388-17.533 1.468l-1.964-4.234c-7.272-15.681-17.954-29.424-31.164-40.22l29.801 64.258c10.979 23.674 15.23 49.912 12.288 75.842-4.326 38.125-21.455 73.656-48.586 100.788l-6.206 6.206c-20.202 20.202-47.601 31.551-76.171 31.551-3.172 0-6.321-.217-9.427-.642 13.041 13.195 30.836 20.642 49.427 20.642 28.57 0 55.969-11.349 76.171-31.551l6.206-6.206c27.132-27.132 44.26-62.663 48.586-100.788 2.943-25.93-1.309-52.168-12.288-75.842z" fill="#dfdde2"/><path d="m256.998 364.727c-.332-.336-.662-.676-.988-1.02-.243.256-.488.51-.735.762.573.093 1.147.179 1.723.258z" fill="#f1f1f4"/><path d="m406.244 365.094-14.888-20.091c-.841.878-1.692 1.748-2.553 2.609l-6.206 6.206c-2.109 2.109-4.296 4.12-6.555 6.033 15.616 26.379 23.939 56.564 23.939 87.434 0 20.564-16.67 37.234-37.235 37.234h-290.707v20h367.941v-37.235c.001-36.798-11.827-72.624-33.736-102.19z" fill="#dfdde2"/><path d="m64.539 467.285v37.234c0 4.142 3.358 7.5 7.5 7.5h367.941c4.142 0 7.5-3.358 7.5-7.5v-37.234c0-27.497-6.464-55.047-18.693-79.674-1.842-3.71-6.342-5.225-10.053-3.382-3.71 1.842-5.224 6.343-3.382 10.053 11.205 22.565 17.128 47.809 17.128 73.003v29.734h-352.941v-29.734c0-34.944 11.458-69.65 32.262-97.725l9.687-13.072 2.633 2.633c21.762 21.763 50.697 33.748 81.474 33.748 18.509 0 36.501-6.779 50.415-18.806 13.914 12.027 31.906 18.806 50.415 18.806 30.777 0 59.712-11.985 81.474-33.748l2.633-2.633 4.924 6.645c1.472 1.986 3.736 3.035 6.032 3.035 6.076 0 9.714-6.981 6.02-11.966l-6.43-8.677c24.211-27.199 39.646-61.576 43.763-97.856 3.099-27.304-1.375-54.913-12.937-79.842l-17.986-38.782c4.739-17.311 9.129-32.073 12.269-56.003.539-4.107-2.354-7.874-6.46-8.412-4.111-.545-7.874 2.353-8.412 6.46-3.019 23.008-7.23 37.064-12.589 56.641-.229.835-.782 1.296-1.646 1.368-.858.07-1.485-.29-1.85-1.075l-1.964-4.235c-4.598-9.914-10.487-19.099-17.445-27.327l19.162-7.327c3.869-1.479 5.806-5.815 4.327-9.684s-5.816-5.806-9.684-4.327l-25.152 9.618c-2.201-1.986-4.475-3.892-6.817-5.711l29.933-22.139c3.33-2.463 4.033-7.159 1.57-10.49-2.463-3.33-7.16-4.034-10.49-1.57l-34.2 25.295c-3.926-2.285-8.537-4.674-15.206-7.542-.671-.289-1.035-.815-1.082-1.564-.028-.449.058-1.28.949-1.803 154.151-90.413 2.919-1.712 73.468-43.092 3.632-2.128 6.821-.683 8.025.037 1.203.721 3.984 2.852 3.82 7.059l-.452 11.572c-.162 4.139 3.063 7.625 7.201 7.787 4.151.159 7.625-3.062 7.787-7.201l.452-11.572c.707-18.082-18.814-29.773-34.422-20.62l-68.822 40.366c-45.403-16.87-94.958-16.87-140.359 0l-68.82-40.365c-15.607-9.154-35.129 2.538-34.422 20.62l.798 20.42c.939 24.036 4.636 47.986 10.986 71.187l3.731 13.628-17.986 38.783c-1.743 3.757-.109 8.216 3.648 9.959 3.758 1.743 8.216.109 9.959-3.648l14.58-31.437c8.276 3.588 18.115.215 22.094-8.366l1.964-4.235c10.308-22.228 28.01-40.263 49.845-50.783 2.126-1.024 4.305-2.017 6.476-2.951 8.342-3.588 12.09-12.928 9.197-21.136 37.844-12.43 78.418-12.43 116.261 0-2.9 8.227.874 17.557 9.198 21.137 2.17.933 4.349 1.926 6.476 2.951 21.835 10.52 39.537 28.554 49.845 50.782l1.964 4.235c3.995 8.616 13.861 11.936 22.094 8.367l14.58 31.437c10.402 22.431 14.428 47.273 11.64 71.84-3.986 35.129-19.565 68.307-43.982 93.821-2.104 2.175-1.004 1.058-8.661 8.716-18.929 18.929-44.097 29.354-70.868 29.354-16.93 0-33.322-7.043-44.974-19.324-2.958-3.118-7.926-3.114-10.882 0-11.652 12.281-28.044 19.324-44.974 19.324-26.771 0-51.938-10.425-70.868-29.354-7.79-7.79-6.482-6.462-8.661-8.716-34.06-35.59-51.297-87.1-42.535-133.826.763-4.071-1.918-7.99-5.989-8.754-4.071-.762-7.991 1.918-8.754 5.989-9.357 49.899 7.982 103.927 42.154 142.316l-11.194 15.105c-22.705 30.641-35.21 68.518-35.21 106.655zm119.298-406.263c-.046.749-.41 1.275-1.081 1.563-6.637 2.854-11.261 5.246-15.207 7.542l-34.201-25.295c-3.331-2.463-8.027-1.761-10.49 1.57s-1.76 8.027 1.57 10.49l29.933 22.139c-2.342 1.819-4.616 3.724-6.817 5.711l-25.152-9.617c-3.867-1.478-8.204.457-9.684 4.327-1.479 3.869.458 8.205 4.327 9.684l19.162 7.327c-6.958 8.229-12.847 17.413-17.444 27.327l-1.964 4.235c-.365.786-.994 1.144-1.85 1.075-.863-.072-1.417-.533-1.646-1.368l-4.455-16.274c-6.05-22.101-9.571-44.916-10.466-67.813l-.798-20.42c-.164-4.208 2.617-6.338 3.82-7.059 2.426-1.452 5.351-1.606 8.025-.037 52.918 31.038-72.331-42.426 73.468 43.092.892.521.979 1.352.95 1.801z"/><path d="m219.733 252.291c2.724-3.121 2.403-7.858-.717-10.583-3.12-2.724-7.858-2.403-10.583.717l-43.814 50.187c-9.64 11.043-1.786 28.28 12.852 28.28h19.072c16.873 0 32.878-8.142 42.813-21.778l16.654-22.86 16.655 22.86c9.935 13.637 25.94 21.778 42.813 21.778h19.072c14.659 0 22.479-17.253 12.852-28.28l-43.814-50.187c-2.724-3.12-7.461-3.44-10.583-.717-3.12 2.724-3.441 7.462-.717 10.583l43.814 50.187c.721.826.574 1.656.324 2.207s-.779 1.208-1.876 1.208h-19.072c-12.095 0-23.568-5.836-30.689-15.611l-21.278-29.206v-11.759l24.693-24.693c3.252-3.252 3.252-8.544 0-11.796-17.751-17.751-46.635-17.751-64.386 0-3.252 3.252-3.252 8.544 0 11.796l24.693 24.693v11.759l-21.278 29.206c-7.122 9.775-18.595 15.611-30.689 15.611h-19.074c-1.097 0-1.625-.657-1.876-1.208-.25-.551-.397-1.381.324-2.207zm52.637-33.048-16.36 16.361-16.36-16.361c9.945-6.314 22.775-6.314 32.72 0z"/><path d="m273.588 322.933c-11.118 5.077-24.023 5.083-35.156 0-3.767-1.72-8.217-.061-9.938 3.707s-.061 8.217 3.707 9.938c15.076 6.884 32.52 6.894 47.617 0 3.768-1.72 5.428-6.169 3.707-9.938-1.719-3.768-6.168-5.428-9.937-3.707z"/><path d="m194.299 189.881-41.74-11.184c-3.996-1.068-8.113 1.302-9.186 5.304-1.072 4.001 1.303 8.113 5.304 9.186l41.74 11.184c2.157.579 3.664 2.542 3.664 4.775v4.441c0 4.142 3.358 7.5 7.5 7.5s7.5-3.358 7.5-7.5v-4.441c0-9.011-6.078-16.932-14.782-19.265z"/><path d="m310.439 221.086c4.142 0 7.5-3.358 7.5-7.5v-4.441c0-2.233 1.507-4.197 3.664-4.775l41.74-11.184c4.001-1.072 6.375-5.185 5.304-9.186-1.072-4.001-5.186-6.375-9.186-5.304l-41.741 11.185c-8.703 2.333-14.781 10.254-14.781 19.264v4.441c0 4.142 3.357 7.5 7.5 7.5z"/><path d="m386.961 225.906c7.865 2.375 15.44 5.694 22.517 9.866 3.552 2.094 8.157.931 10.27-2.652 2.104-3.568.916-8.166-2.652-10.27-8.108-4.78-16.788-8.583-25.798-11.303-3.964-1.196-8.15 1.047-9.348 5.012s1.045 8.15 5.011 9.347z"/><path d="m373.167 261.397c-1.708 3.773-.034 8.217 3.739 9.926 7.988 3.617 15.494 8.248 22.311 13.766 3.219 2.606 7.942 2.11 10.548-1.111 2.606-3.219 2.109-7.942-1.111-10.548-7.809-6.321-16.409-11.627-25.561-15.771-3.773-1.708-8.217-.036-9.926 3.738z"/><path d="m120.723 211.547c-9.011 2.721-17.69 6.523-25.798 11.303-3.568 2.104-4.756 6.701-2.652 10.27 2.109 3.577 6.71 4.751 10.27 2.652 7.077-4.171 14.652-7.491 22.517-9.866 3.965-1.197 6.209-5.382 5.012-9.348-1.199-3.965-5.385-6.211-9.349-5.011z"/><path d="m102.255 283.978c2.611 3.225 7.334 3.713 10.548 1.111 6.816-5.518 14.322-10.149 22.311-13.766 3.773-1.708 5.447-6.153 3.739-9.926-1.709-3.773-6.151-5.447-9.926-3.739-9.151 4.144-17.751 9.45-25.561 15.771-3.219 2.607-3.716 7.329-1.111 10.549z"/><path d="m285.004 77.763c0-3.688.448-7.372 1.331-10.951.992-4.021-1.463-8.086-5.485-9.079-4.018-.993-8.085 1.463-9.079 5.485-1.173 4.754-1.768 9.647-1.768 14.545 0 4.142 3.358 7.5 7.5 7.5s7.501-3.358 7.501-7.5z"/><path d="m234.516 85.263c4.142 0 7.5-3.358 7.5-7.5 0-4.897-.595-9.791-1.768-14.545-.993-4.021-5.056-6.48-9.079-5.485-4.021.993-6.477 5.057-5.485 9.079.883 3.579 1.331 7.263 1.331 10.951.001 4.142 3.359 7.5 7.501 7.5z"/><path d="m326.042 427.633c-38.761 41.393-101.294 41.403-140.063 0-2.832-3.023-7.578-3.18-10.601-.348s-3.179 7.578-.348 10.601c44.675 47.709 117.238 47.761 161.962 0 2.831-3.023 2.675-7.77-.348-10.601-3.024-2.831-7.77-2.676-10.602.348z"/><path d="m385.562 406.545c4.955.544 7.83.824 12.199 1.516 4.085.647 7.932-2.139 8.58-6.235.647-4.091-2.144-7.933-6.235-8.58-4.758-.753-7.779-1.048-12.907-1.61-4.124-.461-7.822 2.52-8.273 6.637-.453 4.116 2.518 7.82 6.636 8.272z"/><path d="m385.561 449.832c8.286.91 15.389 1.652 26.127 4.387 4.004 1.023 8.095-1.395 9.119-5.416 1.023-4.014-1.402-8.097-5.416-9.119-11.723-2.987-19.857-3.847-28.192-4.762-4.107-.45-7.822 2.519-8.274 6.636s2.519 7.822 6.636 8.274z"/><path d="m133.095 398.271c-.452-4.117-4.151-7.094-8.273-6.637-5.062.555-8.16.859-12.907 1.61-4.091.647-6.883 4.489-6.235 8.58.65 4.107 4.507 6.882 8.58 6.235 4.372-.692 7.196-.967 12.199-1.516 4.116-.45 7.088-4.154 6.636-8.272z"/><path d="m124.821 434.922c-8.978.986-16.68 1.829-28.192 4.762-4.014 1.023-6.439 5.106-5.417 9.12 1.023 4.015 5.106 6.439 9.12 5.417 10.991-2.8 18.641-3.565 26.127-4.388 4.117-.452 7.088-4.157 6.636-8.274-.452-4.118-4.156-7.098-8.274-6.637z"/></g></svg>