<svg id="Capa_1" enable-background="new 0 0 512.012 512.012" height="512" viewBox="0 0 512.012 512.012" width="512" xmlns="http://www.w3.org/2000/svg"><g><path d="m314.16 271.06c28.795 23.839 65.005 36.883 102.387 36.883h5.845l6.581-33.151c3.034-15.28 4.561-30.822 4.561-46.4v-21.302c0-.758.07-1.513.208-2.258 10.962-58.948 13.396-119.166 7.226-178.807-1.827-17.658-23.638-24.895-35.658-11.832l-88.687 96.38c-3.924 4.264-9.454 6.691-15.249 6.691h-45.385v30.124c.002 47.829 21.328 93.17 58.171 123.672z" fill="#ecb780"/><path d="m440.97 26.024c-1.827-17.658-23.638-24.895-35.658-11.832l-3.243 3.525c4.717 55.809 1.922 112.016-8.325 167.115-.138.745-.208 1.501-.208 2.258v21.302c0 15.579-1.528 31.12-4.561 46.4l-6.581 33.152-3.1 15.618c12.124 2.892 24.622 4.382 37.255 4.382h5.846l6.581-33.151c3.033-15.28 4.561-30.822 4.561-46.4v-21.302c0-.758.07-1.513.208-2.258 10.961-58.95 13.395-119.168 7.225-178.809z" fill="#e7a561"/><path d="m336.914 126.723 74.543-81.01c1.867-2.029 5.243-.834 5.44 1.916 3.119 43.584 1.467 87.337-4.927 130.554-20.486-23.055-46.279-40.703-75.056-51.46z" fill="#ecd5c6"/><path d="m416.897 47.63c-.197-2.75-3.573-3.945-5.44-1.916l-7.389 8.03c.978 36.675-1.271 73.382-6.73 109.695 5.129 4.629 10.015 9.55 14.631 14.746 6.395-43.218 8.047-86.972 4.928-130.555z" fill="#dfb9a2"/><path d="m365.394 422.504c26.961-23.864 45.355-55.908 52.366-91.225l4.633-23.337h-5.845c-37.382 0-73.592-13.044-102.387-36.883-36.843-30.502-58.169-75.843-58.169-123.674 0 47.831-21.326 93.172-58.169 123.674-28.795 23.839-65.005 36.883-102.387 36.883h-5.845l4.633 23.337c7.011 35.316 25.406 67.36 52.366 91.225 10.383 9.191 11.793 24.886 3.214 35.781l-36.405 46.228h285.187l-36.405-46.228c-8.58-10.895-7.17-26.59 3.213-35.781z" fill="#f1f1f4"/><path d="m255.991 330.02-25.726-25.726c-.782-.782-.664-2.081.245-2.709 15.334-10.597 35.627-10.597 50.961 0 .91.629 1.027 1.928.245 2.709z" fill="#ecd5c6"/><path d="m197.822 271.06c36.844-30.502 58.169-75.843 58.169-123.674v-30.124h-45.385c-5.795 0-11.325-2.426-15.249-6.691l-88.687-96.38c-12.02-13.062-33.831-5.825-35.658 11.833-6.17 59.641-3.736 119.859 7.226 178.807.138.745.208 1.501.208 2.258v21.302c0 15.579 1.528 31.12 4.561 46.4l6.581 33.151h5.845c37.384.001 73.594-13.043 102.389-36.882z" fill="#8b818e"/><path d="m175.068 126.723-74.543-81.01c-1.867-2.029-5.243-.834-5.44 1.916-3.119 43.584-1.467 87.337 4.927 130.554 20.486-23.055 46.279-40.703 75.056-51.46z" fill="#ecd5c6"/><path d="m365.394 422.504c26.961-23.864 45.355-55.908 52.366-91.225l4.633-23.337h-5.846c-12.632 0-25.131-1.49-37.255-4.382l-1.532 7.719c-7.011 35.316-25.406 67.36-52.366 91.225-10.383 9.191-11.793 24.886-3.214 35.781l6.634 8.424c12.064 15.32 1.152 37.804-18.348 37.804h-181.318l-15.75 20h285.187l-36.405-46.228c-8.579-10.895-7.169-26.59 3.214-35.781z" fill="#dfdde2"/><path d="m323.556 379.534c-.603-4.098-4.405-6.93-8.512-6.329-7.817 1.152-15.671-.739-22.111-5.32l-25.193-17.921c-2.661-1.893-4.25-4.972-4.25-8.237v-8.6l23.529-23.529c4.094-4.094 3.474-10.893-1.285-14.183-17.79-12.295-41.697-12.295-59.49 0-4.764 3.294-5.372 10.094-1.284 14.182l23.529 23.529v8.6c0 3.265-1.588 6.345-4.249 8.237l-25.194 17.921c-6.44 4.581-14.296 6.47-22.111 5.32-4.101-.6-7.909 2.231-8.512 6.329s2.231 7.909 6.329 8.512c11.636 1.711 23.357-1.086 32.988-7.938 27.991-19.911 26.323-18.588 28.249-20.485 1.956 1.927.996 1.1 28.248 20.485 9.607 6.834 21.316 9.652 32.988 7.938 4.1-.603 6.934-4.413 6.331-8.511zm-52.482-75.204-15.083 15.083-15.083-15.083c9.574-4.204 20.595-4.204 30.166 0z"/><path d="m436.331 276.252c5.414-27.277 4.705-45.302 4.705-69.162 0-5.042 18.103-78.316 7.395-181.837-2.489-24.058-32.224-33.977-48.638-16.139l-88.687 96.38c-2.497 2.713-6.043 4.269-9.73 4.269h-90.77c-3.687 0-7.233-1.556-9.729-4.27l-88.688-96.38c-16.375-17.796-46.143-7.975-48.636 16.14-3.178 30.717-4.106 61.934-2.759 92.782.18 4.138 3.653 7.34 7.82 7.166 4.138-.181 7.346-3.682 7.166-7.82-1.314-30.118-.408-60.595 2.694-90.584 1.165-11.258 15.011-15.858 22.679-7.525l88.687 96.379c5.328 5.792 12.898 9.113 20.768 9.113h37.885v22.624c0 38.269-14.142 74.594-39.393 102.526-.856-.275 3.433.889-58.269-15.644-3.999-1.069-8.113 1.302-9.186 5.303-1.072 4.001 1.302 8.114 5.304 9.186l49.81 13.347c-28.062 24.765-64.134 38.262-101.01 38.338l-5.382-27.111c-5.062-25.499-4.417-42.127-4.417-66.241 0-1.215-.113-2.437-.335-3.629-3.03-16.295-5.432-32.916-7.138-49.4-.426-4.121-4.117-7.115-8.232-6.688-4.12.426-7.115 4.112-6.688 8.232 3.348 32.356 7.393 49.45 7.393 51.486 0 24.836-.68 42.038 4.705 69.162 1.797 9.05 8.242 41.517 10.748 54.141-6.861 1.597-13.69 3.408-20.483 5.433-3.969 1.184-6.228 5.361-5.044 9.331 1.185 3.974 5.364 6.226 9.331 5.044 6.492-1.936 13.02-3.667 19.578-5.193 3.847 13.878 9.442 27.231 16.58 39.701-10.702 6.184-21.099 12.965-31.166 20.332-3.343 2.446-4.069 7.139-1.623 10.481 2.434 3.326 7.124 4.081 10.481 1.623 9.788-7.163 19.904-13.747 30.32-19.741 7.804 11.258 16.945 21.6 27.244 30.716 7.399 6.549 8.406 17.761 2.293 25.524l-36.405 46.228c-3.86 4.901-.373 12.14 5.892 12.14h285.187c6.239 0 9.768-7.218 5.892-12.14l-13.801-17.525c-2.563-3.254-7.278-3.815-10.532-1.252s-3.815 7.278-1.252 10.532l4.241 5.385h-254.286l26.845-34.088c11.026-14.002 9.209-34.225-4.136-46.037-8.994-7.961-17.02-16.945-23.935-26.706 21.887-11.28 44.999-20.051 69.118-26.209 4.013-1.025 6.436-5.109 5.412-9.123-1.025-4.013-5.11-6.435-9.123-5.412-25.68 6.557-50.267 15.945-73.523 28.053-6.422-11.175-11.485-23.131-15.011-35.557 29.504-5.457 59.548-6.815 89.7-4.033 4.123.374 7.777-2.654 8.158-6.779s-2.654-7.777-6.779-8.158c-31.769-2.932-63.42-1.467-94.495 4.347l-2.363-11.902c40.804-.803 80.901-16.566 111.777-45.527.402 1.057.621 2.198.621 3.378v6.077c0 4.142 3.358 7.5 7.5 7.5s7.5-3.358 7.5-7.5v-6.077c0-5.367-1.754-10.42-4.779-14.53 15.894-17.932 27.668-38.933 34.674-61.62 1.035 3.336 2.176 6.646 3.422 9.928 1.47 3.873 5.803 5.819 9.674 4.35 3.873-1.471 5.82-5.802 4.35-9.674-6.613-17.417-9.966-35.695-9.966-54.328v-22.624h37.885c7.87 0 15.44-3.321 20.768-9.112l88.687-96.379c7.664-8.328 21.513-3.742 22.679 7.525 6.098 58.956 3.696 118.394-7.141 176.667-.222 1.194-.334 2.415-.334 3.627 0 24.13.677 40.576-4.417 66.241l-5.382 27.111c-37.136-.076-73.604-13.78-101.827-39.065l47.096-12.62c4.001-1.072 6.375-5.185 5.303-9.186s-5.185-6.372-9.186-5.303l-55.428 14.852c-4.577-5.145-8.808-10.599-12.661-16.332-2.312-3.437-6.971-4.351-10.409-2.04s-4.351 6.971-2.04 10.409c3.623 5.389 7.55 10.555 11.759 15.475-4.076 4.422-6.508 10.307-6.508 16.627v6.077c0 4.142 3.358 7.5 7.5 7.5s7.5-3.358 7.5-7.5v-6.077c0-2.069.671-4.017 1.83-5.607 31.139 30.387 72.294 46.933 114.1 47.756l-2.363 11.902c-31.076-5.814-62.727-7.278-94.495-4.347-4.125.381-7.16 4.033-6.779 8.158.381 4.124 4.025 7.162 8.158 6.779 30.151-2.783 60.195-1.424 89.7 4.033-3.526 12.426-8.589 24.382-15.011 35.557-23.255-12.107-47.843-21.496-73.523-28.053-4.011-1.023-8.098 1.399-9.123 5.412-1.024 4.014 1.398 8.098 5.412 9.123 24.119 6.158 47.231 14.929 69.118 26.209-6.916 9.761-14.942 18.745-23.936 26.706-13.345 11.813-15.162 32.034-4.135 46.037 1.48 1.879 3.678 2.86 5.897 2.86 6.163 0 9.798-7.175 5.888-12.141-6.114-7.764-5.107-18.975 2.292-25.524 10.299-9.117 19.44-19.459 27.244-30.716 10.416 5.993 20.531 12.578 30.319 19.741 3.364 2.462 8.052 1.698 10.481-1.623 2.446-3.342 1.72-8.035-1.623-10.481-10.066-7.367-20.463-14.148-31.165-20.332 7.138-12.47 12.733-25.823 16.58-39.701 6.558 1.527 13.086 3.258 19.578 5.193 3.972 1.182 8.147-1.075 9.331-5.044 1.184-3.97-1.075-8.147-5.044-9.331-6.792-2.025-13.622-3.836-20.483-5.433 5.33-26.851 4.882-24.595 10.748-54.142z"/><path d="m192.882 428.932c-2.593 3.23-2.076 7.951 1.155 10.543 34.383 27.594 89.514 27.603 123.909 0 3.23-2.592 3.748-7.313 1.155-10.543-2.592-3.23-7.313-3.749-10.543-1.155-28.985 23.261-76.147 23.261-105.131 0-3.232-2.593-7.952-2.074-10.545 1.155z"/><path d="m284.538 408.19c3.7-1.862 5.189-6.372 3.327-10.071-1.862-3.7-6.371-5.19-10.071-3.327-13.652 6.874-29.954 6.873-43.607 0-3.701-1.861-8.208-.373-10.071 3.327-1.862 3.7-.373 8.209 3.327 10.071 17.875 8.997 39.219 8.998 57.095 0z"/><path d="m105.618 183.166c19.562-22.016 44.486-39.104 72.076-49.417 4.981-1.862 6.495-8.188 2.893-12.104-15.747-17.113-52.421-56.969-74.544-81.01-2.876-3.125-7.323-4.239-11.331-2.838-4.015 1.403-6.805 5.053-7.109 9.298-3.15 44.038-1.472 88.512 4.988 132.187.932 6.284 8.802 8.639 13.027 3.884zm-3.69-124.852 28.353 30.813c-8.962-1.71-18.448 1.792-24.044 9.506-2.432 3.354-1.685 8.043 1.668 10.475 3.354 2.433 8.043 1.685 10.475-1.668 2.675-3.687 7.706-4.824 11.703-2.64l10.158 5.546c-9.141.85-17.57 6.033-22.352 14.203-2.092 3.575-.891 8.169 2.684 10.261 3.581 2.097 8.173.883 10.261-2.684 2.961-5.06 8.827-7.741 14.59-6.673l9.549 1.769c-18.182 8.903-34.966 20.608-49.597 34.602-4.161-34.301-5.319-69.013-3.448-103.51z"/><path d="m334.288 133.749c27.591 10.313 52.514 27.402 72.076 49.417 4.236 4.768 12.099 2.375 13.026-3.884 6.461-43.675 8.139-88.149 4.988-132.187-.304-4.246-3.095-7.896-7.11-9.299-4.005-1.398-8.454-.286-11.33 2.839-6.677 7.257-65.818 71.527-74.543 81.01-3.6 3.913-2.091 10.241 2.893 12.104zm75.766-75.434c1.871 34.497.713 69.208-3.449 103.508-14.63-13.993-31.414-25.698-49.597-34.601l9.549-1.769c5.762-1.065 11.628 1.613 14.59 6.674 2.088 3.566 6.678 4.781 10.262 2.684 3.575-2.093 4.776-6.687 2.684-10.262-4.783-8.17-13.213-13.351-22.355-14.202l10.16-5.547c3.997-2.183 9.029-1.048 11.703 2.64 2.431 3.354 7.121 4.101 10.475 1.669s4.101-7.121 1.669-10.475c-5.595-7.716-15.081-11.217-24.043-9.508z"/></g></svg>