<svg id="Capa_1" enable-background="new 0 0 512 512" height="512" viewBox="0 0 512 512" width="512" xmlns="http://www.w3.org/2000/svg"><g><path d="m97.317 134.013c2.419 7.212 12.389 7.877 15.701 1.028 1.402-2.9 2.883-5.765 4.442-8.59l7.457-13.514c10.246-18.569 28.58-30.605 48.773-33.194 6.733-.863 9.657-9.026 5.133-14.088l-13.353-14.942c-18.208-20.376-41.768-35.234-68.001-42.885-3.969-1.158-8.178.831-9.803 4.633-11.226 26.255-12.419 55.719-3.35 82.796z" fill="#f1f1f4"/><path d="m414.684 134.013c-2.419 7.212-12.389 7.877-15.701 1.028-1.402-2.9-2.883-5.765-4.442-8.59l-7.457-13.514c-10.246-18.569-28.58-30.605-48.773-33.194-6.733-.863-9.657-9.026-5.133-14.088l13.352-14.942c18.208-20.376 41.768-35.234 68.001-42.885 3.969-1.158 8.178.831 9.803 4.633 11.226 26.255 12.418 55.719 3.35 82.796z" fill="#f1f1f4"/><path d="m119.743 122.313 5.173-9.376c7.98-14.462 20.869-24.954 35.717-30.118l-13.805-15.448c-11.486-12.854-25.508-23.041-41.136-29.976-3.854 16.434-3.103 33.701 2.33 49.921z" fill="#f9c6da"/><path d="m392.258 122.313-5.173-9.376c-7.98-14.462-20.869-24.954-35.717-30.118l13.805-15.448c11.486-12.854 25.508-23.041 41.136-29.976 3.854 16.434 3.103 33.701-2.33 49.921z" fill="#f9c6da"/><path d="m350.371 413.3c-28.546 0-56.586-7.538-81.284-21.851-8.094-4.69-18.079-4.69-26.173 0-24.698 14.313-52.738 21.851-81.284 21.851-41.274 0-79.317-17.753-105.727-46.945-14.468 28.761-22.124 60.648-22.124 93.168v44.977h444.443v-44.976c0-32.521-7.656-64.407-22.124-93.168-26.41 29.191-64.453 46.944-105.727 46.944z" fill="#c6c1c8"/><path d="m456.098 366.356c-7.315 8.086-15.526 15.289-24.448 21.486 4.324 16.784 6.572 34.138 6.572 51.682 0 24.84-20.137 44.976-44.976 44.976h-359.467v20h444.443v-44.976c0-32.521-7.656-64.407-22.124-93.168z" fill="#afaab4"/><path d="m421.589 113.428-6.905 20.585c-2.419 7.212-12.389 7.877-15.701 1.028-1.402-2.9-2.883-5.765-4.442-8.59l-7.457-13.514c-10.246-18.569-28.58-30.605-48.773-33.194-6.733-.863-9.656-9.026-5.133-14.088l13.353-14.942c.735-.823 1.494-1.622 2.246-2.427-13.301-.734-26.642.361-39.719 3.282l-17.048 3.807c-8.138 1.818-16.55 2.051-24.777.688-7.507-1.244-15.17-1.232-22.674.035-8.336 1.408-16.878.994-25.129-.849l-16.487-3.682c-13.077-2.921-26.418-4.015-39.719-3.282.753.805 1.511 1.604 2.246 2.427l13.352 14.942c4.523 5.062 1.6 13.225-5.133 14.088-20.193 2.589-38.527 14.625-48.773 33.194l-7.457 13.514c-1.559 2.825-3.039 5.69-4.442 8.59-3.312 6.848-13.281 6.184-15.701-1.028l-6.905-20.585c-16.929 31.254-25.819 66.236-25.819 101.798 0 36.089 17.277 69.996 46.474 91.207 19.534 14.191 43.06 21.835 67.205 21.835h19.017c12.764 0 25.476 2.573 36.95 8.164 6.573 3.203 13.958 5 21.762 5s15.188-1.797 21.762-5c11.474-5.591 24.186-8.164 36.95-8.164h19.017c24.145 0 47.671-7.643 67.205-21.835 29.197-21.211 46.474-55.119 46.474-91.207 0-35.561-8.89-70.543-25.819-101.797z" fill="#c6c1c8"/><path d="m298.311 59.744c12.201 1.564 23.709 6.598 33.179 14.417-.957-2.758-.544-6.008 1.688-8.505l13.353-14.942c.735-.823 1.494-1.622 2.246-2.427-13.301-.734-26.642.361-39.719 3.282l-17.042 3.806c1.194 2.258 3.386 3.996 6.295 4.369z" fill="#afaab4"/><path d="m421.589 113.428-6.905 20.585c-2.419 7.212-12.389 7.877-15.701 1.028-.208-.431-.431-.855-.642-1.284 5.972 19.865 9.068 40.563 9.068 61.469 0 36.089-17.277 69.996-46.474 91.207-19.534 14.191-43.06 21.835-67.205 21.835h-19.017c-12.764 0-25.476 2.573-36.95 8.164-6.573 3.203-13.958 5-21.762 5s-15.188-1.797-21.762-5c-11.475-5.591-24.186-8.164-36.95-8.164h-19.017c-10.254 0-20.392-1.392-30.164-4.065.973.757 1.958 1.503 2.959 2.23 19.534 14.191 43.06 21.835 67.205 21.835h19.017c12.764 0 25.476 2.573 36.95 8.164 6.573 3.203 13.958 5 21.762 5s15.188-1.797 21.762-5c11.474-5.591 24.186-8.164 36.95-8.164h19.017c24.145 0 47.671-7.643 67.205-21.835 29.197-21.211 46.474-55.119 46.474-91.207-.001-35.562-8.891-70.544-25.82-101.798z" fill="#afaab4"/><path d="m351.54 272.595c3.494-11.893-2.591-24.499-14.077-29.162-17.608-7.148-37.383-6.731-54.674 1.153l-5.292 2.413-21.497 25.596-21.498-25.596-5.292-2.413c-17.291-7.884-37.066-8.301-54.674-1.153-11.486 4.663-17.571 17.269-14.077 29.162l2.692 9.163c.285.97.583 1.935.894 2.894 7.593 23.418 27.617 40.448 51.713 45.495 5.734 1.201 12.039 3.147 18.479 6.285 6.573 3.203 13.958 5 21.762 5s15.188-1.797 21.762-5c6.449-3.142 12.758-5.088 18.493-6.287 24.092-5.037 44.107-22.078 51.698-45.491.311-.96.609-1.925.895-2.895z" fill="#dfdde2"/><path d="m298.311 59.744c12.201 1.564 23.709 6.598 33.179 14.417-.957-2.758-.544-6.008 1.688-8.505l13.353-14.942c.735-.823 1.494-1.622 2.246-2.427-13.301-.734-26.642.361-39.719 3.282l-17.042 3.806c1.194 2.258 3.386 3.996 6.295 4.369z" fill="#afaab4"/><path d="m296.255 330.145c19.439-4.064 36.219-15.946 45.965-32.682-15.1 7.072-31.642 10.805-48.491 10.805h-19.017c-12.764 0-25.476 2.573-36.95 8.164-13.58 6.617-29.728 6.722-43.524 0-4.42-2.154-9.025-3.855-13.745-5.138 9.256 9.178 21.114 15.827 35.627 18.935 18.909 4.056 22.133 11.204 39.88 11.204 17.589-.001 21.988-7.474 40.255-11.288z" fill="#c6c1c8"/><path d="m256 272.595-21.498-25.596c-1.237-1.472-.689-3.722 1.087-4.46 13.065-5.434 27.757-5.434 40.822 0 1.775.738 2.324 2.988 1.087 4.46z" fill="#efa5c3"/><path d="m433.723 139.972c9.02 23.98 13.685 49.467 13.685 75.254 0 36.089-17.277 69.996-46.474 91.207-19.534 14.191-43.06 21.835-67.205 21.835h-19.017c-12.764 0-25.476 2.573-36.95 8.164-6.573 3.203-13.958 5-21.762 5s-15.188-1.797-21.762-5c-11.475-5.591-24.186-8.164-36.95-8.164h-19.017c-24.145 0-47.67-7.643-67.205-21.835-29.197-21.211-46.474-55.119-46.474-91.207 0-25.787 4.666-51.275 13.685-75.254l-70.777 111.479 17.319 59.287c17.757 60.783 73.487 102.562 136.81 102.562 28.546 0 56.586-7.538 81.284-21.851 8.094-4.69 18.079-4.69 26.173 0 24.698 14.313 52.738 21.851 81.284 21.851 63.323 0 119.054-41.779 136.81-102.562l17.319-59.287z" fill="#f1f1f4"/><path d="m433.723 139.972c7.714 20.509 12.232 42.121 13.381 64.08 11.057 17.416 14.08 38.751 8.295 58.553l-8.219 28.134c-17.756 60.782-73.486 102.561-136.809 102.561-28.546 0-56.586-7.538-81.284-21.851-8.094-4.69-18.079-4.69-26.173 0-24.698 14.313-52.738 21.851-81.284 21.851-14.853 0-29.287-2.299-42.912-6.602 23.6 16.881 52.372 26.602 82.912 26.602 28.546 0 56.586-7.538 81.284-21.851 8.094-4.69 18.079-4.69 26.173 0 24.698 14.313 52.738 21.851 81.284 21.851 63.323 0 119.053-41.779 136.81-102.562l17.319-59.287z" fill="#dfdde2"/><path d="m346.057 159.552-53.853 14.43c-10.279 2.754-17.458 12.11-17.458 22.751v5.73c0 4.142 3.357 7.5 7.5 7.5s7.5-3.358 7.5-7.5v-5.73c0-3.865 2.606-7.262 6.34-8.262l53.854-14.43c4.001-1.072 6.375-5.185 5.303-9.186s-5.183-6.373-9.186-5.303z"/><path d="m229.754 209.964c4.142 0 7.5-3.358 7.5-7.5v-5.73c0-10.642-7.179-19.998-17.458-22.751l-53.853-14.43c-3.998-1.067-8.114 1.302-9.186 5.303s1.302 8.114 5.303 9.186l53.853 14.43c3.733 1 6.34 4.397 6.34 8.262v5.73c.001 4.142 3.359 7.5 7.501 7.5z"/><path d="m440.387 136.475c-3.082-8.099-6.64-16.023-10.662-23.721l5.07-15.114c9.664-28.852 8.398-60.149-3.564-88.126-3.113-7.283-11.196-11.102-18.799-8.885-25.383 7.404-48.327 21.179-66.753 40.018-8.107-.258-16.265.128-24.301 1.156-4.108.526-7.013 4.283-6.487 8.392.484 3.786 3.712 6.549 7.43 6.549 1.234 0 3.291-.483 9.557-.887l-4.292 4.803c-8.553 9.573-2.914 24.898 9.771 26.525 18.161 2.329 34.296 13.311 43.161 29.378 7.086 12.842 9.054 16.249 11.714 21.745 2.811 5.812 8.803 9.391 15.39 8.98 6.53-.415 12.094-4.688 14.173-10.888l1.073-3.201c11.186 25.834 17.041 53.862 17.041 82.028 0 16.093-3.726 31.785-10.597 45.936-24.087-6.189-48.57-9.799-73.28-10.812-3.395-6.075-8.815-11.052-15.746-13.866-18.793-7.628-40.071-7.443-58.711.446-.695-.53-1.461-.974-2.282-1.316-14.803-6.157-31.781-6.158-46.583 0-.822.342-1.587.786-2.283 1.316-18.64-7.889-39.918-8.074-58.71-.445-6.931 2.813-12.351 7.791-15.746 13.865-24.709 1.013-49.193 4.623-73.28 10.813-6.871-14.151-10.597-29.842-10.597-45.935 0-28.166 5.854-56.194 17.04-82.027l1.073 3.2c2.08 6.2 7.643 10.474 14.173 10.888 6.588.409 12.579-3.168 15.39-8.98 2.703-5.589 4.445-8.574 11.713-21.746 8.866-16.067 25.001-27.05 43.161-29.378 12.683-1.626 18.328-16.951 9.772-26.525l-4.293-4.804c28.284 1.83 41.661 11.696 65.685 7.64.896-.151 1.794-.282 2.693-.393v3.996l-10.685 7.185c-6.816 4.583-11.617 11.506-13.519 19.495l-9.642 40.494c-.959 4.03 1.529 8.074 5.559 9.033 4.03.961 8.074-1.529 9.033-5.559l9.642-40.494c1.027-4.312 3.618-8.048 7.296-10.521l2.315-1.557v72.403c0 4.142 3.358 7.5 7.5 7.5 4.143 0 7.5-3.358 7.5-7.5v-72.403l2.315 1.557c3.678 2.473 6.269 6.209 7.296 10.521l9.642 40.494c.82 3.445 3.896 5.764 7.29 5.764 4.852 0 8.423-4.533 7.302-9.239l-9.642-40.495c-1.903-7.989-6.704-14.912-13.518-19.494l-10.685-7.184v-4c3.85.476 12.149 2.351 24.391.638 4.103-.574 6.963-4.365 6.389-8.467-.573-4.103-4.361-6.963-8.467-6.389-5.77.807-11.608.734-17.354-.219-8.347-1.382-16.807-1.369-25.149.039-7.097 1.199-14.581.94-22.245-.773l-16.487-3.682c-12.565-2.806-25.418-4.012-38.256-3.602-18.426-18.838-41.37-32.614-66.752-40.017-7.602-2.217-15.686 1.602-18.8 8.884-11.963 27.977-13.229 59.274-3.565 88.13l5.069 15.112c-4.022 7.698-7.58 15.623-10.662 23.722l-70.443 110.956c-1.156 1.821-1.473 4.052-.868 6.123l17.319 59.287c5.955 20.383 15.917 38.898 29.336 54.748-13.541 28.625-20.678 60.297-20.678 91.935v44.975c0 4.142 3.358 7.5 7.5 7.5h444.443c4.143 0 7.5-3.358 7.5-7.5v-44.977c0-31.665-7.149-63.364-20.712-92.007 11.425-13.506 20.565-29.158 26.712-46.455 1.387-3.903-.653-8.191-4.556-9.578-3.9-1.388-8.191.652-9.579 4.556-16.375 46.079-56.354 79.181-103.401 87.64 17.383-12.479 32.283-31.258 42.644-54.552 1.684-3.785-.02-8.218-3.805-9.901-3.782-1.684-8.218.02-9.9 3.804-15.24 34.261-40.994 57.33-69.034 61.908-.796-.084-1.591-.175-2.385-.272 11.403-12.015 21.042-30.313 27.894-53.325 1.182-3.97-1.078-8.146-5.048-9.329-3.969-1.184-8.146 1.078-9.329 5.047-7.789 26.157-19.496 45.64-32.4 54.105-13.965-3.497-27.436-8.938-39.976-16.204-10.393-6.021-23.302-6.021-33.694 0-12.539 7.267-26.01 12.707-39.975 16.204-12.905-8.465-24.613-27.949-32.401-54.105-1.182-3.97-5.355-6.232-9.328-5.048-3.97 1.182-6.23 5.358-5.048 9.328 6.852 23.012 16.49 41.311 27.893 53.326-.794.097-1.589.187-2.384.272-28.041-4.579-53.795-27.647-69.035-61.908-1.683-3.785-6.117-5.489-9.901-3.804-3.784 1.683-5.488 6.116-3.804 9.901 10.353 23.274 25.235 42.04 42.599 54.52-49.543-9.018-91.308-45.572-105.75-95.011l-16.368-56.029 43.708-68.845c-1.504 10.408-2.268 20.927-2.268 31.464 0 17.463 3.84 34.512 10.951 50.032-2.717.822-5.428 1.677-8.133 2.565-3.935 1.292-6.078 5.53-4.785 9.466 1.037 3.158 3.972 5.162 7.124 5.162 2.069 0 1.972-.457 13.041-3.7 5.228 8.41 11.499 16.193 18.702 23.133-11.057 4.865-21.894 10.307-32.487 16.32-3.603 2.045-4.865 6.623-2.82 10.225 2.045 3.603 6.624 4.865 10.225 2.82 12.334-7.001 25.013-13.195 37.996-18.568 20.899 15.105 45.569 23.088 71.365 23.088h19.017c12.08 0 23.721 2.561 33.666 7.406 15.77 7.684 34.308 7.691 50.094 0 9.944-4.845 21.586-7.406 33.665-7.406h19.017c25.797 0 50.466-7.983 71.366-23.088 12.983 5.373 25.662 11.567 37.996 18.568 3.616 2.052 8.188.769 10.225-2.82 2.045-3.602.782-8.18-2.82-10.225-10.593-6.013-21.429-11.456-32.486-16.32 7.203-6.94 13.473-14.724 18.702-23.133 11.039 3.235 10.971 3.7 13.041 3.7 3.152 0 6.088-2.004 7.125-5.162 1.292-3.936-.851-8.173-4.786-9.466-2.705-.888-5.416-1.743-8.132-2.565 7.111-15.52 10.951-32.569 10.951-50.032 0-10.537-.764-21.056-2.268-31.464l43.709 68.844-8.259 28.27c-1.161 3.976 1.12 8.141 5.096 9.302 3.975 1.159 8.141-1.117 9.303-5.096l9.21-31.527c.604-2.071.289-4.302-.867-6.123zm-76.537-56.368 6.915-7.738c8.635-9.663 18.66-17.646 29.895-23.814 1.423 12.212.145 24.625-3.792 36.381l-6.409 19.135c-6.776-10.137-15.977-18.35-26.609-23.964zm43.723 51.521c-.065.193-.217.645-.902.688-.645.045-.844-.351-.937-.542-1.934-3.996-3.413-6.746-5.32-10.201l10.675-31.874c5.844-17.448 6.716-36.126 2.521-54.016-1.072-4.573-6.046-7.049-10.344-5.143-16.758 7.436-31.456 18.146-43.688 31.833l-10.603 11.865c-3.171-.862-6.415-1.511-9.712-1.934-.161-.021-.496-.063-.686-.573-.151-.405-.087-.768.191-1.079 14.911-16.686 13.843-15.508 15.185-16.952.209-.199.406-.41.591-.633 16.93-17.989 38.323-31.109 62.085-38.041.334-.096.675.075.806.382 10.517 24.593 11.629 52.104 3.136 77.462-13.525 40.33-12.998 38.657-12.998 38.758zm-313.011-116.218c.134-.313.481-.478.807-.381 24.895 7.261 47.206 21.322 64.508 40.683l13.353 14.942c.278.311.342.674.191 1.079-.19.509-.525.552-.686.573-3.297.423-6.541 1.072-9.712 1.934l-10.603-11.865c-12.231-13.688-26.929-24.398-43.687-31.833-4.292-1.905-9.271.566-10.344 5.143-1.971 8.405-2.833 17.04-2.563 25.665.129 4.141 3.597 7.414 7.731 7.261 4.14-.129 7.391-3.591 7.261-7.731-.129-4.117.046-8.237.522-12.324 11.233 6.168 21.259 14.152 29.894 23.814l6.915 7.738c-10.632 5.614-19.832 13.827-26.609 23.963l-3.309-9.881c-1.315-3.928-5.565-6.045-9.494-4.73-3.928 1.315-6.045 5.566-4.73 9.494l7.576 22.621c-1.804 3.27-3.32 6.067-5.32 10.203-.092.188-.287.575-.936.54-.686-.043-.837-.496-.902-.688l-13-38.753c-8.491-25.364-7.379-52.875 3.137-77.467zm83.654 404.575c.176-.011.351-.029.523-.053 6.935-.705 13.813-1.836 20.593-3.383.212-.039.421-.087.629-.145 16.341-3.793 32.104-9.999 46.713-18.466 5.752-3.334 12.898-3.334 18.651 0 14.609 8.466 30.372 14.673 46.712 18.466.209.058.42.106.633.146 54.316 12.389 105.297-3.042 141.226-37.248 11.031 25.21 16.825 52.73 16.825 80.222v37.476h-429.443v-37.476c0-27.469 5.784-54.967 16.799-80.161 31.665 30.081 73.894 45.178 120.139 40.622zm89.144-172.577-11.36 13.525-11.36-13.526c7.43-1.893 15.289-1.893 22.72.001zm-176.837 27.255c20.233-4.932 40.75-7.971 61.44-9.104-.028 5.573 1.167 8.695 3.264 15.833-15.625 3.682-30.937 8.409-45.881 14.162-7.233-6.13-13.548-13.173-18.823-20.891zm243.206 46.105h-19.017c-14.343 0-28.256 3.085-40.235 8.922-11.62 5.661-25.323 5.666-36.953 0-11.979-5.837-25.893-8.922-40.236-8.922h-19.017c-19.215 0-37.718-5.051-54.087-14.691 21.062-7.395 42.457-12.562 63.941-15.675 4.099-.594 6.941-4.398 6.347-8.498s-4.397-6.942-8.498-6.347c-5.377.779-10.722 1.678-16.035 2.695l-2.283-7.771c-.53-1.804-.744-3.627-.67-5.409 14.552-.149 27.018.597 40.411 1.977 4.11.421 7.805-2.571 8.229-6.692.425-4.12-2.571-7.805-6.692-8.229-9.999-1.03-19.381-1.749-30.952-1.995 15.476-6.084 32.974-5.628 48.117 1.278l3.749 1.709 18.652 22.207v4.23c0 3.068-1.834 5.802-4.672 6.965-15.956 6.54-20.766 8.855-29.839 10.889-4.042.906-6.583 4.917-5.677 8.959.899 4.007 4.881 6.589 8.959 5.677 10.556-2.367 16.394-5.149 32.246-11.646 2.426-.994 4.605-2.372 6.483-4.047 1.878 1.675 4.058 3.053 6.484 4.047 16.137 6.613 21.799 9.305 32.263 11.649 4.06.907 8.057-1.654 8.958-5.679.905-4.042-1.637-8.053-5.679-8.958-4.801-1.075-9.542-2.566-14.095-4.433l-15.758-6.458c-2.839-1.164-4.673-3.898-4.673-6.966v-4.23l18.651-22.207 3.75-1.71c15.143-6.905 32.64-7.361 48.117-1.277-11.608.247-21.01.97-30.952 1.994-4.121.425-7.116 4.109-6.692 8.229.426 4.12 4.116 7.115 8.229 6.691 13.315-1.372 25.802-2.126 40.411-1.976.073 1.782-.14 3.605-.67 5.409l-2.283 7.771c-5.31-1.017-10.654-1.915-16.029-2.694-4.099-.59-7.904 2.247-8.499 6.347-.594 4.099 2.248 7.904 6.347 8.498 21.831 3.164 43.204 8.395 63.936 15.674-16.369 9.642-34.872 14.693-54.087 14.693zm68.925-25.214c-14.943-5.753-30.255-10.48-45.88-14.162 1.995-6.791 3.291-10.235 3.263-15.832 20.69 1.133 41.207 4.172 61.44 9.104-5.275 7.717-11.59 14.76-18.823 20.89z"/><path d="m336.982 449.533c2.831-3.023 2.675-7.77-.349-10.601s-7.771-2.674-10.601.348c-38.761 41.393-101.294 41.404-140.064 0-2.832-3.023-7.578-3.18-10.601-.348-3.023 2.831-3.179 7.578-.348 10.601 44.675 47.709 117.239 47.761 161.963 0z"/><path d="m320.315 202.707c-2.93-2.929-7.679-2.929-10.606 0-2.93 2.929-2.93 7.678-.001 10.607 9.901 9.901 24.997 12.392 37.573 6.125l41.938-20.891c3.708-1.847 5.217-6.35 3.369-10.058-1.847-3.708-6.351-5.216-10.057-3.369l-41.938 20.892c-6.777 3.377-14.927 2.048-20.278-3.306z"/><path d="m191.687 202.707c-5.353 5.353-13.502 6.683-20.279 3.306l-41.938-20.892c-3.709-1.845-8.211-.338-10.058 3.369s-.338 8.21 3.369 10.058l41.938 20.891c12.605 6.281 27.696 3.753 37.574-6.125 2.929-2.929 2.929-7.678 0-10.606-2.929-2.929-7.678-2.929-10.606-.001z"/></g></svg>