<svg id="Capa_1" enable-background="new 0 0 512.056 512.056" height="512" viewBox="0 0 512.056 512.056" width="512" xmlns="http://www.w3.org/2000/svg"><g><path d="m89.923 105.869c1.214 18.884 5.229 37.453 11.889 55.106 1.231 3.263 5.669 3.738 7.518.781 2.111-3.376 3.926-6.911 5.425-10.576 7.935-19.397 21.462-35.619 39.116-46.91l33.567-21.47c1.82-1.164 3.681-2.246 5.58-3.246 2.429-1.279 2.978-4.516 1.125-6.543l-49.378-54.01c-10.522-11.509-28.52-11.912-39.547-.886-12.345 19.707-18.185 42.796-16.693 66.003z" fill="#f9f6f9"/><path d="m325.473 82.8 33.567 21.47c17.654 11.291 31.18 27.513 39.116 46.91 1.368 3.344 2.998 6.58 4.877 9.685 1.817 3.003 6.315 2.524 7.538-.765 6.464-17.391 10.367-35.66 11.561-54.231l1.398-21.751c1.492-23.207-4.348-46.296-16.695-66.002-7.919-12.64-25.706-14.254-35.771-3.245l-52.874 57.836c-1.874 2.05-1.275 5.304 1.192 6.579 2.076 1.074 4.108 2.245 6.091 3.514z" fill="#f9f6f9"/><path d="m406.836 18.115c-6.342-10.123-19.012-13.173-28.976-8.333 11.644 19.336 17.121 41.78 15.671 64.335l-1.398 21.751c-.752 11.691-2.577 23.261-5.439 34.569 4.582 6.386 8.43 13.332 11.462 20.742 1.368 3.344 2.998 6.58 4.877 9.685 1.817 3.003 6.315 2.524 7.538-.765 6.464-17.391 10.367-35.66 11.561-54.231l1.398-21.751c1.493-23.206-4.347-46.295-16.694-66.002z" fill="#efecef"/><path d="m116.199 104.179c.72 11.203 2.584 22.277 5.547 33.054 7.978-13.265 18.892-24.499 32.126-32.963l20.934-13.39-45.108-49.341c-2.3-2.516-6.462-1.892-7.846 1.223-5.512 12.405-7.936 25.916-7.052 39.666z" fill="#f9c6da"/><path d="m359.04 104.27c12.909 8.256 23.61 19.149 31.533 31.992 2.81-10.471 4.585-21.216 5.284-32.083l1.398-21.751c.884-13.751-1.539-27.261-7.051-39.666-1.384-3.115-5.546-3.739-7.846-1.223l-44.793 48.995z" fill="#f9c6da"/><path d="m393.531 74.118-1.398 21.751c-.752 11.691-2.577 23.261-5.439 34.569.286.398.568.798.848 1.201.004.006.008.012.012.017.134.193.267.386.4.58l.039.057c.122.179.244.359.366.539.023.034.045.068.068.102.112.167.224.334.336.502.026.039.051.078.077.117.107.162.214.324.321.487.031.047.061.094.091.14.1.153.199.306.298.46.038.06.077.119.115.179.089.14.179.279.267.419.044.069.087.138.131.207.086.136.171.272.256.408.045.072.09.145.135.217.04.064.08.128.12.193 2.81-10.471 4.585-21.216 5.284-32.083l1.398-21.751c.786-12.218-1.04-24.247-5.324-35.478 1.637 8.904 2.187 18.026 1.599 27.167z" fill="#efa5c3"/><path d="m425.819 367.331c34.546 32.847 59.917 74.174 73.565 119.89l5.168 17.31h-497.048l5.168-17.31c13.687-45.844 39.161-87.274 73.855-120.166-29.708-14.519-55.434-36.691-74.273-64.688l-1.082-1.608 44.094-38.304-1.908-.238c-17.174-2.145-32.46-11.935-41.59-26.639l-.596-.96 28.54-20.067c20.94-14.723 39.787-32.193 56.042-51.928 1.605-1.949 3.087-3.992 4.436-6.118.522 1.496 1.063 2.986 1.623 4.47 1.231 3.263 5.669 3.738 7.518.781 2.111-3.376 3.926-6.911 5.425-10.576 7.935-19.397 21.462-35.619 39.116-46.91l33.567-21.47c1.82-1.164 3.681-2.246 5.58-3.246 2.429-1.279 2.978-4.516 1.125-6.543l-3.643-3.985c11.811-5.758 24.817-8.779 38.043-8.779h55.824c13.005 0 25.797 2.922 37.449 8.493l-3.628 3.968c-1.874 2.05-1.275 5.304 1.192 6.579 2.076 1.073 4.109 2.245 6.091 3.513l33.567 21.47c17.654 11.291 31.18 27.513 39.116 46.91 1.368 3.344 2.998 6.58 4.877 9.685 1.817 3.003 6.316 2.524 7.538-.765.552-1.486 1.086-2.979 1.601-4.478 1.492 2.444 3.159 4.783 4.986 7 16.255 19.736 35.103 37.205 56.042 51.928l28.54 20.067-.596.96c-9.13 14.704-24.416 24.494-41.59 26.639l-1.908.238 44.094 38.304-1.082 1.608c-18.957 28.176-44.891 50.451-74.838 64.965z" fill="#f1f1f4"/><path d="m499.384 487.221c-13.649-45.716-39.019-87.043-73.565-119.89 29.947-14.514 55.881-36.789 74.839-64.963l1.082-1.608-44.094-38.304 1.908-.238c17.174-2.145 32.46-11.935 41.59-26.639l.596-.96-28.54-20.067c-20.94-14.723-39.787-32.193-56.042-51.928-1.826-2.217-3.493-4.556-4.986-7-.515 1.499-1.048 2.991-1.601 4.478-1.223 3.289-5.721 3.768-7.538.765-1.879-3.105-3.509-6.341-4.877-9.685-7.935-19.397-21.462-35.619-39.116-46.91l-13.12-8.392 26.252 39.744s3.159 4.783 4.986 7c16.255 19.736 35.103 37.205 56.042 51.928l27.616 19.417c.519.365.663 1.071.328 1.61-9.131 14.703-24.416 24.494-41.59 26.639-.737.092-1.017 1.012-.456 1.499l41.179 35.772c.836.726.999 1.961.381 2.879-16.015 23.8-37.008 43.391-61.193 57.649-6.577 3.877-7.834 12.856-2.612 18.425 28.937 30.856 50.379 68.078 62.531 108.779 2.577 8.632-3.888 17.31-12.897 17.31h-432.996c-.277.895-.551 1.792-.819 2.69l-5.168 17.31h497.047z" fill="#dfdde2"/><path d="m256.028 289.845-27.241-27.241 1.01-.275c17.176-4.671 35.287-4.671 52.463 0l1.01.275z" fill="#efa5c3"/><path d="m361.763 283.966c-6.697-12.969-20.072-21.115-34.668-21.115h-44.072l-26.994 26.994v8.607c0 .891.479 1.714 1.255 2.153l23.935 13.553c10.36 5.866 22.062 8.95 33.968 8.95h11.909c14.596 0 27.971-8.146 34.668-21.115 2.919-5.654 2.919-12.373-.001-18.027z" fill="#f9f6f9"/><path d="m184.962 262.851c-14.596 0-27.971 8.146-34.668 21.115-2.92 5.654-2.92 12.372 0 18.027 6.697 12.969 20.072 21.115 34.668 21.115h11.909c11.905 0 23.608-3.083 33.968-8.95l23.935-13.553c.776-.439 1.255-1.262 1.255-2.153v-8.607l-26.994-26.994z" fill="#f9f6f9"/><path d="m361.763 283.966c-5.653-10.947-16.064-18.458-27.951-20.534 3.18 2.987 5.884 6.53 7.951 10.534 2.92 5.654 2.92 12.372 0 18.027-6.697 12.969-20.072 21.115-34.668 21.115h-11.909c-7.678 0-15.271-1.283-22.475-3.767l8.507 4.817c10.36 5.866 22.062 8.95 33.968 8.95h11.909c14.596 0 27.971-8.146 34.668-21.115 2.92-5.654 2.92-12.373 0-18.027z" fill="#efecef"/><path d="m229.034 262.851h-10l14.466 14.466c1.619 1.619 2.528 3.814 2.528 6.103 0 4.001-2.152 7.692-5.633 9.664l-19.556 11.074c-10.36 5.866-22.062 8.95-33.968 8.95h-11.909c-2.276 0-4.521-.198-6.717-.582 7.12 6.688 16.627 10.582 26.717 10.582h11.909c11.905 0 23.608-3.083 33.968-8.95l23.935-13.553c.776-.439 1.255-1.262 1.255-2.153v-8.607z" fill="#efecef"/><path d="m338.279 354.77c1.247-3.95-.945-8.163-4.895-9.41-3.952-1.247-8.164.945-9.41 4.895-3.969 12.575-12.332 23.109-23.452 29.811-3.03-6.905-8.738-12.197-15.948-14.698-4.371-1.516-9.065 1.255-9.85 5.814-2.227 12.944-8.833 24.655-18.697 33.241-9.864-8.586-16.47-20.297-18.697-33.241-.784-4.558-5.476-7.33-9.85-5.814-7.21 2.501-12.917 7.793-15.948 14.698-11.121-6.702-19.483-17.236-23.452-29.811-1.247-3.95-5.457-6.142-9.41-4.895-3.95 1.247-6.142 5.459-4.895 9.41 6.108 19.355 20.357 34.933 39.093 42.738 3.997 1.667 8.575-.397 9.979-4.49 2.165-6.311 2.2-6.542 2.742-7.592 4.456 12.657 12.391 23.875 23.028 32.341l2.739 2.18c2.733 2.176 6.607 2.176 9.341 0l2.739-2.18c10.638-8.467 18.573-19.685 23.028-32.341.585 1.133.653 1.501 2.742 7.592 1.405 4.098 5.984 6.154 9.979 4.49 18.737-7.806 32.986-23.383 39.094-42.738z"/><path d="m204.234 133.866c4.06 16.42 11.185 31.666 21.177 45.314 1.469 2.007 3.748 3.07 6.058 3.07 6.034 0 9.712-6.923 6.046-11.931-8.833-12.064-15.13-25.541-18.719-40.054l-4.148-16.776c-.994-4.021-5.06-6.475-9.081-5.48s-6.475 5.06-5.48 9.081z"/><path d="m276.163 180.801c3.37 2.467 8.055 1.693 10.482-1.622 9.992-13.648 17.117-28.894 21.177-45.314l4.148-16.776c.994-4.021-1.459-8.086-5.48-9.081-4.018-.991-8.086 1.459-9.081 5.48l-4.148 16.776c-3.588 14.514-9.886 27.99-18.719 40.054-2.447 3.343-1.721 8.037 1.621 10.483z"/><path d="m256.028 169.556c4.142 0 7.5-3.358 7.5-7.5v-52.779c0-4.142-3.358-7.5-7.5-7.5s-7.5 3.358-7.5 7.5v52.779c0 4.142 3.358 7.5 7.5 7.5z"/><path d="m175.348 205.22 45.205 12.113c2.608.699 4.429 3.072 4.429 5.772v4.81c0 4.142 3.358 7.5 7.5 7.5s7.5-3.358 7.5-7.5v-4.81c0-9.477-6.393-17.808-15.547-20.261l-45.205-12.113c-3.997-1.068-8.113 1.302-9.186 5.303-1.071 4.001 1.303 8.114 5.304 9.186z"/><path d="m281.355 223.105v4.81c0 4.142 3.358 7.5 7.5 7.5s7.5-3.358 7.5-7.5v-4.81c0-2.7 1.821-5.073 4.43-5.772l45.205-12.113c4.001-1.072 6.375-5.185 5.303-9.186-1.072-4-5.185-6.374-9.186-5.303l-45.204 12.113c-9.155 2.453-15.548 10.784-15.548 20.261z"/><path d="m196.871 330.608c13.175 0 26.199-3.432 37.663-9.923l21.494-12.171 21.495 12.171c11.465 6.492 24.488 9.923 37.663 9.923h11.91c17.476 0 33.313-9.646 41.332-25.174 4.027-7.799 4.027-17.111 0-24.91-8.019-15.528-23.856-25.174-41.332-25.174h-41.916c-18.868-5.135-37.741-5.587-58.301 0h-6.912c-4.142 0-7.5 3.358-7.5 7.5s3.358 7.5 7.5 7.5h5.962l22.601 22.601v2.57l-21.386 12.11c-9.214 5.218-19.682 7.976-30.271 7.976h-11.909c-11.841 0-22.571-6.536-28.004-17.057-1.802-3.489-1.802-7.655 0-11.144 5.433-10.521 16.164-17.057 28.004-17.057 4.142 0 7.5-3.358 7.5-7.5s-3.358-7.5-7.5-7.5c-17.476 0-33.313 9.646-41.333 25.174-4.027 7.799-4.027 17.111 0 24.91 8.019 15.528 23.856 25.174 41.333 25.174h11.907zm158.228-43.201c1.802 3.489 1.802 7.655 0 11.144-5.433 10.521-16.164 17.057-28.004 17.057h-11.91c-10.589 0-21.057-2.758-30.272-7.976l-21.385-12.11v-2.571l22.601-22.601h40.966c11.84.001 22.571 6.536 28.004 17.057zm-86.957-20.282-12.114 12.114-12.114-12.114c8.039-1.061 16.19-1.062 24.228 0z"/><path d="m198.082 413.714c-3.515-2.191-8.141-1.117-10.332 2.398-13.907 22.316-32.965 41.602-55.116 55.772-3.489 2.232-4.508 6.871-2.276 10.36 2.236 3.494 6.875 4.505 10.36 2.276 24.017-15.365 44.683-36.277 59.762-60.474 2.192-3.516 1.117-8.141-2.398-10.332z"/><path d="m379.423 471.885c-22.15-14.17-41.209-33.456-55.117-55.772-2.191-3.515-6.816-4.589-10.332-2.398-3.515 2.191-4.589 6.816-2.398 10.332 15.08 24.198 35.747 45.11 59.764 60.475 3.476 2.224 8.12 1.226 10.359-2.276 2.232-3.491 1.213-8.129-2.276-10.361z"/><path d="m506.571 485.075c-12.997-43.532-36.467-83.374-68.142-115.833 27.407-15.139 50.928-36.646 68.451-62.688l1.082-1.608c2.114-3.141 1.555-7.366-1.304-9.849l-32.854-28.54c13.885-4.818 25.776-14.246 33.71-27.022l.596-.96c2.098-3.378 1.195-7.805-2.057-10.092l-28.54-20.067c-24.622-17.312-48.092-41.061-57.08-53.864 5.044-15.618 8.128-31.793 9.183-48.201l1.398-21.751c1.603-24.93-4.561-49.296-17.823-70.465-10.551-16.843-34.237-19.007-47.66-4.325l-45.616 49.896c-11.247-4.564-23.426-6.959-35.546-6.959h-55.825c-12.353 0-24.745 2.483-36.169 7.214l-42.073-46.021c-13.34-14.591-36.239-15.273-50.386-1.128-.399.399-.752.843-1.053 1.321-10.232 16.334-16.373 35.129-17.76 54.353-.298 4.131 2.81 7.722 6.941 8.02 4.135.292 7.722-2.81 8.02-6.941 1.189-16.489 6.384-32.617 15.036-46.701 7.938-7.342 20.578-7.065 28.132 1.197 2.035 2.226 45.511 49.781 46.57 50.939-1.493.886-1.688 1.023-9.719 6.16l-40.849-44.682c-5.947-6.505-16.657-4.817-20.235 3.238-6.063 13.645-8.648 28.177-7.683 43.193l1.398 21.751c.682 10.607 2.358 21.184 4.987 31.489-4.18 7.442-5.542 11.693-7.29 15.363-4.968-14.921-7.992-30.403-9.003-46.125-.265-4.133-3.829-7.272-7.965-7.003-4.134.266-7.27 3.832-7.003 7.965 1.074 16.701 4.248 33.152 9.45 49.024-9.09 12.449-31.155 35.228-56.491 53.042l-28.541 20.068c-3.252 2.287-4.155 6.714-2.057 10.092l.596.959c7.935 12.777 19.826 22.205 33.711 27.023l-32.854 28.54c-2.859 2.484-3.418 6.709-1.303 9.851l1.082 1.606c17.398 25.856 40.729 47.258 67.896 62.379-31.83 32.517-55.402 72.465-68.442 116.142l-5.168 17.31c-1.434 4.804 2.168 9.646 7.187 9.646h497.048c5.013 0 8.622-4.837 7.187-9.646zm-129.97-465.144c6.717-7.348 18.587-6.281 23.88 2.167 11.582 18.487 16.965 39.768 15.565 61.54l-1.398 21.751c-.986 15.339-3.891 30.459-8.647 45.047-1.234-2.718-3.078-7.858-7.383-15.328 2.478-9.974 4.065-20.201 4.724-30.447.266-4.134-2.87-7.7-7.003-7.965-4.134-.269-7.7 2.871-7.965 7.003-.316 4.909-.865 9.813-1.643 14.682-6.793-7.85-14.73-14.725-23.648-20.429l-13.967-8.934 35.87-39.235c2.191 5.784 3.669 11.805 4.404 17.954.492 4.113 4.222 7.049 8.337 6.556 4.113-.492 7.048-4.225 6.556-8.337-1.083-9.06-3.514-17.888-7.224-26.237-3.571-8.039-14.278-9.756-20.235-3.239l-40.534 44.335c-6.834-4.371-7.729-4.972-9.736-6.142 4.388-4.799 45.331-49.584 50.047-54.742zm-254.316 62.016c-.715-11.124.894-21.924 4.785-32.167l36.187 39.583-13.427 8.588c-9.235 5.907-17.418 13.069-24.368 21.27-1.562-9.457-1.622-13.073-3.177-37.274zm189.838 415.084-4.864-7.197c-12.001-17.756-18.617-38.466-19.132-59.892-.1-4.141-3.533-7.433-7.679-7.317-4.141.1-7.417 3.538-7.317 7.679.574 23.819 7.795 46.858 20.898 66.728h-76.001c13.104-19.87 20.325-42.909 20.898-66.727.1-4.141-3.177-7.579-7.317-7.679-4.188-.094-7.579 3.177-7.679 7.317-.516 21.424-7.131 42.134-19.132 59.891l-4.864 7.197h-182.363l2.288-7.665c12.799-42.869 36.317-81.943 68.153-113.315 23.541 10.749 48.616 16.694 74.618 17.679 4.092.165 7.62-3.037 7.778-7.211.157-4.139-3.072-7.622-7.211-7.778-58.063-2.199-109.951-31.552-142.055-76.708l39.042-33.916c4.889-4.247 2.437-12.301-3.989-13.105l-1.908-.238c-13.016-1.625-24.659-8.196-32.721-18.296l22.46-15.792c20.707-14.56 39.438-31.751 55.713-51.127 5.394 3.223 12.505 1.684 15.951-3.826 2.333-3.731 4.354-7.672 6.007-11.713 7.347-17.959 19.87-32.978 36.215-43.432 35.977-23.011 35.184-22.599 38.601-24.398 5.222-2.751 7.351-8.747 5.678-13.93 8.448-2.967 17.412-4.513 26.351-4.513h55.825c8.72 0 17.475 1.474 25.744 4.303-1.627 5.203.562 11.179 5.825 13.9 4.338 2.242 4.638 2.621 39.062 24.639 16.345 10.454 28.868 25.473 36.215 43.432 1.509 3.688 3.327 7.297 5.402 10.728 3.408 5.632 10.537 7.141 15.901 4.028 16.427 19.696 35.383 37.155 56.368 51.91l22.459 15.792c-8.062 10.101-19.706 16.671-32.722 18.297l-1.908.238c-2.937.367-5.383 2.427-6.245 5.258s.022 5.905 2.256 7.846l39.043 33.916c-31.847 44.793-83.783 74.771-142.902 76.737-4.14.138-7.384 3.605-7.247 7.746.135 4.055 3.5 7.369 7.746 7.247 26.101-.869 51.287-6.734 74.947-17.445 31.698 31.326 55.122 70.307 67.884 113.049l2.288 7.665h-182.36z"/><path d="m264.188 326.687c-5.316 1.028-11 1.029-16.319 0-4.065-.782-8.001 1.873-8.788 5.94-.786 4.067 1.873 8.001 5.94 8.788 7.266 1.405 14.835 1.388 22.014 0 4.067-.787 6.726-4.721 5.94-8.788-.787-4.067-4.723-6.724-8.787-5.94z"/><circle cx="296.199" cy="290.442" r="7.5"/><circle cx="321.428" cy="295.469" r="7.5"/><circle cx="215.858" cy="290.442" r="7.5"/><circle cx="190.629" cy="295.469" r="7.5"/></g></svg>