<svg id="Capa_1" enable-background="new 0 0 512.055 512.055" height="512" viewBox="0 0 512.055 512.055" width="512" xmlns="http://www.w3.org/2000/svg"><g><path d="m431.529 504.555c11.204-64.021 2.975-117.221-24.487-154.839-7.852-4.172-14.545-10.45-19.225-18.31l-.796-1.336-2.594 9.005c-9.291 32.256-26.002 61.889-48.798 86.528l-8.63 9.328-22.808-34.4-1.471 4.267c-9.306 26.991-25.43 51.12-46.813 70.044-21.382-18.924-37.507-43.053-46.813-70.044l-1.471-4.267-22.808 34.4-8.63-9.328c-22.796-24.639-39.507-54.272-48.798-86.528l-2.594-9.005-.796 1.336c-4.68 7.86-11.373 14.138-19.225 18.31-27.462 37.617-35.691 90.818-24.487 154.839z" fill="#f1f1f4"/><path d="m407.042 349.716c-7.852-4.172-14.545-10.45-19.225-18.31l-.796-1.336-2.594 9.005c-1.259 4.37-2.654 8.692-4.182 12.96 10.408 22.061 15.79 47.959 16.116 77.059.343 30.546-24.414 55.461-54.961 55.461h-264.021c.751 6.541 1.72 13.21 2.909 20h351.241c11.203-64.021 2.975-117.221-24.487-154.839z" fill="#dfdde2"/><path d="m422.354 261.712c-.256-2.619-.566-5.228-.93-7.825l9.36-2.793-9.08-25.142c-13.463-37.281-35.423-70.915-64.14-98.237-18.256-17.369-42.491-27.056-67.69-27.056h-67.931c-25.199 0-49.434 9.687-67.69 27.056-28.717 27.322-50.677 60.956-64.14 98.237l-9.079 25.142 9.36 2.793c-.364 2.597-.675 5.206-.93 7.825l-9.175 93.976 4.76-.329c16.127-1.113 30.682-10.064 38.952-23.954l.796-1.336 2.594 9.005c9.291 32.256 26.002 61.889 48.798 86.528l8.63 9.328 22.808-34.4 1.471 4.267c9.306 26.991 25.43 51.12 46.813 70.044 21.382-18.924 37.507-43.053 46.813-70.044l1.471-4.267 22.808 34.4 8.63-9.328c22.796-24.639 39.507-54.272 48.798-86.528l2.594-9.005.796 1.336c8.27 13.889 22.825 22.84 38.952 23.954l4.76.329z" fill="#f1f1f4"/><path d="m347.817 311.407-.796-1.337-2.594 9.007c-16.285 56.541-55.376 105.023-110.064 132.675 6.405 8.333 13.613 16.069 21.545 23.089 21.382-18.924 37.507-43.053 46.813-70.044l1.471-4.267 22.808 34.4 8.63-9.328c22.796-24.639 39.507-54.272 48.798-86.528l1.099-3.817c-15.63-1.475-29.653-10.319-37.71-23.85z" fill="#dfdde2"/><path d="m422.354 261.712c-.256-2.619-.566-5.228-.93-7.825l9.36-2.793-9.08-25.142c-13.463-37.281-35.423-70.915-64.14-98.237-12.658-12.043-28.191-20.393-44.926-24.381 1.686 1.401 3.329 2.862 4.926 4.381 28.717 27.322 50.677 60.956 64.14 98.237l7.239 20.044c1 2.768-.533 5.806-3.353 6.648-2.387.712-3.907 3.038-3.617 5.512.138 1.183.266 2.368.381 3.556l8.711 89.228c.132 1.354-.416 2.596-1.345 3.418 8.493 12.198 22.096 19.97 37.049 21.002l4.76.329z" fill="#dfdde2"/><path d="m255.903 321.443-25.535-30.57c-.262-.314-.142-.792.237-.944 16.233-6.528 34.362-6.528 50.596 0 .379.152.499.63.237.944z" fill="#efa5c3"/><path d="m95.562 132.276c-1.518 8.853-.669 17.949 2.459 26.367l10.318 27.767c12.312-21.638 27.763-41.427 45.912-58.695 14.332-13.635 32.348-22.536 51.623-25.733l-77.018-78.813c-9.791-10.02-23.209-15.669-37.22-15.669-6.494 0-11.461 5.785-10.479 12.204l14.562 95.17c.882 5.772.83 11.648-.157 17.402z" fill="#efa5c3"/><path d="m357.564 127.715c17.991 17.117 33.331 36.712 45.59 58.13l10.109-27.202c3.128-8.419 3.977-17.514 2.459-26.366-.987-5.755-1.039-11.631-.156-17.402l14.562-95.17c.982-6.419-3.985-12.204-10.479-12.204-14.011 0-27.429 5.649-37.221 15.669l-76.944 78.738c19.446 3.13 37.634 12.064 52.08 25.807z" fill="#e490b7"/><path d="m83.217 463.844c-.191-4.138-3.672-7.329-7.838-7.147-4.138.191-7.337 3.7-7.146 7.837.607 13.187 2.178 27.086 4.667 41.313.628 3.589 3.744 6.208 7.388 6.208h351.242c3.644 0 6.76-2.618 7.388-6.207 9.941-56.809 4.732-105.821-15.013-143.218 1.66.184 2.497.222 7.109.541 4.625.318 8.431-3.594 7.981-8.211-7.14-73.132-9.196-94.245-9.352-95.698l3.286-.98c4.129-1.232 6.372-5.686 4.909-9.735-9.686-26.819-14.235-41.313-26.456-63.314l8.91-23.977c3.585-9.645 4.561-20.104 2.821-30.247-1.505-8.772-.236-14.329 1.106-23.108.626-4.095-2.186-7.922-6.28-8.548-4.078-.626-7.922 2.185-8.548 6.279l-1.24 8.107c-1.007 6.581-.947 13.244.178 19.805 1.293 7.54.567 15.315-2.098 22.487l-4.738 12.751c-9.719-14.856-20.917-28.685-33.441-41.294l11.061-7.422c4.175-2.802 8.77-4.824 13.656-6.011 4.025-.978 6.496-5.033 5.519-9.058-.978-4.025-5.036-6.497-9.058-5.518-6.611 1.605-12.828 4.341-18.476 8.132l-13.999 9.394c-2.527-2.069-5.137-4.012-7.822-5.825l16.959-18.937c5.647-6.307 12.97-10.745 21.176-12.834 4.014-1.022 6.438-5.105 5.416-9.119-1.022-4.015-5.11-6.438-9.119-5.417-11.1 2.827-21.006 8.832-28.646 17.364l-19.083 21.309c-4.978-2.393-10.136-4.39-15.432-5.971l67.585-69.162c8.329-8.525 19.941-13.413 31.858-13.413 1.9 0 3.353 1.691 3.065 3.57l-8.023 52.435c-.626 4.094 2.186 7.921 6.279 8.548 4.097.633 7.922-2.184 8.549-6.279l8.023-52.435c1.677-10.962-6.814-20.839-17.893-20.839-15.931 0-31.452 6.534-42.586 17.928l-74.28 76.012c-8.491-1.034-11.612-.781-42.17-.781-4.143 0-7.5 3.358-7.5 7.5s3.357 7.5 7.5 7.5h29.263c22.999 0 44.358 8.734 59.999 22.679 1.598 1.411 3.072 2.826 4.578 4.291 26.737 26.043 47.523 58.269 60.199 93.372l6.384 17.676c-1.635.488-2.411.662-3.387 1.23l-38.86 11.597c-3.97 1.185-6.227 5.362-5.042 9.332 1.192 3.997 5.389 6.219 9.331 5.042l31.95-9.535 8.157 83.547c-12.01-2.035-22.621-9.239-28.923-19.821l-.795-1.336c-1.531-2.569-4.452-3.983-7.404-3.601-2.965.383-5.42 2.49-6.247 5.363-2.613 9.071-2.959 10.321-3.773 12.947-9.93-6.12-20.351-11.39-31.182-15.763 5.065-6.723 7.56-14.706 5.417-22.864 16.029.32 31.936 2.634 47.445 6.915l6.697 1.848c4.017 1.107 8.13-1.265 9.225-5.235 1.103-3.993-1.241-8.123-5.234-9.225l-6.697-1.848c-21.01-5.799-42.698-8.254-64.475-7.292-.101.001-3.328.151-27.848 1.267-4.139.188-7.34 3.695-7.151 7.833.188 4.138 3.699 7.335 7.833 7.151l24.01-1.093c2.168 2.975 2.531 6.03 1.161 9.441-1.014 2.525-2.958 5.13-5.592 7.574l-21.42-7.333c-3.917-1.341-8.182.748-9.524 4.667s.748 8.183 4.667 9.525l8.429 2.885c-3.847 1.101-7.929 1.74-12.071 1.74-21.38 0-32.532-4.563-35.504-7.957l22.973-27.503c3.51-4.211 1.906-10.646-3.199-12.705-18.119-7.286-38.075-7.286-56.2.003-5.084 2.05-6.712 8.479-3.188 12.708l22.969 27.497c-2.972 3.394-14.123 7.957-35.504 7.957-4.142 0-8.224-.64-12.071-1.74l8.429-2.885c3.919-1.342 6.009-5.606 4.667-9.525s-5.61-6.008-9.524-4.667l-21.42 7.333c-2.634-2.443-4.578-5.049-5.592-7.574-1.369-3.411-1.007-6.466 1.161-9.441l24.01 1.093c4.118.182 7.645-3.013 7.833-7.151s-3.013-7.645-7.151-7.833c-21.083-.96-27.731-1.266-27.837-1.267-21.775-.963-43.471 1.491-64.486 7.291l-6.697 1.848c-3.993 1.102-6.337 5.232-5.234 9.225 1.096 3.973 5.211 6.341 9.225 5.235l6.697-1.849c15.51-4.28 31.418-6.595 47.446-6.915-2.145 8.165.352 16.142 5.417 22.864-10.828 4.372-21.246 9.64-31.174 15.758-.906-2.922-1.398-4.702-3.771-12.942-.827-2.873-3.282-4.98-6.247-5.363-2.967-.382-5.874 1.032-7.404 3.601l-.796 1.337c-6.272 10.533-16.861 17.778-28.922 19.821l8.157-83.544c34.433 10.276 32.526 9.847 34.088 9.847 3.23 0 6.213-2.104 7.184-5.357 1.185-3.969-1.072-8.147-5.042-9.332l-38.84-11.591c-.986-.576-1.675-.722-3.396-1.236l6.383-17.677c12.824-35.51 34.002-68.182 61.239-94.376 14.063-13.541 30.501-21.724 48.698-24.742 7.304-1.212 11.842-1.222 18.509-1.222 4.143 0 7.5-3.358 7.5-7.5s-3.357-7.5-7.5-7.5c-5.662 0-10.063-.043-17.051.84l-74.339-76.072c-11.139-11.393-26.661-17.927-42.59-17.927-11.094 0-19.568 9.889-17.894 20.839l14.562 95.169c.763 4.984.718 10.031-.135 15 9.661 1.657 10.053 1.724 0 .001-1.738 10.141-.763 20.6 2.821 30.246l9.124 24.553c-12.032 21.79-16.522 36.117-26.136 62.739-1.465 4.053.785 8.504 4.909 9.734l3.285.98c-.139 1.302.467-4.857-9.352 95.698-.45 4.616 3.35 8.525 7.981 8.211 4.659-.322 5.496-.363 7.086-.538-9.834 18.561-16.086 39.95-18.638 63.842-.472 4.421 2.988 8.297 7.467 8.297 3.785 0 7.038-2.856 7.449-6.704 3.036-28.435 11.685-52.852 25.712-72.606 4.329-2.48 8.328-5.528 11.882-9.073.34 1.078.689 2.154 1.045 3.227-2.14 1.552-3.408 2.522-8.471 6.328-3.311 2.489-3.978 7.191-1.488 10.501 2.489 3.312 7.191 3.977 10.502 1.489l4.902-3.685c10.076 24.42 24.5 47.068 42.43 66.448l8.63 9.328c3.322 3.591 9.089 3.074 11.756-.949l14.638-22.075c10.04 24.246 25.538 46.026 45.233 63.458 2.838 2.512 7.103 2.512 9.941 0 19.695-17.432 35.193-39.214 45.233-63.458l14.637 22.076c2.662 4.015 8.428 4.547 11.756.949l8.63-9.328c17.93-19.38 32.354-42.025 42.429-66.442l4.895 3.679c3.318 2.494 8.018 1.816 10.502-1.489 2.489-3.311 1.822-8.013-1.488-10.501-5.511-4.142-6.488-4.889-8.464-6.322.357-1.075.706-2.152 1.047-3.232 3.553 3.545 7.552 6.592 11.88 9.072 24.377 34.343 32.373 83.153 23.235 141.595h-117.529c7.369-4.644 14.234-10.313 20.437-16.938 2.831-3.023 2.675-7.77-.349-10.601-3.022-2.831-7.77-2.675-10.601.348-15.74 16.809-36.409 26.393-58.481 27.191h-6.011c-22.074-.798-42.742-10.382-58.482-27.191-2.832-3.022-7.578-3.18-10.601-.348-3.023 2.831-3.18 7.578-.349 10.601 6.204 6.625 13.069 12.294 20.437 16.938h-116.995c-1.788-11.432-2.939-22.576-3.429-33.213zm5.354-445.274c-.287-1.878 1.163-3.57 3.066-3.57 11.917 0 23.528 4.888 31.856 13.411l67.707 69.286c-5.154 1.562-10.176 3.517-15.027 5.85l-19.087-21.312c-7.641-8.532-17.546-14.536-28.646-17.364-4.01-1.021-8.097 1.402-9.119 5.417-1.022 4.014 1.402 8.097 5.416 9.119 8.205 2.09 15.527 6.528 21.175 12.834l16.963 18.941c-2.684 1.813-5.293 3.756-7.819 5.825l-14.003-9.397c-5.649-3.791-11.866-6.527-18.478-8.132-4.025-.977-8.08 1.494-9.058 5.519s1.493 8.081 5.519 9.058c4.887 1.187 9.482 3.209 13.658 6.011l11.066 7.426c-12.671 12.757-23.981 26.759-33.778 41.811l-4.932-13.271c-2.664-7.171-3.39-14.947-2.097-22.488 1.124-6.56 1.184-13.223.178-19.803zm180.502 275.408-13.17 15.767-13.169-15.766c8.684-1.958 17.655-1.957 26.339-.001zm61.052 126.532-2.148 2.322-17.533-26.445c-3.427-5.166-11.316-4.169-13.341 1.699l-1.473 4.268c-8.131 23.583-21.801 44.985-39.722 62.278-17.921-17.293-31.591-38.694-39.722-62.278l-1.471-4.267c-2.022-5.862-9.91-6.873-13.342-1.7l-17.534 26.445-2.148-2.322c-17.477-18.891-31.382-41.108-40.818-65.064 12.097-7.742 25.01-14.1 38.56-18.981 9.309 5.96 21.036 9.671 32.644 9.671 20.3 0 35.432-3.683 43.826-10.292 8.394 6.609 23.527 10.292 43.826 10.292 11.608 0 23.336-3.711 32.645-9.671 13.553 4.882 26.469 11.242 38.567 18.986-9.436 23.952-23.34 46.168-40.816 65.059z"/><path d="m274.863 353.197c-.077.074-8.075 7.331-18.964 7.331-10.783 0-18.803-7.198-18.979-7.358-3.015-2.812-7.738-2.663-10.571.341-2.842 3.014-2.702 7.76.312 10.602.495.466 12.303 11.416 29.238 11.416 16.956 0 28.763-10.953 29.257-11.418 3.013-2.842 3.151-7.589.31-10.602-2.843-3.015-7.59-3.153-10.603-.312z"/><path d="m226.674 243.622c4.143 0 7.5-3.358 7.5-7.5v-5.416c0-10.243-6.91-19.249-16.804-21.9l-50.896-13.637c-4.003-1.073-8.114 1.302-9.186 5.304-1.072 4.001 1.302 8.113 5.303 9.186l50.896 13.637c3.349.897 5.687 3.945 5.687 7.411v5.416c0 4.141 3.357 7.499 7.5 7.499z"/><path d="m277.633 230.707v5.416c0 4.142 3.357 7.5 7.5 7.5s7.5-3.358 7.5-7.5v-5.416c0-3.466 2.339-6.514 5.688-7.411l50.895-13.637c4.001-1.072 6.375-5.185 5.303-9.186s-5.182-6.374-9.186-5.304l-50.895 13.637c-9.895 2.652-16.805 11.657-16.805 21.901z"/><path d="m239.017 170.841c-4.952-17.199-10.285-28.095-15.008-38.2-1.755-3.753-6.218-5.374-9.971-3.619-3.752 1.754-5.373 6.218-3.619 9.97 5.09 10.887 9.652 20.266 14.184 36 1.148 3.987 5.311 6.277 9.282 5.131 3.981-1.145 6.279-5.302 5.132-9.282z"/><path d="m297.769 129.023c-3.753-1.755-8.217-.135-9.971 3.618-5.169 11.054-10.161 21.363-15.01 38.201-1.146 3.98 1.151 8.137 5.132 9.283 3.986 1.148 8.138-1.157 9.282-5.131 4.603-15.983 9.503-25.988 14.184-36 1.755-3.753.135-8.217-3.617-9.971z"/></g></svg>