<svg id="Capa_1" enable-background="new 0 0 512.004 512.004" height="512" viewBox="0 0 512.004 512.004" width="512" xmlns="http://www.w3.org/2000/svg"><g><path d="m353.622 404.915c-11.221-10.395-18.685-23.996-21.586-38.712-3.971 1.574-8.187 2.622-12.553 3.072l-35.139 3.619.003-.003c-7.334 7.235-17.387 11.635-28.345 11.635-10.96 0-21.015-4.401-28.349-11.639l.008.008-35.139-3.619c-4.366-.45-8.583-1.497-12.553-3.071-2.901 14.716-10.366 28.317-21.587 38.712-21.63 20.039-37.189 46.79-43.256 77.446l-4.382 22.142h290.517l-4.382-22.142c-6.068-30.657-21.627-57.409-43.257-77.448z" fill="#f1f1f4"/><path d="m396.878 482.361c-6.067-30.656-21.626-57.408-43.256-77.446-11.221-10.395-18.685-23.996-21.586-38.712-3.971 1.574-8.187 2.622-12.553 3.072l-17.447 1.797c3.23 5.036 7.109 9.695 11.586 13.844 21.63 20.039 37.189 46.79 43.256 77.446 2.269 11.464-6.504 22.142-18.19 22.142h-223.986l-3.958 20h290.517z" fill="#dfdde2"/><path d="m391.453 203.985-49.683-55.566c-21.827-24.411-53.022-38.365-85.768-38.365-32.746 0-63.941 13.954-85.768 38.365l-49.683 55.566c-10.994 12.296-13.781 29.887-7.124 44.979l40.761 92.418c6.84 15.508 21.473 26.156 38.334 27.893l35.139 3.619c-2.936-2.895-5.437-6.245-7.385-9.949 1.402.154 2.822.242 4.262.242h11.521c11.015 0 19.944-8.929 19.944-19.944 0 11.015 8.929 19.944 19.944 19.944h11.521c1.44 0 2.861-.088 4.262-.242-1.949 3.704-4.449 7.054-7.385 9.949l35.139-3.619c16.861-1.737 31.494-12.384 38.334-27.893l40.761-92.418c6.655-15.092 3.869-32.683-7.126-44.979z" fill="#f1f1f4"/><path d="m220.115 355.389c-2.735.282-5.491.282-8.226 0l-52.793-5.438c7.785 10.788 19.887 17.928 33.425 19.323l35.139 3.619c-2.936-2.896-5.437-6.245-7.385-9.949 1.402.154 2.822.242 4.262.242h11.521c7.914 0 14.751-4.609 17.974-11.29z" fill="#dfdde2"/><path d="m391.453 203.985-49.683-55.566c-14.897-16.66-34.157-28.449-55.296-34.256 5.479 4.246 10.604 9.009 15.296 14.256l49.683 55.566c10.994 12.296 13.781 29.887 7.124 44.979l-40.761 92.418c-6.84 15.508-21.473 26.156-38.334 27.893l-21.692 2.234c3.142 6.889 10.089 11.678 18.155 11.678h11.521c1.44 0 2.861-.088 4.262-.242-1.949 3.704-4.449 7.054-7.385 9.949l35.139-3.619c16.861-1.737 31.494-12.384 38.334-27.893l40.761-92.418c6.657-15.092 3.871-32.683-7.124-44.979z" fill="#dfdde2"/><path d="m175.659 297.466-25.709-32.664c-11.877-15.09-11.795-36.372.196-51.371l18.938-23.687c8.72-10.906 23.994-14.01 36.279-7.373l35.796 19.34c9.261 5.004 20.421 5.004 29.682 0l35.796-19.34c12.285-6.637 27.56-3.533 36.279 7.373l18.938 23.687c11.992 14.999 12.073 36.281.196 51.371 0 0-15.64 19.871-25.713 32.669-5.43 6.9-8.764 15.207-9.611 23.947l-.652 6.721c-1.928 19.881-18.637 35.048-38.611 35.048h-11.521c-11.015 0-19.944-8.929-19.944-19.944v-9.902 9.902c0 11.015-8.929 19.944-19.944 19.944h-11.521c-19.974 0-36.683-15.167-38.611-35.048 0 0-.293-3.02-.652-6.719-.843-8.739-4.18-17.054-9.611-23.954z" fill="#c6c1c8"/><path d="m254.032 351.896-33.917 3.493c-2.735.282-5.491.282-8.226 0l-12.268-1.264c5.736 4.808 12.868 7.975 20.659 8.828-.002-.003-.003-.006-.005-.009 1.402.154 2.822.242 4.262.242h11.521c7.648 0 14.636-4.371 17.974-11.29z" fill="#afaab4"/><path d="m291.729 362.945c-.002.003-.003.006-.005.009 18.045-1.976 32.564-16.366 34.353-34.815l.652-6.721c.848-8.739 4.181-17.047 9.611-23.947 10.073-12.798 25.713-32.669 25.713-32.669 11.791-14.981 11.796-36.064.062-51.044-.215 5.154-1.38 10.311-3.538 15.206l-40.761 92.418c-6.84 15.508-21.473 26.156-38.334 27.893l-21.692 2.234c3.216 7.057 10.276 11.678 18.155 11.678 10.893-.067 12.13.159 15.784-.242z" fill="#afaab4"/><path d="m256.002 333.34-26.577-26.577c-1.583-1.583-.992-4.275 1.109-5.049 16.439-6.055 34.497-6.055 50.935 0 2.101.774 2.693 3.466 1.109 5.049z" fill="#efa5c3"/><path d="m287.467 363.186h-11.521c-11.015 0-19.944-8.929-19.944-19.944 0 11.015-8.929 19.944-19.944 19.944h-11.521c-1.44 0-2.861-.088-4.262-.242 6.816 12.956 20.385 21.581 35.727 21.581 15.342 0 28.911-8.624 35.727-21.581-1.402.155-2.822.242-4.262.242z" fill="#c6c1c8"/><path d="m120.551 203.985 49.683-55.566c8.441-9.44 18.283-17.316 29.074-23.427l-1.74-3.045c-10.338-18.09-23.742-34.246-39.613-47.744l-68.725-58.447c-9.664-8.218-23.047-10.497-34.885-5.939-16.07 6.187-25.155 23.239-21.326 40.027l26.557 116.442c2.915 12.779 11.889 23.329 24.037 28.253l2.177.882 3.251 16.405c2.205 11.124 10.244 20.146 20.954 23.65-.937-11.305 2.73-22.739 10.556-31.491z" fill="#c6c1c8"/><path d="m422.774 15.756-68.726 58.449c-15.871 13.498-29.275 29.652-39.611 47.742l-1.74 3.045c10.791 6.11 20.633 13.986 29.074 23.427l49.683 55.566c7.825 8.752 11.492 20.186 10.556 31.492 10.71-3.505 18.749-12.527 20.954-23.65l3.251-16.405 2.177-.882c12.147-4.925 21.122-15.474 24.037-28.253l26.557-116.442c3.829-16.788-5.256-33.84-21.325-40.027-11.84-4.559-25.223-2.28-34.887 5.938z" fill="#afaab4"/><path d="m438.97 34.8-68.726 58.449c-15.272 12.988-27.774 28.678-37.063 46.531 2.999 2.713 5.867 5.595 8.589 8.639l49.683 55.566c2.34 2.617 4.308 5.475 5.893 8.497l6.969-35.161 14.682-5.949c4.573-1.854 7.958-5.833 9.056-10.644l26.557-116.444c2.046-8.968-8.585-15.484-15.64-9.484z" fill="#efa5c3"/><path d="m73.033 34.8 68.726 58.449c15.272 12.988 27.774 28.678 37.063 46.531-2.999 2.713-5.867 5.595-8.589 8.639l-49.683 55.566c-2.34 2.617-4.308 5.475-5.893 8.497l-6.969-35.161-14.682-5.949c-4.573-1.854-7.958-5.833-9.056-10.644l-26.557-116.444c-2.045-8.968 8.586-15.484 15.64-9.484z" fill="#f9c6da"/><path d="m256.002 466.326c25.53 0 44.674-12.961 55.362-37.482 1.655-3.798-.082-8.218-3.879-9.872-3.796-1.657-8.217.081-9.872 3.878-8.352 19.162-21.963 28.477-41.611 28.477-19.649 0-33.26-9.314-41.611-28.476-1.655-3.798-6.073-5.536-9.872-3.879-3.797 1.654-5.534 6.074-3.879 9.871 10.688 24.522 29.831 37.483 55.362 37.483z"/><path d="m52.264 167.954c3.329 14.597 13.343 26.764 26.949 32.861l2.472 12.47c2.404 12.13 10.451 22.311 21.463 27.522.683 3.802 1.818 7.557 3.417 11.183l27.05 61.331c-12.019 2.359-23.92 5.378-35.659 9.05-3.953 1.236-6.155 5.444-4.919 9.397 1.229 3.926 5.414 6.162 9.397 4.919 12.297-3.846 24.779-6.942 37.393-9.28 7.889 17.887 8.728 20.427 12.352 25.734-12.992 6.658-25.558 14.167-37.628 22.495-3.409 2.352-4.266 7.022-1.914 10.432 2.341 3.393 7.007 4.278 10.433 1.914 12.672-8.743 25.916-16.541 39.644-23.354 2.656 2.174 5.512 4.097 8.53 5.741-3.24 11.141-9.378 21.095-17.959 29.044-12.3 11.396-22.545 24.645-30.451 39.377-2.698 5.028 1.001 11.048 6.603 11.048 2.674 0 5.262-1.435 6.615-3.956 7.119-13.267 16.347-25.199 27.427-35.465 10.307-9.549 17.758-21.439 21.833-34.739 4.316.977 3.363.74 39.046 4.415 18.033 15.907 45.247 15.912 63.286 0 34.16-3.518 34.59-3.406 39.047-4.416 4.076 13.3 11.526 25.19 21.834 34.739 21.204 19.644 35.38 45.025 40.996 73.4l2.61 13.187h-272.258c2.697-13.625 2.994-15.382 4.024-19.542.996-4.021-1.456-8.087-5.477-9.083-4.021-.99-8.087 1.457-9.083 5.478-1.139 4.598-1.242 5.394-5.952 29.191-.915 4.626 2.625 8.956 7.357 8.956h290.517c4.717 0 8.276-4.314 7.357-8.956l-4.382-22.143c-6.235-31.502-21.974-59.682-45.517-81.492-8.58-7.949-14.719-17.904-17.958-29.045 3.018-1.644 5.874-3.566 8.529-5.74 13.728 6.813 26.972 14.612 39.644 23.354 3.432 2.368 8.095 1.474 10.433-1.914 2.352-3.409 1.495-8.08-1.914-10.432-12.07-8.328-24.636-15.837-37.628-22.495 1.865-2.731 3.494-5.65 4.854-8.733l7.498-17.001c12.613 2.338 25.096 5.434 37.393 9.28 3.994 1.245 8.172-1.002 9.397-4.919 1.236-3.953-.966-8.161-4.919-9.397-11.739-3.672-23.64-6.691-35.659-9.05l2.996-6.793c1.671-3.79-.046-8.217-3.836-9.889-3.79-1.673-8.217.046-9.889 3.836l-4.507 10.218c-8.196-1.22-16.439-2.136-24.712-2.748 1.079-2.045 2.346-3.998 3.792-5.836l25.713-32.67c14.106-17.922 14.01-42.879-.232-60.692l-18.938-23.688c-10.993-13.748-30.214-17.654-45.703-9.288l-35.796 19.341c-7.062 3.814-15.492 3.814-22.552 0l-35.796-19.341c-15.489-8.367-34.709-4.461-45.703 9.288l-18.938 23.688c-14.242 17.813-14.338 42.771-.232 60.692l25.709 32.664c1.448 1.839 2.716 3.795 3.796 5.841-8.274.611-16.515 1.527-24.712 2.748l-28.561-64.756c-5.456-12.37-3.158-26.875 5.853-36.953 55.622-62.208 52.067-58.533 57.691-63.62 44.713-40.305 112.776-36.014 152.199 7.889.986 1.141 49.748 55.562 50.932 57.026 8.211 10.154 9.901 23.982 4.751 35.657l-8.871 20.113c-1.671 3.79.046 8.217 3.836 9.889 3.79 1.674 8.217-.046 9.889-3.836l8.871-20.113c1.6-3.627 2.734-7.381 3.417-11.183 11.012-5.21 19.059-15.392 21.463-27.522l2.471-12.47c13.604-6.097 23.62-18.264 26.949-32.86l26.557-116.443c4.627-20.285-6.526-41.219-25.942-48.693-14.413-5.55-30.674-2.78-42.439 7.225l-68.726 58.449c-15.636 13.297-28.872 28.934-39.384 46.518-33.091-16.167-72.72-17.045-107.606 0-4.559-7.621-9.687-14.954-15.274-21.842-2.61-3.218-7.335-3.712-10.549-1.1-3.217 2.609-3.709 7.332-1.1 10.549 5.066 6.246 9.72 12.889 13.869 19.79-2.799 1.821-5.527 3.758-8.176 5.809-9.141-15.389-20.665-29.044-34.349-40.681l-68.725-58.446c-12.563-10.689-31.458.883-27.811 16.865l26.557 116.444c1.642 7.197 6.707 13.151 13.551 15.927l10.929 4.429 5.694 28.729c-1.656 3.648-2.859 7.473-3.592 11.383-3.438-3.318-5.864-7.653-6.823-12.495l-3.251-16.405c-.491-2.479-2.198-4.544-4.541-5.493l-2.175-.881c-9.869-4.002-17.174-12.589-19.542-22.972l-26.557-116.442c-2.979-13.063 4.203-26.545 16.708-31.359 9.282-3.572 19.755-1.789 27.332 4.652l65.055 55.327c3.156 2.684 7.89 2.303 10.572-.854 2.684-3.155 2.301-7.888-.854-10.571l-65.056-55.329c-11.766-10.005-28.028-12.772-42.439-7.224-19.417 7.475-30.57 28.408-25.943 48.693zm126.314 189.333c3.218-1.384 6.459-2.715 9.723-3.994 2.736 3.437 5.948 6.465 9.537 8.99l-4.548-.469c-5.231-.539-10.216-2.107-14.712-4.527zm57.994 13.394c7.643-.141 14.532-3.422 19.43-8.605 4.897 5.183 11.786 8.464 19.43 8.605-11.534 8.459-27.322 8.462-38.86 0zm19.43-47.948-16.077-16.077c10.549-2.639 21.605-2.64 32.154.001zm58.164 39.549c3.588-2.525 6.801-5.552 9.537-8.99 3.264 1.279 6.505 2.61 9.723 3.994-7.606 4.094-13.462 4.399-19.26 4.996zm36.788-23.927c-1.294 2.934-2.925 5.664-4.836 8.149-4.967-2.267-9.99-4.413-15.066-6.437 2.26-6.345 2.44-10.681 3.09-17.383 7.605.486 15.184 1.241 22.725 2.265zm-169.401-45.528-25.709-32.664c-9.772-12.416-9.707-29.707.161-42.048l18.938-23.688c6.459-8.079 17.755-10.377 26.857-5.458l35.797 19.341c11.524 6.227 25.285 6.227 36.811 0l35.796-19.341c9.1-4.918 20.396-2.622 26.857 5.458l18.938 23.688c9.867 12.341 9.933 29.632.161 42.048l-25.713 32.67c-3.43 4.358-6.136 9.184-8.053 14.312-5.74-.149-9.033-.115-17.916-.115-4.142 0-7.5 3.357-7.5 7.5s3.358 7.5 7.5 7.5c9.585 0 11.084-.013 14.652.048-.52 5.365-.623 8.4-2.142 12.742-7.161-2.491-11.835-3.876-23.037-7.351-3.957-1.227-8.158.984-9.385 4.941-1.228 3.956.985 8.158 4.941 9.385 12.359 3.834 14.41 4.444 18.868 5.935-4.726 4.234-10.657 6.999-17.468 7.759-2.518.276-2.952.196-14.96.196-6.861 0-12.444-5.582-12.444-12.444v-6.795l24.381-24.38c5.454-5.456 3.411-14.726-3.82-17.39-18.095-6.665-38.025-6.664-56.119 0-7.241 2.665-9.273 11.938-3.822 17.391l24.38 24.379v6.795c0 6.862-5.583 12.444-12.444 12.444-17.335 0-11.081.029-15.341-.229-6.521-.785-12.432-3.557-17.087-7.727 4.74-1.585 7.313-2.351 18.867-5.935 3.957-1.227 6.169-5.429 4.941-9.385-1.227-3.957-5.429-6.167-9.385-4.941-10.412 3.229-15.777 4.825-23.037 7.351-1.546-4.419-1.635-7.514-2.142-12.742 3.818-.065 5.831-.048 14.642-.048 4.142 0 7.5-3.357 7.5-7.5s-3.358-7.5-7.5-7.5c-8.366 0-12.101-.036-17.906.115-1.92-5.129-4.627-9.957-8.058-14.317zm-3.69 29.858c.649 6.696.829 11.037 3.09 17.382-5.076 2.024-10.099 4.17-15.066 6.437-1.912-2.485-3.542-5.215-4.836-8.149l-5.912-13.405c7.539-1.024 15.118-1.779 22.724-2.265zm164.656-184.376c2.025-3.56 4.188-7.02 6.484-10.378l17.159-7.539c12.825-5.634 27.078-5.938 40.132-.853 3.86 1.505 8.208-.406 9.711-4.267 1.503-3.859-.407-8.207-4.267-9.71-13.346-5.199-27.666-6.018-41.265-2.494 3.198-2.958-1.67 1.251 73.355-62.556.765-.65 1.594-.712 2.468-.181.61.37 1.279 1.066 1.001 2.284l-26.556 116.445c-.553 2.423-2.258 4.427-4.56 5.36l-14.682 5.949c-2.342.949-4.049 3.014-4.541 5.493l-3.736 18.849-38.476-43.032c13.093-4.542 27.177-3.773 39.707 2.187 3.742 1.777 8.215.188 9.994-3.553 1.779-3.74.189-8.215-3.552-9.994-16.271-7.737-34.58-8.675-51.554-2.642l-5.51 1.959c-.433-.444-.983-.999-1.312-1.327zm16.388-58.391 68.726-58.448c7.578-6.444 18.05-8.226 27.332-4.653 12.504 4.814 19.687 18.296 16.708 31.359l-26.557 116.443c-2.368 10.382-9.674 18.969-19.541 22.97l-2.177.882c-2.343.949-4.05 3.014-4.541 5.493l-3.251 16.405c-.959 4.842-3.385 9.177-6.823 12.495-.734-3.91-1.936-7.734-3.592-11.383l5.694-28.729 10.931-4.43c6.843-2.774 11.908-8.729 13.549-15.926l26.557-116.444c3.656-16.022-15.276-27.526-27.811-16.865l-68.726 58.449c-13.683 11.637-25.208 25.292-34.349 40.681-2.65-2.051-5.378-3.989-8.178-5.809 9.642-16.053 21.755-30.333 36.049-42.49zm-263.082 84.504c-2.304-.935-4.009-2.938-4.562-5.361l-26.557-116.445c-.278-1.218.391-1.914 1.001-2.284.874-.531 1.704-.47 2.468.181 74.735 63.56 70.134 59.576 73.356 62.556-13.599-3.524-27.92-2.704-41.265 2.494-3.86 1.503-5.77 5.851-4.267 9.71 1.504 3.86 5.852 5.772 9.711 4.267 13.053-5.085 27.306-4.781 40.132.853l17.159 7.539c2.297 3.358 4.459 6.82 6.484 10.38-.441.439-.878.882-1.313 1.328l-5.51-1.958c-16.976-6.035-35.284-5.096-51.554 2.641-3.741 1.779-5.331 6.254-3.552 9.994 1.778 3.741 6.25 5.331 9.994 3.553 12.528-5.96 26.614-6.733 39.707-2.187l-38.476 43.032-3.736-18.849c-.491-2.479-2.198-4.544-4.541-5.493z"/><path d="m248.502 133.02v37.469c0 4.143 3.358 7.5 7.5 7.5s7.5-3.357 7.5-7.5v-37.469c0-4.143-3.358-7.5-7.5-7.5s-7.5 3.358-7.5 7.5z"/><path d="m278.044 137.896v24.171c0 4.143 3.358 7.5 7.5 7.5s7.5-3.357 7.5-7.5v-24.171c0-4.143-3.358-7.5-7.5-7.5s-7.5 3.358-7.5 7.5z"/><path d="m218.959 137.905v24.162c0 4.143 3.358 7.5 7.5 7.5s7.5-3.357 7.5-7.5v-24.162c0-4.143-3.358-7.5-7.5-7.5s-7.5 3.358-7.5 7.5z"/><path d="m279.131 265.686c4.142 0 7.5-3.357 7.5-7.5v-5.37c0-3.408 2.3-6.405 5.592-7.288l50.467-13.522c4.001-1.071 6.375-5.185 5.304-9.186-1.072-4.001-5.186-6.379-9.186-5.303l-50.467 13.522c-9.838 2.637-16.709 11.592-16.709 21.776v5.37c-.001 4.144 3.357 7.501 7.499 7.501z"/><path d="m225.373 253.323v4.863c0 4.143 3.358 7.5 7.5 7.5s7.5-3.357 7.5-7.5v-4.863c0-9.543-6.438-17.933-15.656-20.402l-45.698-12.245c-3.998-1.075-8.114 1.302-9.186 5.303s1.302 8.113 5.303 9.186l45.698 12.245c2.672.715 4.539 3.148 4.539 5.913z"/></g></svg>