<svg id="Capa_1" enable-background="new 0 0 512 512" height="512" viewBox="0 0 512 512" width="512" xmlns="http://www.w3.org/2000/svg"><g><path d="m457.217 35.129c-3.016-16.023-17.01-27.629-33.314-27.629-9.67 0-18.879 4.13-25.311 11.35l-84.176 94.488c-1.996 2.241-1.257 5.784 1.479 7.015 4.903 2.206 9.532 5.052 13.761 8.492l54.596 44.417c9.374 7.626 16.848 17.014 22.145 27.445 1.438 2.832 5.415 3.033 7.184.395l5-7.455c9.508-14.175 12.899-31.586 9.405-48.293l-.102-.487 24.967-63.536c5.771-14.684 7.284-30.697 4.366-46.202z" fill="#afaab4"/><path d="m54.765 35.129c3.016-16.023 17.01-27.629 33.314-27.629 9.67 0 18.879 4.13 25.311 11.35l84.176 94.488c1.996 2.241 1.257 5.784-1.479 7.015-4.903 2.206-9.532 5.052-13.761 8.492l-54.596 44.417c-9.374 7.626-16.848 17.014-22.145 27.445-1.438 2.832-5.415 3.033-7.184.395l-5-7.455c-9.508-14.175-12.899-31.586-9.405-48.293l.102-.487-24.968-63.536c-5.77-14.684-7.283-30.697-4.365-46.202z" fill="#c6c1c8"/><path d="m373.787 439.57c-15.971-14.796-25.637-34.976-27.396-56.397l-2.178 1.057c-17.355 8.424-36.395 12.801-55.687 12.801h-65.071c-19.292 0-38.332-4.377-55.687-12.801l-2.178-1.057c-1.758 21.421-11.424 41.6-27.396 56.397-19.14 17.732-34.341 39.821-43.974 64.93h323.541c-9.633-25.108-24.833-47.197-43.974-64.93z" fill="#a298a5"/><path d="m373.787 439.57c-15.971-14.796-25.637-34.976-27.396-56.397l-2.178 1.057c-9.339 4.533-19.165 7.893-29.256 10.031 4.617 9.413 10.957 18.015 18.83 25.308 5.22 4.836 10.147 9.996 14.748 15.453 16.493 19.562 2.609 49.477-22.978 49.477h-222.159c-3.457 6.42-6.528 13.095-9.177 20h323.541c-9.634-25.107-24.834-47.196-43.975-64.929z" fill="#8b818e"/><path d="m413.581 201.103c-1.769 2.638-5.746 2.436-7.184-.395-5.297-10.431-12.771-19.819-22.145-27.445l-54.596-44.417c-4.228-3.44-8.858-6.286-13.761-8.492-2.695-1.213-3.453-4.668-1.568-6.913-10.075-3.62-20.77-5.511-31.632-5.511h-53.409c-10.862 0-21.557 1.891-31.632 5.511 1.885 2.245 1.128 5.7-1.568 6.913-4.903 2.206-9.532 5.052-13.761 8.492l-54.596 44.417c-9.374 7.626-16.848 17.014-22.145 27.445-1.438 2.832-5.415 3.033-7.184.395l-.649-.968c-6.619 14.955-9.012 31.724-6.459 48.438l9.912 64.884c3.974 26.012 20.483 48.407 44.155 59.897l22.409 10.877c17.355 8.424 36.395 12.801 55.687 12.801h65.071c19.292 0 38.332-4.377 55.687-12.801l22.409-10.877c23.672-11.49 40.182-33.886 44.155-59.897l9.912-64.884c2.553-16.714.159-33.483-6.459-48.438z" fill="#a298a5"/><path d="m414.23 200.135-.649.968c-1.769 2.638-5.746 2.436-7.184-.395-5.297-10.431-12.771-19.819-22.145-27.445l-54.596-44.417c-4.228-3.44-8.858-6.286-13.761-8.492-.087-.039-.172-.081-.255-.125l33.896 27.576c23.966 19.498 35.819 50.227 31.153 80.768l-9.912 64.884c-3.974 26.012-20.483 48.407-44.155 59.897l-22.409 10.877c-17.355 8.424-36.395 12.801-55.687 12.801h-65.071c-16.463 0-32.742-3.188-47.948-9.358 3.122 2.109 6.411 4.01 9.852 5.68l22.409 10.877c17.355 8.424 36.395 12.801 55.687 12.801h65.071c19.292 0 38.332-4.377 55.687-12.801l22.409-10.877c23.672-11.49 40.182-33.886 44.155-59.897l9.912-64.884c2.553-16.714.16-33.484-6.459-48.438z" fill="#8b818e"/><path d="m255.991 332.077-34.249-33.034c-2.01-1.938-1.294-5.312 1.33-6.267 21.263-7.743 44.576-7.743 65.839 0 2.623.955 3.339 4.329 1.33 6.267z" fill="#665e66"/><path d="m255.991 332.077v7.904c0 5.29 3.058 10.102 7.847 12.348l26.309 12.339c12.845 6.025 27.875 5.085 39.869-2.493 9.105-5.753 15.624-14.814 18.182-25.276l1.617-6.613c3.808-15.572-7.983-30.594-24.014-30.594h-36.234z" fill="#c6c1c8"/><path d="m255.991 332.077v7.904c0 5.29 3.058 10.102 7.847 12.348l26.309 12.339c12.845 6.025 27.875 5.085 39.869-2.493 9.105-5.753 15.624-14.814 18.182-25.276l1.617-6.613c3.808-15.572-7.983-30.594-24.014-30.594h-36.234z" fill="#c6c1c8"/><path d="m326.623 353.354-22.409 10.877c-2.238 1.086-4.504 2.104-6.794 3.055 10.995 2.836 22.807 1.074 32.597-5.111 8.664-5.474 14.985-13.943 17.782-23.765-6.122 6.022-13.247 11.095-21.176 14.944z" fill="#afaab4"/><path d="m255.991 332.077v7.904c0 5.29-3.058 10.102-7.847 12.348l-26.309 12.339c-12.845 6.025-27.875 5.085-39.869-2.493-9.105-5.753-15.624-14.814-18.182-25.276l-1.617-6.613c-3.808-15.572 7.983-30.594 24.014-30.594h36.234z" fill="#c6c1c8"/><path d="m290.211 364.715-26.358-12.363c-4.798-2.25-7.862-7.072-7.862-12.372 0 5.3-3.064 10.121-7.862 12.372l-26.358 12.363c-4.018 1.884-8.249 3.089-12.534 3.623 8.658 17.028 26.344 28.694 46.755 28.694s38.097-11.666 46.754-28.694c-4.286-.534-8.517-1.738-12.535-3.623z" fill="#afaab4"/><path d="m302.745 368.338c-1.805-.225-3.599-.569-5.373-1.032-15.462 6.411-32.059 9.726-48.846 9.726h-33.729c9.599 12.18 24.482 20 41.193 20 20.412 0 38.098-11.666 46.755-28.694z" fill="#a298a5"/><path d="m300.179 139.373c-3.361-2.42-8.05-1.656-10.468 1.708-8.475 11.779-14.001 25.604-15.982 39.978l-3.01 21.825c-.565 4.104 2.302 7.889 6.405 8.454 4.111.566 7.89-2.309 8.454-6.405l3.01-21.825c1.649-11.962 6.248-23.465 13.299-33.267 2.419-3.362 1.655-8.049-1.708-10.468z"/><path d="m226.403 204.933c.564 4.096 4.341 6.971 8.454 6.405 4.104-.565 6.971-4.351 6.405-8.454l-3.01-21.825c-1.981-14.374-7.508-28.198-15.982-39.978-2.418-3.363-7.106-4.127-10.468-1.708s-4.127 7.105-1.708 10.468c7.051 9.802 11.649 21.305 13.299 33.267z"/><path d="m464.587 33.741c-3.68-19.551-20.789-33.741-40.684-33.741-11.797 0-23.063 5.052-30.911 13.86l-80.99 90.911c-9.502-2.883-19.337-4.343-29.307-4.343h-17.739c-4.143 0-7.5 3.357-7.5 7.5s3.357 7.5 7.5 7.5h17.739c7.919 0 15.739 1.081 23.322 3.22.736 3.697 3.241 6.942 6.799 8.543 5.377 2.42 9.073 5.003 13.149 8.319.6.699 53.421 43.462 53.553 43.569 8.463 6.886 15.257 15.305 20.191 25.022 2.055 4.049 6.108 6.4 10.471 6.36 3.924 11.881 4.997 24.521 3.094 36.978l-.466 3.05c-.625 4.095 2.188 7.922 6.281 8.547 4.103.625 7.923-2.193 8.547-6.281l.466-3.05c2.519-16.492.649-33.252-5.403-48.735l2.11-3.145c10.235-15.259 14.153-34.205 10.859-52.262l24.163-61.489c10.503-26.726 4.756-49.296 4.756-50.333zm-18.715 44.847-24.968 63.536c-.536 1.363-.66 2.854-.358 4.287 3.305 15.722-.142 31.057-8.192 43.059l-1.957 2.917c-5.585-9.538-12.769-17.911-21.411-24.942l-46.422-37.768 11.719-13.155 19.219-4.404c5.544-1.27 11.229.674 14.836 5.072 2.626 3.204 7.353 3.67 10.555 1.045 3.203-2.626 3.671-7.352 1.045-10.555-6.954-8.482-17.76-12.417-28.462-10.456l3.311-3.717 17.535-4.037c7.401-1.703 14.993.883 19.814 6.752 1.483 1.805 3.633 2.739 5.8 2.739 6.264 0 9.831-7.343 5.792-12.261-7.823-9.523-19.805-14.121-31.834-12.396l30.511-34.248c1.104-1.24 3.168-.675 3.479.968.767 4.071 4.694 6.755 8.758 5.982 4.07-.767 6.749-4.688 5.982-8.758-1.513-8.033-8.544-13.864-16.719-13.864-4.851 0-9.481 2.077-12.702 5.696-10.162 11.407-68.578 76.978-80.382 90.227-2.592-1.845-5.307-3.512-8.127-4.988l81.499-91.482c5.003-5.615 12.188-8.837 19.71-8.837 12.686 0 23.597 9.049 25.943 21.517v-.001c2.661 14.136 1.287 28.684-3.974 42.072z"/><path d="m337.583 135.266 16.699-18.744 19.219-4.404c5.544-1.27 11.229.674 14.836 5.072 2.626 3.204 7.353 3.67 10.555 1.045 3.203-2.626 3.671-7.352 1.045-10.555-6.954-8.482-17.76-12.417-28.462-10.456l3.311-3.717 17.535-4.037c7.401-1.703 14.993.883 19.814 6.752 1.483 1.805 3.633 2.739 5.8 2.739 6.264 0 9.831-7.343 5.792-12.261-7.823-9.523-19.805-14.121-31.834-12.396l30.511-34.248c1.104-1.24 3.168-.675 3.479.968.767 4.071 4.694 6.755 8.758 5.982 4.07-.767 6.749-4.688 5.982-8.758-1.513-8.033-8.544-13.864-16.719-13.864-4.851 0-9.481 2.077-12.702 5.696-10.162 11.407-68.578 76.978-80.382 90.227l-5.115 5.741z"/><g><path d="m446.969 352.351-41.371-4.127c5.523-8.713 9.522-18.426 11.702-28.741l29.647-2.486c4.128-.346 7.193-3.973 6.847-8.101-.346-4.127-3.981-7.186-8.101-6.847l-25.919 2.174 2.463-16.121c.625-4.095-2.187-7.921-6.281-8.547-4.088-.622-7.92 2.187-8.547 6.281l-3.006 19.676-49.928 4.187c-5.372-10.41-16.113-17.506-28.676-17.506h-27.687c-1.168-2.989-3.551-5.34-6.636-6.463-22.884-8.333-48.089-8.332-70.973-.001-3.085 1.124-5.468 3.475-6.636 6.464h-27.687c-12.561 0-23.302 7.095-28.676 17.506l-49.928-4.187-8.871-58.072c-1.903-12.457-.83-25.096 3.094-36.978 4.304.04 8.391-2.26 10.472-6.359 4.935-9.719 11.729-18.138 20.191-25.023.101-.082 53.466-43.467 53.552-43.568 3.988-3.245 7.693-5.864 13.148-8.319 3.534-1.59 6.061-4.82 6.801-8.544 7.583-2.139 15.402-3.219 23.321-3.219 4.143 0 7.5-3.357 7.5-7.5s-3.357-7.5-7.5-7.5c-9.969 0-19.803 1.459-29.306 4.343l-80.988-90.913c-7.848-8.808-19.114-13.86-30.911-13.86-19.895 0-37.004 14.19-40.684 33.741 0 .819-5.701 23.724 4.754 50.333l24.163 61.488c-3.294 18.051.623 37.002 10.859 52.263l2.11 3.145c-6.052 15.483-7.922 32.243-5.403 48.735l8.328 54.517-25.918-2.174c-4.123-.339-7.755 2.719-8.101 6.847-.347 4.128 2.719 7.755 6.847 8.101l29.647 2.486c2.18 10.315 6.179 20.029 11.702 28.741l-41.371 4.127c-4.122.411-7.13 4.086-6.719 8.207s4.087 7.132 8.207 6.719l50.881-5.075c7.028 7.271 15.354 13.362 24.702 17.9l15.457 7.503c-2.611 17.826-11.175 34.174-24.443 46.465-3.039 2.815-3.221 7.561-.405 10.599 2.816 3.039 7.562 3.22 10.599.405 14.693-13.611 24.539-31.396 28.339-50.887 16.366 6.786 34.127 10.347 51.826 10.347h65.07c17.698 0 35.46-3.561 51.825-10.346 3.8 19.49 13.646 37.276 28.339 50.887 15.799 14.637 28.71 32.426 37.757 51.928h-98.544c7.401-4.655 14.296-10.343 20.525-16.994 2.831-3.023 2.676-7.77-.349-10.601-3.023-2.831-7.77-2.675-10.601.349-34.042 36.351-88.927 36.357-122.975 0-2.831-3.024-7.577-3.181-10.601-.349-3.024 2.831-3.18 7.577-.349 10.601 6.229 6.652 13.123 12.34 20.525 16.994h-98.55c4.313-9.318 9.491-18.229 15.463-26.596 2.406-3.372 1.624-8.056-1.747-10.462-3.371-2.404-8.054-1.626-10.462 1.747-8.853 12.402-16.108 25.902-21.564 40.124-1.877 4.891 1.728 10.185 7.002 10.185h323.541c5.243 0 8.89-5.266 7.002-10.187-9.829-25.619-25.694-49.045-45.88-67.745-13.268-12.292-21.832-28.638-24.442-46.465l15.457-7.503c9.348-4.538 17.674-10.629 24.702-17.9 54.402 5.427 51.057 5.114 51.634 5.114 3.808 0 7.068-2.888 7.454-6.757.411-4.12-2.596-7.795-6.719-8.206zm-355.533-205.94c.302-1.434.178-2.924-.358-4.287l-24.968-63.536c-5.261-13.388-6.635-27.936-3.975-42.072v.001c2.347-12.468 13.258-21.517 25.944-21.517 7.522 0 14.707 3.222 19.712 8.839l81.499 91.482c-2.819 1.476-5.535 3.143-8.127 4.988-11.804-13.25-70.22-78.82-80.382-90.227-3.221-3.619-7.852-5.696-12.702-5.696-8.175 0-15.206 5.831-16.719 13.864-.767 4.07 1.912 7.991 5.982 8.758 4.063.772 7.991-1.911 8.758-5.982.311-1.643 2.375-2.208 3.479-.968l30.511 34.248c-12.029-1.726-24.011 2.872-31.834 12.396-4.039 4.918-.472 12.261 5.792 12.261 2.167 0 4.316-.935 5.8-2.739 4.821-5.869 12.413-8.455 19.814-6.752l17.535 4.037 3.311 3.717c-10.703-1.961-21.509 1.974-28.462 10.456-2.626 3.203-2.158 7.929 1.045 10.555 3.202 2.625 7.928 2.159 10.555-1.045 3.606-4.398 9.292-6.342 14.836-5.072l19.219 4.404 11.719 13.155-46.422 37.768c-8.643 7.031-15.826 15.404-21.411 24.942l-1.957-2.917c-8.092-12.064-11.486-27.414-8.194-43.061zm189.139 151.533-24.584 23.712-24.584-23.712c16.043-4.621 33.125-4.621 49.168 0zm-170.137 22.86 43.509 3.649c.008 2.533.316 5.087.934 7.616 1.396 5.709 1.892 8.058 2.916 11.027l-34.25 3.417c-6-7.546-10.486-16.274-13.109-25.709zm60.606 56.68c-23.261-11.292-26.48-12.473-33.199-17.325l27.751-2.768c9.312 11.818 23.891 19.011 39.419 18.734 3.062 4.963 6.775 9.383 10.997 13.171-15.554-.98-30.962-5.013-44.968-11.812zm14.293-22.062 13.709-1.367c4.122-.411 7.13-4.086 6.719-8.207-.411-4.122-4.09-7.134-8.207-6.719l-24.222 2.416c-.958-2.042-1.72-4.193-2.266-6.429-1.701-6.954-1.919-7.54-2.064-9.401 30.852 2.587 28.928 2.439 29.402 2.439 3.857 0 7.137-2.959 7.465-6.873.347-4.128-2.719-7.755-6.847-8.101l-23.871-2.002c3.063-2.564 6.931-3.986 11.027-3.986h33.206l29.104 28.071v4.717c0 2.37-1.387 4.552-3.532 5.559l-26.309 12.34c-10.685 5.011-23.21 4.238-33.314-2.457zm35.867 17.637c2.77-1.029 1.764-.638 30.124-13.94 1.702-.798 3.265-1.812 4.663-2.998 1.398 1.186 2.961 2.2 4.663 2.998 28.159 13.208 27.441 12.944 30.124 13.941-17.914 21.983-51.691 21.943-69.574-.001zm45.819-27.52c-2.146-1.007-3.532-3.188-3.532-5.559v-4.717l29.104-28.071h33.206c4.097 0 7.964 1.422 11.027 3.986l-23.871 2.002c-4.128.346-7.193 3.973-6.847 8.101.344 4.105 3.944 7.19 8.101 6.847l28.766-2.412c-.073.93-.221 1.863-.447 2.788-1.62 6.624-2.066 9.167-3.884 13.041l-24.222-2.416c-4.119-.415-7.796 2.597-8.207 6.719-.411 4.121 2.597 7.796 6.719 8.207l13.709 1.367c-9.859 6.533-22.36 7.593-33.313 2.457zm96.301 21.079c.001 0 .001 0 0 0zm.023-.012c-4.054 1.968-5.607 2.722-5.817 2.824.348-.169 4.215-2.046 5.43-2.636-1.386.673-7.039 3.417-22.022 10.69-14.006 6.798-29.415 10.831-44.969 11.812 4.222-3.788 7.935-8.207 10.997-13.171 15.741.28 30.241-7.087 39.418-18.734l27.751 2.768c-3.372 2.436-6.977 4.598-10.788 6.447zm-.025.013c-.002.001-.004.002-.008.004.004-.002.007-.003.008-.004zm-.024.012c-.006.003-.014.007-.023.011.008-.004.016-.008.023-.011zm-.032.016c-.011.005-.024.012-.038.019.014-.008.027-.014.038-.019zm-.043.02c-.016.008-.034.017-.055.027.021-.01.039-.019.055-.027zm-.07.035c-.05.024-.111.054-.184.09.07-.035.132-.065.184-.09zm25.281-20.19-34.25-3.417c.498-1.443.932-2.915 1.299-4.414 1.609-6.582 2.536-9.468 2.552-14.228l43.509-3.649c-2.623 9.435-7.11 18.163-13.11 25.708z"/><path d="m357.531 369.43c-.001 0-.001.001-.002.001 0 0 .001 0 .002-.001z"/><path d="m357.529 369.431c-.01.005-.016.008-.02.01.004-.002.01-.005.02-.01z"/></g><path d="m298.624 254.897c0 4.143 3.357 7.5 7.5 7.5s7.5-3.357 7.5-7.5v-5.546c0-3.632 2.45-6.824 5.958-7.765l52.121-13.966c4.001-1.071 6.375-5.185 5.303-9.186-1.071-4.001-5.183-6.379-9.186-5.303l-52.121 13.966c-10.054 2.693-17.075 11.845-17.075 22.253z"/><path d="m205.858 262.397c4.143 0 7.5-3.357 7.5-7.5v-5.546c0-10.408-7.021-19.56-17.075-22.253l-52.121-13.966c-4.002-1.076-8.114 1.302-9.186 5.303s1.302 8.114 5.303 9.186l52.121 13.966c3.508.94 5.958 4.133 5.958 7.765v5.546c0 4.142 3.358 7.499 7.5 7.499z"/></g></svg>