<svg id="Capa_1" enable-background="new 0 0 512 512" height="512" viewBox="0 0 512 512" width="512" xmlns="http://www.w3.org/2000/svg"><g><path d="m150.173 137.633c10.202-14.36 25.895-23.656 43.133-25.853 3.063-.39 4.379-4.087 2.226-6.3l-75.942-78.062c-12.314-12.656-29.193-19.83-46.842-19.917-10.918-.054-19.891 8.539-19.94 19.457-.025 5.599 1.315 11.118 3.904 16.081l19.313 37.017v10.217c0 11.511 4.118 22.642 11.609 31.382l-3.26 17.387c-1.642 8.757-.097 17.813 4.355 25.531 4.741 8.217 4.954 18.286.566 26.697l-2.065 3.959c-1.626 3.116-2.252 6.658-1.794 10.143l2.595 19.724z" fill="#8b818e"/><path d="m459.188 26.567c-.169-10.617-8.99-19.067-19.609-19.067-17.767 0-34.778 7.184-47.167 19.919l-75.942 78.062c-2.153 2.213-.837 5.91 2.226 6.3 17.238 2.197 32.931 11.493 43.133 25.853l62.14 87.462 2.595-19.724c.458-3.485-.168-7.026-1.794-10.143l-2.065-3.959c-4.388-8.41-4.175-18.48.566-26.697 4.452-7.718 5.997-16.773 4.355-25.531l-3.26-17.387c7.491-8.74 11.609-19.871 11.609-31.382v-10.217l19.313-37.017c2.649-5.078 3.991-10.739 3.9-16.472z" fill="#756e78"/><path d="m373.796 439.571c-19.906-18.442-30.017-45.246-27.231-72.394l-37.385 28.321c-31.451 23.825-74.91 23.825-106.361 0l-37.384-28.32c2.786 27.148-7.325 53.952-27.231 72.393-19.14 17.732-34.341 39.821-43.974 64.929h323.54c-9.633-25.108-24.833-47.197-43.974-64.929z" fill="#fbf6ec"/><path d="m373.796 439.571c-19.906-18.442-30.017-45.246-27.231-72.394l-32.693 24.767c4.688 10.32 11.41 19.739 19.924 27.627 5.728 5.307 11.103 11.003 16.082 17.055 15.707 19.09 1.937 47.875-22.784 47.875h-223.687c-3.457 6.42-6.528 13.095-9.177 20h323.54c-9.633-25.109-24.833-47.198-43.974-64.93z" fill="#f9efda"/><path d="m423.968 225.095-62.14-87.462c-10.202-14.36-25.895-23.656-43.133-25.853-3.063-.39-4.379-4.087-2.226-6.3l11.796-12.125c-9.261-4.85-19.687-7.495-30.467-7.495h-83.594c-10.78 0-21.206 2.645-30.467 7.495l11.796 12.125c2.153 2.213.837 5.91-2.226 6.3-17.238 2.196-32.931 11.493-43.133 25.853l-62.14 87.461-.001-.006-12.007 18.462 2.048 5.587c17.19 46.882 47.49 87.837 87.292 117.989l37.453 28.372c31.451 23.826 74.91 23.826 106.361 0l37.453-28.372c39.803-30.152 70.103-71.107 87.292-117.989l2.048-5.587-12.005-18.461z" fill="#fbf6ec"/><path d="m423.969 225.088-.001.006-62.141-87.462c-10.202-14.359-25.895-23.656-43.133-25.853-3.063-.39-4.379-4.087-2.226-6.3l11.796-12.125c-9.261-4.85-19.687-7.495-30.467-7.495h-21.653c-1.676 2.232-.343 5.551 2.551 5.92 17.238 2.196 32.931 11.493 43.133 25.853l62.14 87.462.001-.006 8.762 13.473c2.042 3.14 2.485 7.058 1.195 10.575-17.19 46.882-47.49 87.837-87.292 117.989l-37.453 28.372c-20.967 15.883-47.27 21.178-71.795 15.884l5.433 4.116c31.451 23.826 74.91 23.826 106.361 0l37.453-28.372c39.803-30.152 70.103-71.107 87.292-117.989l2.048-5.587z" fill="#f9efda"/><path d="m281.215 311.852h16.539c8.782 0 17.205 3.489 23.415 9.699 7.151 7.151 8.741 18.157 3.907 27.04-3.995 7.34-11.683 11.909-20.04 11.909h-26.967c-6.842 0-13.434-2.574-18.465-7.212l-3.604-3.323v-12.899z" fill="#a298a5"/><path d="m230.785 311.852h-16.539c-8.782 0-17.205 3.489-23.415 9.699-7.151 7.151-8.741 18.157-3.907 27.04 3.995 7.34 11.683 11.909 20.04 11.909h26.967c6.842 0 13.434-2.574 18.465-7.212l3.605-3.323v-12.899z" fill="#a298a5"/><path d="m278.069 360.5c-6.842 0-13.434-2.574-18.465-7.212l-3.604-3.323-3.605 3.323c-5.031 4.637-11.622 7.212-18.465 7.212h-16.563c8.767 7.321 17.928 14.209 27.456 20.631 6.755 4.553 15.597 4.553 22.352 0l2.659-1.792c8.73-5.884 17.143-12.173 25.213-18.839z" fill="#756e78"/><path d="m386.787 237.564c4.078-9.346-.558-20.196-10.131-23.709l-59.703-21.909c-7.846-2.879-13.648-9.606-15.345-17.79l-6.489-31.296c-1.859-8.969-9.76-15.4-18.92-15.4h-40.398c-9.159 0-17.06 6.431-18.92 15.399l-6.489 31.296c-1.697 8.183-7.499 14.91-15.345 17.79l-59.706 21.911c-9.571 3.512-14.206 14.36-10.129 23.704 14.891 34.126 35.299 65.351 60.245 92.504 1.108-3.132 2.911-6.051 5.374-8.514 6.21-6.21 14.633-9.699 23.415-9.699h16.539l25.215 25.215 25.215-25.215h16.539c8.782 0 17.205 3.489 23.415 9.699 2.587 2.587 4.446 5.678 5.536 8.99 24.37-26.395 44.293-56.795 58.8-90.042z" fill="#8b818e"/><path d="m256 337.067-25.215-25.215c-2.892-2.892-1.709-7.819 2.181-9.083 14.971-4.864 31.097-4.864 46.068 0 3.89 1.264 5.073 6.191 2.181 9.083z" fill="#665e66"/><path d="m354.71 224.758c-1.072-4.001-5.187-6.378-9.186-5.303l-45.488 12.188c-9.191 2.461-15.61 10.826-15.61 20.342v4.841c0 4.143 3.358 7.5 7.5 7.5s7.5-3.357 7.5-7.5v-4.841c0-2.738 1.847-5.145 4.492-5.854l45.488-12.188c4.001-1.071 6.376-5.184 5.304-9.185z"/><path d="m220.074 264.326c4.142 0 7.5-3.357 7.5-7.5v-4.841c0-9.516-6.419-17.881-15.61-20.342l-45.488-12.188c-3.997-1.074-8.113 1.302-9.186 5.303-1.072 4.001 1.303 8.114 5.304 9.186l45.489 12.188c2.645.709 4.491 3.115 4.491 5.854v4.841c0 4.142 3.358 7.499 7.5 7.499z"/><path d="m466.687 26.448c-.231-14.584-12.393-26.448-27.109-26.448-19.674 0-38.825 8.088-52.543 22.189l-60.407 62.093c-9.084-3.886-18.944-5.922-28.831-5.922h-11.653c-4.142 0-7.5 3.357-7.5 7.5s3.358 7.5 7.5 7.5h11.653c5.896 0 11.781.911 17.401 2.67-.431.443-3.564 3.664-4.105 4.221-6.393 6.393-2.692 17.78 6.654 18.969 15.232 1.941 29.07 10.235 37.967 22.757 72.18 101.593 58.846 82.399 71.927 102.516-10.558 28.797-24.698 54.173-44.873 78.088l-38.698-.513c.073-.089.147-.177.22-.266 2.637-3.195 2.185-7.922-1.01-10.559-3.195-2.639-7.922-2.183-10.558 1.01-1.552 1.881-3.137 3.755-4.746 5.614-6.965-8.079-18.082-13.514-30.222-13.514h-7.951c-1.199-4.141-4.32-7.374-8.451-8.716-16.585-5.388-34.119-5.39-50.703 0-4.132 1.342-7.252 4.575-8.452 8.716h-7.951c-11.878 0-22.83 5.193-29.92 13.17-21.506-24.886-39.057-52.75-52.24-82.961-2.344-5.373.297-11.63 5.839-13.664l59.706-21.91c10.352-3.798 17.868-12.512 20.105-23.309l6.489-31.296c1.088-5.245 5.717-9.422 11.775-9.422v21.644c0 4.143 3.358 7.5 7.5 7.5s7.5-3.357 7.5-7.5v-21.645h10v21.644c0 4.143 3.358 7.5 7.5 7.5s7.5-3.357 7.5-7.5v-21.644c6.033 0 10.683 4.153 11.775 9.422l6.489 31.296c2.239 10.797 9.755 19.511 20.105 23.309l59.706 21.91c5.514 2.024 8.196 8.263 5.839 13.663-7.191 16.486-14.864 31.796-26.388 49.426-2.266 3.467-1.293 8.115 2.174 10.381 3.468 2.268 8.115 1.294 10.381-2.174 12.025-18.395 20.075-34.432 27.581-51.633 5.797-13.285-.808-28.749-14.418-33.745l-59.707-21.91c-5.449-1.999-9.406-6.587-10.585-12.271l-6.489-31.296c-2.568-12.387-13.613-21.377-26.264-21.377h-40.398c-12.649 0-23.695 8.99-26.264 21.377l-6.489 31.296c-1.178 5.685-5.135 10.271-10.585 12.271l-59.706 21.91c-13.607 4.995-20.218 20.457-14.419 33.745 12.865 29.482 29.707 56.828 50.176 81.5l-39.28.521c-20.175-23.914-34.315-49.291-44.873-78.088 13.083-20.119-.252-.924 71.927-102.516 8.896-12.521 22.735-20.815 37.965-22.756 9.203-1.172 13.113-12.334 6.655-18.97l-4.105-4.221c5.621-1.759 11.505-2.67 17.401-2.67h36.94c4.142 0 7.5-3.357 7.5-7.5s-3.358-7.5-7.5-7.5h-36.94c-9.886 0-19.747 2.036-28.83 5.922l-22.186-22.805c-2.888-2.97-7.636-3.034-10.606-.146-2.969 2.889-3.034 7.637-.146 10.605l32.78 33.695c-3.641.857-7.194 2.002-10.628 3.416-11.597-11.92-59.813-61.482-67.541-69.426-6.907-7.101-16.112-12.01-25.919-13.823-4.074-.751-7.986 1.938-8.739 6.011s1.938 7.986 6.011 8.739c6.779 1.254 13.134 4.639 17.895 9.532l22.998 23.64c-11.951 1.432-22.594 9.062-27.589 20.507-2.171 4.976 1.51 10.502 6.87 10.502 2.892 0 5.647-1.683 6.878-4.502 3.56-8.159 12.182-12.894 20.983-11.515l8.782 1.376 5.757 5.918c-10.419.882-19.794 7.38-24.12 17.29-1.657 3.797.078 8.217 3.874 9.874 3.788 1.652 8.213-.068 9.874-3.874 2.542-5.825 8.708-9.201 14.984-8.223l11.853 1.858 3.496 3.594c-6.483 4.548-12.214 10.199-16.877 16.762l-51.082 71.896-.104-.793c-.259-1.967.089-3.936 1.007-5.695l2.065-3.958c5.604-10.742 5.335-23.42-.719-33.914-3.555-6.163-4.791-13.407-3.48-20.4l3.26-17.387c.419-2.233-.198-4.537-1.677-6.263-6.322-7.376-9.803-16.787-9.803-26.501v-10.215c0-1.208-.292-2.398-.851-3.469l-19.312-37.018c-2.018-3.868-3.074-8.218-3.054-12.578.029-6.504 5.307-11.991 12.403-11.991 15.54.076 30.667 6.509 41.502 17.647l12.517 12.865c2.889 2.97 7.636 3.035 10.605.146s3.034-7.637.146-10.605l-12.516-12.865c-13.624-14.004-32.643-22.091-52.179-22.188-15.449 0-27.41 12.134-27.478 26.923-.031 6.79 1.613 13.563 4.755 19.584l18.463 35.388v8.378c0 12.056 3.92 23.772 11.104 33.378l-2.626 14.009c-1.971 10.509-.113 21.397 5.23 30.66 3.478 6.027 3.632 13.31.413 19.48l-2.065 3.957c-2.351 4.507-3.244 9.552-2.581 14.591l2.233 16.972-10.496 16.14c-1.288 1.98-1.567 4.453-.754 6.671l2.048 5.586c9.436 25.735 22.653 49.668 39.145 71.115l-30.494.405c-4.142.055-7.455 3.457-7.4 7.599.055 4.107 3.402 7.4 7.498 7.4 3.693 0-14.253.189 42.682-.566 5.949 6.679 12.241 13.069 18.859 19.145l-35.638 8.966c-4.017 1.011-6.454 5.086-5.443 9.104.856 3.402 3.912 5.672 7.268 5.672 1.319 0-2.56.877 47.766-11.784.98.784 1.966 1.561 2.959 2.331 1.457 23.577-7.801 46.913-25.127 62.964-20.186 18.701-36.05 42.127-45.879 67.745-1.879 4.894 1.731 10.186 7.002 10.186h323.541c5.241 0 8.892-5.262 7.002-10.187-9.83-25.619-25.695-49.045-45.88-67.745-17.326-16.05-26.584-39.387-25.126-62.964.992-.771 1.978-1.548 2.958-2.331l45.93 11.556c4.051 1.017 8.101-1.458 9.104-5.443 1.011-4.018-1.427-8.093-5.443-9.104l-35.638-8.966c6.618-6.076 12.911-12.467 18.859-19.145l42.581.565c3.979.114 7.543-3.157 7.599-7.399.055-4.142-3.258-7.544-7.4-7.599l-30.494-.405c16.491-21.447 29.709-45.38 39.145-71.115l2.048-5.586c.813-2.218.534-4.69-.754-6.671l-10.496-16.14 2.233-16.972c.663-5.039-.229-10.084-2.581-14.59l-2.065-3.958c-3.219-6.171-3.065-13.453.413-19.48 5.343-9.263 7.201-20.151 5.23-30.66l-2.626-14.009c7.184-9.605 11.104-21.322 11.104-33.378v-8.378l18.463-35.388c3.218-6.167 4.86-13.104 4.75-20.06zm-162.035 363.071c-26.704 20.231-63.154 21.544-91.101 4.256-4.263-2.638-2.675-1.583-39.743-29.664l13.452-3.384c5.402 4.62 12.354 7.273 19.704 7.273h7.701c8.327 6.84 17.052 13.342 25.967 19.351 9.336 6.29 21.397 6.293 30.734.001 9.047-6.095 16.631-11.45 26.361-19.352h7.309c7.35 0 14.302-2.653 19.704-7.273l13.452 3.384zm-48.652-29.428c5.016 4.129 11.043 6.746 17.44 7.6-4.382 3.15-7.317 5.105-10.456 7.219-4.242 2.86-9.725 2.859-13.968 0-3.47-2.338-6.91-4.755-10.306-7.239 6.341-.875 12.313-3.483 17.29-7.58zm59.866-33.237c5.206 5.205 6.35 14.016.785 20.813-2.874 3.347-7.096 5.332-11.615 5.332-9.059 0-15.62 0-26.967 0-4.973 0-9.726-1.856-13.382-5.226l-1.188-1.095v-6.505l20.822-20.822h13.432c6.842.001 13.275 2.665 18.113 7.503zm-42.353-17.908-17.513 17.514-17.513-17.514c11.52-3.131 23.504-3.131 35.026 0zm-59.267 10.406h13.432l20.822 20.822v6.505l-1.187 1.094c-3.657 3.37-8.41 5.227-13.382 5.227h-26.967c-4.289 0-8.476-1.726-11.756-5.498-5.152-6.175-4.541-15.18.926-20.646 4.838-4.84 11.271-7.504 18.112-7.504zm-71.464 18.049 33.914-.45c-.093 3.554.431 7.134 1.598 10.563l-19.333 4.864c-5.623-4.768-11.019-9.765-16.179-14.977zm225.917 107.671c15.799 14.637 28.71 32.426 37.757 51.928h-98.545c7.402-4.655 14.297-10.343 20.525-16.994 2.831-3.023 2.675-7.77-.348-10.601-3.023-2.83-7.77-2.676-10.601.349-34.04 36.351-88.927 36.357-122.974 0-2.832-3.024-7.578-3.18-10.601-.349s-3.179 7.577-.348 10.601c6.229 6.652 13.123 12.34 20.524 16.994h-98.544c9.046-19.501 21.958-37.291 37.756-51.928 17.6-16.305 28.206-38.923 29.856-62.637l25.134 19.04c33.981 25.743 81.443 25.738 115.419.001l25.135-19.041c1.649 23.713 12.255 46.333 29.855 62.637zm-15.66-92.694-19.333-4.864c1.166-3.429 1.69-7.009 1.597-10.563l33.914.45c-5.159 5.212-10.555 10.209-16.178 14.977zm95.599-312.808-19.313 37.018c-.559 1.07-.851 2.261-.851 3.469v10.217c0 9.714-3.481 19.125-9.803 26.501-1.479 1.726-2.096 4.029-1.677 6.263l3.26 17.387c1.311 6.993.075 14.237-3.479 20.4-6.055 10.494-6.324 23.172-.719 33.914l2.065 3.959c.918 1.759 1.266 3.728 1.007 5.694l-.104.794-51.082-71.896c-4.663-6.563-10.394-12.214-16.877-16.762l3.496-3.594 11.853-1.858c6.278-.979 12.441 2.397 14.983 8.223 1.662 3.808 6.087 5.525 9.874 3.874 3.796-1.657 5.531-6.077 3.874-9.874-4.325-9.909-13.701-16.408-24.119-17.29l5.757-5.917 8.783-1.376c8.789-1.373 17.422 3.355 20.982 11.515 1.231 2.819 3.986 4.502 6.878 4.502 5.365 0 9.04-5.53 6.87-10.502-4.995-11.445-15.638-19.076-27.588-20.508l22.997-23.639c4.761-4.894 11.115-8.278 17.893-9.531 4.073-.753 6.765-4.665 6.012-8.738-.752-4.073-4.67-6.76-8.738-6.012-9.806 1.813-19.011 6.721-25.919 13.822-.109.112-2.337 2.403-67.54 69.426-3.434-1.414-6.988-2.559-10.629-3.416l71.002-72.983c10.912-11.219 26.144-17.652 41.793-17.652 6.575 0 12.008 5.242 12.11 11.687.071 4.466-.984 8.921-3.051 12.883z"/></g></svg>