<svg id="Capa_1" enable-background="new 0 0 512.004 512.004" height="512" viewBox="0 0 512.004 512.004" width="512" xmlns="http://www.w3.org/2000/svg"><g><path d="m411.618 221.979 1.311-5.75c1.621-7.107 1.624-14.35.155-21.25l5.638-7.405c7.782-10.22 12.033-22.686 12.121-35.524 14.924 6.46 27.986 16.718 37.827 29.842l13.917 18.559-31.729-11.227 1.523 1.994c12.115 15.869 19.85 34.641 22.433 54.438l.939 7.198-26.11-20.675.125.462c3.62 13.344 4.568 27.271 2.791 40.982l-2.916 22.502-4.756-5.815c-7.514-9.187-17.148-16.18-27.899-20.503l1.042 2.328c3.795 8.475 6.084 17.548 6.763 26.809l.804 10.972-5.001-4.775c-9.619-9.185-21.137-16.073-33.69-20.211 11.3-19.559 19.652-40.769 24.712-62.951z" fill="#ffead8"/><path d="m445.585 29.998c-3.1-14.347-16.584-23.996-31.163-22.301-10.491 1.22-20.175 6.229-27.232 14.086l-17.932 19.964c-7.364 18.927-18.287 46.976-26.539 68.052-1.922 4.908-.185 10.483 4.173 13.448 7.319 4.98 14.255 10.557 20.732 16.691l31.119 29.467c7.382 6.99 12.294 15.948 14.342 25.572l5.638-7.405c7.865-10.329 12.124-22.952 12.124-35.935v-1.954l5.922-14.804c13.32-33.301 16.39-69.822 8.816-104.881z" fill="#efa5c3"/><path d="m66.42 29.998c3.1-14.347 16.584-23.996 31.163-22.301 10.491 1.22 20.175 6.229 27.232 14.086l17.932 19.964c7.364 18.927 18.287 46.976 26.54 68.052 1.922 4.908.185 10.483-4.173 13.448-7.319 4.98-14.255 10.557-20.732 16.691l-31.119 29.467c-7.382 6.99-12.294 15.948-14.342 25.572l-5.638-7.405c-7.865-10.329-12.124-22.952-12.124-35.935v-1.954l-5.922-14.804c-13.322-33.301-16.392-69.822-8.817-104.881z" fill="#f9c6da"/><path d="m227.676 271.662c.385-1.13 1.259-2.1 2.531-2.54 16.711-5.781 34.88-5.781 51.59 0 1.273.44 2.147 1.41 2.531 2.54.461 1.354.219 2.938-.883 4.116l-27.444 29.328-27.444-29.328c-1.101-1.179-1.342-2.762-.881-4.116z" fill="#efa5c3"/><path d="m100.387 221.979-1.311-5.75c-1.621-7.107-1.624-14.35-.155-21.25l-5.638-7.405c-7.782-10.22-12.033-22.686-12.121-35.524-14.924 6.46-27.986 16.718-37.827 29.842l-13.917 18.559 31.729-11.227-1.523 1.994c-12.115 15.869-19.85 34.641-22.433 54.438l-.939 7.198 26.11-20.675-.125.462c-3.62 13.344-4.568 27.271-2.791 40.982l2.916 22.502 4.756-5.815c7.514-9.187 17.148-16.18 27.899-20.503l-1.042 2.328c-3.795 8.475-6.084 17.548-6.763 26.809l-.804 10.972 5.001-4.775c9.619-9.185 21.137-16.073 33.69-20.211-11.301-19.559-19.653-40.769-24.712-62.951z" fill="#ffead8"/><path d="m284.329 271.662c.461 1.354.219 2.938-.883 4.116l-27.444 29.328-27.444-29.328c-1.102-1.178-1.344-2.762-.883-4.116-32.365 3.516-56.884 14.075-56.884 36.667 0 28.846 79.02 63.824 85.21 63.824 6.191 0 85.21-34.978 85.21-63.824.001-22.592-24.517-33.151-56.882-36.667z" fill="#ffead8"/><path d="m308.369 276.111c1.85 3.612 2.843 7.672 2.843 12.218 0 22.352-47.443 48.384-71.687 58.974-8.052 3.517-17.182 3.66-25.307.315-7.051-2.903-16.355-7.055-25.294-12.022 23.724 19.847 62.798 36.558 67.077 36.558 6.191 0 85.21-34.978 85.21-63.824.001-16.53-13.123-26.618-32.842-32.219z" fill="#ffe2cb"/><path d="m410.917 480.155c-6.672-33.711-23.781-63.128-47.566-85.164-16.731-15.5-25.868-37.481-25.196-60.212-3.551.882-7.228 1.34-10.956 1.34h-4.751c-23.779 19.616-62.204 36.033-66.445 36.033s-42.666-16.418-66.445-36.033h-4.757c-3.727 0-7.401-.458-10.95-1.339.672 22.73-8.465 44.712-25.196 60.211-23.785 22.035-40.894 51.453-47.566 85.164l-4.819 24.349h319.467z" fill="#f4d8bc"/><path d="m216.28 424.153 4.89-4.512v2.218c0 12.862-4.107 25.388-11.722 35.753l-5.387 7.332h1.924c17.088 0 33.619-6.071 46.645-17.13l3.371-2.862s3.371 2.862 3.371 2.862c13.026 11.059 29.558 17.13 46.645 17.13h1.924l-5.387-7.332c-7.615-10.365-11.722-22.891-11.722-35.753v-2.218l4.89 4.512c11.574 10.677 28.287 13.679 42.852 7.696l3.891-1.598-.637-.496c-13.757-10.705-24.21-25.08-30.155-41.467l-13.017-35.883c-19.803 11.633-39.676 19.746-42.657 19.746s-22.854-8.113-42.657-19.746l-13.017 35.883c-5.945 16.387-16.397 30.761-30.155 41.467l-.637.496 3.891 1.598c14.569 5.984 31.282 2.982 42.856-7.696z" fill="#ffead8"/><path d="m410.917 480.155c-6.672-33.711-23.781-63.128-47.566-85.164-16.731-15.5-25.868-37.481-25.196-60.212-3.551.882-7.228 1.34-10.956 1.34h-4.751c-5.355 4.417-11.453 8.672-17.735 12.615 4.287 9.829 10.582 18.795 18.638 26.258 23.785 22.035 40.895 51.453 47.566 85.164 2.495 12.606-7.152 24.349-20.002 24.349h-250.688l-3.958 20h319.467z" fill="#efc89d"/><path d="m398.742 169.406-31.119-29.467c-6.478-6.134-13.414-11.711-20.733-16.692-4.358-2.965-6.095-8.539-4.173-13.448 8.252-21.076 19.176-49.125 26.54-68.052l-51.301 57.114c-3.382 3.766-8.661 5.201-13.478 3.646-5.077-1.638-10.243-3.035-15.483-4.181-21.738-4.755-44.247-4.755-65.984 0-5.24 1.146-10.406 2.543-15.483 4.181-4.817 1.554-10.095.119-13.478-3.646l-51.301-57.114c7.364 18.927 18.287 46.976 26.54 68.052 1.922 4.908.185 10.482-4.173 13.448-7.319 4.98-14.255 10.558-20.733 16.692l-31.119 29.467c-12.675 12.002-18.069 29.805-14.188 46.823l1.312 5.75c8.324 36.496 25.561 70.362 50.17 98.569 8.631 9.894 21.114 15.571 34.243 15.571h4.757c-10.929-9.016-18.765-18.707-18.765-27.79 0-22.592 24.518-33.151 56.884-36.667.385-1.13 1.259-2.1 2.531-2.54 16.711-5.781 34.88-5.781 51.59 0 1.273.44 2.147 1.41 2.531 2.54 32.365 3.516 56.884 14.075 56.884 36.667 0 9.083-7.836 18.775-18.765 27.79h4.751c13.13 0 25.618-5.678 34.249-15.571 24.609-28.208 41.846-62.073 50.17-98.57l1.311-5.75c3.882-17.018-1.513-34.821-14.187-46.822z" fill="#f4d8bc"/><path d="m398.742 169.406-31.119-29.467c-6.478-6.134-13.414-11.711-20.733-16.692-4.358-2.965-6.095-8.539-4.173-13.448 8.252-21.076 19.176-49.125 26.54-68.052l-51.301 57.114c-2.908 3.238-7.219 4.753-11.432 4.125.12.089.242.176.367.261 7.319 4.98 14.255 10.558 20.733 16.692l31.119 29.467c12.675 12.002 18.069 29.804 14.187 46.823l-1.311 5.75c-7.103 31.141-20.694 60.365-39.817 85.795 5.984 5.344 9.412 12.108 9.412 20.556 0 9.083-7.836 18.775-18.765 27.79h4.751c13.13 0 25.618-5.678 34.249-15.571 24.609-28.208 41.846-62.073 50.17-98.57l1.311-5.75c3.881-17.019-1.514-34.822-14.188-46.823z" fill="#efc89d"/><path d="m304.478 102.507c-5.077-1.638-10.243-3.034-15.483-4.181-21.738-4.755-44.247-4.755-65.984 0-5.24 1.146-10.406 2.543-15.483 4.181l48.475 60.358c-.001 0 32.381-44.204 48.475-60.358z" fill="#a298a5"/><path d="m31.918 207.522 10.874-3.848c-6.724 12.744-11.165 26.644-13.04 41.012l-.939 7.199c-.395 3.026 1.084 5.991 3.741 7.495 2.656 1.506 5.959 1.25 8.352-.646l10.581-8.379c-.702 8.035-.531 16.135.519 24.232l2.917 22.501c.385 2.969 2.499 5.425 5.377 6.247 2.878.824 5.97-.145 7.866-2.463 5.052-6.175 7.692-9.755 13.258-14.354-1.58 7.398-1.707 12.068-2.497 22.848-.32 4.369 3.152 8.048 7.478 8.048 1.891 0 3.756-.715 5.182-2.076l5-4.775c7.294-6.965 15.946-12.579 25.281-16.441 6.786 11.057 14.49 21.557 23.038 31.356 5.86 6.717 13.243 11.765 21.41 14.809-.826 18.716-8.954 36.415-22.758 49.202-10.004 9.269-18.841 19.754-26.264 31.165-2.258 3.473-1.274 8.118 2.198 10.377 3.457 2.248 8.108 1.29 10.376-2.197 6.749-10.376 14.785-19.911 23.884-28.341 16.083-14.899 25.802-35.299 27.399-57 2.151.149 3.482.126 5.743.126 22.758 18.03 61.552 36.033 69.109 36.033 7.471 0 46.125-17.824 69.109-36.033 2.255 0 3.59.023 5.743-.129 1.597 21.701 11.315 42.102 27.399 57.003 23.433 21.708 39.1 49.759 45.306 81.118l3.046 15.393h-301.207c3.155-15.943 4.577-25.031 9.549-38.469 1.437-3.885-.547-8.199-4.432-9.637-3.883-1.437-8.199.548-9.636 4.432-3.036 8.208-5.441 16.743-7.149 25.369l-4.819 24.349c-.915 4.626 2.625 8.956 7.357 8.956h319.467c4.717 0 8.276-4.314 7.357-8.956l-4.819-24.349c-6.826-34.486-24.055-65.335-49.827-89.21-13.811-12.795-21.94-30.505-22.759-49.23 7.237-2.703 13.883-6.967 19.344-12.545 2.898-2.96 2.848-7.708-.112-10.606-2.959-2.897-7.708-2.848-10.606.112-3.265 3.335-7.122 6.014-11.323 7.936 3.807-5.783 5.72-11.399 5.72-16.828 0-16.614-10.562-37.497-60.252-43.734-1.183-1.127-2.61-2.007-4.211-2.561-18.216-6.301-38.279-6.301-56.496 0-1.6.554-3.028 1.434-4.21 2.561-49.69 6.237-60.252 27.121-60.252 43.734 0 5.438 1.92 11.065 5.741 16.859-4.852-2.217-9.237-5.457-12.826-9.57-16.262-18.64-29.26-39.996-38.41-62.918 4.996-13.925 11.372-27.396 18.973-40.081l2.056-3.432c2.128-3.554.974-8.16-2.58-10.288-3.553-2.131-8.159-.973-10.288 2.579-5.555 9.273-10.153 17.274-15.562 29.422-1.74-6.177-2.58-10.072-4.009-16.34-3.276-14.363 1.334-29.579 12.032-39.708l31.119-29.467c6.145-5.819 12.805-11.182 19.794-15.938 7.3-4.967 10.153-14.171 6.938-22.383-3.726-9.517-7.953-20.343-11.595-29.682l23.793 26.489c4.105 4.571 9.988 6.968 15.942 6.734l3.854 4.799c-.562.722-1 1.56-1.273 2.491l-1.235 4.205c-3.763 12.814-4.088 26.449-.941 39.431l.752 3.102c.833 3.431 3.901 5.733 7.283 5.733 4.869 0 8.437-4.56 7.294-9.271l-.752-3.101c-2.291-9.449-2.291-19.329-.02-28.76l30.78 38.325c3.079 3.833 8.978 3.722 11.898-.264.222-.303 15.643-21.322 30.247-39.368 2.595 9.821 2.707 20.18.31 30.066l-.752 3.102c-.977 4.025 1.495 8.081 5.521 9.058 4.04.976 8.082-1.506 9.057-5.521l.753-3.103c3.147-12.98 2.821-26.615-.941-39.43l-1.267-4.313c-.337-1.147-.924-2.152-1.684-2.974 1.332-1.514 2.612-2.933 3.823-4.232 6.114.384 12.202-2.017 16.417-6.708l23.792-26.488c-3.471 8.901-7.774 19.923-11.594 29.681-3.215 8.212-.362 17.416 6.937 22.382 6.992 4.759 13.652 10.121 19.795 15.938l31.119 29.467c10.698 10.129 15.308 25.345 12.032 39.708-1.43 6.269-2.271 10.168-4.006 16.347-5.236-11.76-9.811-19.824-15.565-29.429-2.129-3.552-6.734-4.71-10.288-2.579-3.554 2.128-4.708 6.734-2.58 10.288l2.056 3.433c7.608 12.695 13.988 26.178 18.986 40.116-5.131 12.874-11.488 25.244-18.996 36.973-2.233 3.489-1.216 8.127 2.273 10.36 3.488 2.234 8.126 1.217 10.36-2.272.778-1.216 1.544-2.438 2.299-3.666 9.329 3.861 17.974 9.473 25.264 16.433l5 4.775c2.25 2.15 5.585 2.678 8.379 1.359 2.806-1.323 4.507-4.237 4.28-7.331-.795-10.853-.945-15.578-2.497-22.848 5.56 4.593 8.207 8.178 13.258 14.354 1.895 2.317 4.986 3.288 7.866 2.463 2.879-.822 4.992-3.278 5.377-6.247l2.917-22.501c1.049-8.099 1.221-16.197.519-24.232l10.581 8.379c2.394 1.896 5.696 2.151 8.352.646 2.656-1.504 4.136-4.469 3.741-7.495l-.939-7.2c-1.875-14.367-6.315-28.267-13.04-41.011l10.874 3.848c3.116 1.101 6.587.034 8.545-2.629 1.958-2.664 1.94-6.296-.043-8.941l-13.917-18.559c-9.276-12.372-21.3-22.472-35.036-29.487l4.096-10.24c13.928-34.817 17.104-72.597 9.185-109.251-3.935-18.211-20.86-30.32-39.36-28.167-12.315 1.431-23.661 7.3-31.947 16.524-21.437 23.868-66.167 73.666-69.23 77.077-1.397 1.553-3.568 2.15-5.549 1.535-33.994-11.138-70.104-10.475-101.674.007-1.975.607-4.134.006-5.525-1.542-4.098-4.562-38.948-43.361-69.233-77.077-8.287-9.225-19.632-15.094-31.946-16.525-18.503-2.148-35.427 9.956-39.361 28.167-5.305 24.554-5.644 49.522-1.008 74.212.676 3.604 3.825 6.117 7.363 6.117 4.698 0 8.248-4.263 7.379-8.885-4.265-22.716-3.953-45.687.928-68.276 2.295-10.626 12.172-17.7 22.967-16.435 8.681 1.008 16.678 5.145 22.519 11.647l17.017 18.945c2.759 7.092 5.908 15.179 9.183 23.585-10.52-4.992-22.094-7.64-33.916-7.641-4.136 0-7.5 3.351-7.501 7.499 0 4.143 3.357 7.501 7.499 7.501 15.481.002 30.437 5.603 42.111 15.77l1.25 1.089c.306.785.612 1.567.916 2.345-12.231-3.701-25.308-4.435-37.922-2.015-4.068.78-6.732 4.711-5.952 8.778.781 4.068 4.712 6.738 8.779 5.952 13.566-2.599 28.118-.853 41.773 6.134-.205.913-.751 1.745-1.58 2.308-7.652 5.207-14.943 11.077-21.669 17.446l-31.119 29.467c-4.719 4.469-8.566 9.666-11.457 15.316-5.059-8.045-7.991-17.67-7.991-27.636 0-1.958.109-3.126-.536-4.739l-5.922-14.803c-1.539-3.846-5.902-5.716-9.749-4.179-3.846 1.538-5.717 5.903-4.179 9.749l4.096 10.24c-13.736 7.015-25.76 17.115-35.036 29.486l-13.917 18.56c-1.983 2.646-2.001 6.277-.043 8.941s5.428 3.73 8.546 2.63zm242.308 67.132-18.224 19.475-18.224-19.475c11.912-3.135 24.536-3.134 36.448 0zm-51.979 5.249c.566.758-1.589-1.592 26.255 28.163v2.842c0 .893-.442 1.724-1.182 2.223-6.657 4.486-14.418 6.858-22.447 6.858h-1.912c-4.142 0-7.5 3.357-7.5 7.5s3.358 7.5 7.5 7.5h1.912c11.782 0 22.898-3.837 31.129-9.627 8.409 5.915 19.558 9.627 31.128 9.627h1.912c4.142 0 7.5-3.357 7.5-7.5s-3.358-7.5-7.5-7.5h-1.912c-8.028 0-15.79-2.372-22.446-6.858-.741-.499-1.183-1.33-1.183-2.223v-2.842c27.643-29.539 25.694-27.411 26.256-28.163 21.332 3.074 43.954 10.549 43.954 28.426 0 8.68-13.099 21.885-35.04 35.325-18.857 11.552-37.812 19.503-42.67 20.876-4.858-1.373-23.813-9.324-42.67-20.876-21.94-13.44-35.04-26.646-35.04-35.325.001-17.877 22.624-25.352 43.956-28.426zm239.434-94.805-8.32-2.944c-3.127-1.104-6.611-.026-8.565 2.655-1.953 2.683-1.912 6.33.103 8.967l1.522 1.993c8.883 11.636 15.261 24.991 18.754 39.143l-10.875-8.612c-2.539-2.011-6.082-2.165-8.786-.381s-3.957 5.102-3.108 8.227c3.469 12.763 4.411 25.44 2.716 38.515l-.782 6.036c-7.082-6.774-15.434-12.181-24.553-15.848-2.837-1.144-6.083-.446-8.203 1.758s-2.69 5.475-1.44 8.266l1.042 2.328c2.388 5.332 4.111 10.891 5.15 16.599-5.805-4.267-12.094-7.895-18.691-10.781 9.57-18.083 16.708-37.307 21.285-57.371l1.311-5.751c1.588-6.963 1.812-14.073.782-20.964l3.667-4.816c6.354-8.345 10.648-18.153 12.547-28.428 9.401 5.515 17.718 12.784 24.444 21.409zm-68.913-158.303c5.841-6.503 13.838-10.64 22.52-11.647 10.796-1.267 20.67 5.809 22.966 16.435 7.286 33.723 4.364 68.479-8.45 100.513l-5.921 14.805c-.647 1.62-.536 2.768-.536 4.739 0 9.467-2.664 19.166-7.991 27.636-2.891-5.65-6.738-10.847-11.457-15.316l-31.119-29.467c-6.725-6.367-14.016-12.237-21.67-17.447-.828-.563-1.374-1.394-1.579-2.307 13.669-6.994 28.224-8.733 41.773-6.134 4.067.783 7.999-1.884 8.779-5.952.78-4.067-1.884-7.998-5.952-8.778-12.616-2.423-25.691-1.688-37.921 2.014.304-.778.609-1.56.915-2.344l1.251-1.089c11.675-10.168 26.63-15.769 42.111-15.771 4.142 0 7.5-3.358 7.499-7.501 0-4.142-3.359-7.499-7.501-7.499-11.822.001-23.396 2.649-33.916 7.642 3.275-8.406 6.423-16.494 9.183-23.585zm-102.052 79.625c-11.95 13.772-26.87 33.375-34.949 44.175l-35.314-43.97c23.306-5.766 47.337-5.745 70.263-.205zm-223.508 78.389c-1.953-2.682-5.437-3.762-8.565-2.655l-8.32 2.944c6.726-8.625 15.043-15.894 24.445-21.41 1.899 10.275 6.193 20.083 12.547 28.428l3.666 4.815c-1.03 6.891-.806 14.001.782 20.964 2.731 11.971 5.142 22.241 10.887 37.247.481 1.498 5.149 13.404 11.736 25.864-6.607 2.887-12.904 6.52-18.717 10.792 1.039-5.708 2.762-11.267 5.15-16.599l1.042-2.328c1.25-2.791.68-6.062-1.44-8.266-2.121-2.204-5.366-2.9-8.203-1.758-9.119 3.667-17.472 9.073-24.553 15.848l-.782-6.036c-1.694-13.071-.754-25.741 2.716-38.515.849-3.125-.404-6.442-3.108-8.227-2.704-1.783-6.247-1.63-8.786.381l-10.875 8.611c3.493-14.151 9.871-27.507 18.753-39.142l1.523-1.994c2.013-2.634 2.055-6.281.102-8.964z"/><path d="m345.527 189.517-45.489 12.188c-9.19 2.463-15.609 10.828-15.609 20.343v4.84c0 4.143 3.358 7.5 7.5 7.5s7.5-3.357 7.5-7.5v-4.84c0-2.738 1.847-5.146 4.492-5.854l45.488-12.188c4.001-1.071 6.375-5.185 5.304-9.186-1.073-4.001-5.187-6.38-9.186-5.303z"/><path d="m220.076 234.388c4.142 0 7.5-3.357 7.5-7.5v-4.84c0-9.515-6.419-17.88-15.61-20.343l-45.488-12.188c-3.994-1.075-8.113 1.302-9.186 5.303-1.072 4.001 1.303 8.114 5.304 9.186l45.488 12.188c2.645.709 4.492 3.116 4.492 5.854v4.84c0 4.143 3.358 7.5 7.5 7.5z"/><path d="m208.736 387.107c1.413-3.894-.599-8.195-4.493-9.608-3.892-1.408-8.195.599-9.608 4.493l-1.357 3.74c-5.497 15.155-14.915 28.155-28.345 38.599-4.53 3.524-3.586 10.664 1.753 12.858l3.892 1.599c13.428 5.515 28.528 4.538 41.007-2.158-1.712 5.898-4.461 11.479-8.181 16.543l-5.387 7.332c-3.63 4.939-.099 11.94 6.044 11.94h1.924c18.202 0 35.886-6.267 50.017-17.685 14.13 11.418 31.815 17.685 50.017 17.685h1.924c6.128 0 9.683-6.989 6.044-11.94l-5.387-7.332c-3.72-5.063-6.468-10.644-8.181-16.543 12.478 6.696 27.579 7.673 41.008 2.158l3.891-1.599c5.307-2.181 6.311-9.313 1.753-12.858-13.413-10.421-22.847-23.443-28.345-38.599l-1.357-3.74c-1.413-3.895-5.716-5.904-9.608-4.493-3.894 1.413-5.905 5.715-4.493 9.608l1.357 3.74c4.956 13.662 12.783 25.999 22.923 36.241-9.582 1.261-19.456-1.729-26.739-8.447l-4.891-4.512c-2.19-2.021-5.366-2.553-8.095-1.357-2.728 1.195-4.491 3.892-4.491 6.87v2.218c0 12.137 3.166 23.813 9.213 34.161-11.178-2.389-20.538-7.316-29.045-14.539v-16.735c0-4.143-3.358-7.5-7.5-7.5s-7.5 3.357-7.5 7.5v16.735c-8.441 7.165-17.778 12.132-29.045 14.539 6.047-10.348 9.213-22.024 9.213-34.161v-2.218c0-2.979-1.763-5.675-4.491-6.87-2.73-1.195-5.905-.663-8.095 1.357l-4.891 4.512c-7.283 6.719-17.158 9.708-26.739 8.448 10.141-10.243 17.967-22.579 22.923-36.242z"/><circle cx="289.043" cy="302.415" r="7.5"/><circle cx="311.269" cy="307.415" r="7.5"/><circle cx="222.962" cy="302.415" r="7.5"/><circle cx="200.735" cy="307.415" r="7.5"/></g></svg>