<svg id="Capa_1" enable-background="new 0 0 512.015 512.015" height="512" viewBox="0 0 512.015 512.015" width="512" xmlns="http://www.w3.org/2000/svg"><g><path d="m81.735 32.896c-.695-.29-1.342-.432-1.976-.432-1.376 0-2.794.686-3.793 1.835-1.268 1.459-1.233 2.922-1.096 3.895l10.429 74.2-3.321 11.736c-5.215 18.427-4.772 37.823 1.329 56.207 7.467-16.037 16.843-31.048 27.843-44.238 10.687-12.816 25.154-26.689 44.106-38.343-16.759-29.229-42.719-51.984-73.521-64.86z" fill="#b78b7a"/><path d="m430.28 32.896c.695-.29 1.342-.432 1.976-.432 1.376 0 2.794.686 3.793 1.835 1.268 1.459 1.233 2.922 1.096 3.895l-10.429 74.2 3.321 11.736c5.215 18.427 4.772 37.823-1.329 56.207-7.467-16.037-16.843-31.048-27.843-44.238-10.687-12.816-25.154-26.689-44.107-38.343 16.76-29.229 42.721-51.984 73.522-64.86z" fill="#b78b7a"/><path d="m436.05 34.299c-.999-1.149-2.417-1.835-3.793-1.835-.634 0-1.281.141-1.976.432-29.008 12.126-53.722 33.015-70.499 59.821 6.238 6.209 12.016 12.783 17.335 19.649 9.409 7.814 17.274 15.968 23.75 23.734 11 13.19 20.376 28.2 27.843 44.238 6.1-18.383 6.543-37.78 1.328-56.207l-3.321-11.736 10.429-74.2c.137-.974.172-2.437-1.096-3.896z" fill="#aa7a63"/><path d="m374.866 376.961c-38.117 30.551-95.103 37.34-158.778 37.34-42.229 0-81.515-2.986-114.307-13.909 38.027 27.599 93.039 33.869 154.227 33.869 63.675 0 120.66-6.789 158.778-37.34-13.689-5.842-26.821-12.69-39.309-20.453-.204.165-.407.329-.611.493z" fill="#f1f1f4"/><path d="m172.097 88.632c3.397-1.607 4.463-5.927 2.212-8.936l-9.24-12.35c-18.999-25.394-44.451-45.237-73.711-57.469-21.412-8.951-44.426 8.809-41.196 31.79l9.697 68.993-1.89 6.676c-6.368 22.498-6.029 46.366.976 68.674l5.391 17.168c1.498 4.771 8.236 4.853 9.823.111 2.617-7.82 5.676-15.497 9.147-22.952-6.101-18.383-6.543-37.78-1.329-56.207l3.321-11.736-10.429-74.2c-.137-.974-.172-2.437 1.096-3.895.999-1.149 2.417-1.835 3.793-1.835.634 0 1.281.141 1.976.432 30.802 12.876 56.762 35.631 73.52 64.861 5.264-3.236 10.873-6.301 16.843-9.125z" fill="#e7d8d3"/><path d="m339.918 88.632c-3.397-1.607-4.463-5.927-2.212-8.936l9.24-12.35c18.999-25.393 44.451-45.237 73.711-57.469 21.412-8.951 44.426 8.809 41.196 31.79l-9.697 68.993 1.89 6.676c6.368 22.498 6.029 46.366-.976 68.674l-5.391 17.168c-1.498 4.771-8.236 4.853-9.823.111-2.617-7.82-5.676-15.497-9.147-22.952 6.101-18.383 6.543-37.78 1.329-56.207l-3.321-11.736 10.429-74.2c.137-.974.172-2.437-1.096-3.895-.999-1.149-2.417-1.835-3.793-1.835-.634 0-1.281.141-1.976.432-30.802 12.876-56.762 35.631-73.52 64.861-5.264-3.236-10.872-6.301-16.843-9.125z" fill="#e7d8d3"/><path d="m420.658 9.877c-29.26 12.232-54.712 32.075-73.711 57.469l-6.407 8.564c6.84 5.222 13.253 10.846 19.242 16.807 16.777-26.807 41.491-47.695 70.499-59.821.695-.29 1.342-.432 1.976-.432 1.376 0 2.794.686 3.793 1.835 1.268 1.459 1.233 2.922 1.096 3.895l-10.429 74.2 3.321 11.736c5.215 18.427 4.772 37.823-1.328 56.207 3.471 7.455 6.53 15.132 9.147 22.952 1.587 4.742 8.325 4.66 9.823-.111l5.391-17.168c7.004-22.308 7.343-46.176.975-68.674l-1.89-6.676 9.698-68.993c3.229-22.981-19.785-40.741-41.196-31.79z" fill="#ddc6be"/><path d="m455.548 473.191c-11.92-26.135-27.403-50.467-45.992-72.31-38.002 27.185-92.723 33.381-153.549 33.381s-115.547-6.196-153.549-33.381c-18.588 21.844-34.072 46.176-45.992 72.31l-14.286 31.324h427.654z" fill="#f1f1f4"/><path d="m455.548 473.191c-11.92-26.135-27.403-50.467-45.992-72.31-5.395 3.86-11.128 7.296-17.167 10.351 8.805 13.357 16.578 27.397 23.238 41.999 6.686 14.66-4.029 31.324-20.141 31.324h-344.202l-9.104 19.96h427.654z" fill="#dfdde2"/><path d="m367.327 371.211c1.113-2.974 1.709-6.166 1.709-9.447 0-14.197-8.713-26.94-21.943-32.091-8.922-3.474-18.067-6.287-27.36-8.426-7.886-1.815-14.863-6.337-19.841-12.716-18.485-23.683-33.372-50.335-43.884-79.165-10.512 28.831-25.398 55.482-43.884 79.165-4.979 6.379-11.956 10.901-19.841 12.716-9.293 2.139-18.437 4.952-27.36 8.426-13.23 5.151-21.943 17.893-21.943 32.091 0 3.281.596 6.473 1.709 9.447-14.884 9.958-30.758 18.583-47.458 25.71 38.117 30.551 95.103 37.34 158.778 37.34s120.66-6.789 158.778-37.34c-16.702-7.127-32.576-15.752-47.46-25.71z" fill="#f1f1f4"/><path d="m374.866 376.961c-38.117 30.551-95.103 37.34-158.778 37.34-42.229 0-81.515-2.986-114.307-13.909 38.027 27.599 93.039 33.869 154.227 33.869 63.675 0 120.66-6.789 158.778-37.34-13.689-5.842-26.821-12.69-39.309-20.453-.204.165-.407.329-.611.493z" fill="#dfdde2"/><path d="m256.008 350.975-28.018-24.068c-1.081-.929-.916-2.648.322-3.354 17.167-9.786 38.224-9.786 55.391 0 1.238.706 1.403 2.425.322 3.354z" fill="#efa5c3"/><path d="m450.564 193.992-2.884 9.187c-1.498 4.771-8.236 4.853-9.823.111-8.246-24.642-20.876-47.867-36.989-67.189-13.656-16.374-33.48-34.476-60.949-47.468-3.397-1.607-4.463-5.928-2.213-8.936l4.768-6.372c-24.912-11.1-53.716-17.549-86.466-17.549s-61.554 6.449-86.466 17.549l4.768 6.372c2.251 3.008 1.184 7.329-2.212 8.936-27.469 12.993-47.293 31.094-60.948 47.468-16.114 19.322-28.743 42.547-36.989 67.189-1.587 4.742-8.325 4.66-9.823-.111l-2.885-9.187c-8.85 24.823-13.241 50.503-13.241 74.739 0 63.871 18.437 103.679 49.02 128.191 16.701-7.127 32.574-15.752 47.458-25.71-1.113-2.974-1.709-6.166-1.709-9.447 0-14.197 8.713-26.94 21.943-32.091 8.922-3.474 18.067-6.287 27.36-8.426 7.886-1.815 14.863-6.337 19.841-12.716 18.485-23.683 33.372-50.335 43.884-79.165 10.512 28.831 25.398 55.482 43.884 79.165 4.979 6.379 11.956 10.901 19.841 12.716 9.293 2.139 18.437 4.952 27.36 8.426 13.23 5.151 21.943 17.893 21.943 32.091 0 3.281-.596 6.473-1.709 9.447 14.884 9.958 30.758 18.583 47.458 25.71 30.583-24.512 49.02-64.32 49.02-128.191-.001-24.236-4.392-49.916-13.242-74.739z" fill="#ceb1a5"/><path d="m450.564 193.992-2.884 9.187c-1.498 4.771-8.236 4.853-9.823.111-8.246-24.642-20.876-47.867-36.989-67.189-6.477-7.766-14.342-15.921-23.751-23.735 31.326 40.43 46.769 90.958 46.769 136.405 0 63.444-18.192 103.146-48.409 127.697 12.488 7.763 25.62 14.611 39.309 20.453 30.583-24.512 49.02-64.32 49.02-128.191-.001-24.235-4.392-49.915-13.242-74.738z" fill="#c19d8e"/><path d="m186.491 66.712 69.517 120.315 69.517-120.315c-20.784-7.006-43.948-10.937-69.517-10.937s-48.733 3.931-69.517 10.937z" fill="#845c47"/><path d="m345.53 381.604c-15.268 6.243-32.113 6.312-47.437.195l-34.586-13.804v-13.577l25.405-21.823c5.006-4.303 4.245-12.291-1.496-15.559-19.373-11.043-43.445-11.044-62.817-.001-5.739 3.268-6.507 11.254-1.497 15.56l25.405 21.823v13.576l-34.586 13.806c-15.322 6.117-32.168 6.047-47.436-.195-3.833-1.566-8.212.27-9.781 4.104-1.567 3.834.27 8.213 4.104 9.78 18.399 7.523 39.241 8 58.674.242 37.92-15.135 35.304-14.032 36.525-14.716 1.212.679-1.44-.437 36.525 14.716 18.388 7.34 39.231 7.707 58.675-.242 3.834-1.567 5.671-5.946 4.104-9.78s-5.944-5.671-9.781-4.105zm-72.783-54.896-16.739 14.38-16.74-14.38c10.775-3.95 22.703-3.95 33.479 0z"/><path d="m305.04 273.992c4.143 0 7.5-3.357 7.5-7.5v-4.83c0-2.726 1.839-5.122 4.472-5.828l45.397-12.164c4.001-1.071 6.375-5.185 5.303-9.186s-5.185-6.379-9.186-5.303l-45.396 12.164c-9.18 2.459-15.59 10.813-15.59 20.316v4.83c0 4.144 3.357 7.501 7.5 7.501z"/><path d="m199.475 261.662v4.83c0 4.143 3.358 7.5 7.5 7.5s7.5-3.357 7.5-7.5v-4.83c0-9.503-6.411-17.857-15.59-20.316l-45.397-12.164c-3.995-1.074-8.113 1.302-9.186 5.303-1.072 4.001 1.303 8.114 5.304 9.186l45.397 12.164c2.634.705 4.472 3.102 4.472 5.827z"/><path d="m19.404 386.59c-3.856 1.512-5.757 5.864-4.245 9.721 1.515 3.863 5.871 5.754 9.72 4.244 19.29-7.564 30.511-12.391 48.372-17.112 5.453 6.856 11.601 13.068 18.452 18.655-16.821 20.792-30.952 43.627-42.061 67.98l-14.287 31.324c-2.257 4.947 1.352 10.612 6.824 10.612h427.654c5.438 0 9.095-5.635 6.823-10.612l-14.286-31.324c-11.107-24.351-25.238-47.186-42.061-67.98 6.851-5.587 12.999-11.8 18.452-18.655 17.842 4.716 28.636 9.373 48.372 17.112 3.856 1.511 8.209-.387 9.721-4.244 1.512-3.856-.389-8.209-4.244-9.721-20.311-7.964-29.302-11.789-44.77-16.208 5.943-9.822 10.742-20.729 14.415-32.761 1.997.291 1.648.243 23.431 3.622 4.098.634 7.926-2.169 8.561-6.262s-2.168-7.926-6.262-8.561c-23.667-3.671-21.143-3.281-21.944-3.402 3.519-16.259 5.263-34.328 5.263-54.288 0-24.639-4.435-50.469-12.839-74.869 2.157-6.868 3.774-11.68 5.323-19.728.782-4.067-1.881-7.999-5.948-8.782-4.07-.782-8 1.881-8.782 5.948-1.5 7.795-3.125 12.402-6.436 22.948-1.801-4.871-3.772-9.688-5.892-14.403 5.691-18.923 5.881-38.827.524-57.756l-2.891-10.215 10.209-72.636c1.357-9.659-8.285-16.974-17.181-13.265-.002.001-.003.002-.005.002-29.997 12.541-55.743 34.251-73.209 61.575-3.065-1.714-6.184-3.344-9.335-4.875 13.957-18.655.108-.145 8.107-10.837 18.183-24.302 42.596-43.335 70.6-55.042 16.046-6.707 33.299 6.585 30.876 23.827l-9.697 68.992c-.146 1.032-.073 2.083.21 3.086 2.349 8.299 4.197 14.24 5.362 24.089.486 4.1 4.197 7.051 8.33 6.566 4.113-.487 7.053-4.217 6.566-8.33-1.296-10.943-3.461-18.057-5.395-24.889l9.477-67.427c4.039-28.731-24.711-50.957-51.516-39.755-30.573 12.786-56.782 33.119-77.762 61.157-32.686-13.395-69.042-17.941-104.403-15.001-4.128.344-7.196 3.969-6.852 8.097.344 4.127 3.974 7.189 8.096 6.853 25.198-2.1 52.192-.148 77.49 7.035-2.398 4.15-47.238 81.756-58.324 100.942-11.088-19.191-55.896-96.74-58.325-100.945 1.819-.517 3.646-1.009 5.483-1.473 4.016-1.016 6.448-5.094 5.433-9.109-1.015-4.017-5.095-6.445-9.109-5.434-9.328 2.359-18.558 5.385-27.471 9.037-20.949-27.999-47.15-48.356-77.766-61.155-26.772-11.189-55.56 10.986-51.517 39.754l9.478 67.427-1.459 5.155c-6.784 23.968-6.425 49.198 1.036 72.964l1.76 5.605c-8.405 24.398-12.84 50.228-12.84 74.868 0 19.961 1.744 38.029 5.262 54.288-.885.134.378-.06-21.944 3.402-4.093.635-6.896 4.468-6.261 8.561.635 4.095 4.469 6.9 8.561 6.262 22.208-3.445 21.554-3.349 23.431-3.622 3.673 12.033 8.472 22.939 14.415 32.761-15.709 4.487-25.134 8.507-44.77 16.207zm79.076 1.602c-3.079-2.684-5.989-5.529-8.73-8.537 11.227-2.194 22.601-3.642 34.078-4.336-8.229 4.711-16.7 9.015-25.348 12.873zm359.691 108.823h-150.303c7.371-4.641 14.237-10.309 20.441-16.935 2.831-3.023 2.675-7.77-.349-10.601s-7.77-2.675-10.601.349c-33.966 36.271-88.732 36.279-122.705 0-2.832-3.024-7.578-3.18-10.601-.349s-3.179 7.577-.348 10.601c6.205 6.626 13.071 12.294 20.442 16.935h-150.302l9.446-20.712c10.698-23.454 24.338-45.429 40.594-65.412 42.298 26.99 100.16 30.87 152.122 30.87 34.356 0 61.226-1.978 84.56-6.223 4.075-.741 6.777-4.646 6.036-8.722-.742-4.075-4.644-6.771-8.722-6.036-22.425 4.08-48.441 5.98-81.874 5.98-49.657 0-104.772-3.562-143.84-28.379 12.705-6.102 25.003-13.117 36.691-20.938 1.098-.734 1.949-1.719 2.516-2.836l36.763-.612c4.141-.069 7.443-3.482 7.374-7.624s-3.502-7.476-7.624-7.374l-37.325.621c.464-5.963 2.85-11.449 6.673-15.747l34.212 7.048c4.057.839 8.024-1.778 8.859-5.832.836-4.058-1.775-8.023-5.833-8.859l-16.213-3.34c5.176-1.669 10.427-3.119 15.704-4.333 9.467-2.179 18.015-7.651 24.071-15.41 15.297-19.598 28.025-40.938 37.972-63.636 9.947 22.698 22.675 44.038 37.972 63.635 6.055 7.759 14.604 13.231 24.071 15.411 5.276 1.214 10.527 2.664 15.703 4.333l-16.212 3.34c-4.057.836-6.668 4.802-5.832 8.859.833 4.044 4.792 6.672 8.859 5.832l34.211-7.048c3.823 4.298 6.209 9.784 6.673 15.747l-37.325-.621c-4.119-.113-7.555 3.232-7.624 7.374-.068 4.142 3.232 7.555 7.374 7.624l36.763.612c.567 1.117 1.418 2.101 2.515 2.836 11.692 7.822 23.993 14.84 36.704 20.943-8.442 5.375-17.878 9.895-28.562 13.694-3.902 1.389-5.94 5.678-4.553 9.58 1.389 3.903 5.677 5.938 9.58 4.553 11.672-4.152 22.318-9.288 31.799-15.33 16.26 19.987 29.902 41.963 40.598 65.417zm-44.636-108.823c-8.647-3.858-17.119-8.162-25.348-12.874 11.478.694 22.851 2.143 34.079 4.336-2.742 3.009-5.652 5.854-8.731 8.538zm18.977-21.715c-18.542-4.156-36.984-6.291-56.018-6.607-.306-6.968-2.293-13.556-5.65-19.307 25.07-5.163 49.661-6.996 76.202-4.706-3.713 11.38-8.552 21.572-14.534 30.62zm-3.417-324.881-9.805 69.756c-.146 1.032-.073 2.083.21 3.086l3.321 11.735c2.993 10.577 3.958 21.515 2.903 32.346-13.426-22.846-30.467-42.1-50.567-57.272l12.086-2.762c4.122-.944 8.481.595 11.101 3.917 2.563 3.253 7.28 3.812 10.533 1.246 3.253-2.564 3.811-7.28 1.246-10.533-6.187-7.848-16.483-11.479-26.222-9.253l-10.572 2.416c2.067-2.73 4.229-5.385 6.482-7.96l19.092-4.364c2.91-.665 5.984.42 7.833 2.765 1.48 1.877 3.677 2.856 5.895 2.856 6.177 0 9.791-7.191 5.885-12.144-4.351-5.519-11.025-8.656-17.901-8.666 8.784-6.773 18.343-12.555 28.48-17.169zm-340.63-24.799c28.004 11.707 52.417 30.74 70.599 55.042 2.24 2.994 5.795 7.746 8.108 10.837-3.15 1.531-6.269 3.161-9.334 4.875-17.465-27.324-43.212-49.034-73.209-61.575-9.255-3.702-18.515 3.835-17.186 13.264l10.209 72.635-2.891 10.214c-5.358 18.929-5.167 38.833.524 57.756-2.12 4.716-4.092 9.533-5.892 14.403-.53-1.688-2.19-6.974-3.292-10.483-6.584-20.971-6.901-43.234-.915-64.385l1.889-6.677c.284-1.003.356-2.054.211-3.086l-9.698-68.992c-2.419-17.224 14.814-30.541 30.877-23.828zm-2.175 141.722c-1.054-10.83-.09-21.769 2.904-32.346l3.321-11.735c.284-1.003.356-2.054.211-3.086l-9.805-69.756c10.137 4.614 19.696 10.396 28.479 17.169-6.878.009-13.55 3.147-17.901 8.666-3.901 4.95-.299 12.144 5.885 12.144 2.218 0 4.415-.979 5.895-2.856 1.848-2.345 4.923-3.43 7.832-2.765l19.093 4.364c2.253 2.575 4.415 5.23 6.482 7.96l-10.573-2.416c-9.741-2.224-20.036 1.405-26.222 9.253-2.564 3.253-2.006 7.969 1.247 10.533 3.252 2.565 7.97 2.007 10.533-1.246 2.62-3.321 6.979-4.86 11.101-3.917l12.087 2.762c-20.087 15.16-37.131 34.408-50.569 57.272zm-27.706 150.2c7.833-16.129 18.253-29.537 30.724-40.478 14.604 17.127 32.888 31.088 53.284 40.626l3.968 1.854c3.761 1.756 8.22.126 9.97-3.619 1.754-3.753.133-8.217-3.619-9.971l-3.967-1.854c-18.254-8.535-34.64-20.988-47.782-36.254 7.948-5.457 16.556-10.036 25.699-13.62 3.857-1.512 5.757-5.863 4.246-9.72-1.512-3.857-5.862-5.758-9.72-4.245-26.697 10.464-49.322 28.523-65.335 51.828-1.134-23.486.495-45.283 7.335-70.407 6.758 3.536 15.362.35 17.885-7.19 15.97-47.725 47.914-88.445 94.032-110.258 7.133-3.374 9.78-12.084 5.923-18.822.63-.243 1.261-.483 1.894-.719l7.246 12.542c2.33 33.227 4.361 54.891 3.082 89.89-.155 4.24 3.237 7.773 7.5 7.773 4.016 0 7.342-3.181 7.49-7.227.738-20.199.414-40.656-.961-60.822l12.021 20.805c2.421 18.84 3.907 38.001 4.418 56.979.112 4.154 3.578 7.413 7.699 7.295 4.141-.111 7.407-3.559 7.295-7.699-.224-8.343-.633-16.721-1.222-25.093l10.818 18.723v15.379c0 4.143 3.358 7.5 7.5 7.5 4.143 0 7.5-3.357 7.5-7.5v-15.379l10.819-18.724c-.588 8.372-.997 16.75-1.222 25.094-.111 4.141 3.154 7.588 7.295 7.699 4.115.116 7.587-3.134 7.699-7.295.511-18.98 1.997-38.142 4.418-56.98l12.021-20.804c-1.375 20.17-1.699 40.626-.961 60.821.147 4.047 3.475 7.227 7.49 7.227 4.26 0 7.655-3.532 7.5-7.773-1.274-34.907.783-57.097 3.083-89.89l7.247-12.542c.633.236 1.264.476 1.894.719-3.856 6.734-1.214 15.448 5.922 18.822 45.749 21.646 77.909 62.075 94.032 110.259 2.508 7.493 11.073 10.754 17.885 7.19 6.792 24.949 8.478 46.728 7.334 70.407-16.013-23.304-38.638-41.363-65.335-51.827-3.859-1.513-8.209.39-9.72 4.245-1.512 3.856.389 8.208 4.245 9.72 9.143 3.584 17.752 8.163 25.699 13.62-13.143 15.267-29.528 27.719-47.781 36.253l-3.968 1.854c-3.752 1.754-5.373 6.218-3.619 9.971 1.748 3.739 6.202 5.378 9.971 3.619l3.969-1.855c20.394-9.536 38.679-23.497 53.283-40.625 12.757 11.192 23.073 24.712 30.724 40.477-.67 4.277-1.458 8.424-2.364 12.444-27.323-2.632-54.76-1.16-81.777 4.406l-10.224 2.106c-2.814-2.005-5.912-3.689-9.255-4.99-9.213-3.587-18.769-6.529-28.398-8.745-6.123-1.41-11.667-4.97-15.611-10.022-18.22-23.343-32.603-49.29-42.75-77.12-1.079-2.961-3.895-4.931-7.046-4.931s-5.967 1.97-7.046 4.931c-10.146 27.83-24.53 53.777-42.75 77.12-3.944 5.054-9.489 8.612-15.611 10.022-9.632 2.217-19.187 5.159-28.398 8.745-3.342 1.301-6.441 2.985-9.255 4.99l-10.224-2.106c-27.016-5.567-54.453-7.04-81.776-4.407-.905-4.019-1.693-8.166-2.362-12.442zm6.385 27.139c26.565-2.292 51.156-.453 76.202 4.706-3.356 5.751-5.344 12.339-5.649 19.307-18.807.316-37.22 2.393-56.019 6.607-5.982-9.049-10.821-19.241-14.534-30.62z"/></g></svg>