<svg id="Capa_1" enable-background="new 0 0 512.002 512.002" height="512" viewBox="0 0 512.002 512.002" width="512" xmlns="http://www.w3.org/2000/svg"><g><path d="m486.966 442.189c-6.612-24.916-14.172-49.008-22.621-72.126 10.676-22.894 17.371-47.707 19.527-73.394l2.464-29.356-31.136-30.635h.001l3.769-3.423-20.283-28.65c-16.464-23.256-26.67-50.356-29.637-78.695l-2.59-24.738-16.109 28.985c-2.815 5.065-9.449 6.482-14.09 3.012-16.818-12.575-33.29-27.079-49.255-43.397-3.711-3.793-3.579-9.9.256-13.566l18.927-18.094c-.755.187-1.511.393-2.266.618l-44.917 13.405c-6.278.51-12.575.766-18.875.766h-48.262c-6.299 0-12.596-.255-18.875-.766l-44.917-13.405c-.755-.225-1.511-.431-2.267-.619l18.928 18.096c3.835 3.667 3.967 9.774.256 13.566-15.966 16.318-32.438 30.822-49.256 43.396-4.641 3.47-11.275 2.053-14.09-3.012l-16.109-28.985-2.59 24.736c-2.967 28.34-13.173 55.44-29.637 78.696l-20.283 28.65 3.769 3.423h-.001.001l-31.136 30.635 2.464 29.356c2.156 25.687 8.851 50.5 19.527 73.394-8.448 23.119-16.009 47.21-22.621 72.126l-16.533 62.314h495.004z" fill="#f1f1f4"/><path d="m486.966 442.189c-6.612-24.916-14.172-49.008-22.621-72.126 10.676-22.894 17.371-47.707 19.527-73.394l2.464-29.356-31.136-30.635h.001l3.769-3.423-20.283-28.65c-16.464-23.256-26.67-50.355-29.637-78.694l-2.59-24.738-16.109 28.985c-2.821 5.076-9.465 6.471-14.115 2.993-.843-.631-1.685-1.266-2.527-1.906 5.063 19.067 13.499 37.148 24.977 53.361l18.942 26.756c.765 1.081.604 2.563-.377 3.454-1.114 1.012-1.149 2.752-.076 3.808l10.446 10.278c11.857 11.666 17.91 28.001 16.518 44.576l-.268 3.193c-1.47 17.513-5.05 34.62-10.563 50.99-5.217 15.49-5.263 32.258-.173 47.79 4.987 15.217 9.602 30.81 13.829 46.74l2.825 10.644c6.925 26.094-12.748 51.668-39.745 51.668h-396.238l-5.308 20h495.004z" fill="#dfdde2"/><path d="m281.072 318.351-12.822-7.402c-7.58-4.376-12.249-12.463-12.249-21.216 0 8.752-4.67 16.84-12.249 21.216l-12.823 7.402c-5.357 3.093-11.409 4.521-17.393 4.243 6.634 3.168 13.44 6.02 20.398 8.538 14.112 5.107 29.567 5.107 43.679 0 6.944-2.513 13.737-5.358 20.359-8.519-5.822.18-11.689-1.254-16.9-4.262z" fill="#c6c1c8"/><path d="m96.567 7.702c-1.903-.676-3.974.417-4.492 2.369-7.737 29.168-3.798 60.035 10.733 86.183l18.842 33.903c2.815 5.065 9.449 6.482 14.09 3.012 16.818-12.574 33.29-27.078 49.256-43.396 3.711-3.793 3.579-9.9-.256-13.566l-41.71-39.877c-13.292-12.707-29.125-22.465-46.463-28.628z" fill="#8b818e"/><path d="m415.435 7.702c1.903-.676 3.974.417 4.492 2.369 7.737 29.168 3.798 60.035-10.733 86.183l-18.842 33.903c-2.815 5.065-9.449 6.482-14.09 3.012-16.818-12.574-33.29-27.078-49.256-43.396-3.711-3.793-3.579-9.9.256-13.566l41.71-39.877c13.292-12.707 29.124-22.465 46.463-28.628z" fill="#8b818e"/><path d="m419.927 10.071c-.518-1.952-2.589-3.045-4.492-2.369-7.526 2.675-14.768 6.028-21.642 10.005.377 20.356-4.607 40.568-14.599 58.547l-18.842 33.903c-1.467 2.639-3.971 4.287-6.69 4.77 7.453 6.468 14.991 12.553 22.6 18.242 4.641 3.47 11.275 2.053 14.09-3.012l18.842-33.903c14.531-26.147 18.47-57.015 10.733-86.183z" fill="#756e78"/><path d="m401.624 212.573c-37.947-19.099-72.02-44.759-102.602-74.25-4.537-4.375-10.579-6.843-16.882-6.843h-52.278c-6.303 0-12.345 2.467-16.882 6.843-30.582 29.491-64.654 55.151-102.602 74.25-4.397 2.213-5.788 7.78-3.006 11.792l18.68 26.942c19.259 27.778 44.44 50.711 73.543 67.262 9.713 5.524 21.657 5.368 31.334-.219l12.822-7.402c7.58-4.376 12.25-12.463 12.25-21.216v-5.456 5.457c0 8.752 4.669 16.84 12.249 21.216l12.822 7.402c9.677 5.587 21.621 5.743 31.334.219 29.103-16.551 54.284-39.484 73.543-67.262l18.68-26.942c2.783-4.013 1.391-9.58-3.005-11.793z" fill="#8b818e"/><path d="m256.001 284.277-24.786-25.584c-1.32-1.362-.69-3.641 1.142-4.133 15.489-4.157 31.8-4.157 47.289 0 1.832.492 2.461 2.771 1.142 4.133z" fill="#665e66"/><path d="m444.467 390.542c3.002-2.805 3.183-7.506.4-10.541-2.793-3.048-7.595-3.297-10.709-.355-8.165 7.785-19.556 10.73-30.472 7.868-5.315-1.388-10.283 3.229-9.271 8.634l7.314 39.128c-16.863 3.612-34.776 1.157-50.128-7.044-4.331-2.317-9.691.093-10.832 4.871l-6.038 25.279c-9.326-4.453-17.924-10.532-25.186-17.848-2.92-2.94-7.669-2.957-10.606-.04-2.94 2.919-2.958 7.667-.04 10.606 10.491 10.569 23.549 19.15 38.483 24.649 4.216 1.551 8.843-.926 9.887-5.296l5.957-24.938c18.794 7.537 39.963 8.465 59.394 2.391 3.627-1.134 5.833-4.801 5.135-8.536l-6.69-35.787c12.281.231 24.226-4.316 33.402-13.041z"/><path d="m99.382 447.907c19.409 6.068 40.555 5.148 59.393-2.397l5.958 24.944c.806 3.375 3.825 5.758 7.295 5.758 1.154 0 1.952-.227 2.903-.576 14.261-5.261 27.46-13.744 38.172-24.535 2.918-2.939 2.9-7.688-.04-10.606-2.938-2.919-7.688-2.901-10.606.04-7.263 7.316-15.859 13.396-25.186 17.848l-6.038-25.279c-1.107-4.633-6.453-7.209-10.913-4.828-15.279 8.164-33.187 10.613-50.047 7.001l7.314-39.128c1.011-5.399-3.951-10.023-9.271-8.634-10.915 2.861-22.306-.084-30.472-7.868-3.17-2.994-7.952-2.654-10.709.355-2.771 3.023-2.591 7.709.376 10.519 9.18 8.741 21.097 13.31 33.427 13.064l-6.69 35.787c-.699 3.734 1.507 7.401 5.134 8.535z"/><path d="m230.399 385.404.913-2.662c3.858 9.096 9.94 17.149 17.793 23.398l2.224 1.771c2.733 2.176 6.609 2.178 9.344 0l2.222-1.77c7.854-6.25 13.936-14.304 17.794-23.399l.914 2.662c1.405 4.1 5.983 6.151 9.979 4.489 15.595-6.497 27.454-19.464 32.539-35.574 1.246-3.949-.945-8.162-4.896-9.409-3.948-1.247-8.162.945-9.409 4.896-2.959 9.374-9.028 17.306-17.105 22.591-2.746-5.246-7.363-9.25-13.071-11.23-4.365-1.514-9.063 1.245-9.85 5.813-1.683 9.776-6.538 18.658-13.788 25.331-7.249-6.672-12.105-15.555-13.788-25.331-.784-4.553-5.47-7.332-9.85-5.813-5.708 1.98-10.325 5.985-13.071 11.23-8.077-5.285-14.146-13.217-17.105-22.591-1.247-3.951-5.463-6.146-9.409-4.896-3.95 1.247-6.142 5.46-4.896 9.409 5.085 16.11 16.944 29.077 32.539 35.574 3.992 1.661 8.572-.388 9.977-4.489z"/><path d="m113.75 219.272c18.224-9.172 36.306-20.231 53.742-32.871 3.354-2.431 4.101-7.12 1.67-10.475-2.432-3.354-7.122-4.099-10.475-1.67-16.786 12.169-34.174 22.806-51.683 31.618-8.446 4.251-11.185 14.995-5.796 22.765l18.68 26.942c19.687 28.393 45.966 52.428 75.999 69.508 4.867 2.768 10.224 4.39 15.677 4.87 6.46 3.037 13.12 5.801 19.818 8.225 15.728 5.692 33.051 5.694 48.784 0 6.669-2.413 13.298-5.163 19.725-8.181 5.641-.417 11.194-2.053 16.224-4.914 30.032-17.08 56.312-41.115 75.998-69.508l18.68-26.942c5.376-7.752 2.669-18.504-5.797-22.766-34.866-17.548-68.77-42.092-100.768-72.949-5.98-5.768-13.825-8.943-22.089-8.943-105.203 0 49.753 0-52.277 0-8.264 0-16.108 3.176-22.089 8.943-7.204 6.948-14.585 13.652-21.938 19.928-3.15 2.689-3.524 7.423-.836 10.574 2.688 3.15 7.422 3.524 10.574.836 7.583-6.473 15.191-13.383 22.612-20.541 2.715-2.618 6.148-4.229 9.817-4.637l5.299 26.734c.806 4.071 4.76 6.703 8.814 5.898 4.063-.805 6.704-4.752 5.898-8.814l-4.741-23.921h25.457l-4.741 23.921c-.921 4.646 2.639 8.959 7.364 8.959 3.507 0 6.642-2.472 7.349-6.043l5.299-26.734c3.669.408 7.101 2.019 9.817 4.637 33.084 31.905 68.222 57.324 104.435 75.55.321.166.406.541.216.821l-18.68 26.942c-18.415 26.558-42.996 49.04-71.088 65.016-7.313 4.159-16.464 4.085-23.877-.194l-12.823-7.402c-5.242-3.026-8.499-8.668-8.499-14.721v-2.419l22.674-23.404c5.283-5.456 2.761-14.625-4.585-16.594-16.74-4.494-34.437-4.494-51.176-.001-7.336 1.967-9.879 11.13-4.586 16.596l22.673 23.403v2.419c0 6.054-3.257 11.693-8.5 14.721l-12.822 7.402c-7.412 4.279-16.562 4.354-23.876.194-28.092-15.976-52.673-38.458-71.088-65.016l-18.68-26.942c-.19-.279-.106-.657.215-.82zm155.352 40.703-13.102 13.523-13.102-13.523c8.676-1.371 17.528-1.371 26.204 0zm-21.601 57.469c3.273-1.89 6.136-4.321 8.5-7.143 2.363 2.821 5.226 5.253 8.499 7.143l11.133 6.427c-13.455 4.916-27.099 4.606-39.44.101z"/><path d="m489.969 424.829c-1.135-3.984-5.286-6.289-9.269-5.157-3.983 1.135-6.292 5.284-5.157 9.269 3.04 10.664 3.84 13.916 18.21 68.062h-475.504c14.134-53.256 21.154-82.505 36.452-124.364.685-1.871.596-3.938-.247-5.744-10.441-22.39-16.783-46.228-18.851-70.852l-2.171-25.85 23.574-23.196 24.628 22.368c13.749 12.487 28.831 23.603 44.829 33.036 3.553 2.097 8.159.93 10.27-2.65 2.104-3.567.918-8.166-2.65-10.27-15.117-8.916-29.37-19.42-42.363-31.22l-28.729-26.092 16.445-23.229c16.736-23.639 27.767-51.589 31.092-83.357l4.568 8.219c5.022 9.037 16.868 11.557 25.136 5.375 17.798-13.307 34.645-28.336 50.126-44.157 5.757-5.885 6.292-14.752 2.096-21.188 19.988 5.965 18.839 5.69 19.935 5.78 6.446.524 13.002.79 19.483.79 50.092 0 54.852.259 67.745-.79 1.07-.088-.142.212 19.935-5.78-4.191 6.43-3.667 15.298 2.097 21.188 16.371 16.732 33.254 31.543 50.124 44.157 8.24 6.159 20.097 3.695 25.137-5.375l4.568-8.218c3.256 31.102 13.962 59.161 31.091 83.357l16.446 23.229-28.73 26.092c-12.994 11.803-27.249 22.307-42.366 31.221-3.568 2.104-4.755 6.702-2.651 10.271 2.11 3.577 6.711 4.749 10.271 2.651 15.997-9.434 31.081-20.55 44.832-33.039l24.627-22.367 23.575 23.195-2.17 25.851c-2.067 24.623-8.409 48.461-18.851 70.851-.843 1.806-.932 3.873-.247 5.745 2.782 7.611 5.505 15.44 8.092 23.271 1.292 3.912 5.52 6.073 9.475 4.768 3.933-1.3 6.067-5.541 4.768-9.474-2.308-6.986-4.723-13.974-7.191-20.812 10.418-23.169 16.774-47.743 18.902-73.094l2.465-29.356c.187-2.222-.625-4.411-2.214-5.974l-25.87-25.455c1.153-2.394.982-5.306-.636-7.592l-20.283-28.648c-15.687-22.159-25.472-48.144-28.299-75.144l-2.343-22.381 1.583-2.849c5.964-10.731 10.286-22.262 12.847-34.271.864-4.051-1.72-8.035-5.771-8.898-4.043-.863-8.035 1.72-8.898 5.771-2.25 10.552-6.048 20.683-11.288 30.111-32.975 59.335-10.988 19.771-18.842 33.902-.616 1.109-2.048 1.39-3.043.648-5.914-4.422-11.802-9.104-17.641-14.026 4.534-1.876 9.504-2.786 14.416-2.612 4.099.161 7.609-3.101 7.751-7.241.141-4.14-3.102-7.609-7.241-7.751-7.149-.244-14.402 1.099-20.988 3.88l-6.462 2.729c-1.613-1.473-3.22-2.963-4.823-4.471l4.699-3.101c5.676-3.746 12.271-5.726 19.072-5.726 4.143 0 7.5-3.357 7.5-7.5s-3.357-7.5-7.5-7.5c-9.747 0-19.199 2.838-27.334 8.206l-7.438 4.908c-.8-.806-1.598-1.615-2.395-2.43-.803-.82-.727-2.131.077-2.9 47.845-45.743 11.642-11.131 41.71-39.877 11.528-11.021 24.826-19.551 39.582-25.399.814 3.68 1.44 7.41 1.868 11.136.472 4.115 4.187 7.07 8.306 6.597 4.115-.472 7.068-4.19 6.597-8.306-.68-5.924-1.801-11.855-3.332-17.63-1.639-6.183-8.224-9.656-14.253-7.513-18.449 6.558-34.979 16.742-49.133 30.273l-21.394 20.454c-.508.145-44.217 13.192-44.775 13.359-11.458.891-14.225.679-65.751.679-5.817 0-11.697-.229-17.489-.679-.496-.148-44.281-13.217-44.775-13.359l-21.394-20.453c-14.161-13.533-30.691-23.718-49.139-30.275-6.042-2.148-12.618 1.339-14.254 7.512-8.243 31.075-4.186 63.659 11.427 91.75l1.583 2.849-2.343 22.38c-2.827 27.001-12.612 52.985-28.3 75.144l-20.282 28.649c-1.618 2.286-1.789 5.199-.636 7.593l-25.87 25.453c-1.589 1.563-2.4 3.753-2.214 5.975l2.465 29.355c2.128 25.352 8.484 49.926 18.902 73.095-14.996 41.54-21.597 69.216-38.309 132.187-1.262 4.755 2.328 9.424 7.249 9.424h495.004c4.919 0 8.512-4.667 7.249-9.424-16.027-60.393-17.639-66.722-20.782-77.749zm-391.707-408.479c14.756 5.848 28.055 14.379 39.584 25.4 30.322 28.989-6.165-5.895 41.71 39.877.809.774.876 2.084.078 2.9-.797.814-1.595 1.624-2.396 2.43l-7.438-4.908c-8.135-5.368-17.587-8.206-27.334-8.206-4.143 0-7.5 3.357-7.5 7.5s3.357 7.5 7.5 7.5c6.801 0 13.396 1.979 19.072 5.726l4.7 3.101c-1.602 1.508-3.21 2.998-4.823 4.471l-6.463-2.729c-6.586-2.781-13.845-4.124-20.987-3.88-4.14.142-7.382 3.611-7.241 7.751.142 4.141 3.638 7.374 7.751 7.241 4.908-.173 9.882.736 14.416 2.612-5.84 4.923-11.728 9.604-17.642 14.027-.981.729-2.418.474-3.042-.649-7.853-14.131 14.131 25.428-18.842-33.902-12.991-23.373-16.878-50.285-11.103-76.262z"/><path d="m341.049 197.398c-1.072-4.001-5.185-6.377-9.186-5.303l-35.621 9.544c-7.907 2.119-13.43 9.316-13.43 17.502v3.79c0 4.143 3.357 7.5 7.5 7.5s7.5-3.357 7.5-7.5v-3.79c0-1.409.951-2.648 2.313-3.014l35.621-9.544c4.001-1.071 6.375-5.184 5.303-9.185z"/><path d="m229.189 222.931v-3.79c0-8.186-5.522-15.383-13.43-17.502l-35.621-9.544c-4.004-1.074-8.113 1.302-9.186 5.303s1.302 8.114 5.303 9.186l35.621 9.544c1.361.365 2.313 1.604 2.313 3.014v3.79c0 4.143 3.357 7.5 7.5 7.5s7.5-3.358 7.5-7.501z"/><circle cx="289.539" cy="281.988" r="7.5"/><circle cx="316.734" cy="281.988" r="7.5"/><circle cx="303.137" cy="298.343" r="7.5"/><circle cx="222.463" cy="281.988" r="7.5"/><circle cx="195.267" cy="281.988" r="7.5"/><circle cx="208.865" cy="298.343" r="7.5"/></g></svg>