<svg id="Capa_1" enable-background="new 0 0 512.003 512.003" height="512" viewBox="0 0 512.003 512.003" width="512" xmlns="http://www.w3.org/2000/svg"><g><path d="m438.315 416.234c-1.722 14.443-7.911 28.295-18.182 39.41l-45.15 48.86h89.646l-6.294-31.802c-3.982-20.123-10.812-39.074-20.02-56.468z" fill="#f4e2c1"/><path d="m73.689 416.234c-9.208 17.395-16.038 36.345-20.021 56.467l-6.294 31.802h89.646l-45.15-48.86c-10.27-11.114-16.459-24.966-18.181-39.409z" fill="#f4e2c1"/><path d="m434.954 200.138c-5.682-2.493-11.265-5.194-16.738-8.097-10.657-5.652-17.289-16.875-16.781-28.927.57-13.505-1.267-27.059-5.482-40.018l-.962-2.958 4.243-26.176c4.227-26.081 1.593-52.813-7.645-77.566l-1.133-3.035c-2.033-5.449-8.653-7.588-13.449-4.298-33.573 23.033-61.058 53.796-80.175 89.645-2.171 4.071-6.872 6.024-11.347 4.901-7.884-1.979-16.03-2.998-24.265-2.998h-10.44c-8.257 0-16.425 1.025-24.329 3.014-4.489 1.13-9.14-.902-11.32-4.986-19.106-35.801-46.561-66.527-80.089-89.542h-4.114c-4.679 0-8.875 2.902-10.511 7.285-9.242 24.756-11.879 51.491-7.651 77.575l4.244 26.183-.963 2.961c-4.214 12.958-6.05 26.512-5.481 40.015.509 12.052-6.124 23.275-16.781 28.927-5.473 2.903-11.056 5.604-16.738 8.097-1.728.758-2.419 2.845-1.485 4.485l41.479 72.822c12.737 22.361 35.439 36.986 60.712 39.578-.851 3.181-.98 6.577-.282 9.942l.28 1.35c1.583 7.636 5.474 14.678 11.385 19.765 11.05 9.509 26.51 11.018 38.979 4.388l21.083-11.211c4.185-2.225 6.8-6.578 6.8-11.318 0 4.74 2.615 9.093 6.8 11.318l21.083 11.211c10.588 5.63 23.333 5.391 33.703-.631 8.525-4.951 14.54-13.296 16.542-22.949l.399-1.923c.698-3.365.569-6.762-.282-9.942 25.273-2.592 47.976-17.217 60.712-39.578l41.479-72.821c.939-1.642.248-3.73-1.48-4.488z" fill="#fbf6ec"/><path d="m434.954 200.138c-5.682-2.493-11.265-5.194-16.738-8.097-10.657-5.652-17.289-16.875-16.781-28.927.57-13.505-1.267-27.059-5.481-40.018l-.962-2.958 4.243-26.176c4.227-26.081 1.593-52.813-7.645-77.566l-1.132-3.035c-2.034-5.449-8.654-7.588-13.45-4.298-6.283 4.311-12.353 8.892-18.194 13.727 3.016 16.847 3.18 34.149.421 51.173l-3.745 23.106c-.327 2.017-.168 4.084.464 6.027 4.202 12.92 6.041 26.432 5.487 39.896-.497 12.083 6.094 23.384 16.778 29.05.161.086.322.171.482.255 10.409 5.491 14.232 18.481 8.407 28.707l-32.148 56.44c-10.766 18.902-28.654 32.276-49.195 37.527-5.746 1.469-10.037 6.079-11.214 11.892-.007.034-.014.067-.021.101l-.399 1.923c-2.002 9.653-8.017 17.998-16.542 22.949-6.091 3.537-13.001 5.079-19.812 4.609 1.179 2 2.9 3.681 5.026 4.811l21.083 11.211c10.588 5.63 23.333 5.391 33.703-.631 8.525-4.951 14.54-13.296 16.542-22.949l.399-1.923c.698-3.365.568-6.762-.283-9.942 25.273-2.592 47.976-17.217 60.712-39.578l41.479-72.821c.935-1.639.244-3.727-1.484-4.485z" fill="#f9efda"/><g fill="#f9c6da"><path d="m256.002 322.67-27.246-29.228 6.598-1.723c13.539-3.536 27.758-3.536 41.297 0l6.598 1.723z"/><path d="m141.857 45.976c-1.457-1.273-3.751-.482-4.089 1.423-2.483 14.02-2.612 28.427-.322 42.558l5.211 32.152-2.833 8.722c-4.946 15.207-5.697 31.483-2.161 47.075.339 1.496 2.121 2.134 3.325 1.183l.026-.02 57.282-45.234c.97-.766 1.955-1.509 2.955-2.229.796-.573 1.108-1.616.727-2.52-13.475-31.966-34.167-60.425-60.121-83.11z"/><path d="m372.179 130.828-2.834-8.715 5.212-32.149c2.29-14.131 2.161-28.54-.323-42.563-.337-1.905-2.632-2.697-4.089-1.424-25.954 22.684-46.64 51.134-60.12 83.109-.381.904-.07 1.947.726 2.52 1 .72 1.986 1.463 2.955 2.229l57.284 45.235.034.027c1.205.951 2.987.312 3.326-1.185 3.526-15.597 2.776-31.873-2.171-47.084z"/></g><path d="m369.345 122.113 5.212-32.149c2.29-14.131 2.161-28.54-.322-42.563-.338-1.905-2.632-2.697-4.089-1.424-3.083 2.695-6.092 5.471-9.023 8.325-.202 6.567-.83 13.134-1.888 19.661l-3.745 23.106c-.327 2.017-.168 4.084.464 6.027 4.202 12.92 6.041 26.432 5.487 39.896-.457 11.099 5.068 21.538 14.252 27.556 1.846-13.301.659-26.889-3.513-39.721z" fill="#efa5c3"/><path d="m272.35 125.661c11.811 26.588 36.583 45.135 65.421 48.98l33.221 4.43-57.284-45.235c-.969-.765-1.955-1.509-2.955-2.229-.796-.574-1.107-1.616-.726-2.52 1.462-3.469 3.01-6.896 4.639-10.28l-17.832-20.099c-2.171 4.071-6.872 6.024-11.347 4.901-7.884-1.979-16.03-2.998-24.265-2.998z" fill="#f1d59d"/><path d="m239.654 125.661c-11.811 26.588-36.583 45.135-65.421 48.98l-33.221 4.43 57.284-45.235c.969-.765 1.955-1.509 2.955-2.229.796-.574 1.107-1.616.726-2.52-1.462-3.469-3.01-6.896-4.639-10.28l17.832-20.099c2.171 4.071 6.872 6.024 11.347 4.901 7.884-1.979 16.03-2.998 24.265-2.998z" fill="#f1d59d"/><path d="m420.133 455.643c18.563-20.088 23.794-49.116 13.413-74.421l-5.792-14.117c14.478 1.925 27.902 8.617 38.153 19.02l8.421 8.545-3.875-32.761c-4.947-41.831-19.915-81.851-43.63-116.663l-7.365-10.811-24.499 43.01c-12.737 22.361-35.439 36.986-60.712 39.578.851 3.181.98 6.578.283 9.942l-.399 1.923c-2.002 9.653-8.017 17.998-16.542 22.949-10.37 6.023-23.115 6.261-33.703.631l-21.083-11.211c-4.185-2.225-6.8-6.578-6.8-11.318 0 4.74-2.615 9.093-6.8 11.318l-21.083 11.211c-12.469 6.63-27.929 5.121-38.979-4.388-5.911-5.087-9.801-12.129-11.385-19.765l-.28-1.35c-.698-3.365-.569-6.761.282-9.942-25.273-2.592-47.975-17.217-60.712-39.578l-24.499-43.01-7.365 10.811c-23.716 34.812-38.683 74.832-43.631 116.663l-3.875 32.761 8.421-8.545c10.252-10.402 23.676-17.094 38.153-19.02l-5.792 14.117c-10.381 25.305-5.149 54.333 13.413 74.421l45.15 48.86h237.962z" fill="#fbf6ec"/><path d="m470.454 361.909c-4.947-41.831-19.915-81.851-43.63-116.663l-7.365-10.811-13.538 23.765c12.761 26.255 21.083 54.541 24.532 83.708 1.252 10.582-10.041 18.204-19.317 12.96-2.329-1.317-4.853-2.552-7.584-3.648-6.314-2.535-12.589 3.708-10.006 10.003 10.381 25.305 5.15 54.333-13.413 74.421-28.783 31.148-69.266 48.86-111.676 48.86h-149.918l18.481 20h237.962l45.15-48.86c18.563-20.088 23.794-49.116 13.413-74.421l-5.792-14.117c14.478 1.925 27.902 8.617 38.153 19.02l8.421 8.545z" fill="#f9efda"/><path d="m283.886 352.467-21.083-11.211c-4.185-2.225-6.8-6.578-6.8-11.318 0 4.74-2.615 9.093-6.8 11.318l-21.083 11.211c-4.173 2.219-8.681 3.526-13.247 3.927 10.57 8.459 25.098 13.681 41.131 13.681s30.56-5.222 41.131-13.681c-4.568-.401-9.076-1.708-13.249-3.927z" fill="#f4e2c1"/><path d="m349.55 209.469-43.449 11.642c-8.926 2.391-15.16 10.515-15.16 19.757v4.623c0 4.143 3.357 7.5 7.5 7.5s7.5-3.357 7.5-7.5v-4.623c0-2.464 1.661-4.63 4.042-5.268l43.45-11.643c4.001-1.071 6.375-5.185 5.303-9.186s-5.184-6.378-9.186-5.302z"/><path d="m205.904 221.111-43.45-11.643c-4.002-1.076-8.114 1.302-9.186 5.303s1.302 8.114 5.303 9.186l43.451 11.644c2.38.637 4.041 2.803 4.041 5.267v4.623c0 4.143 3.357 7.5 7.5 7.5s7.5-3.357 7.5-7.5v-4.623c0-9.243-6.234-17.367-15.159-19.757z"/><path d="m209.637 402.343c-3.514-2.191-8.14-1.118-10.332 2.398-11.196 17.967-26.54 33.492-44.372 44.9-3.489 2.231-4.508 6.87-2.275 10.359 2.231 3.489 6.869 4.508 10.359 2.275 19.699-12.602 36.649-29.754 49.019-49.602 2.19-3.514 1.116-8.139-2.399-10.33z"/><path d="m236.184 409.375c-4.143-.059-7.578 3.177-7.679 7.317-.413 17.148-5.708 33.726-15.313 47.937l-5.768 8.533c-2.319 3.432-1.418 8.095 2.014 10.414 3.433 2.319 8.094 1.418 10.414-2.014l5.768-8.533c11.216-16.596 17.399-35.951 17.882-55.976.099-4.14-3.178-7.578-7.318-7.678z"/><path d="m357.071 449.643c-17.833-11.408-33.177-26.936-44.373-44.901-2.191-3.516-6.816-4.587-10.332-2.398-3.516 2.191-4.589 6.816-2.398 10.332 12.369 19.848 29.32 37 49.02 49.603 3.489 2.232 8.128 1.215 10.359-2.275 2.232-3.491 1.214-8.13-2.276-10.361z"/><path d="m298.812 464.629c-9.605-14.211-14.9-30.788-15.313-47.937-.101-4.141-3.576-7.421-7.679-7.317-4.141.1-7.417 3.538-7.317 7.679.482 20.024 6.666 39.38 17.882 55.976l5.768 8.533c1.449 2.145 3.813 3.301 6.221 3.301 5.907 0 9.608-6.67 6.207-11.701z"/><path d="m221.812 95.219c-18.001-34.231-46.471-67.571-82.573-92.34-8.821-6.047-20.981-2.161-24.719 7.86l-1.133 3.035c-9.676 25.928-12.449 54.071-8.021 81.389l-.001-.007 3.952 24.39c-4.667 14.352-6.9 28.277-6.242 43.885.381 9.028-4.644 17.657-12.801 21.984-5.289 2.805-10.752 5.448-16.237 7.855-5.801 2.543-8.123 9.561-4.989 15.064l14.665 25.745-4.73 6.943c-24.293 35.658-39.812 77.154-44.881 120.004l-3.875 32.762c-.376 3.183 1.312 6.253 4.2 7.641 2.89 1.388 6.34.787 8.59-1.495l8.421-8.545c5.73-5.814 12.654-10.349 20.207-13.32-4.927 12.087-6.692 24.316-5.607 36.615-9.183 17.792-15.817 36.81-19.726 56.561l-6.294 31.802c-.915 4.626 2.625 8.956 7.357 8.956h417.254c4.724 0 8.274-4.322 7.357-8.956l-6.293-31.802c-3.909-19.75-10.543-38.768-19.727-56.562 1.085-12.298-.68-24.526-5.607-36.614 7.553 2.972 14.477 7.505 20.207 13.319l8.42 8.545c2.251 2.285 5.702 2.883 8.59 1.497 2.889-1.389 4.576-4.459 4.2-7.642l-3.875-32.762c-5.067-42.849-20.587-84.346-44.88-120.004l-4.73-6.943 14.666-25.746c3.128-5.495.819-12.516-4.989-15.063-5.478-2.403-10.94-5.046-16.237-7.855-8.158-4.326-13.183-12.955-12.802-21.984.657-15.57-1.563-29.495-6.242-43.885l3.951-24.383c4.428-27.317 1.654-55.461-8.021-81.389l-1.133-3.035c-3.738-10.021-15.898-13.908-24.719-7.86-36.101 24.769-64.571 58.109-82.573 92.34-.532.95-1.706 1.411-2.881 1.115-14.746-3.7-24.967-3.224-36.382-3.224-6.984-.14-17.006.901-26.308 3.241-1.083.278-2.236-.102-2.903-1.304zm74.466 14.165 9.503 10.711c-.917 2.012-1.806 4.037-2.665 6.074-1.751 4.147-.412 8.887 3.251 11.522 1.948 1.402-.335-.359 38.533 30.333l-6.14-.819c-26.063-3.476-48.884-20.562-59.558-44.59l-6.102-13.736c3.554.462 7.081 1.13 10.559 2.003 4.396 1.105 8.868.487 12.619-1.498zm65.935 15.049 2.834 8.715c3.615 11.115 4.782 22.857 3.465 34.408l-49.906-39.408c11.671-26.238 28.643-50.273 49.518-70.172 1.007 10.263.685 20.582-.969 30.788l-5.212 32.149c-.192 1.178-.098 2.385.27 3.52zm-133.93-13.535c3.497-.88 7.044-1.554 10.618-2.018l-6.102 13.736c-10.674 24.028-33.495 41.114-59.558 44.59l-6.14.819c38.921-30.735 36.567-28.916 38.531-30.333 3.662-2.638 5.001-7.374 3.255-11.521-.857-2.032-1.746-4.06-2.666-6.077l9.507-10.715c3.746 1.993 8.196 2.617 12.555 1.519zm227.216 386.105h-63.373l33.515-36.27c6.242-6.755 11.122-14.458 14.565-22.694 8.412 20.772 10.447 34.475 15.293 58.964zm-26.757-137.332c-5.7-.762-10.117 4.946-7.927 10.281l5.792 14.117c9.236 22.515 4.533 48.61-11.982 66.484l-42.923 46.449h-231.4l-11.51-12.457c-2.813-3.042-7.557-3.229-10.599-.419-3.042 2.812-3.229 7.557-.419 10.599l2.104 2.277h-63.373c4.814-24.324 6.871-38.165 15.294-58.963 3.443 8.236 8.323 15.938 14.565 22.693l7.765 8.402c1.478 1.6 3.49 2.41 5.51 2.41 6.477 0 9.955-7.776 5.506-12.59l-7.764-8.402c-16.517-17.874-21.22-43.97-11.983-66.484l5.791-14.117c2.186-5.324-2.216-11.044-7.927-10.281-13.013 1.73-25.399 7.005-35.679 15.087l1.416-11.969c4.718-39.884 18.917-78.881 42.979-114.199l18.55 32.566c12.581 22.087 34.278 37.485 59.012 42.232.043 1.563.21 3.122.504 4.656l-27.973 12.018c-15.671 6.732-29.718 16.277-41.75 28.368-2.922 2.936-2.91 7.685.026 10.606 2.934 2.921 7.683 2.911 10.606-.026 10.674-10.727 23.136-19.193 37.039-25.167l26.986-11.594c1.399 2.548 3.041 4.935 4.9 7.116l-18.764 15.328c-13.211 10.792-24.084 23.838-32.317 38.775-2.784 5.051.953 11.121 6.562 11.121 2.645 0 5.208-1.401 6.575-3.881 7.304-13.251 16.95-24.825 28.671-34.398l21.208-17.324c6.37 3.454 13.494 5.208 20.752 5.077 24.804 18.015 62.052 18.036 86.886-.007 7.113.125 14.238-1.572 20.732-5.079l21.218 17.333c11.721 9.573 21.367 21.147 28.671 34.398 2.001 3.63 6.566 4.946 10.188 2.948 3.628-1.999 4.947-6.562 2.948-10.188-8.233-14.938-19.106-27.983-32.317-38.775l-18.761-15.326c1.885-2.19 3.542-4.569 4.944-7.098l26.939 11.574c13.903 5.974 26.365 14.44 37.039 25.167 2.921 2.934 7.669 2.95 10.606.026 2.937-2.922 2.948-7.671.026-10.606-12.032-12.091-26.079-21.636-41.75-28.368l-27.974-12.018c.294-1.536.461-3.097.504-4.661 20.193-3.896 38.674-14.999 51.533-31.171 2.578-3.242 2.04-7.96-1.202-10.538-3.241-2.577-7.96-2.04-10.538 1.202-10.774 13.548-26.315 22.792-43.27 25.898-2.301-4.263-5.648-7.907-9.786-10.583-4.247-2.747-8.79-5.08-13.502-6.936-3.857-1.521-8.21.377-9.727 4.23-1.518 3.854.377 8.209 4.23 9.727 3.788 1.491 7.438 3.366 10.853 5.574 2.916 1.886 5.02 4.766 5.931 8.117.95 3.704.328 5.913-.2 8.458-3.653 17.61-23.264 27.052-39.38 18.481l-21.083-11.211c-1.741-.926-2.822-2.725-2.822-4.695v-4.314l25.232-27.067c3.852-4.132 1.921-10.931-3.591-12.371l-6.599-1.724c-14.748-3.85-30.339-3.85-45.087 0l-6.598 1.724c-5.476 1.431-7.467 8.213-3.591 12.371l25.232 27.067v4.314c0 1.971-1.081 3.77-2.822 4.695l-21.083 11.211c-3.154 1.677-6.51 2.688-9.897 3.052-.33.008-.659.037-.985.088-6.266.443-12.581-1.314-17.862-5.15-.103-.08-.208-.157-.314-.232-5.542-4.146-9.065-10.178-10.439-16.809l-.28-1.354c-.437-2.104-.381-4.309.159-6.385 1.049-3.262 3.497-6.111 6.907-8.036 3.994-2.256 8.265-4.171 12.693-5.693 3.917-1.347 6.001-5.614 4.654-9.531-1.347-3.918-5.618-5.998-9.531-4.654-5.292 1.819-10.403 4.113-15.191 6.816-4.782 2.701-8.641 6.448-11.262 10.862-20.821-3.723-39.132-16.559-49.687-35.088-38.084-66.861 11.89 20.874-39.127-68.692 4.349-2.006 8.661-4.142 12.869-6.373 13.234-7.021 21.383-21.1 20.759-35.869-.536-12.709 1.187-25.285 5.119-37.379l.964-2.961c.368-1.135.462-2.341.271-3.52l-4.243-26.183c-4.013-24.753-1.498-50.256 7.273-73.751.538-1.44 1.938-2.408 3.485-2.408h1.769c30.118 21.1 55.366 49.016 73.359 81.081l-7.044 7.939c-.154-.285-.309-.569-.464-.853-1.987-3.633-6.545-4.968-10.18-2.98-3.634 1.988-4.968 6.546-2.98 10.18 2.864 5.236 5.552 10.664 8.008 16.185l-49.901 39.405c-1.322-11.543-.157-23.283 3.46-34.403l2.833-8.722c.369-1.135.461-2.34.271-3.518l-5.211-32.152c-1.653-10.205-1.977-20.523-.97-30.785 8.253 7.86 15.918 16.378 22.862 25.411 2.525 3.282 7.233 3.898 10.518 1.375 3.284-2.525 3.899-7.233 1.375-10.518-9.46-12.304-20.173-23.714-31.842-33.913-5.842-5.105-15.057-1.881-16.409 5.764-2.649 14.953-2.764 30.116-.341 45.066l4.921 30.361-2.271 6.992c-5.366 16.497-6.177 34.151-2.344 51.057 1.338 5.894 7.622 8.961 12.975 6.761l31.901-4.255c31.193-4.16 58.508-24.61 71.284-53.369l9.149-20.596h.688l9.149 20.596c12.776 28.759 40.091 49.209 71.284 53.369l31.886 4.253c5.4 2.236 11.677-.893 13.001-6.761 3.821-16.912 3.007-34.567-2.354-51.058l-2.272-6.988 4.921-30.357c2.422-14.951 2.307-30.115-.341-45.068-1.351-7.632-10.556-10.882-16.41-5.766-21.094 18.437-38.874 40.723-52.212 65.298l-7.052-7.948c18.38-32.755 44.328-61.178 75.305-82.43.761-.525 1.844-.164 2.18.735l1.133 3.035c8.767 23.493 11.279 48.993 7.268 73.744l-4.242 26.176c-.191 1.179-.098 2.385.271 3.52l.963 2.958c3.934 12.097 5.656 24.674 5.12 37.382-.624 14.771 7.525 28.851 20.76 35.869 4.213 2.234 8.524 4.369 12.868 6.373-20.111 35.308 4.895-8.595-26.914 47.251-2.051 3.599-.795 8.179 2.805 10.229 3.596 2.052 8.178.795 10.229-2.805l6.337-11.125c24.054 35.306 38.26 74.303 42.979 114.199l1.416 11.969c-10.281-8.077-22.669-13.354-35.681-15.083zm-172.74-48-13.008-13.953c8.596-1.527 17.422-1.527 26.016 0zm0 34.035c2.209 1.792 2.186 1.59 22.919 12.615-14.181 5.618-31.375 5.73-45.838 0 21.87-11.629 20.876-10.958 22.919-12.615z"/><path d="m250.52 207.993c-1.831-12.185-6.786-23.773-14.331-33.515-2.538-3.275-7.25-3.872-10.522-1.337-3.274 2.537-3.873 7.248-1.337 10.522 5.979 7.719 9.906 16.902 11.356 26.558l.7 4.661c.559 3.719 3.758 6.387 7.407 6.387 4.57 0 8.112-4.055 7.427-8.615z"/><path d="m286.337 173.142c-3.274-2.537-7.985-1.938-10.522 1.337-7.545 9.741-12.5 21.33-14.331 33.515l-.7 4.661c-.615 4.097 2.207 7.916 6.303 8.531 4.097.614 7.916-2.206 8.531-6.303l.7-4.661c1.45-9.655 5.378-18.839 11.356-26.558 2.536-3.274 1.937-7.985-1.337-10.522z"/></g></svg>