<svg id="Capa_1" enable-background="new 0 0 512.005 512.005" height="512" viewBox="0 0 512.005 512.005" width="512" xmlns="http://www.w3.org/2000/svg"><g><path d="m238.292 496.331c-25.124-11.597-45.812-31.025-58.964-55.371l-1.991-3.686-.411 1.895c-2.551 11.761-1.685 24.006 2.496 35.291l2.896 7.819-23.355-20.615c-14.788-13.054-22.391-32.426-20.428-52.054l.471-4.714-2.178 2.404c-6.656 7.346-11.074 16.441-12.735 26.214l-.852 5.014-22.566-47.971c-1.503-3.196-2.853-6.446-4.064-9.736-23.874 34.271-37.133 76.921-34.578 123.684h193.966z" fill="#a298a5"/><path d="m415.389 380.82c-1.211 3.29-2.561 6.54-4.064 9.736l-22.566 47.971-.852-5.014c-1.661-9.773-6.079-18.868-12.735-26.214l-2.177-2.403.471 4.714c1.963 19.627-5.64 39-20.428 52.053l-23.355 20.616 2.897-7.819c4.18-11.284 5.046-23.529 2.496-35.29l-.411-1.896-1.99 3.684c-13.152 24.347-33.841 43.776-58.965 55.373l-17.708 8.174h193.966c2.553-46.763-10.705-89.414-34.579-123.685z" fill="#a298a5"/><path d="m217.909 484.505h-155.996c-.276 6.573-.247 13.242.122 20h193.966l-17.708-8.174c-7.187-3.317-13.996-7.296-20.384-11.826z" fill="#8b818e"/><path d="m415.389 380.82c-1.211 3.29-2.561 6.54-4.064 9.736l-10.375 22.056c3.721 11.66 6.403 23.835 7.907 36.436 2.25 18.848-12.399 35.457-31.381 35.457h-83.383c-6.388 4.531-13.197 8.509-20.384 11.826l-17.708 8.174h193.966c2.554-46.763-10.704-89.414-34.578-123.685z" fill="#8b818e"/><path d="m109.458 52.545c1.298 17.016 6.047 33.589 13.959 48.709l-.144.925c-2.004 12.883-.868 26.05 3.297 38.384 12.974-17.485 28.75-32.846 46.788-45.415 3.838-2.674 5.406-7.589 3.825-11.992l-10.825-30.153c-5.905-16.451-16.783-30.424-31.351-40.232-4.06-1.83-8.245-3.412-12.533-4.73-8.074-2.482-16.106 4.002-15.464 12.424z" fill="#c6c1c8"/><path d="m402.543 52.545c-1.298 17.016-6.047 33.589-13.959 48.709l.144.925c2.004 12.883.868 26.05-3.297 38.384-12.974-17.485-28.75-32.846-46.788-45.415-3.838-2.674-5.406-7.589-3.825-11.992l10.825-30.153c5.905-16.451 16.783-30.424 31.351-40.232 4.06-1.83 8.245-3.412 12.533-4.73 8.074-2.482 16.106 4.002 15.464 12.424z" fill="#afaab4"/><path d="m412.497 178.864-21.033-29.712c6.969 10.488 12.974 21.65 17.909 33.357l.056.112c6.118 12.235 6.118 26.636 0 38.871-11.654 27.867-35.338 48.232-63.532 56.087-9.147 2.548-17.201 7.842-23.591 14.866-14.13 15.531-45.459 24.668-66.305 24.668s-52.175-9.137-66.305-24.668c-6.39-7.023-14.444-12.318-23.591-14.866-28.194-7.855-51.878-28.22-63.532-56.087-5.217-12.475-5.197-26.524.056-38.984 4.935-11.706 10.939-22.867 17.908-33.355l-21.032 29.711c-22.751 32.14-32.862 71.537-28.401 110.661l3.146 27.588 2.495-5.935c4.06-9.656 12.033-17.131 21.93-20.561l-3.31 9.927c-9.859 29.572-7.957 61.805 5.312 90.012l22.566 47.971.852-5.014c1.661-9.773 6.079-18.868 12.735-26.214l2.178-2.404-.471 4.714c-1.963 19.627 5.64 39 20.428 52.054l23.355 20.615-2.896-7.818c-4.181-11.285-5.047-23.53-2.496-35.291l.411-1.895 1.991 3.686c13.151 24.346 33.84 43.774 58.964 55.371l17.708 8.174 17.708-8.174c25.125-11.597 45.814-31.026 58.965-55.373l1.99-3.684.411 1.896c2.551 11.76 1.685 24.005-2.496 35.29l-2.897 7.819 23.355-20.616c14.788-13.053 22.391-32.426 20.428-52.053l-.471-4.714 2.177 2.403c6.656 7.346 11.075 16.441 12.735 26.214l.852 5.014 22.566-47.971c13.269-28.207 15.171-60.44 5.312-90.012l-3.31-9.927c9.897 3.43 17.87 10.905 21.93 20.561l2.495 5.935 3.146-27.589c4.461-39.124-5.65-78.52-28.401-110.66z" fill="#a298a5"/><path d="m412.497 178.864-21.033-29.712c6.969 10.488 12.974 21.65 17.909 33.357l.056.112c6.118 12.235 6.118 26.636 0 38.872-2.277 5.446-5.014 10.604-8.154 15.44.977 10.777.865 21.695-.377 32.593l-2.416 21.192c-.196 1.722-2.553 2.06-3.225.462-2.593-6.167-6.781-11.444-12.048-15.346-3.341-2.476-7.888.766-6.572 4.712 9.859 29.572 7.957 61.805-5.312 90.012l-20.401 43.368c-.665 1.414-2.755 1.128-3.017-.412-1.661-9.773-6.079-18.868-12.735-26.214-.692-.764-1.957-.202-1.855.824l.149 1.488c1.963 19.627-5.64 39-20.428 52.053l-17.104 15.098c-1.634 1.443-4.112-.257-3.355-2.301 4.18-11.284 5.046-23.529 2.496-35.29-.141-.651-1.016-.775-1.333-.189l-1.068 1.977c-13.152 24.347-33.84 43.776-58.965 55.373l-16.575 7.651c6.606 4.758 13.686 8.9 21.158 12.349l17.708 8.174 17.708-8.174c25.125-11.597 45.814-31.026 58.965-55.373l1.99-3.684.411 1.896c2.551 11.76 1.685 24.005-2.496 35.29l-2.897 7.819 23.355-20.616c14.788-13.053 22.391-32.426 20.428-52.053l-.471-4.714 2.177 2.403c6.656 7.346 11.075 16.441 12.735 26.214l.852 5.014 22.566-47.971c13.269-28.207 15.171-60.44 5.312-90.012l-3.31-9.927c9.897 3.43 17.87 10.905 21.93 20.561l2.495 5.934 3.146-27.589c4.463-39.125-5.648-78.521-28.399-110.661z" fill="#8b818e"/><path d="m409.429 182.62-.056-.112c-14.847-35.219-39.371-65.509-70.73-87.36-3.838-2.674-5.406-7.589-3.825-11.992l10.825-30.153c5.905-16.451 16.783-30.424 31.351-40.232-15.438 6.961-29.065 17.518-39.695 30.864l-21.239 26.666c-2.651 3.329-7.091 4.707-11.136 3.386-3.902-1.274-8.003-1.934-12.156-1.934h-73.532c-4.153 0-8.254.66-12.156 1.934-4.046 1.321-8.485-.057-11.136-3.386l-21.239-26.667c-10.63-13.346-24.256-23.903-39.695-30.864 14.568 9.808 25.446 23.781 31.351 40.232l10.825 30.153c1.58 4.402.013 9.318-3.825 11.992-31.359 21.851-55.883 52.141-70.73 87.36-5.253 12.46-5.273 26.509-.056 38.984 11.654 27.867 35.338 48.232 63.532 56.087 9.147 2.548 17.201 7.842 23.591 14.866 14.13 15.531 45.459 24.668 66.305 24.668s52.175-9.137 66.305-24.668c6.39-7.024 14.444-12.318 23.591-14.866 28.194-7.855 51.878-28.22 63.532-56.087 6.115-12.235 6.115-26.636-.002-38.871z" fill="#a298a5"/><path d="m409.429 182.62-.056-.112c-14.847-35.219-39.371-65.509-70.73-87.36-3.838-2.674-5.406-7.589-3.825-11.992l10.825-30.153c5.905-16.451 16.783-30.424 31.351-40.232-15.438 6.961-29.065 17.518-39.695 30.864l-21.239 26.666c-2.651 3.329-7.091 4.707-11.136 3.386-3.902-1.274-8.003-1.934-12.156-1.934h-73.532c-4.153 0-8.254.66-12.156 1.934-4.046 1.321-8.485-.057-11.136-3.386l-21.239-26.667c-10.63-13.346-24.256-23.903-39.695-30.864 14.568 9.808 25.446 23.781 31.351 40.232l10.825 30.153c1.58 4.402.013 9.318-3.825 11.992-31.359 21.851-55.883 52.141-70.73 87.36-5.253 12.46-5.273 26.509-.056 38.984 11.654 27.867 35.338 48.232 63.532 56.087 9.147 2.548 17.201 7.842 23.591 14.866 14.13 15.531 45.459 24.668 66.305 24.668s52.175-9.137 66.305-24.668c6.39-7.024 14.444-12.318 23.591-14.866 28.194-7.855 51.878-28.22 63.532-56.087 6.115-12.235 6.115-26.636-.002-38.871z" fill="#a298a5"/><path d="m409.429 182.62-.056-.112c-14.847-35.219-39.371-65.509-70.73-87.36-3.838-2.674-5.406-7.589-3.825-11.992l10.825-30.153c5.905-16.451 16.783-30.424 31.351-40.232-15.438 6.961-29.065 17.518-39.695 30.864l-21.239 26.667c-2.651 3.329-7.091 4.707-11.136 3.386-3.008-.982-6.135-1.599-9.312-1.83.741 1.276 1.762 2.406 3.032 3.291 31.359 21.851 55.883 52.141 70.73 87.36l.056.112c6.118 12.235 6.118 26.636 0 38.871-11.654 27.867-35.338 48.232-63.532 56.087-9.147 2.548-17.201 7.843-23.591 14.866-14.13 15.531-45.459 24.668-66.305 24.668-7.44 0-16.214-1.164-25.066-3.367 14.654 14.739 44.809 23.367 65.066 23.367 20.846 0 52.175-9.137 66.305-24.668 6.39-7.024 14.444-12.318 23.591-14.866 28.194-7.855 51.878-28.22 63.532-56.087 6.116-12.236 6.116-26.637-.001-38.872z" fill="#8b818e"/><path d="m256.001 261.089-23.888-23.888c-2.608-2.608-1.912-7 1.373-8.675 14.144-7.21 30.886-7.21 45.03 0 3.285 1.675 3.981 6.068 1.373 8.675z" fill="#665e66"/><path d="m249.086 397.011 2.245 1.786c2.729 2.171 6.601 2.178 9.34 0l2.246-1.787c7.966-6.341 14.124-14.522 18.01-23.76l.981 2.859c1.406 4.098 5.984 6.153 9.979 4.489 15.722-6.55 27.678-19.621 32.804-35.862 1.247-3.949-.945-8.162-4.895-9.409-3.951-1.251-8.163.944-9.41 4.896-2.999 9.503-9.159 17.538-17.359 22.881-2.759-5.313-7.421-9.368-13.19-11.369-4.369-1.517-9.064 1.253-9.849 5.813-1.705 9.904-6.631 18.9-13.986 25.651-7.355-6.751-12.282-15.748-13.985-25.65-.785-4.56-5.476-7.33-9.849-5.814-5.768 2-10.431 6.057-13.19 11.369-8.2-5.343-14.36-13.378-17.359-22.881-1.247-3.951-5.457-6.145-9.41-4.896-3.95 1.247-6.142 5.46-4.895 9.409 5.125 16.241 17.082 29.313 32.804 35.862 3.995 1.662 8.572-.39 9.979-4.489l.981-2.859c3.883 9.237 10.041 17.419 18.008 23.761z"/><path d="m208.897 173.654-39.796-10.664c-3.997-1.074-8.114 1.302-9.186 5.303s1.302 8.113 5.303 9.186l39.796 10.664c1.904.511 3.234 2.243 3.234 4.215v4.234c0 4.143 3.358 7.5 7.5 7.5s7.5-3.357 7.5-7.5v-4.234c0-8.749-5.902-16.44-14.351-18.704z"/><path d="m342.901 162.99-39.795 10.664c-8.451 2.264-14.353 9.955-14.353 18.703v4.234c0 4.143 3.358 7.5 7.5 7.5s7.5-3.357 7.5-7.5v-4.234c0-1.971 1.33-3.704 3.235-4.215l39.796-10.664c4.001-1.072 6.375-5.185 5.303-9.186-1.073-4-5.183-6.379-9.186-5.302z"/><path d="m237.01 153.982c-9.004-19.011-21.151-36.153-36.102-50.951-2.943-2.912-7.692-2.889-10.606.055s-2.889 7.693.055 10.606c9.278 9.183 17.378 19.352 24.204 30.368-8.804-4.545-18.117-8.103-27.698-10.549-4.012-1.023-8.097 1.398-9.122 5.411-1.025 4.014 1.398 8.098 5.411 9.122 17.083 4.362 33.203 12.715 46.619 24.154 2.691 2.295 6.62 2.397 9.426.247 2.808-2.149 3.732-5.969 2.218-9.164z"/><path d="m334.262 138.922c-1.025-4.014-5.108-6.436-9.123-5.411-9.582 2.446-18.894 6.004-27.698 10.549 6.826-11.017 14.926-21.185 24.203-30.368 2.944-2.913 2.968-7.662.055-10.606-2.914-2.942-7.663-2.968-10.606-.054-14.951 14.797-27.097 31.939-36.101 50.95l-4.405 9.3c-1.514 3.195-.589 7.015 2.218 9.165 2.808 2.15 6.736 2.046 9.427-.248 13.415-11.439 29.535-19.792 46.618-24.154 4.014-1.025 6.436-5.109 5.412-9.123z"/><path d="m68.424 440.991c-4.034-.923-8.061 1.597-8.986 5.634-4.328 18.871-5.973 38.481-4.891 58.289.217 3.978 3.505 7.091 7.489 7.091h387.932c3.983 0 7.271-3.113 7.489-7.091 2.473-45.28-9.178-88.469-33.721-125.169 7.278-21.69 8.626-44.789 3.917-67.18.502 1.025.488 1.037 3.186 7.454 1.322 3.145 4.595 5.003 7.977 4.517 3.377-.483 6.002-3.185 6.389-6.574l3.146-27.588c4.676-41.012-5.882-82.153-29.731-115.844-29.416-41.554-21.096-30.016-24.901-35.347 3.416-11.863 4.326-24.427 2.641-36.659 7.749-15.489 12.343-32.099 13.664-49.409l2.446-32.08c1.044-13.679-12.021-24.194-25.145-20.164-22.671 6.967-42.017 20.671-55.891 38.091l-21.239 26.666c-.714.897-1.896 1.274-2.941.93-4.684-1.529-9.557-2.305-14.484-2.305h-73.532c-4.928 0-9.801.775-14.483 2.305-1.046.341-2.228-.032-2.943-.93l-21.242-26.666c-13.976-17.549-33.369-31.168-55.892-38.091-13.082-4.026-26.19 6.447-25.145 20.164 2.632 34.508 2.555 34.166 3.075 38.354.502 4.046 4.179 7.028 8.367 6.52 4.111-.511 7.029-4.257 6.519-8.367-.467-3.765-.364-3.04-3.004-37.647-.238-3.123 2.73-5.626 5.781-4.686 3.753 1.154 7.476 2.546 11.075 4.141 12.988 8.903 22.647 21.402 27.954 36.188l.846 2.357c-6.561-6.454-16.037-8.612-24.748-5.626-3.918 1.343-6.007 5.607-4.665 9.526 1.342 3.918 5.605 6.008 9.525 4.665 3.308-1.136 6.904-.31 9.39 2.149l20.029 19.814c-.029.037-.06.074-.091.11l-7.93-6.41c-7.179-5.805-16.852-7.018-25.242-3.17-3.765 1.728-5.417 6.18-3.69 9.944s6.178 5.415 9.944 3.69c3.177-1.458 6.84-.999 9.558 1.2l5.033 4.069c-9.743 7.858-18.727 16.542-26.866 25.943-.966-7.707-.66-14.34.435-21.395.246-1.585-.022-3.206-.766-4.627-1.322-2.526-2.566-5.131-3.698-7.74-1.649-3.801-6.066-5.544-9.866-3.895-3.8 1.648-5.543 6.065-3.895 9.865.949 2.187 1.967 4.369 3.04 6.516-1.687 12.231-.776 24.797 2.641 36.661-3.267 4.577 3.942-5.401-24.902 35.346-23.849 33.691-34.408 74.832-29.731 115.844l3.146 27.588c.386 3.39 3.012 6.091 6.389 6.574 3.376.486 6.655-1.372 7.977-4.517 2.674-6.36 2.699-6.46 3.186-7.454-4.708 22.392-3.361 45.491 3.918 67.181-6.666 9.977-12.454 20.58-17.228 31.57-1.65 3.799.091 8.217 3.89 9.867 3.791 1.647 8.213-.083 9.868-3.891 3.063-7.049 6.576-13.927 10.498-20.559l21.161 44.985c1.395 2.966 4.554 4.688 7.801 4.238 3.247-.443 5.831-2.943 6.379-6.175.709-4.171 1.023-6.415 1.753-9.133 3.131 14.016 10.607 26.923 21.611 36.636l23.354 20.615c2.577 2.274 6.371 2.506 9.206.562 2.834-1.943 3.985-5.566 2.791-8.79-2.827-7.63-4.544-11.602-5.612-18.032 10.757 14.23 24.303 26.315 39.689 35.364h-154.166c-.31-15.987 1.298-31.774 4.796-47.026.926-4.037-1.597-8.06-5.634-8.986zm374.318 56.014h-154.169c15.386-9.049 28.932-21.134 39.69-35.365-1.043 6.278-2.494 9.615-5.613 18.033-1.194 3.224-.044 6.846 2.791 8.79 2.835 1.945 6.629 1.713 9.206-.562l23.355-20.615c11.003-9.714 18.479-22.619 21.611-36.635.739 2.751.973 4.543 1.753 9.132.549 3.231 3.132 5.731 6.379 6.175 3.25.45 6.406-1.272 7.801-4.238l21.165-44.994c17.819 30.068 26.737 64.359 26.031 100.279zm-62.08-477.659c3.595-1.592 7.315-2.983 11.067-4.137 3.066-.944 6.019 1.577 5.782 4.686l-2.446 32.08c-1.227 16.093-5.644 31.503-13.126 45.802-.744 1.423-1.013 3.046-.766 4.632 1.101 7.052 1.396 13.721.435 21.39-8.139-9.401-17.123-18.084-26.866-25.942l5.034-4.069c2.718-2.198 6.38-2.657 9.558-1.199 3.766 1.729 8.217.074 9.944-3.69s.075-8.217-3.69-9.944c-8.392-3.851-18.064-2.636-25.242 3.169l-7.931 6.411c-.031-.036-.062-.073-.091-.11l20.03-19.815c2.485-2.458 6.083-3.283 9.39-2.148 3.917 1.34 8.184-.746 9.525-4.665 1.342-3.919-.747-8.184-4.665-9.526-8.713-2.985-18.189-.827-24.748 5.627l.846-2.358c5.308-14.792 14.969-27.292 27.96-36.194zm-194.734 418.05-1.991-3.687c-1.492-2.76-4.541-4.295-7.651-3.861-3.107.44-5.612 2.769-6.277 5.835l-.411 1.896c-1.605 7.403-2.005 14.954-1.217 22.393l-4.453-3.931c-12.944-11.426-19.646-28.504-17.929-45.685l.471-4.714c.322-3.222-1.46-6.286-4.419-7.601-2.96-1.316-6.428-.581-8.602 1.818l-2.178 2.403c-4.027 4.445-7.333 9.434-9.836 14.803-15.124-32.152-15.457-32.566-17.644-38.419-.087-.289-.192-.574-.314-.852-8.783-24.083-9.19-50.305-.997-74.879l3.309-9.927c1.964-5.89-3.702-11.495-9.57-9.459-6.485 2.248-12.293 5.95-17.026 10.735l-.638-5.591c-3.179-27.877 1.374-55.82 12.921-80.958.553 5.702 1.945 11.331 4.177 16.668 7.556 18.069 19.728 33.288 35.081 44.392-2.99 1.573-5.942 3.224-8.85 4.953-3.561 2.116-4.732 6.718-2.616 10.279 2.109 3.549 6.708 4.737 10.279 2.615 5.345-3.177 10.847-6.072 16.479-8.677 5.736 2.803 11.776 5.104 18.066 6.856 7.46 2.078 14.395 6.466 20.056 12.688 15.445 16.977 48.662 27.121 71.853 27.121s56.408-10.145 71.853-27.121c5.661-6.222 12.596-10.609 20.056-12.688 6.213-1.731 12.248-4.04 18.02-6.877 5.647 2.611 11.164 5.513 16.524 8.698 3.545 2.106 8.153.961 10.279-2.615 2.116-3.562.945-8.163-2.616-10.279-2.93-1.741-5.904-3.405-8.918-4.988 4.061-2.938 7.916-6.169 11.523-9.671 2.972-2.886 3.042-7.634.157-10.605-2.885-2.974-7.633-3.041-10.605-.158-5.137 4.987-10.859 9.334-17.006 12.95-10.326-4.299-21.007-7.718-31.904-10.215-8.679-23.142-30.633-27.984-51.587-29.271-16.154-8.176-35.401-8.176-51.554 0-20.954 1.286-42.909 6.128-51.587 29.271-10.917 2.502-21.617 5.928-31.96 10.238-16.523-9.687-29.582-24.5-37.185-42.683-4.412-10.549-4.394-22.641.048-33.177 4.706-11.162 10.409-21.798 17.019-31.796.149-.21.258-.362.418-.63 13.01-19.512 29.957-37.262 50.668-51.694 6.594-4.594 9.32-13.095 6.597-20.68l-8.478-23.615 14.311 17.968c4.595 5.77 12.365 8.117 19.331 5.844 3.178-1.038 6.484-1.564 9.828-1.564h73.532c3.344 0 6.65.526 9.829 1.564 6.968 2.271 14.735-.074 19.33-5.844l14.311-17.968-8.478 23.615c-2.724 7.586.004 16.086 6.597 20.68 17.215 11.996 32.338 26.644 44.829 43.413.145.218.301.429.468.631 3.692 4.998 5.309 7.601 5.793 8.285 11.266 17.04 16.339 30.471 17.275 32.344 5.035 10.07 5.035 22.094 0 32.164-.075.15-.145.303-.21.458-.424 1.012-.864 2.013-1.321 3.003-1.736 3.761-.096 8.217 3.665 9.954 3.784 1.746 8.227.073 9.953-3.665.495-1.072.98-2.172 1.444-3.273 2.468-5 4.063-10.335 4.786-15.768 11.168 24.844 15.539 52.367 12.408 79.828l-.638 5.591c-4.732-4.785-10.541-8.487-17.026-10.735-5.862-2.036-11.536 3.565-9.57 9.459l3.309 9.927c8.194 24.578 7.786 50.804-1 74.89-.119.272-.222.55-.307.832-2.212 5.921-2.671 6.59-17.647 38.427-2.504-5.369-5.81-10.358-9.838-14.804l-2.177-2.402c-2.173-2.398-5.642-3.133-8.601-1.818s-4.741 4.379-4.419 7.601l.471 4.714c1.718 17.181-4.984 34.259-17.928 45.685l-4.453 3.931c.788-7.438.389-14.988-1.217-22.39l-.411-1.896c-.665-3.067-3.169-5.396-6.277-5.837-3.109-.436-6.161 1.101-7.652 3.862l-1.989 3.684c-12.3 22.77-32.014 41.282-55.51 52.128l-14.565 6.723-14.565-6.723c-23.494-10.846-43.207-29.359-55.506-52.126zm30.121-176.218c4.139-.166 7.359-3.655 7.194-7.794-.166-4.14-3.651-7.357-7.794-7.194-5.814.24-11.086.611-17.566 1.434 5.182-5.596 13.283-8.746 25.793-10.223.625 1.9 1.688 3.657 3.135 5.104l21.664 21.664v7.387c0 1.142-.767 2.16-1.865 2.476l-16.711 4.802c-1.755.508-3.611.178-5.089-.896l-8.37-6.085c-3.351-2.435-8.041-1.693-10.477 1.656-2.436 3.351-1.694 8.041 1.656 10.477l8.369 6.085c5.25 3.817 11.832 4.968 18.051 3.181l16.711-4.802c1.903-.547 3.66-1.404 5.223-2.505 1.563 1.101 3.319 1.957 5.222 2.504l16.713 4.804c6.281 1.802 12.848.599 18.05-3.182l7.836-5.697c3.351-2.436 4.092-7.126 1.656-10.477-2.435-3.349-7.126-4.091-10.477-1.656l-7.837 5.697c-1.478 1.074-3.332 1.402-5.087.897l-16.713-4.804c-1.097-.314-1.864-1.333-1.864-2.475v-7.333l21.718-21.718c1.447-1.447 2.51-3.204 3.135-5.104 12.508 1.477 20.609 4.626 25.791 10.222-6.271-.796-11.678-1.197-17.566-1.433-4.144-.143-7.628 3.056-7.794 7.194-.166 4.139 3.056 7.628 7.194 7.794 16.455.639 32.84 3.357 49.473 8.731-.513.153-1.026.302-1.542.445-10.183 2.836-19.563 8.729-27.126 17.043-12.089 13.288-41.176 22.215-60.757 22.215s-48.668-8.927-60.757-22.215c-7.563-8.313-16.943-14.207-27.125-17.043-.516-.144-1.03-.292-1.543-.445 16.641-5.375 32.886-8.067 49.476-8.731zm56.447-27.191-16.495 16.495-16.496-16.495c10.51-4.472 22.479-4.473 32.991 0z"/></g></svg>