<svg id="Capa_1" enable-background="new 0 0 512 512" height="512" viewBox="0 0 512 512" width="512" xmlns="http://www.w3.org/2000/svg"><g><path d="m116.17 193.401 4.513-16.357c6.874-24.913 20.055-47.632 38.271-65.964.005-.005.009-.009.014-.014.771-.775.83-2.006.102-2.822l-87.312-97.906c-7.034-1.87-14.331-2.838-21.719-2.838-19.551 0-33.445 19.03-27.49 37.652l24.969 78.082-.262 6.573c-.485 12.158 3.376 24.092 10.892 33.661l30.764 39.172c2.071 2.637 3.074 5.956 2.81 9.298-.964 12.206 6.076 23.635 17.411 28.265l3.511 1.434c-1.988-16.042-.835-32.434 3.526-48.236z" fill="#f9c6da"/><path d="m461.961 7.5c-7.388 0-14.686.968-21.719 2.838l-87.312 97.906c-.728.816-.669 2.047.102 2.822.005.005.009.009.014.014 18.216 18.332 31.397 41.051 38.271 65.964l4.513 16.357c4.36 15.802 5.514 32.194 3.526 48.237l3.511-1.434c11.335-4.63 18.375-16.059 17.411-28.265-.264-3.342.739-6.661 2.81-9.298l30.764-39.172c7.516-9.57 11.377-21.503 10.892-33.662l-.262-6.573 24.969-78.082c5.955-18.622-7.939-37.652-27.49-37.652z" fill="#efa5c3"/><path d="m179.484 199.724c9.745-6.194 17.068-15.547 20.742-26.494l4.035-12.021c3.026-9.017 12.974-13.674 21.837-10.224 3.902 1.519 8.324-.115 10.3-3.806l19.602-36.607 19.602 36.608c1.977 3.691 6.398 5.325 10.3 3.806 8.863-3.45 18.811 1.207 21.837 10.224l4.035 12.021c3.674 10.947 10.997 20.3 20.742 26.494 18.568 11.802 33.223 28.841 42.114 48.965l13.683 30.969c.663-1.455 1.311-2.917 1.944-4.387 11.128-25.852 13.059-54.739 5.573-81.871l-4.513-16.357c-6.874-24.913-20.055-47.632-38.271-65.964l-.014-.014c-.775-.78-.809-2.029-.077-2.85l87.287-97.879c-12.569 3.342-24.296 9.565-34.198 18.299l-66.92 59.026c-5.918 5.22-13.705 7.683-21.576 7.11-.084-.006-.167-.012-.251-.018l-29.178-1.995c-21.388-1.462-42.851-1.462-64.239 0l-29.178 1.995c-.084.006-.167.012-.251.018-7.87.574-15.658-1.89-21.576-7.11l-66.92-59.026c-9.901-8.733-21.629-14.957-34.198-18.299l87.287 97.879c.732.821.698 2.07-.077 2.85l-.014.014c-18.216 18.332-31.397 41.051-38.271 65.964l-4.513 16.357c-7.486 27.131-5.555 56.019 5.573 81.87.633 1.47 1.281 2.932 1.944 4.387l13.683-30.969c8.893-20.124 23.547-37.162 42.115-48.965z" fill="#8b818e"/><path d="m369.556 388.655c-6.594-6.109-12.074-13.171-16.316-20.871-6.68-12.124-5.039-27.073 3.733-37.781 8.982-10.964 16.932-22.74 23.747-35.178 2.714-4.953 5.247-10.012 7.594-15.166l-13.684-30.969c-8.892-20.125-23.546-37.163-42.114-48.965-9.745-6.194-17.068-15.547-20.742-26.494l-4.035-12.021c-3.026-9.017-12.974-13.674-21.837-10.224-3.902 1.519-8.324-.115-10.3-3.806l-19.602-36.608-19.602 36.608c-1.977 3.691-6.398 5.325-10.3 3.806-8.863-3.45-18.811 1.207-21.837 10.224l-4.035 12.021c-3.674 10.947-10.997 20.3-20.742 26.494-18.568 11.802-33.223 28.841-42.114 48.965l-13.683 30.969c2.347 5.154 4.88 10.212 7.594 15.166 6.815 12.438 14.765 24.214 23.747 35.178 8.772 10.708 10.413 25.658 3.732 37.782-4.243 7.7-9.722 14.761-16.316 20.871-25.16 23.31-43.259 54.428-50.317 90.089l-5.097 25.755h337.94l-5.098-25.757c-7.057-35.66-25.156-66.779-50.316-90.088z" fill="#f1f1f4"/><path d="m419.873 478.743c-7.058-35.66-25.156-66.779-50.317-90.089-6.594-6.109-12.073-13.17-16.316-20.87-6.681-12.124-5.04-27.074 3.732-37.782 8.982-10.964 16.932-22.74 23.747-35.178 2.714-4.953 5.247-10.012 7.594-15.166l-13.683-30.968c-4.05-9.166-9.296-17.692-15.562-25.375-2.278 14.85-7.676 32.029-18.349 51.509-6.815 12.438-14.765 24.214-23.747 35.178-8.772 10.709-10.413 25.658-3.732 37.782 4.243 7.699 9.722 14.761 16.316 20.87 25.161 23.31 43.259 54.428 50.317 90.089 2.639 13.335-7.565 25.757-21.159 25.757h-267.726l-3.958 20h337.94z" fill="#dfdde2"/><path d="m391.317 177.044c-6.874-24.913-20.055-47.632-38.271-65.964l-.014-.014c-.775-.78-.809-2.029-.077-2.85l87.287-97.879c-12.569 3.342-24.296 9.565-34.198 18.299l-66.92 59.026c-5.918 5.22-13.705 7.683-21.576 7.11-.084-.006-.167-.012-.251-.018l-.773-.053c16.419 17.667 28.364 39.046 34.792 62.343.73 8.443 13.213 30.662 7.751 66.271 6.266 7.683 11.512 16.208 15.562 25.375l13.683 30.969c.663-1.455 1.311-2.917 1.944-4.387 11.128-25.852 13.059-54.739 5.573-81.871z" fill="#756e78"/><path d="m256 327.762-21.005-18.829c-3.027-2.714-2.664-7.558.733-9.791 12.305-8.087 28.239-8.087 40.543 0 3.397 2.233 3.76 7.077.733 9.791z" fill="#8b818e"/><path d="m201.28 435.774c-3.797 1.654-5.534 6.074-3.879 9.871 11.315 25.963 31.579 39.686 58.599 39.686s47.282-13.723 58.599-39.685c1.655-3.798-.081-8.217-3.878-9.872-3.799-1.659-8.218.082-9.872 3.878-8.998 20.644-23.668 30.679-44.849 30.679s-35.851-10.035-44.848-30.678c-1.654-3.798-6.071-5.535-9.872-3.879z"/><path d="m15.405 47.436 24.565 76.822-.209 5.25c-.555 13.926 3.879 27.632 12.487 38.592l30.765 39.175c.91 1.157 1.347 2.604 1.231 4.074-1.212 15.354 7.445 29.594 21.583 35.602 2.184 13.86 6.004 24.773 11.034 35.816 3.301 7.248 6.977 14.353 11.028 21.288-11.895 1.999-17.108 3.319-50.984 10.887-4.042.902-6.587 4.912-5.685 8.954.78 3.492 3.878 5.867 7.313 5.867 1.262 0-1.139.439 34.556-7.535 7.795-1.741 15.637-3.196 23.514-4.366 3.959 5.82 8.174 11.464 12.622 16.894 3.06 3.735 5 8.059 5.775 12.527-14.008 6.781-27.561 14.513-40.577 23.157l-28.093 18.659c-3.451 2.291-4.39 6.946-2.098 10.396 2.297 3.456 6.952 4.387 10.397 2.098 27.324-18.147 38.097-25.813 56.48-35.531-3.735 6.341-8.357 12.083-13.763 17.091-27.194 25.195-45.375 57.746-52.577 94.135l-5.098 25.757c-.914 4.625 2.627 8.955 7.359 8.955h337.94c4.723 0 8.274-4.322 7.357-8.956l-5.097-25.757c-.804-4.063-4.748-6.697-8.813-5.901-4.063.804-6.705 4.75-5.901 8.813l3.324 16.801h-319.68l3.325-16.801c6.583-33.262 23.201-63.015 48.057-86.043 7.118-6.595 13.103-14.249 17.788-22.753 2.548-4.625 4.125-9.578 4.755-14.608 7.702-3.46 15.538-6.626 23.494-9.489 9.809 6.075 22.447 9.901 35.475 9.901h12.756c5.421 0 10.384-1.999 14.19-5.299 3.806 3.3 8.769 5.299 14.19 5.299h12.756c13.092 0 25.703-3.856 35.474-9.9 7.956 2.863 15.792 6.029 23.494 9.489.63 5.03 2.207 9.983 4.755 14.608 4.686 8.503 10.671 16.158 17.789 22.753 16.152 14.964 28.814 32.742 37.634 52.838 1.653 3.767 6.062 5.528 9.882 3.854 3.793-1.665 5.519-6.089 3.854-9.882-9.652-21.992-23.506-41.443-41.177-57.814-5.406-5.008-10.029-10.751-13.764-17.092 18.19 9.616 27.864 16.525 56.482 35.532 3.441 2.288 8.1 1.36 10.397-2.098 2.291-3.45 1.352-8.105-2.099-10.397l-28.094-18.659c-13.016-8.644-26.569-16.375-40.576-23.156.775-4.468 2.715-8.792 5.775-12.527 4.448-5.429 8.663-11.073 12.622-16.894 14.901 2.213 21.167 3.842 56.429 11.719 4.049.905 8.054-1.649 8.954-5.685.903-4.042-1.642-8.052-5.685-8.954-30.226-6.752-38.673-8.817-50.983-10.887 1.088-1.862 2.15-3.738 3.186-5.627 12.183-22.232 16.649-37.343 18.876-51.477 14.138-6.007 22.795-20.248 21.584-35.605-.116-1.468.32-2.914 1.231-4.072l30.764-39.173c8.608-10.961 13.043-24.667 12.487-38.593l-.209-5.25 14.006-43.801c1.262-3.945-.914-8.166-4.859-9.428-3.949-1.265-8.167.914-9.428 4.859l-14.409 45.062c-.267.834-.386 1.708-.351 2.583l.262 6.572c.414 10.367-2.888 20.57-9.296 28.731l-30.763 39.17c-3.244 4.129-4.804 9.287-4.389 14.521.449 5.7-1.449 11.135-5.027 15.219.127-12.208-1.436-24.456-4.716-36.342l-4.514-16.357c-6.75-24.466-19.38-47.038-36.652-65.588l2.46-2.759h10.093c11.033 0 21.406 4.297 29.207 12.099 2.931 2.929 7.678 2.928 10.607 0 2.929-2.93 2.929-7.678 0-10.607-9.876-9.876-22.775-15.631-36.61-16.402l2.648-2.969 6.141-1.681c10.641-2.915 21.78-1.512 31.365 3.951 3.598 2.051 8.179.797 10.229-2.802 2.052-3.599.797-8.179-2.802-10.229-8.891-5.068-18.763-7.574-28.733-7.405l47.804-53.604c5.786-1.361 11.715-2.051 17.66-2.051 14.484 0 24.759 14.07 20.347 27.867-1.546 4.834 2.066 9.786 7.146 9.786 3.175 0 6.123-2.032 7.142-5.218 7.509-23.482-9.979-47.435-34.635-47.435-22.718 0-44.318 8.407-60.878 23.012l-66.92 59.025c-4.34 3.827-10.051 5.684-16.092 5.253-34.185-2.337-57.271-4.572-94.702-2.013l-29.464 2.014c-6.022.448-11.729-1.427-16.069-5.254l-66.919-59.025c-16.253-14.336-37.776-23.012-60.878-23.012-24.656 0-42.144 23.951-34.634 47.436zm145.425 277.813c-2.523-3.08-4.966-6.234-7.325-9.453 7.718-.742 15.46-1.212 23.213-1.407-.535 7.554 1.346 14.967 5.209 21.246-4.364 1.671-8.692 3.43-12.982 5.276-1.525-5.589-4.242-10.933-8.115-15.662zm95.17-7.559-14.698-13.177c9.096-5.254 20.3-5.254 29.396 0zm95.17 7.56c-3.873 4.729-6.59 10.072-8.115 15.66-4.29-1.846-8.618-3.605-12.982-5.276 3.863-6.279 5.745-13.692 5.21-21.246 7.753.196 15.495.666 23.213 1.407-2.36 3.22-4.803 6.375-7.326 9.455zm-183.256-231.963c7.388 6.516 17.011 9.7 27.059 8.966l29.419-2.011c36.411-2.489 59.907-.226 92.377 1.993 10.658.758 20.087-2.572 27.315-8.948l56.859-50.152c-4.535 5.085-40.953 45.923-45.493 51.014-.811.888 2.878-3.227-8.095 9.077-3.5 3.926-3.077 9.841.423 13.194 17.242 17.371 29.797 39.022 36.308 62.619l4.514 16.357c5.854 21.219 5.535 43.735-.76 64.635l-6.351-14.373c-6.531-14.783-15.896-27.928-27.551-38.806l.327-.088c4.001-1.071 6.375-5.185 5.303-9.186s-5.182-6.378-9.186-5.303l-11.038 2.958c-.925-.625-1.86-1.238-2.805-1.839-8.268-5.256-14.538-13.265-17.655-22.551l-.797-2.375c8.06-4.635 17.539-6.342 26.847-4.698l1.411.249c4.081.72 7.97-2.004 8.689-6.082.72-4.079-2.003-7.97-6.082-8.689l-1.411-.248c-11.975-2.114-24.154-.198-34.751 5.275-.279-.479-.574-.947-.884-1.403 6.638-9.657 17.694-15.544 29.53-15.544 4.143 0 7.5-3.357 7.5-7.5s-3.357-7.5-7.5-7.5c-16.523 0-31.976 8.088-41.438 21.4-5.453-1.943-11.342-1.863-16.816.268-.364.144-.781-.012-.968-.357l-19.602-36.607c-2.818-5.267-10.398-5.278-13.223 0l-19.602 36.607c-.186.346-.6.501-.968.357-5.473-2.132-11.362-2.211-16.816-.268-9.462-13.313-24.915-21.4-41.438-21.4-4.142 0-7.5 3.357-7.5 7.5s3.358 7.5 7.5 7.5c11.836 0 22.892 5.887 29.529 15.544-.31.456-.605.924-.884 1.403-10.597-5.474-22.777-7.391-34.75-5.275l-1.412.249c-4.08.72-6.803 4.609-6.083 8.688.719 4.08 4.613 6.811 8.688 6.083l1.413-.249c9.308-1.641 18.786.064 26.846 4.698l-.797 2.374c-3.117 9.287-9.387 17.296-17.654 22.551-.945.601-1.881 1.214-2.807 1.84l-11.039-2.958c-3.997-1.074-8.113 1.302-9.186 5.303-1.072 4.001 1.303 8.114 5.304 9.186l.334.09c-4.934 4.611-9.474 9.646-13.589 15.078-2.501 3.302-1.852 8.006 1.45 10.507 3.301 2.501 8.005 1.852 10.507-1.45 5.553-7.331 11.994-13.836 19.219-19.423l23.39 6.267c2.102.563 3.57 2.477 3.57 4.652v4.396c0 4.143 3.358 7.5 7.5 7.5s7.5-3.357 7.5-7.5v-4.396c0-8.952-6.039-16.823-14.687-19.141l-11.731-3.143c6.715-6.059 11.968-13.651 15.25-22.126l13.524 11.151c1.568 1.293 3.553 1.877 5.535 1.674 6.044.627 10.3-5.873 7.285-11.171l-12.744-22.386c1.123 0 2.248.209 3.331.631 7.428 2.891 15.869-.227 19.632-7.256l12.991-24.259 12.99 24.259c3.761 7.027 12.201 10.146 19.632 7.256 1.083-.422 2.208-.632 3.331-.631l-12.745 22.387c-3.019 5.303 1.246 11.798 7.284 11.171 1.978.203 3.964-.378 5.536-1.674l13.523-11.151c3.282 8.474 8.535 16.066 15.249 22.126l-11.73 3.143c-8.647 2.317-14.688 10.188-14.688 19.141v4.396c0 4.143 3.357 7.5 7.5 7.5s7.5-3.357 7.5-7.5v-4.396c0-2.176 1.469-4.089 3.57-4.652l23.391-6.268c13.633 10.535 24.402 24.262 31.424 40.154l12.309 27.86c-3.625 7.654-7.627 14.989-12.082 22.154-11.816-1.418-23.695-2.223-35.597-2.411l-1.353-6.268c-.368-1.707.744-3.401 2.485-3.716 6.869-1.241 13.376-4.211 18.817-8.588 3.228-2.596 3.739-7.317 1.143-10.545-2.595-3.227-7.316-3.739-10.545-1.143-3.494 2.811-7.672 4.718-12.082 5.515-10.089 1.823-16.645 11.622-14.48 21.643l.691 3.202c-5.542.159-11.085.451-16.625.877-4.13.317-7.221 3.923-6.902 8.053.317 4.128 3.896 7.244 8.053 6.902 6.202-.477 12.407-.777 18.611-.904.724 5.862-1.084 11.663-4.825 16.036-6.139-2.038-9.993-3.152-17.004-5.242-3.968-1.181-8.146 1.075-9.33 5.045-1.184 3.969 1.075 8.146 5.045 9.33l2.799.834c-4.531 1.223-9.222 1.852-13.951 1.852h-12.754c-3.689 0-6.69-3.001-6.69-6.69v-4.405l18.511-16.594c6.691-5.999 5.895-16.705-1.62-21.643-14.816-9.737-33.964-9.737-48.781 0-7.511 4.936-8.316 15.642-1.621 21.642l18.511 16.594v4.406c0 3.689-3.001 6.69-6.69 6.69h-12.756c-4.729 0-9.421-.629-13.952-1.852l2.799-.835c3.97-1.184 6.228-5.36 5.045-9.33-1.185-3.97-5.363-6.229-9.33-5.045-6.949 2.072-10.89 3.212-17.003 5.242-3.741-4.373-5.549-10.173-4.825-16.036 6.204.126 12.41.427 18.612.904 4.121.317 7.735-2.772 8.053-6.902.317-4.13-2.773-7.735-6.903-8.053-5.54-.426-11.083-.718-16.625-.876l.691-3.203c2.164-10.022-4.392-19.819-14.481-21.644-4.41-.797-8.588-2.703-12.082-5.514-3.228-2.599-7.949-2.085-10.544 1.143-2.596 3.228-2.084 7.949 1.143 10.545 5.441 4.377 11.947 7.347 18.815 8.587 1.728.314 2.858 1.995 2.487 3.717l-1.354 6.27c-11.901.188-23.78.993-35.596 2.41-4.429-7.123-8.433-14.451-12.082-22.155l8.196-18.549c1.674-3.789-.041-8.218-3.829-9.892-3.791-1.675-8.218.04-9.892 3.829l-2.237 5.063c-6.295-20.897-6.614-43.416-.759-64.635l4.513-16.357c6.512-23.602 19.071-45.258 36.32-62.632 3.464-3.281 3.932-9.234.41-13.183-15.051-16.877-38.429-43.092-53.587-60.089zm-117.875-78.287c5.945 0 11.874.69 17.656 2.052l47.804 53.604c-9.97-.168-19.842 2.337-28.733 7.405-3.599 2.051-4.853 6.631-2.802 10.229 2.051 3.599 6.632 4.853 10.23 2.802 9.586-5.462 20.727-6.866 31.366-3.951l6.14 1.681 2.648 2.969c-13.834.771-26.733 6.526-36.609 16.402-2.929 2.929-2.929 7.678 0 10.606 2.928 2.929 7.677 2.93 10.606.001 7.802-7.802 18.175-12.099 29.207-12.099h10.093l2.46 2.759c-17.272 18.55-29.902 41.123-36.653 65.588l-4.513 16.357c-3.28 11.886-4.842 24.133-4.716 36.341-3.578-4.084-5.476-9.52-5.026-15.22.413-5.235-1.146-10.392-4.388-14.519l-30.764-39.173c-6.408-8.16-9.709-18.363-9.296-28.73l.262-6.572c.035-.875-.084-1.749-.351-2.583l-24.968-78.082c-4.411-13.797 5.862-27.867 20.347-27.867z"/><path d="m228.564 280.871c4.142 0 7.5-3.357 7.5-7.5v-28.476c0-4.143-3.358-7.5-7.5-7.5s-7.5 3.357-7.5 7.5v28.476c0 4.143 3.358 7.5 7.5 7.5z"/><path d="m283.435 280.871c4.143 0 7.5-3.357 7.5-7.5v-28.476c0-4.143-3.357-7.5-7.5-7.5s-7.5 3.357-7.5 7.5v28.476c0 4.143 3.358 7.5 7.5 7.5z"/><path d="m226.748 381.285c18.111 9.918 40.289 9.976 58.505 0 3.633-1.989 4.965-6.547 2.976-10.181-1.988-3.631-6.545-4.966-10.181-2.976-13.667 7.483-30.406 7.495-44.096 0-3.633-1.991-8.192-.656-10.18 2.976-1.99 3.634-.657 8.192 2.976 10.181z"/></g></svg>