<svg id="Capa_1" enable-background="new 0 0 512.001 512.001" height="512" viewBox="0 0 512.001 512.001" width="512" xmlns="http://www.w3.org/2000/svg"><g><path d="m65.56 427.801c-8.919 13.74-16.825 28.141-23.645 43.093l-15.328 33.607h73.281l-18.664-23.874c-11.898-15.222-17.283-34.158-15.644-52.826z" fill="#b78b7a"/><path d="m446.441 427.801c1.639 18.668-3.746 37.604-15.646 52.825l-18.664 23.874h73.281l-15.328-33.607c-6.818-14.951-14.724-29.352-23.643-43.092z" fill="#b78b7a"/><path d="m441.064 209.714 8.989-30.098c2.91-9.742 1.897-20.235-2.822-29.241l-.784-1.496 31.188-121.639c2.544-9.921-4.874-19.706-15.116-19.739-14.608-.048-28.74 5.176-39.803 14.71l-55.776 81.332c-6.14 8.953-5.244 20.967 2.155 28.91z" fill="#ddc6be"/><path d="m70.937 209.714-8.989-30.098c-2.91-9.742-1.897-20.235 2.822-29.241l.784-1.496-31.19-121.638c-2.544-9.922 4.874-19.706 15.116-19.74 14.608-.048 28.74 5.176 39.803 14.71l55.776 81.332c6.14 8.953 5.244 20.967-2.155 28.91z" fill="#e7d8d3"/><path d="m491.39 336.992 13.046 6.66-.157-1.517c-4.867-47.115-24.966-91.358-57.25-126.018l-77.932-83.664c-7.399-7.943-8.295-19.958-2.155-28.91l55.776-81.332-79.683 68.674c-6.075 5.235-14.584 6.505-21.968 3.377-12.798-5.421-26.68-8.3-40.873-8.3h-24.194-24.193c-14.193 0-28.075 2.879-40.873 8.3-7.384 3.128-15.893 1.858-21.968-3.377l-79.683-68.674 55.776 81.332c6.14 8.953 5.244 20.967-2.155 28.91l-77.944 83.678c-32.28 34.656-52.376 78.894-57.238 126.005l-.157 1.517 13.046-6.66c11.016-5.624 23.834-6.565 35.553-2.61l4.947 1.67-2.549 2.095c-20.101 16.519-32.492 40.604-34.242 66.563l-.219 3.24 6.036-3.105c12.543-6.451 27.356-6.777 40.171-.886l1.165.536c-10.949 25.243-7.215 54.453 9.731 76.13l18.664 23.874h312.263l18.664-23.874c16.947-21.677 20.68-50.887 9.731-76.13l1.165-.536c12.815-5.892 27.628-5.565 40.171.886l6.036 3.105-.219-3.24c-1.751-25.959-14.141-50.044-34.242-66.563l-2.549-2.095 4.947-1.67c11.721-3.955 24.539-3.015 35.555 2.609z" fill="#ceb1a5"/><path d="m324.939 335.869c0 9.798-4.541 19.043-12.295 25.033s-50.371 38.907-56.644 38.907c-6.272 0-56.644-38.907-56.644-38.907-7.754-5.989-12.295-15.234-12.295-25.033 0-10.583 6.796-19.969 16.85-23.272l52.089-17.111 52.089 17.112c10.054 3.302 16.85 12.688 16.85 23.271z" fill="#e7d8d3"/><path d="m491.39 336.992 13.046 6.661-.157-1.517c-4.867-47.115-24.966-91.358-57.25-126.018l-77.932-83.664c-7.399-7.943-8.295-19.958-2.155-28.91l55.776-81.332-79.683 68.674c-5.563 4.795-13.167 6.252-20.081 4.062-.461 6.271 1.618 12.65 6.143 17.507l77.932 83.664c41.368 44.412 52.941 96.085 56.175 117.479.646 4.272-3.802 7.486-7.65 5.521l-4.164-2.126c-11.016-5.624-23.834-6.565-35.553-2.609l-1.821.615c-1.362.46-1.688 2.238-.577 3.15 20.102 16.519 32.492 40.604 34.242 66.563.096 1.424-1.4 2.408-2.669 1.755l-3.152-1.621c-12.542-6.45-27.354-6.776-40.167-.884-.65.299-.938 1.056-.664 1.718 10.328 24.969 6.45 53.608-10.232 74.948-11.78 15.068-29.841 23.874-48.967 23.874h-257.596l15.635 20h312.263l18.664-23.874c16.947-21.677 20.68-50.887 9.731-76.13l1.166-.536c12.815-5.892 27.628-5.565 40.171.885l6.037 3.105-.219-3.24c-1.751-25.959-14.141-50.044-34.242-66.563l-2.549-2.095 4.948-1.67c11.717-3.956 24.535-3.016 35.551 2.608z" fill="#c19d8e"/><path d="m256 315.728-24.908-28c-2.363-2.657-1.232-6.865 2.144-7.979l4.995-1.648c11.54-3.808 23.997-3.808 35.537 0l4.995 1.648c3.377 1.114 4.508 5.322 2.144 7.979z" fill="#f9c6da"/><path d="m252.121 169.06c1.277 3.68 6.482 3.68 7.759 0l28.716-82.76c-2.784-.224-5.587-.338-8.402-.338h-48.387c-2.815 0-5.618.114-8.402.338z" fill="#845c47"/><path d="m145.694 211.164 58.272 15.615c4.308 1.153 7.315 5.074 7.315 9.534v6.2c0 4.143 3.357 7.5 7.5 7.5s7.5-3.357 7.5-7.5v-6.2c0-11.237-7.581-21.117-18.434-24.023l-58.271-15.614c-4.001-1.075-8.113 1.302-9.186 5.303s1.303 8.113 5.304 9.185z"/><path d="m256 407.308c11.259 0 43.29-26.929 43.612-27.2 3.165-2.672 3.565-7.404.894-10.569s-7.403-3.565-10.569-.894c-13.164 11.113-28.99 21.736-33.937 23.519-4.946-1.782-20.772-12.405-33.937-23.519-3.165-2.672-7.896-2.271-10.569.894-2.672 3.165-2.271 7.897.894 10.569.322.272 32.354 27.2 43.612 27.2z"/><path d="m340.113 404.284c-3.948-1.248-8.162.945-9.409 4.896-4.454 14.114-13.933 25.897-26.525 33.265-3.143-7.697-9.361-13.609-17.284-16.357-4.364-1.514-9.063 1.247-9.85 5.814-2.487 14.453-9.93 27.513-21.044 37.007-11.114-9.494-18.557-22.554-21.044-37.007-.784-4.553-5.47-7.333-9.85-5.814-7.922 2.748-14.141 8.66-17.284 16.357-12.593-7.367-22.071-19.15-26.525-33.265-1.247-3.95-5.461-6.145-9.409-4.896-3.95 1.247-6.142 5.46-4.896 9.409 6.599 20.906 21.989 37.732 42.226 46.164 3.995 1.663 8.572-.39 9.979-4.489 2.224-6.488 2.49-7.703 3.789-9.668 4.714 14.243 13.477 26.877 25.357 36.334l2.985 2.376c2.734 2.176 6.607 2.176 9.342 0l2.985-2.376c11.881-9.457 20.644-22.092 25.357-36.334.647.979 1.177 2.05 1.568 3.193l2.221 6.475c1.403 4.086 5.968 6.157 9.979 4.489 20.236-8.432 35.627-25.258 42.226-46.164 1.247-3.949-.944-8.162-4.894-9.409z"/><path d="m452.517 211.006-3.037-3.261 7.76-25.982c3.374-11.296 2.369-23.246-2.816-33.789l30.478-118.87c3.767-14.685-7.247-29.051-22.355-29.103-16.38-.079-32.293 5.816-44.724 16.529l-79.683 68.674c-3.907 3.368-9.328 4.195-14.146 2.152-13.931-5.901-28.666-8.894-43.799-8.894h-48.387c-15.133 0-29.868 2.992-43.798 8.894-4.819 2.042-10.238 1.215-14.146-2.152l-79.685-68.674c-12.374-10.664-28.169-16.529-44.501-16.529-15.689 0-26.266 14.725-22.578 29.102l11.306 44.097c1.028 4.01 5.112 6.433 9.127 5.402 4.013-1.028 6.432-5.115 5.402-9.127l-11.306-44.098c-1.338-5.219 2.551-10.357 7.875-10.376 12.936 0 24.842 4.534 34.164 12.286l42.94 62.613c-10.117-4.489-20.933-7.358-32.102-8.464-4.114-.4-7.795 2.603-8.203 6.725s2.603 7.794 6.725 8.203c17.321 1.716 33.654 8.38 47.231 19.271l1.387 1.113c-.01 2.053-.428 4.096-1.244 6.011-16.684-7.884-35.089-11.211-53.557-9.628-4.127.353-7.187 3.984-6.834 8.111s3.993 7.186 8.111 6.834c14.542-1.24 29.036 1.063 42.382 6.687l-56.129 60.257-5.241-17.549c-2.364-7.912-1.555-16.299 2.278-23.614l.783-1.495c.86-1.644 1.082-3.547.621-5.343l-10.791-42.089c-1.027-4.012-5.115-6.431-9.127-5.402-4.013 1.028-6.432 5.115-5.402 9.127l10.081 39.32c-5.187 10.543-6.19 22.493-2.816 33.789l7.76 25.982-3.05 3.274c-32.1 34.463-54.011 79.879-59.367 131.865-.608 5.905 5.581 10.146 10.871 7.448l13.046-6.661c6.709-3.424 14.319-4.765 21.741-3.949-16.89 17.254-27.289 40.221-28.926 64.483l-.219 3.24c-.392 5.816 5.73 9.84 10.914 7.175l6.035-3.104c8.859-4.556 18.899-5.481 28.271-2.739-1.766 5.409-2.951 10.935-3.569 16.492-8.701 13.567-16.495 27.86-23.178 42.512l-15.328 33.607c-2.252 4.939 1.342 10.612 6.824 10.612h458.826c5.438 0 9.095-5.634 6.824-10.612l-8.06-17.671c-1.719-3.769-6.169-5.431-9.937-3.712-3.769 1.72-5.431 6.168-3.712 9.937l3.22 7.059h-46.235l9.19-11.755c7.743-9.905 12.978-21.226 15.592-33.069 1.162 2.112 2.3 4.233 3.41 6.361 1.338 2.564 3.95 4.033 6.655 4.033 5.573 0 9.262-5.952 6.644-10.971-4.675-8.961-9.809-17.812-15.274-26.333-.618-5.556-1.803-11.081-3.569-16.49 9.374-2.743 19.414-1.817 28.271 2.739l6.036 3.104c5.195 2.668 11.305-1.369 10.914-7.175l-.219-3.24c-1.637-24.263-12.037-47.229-28.926-64.483 7.421-.817 15.033.525 21.741 3.949l13.046 6.661c5.288 2.699 11.479-1.544 10.871-7.448-5.403-52.21-27.385-97.532-59.377-131.879zm9.805-196.005c5.737 0 9.342 5.335 8.05 10.377l-31.188 121.64c-.461 1.796-.239 3.699.621 5.343l.783 1.495c3.833 7.315 4.643 15.702 2.278 23.614l-5.241 17.549-56.13-60.258c13.346-5.625 27.842-7.931 42.383-6.687 4.147.344 7.758-2.706 8.111-6.834.353-4.127-2.707-7.759-6.834-8.111-18.478-1.579-36.876 1.746-53.557 9.628-.816-1.915-1.233-3.958-1.244-6.011l1.386-1.112c13.578-10.892 29.911-17.556 47.232-19.271 4.122-.409 7.133-4.081 6.725-8.203-.409-4.122-4.087-7.124-8.203-6.725-11.168 1.107-21.984 3.975-32.101 8.464l42.939-62.613c9.541-7.933 21.566-12.285 33.99-12.285zm-402.617 437.18c2.614 11.841 7.849 23.161 15.591 33.065l9.189 11.755h-46.234c10.176-22.311 13.991-31.255 21.454-44.82zm393.734-124.905-4.947 1.67c-5.566 1.88-6.909 9.166-2.363 12.9l2.549 2.095c15.871 13.044 26.596 31.421 30.291 51.474-13.12-4.756-27.512-4.199-40.412 1.732l-1.165.536c-3.704 1.705-5.367 6.057-3.745 9.798 2.898 6.68 4.654 13.664 5.303 20.692.01.197.027.393.052.589 1.395 16.703-3.458 33.613-14.114 47.245l-16.412 20.993h-304.95l-16.41-20.993c-10.659-13.635-15.512-30.551-14.113-47.259.024-.187.04-.374.049-.562.648-7.032 2.405-14.021 5.304-20.706 1.623-3.743-.043-8.097-3.75-9.8l-1.163-.534c-12.897-5.929-27.291-6.486-40.409-1.731 3.695-20.053 14.42-38.43 30.291-51.474l2.549-2.095c4.539-3.729 3.21-11.018-2.363-12.9l-4.947-1.67c-13.161-4.441-28.158-3.711-41.717 3.218 6.708-40.651 25.478-79.057 53.603-109.25 7.54-8.095 68.557-73.601 77.834-83.56 9.552-9.84 11.496-25.937 2.963-38.382l-23.122-33.716 35.947 30.98c8.263 7.122 19.678 8.884 29.79 4.603 7.875-3.336 16.046-5.599 24.416-6.769l26.759 77.119c3.613 10.413 18.323 10.391 21.931-.001l11.531-33.234c1.357-3.913-.714-8.186-4.628-9.544-3.912-1.357-8.187.714-9.544 4.628l-8.327 23.994-22.171-63.899h44.342l-1.835 5.288c-1.698 4.894 1.959 9.961 7.086 9.961 3.105 0 6.01-1.944 7.086-5.043l3.216-9.269c8.371 1.17 16.542 3.433 24.417 6.769 10.112 4.283 21.527 2.519 29.79-4.602l35.945-30.98-23.121 33.716c-8.469 12.351-6.661 28.434 2.951 38.37 53.12 57.027 24.586 26.393 77.833 83.558 28.13 30.199 46.903 68.605 53.614 109.263-13.47-6.867-28.418-7.704-41.714-3.218z"/><path d="m429.007 310.853c-22.394-5.55-45.379-9.53-68.346-11.834 14.265-10.749 24.996-25.311 31.038-42.125 1.4-3.897-.624-8.193-4.522-9.595-3.894-1.397-8.192.623-9.594 4.522-5.072 14.112-14.094 26.327-26.09 35.324-12.064 9.048-11.613 8.573-12.496 9.774l-30.985-2.997c-4.122-.419-7.788 2.62-8.187 6.743-.399 4.122 2.62 7.788 6.743 8.187l25.587 2.475c-6.339 13.679-6.35 13.915-7.785 16.145l-23.136-7.281c-3.95-1.24-8.162.952-9.405 4.903-1.243 3.95.952 8.162 4.903 9.405l13.809 4.346c-3.377 1.345-7.026 2.072-10.776 2.072h-23.46c-7.062 0-12.806-5.744-12.806-12.806v-9.532l23.013-25.869c5.95-6.692 3.092-17.283-5.398-20.086l-4.996-1.648c-12.973-4.28-27.263-4.282-40.237 0l-4.994 1.648c-8.487 2.801-11.353 13.389-5.398 20.087l23.012 25.868v9.532c0 7.062-5.744 12.806-12.806 12.806h-23.46c-3.751 0-7.399-.727-10.776-2.072l13.809-4.346c3.951-1.243 6.146-5.455 4.903-9.405-1.243-3.951-5.452-6.146-9.405-4.903l-23.136 7.281c-1.442-2.242-1.394-2.355-7.785-16.145l25.587-2.475c4.123-.398 7.143-4.064 6.743-8.187-.398-4.123-4.065-7.151-8.187-6.743l-30.985 2.997c-.901-1.226-.449-.739-12.496-9.774-11.996-8.997-21.018-21.212-26.09-35.324-1.4-3.898-5.693-5.921-9.594-4.522-3.898 1.401-5.923 5.697-4.522 9.595 6.043 16.814 16.773 31.376 31.038 42.125-22.967 2.304-45.952 6.283-68.346 11.834-4.021.996-6.473 5.063-5.476 9.083.992 4.007 5.044 6.473 9.083 5.477 22.239-5.512 45.079-9.425 67.884-11.632l9.537-.922c8.691 18.755 8.3 17.955 8.96 19.224l-11.04 3.474c-22.551 7.097-44.772 15.925-66.048 26.239-3.728 1.808-5.284 6.294-3.478 10.021s6.292 5.285 10.021 3.478c33.572-16.276 57.738-23.456 80.398-30.587 7.968 7.074 18.394 11.211 29.4 11.211h23.46c8.003 0 15.228-3.399 20.306-8.829 5.078 5.43 12.302 8.829 20.306 8.829h23.46c11.006 0 21.432-4.137 29.4-11.211 24.33 7.657 47.272 14.527 80.398 30.587 3.727 1.806 8.214.251 10.021-3.478 1.807-3.727.25-8.213-3.478-10.021-21.275-10.314-43.497-19.143-66.048-26.239l-11.04-3.474c.635-1.22.237-.402 8.96-19.224l9.536.922c22.806 2.207 45.646 6.12 67.885 11.632 4.039.997 8.091-1.469 9.083-5.477.997-4.02-1.455-8.087-5.476-9.083zm-188.426-25.632c9.945-3.28 20.896-3.279 30.837 0l1.3.429-16.718 18.793-16.718-18.793z"/><path d="m204.716 181.179c5.577 0 9.258-5.951 6.646-10.967-4.302-8.26-5.827-17.491-4.41-26.696.63-4.094-2.179-7.924-6.272-8.554-4.084-.627-7.923 2.179-8.554 6.272-1.905 12.381.146 24.798 5.934 35.907 1.336 2.567 3.949 4.038 6.656 4.038z"/><path d="m303.826 180.328c3.704 1.931 8.219.456 10.116-3.187 5.787-11.109 7.839-23.526 5.934-35.907-.631-4.096-4.465-6.906-8.554-6.272-4.094.63-6.902 4.46-6.272 8.554 1.417 9.205-.108 18.437-4.41 26.696-1.915 3.674-.488 8.203 3.186 10.116z"/><path d="m354.852 244.306-17.264 12.798c-7.518 5.572-17.589 6.893-26.28 3.438-3.847-1.527-8.209.352-9.739 4.202-1.528 3.85.353 8.21 4.202 9.739 13.824 5.49 29.044 3.35 40.751-5.33l17.264-12.799c3.327-2.467 4.025-7.164 1.558-10.491-2.466-3.325-7.162-4.024-10.492-1.557z"/><path d="m200.693 260.543c-8.694 3.454-18.764 2.135-26.28-3.438l-17.264-12.799c-3.326-2.468-8.025-1.769-10.491 1.558-2.468 3.327-1.77 8.024 1.558 10.491l17.264 12.8c11.67 8.649 26.88 10.837 40.751 5.329 3.85-1.529 5.73-5.89 4.202-9.739-1.531-3.85-5.891-5.732-9.74-4.202z"/><path d="m293.219 250.013c4.143 0 7.5-3.357 7.5-7.5v-6.2c0-4.464 3.013-8.382 7.315-9.534 2.843-.75-14.994 4.017 58.272-15.615 4.001-1.072 6.375-5.185 5.303-9.186-1.071-4.001-5.185-6.378-9.186-5.303l-58.271 15.613c-10.854 2.907-18.435 12.787-18.435 24.024v6.2c.002 4.144 3.36 7.501 7.502 7.501z"/></g></svg>