<svg id="Capa_1" enable-background="new 0 0 512.001 512.001" height="512" viewBox="0 0 512.001 512.001" width="512" xmlns="http://www.w3.org/2000/svg"><g><path d="m416.709 232.155-6.262-16.086-2.379 6.67c-1.626 4.56-7.52 5.699-10.762 2.104-17.557-19.476-38.044-35.953-60.633-48.908-10.866-6.232-16.585-18.693-14.401-31.027 4.264-24.08 11.749-47.399 22.323-69.502l15.927-33.292-18.671 24.984c-9.286 12.427-17.555 25.54-24.75 39.209-2.951 5.607-8.803 9.08-15.139 9.064h-.1-16.278c-8.729 0-17.003 3.895-22.564 10.624l-1.068 1.292c-3.088 3.736-8.814 3.736-11.902 0l-1.068-1.292c-5.561-6.728-13.835-10.624-22.564-10.624h-16.278-.1c-6.336.015-12.188-3.457-15.139-9.064-7.195-13.669-15.464-26.783-24.75-39.209l-18.671-24.984 15.927 33.292c10.575 22.103 18.059 45.422 22.323 69.502 2.184 12.334-3.535 24.795-14.401 31.027-22.589 12.956-43.076 29.433-60.633 48.908-3.242 3.596-9.135 2.456-10.762-2.104l-2.379-6.67-6.262 16.086c-1.796 4.614-1.804 9.733-.023 14.352l13.525 35.072c2.462 6.384 3.725 13.168 3.725 20.01v10.279c0 11.47 3.193 22.714 9.222 32.472l33.018 53.445c7.65 12.383 6.887 28.197-1.919 39.786l-9.909 13.041c-10.174 13.389-16.765 29.152-19.151 45.798l-1.159 8.091h266.76l-1.159-8.091c-2.385-16.646-8.977-32.409-19.151-45.798l-9.909-13.04c-8.806-11.589-9.569-27.403-1.919-39.786l33.018-53.445c6.029-9.758 9.222-21.002 9.222-32.473v-10.279c0-6.842 1.263-13.626 3.725-20.01l13.525-35.071c1.78-4.62 1.772-9.739-.025-14.353z" fill="#ecb780"/><path d="m416.709 232.155-6.262-16.086-2.379 6.67c-1.627 4.562-7.522 5.697-10.765 2.1-7.795-8.647-16.168-16.701-25.046-24.12l4.452 11.436c1.796 4.614 1.804 9.733.023 14.352l-13.525 35.072c-2.462 6.384-3.725 13.168-3.725 20.01v10.279c0 11.47-3.193 22.714-9.222 32.473l-33.018 53.445c-7.65 12.383-6.887 28.197 1.919 39.786l9.909 13.04c.19.25.378.499.564.749 16.349 21.938.604 53.14-26.756 53.14h-176.636c-1.061 3.904-1.885 7.88-2.463 11.909l-1.159 8.091h266.76l-1.159-8.091c-2.385-16.646-8.977-32.409-19.151-45.798l-9.909-13.04c-8.806-11.589-9.569-27.403-1.919-39.786l33.018-53.445c6.029-9.758 9.222-21.002 9.222-32.473v-10.279c0-6.842 1.263-13.626 3.725-20.01l13.525-35.072c1.782-4.62 1.774-9.738-.023-14.352z" fill="#e7a561"/><path d="m179.723 374.899c0 9.049 4.307 17.559 11.6 22.916 14.125 10.377 32.088 14.042 49.149 10.027l10.848-2.552c2.742-.645 4.68-3.092 4.68-5.909 0 2.817 1.938 5.263 4.68 5.909l10.848 2.552c17.061 4.014 35.024.35 49.149-10.027 7.293-5.358 11.6-13.867 11.6-22.916l-76.277-13.247z" fill="#f1f1f4"/><path d="m312.601 402.814c2.8-1.439 5.502-3.107 8.076-4.999 7.293-5.358 11.6-13.867 11.6-22.916l-11.968-2.078-3.067 4.965c-4.718 7.635-6.236 16.577-4.641 25.028z" fill="#dfdde2"/><path d="m271.528 407.842-10.848-2.553c-2.742-.645-4.68-3.092-4.68-5.908 0 2.817-1.938 5.263-4.68 5.908l-10.848 2.553c-10.081 2.372-20.471 2.042-30.205-.749 4.972 14.418 23.554 25.135 45.732 25.135s40.761-10.716 45.732-25.135c-9.731 2.792-20.122 3.121-30.203.749z" fill="#dfdde2"/><path d="m234.59 356.241-.643 2.448c-.88 3.349.102 6.913 2.572 9.339l19.481 19.131 19.481-19.13c2.471-2.426 3.452-5.99 2.572-9.339l-.643-2.448c-.824-3.135-3.657-5.32-6.898-5.32h-29.023c-3.241-.001-6.075 2.185-6.899 5.319z" fill="#efa5c3"/><path d="m151.478 42.112-7.687-10.286c-6.138-8.214-17.205-11.134-26.509-6.823-10.366 4.803-17.274 14.891-18.006 26.291l-5.338 83.191-1.915 5.538c-5.606 16.211-5.52 33.848.242 50.005l11.667 32.711c1.626 4.56 7.52 5.699 10.762 2.104 17.557-19.476 38.044-35.952 60.634-48.908 10.866-6.232 16.585-18.693 14.401-31.027-4.264-24.08-11.749-47.4-22.323-69.502z" fill="#f9c6da"/><path d="m360.523 42.112 7.687-10.286c6.138-8.214 17.205-11.134 26.509-6.823 10.366 4.803 17.274 14.891 18.006 26.291l5.338 83.191 1.915 5.538c5.606 16.211 5.52 33.848-.242 50.005l-11.667 32.711c-1.626 4.56-7.52 5.699-10.762 2.104-17.557-19.476-38.044-35.952-60.634-48.908-10.866-6.232-16.585-18.693-14.401-31.027 4.264-24.08 11.749-47.4 22.323-69.502z" fill="#f9c6da"/><path d="m419.978 140.023-1.915-5.538-5.338-83.191c-.732-11.4-7.639-21.488-18.006-26.291-4.345-2.013-9.075-2.449-13.508-1.505.824 2.491 1.341 5.107 1.513 7.797l5.338 83.191 1.915 5.538c5.606 16.211 5.52 33.848-.242 50.004l-11.667 32.711c-.271.759-.661 1.423-1.136 1.987 7.155 6.289 13.961 13.002 20.374 20.117 3.242 3.596 9.135 2.456 10.762-2.104l11.667-32.711c5.763-16.156 5.848-33.794.243-50.005z" fill="#efa5c3"/><path d="m427.066 137.573-1.583-4.579-5.273-82.18c-.534-8.321-3.712-16.069-8.855-22.254l3.378-4.41c2.519-3.288 1.895-7.996-1.394-10.515s-7.997-1.896-10.515 1.394l-3.122 4.076c-3.056-1.616-6.128-2.742-9.798-3.269l2.892-3.775c2.519-3.288 1.896-7.995-1.393-10.515-3.289-2.519-7.997-1.896-10.515 1.394-23.235 30.33-11.579 14.885-45.044 59.667-9.462 12.662-18.001 26.188-25.379 40.205-1.629 3.094-4.826 5.024-8.385 5.057-.102-.002 1.621.001-16.496.001-11.003 0-21.334 4.864-28.345 13.346l-1.068 1.292c-.062.074-.279.074-.341 0l-1.068-1.292c-7.01-8.481-17.342-13.346-28.345-13.346-15.209 0-16.4-.003-16.502-.001-3.545-.029-6.749-1.959-8.379-5.057-13.325-25.315-24.449-38.96-44.05-65.189-10.319-13.81-4.03-5.516-26.374-34.683-2.52-3.288-7.228-3.912-10.515-1.394-3.288 2.52-3.912 7.227-1.393 10.515l2.893 3.776c-3.624.52-6.698 1.628-9.798 3.268l-3.122-4.076c-2.519-3.288-7.227-3.913-10.515-1.394-3.289 2.519-3.912 7.227-1.394 10.515l3.378 4.41c-5.143 6.185-8.321 13.932-8.855 22.253l-.422 6.585c-.265 4.134 2.871 7.7 7.004 7.965 4.139.274 7.7-2.87 7.964-7.004l.422-6.585c.42-6.548 3.515-12.515 8.402-16.617.129-.099.254-.203.376-.309 1.483-1.194 3.123-2.219 4.897-3.042 6.015-2.788 13.312-.891 17.348 4.508l7.247 9.697c15.933 33.303 22.128 44.871 28.952 66.3-7.923-6.98-17.447-12.187-28.012-15.082-3.993-1.095-8.121 1.257-9.216 5.251-1.095 3.995 1.256 8.121 5.251 9.216 18.236 4.998 32.534 18.743 38.247 36.768l1.969 6.215c-.415 2.002-1.1 3.932-2.029 5.734-13.314-16.661-33.408-26.42-55.032-26.42-4.142 0-7.5 3.357-7.5 7.5s3.358 7.5 7.5 7.5c17.449 0 33.633 8.072 44.1 21.792-21.948 12.897-41.744 28.918-58.893 47.667-13.556-38.006-10.576-29.652-11.037-30.944-5.17-14.496-5.248-30.488-.218-45.034l1.915-5.539c.47-1.36.16 1.715 2.945-41.699.266-4.134-2.871-7.7-7.004-7.965-4.13-.262-7.7 2.871-7.965 7.004l-2.484 38.718-1.584 4.58c-6.14 17.756-6.045 37.279.267 54.975l8.348 23.406-5.248 13.48c-2.48 6.371-2.491 13.393-.031 19.771 1.495 3.877 5.841 5.785 9.696 4.3 3.865-1.491 5.79-5.832 4.299-9.696-1.111-2.883-1.106-6.055.015-8.934l.847-2.176c5.492 3.064 12.603 2.195 17.138-2.835 16.972-18.827 36.753-34.782 58.794-47.424 10.021-5.748 16.6-15.794 18.23-26.899.048-.252.083-.507.104-.764.46-3.658.385-7.422-.281-11.177-1.889-10.667-4.4-21.205-7.514-31.558 3.255 4.855 8.104 8.334 13.65 9.9l1.693 14.621c2.974 25.678 9.322 50.878 18.869 74.9 1.528 3.847 5.89 5.732 9.739 4.2 3.85-1.529 5.73-5.891 4.2-9.739-9.06-22.8-15.085-46.717-17.908-71.088l-1.386-11.966h7.96c6.515 0 12.632 2.88 16.783 7.902 1.457 1.763 2.643 3.339 5.3 4.844v20.701c0 4.143 3.358 7.5 7.5 7.5s7.5-3.357 7.5-7.5v-20.701c2.68-1.518 3.932-3.19 5.3-4.844 4.151-5.022 10.268-7.902 16.783-7.902h7.96l-1.386 11.966c-2.822 24.371-8.848 48.288-17.908 71.088-1.53 3.849.351 8.21 4.2 9.739 3.872 1.54 8.219-.375 9.739-4.2 9.546-24.022 15.895-49.223 18.869-74.9l1.694-14.624c5.55-1.567 10.396-5.044 13.65-9.897-3.114 10.354-5.625 20.891-7.514 31.558-.665 3.756-.741 7.52-.281 11.178.022.256.056.51.104.761 1.63 11.105 8.209 21.152 18.231 26.901 7.965 4.568 15.748 9.647 23.131 15.097 3.333 2.459 8.028 1.752 10.488-1.58 2.459-3.333 1.752-8.029-1.581-10.488-7.121-5.256-14.591-10.187-22.238-14.682 10.468-13.721 26.651-21.792 44.1-21.792 4.142 0 7.5-3.357 7.5-7.5s-3.358-7.5-7.5-7.5c-21.625 0-41.718 9.759-55.032 26.42-.93-1.803-1.615-3.733-2.029-5.735l1.97-6.215c5.712-18.024 20.01-31.77 38.246-36.768 3.995-1.095 6.346-5.221 5.251-9.216-1.095-3.994-5.222-6.346-9.216-5.251-10.565 2.896-20.089 8.103-28.012 15.082 6.815-21.398 12.917-32.782 28.952-66.299l7.247-9.697c4.035-5.4 11.333-7.297 17.348-4.509 1.776.823 3.418 1.85 4.902 3.046.118.103.239.203.365.3 4.89 4.102 7.987 10.072 8.408 16.622 5.703 88.879 5.246 83.749 5.734 85.162l1.915 5.538c5.03 14.545 4.953 30.537-.218 45.033-.494 1.386-9.427 26.431-11.037 30.944-2.861-3.127-5.828-6.211-8.836-9.187-2.947-2.911-7.695-2.886-10.606.062-2.912 2.945-2.885 7.693.061 10.606 3.244 3.206 6.434 6.547 9.484 9.931 4.486 4.975 11.591 5.928 17.137 2.834l.847 2.176c1.121 2.879 1.126 6.051.015 8.934-11.502 29.824-13.583 35.213-13.804 35.809-4.312-2.915-8.86-5.518-13.553-7.754-3.742-1.781-8.215-.194-9.997 3.545-1.781 3.739-.194 8.215 3.545 9.996 7.43 3.54 11.909 6.823 16.359 9.995-.403 4.111-.302 6.358-.302 16.468 0 10.085-2.802 19.951-8.102 28.531l-7.537 12.199c-10.686-1.278-21.458-1.826-32.23-1.63l-34.454.616c-4.141.074-7.438 3.491-7.365 7.633.073 4.097 3.417 7.366 7.497 7.366 1.206 0-4.205.077 14.986-.267 0 8.87.143 10.081-.452 12.891l-21.759-2.433c-4.115-.472-7.826 2.504-8.287 6.62-.46 4.116 2.504 7.826 6.62 8.286l13.335 1.491c-11.904 7.924-26.684 10.737-40.988 7.37l-9.746-2.293v-7.943l17.236-16.926c2.297-2.256 3.87-5.078 4.622-8.108l9.004-30.24c1.182-3.97-1.078-8.146-5.047-9.329-3.976-1.18-8.147 1.077-9.329 5.048l-4.08 13.703c-1.681-.668-3.505-1.032-5.396-1.032h-29.022c-1.891 0-3.715.364-5.396 1.032l-4.08-13.703c-1.182-3.97-5.357-6.224-9.329-5.048-3.97 1.183-6.229 5.359-5.047 9.329l9.004 30.239c.752 3.03 2.326 5.853 4.623 8.109l17.236 16.925v7.943l-9.746 2.293c-13.751 3.235-28.612.867-40.988-7.37l13.334-1.491c4.116-.46 7.08-4.17 6.62-8.286-.46-4.117-4.173-7.084-8.287-6.62l-21.759 2.433c-.607-2.864-.452-4.343-.452-12.891l14.85.266c4.09.087 7.559-3.188 7.633-7.365.074-4.142-3.224-7.559-7.365-7.633-34.634-.619-46.589-1.391-66.683 1.013l-7.537-12.2c-5.301-8.579-8.103-18.445-8.103-28.53 0-10.035.095-12.424-.302-16.468 4.936-3.52 9.113-6.543 16.359-9.995 3.739-1.781 5.326-6.257 3.545-9.996-1.781-3.74-6.256-5.327-9.997-3.545-4.693 2.236-9.242 4.839-13.553 7.753-.091-.246-.184-.492-.279-.737-1.491-3.865-5.832-5.788-9.696-4.3-3.865 1.49-5.79 5.832-4.3 9.696 2.069 5.364 3.223 11.185 3.223 17.313v10.278c0 12.872 3.576 25.465 10.342 36.414l4.205 6.806c-7.617 1.45-11.627 2.517-29.659 6.852-4.027.968-6.507 5.018-5.539 9.045.966 4.017 5.005 6.51 9.045 5.539 18.554-4.461 24.304-6.016 34.636-7.702l10.868 17.592c-18.066 4.286-28.675 8.757-47.658 16.015-3.869 1.479-5.806 5.815-4.327 9.685 1.479 3.866 5.808 5.805 9.684 4.327 19.267-7.368 30.909-12.317 50.639-16.531l1.123 1.818c5.976 9.673 5.369 22.255-1.51 31.307l-9.91 13.039c-10.919 14.37-18.043 31.408-20.604 49.273l-1.159 8.091c-.649 4.532 2.875 8.564 7.424 8.564h266.76c4.559 0 8.072-4.042 7.424-8.564l-1.159-8.091c-2.56-17.865-9.685-34.903-20.604-49.271l-9.909-13.042c-6.879-9.053-7.486-21.633-1.51-31.305l1.124-1.819c19.724 4.212 31.297 9.136 50.638 16.531 3.877 1.483 8.208-.469 9.684-4.327 1.479-3.869-.458-8.205-4.327-9.685-18.621-7.119-29.574-11.724-47.658-16.014l10.869-17.594c5.382.879 10.733 1.957 16.04 3.233 20.09 4.83 19.114 4.681 20.354 4.681 3.387-.001 6.459-2.311 7.286-5.749.968-4.027-1.511-8.077-5.539-9.045-18.031-4.335-22.312-5.453-29.658-6.852l4.205-6.807c6.765-10.951 10.34-23.543 10.34-36.414 0-10.603-.611-17.648 3.223-27.591l13.525-35.071c2.46-6.379 2.449-13.4-.031-19.771l-5.248-13.48 8.348-23.406c6.317-17.693 6.411-37.216.272-54.972zm-185.866 223.023.572-2.175h28.456l.571 2.175c.196.744-.024 1.542-.573 2.081l-14.226 13.97-14.226-13.969c-.549-.54-.769-1.338-.574-2.082zm.99 54.547c11.711-2.756 11.931-2.686 13.81-3.619 1.859.923 2.037.849 13.811 3.619 4.805 1.131 9.666 1.721 14.506 1.79-15.67 10.385-40.957 10.388-56.631 0 4.838-.068 9.701-.66 14.504-1.79zm-97.775-48.37c11.473-1.004 19.171-.879 27.808-.725 0 8.362-.159 10.92.507 14.83-6.531.73-10.949 1.174-18.135 2.372zm208.774 75.335 9.909 13.042c9.283 12.216 15.374 26.677 17.629 41.851h-249.454c2.256-15.174 8.346-29.635 17.629-41.852l9.91-13.039c9.839-12.949 11.355-30.58 4.165-44.968 3.933-.547 6.064-.758 15.626-1.827 2.244 3.256 5.03 6.156 8.281 8.544 5.506 4.045 11.519 7.183 17.825 9.37 7.688 15.78 28.086 26.499 51.292 26.499s43.604-10.72 51.292-26.5c6.306-2.187 12.319-5.325 17.825-9.369 3.251-2.388 6.037-5.289 8.281-8.544 10.429 1.166 11.916 1.312 15.626 1.827-7.191 14.388-5.675 32.018 4.164 44.966zm4.217-58.857c-7.155-1.193-11.703-1.653-18.135-2.372.666-3.915.507-6.094.507-14.83 8.717-.156 16.248-.29 27.81.722z"/><path d="m309.013 450.924c-3.125-2.718-7.864-2.385-10.581.739-23.581 27.127-61.274 27.138-84.865.001-2.717-3.128-7.454-3.458-10.581-.74-3.126 2.717-3.458 7.454-.74 10.58 29.579 34.029 77.93 34.023 107.506.001 2.719-3.127 2.387-7.863-.739-10.581z"/><path d="m158.912 275.963c-1.072 4.001 1.302 8.113 5.303 9.186l42.349 11.348c2.236.6 3.798 2.635 3.798 4.95v4.506c0 4.143 3.358 7.5 7.5 7.5s7.5-3.357 7.5-7.5v-4.506c0-9.093-6.134-17.086-14.916-19.438l-42.348-11.348c-4.002-1.076-8.113 1.301-9.186 5.302z"/><path d="m286.639 305.953c0 4.143 3.358 7.5 7.5 7.5s7.5-3.357 7.5-7.5v-4.506c0-2.315 1.562-4.351 3.798-4.95l42.348-11.348c4.001-1.072 6.375-5.185 5.303-9.186s-5.184-6.379-9.186-5.303l-42.348 11.348c-8.782 2.353-14.916 10.346-14.916 19.438v4.507z"/><path d="m263.5 191.753v-10.437c0-4.143-3.358-7.5-7.5-7.5s-7.5 3.357-7.5 7.5v10.437c0 4.143 3.358 7.5 7.5 7.5s7.5-3.357 7.5-7.5z"/><path d="m216.664 232.857c-4.069-.756-7.984 1.944-8.734 6.018-1.618 8.789-.661 17.796 2.77 26.047 1.589 3.824 5.976 5.636 9.804 4.047 3.825-1.591 5.637-5.979 4.046-9.805-2.314-5.566-2.96-11.643-1.868-17.572.75-4.075-1.944-7.985-6.018-8.735z"/><path d="m291.498 268.968c3.826 1.588 8.214-.221 9.804-4.047 3.429-8.251 4.387-17.258 2.769-26.047-.75-4.073-4.661-6.768-8.734-6.018-4.074.75-6.768 4.66-6.018 8.734 1.092 5.93.446 12.006-1.868 17.572-1.59 3.827.222 8.216 4.047 9.806z"/></g></svg>