<svg id="Capa_1" enable-background="new 0 0 512.011 512.011" height="512" viewBox="0 0 512.011 512.011" width="512" xmlns="http://www.w3.org/2000/svg"><g><path d="m149.171 103.83-3.512-9.695c-7.402-20.43-18.478-38.904-32.689-54.733-15.327-10.981-32.262-19.744-50.323-25.926l-13.837-4.736c-14.592-4.994-29.766 5.85-29.766 21.273 1.832 31.183 8.914 61.833 20.946 90.659l16.736 40.096-.849 2.58c-3.134 9.528-.712 20.008 6.286 27.194l19.391 19.912.865 2.949c4.28 14.584 13.585 27.077 26.129 35.354l-.076-.13 47.745-96.543c.037-.074.073-.148.11-.223 5.796-11.653 5.366-25.454-1.535-36.489-2.253-3.604-4.145-7.467-5.621-11.542z" fill="#e7d8d3"/><path d="m362.84 103.83 3.512-9.695c7.402-20.43 18.478-38.904 32.689-54.733 15.327-10.981 32.262-19.745 50.322-25.926l13.837-4.736c14.592-4.994 29.766 5.85 29.766 21.273-1.832 31.183-8.914 61.833-20.946 90.659l-16.736 40.096.849 2.58c3.134 9.528.712 20.008-6.286 27.194l-19.391 19.912-.865 2.949c-4.28 14.584-13.585 27.077-26.129 35.354l.076-.13-47.745-96.543c-.037-.074-.073-.148-.11-.223-5.796-11.653-5.366-25.454 1.535-36.489 2.254-3.604 4.145-7.467 5.622-11.542z" fill="#e7d8d3"/><path d="m355.793 152.083c-.037-.074-.073-.148-.11-.222-5.796-11.654-5.366-25.454 1.535-36.489 2.254-3.604 4.145-7.467 5.622-11.542l3.512-9.695c7.402-20.43 18.478-38.904 32.689-54.733-17.778 12.737-33.393 28.458-46.089 46.597l-5.913 8.447c-1.673 2.39-3.621 4.517-5.782 6.355-8.919 7.587-21.732 8.566-31.991 2.921-7.827-4.307-20.641-10.096-37.609-12.506-10.382-1.474-20.921-1.474-31.303 0-16.973 2.41-29.783 8.198-37.609 12.505-10.259 5.646-23.072 4.667-31.991-2.92-2.161-1.838-4.109-3.965-5.782-6.355l-5.913-8.447c-12.697-18.139-28.312-33.859-46.089-46.597 14.211 15.829 25.287 34.303 32.689 54.733l3.512 9.695c1.477 4.075 3.368 7.938 5.622 11.542 6.901 11.035 7.331 24.835 1.535 36.489-.037.074-.074.148-.11.222l-47.745 96.543 26.708 45.379c12.052 20.478 27.608 38.619 45.912 53.622 1.049 10.167 5.656 19.798 13.243 27.055 8.119 7.766 18.921 12.1 30.156 12.1h24.59c3.824 0 6.924-3.1 6.924-6.924 0 3.824 3.1 6.924 6.924 6.924h24.59c11.235 0 22.037-4.334 30.156-12.1 7.587-7.257 12.194-16.887 13.243-27.055 18.305-15.002 33.86-33.144 45.912-53.622l26.708-45.379z" fill="#fbf6ec"/><path d="m463.2 8.74-10.378 3.552c-2.037 30.396-9.063 60.256-20.802 88.38l-16.736 40.096.849 2.58c3.135 9.528.712 20.008-6.286 27.194l-19.391 19.912-.865 2.949c-1.493 5.087-3.598 9.92-6.238 14.408l20.186 40.816-.076.13c12.544-8.277 21.85-20.77 26.129-35.354l.865-2.949 19.391-19.912c6.998-7.186 9.42-17.666 6.286-27.194l-.849-2.58 16.736-40.096c12.032-28.826 19.114-59.476 20.946-90.658-.001-15.424-15.175-26.269-29.767-21.274z" fill="#ddc6be"/><path d="m363.462 228.756-26.631 45.249c-10.339 17.565-23.254 33.413-38.272 47.033-4.427 4.015-7.574 9.184-9.325 14.897-2.153 7.025-6.078 13.504-11.557 18.745-8.119 7.766-18.921 12.1-30.156 12.1h-59.704c1.835 2.848 4.015 5.503 6.52 7.9 8.119 7.766 18.921 12.1 30.156 12.1h24.59c3.824 0 6.924-3.1 6.924-6.924 0 3.824 3.1 6.924 6.924 6.924h24.59c11.235 0 22.037-4.334 30.156-12.1 7.587-7.257 12.194-16.887 13.243-27.054 18.305-15.002 33.86-33.144 45.912-53.622l26.708-45.379-20.185-40.816c-4.931 8.38-11.725 15.558-19.893 20.947z" fill="#f9efda"/><path d="m256.005 371.597-30.216-26.7c-1.75-1.547-1.282-4.392.872-5.295 18.77-7.876 39.918-7.876 58.687 0 2.154.904 2.622 3.749.872 5.295z" fill="#ceb1a5"/><path d="m309.164 103.666c-7.836-4.301-20.612-10.051-37.507-12.45-10.382-1.474-20.921-1.474-31.303 0-16.899 2.4-29.672 8.148-37.506 12.449-4.134 2.269-8.674 3.484-13.208 3.633 9.142 32.406 25.514 62.323 47.892 87.496l11.282 12.692c3.828 4.306 10.555 4.306 14.383 0l11.282-12.692c22.377-25.173 38.75-55.089 47.892-87.495-4.534-.151-9.074-1.365-13.207-3.633z" fill="#ceb1a5"/><path d="m358.801 439.581c-26.284-24.351-35.491-63.281-20.478-98.33-2.415 2.184-4.884 4.31-7.405 6.376-1.049 10.167-5.656 19.798-13.243 27.054-8.119 7.766-18.921 12.1-30.156 12.1h-24.59c-3.824 0-6.924-3.1-6.924-6.924 0 3.824-3.1 6.924-6.924 6.924h-24.59c-11.235 0-22.037-4.334-30.156-12.1-7.587-7.257-12.194-16.887-13.243-27.054-2.521-2.066-4.989-4.192-7.404-6.375 15.011 35.05 5.805 73.979-20.48 98.329-19.14 17.732-34.341 39.821-43.974 64.929h293.541c-9.633-25.108-24.833-47.197-43.974-64.929z" fill="#fbf6ec"/><path d="m358.801 439.581c-26.284-24.351-35.491-63.281-20.478-98.33-2.415 2.184-4.884 4.31-7.405 6.376-1.049 10.167-5.656 19.798-13.243 27.054-5.95 5.691-13.341 9.539-21.288 11.189 4.644 12.705 12.253 24.297 22.414 33.71 3.654 3.385 7.165 6.93 10.521 10.624 18.953 20.862 4.2 54.306-23.987 54.306h-186.923c-3.457 6.42-6.528 13.095-9.177 20h293.541c-9.634-25.108-24.834-47.197-43.975-64.929z" fill="#f9efda"/><path d="m287.519 386.782h-24.59c-3.824 0-6.924-3.1-6.924-6.924 0 3.824-3.1 6.924-6.924 6.924h-24.59c-3.936 0-7.818-.533-11.55-1.557 4.269 16.442 21.928 28.766 43.064 28.766s38.795-12.325 43.064-28.766c-3.732 1.024-7.614 1.557-11.55 1.557z" fill="#f4e2c1"/><path d="m460.772 1.644-13.837 4.736c-40.397 13.827-75.492 40.122-100.128 75.317-6.045 8.636-7.113 10.586-10.409 13.39-3.754 3.193-8.554 4.8-13.427 4.734-.249-.02-.497-.028-.744-.023-3.197-.155-6.403-1.029-9.346-2.649-34.706-19.096-77.996-19.68-113.752 0-2.941 1.619-6.146 2.493-9.341 2.648-.25-.005-.503.003-.756.023-7.059.093-13.344-3.145-17.916-9.677l-5.913-8.447c-24.581-35.115-59.642-61.46-100.127-75.317l-13.837-4.735c-19.487-6.67-39.694 7.78-39.694 28.369 0 .146.004.294.013.44 1.163 19.785 4.408 39.507 9.644 58.617 1.095 3.995 5.221 6.344 9.215 5.252 3.995-1.095 6.346-5.221 5.251-9.216-4.939-18.027-8.008-36.631-9.122-55.294.13-10.173 10.146-17.289 19.835-13.978l13.837 4.736c17.01 5.822 33.06 14.047 47.715 24.45 13.395 15.075 23.712 32.453 30.674 51.668 3.386 9.346 5.089 15.084 9.827 22.658 5.472 8.749 5.913 19.655 1.187 29.158l-43.833 88.63c-7.615-6.932-13.245-15.871-16.172-25.847l-.866-2.949c-.344-1.173-.97-2.244-1.823-3.12l-19.39-19.911c-5.066-5.203-6.804-12.721-4.535-19.618l.849-2.579c.563-1.712.492-3.569-.203-5.232l-16.736-40.097c-1.596-3.823-5.988-5.628-9.81-4.032-3.823 1.595-5.628 5.987-4.033 9.81l15.66 37.519c-3.984 12.204-.899 25.492 8.062 34.695l18.092 18.577.341 1.162c4.581 15.613 14.392 29.218 27.716 38.498l25.778 43.798c7.621 12.949 16.544 24.951 26.665 35.89-19.985 1.765-39.755 5.54-59.04 11.287-3.969 1.183-6.229 5.359-5.045 9.329 1.177 3.951 5.341 6.235 9.33 5.046 22.026-6.564 44.717-10.419 67.629-11.504 3.189 8.573 4.84 17.468 5.033 26.31-18.851 12.076-36.289 26.235-52.013 42.248-2.902 2.956-2.859 7.704.097 10.606 2.955 2.901 7.703 2.86 10.606-.097 12.107-12.331 25.285-23.503 39.38-33.403-3.429 15.282-11.324 29.512-23.246 40.556-20.186 18.701-36.05 42.127-45.879 67.745-1.878 4.895 1.732 10.187 7.002 10.187h293.541c5.243 0 8.89-5.266 7.002-10.187-6.8-17.722-16.315-34.191-28.283-48.95-2.607-3.217-7.33-3.712-10.549-1.102-3.218 2.608-3.711 7.331-1.102 10.549 8.643 10.659 15.891 22.291 21.625 34.689h-83.553c7.402-4.655 14.297-10.343 20.525-16.994 2.831-3.023 2.676-7.77-.349-10.601-3.023-2.831-7.77-2.675-10.601.349-34.041 36.35-88.928 36.358-122.974 0-2.831-3.024-7.577-3.181-10.601-.349-3.023 2.831-3.179 7.577-.348 10.601 6.229 6.652 13.123 12.34 20.524 16.994h-83.544c9.047-19.501 21.958-37.291 37.757-51.928 18.163-16.826 28.258-39.321 29.872-62.506.738-.444 1.478-.885 2.22-1.322 4.904 4.393 10.529 7.75 16.589 9.955 6.825 18.026 26.326 30.281 49.018 30.281s42.195-12.255 49.019-30.282c6.059-2.205 11.684-5.562 16.587-9.954.731.431 1.46.865 2.188 1.302 1.33 19.701 8.849 38.763 22.154 54.433 1.483 1.747 3.595 2.646 5.721 2.646 6.307 0 9.877-7.451 5.713-12.354-8.474-9.981-14.154-21.607-16.891-33.868 14.154 9.927 27.385 21.136 39.537 33.513 2.902 2.954 7.65 3 10.606.097 2.955-2.902 2.999-7.65.097-10.606-15.751-16.041-33.221-30.22-52.11-42.31.23-8.805 1.924-17.668 5.128-26.248 22.912 1.084 45.603 4.94 67.631 11.504 3.987 1.189 8.152-1.094 9.329-5.046 1.183-3.97-1.076-8.146-5.046-9.329-19.285-5.747-39.055-9.522-59.039-11.287 10.121-10.938 19.043-22.941 26.665-35.89l25.778-43.798c13.323-9.279 23.133-22.884 27.715-38.498l.342-1.162 18.092-18.577c8.96-9.203 12.045-22.491 8.061-34.695l15.659-37.519c12.389-29.679 19.626-61.005 21.513-93.107.009-.146.013-.293.013-.439-.002-20.595-20.217-35.036-39.696-28.369zm-234.541 392.638h22.851c2.507 0 4.867-.644 6.923-1.773 2.057 1.13 4.417 1.773 6.924 1.773h22.85c-14.652 16.262-44.895 16.263-59.548 0zm29.774-32.694-19.765-17.466c12.843-3.857 26.687-3.857 39.531 0zm114.362-71.388c-9.071 15.412-20.124 29.378-32.964 41.67l-2.29-11.389c-.46-2.286.25-4.636 1.9-6.286l24.006-24.007c2.929-2.929 2.929-7.678-.001-10.606-2.928-2.928-7.677-2.929-10.606.001l-24.006 24.006c-5.209 5.209-7.451 12.63-5.998 19.851l1.831 9.102h-8.325c-4.143 0-7.5 3.357-7.5 7.5s3.357 7.5 7.5 7.5h9.468c-.638 5.207-2.401 10.185-5.125 14.597l-10.559-5.836c-3.628-2.004-8.188-.688-10.192 2.937-2.003 3.625-.688 8.188 2.937 10.192l7.001 3.869c-5.653 3.747-12.505 5.982-19.923 5.982h-24.014v-4.305l27.683-24.462c1.875-1.657 3.074-3.861 3.465-6.244 3.275-16.864 5.838-33.304 7.785-50.581.464-4.116-2.497-7.829-6.613-8.293-4.107-.472-7.829 2.496-8.293 6.613-1.439 12.776-3.3 25.631-5.546 38.342-16.809-5.489-35.154-5.489-51.962 0-2.246-12.713-4.106-25.567-5.546-38.342-.464-4.115-4.171-7.083-8.292-6.613-4.116.464-7.077 4.177-6.613 8.293 1.838 16.312 4.341 32.882 7.783 50.576.391 2.385 1.59 4.59 3.467 6.249l27.682 24.461v4.304h-24.014c-7.185 0-14.075-2.106-19.923-5.982l7.001-3.869c3.625-2.004 4.94-6.567 2.937-10.192s-6.566-4.938-10.192-2.937l-10.559 5.835c-2.724-4.413-4.487-9.391-5.125-14.597h9.468c4.142 0 7.5-3.357 7.5-7.5s-3.358-7.5-7.5-7.5h-8.324l1.831-9.102c1.452-7.221-.791-14.641-5.999-19.851l-24.007-24.007c-2.929-2.928-7.678-2.928-10.606 0-2.929 2.93-2.929 7.678 0 10.607l24.006 24.006c1.649 1.65 2.36 4 1.9 6.287l-2.291 11.389c-12.841-12.293-23.895-26.259-32.965-41.67l-24.651-41.883c40.506-81.905 45.906-92.826 46.051-93.116 7.074-14.225 6.367-30.601-1.892-43.807-4.475-7.153-5.39-11.974-9.679-23.126 1.013 1.407.9 1.256 7.356 10.479 6.044 8.636 14.655 14.335 25.114 15.738 2.174 7.059 4.694 14.017 7.545 20.842l-4.769 26.99c-1.054 5.967-.772 12.212.814 18.059l7.841 28.888c1.084 3.994 5.203 6.36 9.203 5.273 3.997-1.085 6.358-5.205 5.273-9.203l-7.841-28.888c-1.013-3.729-1.192-7.713-.52-11.52l1.157-6.547c13.894 25.08 26.774 38.577 40.563 54.088 6.786 7.632 18.763 7.684 25.594 0 11.855-13.336 12.884-14.441 15.915-18.067 2.656-3.178 2.233-7.908-.945-10.564-3.178-2.655-7.907-2.233-10.564.945-2.983 3.57-4.535 5.255-15.616 17.721-.844.949-2.327.95-3.172-.001l-11.282-12.691c-19.641-22.094-34.698-48.415-43.85-76.548 2.425-.729 4.798-1.718 7.074-2.971 30.666-16.877 68.502-16.936 99.289.001 2.277 1.253 4.65 2.242 7.076 2.971-3.082 9.496-5.696 15.398-6.918 18.403-3.554 8.287-7.629 16.35-12.199 24.133-2.947 5.021.72 11.299 6.461 11.299 2.572 0 5.077-1.324 6.475-3.703.964-1.642 1.908-3.296 2.83-4.961l1.147 6.493c.673 3.807.493 7.79-.52 11.52l-7.841 28.888c-1.085 3.998 1.276 8.118 5.273 9.203 3.973 1.079 8.112-1.251 9.203-5.273l7.841-28.888c1.587-5.847 1.869-12.092.814-18.059l-4.763-26.956c2.845-6.83 5.362-13.798 7.539-20.876 10.48-1.407 19.081-7.123 25.114-15.739 6.299-8.998 6.317-9.035 7.354-10.476-4.269 11.099-5.206 15.977-9.678 23.125-8.259 13.204-8.966 29.58-1.885 43.82l46.044 93.101zm94.732-172.417-16.736 40.097c-.694 1.663-.767 3.521-.203 5.232l.849 2.579c2.27 6.897.531 14.415-4.534 19.618l-19.391 19.911c-.854.876-1.479 1.947-1.823 3.121l-.865 2.948c-2.928 9.977-8.558 18.915-16.172 25.847-.189-.383-43.587-88.131-43.825-88.615-4.733-9.519-4.293-20.424 1.177-29.171 4.609-7.364 6.111-12.397 9.829-22.66 6.962-19.216 17.279-36.594 30.673-51.668 14.655-10.403 30.705-18.628 47.716-24.45l13.837-4.736c9.684-3.318 19.706 3.81 19.836 13.978-1.81 30.328-8.663 59.924-20.368 87.969z"/><path d="m351.847 219.544-46.091 12.35c-9.269 2.483-15.742 10.92-15.742 20.516v4.904c0 4.143 3.357 7.5 7.5 7.5s7.5-3.357 7.5-7.5v-4.904c0-2.819 1.901-5.298 4.625-6.027l46.091-12.35c4.001-1.071 6.375-5.185 5.303-9.186s-5.184-6.379-9.186-5.303z"/><path d="m206.253 231.893-46.09-12.35c-3.994-1.073-8.113 1.302-9.186 5.303-1.072 4.001 1.303 8.114 5.304 9.186l46.09 12.35c2.723.729 4.625 3.208 4.625 6.027v4.904c0 4.143 3.358 7.5 7.5 7.5s7.5-3.357 7.5-7.5v-4.904c.001-9.597-6.473-18.033-15.743-20.516z"/></g></svg>