<svg id="Capa_1" enable-background="new 0 0 511.997 511.997" height="512" viewBox="0 0 511.997 511.997" width="512" xmlns="http://www.w3.org/2000/svg"><g><path d="m100.597 8.888c-12.375-4.516-25.987 2.351-29.566 15.028l-.64 2.266c-3.173 11.236-4.261 22.958-3.211 34.586l4.335 47.991c.701 7.758 4.578 14.881 10.713 19.682l-.103 3.882c-.459 17.275 1.787 34.516 6.657 51.097.598 2.035 3.266 2.496 4.514.781 26.323-36.146 64.933-61.467 108.537-71.22 1.883-.421 2.625-2.707 1.36-4.164l-63.163-72.777c-10.63-12.25-24.2-21.592-39.433-27.152z" fill="#afaab4"/><path d="m411.401 8.888c12.375-4.516 25.986 2.351 29.566 15.028l.64 2.266c3.173 11.236 4.261 22.958 3.211 34.586l-4.335 47.991c-.701 7.758-4.578 14.881-10.713 19.682l.103 3.882c.459 17.275-1.787 34.516-6.657 51.097-.598 2.035-3.266 2.496-4.514.781-26.323-36.146-64.933-61.467-108.537-71.22-1.883-.421-2.625-2.707-1.36-4.164l63.163-72.777c10.629-12.25 24.199-21.592 39.433-27.152z" fill="#afaab4"/><path d="m442.602 222.161c-5.411-8.856-8.641-18.872-9.424-29.22l-2.613-34.546c-.148-1.953-.637-3.831-1.419-5.564-1.01 10.345-2.993 20.586-5.93 30.588-.598 2.035-3.266 2.496-4.514.781-26.323-36.146-64.933-61.467-108.537-71.22-1.883-.422-2.625-2.707-1.36-4.165l12.033-13.864c-7.754-3.042-16.538-2.315-23.725 2.067l-8.574 5.228c-6.242 3.806-13.599 5.362-20.848 4.409l-.123-.016c-7.679-1.009-15.457-1.009-23.136 0l-.123.016c-7.249.953-14.606-.603-20.848-4.409l-8.574-5.228c-7.187-4.382-15.971-5.109-23.725-2.067l12.033 13.864c1.265 1.458.523 3.743-1.36 4.165-43.604 9.753-82.214 35.074-108.537 71.22-1.249 1.715-3.917 1.254-4.514-.781-2.937-10.002-4.92-20.244-5.93-30.588-.782 1.732-1.272 3.611-1.419 5.564l-2.613 34.546c-.783 10.349-4.013 20.364-9.424 29.22-6.397 10.47-9.461 22.638-8.786 34.889l4.722 85.704c1.427 25.912 14.933 49.651 36.478 64.117 9.67 6.493 19.975 11.901 30.727 16.155l-1.779-39.331c-1.392-30.764 12.401-60.253 36.907-78.904l18.362-13.975c21.263-16.183 36.604-38.919 43.651-64.694l20.748-75.884c1.551-5.672 9.596-5.672 11.146 0l20.748 75.884c7.047 25.775 22.388 48.511 43.651 64.694l18.362 13.975c24.505 18.651 38.299 48.139 36.907 78.904l-1.779 39.331c10.752-4.254 21.057-9.662 30.727-16.155 21.545-14.466 35.051-38.206 36.478-64.117l4.722-85.704c.673-12.251-2.391-24.418-8.788-34.889z" fill="#8b818e"/><path d="m455.539 473.173c-11.185-24.523-25.507-47.458-42.588-68.24-.906.663-1.826 1.31-2.763 1.938-9.67 6.493-19.975 11.901-30.727 16.155-13.704 5.423-28.134 8.972-42.9 10.506l-17.688 1.838c-41.804 4.343-83.945 4.343-125.749 0l-17.688-1.838c-14.766-1.534-29.196-5.083-42.9-10.506-10.752-4.254-21.057-9.662-30.727-16.155-.936-.629-1.857-1.275-2.763-1.938-17.081 20.782-31.403 43.718-42.588 68.24l-14.287 31.324h427.654z" fill="#f1f1f4"/><path d="m455.539 473.173c-11.185-24.523-25.507-47.458-42.588-68.24-.906.663-1.826 1.31-2.763 1.938-4.822 3.238-9.803 6.206-14.917 8.896 7.592 11.972 14.367 24.468 20.268 37.406 6.686 14.66-4.029 31.324-20.142 31.324h-344.104l-9.122 20h427.654z" fill="#dfdde2"/><path d="m381.24 383.695c1.392-30.764-12.401-60.253-36.907-78.904l-18.362-13.975c-21.263-16.183-36.604-38.919-43.651-64.694l-20.748-75.884c-1.551-5.672-9.596-5.672-11.146 0l-20.748 75.884c-7.047 25.775-22.388 48.511-43.651 64.694l-18.362 13.975c-24.505 18.651-38.299 48.139-36.907 78.904l1.779 39.331c13.704 5.423 28.134 8.972 42.9 10.506l17.687 1.838c41.804 4.343 83.945 4.343 125.749 0l17.687-1.838c14.767-1.534 29.196-5.083 42.9-10.506z" fill="#f1f1f4"/><path d="m100.406 405.908c.464.325.932.647 1.403.964 9.67 6.493 19.975 11.901 30.727 16.155l-.447-9.877c-10.81-1.351-21.423-3.784-31.683-7.242z" fill="#756e78"/><path d="m442.602 222.161c-5.411-8.856-8.641-18.872-9.424-29.22l-2.613-34.546c-.148-1.953-.637-3.831-1.419-5.564-1.01 10.344-2.993 20.586-5.93 30.588-.598 2.035-3.266 2.496-4.514.781-7.938-10.9-16.993-20.815-26.966-29.616.341 4.748.797 10.734 1.442 18.357.783 10.349 4.013 20.364 9.424 29.22 6.397 10.471 9.461 22.638 8.786 34.889l-4.722 85.704c-1.162 21.104-10.338 40.767-25.343 55.153.031 1.923.004 3.853-.083 5.788l-1.779 39.331c10.752-4.254 21.057-9.662 30.727-16.155 21.545-14.467 35.051-38.206 36.478-64.118l4.722-85.704c.675-12.25-2.389-24.417-8.786-34.888z" fill="#756e78"/><path d="m370.188 386.871c-42.396 28.468-81.62 26.61-91.315 28.499-41.804 4.343-83.945 4.343-125.749 0l-17.688-1.838c-1.118-.116-2.233-.244-3.347-.383l.447 9.877c13.704 5.423 28.134 8.972 42.9 10.506l17.688 1.838c41.804 4.343 83.945 4.343 125.749 0l17.688-1.838c14.766-1.534 29.196-5.083 42.9-10.506l1.779-39.331c.088-1.935.115-3.865.083-5.788-3.417 3.277-7.138 6.28-11.135 8.964z" fill="#dfdde2"/><path d="m441.607 26.182-.64-2.266c-3.58-12.677-17.191-19.544-29.566-15.028-2.817 1.028-5.576 2.186-8.271 3.467 1.974 9.322 2.547 18.899 1.687 28.413l-4.335 47.991c-.701 7.758-4.578 14.881-10.713 19.682l.103 3.882c.292 11.002-.6 18.603-.727 20.509 1.632 3.616 1.374 4.792 2.59 21.753 9.972 8.801 19.028 18.716 26.966 29.616 1.249 1.715 3.917 1.255 4.514-.781 4.87-16.581 7.116-33.822 6.657-51.097l-.103-3.882c6.135-4.8 10.012-11.923 10.713-19.682l4.335-47.991c1.05-11.629-.038-23.35-3.21-34.586z" fill="#a298a5"/><path d="m255.999 343.027-29.717-29.718c-2.076-2.076-1.417-5.59 1.271-6.772 18.126-7.976 38.767-7.976 56.893 0 2.687 1.182 3.346 4.696 1.271 6.772z" fill="#f9c6da"/><path d="m317.203 379.285-16.048-2.086c-12.977-1.688-25.595-6.409-36.49-13.655-.73-.486-1.166-1.3-1.166-2.177v-15.233l27.521-27.521c5.801-5.803 3.955-15.637-3.554-18.941-19.998-8.799-42.936-8.8-62.934.001-7.509 3.303-9.354 13.139-3.554 18.939l27.521 27.521v15.233c0 .877-.436 1.69-1.165 2.176-10.896 7.247-23.515 11.969-36.491 13.656l-16.048 2.086c-4.107.534-7.005 4.297-6.471 8.404.537 4.131 4.325 7.005 8.404 6.471l16.048-2.086c15.243-1.981 30.065-7.529 42.865-16.042.12-.08.239-.162.357-.245.119.083.238.165.359.246 12.799 8.512 27.621 14.06 42.864 16.041l16.048 2.086c4.083.535 7.868-2.343 8.404-6.471.535-4.107-2.363-7.869-6.47-8.403zm-40.376-67.694-20.828 20.829-20.828-20.829c13.461-4.696 28.196-4.695 41.656 0z"/><path d="m316.138 252.094v5.175c0 4.143 3.357 7.5 7.5 7.5s7.5-3.357 7.5-7.5v-5.175c0-3.163 2.134-5.943 5.188-6.763l48.641-13.033c4.001-1.071 6.375-5.185 5.303-9.186-1.071-4.001-5.183-6.377-9.186-5.303l-48.642 13.033c-9.599 2.574-16.304 11.314-16.304 21.252z"/><path d="m179.553 230.843-48.641-13.033c-4.002-1.074-8.114 1.302-9.186 5.303s1.302 8.114 5.303 9.186l48.64 13.033c3.056.819 5.189 3.6 5.189 6.763v5.175c0 4.143 3.357 7.5 7.5 7.5s7.5-3.357 7.5-7.5v-5.175c.001-9.939-6.704-18.679-16.305-21.252z"/><path d="m305.131 194.456c3.502 2.181 8.131 1.134 10.333-2.396l3.097-4.967c5.979-9.59 10.871-19.87 14.54-30.554 1.345-3.918-.74-8.184-4.658-9.529-3.911-1.341-8.183.739-9.529 4.658-3.3 9.611-7.701 18.86-13.081 27.488l-3.097 4.966c-2.192 3.516-1.12 8.142 2.395 10.334z"/><path d="m324.47 196.015c-3.312 2.488-3.979 7.189-1.489 10.501 2.496 3.322 7.204 3.97 10.501 1.489l4.678-3.515c10.76-8.086 20.383-17.593 28.602-28.256 2.528-3.28 1.919-7.99-1.362-10.519s-7.991-1.918-10.519 1.362c-7.394 9.593-16.052 18.146-25.732 25.421z"/><path d="m206.166 179.159c-5.38-8.629-9.781-17.878-13.081-27.489-1.346-3.918-5.613-6.001-9.529-4.658-3.918 1.346-6.003 5.611-4.658 9.529 3.669 10.684 8.561 20.964 14.54 30.555l3.097 4.966c1.422 2.28 3.868 3.532 6.371 3.532 5.82 0 9.49-6.446 6.357-11.47z"/><path d="m173.838 204.49 4.678 3.516c3.309 2.488 8.013 1.822 10.501-1.489 2.489-3.312 1.822-8.013-1.489-10.501l-4.678-3.517c-9.681-7.274-18.339-15.827-25.732-25.42-2.529-3.28-7.239-3.892-10.519-1.362-3.281 2.528-3.891 7.238-1.362 10.519 8.218 10.662 17.841 20.169 28.601 28.254z"/><path d="m471.56 328.497-16.415-3.299 3.732-67.737c.763-13.832-2.652-27.391-9.875-39.211-4.77-7.806-7.655-16.754-8.345-25.876l-2.613-34.547c-.157-2.083-.581-4.121-1.263-6.081.603-6.932.753-13.289.58-20.004 6.023-5.906 9.828-13.846 10.592-22.311l1.959-21.683c.372-4.125-2.67-7.771-6.795-8.145-4.112-.378-7.771 2.67-8.145 6.795l-1.959 21.684c-.512 5.673-3.378 10.939-7.864 14.448-1.872 1.465-2.939 3.73-2.876 6.107.196 7.34.359 13.62-.567 23.247-.247 1.938-.813 9.34-3.183 19.791-19.365-23.813-44.069-42.505-71.964-54.669l6.257-7.209 8.237-1.216c10.823-1.6 21.544 2.404 28.672 10.707 1.483 1.728 3.582 2.614 5.694 2.614 6.315 0 9.901-7.477 5.687-12.386-7.686-8.952-18.201-14.509-29.544-15.924 10.7-5.431 21.981-4.572 31.024.826 3.557 2.124 8.162.963 10.284-2.595 2.123-3.557.962-8.161-2.595-10.284-8.396-5.013-17.898-7.197-27.284-6.511l14.565-16.781c6.021-6.939 13.673-12.541 22.125-16.2 3.802-1.646 5.549-6.062 3.903-9.862-1.646-3.802-6.061-5.549-9.862-3.903-10.502 4.547-20.01 11.509-27.494 20.134-12.809 14.759 19.581-22.561-54.535 62.834-3.924-1.335-7.901-2.546-11.923-3.628 118.71-136.778 10.022-11.548 57.861-66.668 9.771-11.258 22.337-19.91 36.341-25.021 8.369-3.054 17.404 1.619 19.777 10.023l.64 2.262c2.037 7.219 3.147 14.68 3.298 22.177.082 4.09 3.423 7.35 7.495 7.35 4.205 0 7.586-3.451 7.501-7.65-.176-8.772-1.474-17.504-3.859-25.954l-.64-2.263c-4.763-16.87-22.898-26.034-39.354-20.036-16.388 5.981-31.093 16.106-42.526 29.28l-47.968 55.268c-8.525-1.835-17.599-.366-25.129 4.225l-8.573 5.228c-4.772 2.909-10.482 4.129-16.092 3.36-8.638-1.134-17.417-1.055-25.213.018-5.531.728-11.202-.473-15.967-3.378l-8.573-5.228c-7.531-4.592-16.604-6.06-25.129-4.225l-47.966-55.267c-11.435-13.175-26.141-23.3-42.527-29.28-16.435-5.995-34.586 3.148-39.354 20.035l-.64 2.266c-3.435 12.164-4.6 24.713-3.463 37.298l4.335 47.99c.764 8.466 4.568 16.405 10.592 22.312-.172 6.681-.026 13.033.58 20.003-.682 1.961-1.106 3.998-1.263 6.082l-2.613 34.547c-.689 9.122-3.575 18.07-8.344 25.876-7.224 11.82-10.639 25.379-9.876 39.211l3.732 67.737-16.415 3.299c-4.061.815-6.691 4.77-5.875 8.83.82 4.081 4.793 6.69 8.83 5.875l14.294-2.872.156 2.836c.673 12.217 3.865 24.063 9.178 34.842-1.795.741 1.11-.477-23.161 9.736-3.817 1.606-5.61 6.004-4.004 9.822 1.602 3.806 5.991 5.614 9.822 4.004 22.972-9.667 22.209-9.357 25.161-10.555 3.961 5.495 8.543 10.558 13.674 15.063-15.427 19.71-28.488 41.2-38.879 63.981l-14.286 31.324c-2.258 4.946 1.352 10.612 6.823 10.612h427.654c5.44 0 9.092-5.637 6.824-10.612l-14.286-31.324c-1.719-3.769-6.169-5.431-9.937-3.712-3.769 1.719-5.431 6.168-3.712 9.937l9.446 20.712h-150.301c7.371-4.641 14.237-10.309 20.442-16.935 2.831-3.023 2.675-7.77-.349-10.601s-7.77-2.675-10.601.349c-33.966 36.271-88.732 36.279-122.705 0-2.831-3.024-7.577-3.181-10.601-.349-3.023 2.831-3.18 7.577-.349 10.601 6.204 6.626 13.071 12.294 20.442 16.935h-150.302l9.447-20.712c9.952-21.822 22.478-42.4 37.279-61.262 21.5 13.797 46.747 23.127 74.101 25.969l17.686 1.837c42.217 4.386 85.061 4.39 127.3 0l17.688-1.837c25.306-2.63 50.864-11.057 74.099-25.969 7.302 9.308 14.094 19.092 20.242 29.162 1.413 2.315 3.881 3.593 6.408 3.593 5.782 0 9.465-6.378 6.395-11.409-6.382-10.455-13.427-20.615-20.997-30.289 5.131-4.505 9.713-9.568 13.674-15.064 2.918 1.184 2.255.916 25.161 10.555 3.835 1.612 8.222-.201 9.822-4.004 1.606-3.818-.187-8.216-4.004-9.822-21.726-9.143-21.387-9.004-23.161-9.736 5.313-10.779 8.505-22.625 9.178-34.843l.156-2.835 14.294 2.872c4.034.813 8.011-1.791 8.83-5.875.818-4.062-1.813-8.016-5.874-8.832zm-393.951-300.277.64-2.266c2.382-8.438 11.441-13.063 19.776-10.021 14.003 5.11 26.57 13.763 36.342 25.021 8.791 10.129 51.859 59.753 57.86 66.668-4.022 1.082-7.998 2.293-11.922 3.628l-54.534-62.833c-7.484-8.626-16.992-15.589-27.496-20.136-3.804-1.646-8.217.102-9.862 3.903-1.646 3.801.102 8.217 3.903 9.862 8.454 3.659 16.104 9.262 22.126 16.201l14.564 16.781c-9.385-.686-18.887 1.499-27.284 6.512-3.557 2.123-4.718 6.728-2.595 10.284 2.121 3.556 6.725 4.719 10.284 2.595 9.03-5.39 20.313-6.263 31.026-.826-11.34 1.416-21.859 6.972-29.545 15.923-2.698 3.143-2.338 7.878.805 10.576 3.136 2.692 7.872 2.345 10.576-.805 7.128-8.303 17.851-12.309 28.671-10.707l8.24 1.217 6.257 7.209c-27.896 12.164-52.601 30.857-71.965 54.669-1.447-6.382-2.495-12.839-3.139-19.341-.01-.151-.025-.301-.044-.45-.943-9.804-.747-16.475-.567-23.246.063-2.377-1.004-4.643-2.876-6.107-4.486-3.509-7.353-8.775-7.864-14.449l-4.336-47.99c-.972-10.755.024-21.477 2.959-31.872zm-4.79 314.122-.271-4.925c20.663-3.729 41.61-5.648 62.588-5.742-4.633 8.667-7.999 17.991-9.961 27.682-14.958 3.49-29.696 7.893-44.123 13.184-4.778-9.29-7.648-19.577-8.233-30.199zm50.43 32.911c-.23 5.551-.108 6.032 1.25 36.042-6.406-3.12-12.6-6.682-18.509-10.649-6.3-4.23-11.86-9.373-16.543-15.188 11.097-3.951 22.378-7.357 33.802-10.205zm212.537 50.82-17.688 1.837c-41.205 4.281-82.993 4.281-124.2 0l-17.686-1.837c-12.434-1.292-24.657-4.085-36.406-8.316-1.666-36.815-1.984-38.324-1.305-45.959 15.391-3.138 22.94-3.912 68.409-10.108 4.104-.56 6.978-4.34 6.419-8.444-.56-4.104-4.341-6.971-8.444-6.419-46.767 6.372-51.256 6.83-63.459 9.115 2.405-8.49 6.097-16.563 10.943-23.932 5.592.242 4.657.218 53.045 3.35 4.119.271 7.701-2.867 7.969-7 .268-4.134-2.866-7.701-7-7.969l-42.178-2.729c5.05-4.927 7.473-6.501 26.364-20.877 22.447-17.084 38.905-41.477 46.344-68.683l.855-3.127c1.093-3.996-1.26-8.121-5.255-9.214-3.999-1.088-8.121 1.261-9.214 5.255l-.855 3.129c-6.574 24.046-21.121 45.604-40.959 60.704l-18.362 13.975c-6.891 5.245-12.998 11.285-18.236 17.937-24.504-.53-49.019 1.334-73.17 5.569l-3.619-65.691c-.594-10.782 2.068-21.352 7.699-30.566 6.002-9.824 9.634-21.085 10.501-32.565l.148-1.957c4.308 2.316 9.845 1.279 12.914-2.935 24.613-33.798 61.179-58.714 104.109-68.316 7.41-1.656 10.385-10.637 5.389-16.399l-2.065-2.38c2.952.933 3.892 1.721 12.763 7.13 7.49 4.567 16.51 6.638 25.854 5.427 7.085-.931 14.152-.922 21.305.016 8.731 1.153 17.906-.672 25.73-5.442 8.9-5.427 9.825-6.201 12.763-7.13l-2.067 2.382c-4.994 5.757-2.02 14.741 5.389 16.397 40.634 9.09 78.118 32.622 104.111 68.317 3.06 4.201 8.593 5.257 12.914 2.934l.148 1.957c.867 11.48 4.499 22.741 10.502 32.565 5.63 9.215 8.292 19.784 7.698 30.566l-3.619 65.692c-24.15-4.234-48.664-6.096-73.168-5.568-5.238-6.652-11.345-12.693-18.237-17.938l-18.362-13.975c-19.838-15.1-34.385-36.658-40.959-60.705l-20.748-75.885c-1.599-5.847-6.746-9.775-12.808-9.775s-11.209 3.929-12.808 9.776l-10.156 37.146c-1.093 3.995 1.261 8.119 5.257 9.212 3.997 1.092 8.12-1.261 9.212-5.257l8.495-31.07 19.087 69.809c7.438 27.208 23.896 51.601 46.344 68.685 18.415 14.015 21.288 15.926 26.364 20.877l-42.178 2.729c-4.134.268-7.268 3.835-7 7.969.267 4.133 3.823 7.271 7.969 7 48.698-3.151 47.806-3.123 53.045-3.349 4.846 7.368 8.538 15.441 10.943 23.932-12.203-2.285-15.693-2.607-63.459-9.115-4.1-.554-7.885 2.313-8.444 6.419-.559 4.104 2.314 7.885 6.419 8.444 45.841 6.246 53.05 6.976 68.409 10.108.665 7.471.383 8.666-1.305 45.959-11.754 4.228-23.978 7.021-36.41 8.313zm70.222-25.428c-5.909 3.967-12.103 7.53-18.509 10.649 1.263-27.913 1.498-30.049 1.25-36.042 11.423 2.848 22.705 6.254 33.802 10.205-4.684 5.815-10.243 10.957-16.543 15.188zm-19.185-41.287c-1.962-9.691-5.327-19.015-9.961-27.681 20.977.094 41.924 2.013 62.587 5.741l-.271 4.924c-.585 10.623-3.455 20.91-8.232 30.201-14.428-5.293-29.165-9.695-44.123-13.185z"/></g></svg>