<svg id="Capa_1" enable-background="new 0 0 512 512" height="512" viewBox="0 0 512 512" width="512" xmlns="http://www.w3.org/2000/svg"><g><path d="m362.65 445.718c-12.297-11.392-20.465-26.31-23.612-42.446-7.65 2.952-15.696 4.975-23.962 5.985l-37.13 4.534.348-.208-17.861 10.678c-2.726 1.629-6.126 1.629-8.852 0l-17.861-10.678.348.208-37.131-4.535c-8.266-1.009-16.311-3.032-23.961-5.984-3.147 16.136-11.315 31.053-23.612 42.446-17.328 16.053-31.089 36.051-39.81 58.782h292.906c-8.72-22.731-22.481-42.728-39.81-58.782z" fill="#ecb780"/><path d="m362.65 445.719c-12.297-11.392-20.465-26.31-23.612-42.446-7.65 2.952-15.696 4.975-23.962 5.985l-5.506.672c3.611 5.757 7.991 11.075 13.08 15.789 6.258 5.798 12.051 12.11 17.31 18.88 12.621 16.249 1.119 39.902-19.456 39.902h-201.605c-3.556 6.39-6.685 13.067-9.345 20h292.906c-8.72-22.732-22.481-42.729-39.81-58.782z" fill="#e7a561"/><path d="m297.704 391.451c-3.563 0-7.113-.415-10.58-1.236l-21.911-5.19c-5.395-1.278-9.205-6.096-9.205-11.64 0 5.544-3.81 10.362-9.205 11.64l-21.911 5.19c-3.467.821-7.017 1.236-10.58 1.236 3.989 9.23 10.779 16.973 19.409 22.132l17.86 10.678c2.726 1.629 6.127 1.629 8.852 0l17.861-10.678c8.631-5.159 15.421-12.901 19.41-22.132z" fill="#dfdde2"/><path d="m429.121 192.01c-4.417 8.456-15.319 11.031-23.136 5.562l-51.423-35.972c-13.738-9.611-18.973-27.465-12.599-42.972l26.319-64.032-45.097 51.845c-3.244 3.729-8.327 5.323-13.102 4.046-11.768-3.148-23.819-5.303-36.028-6.424-12.006-1.102-24.088-1.102-36.095 0-12.209 1.12-24.26 3.276-36.028 6.424-4.775 1.277-9.858-.317-13.102-4.046l-45.097-51.845 26.319 64.033c6.374 15.507 1.139 33.361-12.599 42.972l-51.422 35.972c-7.819 5.47-18.722 2.892-23.138-5.566-.639-1.225-1.266-2.456-1.88-3.692l1.731 32.331c.958 17.902 5.352 35.452 12.942 51.694l1.605 3.435c0 35.024 11.847 69.35 34.177 97.204 16.197 20.204 39.766 33.141 65.47 36.28l37.131 4.535-.348-.208c-8.63-5.16-15.42-12.902-19.409-22.132 3.562 0 7.112-.415 10.578-1.236l21.913-5.191c5.395-1.278 9.205-6.096 9.205-11.64 0 5.544 3.81 10.362 9.205 11.64l21.911 5.19c3.467.821 7.017 1.236 10.58 1.236-3.989 9.23-10.779 16.973-19.409 22.132l-.348.208 37.13-4.534c25.704-3.139 49.273-16.076 65.47-36.28 22.331-27.854 34.178-62.18 34.178-97.204l1.605-3.434c7.59-16.245 11.984-33.798 12.943-51.703l1.73-32.322c-.615 1.236-1.242 2.469-1.882 3.694z" fill="#ecb780"/><path d="m429.121 192.01c-4.417 8.456-15.319 11.031-23.136 5.562l-15.95-11.158-.761 14.221c-.958 17.905-5.353 35.458-12.943 51.703l-1.604 3.435c0 35.024-11.847 69.351-34.178 97.204-15.156 18.904-36.764 31.445-60.537 35.552l7.114 1.685c3.467.821 7.017 1.236 10.58 1.236-3.989 9.23-10.779 16.973-19.409 22.132l-.348.208 37.13-4.534c25.704-3.139 49.273-16.076 65.47-36.28 22.331-27.854 34.178-62.18 34.178-97.204l1.604-3.435c7.59-16.245 11.984-33.798 12.943-51.703l1.73-32.322c-.616 1.24-1.243 2.473-1.883 3.698z" fill="#e7a561"/><path d="m214.943 392.849c-19.371-.042-38.74-1.239-58.004-3.591h-.001c-3.885-.474-7.721-1.173-11.49-2.086 14.571 12.055 32.445 19.76 51.49 22.086l37.131 4.535-.348-.208c-8.191-4.898-14.724-12.122-18.778-20.736z" fill="#e7a561"/><path d="m256.008 342.037c-80.136 0-83.869 11.13-81.402 26.805l1.999 2.881c8.577 12.358 22.664 19.729 37.707 19.729 3.563 0 7.113-.415 10.58-1.236l21.911-5.19c5.395-1.278 9.205-6.096 9.205-11.64 0 5.544 3.81 10.362 9.205 11.64l21.911 5.19c3.467.821 7.017 1.236 10.58 1.236 15.042 0 29.13-7.371 37.707-19.729l1.999-2.881c2.466-15.675-1.266-26.805-81.402-26.805z" fill="#f1f1f4"/><g fill="#f9c6da"><path d="m256.008 364.933-25.592-22.215c-1.971-1.711-1.271-4.924 1.232-5.66 15.903-4.681 32.817-4.681 48.719 0 2.503.737 3.203 3.95 1.232 5.66z"/><path d="m114.606 21.111c-3.915-4.5-8.731-8.129-14.136-10.649-17.336-8.084-37.815 1.045-43.39 19.343-6.259 20.542-7.219 42.334-2.79 63.347l9.776 46.385c3.846 18.247 10.165 35.855 18.76 52.341 4.438 8.512 15.34 11.198 23.206 5.696l51.422-35.972c13.738-9.611 18.973-27.465 12.599-42.972l-26.319-64.033z"/><path d="m397.41 21.111c3.915-4.5 8.731-8.129 14.136-10.649 17.336-8.084 37.815 1.045 43.39 19.343 6.259 20.542 7.219 42.334 2.79 63.347l-9.776 46.385c-3.846 18.247-10.165 35.855-18.76 52.341-4.438 8.512-15.34 11.198-23.206 5.696l-51.422-35.972c-13.738-9.611-18.973-27.465-12.599-42.972l26.319-64.033z"/></g><path d="m454.936 29.804c-5.236-17.186-23.62-26.283-40.199-20.627.068.208.135.417.199.627 6.259 20.542 7.219 42.334 2.79 63.347l-9.776 46.384c-3.57 16.94-9.272 33.327-16.947 48.779l-.969 18.1 15.95 11.158c7.866 5.502 18.768 2.816 23.206-5.696 8.595-16.486 14.914-34.093 18.76-52.341l9.776-46.384c4.429-21.012 3.469-42.804-2.79-63.347z" fill="#efa5c3"/><path d="m408.376 3.665c-6.398 2.983-11.992 7.197-16.625 12.524-32.79 37.695-41.479 47.685-74.224 85.329-1.37 1.575-3.53 2.253-5.505 1.724-39.104-10.462-75.531-9.559-112.054.006-1.971.515-4.116-.163-5.479-1.729-53.892-61.957-38.606-44.384-74.224-85.33-4.634-5.327-10.228-9.541-16.626-12.524-21.47-10.013-46.836 1.315-53.733 23.953-5.014 16.45-6.821 33.479-5.376 50.615.348 4.128 3.983 7.169 8.104 6.843 4.127-.349 7.19-3.977 6.843-8.104-1.285-15.228.323-30.362 4.778-44.982 4.247-13.941 19.856-20.88 33.045-14.731 4.483 2.091 8.401 5.043 11.647 8.774l28.318 32.555 10.259 24.96c-12.422-7.082-27.12-9.778-41.441-7.279-4.08.712-6.812 4.597-6.1 8.678.712 4.08 4.603 6.814 8.678 6.1 14.621-2.555 29.763 2.039 40.508 12.279l10.659 10.158c3.242 7.888 3.334 8.104 3.5 8.531l-1.094-.657c-16.785-10.074-37.601-11.608-55.686-4.103-3.825 1.588-5.639 5.977-4.051 9.803 1.588 3.824 5.975 5.64 9.803 4.051 13.708-5.692 29.487-4.527 42.214 3.11l9.683 5.812c-1.732 6.072-5.513 11.555-11.044 15.424l-51.423 35.972c-4.151 2.906-9.902 1.498-12.256-3.017-8.293-15.908-14.373-32.872-18.071-50.421l-5.296-25.129c-.854-4.053-4.835-6.646-8.886-5.792-4.053.854-6.646 4.832-5.792 8.886l5.296 25.129c3.588 17.024 9.259 33.536 16.879 49.166l1.648 30.796c1.014 18.949 5.603 37.274 13.638 54.47l.908 1.944c.231 21.923 4.947 43.561 13.657 63.513l-23.951 4.913c-4.058.832-6.673 4.796-5.84 8.854.832 4.057 4.796 6.675 8.854 5.84l27.807-5.704c4.429 7.987 9.538 15.619 15.29 22.794 4.866 6.069 10.321 11.524 16.264 16.31-12.62 11.073-23.473 24.211-32.068 39.022l-4.994 8.605c-2.079 3.583-.86 8.172 2.722 10.251 3.556 2.067 8.16.883 10.251-2.722l4.994-8.605c8.417-14.502 19.228-27.231 31.869-37.734 3.092 1.813 6.277 3.469 9.545 4.962-3.652 12.851-10.662 23.87-19.931 32.458-18.069 16.738-32.645 37.952-41.716 61.597-1.878 4.894 1.729 10.187 7.002 10.187h292.906c5.241 0 8.891-5.263 7.002-10.187-8.823-22.999-23.137-44.386-41.716-61.597-9.442-8.748-16.342-19.829-19.931-32.459 3.268-1.493 6.453-3.149 9.545-4.963 12.642 10.503 23.453 23.232 31.87 37.735l4.994 8.605c2.083 3.588 6.673 4.798 10.251 2.722 3.582-2.079 4.801-6.668 2.722-10.251l-4.994-8.605c-8.595-14.811-19.448-27.95-32.069-39.023 5.943-4.785 11.398-10.24 16.264-16.309 5.758-7.182 10.875-14.799 15.317-22.789l27.78 5.698c4.057.833 8.022-1.782 8.854-5.84.833-4.058-1.782-8.021-5.84-8.854l-23.914-4.905c1.233-2.822 2.388-5.683 3.462-8.579 1.441-3.883-.539-8.199-4.423-9.64-3.886-1.443-8.2.539-9.64 4.423-1.349 3.635-2.836 7.207-4.459 10.711-15.3-3.037-29.786-3.883-45.085-3.022-1.554-4.006-3.768-7.806-6.633-11.229l-11.258-13.446c-2.661-3.177-7.389-3.594-10.565-.937-3.176 2.659-3.595 7.39-.937 10.565 12.338 14.736 11.975 14.201 13.11 15.961l-18.354 1.031c-4.136.232-7.3 3.773-7.067 7.909.232 4.135 3.754 7.287 7.909 7.067l21.518-1.209c-.197 4.667-1.68 9.301-4.473 13.325-2.739 3.944-2.565 3.698-2.812 4.041-4.692-2.016-9.501-3.811-14.415-5.373-3.946-1.252-8.164.929-9.42 4.875-1.255 3.947.928 8.165 4.875 9.42 2.174.691 4.326 1.433 6.453 2.224-8.432 4.695-18.251 6.015-27.531 3.819l-21.91-5.19c-2.022-.479-3.435-2.265-3.435-4.343v-5.03l23.009-19.974c6.437-5.589 4.148-16.113-4.031-18.518-17.323-5.099-35.634-5.1-52.953-.001-8.18 2.405-10.471 12.927-4.033 18.52l23.009 19.974v5.029c0 2.078-1.412 3.863-3.434 4.343l-21.909 5.189c-9.456 2.238-19.277.779-27.533-3.818 2.128-.791 4.279-1.533 6.453-2.224 3.947-1.255 6.13-5.473 4.875-9.42-1.254-3.946-5.472-6.126-9.42-4.875-4.913 1.562-9.722 3.357-14.415 5.373-.273-.38-.252-.355-2.812-4.04-2.794-4.025-4.276-8.659-4.473-13.326l21.518 1.209c4.138.229 7.676-2.932 7.909-7.067.232-4.136-2.932-7.677-7.067-7.909l-18.354-1.031c1.131-1.754.666-1.097 13.11-15.961 2.658-3.176 2.239-7.906-.937-10.565-3.177-2.657-7.907-2.238-10.565.937l-11.258 13.446c-2.865 3.423-5.078 7.223-6.633 11.229-15.197-.855-29.701-.028-45.052 3.015-8.547-18.484-13.273-38.665-13.69-59.152l5.513-5.801 2.608 5.978c7.184 16.463 19.868 30.187 35.718 38.642 3.655 1.948 8.197.57 10.147-3.087 1.95-3.654.567-8.198-3.087-10.147-12.882-6.872-23.192-18.025-29.03-31.405l-4.663-10.688c4.064-3.153 8.379-5.98 12.916-8.457 3.636-1.985 4.974-6.542 2.989-10.177-1.985-3.637-6.542-4.977-10.177-2.989-11.007 6.01-19.829 13.09-28.179 21.876-5.425-13.477-8.563-27.652-9.344-42.237l-.723-13.516c7.111 2.378 14.819 1.188 20.821-3.011l51.422-35.972c16.736-11.707 23.002-33.077 15.236-51.969-13.665-33.247-.573-1.394-8.978-21.844l15.162 17.431c3.301 3.793 7.864 6.178 12.696 6.85 3.825 17.222 9.811 33.886 17.833 49.62l8.028 15.749c1.325 2.6 3.957 4.096 6.688 4.096 5.507 0 9.247-5.865 6.676-10.908l-8.028-15.749c-7.282-14.283-12.757-29.392-16.316-45.003 12.174-2.814 25.073-4.633 37.759-5.132v95.568c0 4.143 3.357 7.5 7.5 7.5s7.5-3.357 7.5-7.5v-95.568c12.512.492 25.413 2.277 37.759 5.131-5.894 25.854-14.439 41.323-22.679 57.485-2.571 5.041 1.166 10.908 6.676 10.908 2.729 0 5.362-1.496 6.688-4.096l6.363-12.481c8.022-15.734 14.009-32.398 17.833-49.62 4.832-.672 9.396-3.058 12.697-6.852l15.16-17.429c-8.404 20.447 4.68-11.385-8.978 21.843-7.766 18.892-1.5 40.262 15.236 51.969l51.421 35.972c6.059 4.239 13.782 5.368 20.822 3.011l-.723 13.507c-.781 14.588-3.919 28.766-9.344 42.245-7.9-8.315-16.6-15.553-28.18-21.876-3.633-1.984-8.191-.647-10.177 2.989-1.984 3.635-.646 8.191 2.989 10.177 4.537 2.477 8.852 5.304 12.916 8.457l-4.663 10.687c-5.84 13.381-16.149 24.534-29.031 31.406-3.654 1.949-5.037 6.492-3.087 10.147 1.956 3.666 6.502 5.031 10.147 3.087 15.849-8.454 28.534-22.178 35.719-38.642l2.608-5.979 5.512 5.801c-.099 4.89-.44 9.801-1.02 14.637-.494 4.112 2.44 7.847 6.553 8.34 4.087.499 7.844-2.425 8.34-6.553.702-5.848 1.088-11.794 1.149-17.7l.909-1.945c8.035-17.197 12.623-35.526 13.637-54.477l1.648-30.789c7.62-15.629 13.291-32.141 16.879-49.165l9.776-46.385c4.677-22.191 3.655-45.387-2.955-67.079-6.899-22.656-32.283-33.954-53.729-23.95zm-268.122 462.704 15.058 14.083c.559.523 8.958 8.274 23.735 16.549h-58.132c5.169-10.927 11.686-21.242 19.339-30.632zm192.71 30.631c14.787-8.279 23.188-16.034 23.739-16.549l15.058-14.083c7.653 9.39 14.171 19.706 19.339 30.631h-58.136zm8.702-65.602c-11.431 8.731-42.587 28.973-85.658 28.973-10.421 0-20.886-1.195-31.105-3.552-4.037-.935-8.063 1.586-8.993 5.622-.932 4.036 1.586 8.063 5.622 8.994 11.322 2.611 22.922 3.936 34.476 3.936 47.075 0 80.886-21.46 94.329-31.691 4.557 5.376 7.072 7.237 11.376 11.55l-15.245 14.257c-.193.179-19.664 18.017-51.491 27.306-1.063.31 5.698.208-77.215.208-32.257-9.233-52.016-27.33-52.203-27.504l-15.256-14.267c4.34-4.348 6.846-6.201 11.389-11.564 5.262 3.987 13.655 9.701 24.739 15.187 3.703 1.833 8.207.327 10.049-3.395 1.838-3.713.317-8.211-3.395-10.049-10.37-5.133-18.138-10.502-22.733-14.013 3.344-5.76 6.006-11.912 7.938-18.367 5.743 1.699 11.672 2.932 17.74 3.673l35.554 4.343 16.149 9.654c5.106 3.053 11.444 3.053 16.55.001l16.15-9.655 35.553-4.343c6.069-.741 11.998-1.974 17.741-3.673 1.931 6.455 4.594 12.608 7.939 18.369zm2.358-58.932c4.748-6.841 7.119-14.785 7.164-22.72 11.703-.597 23.445.092 34.991 2.046-3.44 5.735-7.273 11.242-11.484 16.494-4.903 6.116-10.505 11.505-16.666 16.092-4.961-3.548-10.135-6.808-15.499-9.76zm-.031 20.497c-9.148 4.511-19.264 7.56-29.826 8.849l-14.603 1.784c1.059-1.563 2.041-3.185 2.941-4.861 11.073-1 21.492-5.429 29.846-12.551 3.996 2.077 7.88 4.34 11.642 6.779zm-73.463-50.567-14.522 12.606-14.522-12.606c9.604-1.807 19.438-1.807 29.044 0zm-21.998 49.927c2.797-.663 5.326-1.899 7.476-3.567 2.15 1.668 4.679 2.904 7.476 3.567 29.942 7.093 19.777 4.695 21.944 5.199-3.017 3.82-6.718 7.074-10.983 9.625l-17.861 10.678c-.355.211-.797.212-1.154-.001l-17.86-10.677c-4.265-2.55-7.966-5.805-10.983-9.625 2.238-.542-8.118 1.923 21.945-5.199zm-39.022 6.412c.901 1.676 1.882 3.298 2.941 4.861l-14.604-1.783c-10.761-1.314-20.687-4.343-29.826-8.849 3.763-2.439 7.647-4.702 11.642-6.779 8.356 7.121 18.775 11.55 29.847 12.55zm-48.683-48.989c.045 7.935 2.416 15.879 7.164 22.721l1.493 2.151c-5.364 2.952-10.538 6.212-15.499 9.76-6.161-4.586-11.763-9.976-16.666-16.092-4.206-5.247-8.033-10.762-11.464-16.498 11.539-1.952 23.276-2.639 34.972-2.042zm289.561-258.142-9.776 46.385c-3.695 17.533-9.775 34.508-18.072 50.421-2.353 4.511-8.101 5.924-12.256 3.016l-51.422-35.972c-5.531-3.869-9.312-9.352-11.044-15.424l9.684-5.813c12.727-7.639 28.506-8.8 42.213-3.11 3.827 1.59 8.214-.227 9.803-4.051 1.588-3.826-.226-8.215-4.051-9.803-18.084-7.508-38.9-5.975-55.685 4.103l-1.095.657c.17-.438-.004-.006 3.5-8.531l10.66-10.159c10.742-10.238 25.887-14.833 40.507-12.278 4.083.708 7.967-2.021 8.678-6.1.712-4.081-2.02-7.966-6.1-8.678-14.319-2.497-29.019.198-41.441 7.279l10.259-24.959c29.673-34.114 28.218-32.555 28.318-32.555 3.246-3.731 7.164-6.684 11.647-8.774 13.177-6.146 28.794.782 33.046 14.732 5.875 19.28 6.783 39.894 2.627 59.614z"/><path d="m214.789 276.851c4.143 0 7.5-3.357 7.5-7.5v-5.007c0-9.727-6.562-18.277-15.956-20.793l-47.054-12.608c-4.004-1.073-8.113 1.302-9.186 5.303s1.302 8.113 5.303 9.186l47.055 12.609c2.849.763 4.838 3.354 4.838 6.304v5.007c0 4.141 3.357 7.499 7.5 7.499z"/><path d="m361.922 236.245c-1.071-4.001-5.183-6.376-9.186-5.303l-47.053 12.607c-9.396 2.517-15.957 11.067-15.957 20.794v5.007c0 4.143 3.357 7.5 7.5 7.5s7.5-3.357 7.5-7.5v-5.007c0-2.949 1.989-5.541 4.839-6.305l47.054-12.608c4.001-1.072 6.375-5.184 5.303-9.185z"/></g></svg>