<svg id="Capa_1" enable-background="new 0 0 512 512" height="512" viewBox="0 0 512 512" width="512" xmlns="http://www.w3.org/2000/svg"><g><path d="m160.476 138.357c.012-8.627-1.928-17.146-5.288-25.093l-24.27-57.396c-23.777-21.471-51.667-37.932-82.009-48.368-11.341 0-19.535 10.847-16.435 21.756l16.081 56.592c.512 8.704 3.034 17.17 7.368 24.735l16.869 29.443-.122 3.899c-.538 17.206 4.553 34.118 14.501 48.167l17.852 25.215c5.696 8.045 14.941 12.827 24.799 12.827l37.348-52.05c1.652-2.303 2.037-5.282 1.023-7.928l-3.582-9.353c-2.744-7.164-4.146-14.773-4.135-22.446z" fill="#f9c6da"/><path d="m351.525 138.357c-.012-8.627 1.928-17.146 5.288-25.093l24.27-57.396c23.776-21.471 51.667-37.932 82.008-48.368 11.341 0 19.535 10.847 16.435 21.756l-16.081 56.592c-.512 8.704-3.034 17.17-7.368 24.735l-16.869 29.443.122 3.898c.538 17.207-4.554 34.119-14.501 48.169l-17.852 25.214c-5.696 8.045-14.941 12.827-24.799 12.827l-37.348-52.05c-1.652-2.303-2.037-5.282-1.023-7.928l3.582-9.353c2.745-7.164 4.147-14.773 4.136-22.446z" fill="#f9c6da"/><path d="m344.831 178.086c-1.652-2.303-2.037-5.282-1.023-7.928l3.582-9.353c2.722-7.107 4.148-14.65 4.135-22.26-.013-8.399 1.666-16.714 4.936-24.449l24.621-58.227c-1.801 1.626-3.578 3.281-5.33 4.964l-60.654 58.243c-3.129 3.004-7.842 3.633-11.647 1.55-6.397-3.501-13.453-5.865-20.868-6.884-17.639-2.426-35.528-2.426-53.167 0-7.415 1.02-14.471 3.383-20.868 6.884-3.805 2.082-8.518 1.454-11.647-1.55l-60.654-58.243c-1.753-1.683-3.53-3.338-5.33-4.964l24.27 57.396c3.36 7.946 5.3 16.465 5.288 25.093-.011 7.673 1.391 15.282 4.135 22.447l3.582 9.353c1.014 2.647.629 5.626-1.023 7.928l-37.348 52.05 15.327 49.099c7.377 23.633 21.222 44.729 39.968 60.9 3.977 3.431 8.21 6.505 12.646 9.205 6.822 6.14 15.388 9.735 24.279 10.458 1.297.354 2.603.682 3.915.982 7.503 8.48 18.186 13.781 30.042 13.781s22.539-5.301 30.042-13.781c1.313-.3 2.618-.627 3.915-.982 8.892-.723 17.457-4.319 24.279-10.458 4.437-2.699 8.669-5.773 12.646-9.205 18.746-16.172 32.591-37.268 39.968-60.9l15.327-49.099z" fill="#c6c1c8"/><path d="m354.847 207.369c-8.565 3.929-15.252 11.046-18.06 20.041l-9.935 31.825c-7.377 23.633-21.222 44.729-39.968 60.9-3.978 3.431-8.21 6.505-12.646 9.205-6.822 6.14-15.388 9.735-24.279 10.458-1.297.354-2.603.682-3.915.982-7.503 8.48-18.186 13.781-30.042 13.781-5.749 0-11.222-1.247-16.191-3.497 6.451 5.09 14.21 8.082 22.234 8.735 1.297.354 2.603.682 3.915.982 7.503 8.48 18.186 13.781 30.042 13.781s22.539-5.301 30.042-13.781c1.313-.3 2.618-.627 3.915-.982 8.892-.723 17.457-4.319 24.279-10.458 4.437-2.699 8.669-5.773 12.646-9.205 18.746-16.172 32.591-37.268 39.968-60.9l15.327-49.099-19.841-27.651c-2.25 1.994-4.777 3.638-7.491 4.883z" fill="#afaab4"/><path d="m463.091 7.5c-8.935 3.073-17.656 6.669-26.123 10.76l-13.522 47.588c-.512 8.704-3.034 17.17-7.368 24.735l-16.869 29.443.122 3.898c.538 17.207-4.554 34.119-14.501 48.17l-17.851 25.213c-1.358 1.918-2.918 3.65-4.64 5.177l19.841 27.651c9.858 0 19.103-4.782 24.799-12.827l17.852-25.214c9.948-14.05 15.039-30.962 14.501-48.169l-.122-3.898 16.869-29.443c4.334-7.565 6.856-16.031 7.368-24.735l16.081-56.592c3.099-10.91-5.095-21.757-16.437-21.757z" fill="#efa5c3"/><path d="m256 330.036-26.489-21.607c-2.708-2.209-2.382-6.442.632-8.211 15.965-9.366 35.747-9.366 51.713 0 3.015 1.769 3.341 6.001.632 8.211z" fill="#a298a5"/><path d="m397.185 482.309c-6.081-30.723-21.674-57.534-43.351-77.616-15.714-14.558-24.079-35.39-22.882-56.778l.676-12.077c-1.545 1.468-3.127 2.901-4.745 4.298-3.978 3.431-8.21 6.505-12.646 9.205-6.822 6.14-15.388 9.735-24.279 10.458-1.297.354-2.603.682-3.915.982-7.503 8.48-18.186 13.781-30.042 13.781s-22.539-5.301-30.042-13.781c-1.313-.3-2.618-.627-3.915-.982-8.892-.723-17.457-4.319-24.279-10.458-4.437-2.7-8.669-5.773-12.646-9.205-1.619-1.396-3.201-2.83-4.745-4.298l.676 12.077c1.197 21.388-7.168 42.22-22.882 56.778-21.677 20.083-37.27 46.893-43.351 77.616l-4.392 22.191h291.154z" fill="#c6c1c8"/><path d="m397.185 482.309c-6.081-30.723-21.674-57.534-43.351-77.616-15.714-14.558-24.079-35.39-22.882-56.778l.676-12.077c-1.545 1.468-3.127 2.901-4.745 4.298-3.978 3.431-8.21 6.505-12.646 9.205-5.248 4.723-11.528 7.94-18.194 9.503 3.906 9.71 9.929 18.565 17.792 25.85 21.677 20.083 37.27 46.893 43.351 77.616 2.274 11.489-6.518 22.191-18.229 22.191h-224.576l-3.958 20h291.154z" fill="#afaab4"/><path d="m256 455.323c14.518 0 34.055-6.606 44.687-38.08 1.326-3.925-.781-8.181-4.705-9.506-3.922-1.321-8.18.781-9.506 4.705-6.338 18.761-16.307 27.881-30.476 27.881s-24.138-9.12-30.476-27.881c-1.326-3.924-5.582-6.032-9.506-4.705-3.924 1.325-6.031 5.581-4.705 9.506 10.633 31.474 30.17 38.08 44.687 38.08z"/><path d="m463.091 0c-.83 0-1.654.138-2.439.408-31.449 10.816-59.911 27.603-84.596 49.894-4.013 3.623-1.053.85-66.152 63.363-.771.74-1.917.894-2.853.38-7.263-3.973-15.101-6.568-23.296-7.712-5.851-.924-17.055-1.906-27.685-1.91-7.382-.077-20.085.691-27.827 1.91-8.195 1.145-16.032 3.74-23.295 7.713-.934.511-2.081.359-2.851-.381-65.622-63.013-62.232-59.823-66.153-63.363-8.686-7.843-18.018-15.127-27.738-21.648-3.44-2.308-8.1-1.391-10.407 2.05-2.308 3.439-1.39 8.099 2.049 10.407 8.67 5.816 17.011 12.28 24.815 19.224l23.616 55.851c3.126 7.393 4.706 14.849 4.695 22.162-.012 8.626 1.546 17.084 4.631 25.14l3.582 9.352c.112.293.07.62-.113.875l-34.893 48.629c-6.013-.972-11.465-4.321-15.038-9.368l-17.851-25.216c-8.948-12.639-13.609-28.122-13.125-43.601l.122-3.899c.043-1.387-.299-2.758-.989-3.962l-16.869-29.442c-3.738-6.524-5.948-13.94-6.389-21.447-.071-1.211 1.177 3.491-16.354-58.202-1.639-5.766 2.338-11.498 8.129-12.146 7.809 2.74 15.541 5.932 23.002 9.496 3.737 1.783 8.214.202 10-3.535 1.785-3.737.203-8.215-3.535-10-8.404-4.015-17.13-7.586-25.936-10.615-.785-.269-1.609-.407-2.439-.407-16.324 0-28.116 15.591-23.65 31.306l15.864 55.828c.689 9.519 3.548 18.898 8.292 27.179l15.814 27.602c.125.983-2.785 28.235 15.82 54.514l17.852 25.215c5.99 8.46 15.168 14.04 25.271 15.568l13.816 44.259c6.829 21.876 18.868 41.65 35.058 57.709l.513 9.154c1.08 19.296-6.42 37.823-20.491 50.858-16.27 15.072-28.772 33.09-37.162 53.551-2.032 4.956 1.645 10.347 6.937 10.347 2.953 0 5.753-1.756 6.942-4.657 3.084-7.521 6.785-14.675 11.083-21.433 2.861 5.472 6.547 10.505 10.956 14.915l7.353 7.354c2.929 2.929 7.676 2.93 10.606.001 2.929-2.929 2.93-7.678.001-10.606l-7.353-7.354c-5.169-5.169-9.022-11.471-11.267-18.389 3.292-3.94 6.822-7.708 10.583-11.297 3.044 7.259 7.481 13.879 13.15 19.55l11.731 11.73c2.93 2.928 7.678 2.929 10.607-.001 2.929-2.929 2.928-7.678 0-10.606l-11.731-11.729c-6.01-6.012-10.186-13.436-12.191-21.627 9.866-13.429 15.272-29.673 15.347-46.577 1.515 1.053 3.057 2.064 4.622 3.031 7.639 6.671 17.332 10.847 27.441 11.821.426.113.855.225 1.286.333 18.882 19.324 49.067 19.357 67.981 0 .43-.108.859-.22 1.286-.333 10.109-.975 19.802-5.15 27.441-11.821 1.565-.967 3.107-1.978 4.622-3.031.075 16.904 5.48 33.148 15.346 46.576-2.006 8.192-6.185 15.622-12.19 21.627l-11.731 11.73c-2.929 2.929-2.929 7.678 0 10.606 2.929 2.929 7.677 2.93 10.607.001l11.732-11.731c5.665-5.666 10.103-12.288 13.149-19.55 3.76 3.588 7.29 7.36 10.583 11.3-2.246 6.917-6.098 13.219-11.267 18.388l-7.353 7.354c-2.929 2.929-2.928 7.678.001 10.606s7.678 2.929 10.606-.001l7.352-7.353c4.412-4.413 8.1-9.448 10.961-14.923 9.024 14.16 15.361 29.942 18.692 46.774l2.62 13.232h-272.894l1.11-5.609c.804-4.063-1.838-8.009-5.901-8.813-4.061-.806-8.009 1.838-8.813 5.901l-2.883 14.565c-.915 4.626 2.625 8.956 7.357 8.956h291.154c4.724 0 8.274-4.322 7.357-8.956l-4.392-22.191c-6.248-31.567-22.02-59.806-45.611-81.661-14.1-13.063-21.569-31.6-20.491-50.858l.513-9.165c12.454-12.384 22.612-27.167 29.648-43.231 1.662-3.794-.066-8.217-3.86-9.879-3.796-1.661-8.217.066-9.879 3.861-4.909 11.207-11.52 21.715-19.48 31.049.224-4.84-.275-9.757-1.533-14.603l-2.647-10.19c14.598-12.631 16.187-13.824 19.921-17.803 2.834-3.021 2.684-7.767-.337-10.601s-7.767-2.683-10.602.337c-3.233 3.445-4.426 4.289-22.32 19.771-2.158 1.867-3.069 4.796-2.352 7.558l3.818 14.7c5.331 20.52-9.247 40.499-29.982 42.186-.001 0-.003 0-.004 0-5.119.423-10.149-.316-14.947-2.176l-6.446-2.5c-2.663-1.033-4.452-3.646-4.452-6.501v-7.55l23.729-19.356c6.754-5.51 5.939-16.081-1.578-20.491-18.289-10.73-41.014-10.73-59.303 0-7.517 4.41-8.331 14.982-1.578 20.49l23.729 19.357v7.55c0 2.855-1.789 5.468-4.452 6.501l-6.445 2.499c-4.799 1.86-9.829 2.594-14.95 2.177-.001 0-.001 0-.002 0-20.595-1.675-35.34-21.563-29.982-42.186l3.818-14.7c.717-2.762-.194-5.69-2.352-7.558-17.752-15.359-19.091-16.33-22.32-19.771-2.835-3.021-7.581-3.172-10.602-.337-3.021 2.834-3.171 7.58-.337 10.601 3.771 4.018 5.443 5.276 19.921 17.803l-2.647 10.19c-1.261 4.856-1.759 9.783-1.532 14.633-10.957-12.818-19.241-27.76-24.311-44l-14.212-45.53 35.168-49.012c3.131-4.364 3.854-9.965 1.933-14.983l-3.582-9.352c-2.424-6.33-3.648-12.978-3.639-19.755.013-9.339-1.965-18.768-5.88-28.024l-10.173-24.065 39.788 38.207c5.517 5.297 13.731 6.39 20.44 2.72 3.129-1.712 6.395-3.095 9.769-4.142v1.03c0 5.054-1.968 9.804-5.542 13.377-2.929 2.929-2.929 7.678 0 10.606 2.929 2.929 7.677 2.93 10.607.001 6.407-6.406 9.935-14.924 9.935-23.984v-3.699c3.854-.394 7.717-.668 11.583-.823v23.202c0 4.143 3.358 7.5 7.5 7.5s7.5-3.357 7.5-7.5v-23.202c3.867.155 7.73.429 11.583.823v3.699c0 9.061 3.528 17.578 9.935 23.984 2.93 2.928 7.678 2.929 10.607-.001 2.929-2.929 2.928-7.678 0-10.606-3.574-3.573-5.542-8.323-5.542-13.377v-1.03c3.374 1.046 6.639 2.429 9.768 4.141 6.71 3.671 14.924 2.58 20.442-2.719l39.787-38.206-10.527 24.895c-3.684 8.713-5.543 17.926-5.528 27.383.011 6.648-1.214 13.231-3.64 19.565l-3.582 9.354c-1.921 5.018-1.198 10.618 1.933 14.982l35.168 49.012-8.123 26.021c-1.234 3.953.97 8.159 4.924 9.394 3.955 1.236 8.16-.971 9.394-4.925l7.726-24.749c10.103-1.528 19.282-7.108 25.272-15.568l17.852-25.214c18.045-25.489 15.766-54.086 15.821-54.515l15.814-27.602c4.744-8.28 7.603-17.66 8.292-27.179l15.864-55.828c4.464-15.701-7.312-31.305-23.649-31.305zm-188.24 304.98-18.851 15.377-18.851-15.377c11.902-5.707 25.8-5.707 37.702 0zm-25.379 56.652c2.431-.943 4.629-2.304 6.528-3.979 1.898 1.676 4.097 3.037 6.528 3.979 7.57 2.937 6.25 2.425 6.655 2.58-8.346 3.801-18.019 3.803-26.367 0 .557-.214-.915.356 6.656-2.58zm222.84-334.426c-17.34 61.022-16.284 57.006-16.354 58.202-.441 7.507-2.651 14.923-6.389 21.447l-16.869 29.442c-.69 1.204-1.032 2.575-.989 3.962l.122 3.899c.484 15.478-4.178 30.963-13.126 43.602l-17.852 25.214c-3.573 5.047-9.025 8.397-15.038 9.368l-34.893-48.629c-.183-.255-.225-.582-.113-.874l3.582-9.354c3.087-8.061 4.646-16.457 4.632-24.953-.012-7.433 1.449-14.672 4.344-21.518l23.968-56.681c22.534-20.064 48.373-35.288 76.845-45.274 5.782.648 9.772 6.372 8.13 12.147z"/><path d="m230.537 246.636c4.142 0 7.5-3.357 7.5-7.5v-4.506c0-9.093-6.134-17.086-14.916-19.438l-42.348-11.348c-4-1.074-8.113 1.302-9.186 5.303-1.072 4.001 1.302 8.113 5.303 9.186l42.349 11.348c2.236.6 3.798 2.635 3.798 4.95v4.506c0 4.141 3.358 7.499 7.5 7.499z"/><path d="m340.413 209.146c-1.072-4-5.183-6.379-9.186-5.303l-42.347 11.348c-8.783 2.353-14.917 10.346-14.917 19.438v4.506c0 4.143 3.358 7.5 7.5 7.5s7.5-3.357 7.5-7.5v-4.506c0-2.315 1.562-4.351 3.799-4.95l42.348-11.348c4.001-1.071 6.375-5.184 5.303-9.185z"/><circle cx="284.802" cy="336.537" r="7.5"/><circle cx="304.316" cy="318.115" r="7.5"/><circle cx="227.198" cy="336.537" r="7.5"/><circle cx="207.685" cy="318.115" r="7.5"/></g></svg>