<svg id="Capa_1" enable-background="new 0 0 512.014 512.014" height="512" viewBox="0 0 512.014 512.014" width="512" xmlns="http://www.w3.org/2000/svg"><g><path d="m426.491 199.419-36.332-39.853c-13.477-14.783-32.784-25.519-54.82-30.483-6.226-1.533-9.616-8.302-7.06-14.183.733-1.687 1.48-3.363 2.243-5.03 15.993-34.966 38.512-65.636 66.946-91.214-31.168 20.173-58.381 45.954-80.234 76.075l-4.692 6.467c-1.109 1.529-3.069 2.183-4.874 1.626-33.659-10.377-69.663-10.377-103.323 0-1.805.557-3.765-.097-4.874-1.626l-4.692-6.467c-21.853-30.121-49.067-55.902-80.234-76.075 28.434 25.578 50.953 56.248 66.946 91.214.763 1.667 1.51 3.344 2.243 5.03 2.555 5.881-.834 12.65-7.06 14.183-22.036 4.964-41.343 15.7-54.82 30.483l-36.332 39.852c-4.201 5.769-5.499 13.157-3.516 20.013l6.131 21.195c3.022 10.446 5.398 21.068 7.117 31.806l.367 2.293c2.728 17.046 12.596 32.119 27.128 41.437l21.144 13.557c2.443 1.566 4.94 3.031 7.486 4.394-1.619-9.327.305-19.081 5.665-27.221 10.997-16.703 29.87-26.507 49.858-25.902 10.936.331 20.766-6.63 24.084-17.056l21.474-67.477c1.101-3.459 5.995-3.459 7.095 0l21.474 67.477c3.318 10.426 13.148 17.387 24.084 17.056 19.989-.606 38.861 9.199 49.858 25.902 5.36 8.141 7.283 17.894 5.665 27.221 2.546-1.363 5.043-2.828 7.486-4.394l21.144-13.557c14.532-9.318 24.4-24.391 27.128-41.437l.367-2.293c1.718-10.738 4.095-21.36 7.117-31.806l6.131-21.195c1.981-6.855.683-14.243-3.518-20.012z" fill="#f1d59d"/><path d="m354.97 306.892c-2.267-3.444-4.87-6.594-7.748-9.421l-19.102 12.248c-.024.016-.049.031-.073.047-4.217 2.699-7.534 6.599-9.31 11.28-.508 1.339-1.096 2.658-1.763 3.949l-6.28 12.146c-10.373 20.062-32.408 31.249-54.725 27.783l-34.621-5.376c-.031-.005-.061-.01-.092-.015-3.485-.593-7.013-.594-10.498 0-.031.005-.061.01-.092.015l-34.621 5.376c-3.123.485-6.241.683-9.322.61 11.572 14.689 30.344 22.337 49.321 19.39l34.621-5.376c3.074-.477 5.341-3.124 5.341-6.234 0 3.11 2.267 5.757 5.341 6.234l34.621 5.376c22.318 3.466 44.352-7.721 54.725-27.783l6.28-12.146c6.272-12.129 5.506-26.699-2.003-38.103z" fill="#dfdde2"/><path d="m256.007 362.773v10.54c0 3.111-2.267 5.757-5.341 6.234l-34.621 5.376c-22.317 3.465-44.352-7.721-54.725-27.784l-6.28-12.146c-6.271-12.129-5.505-26.698 2.003-38.102 10.997-16.703 29.87-26.507 49.858-25.902 10.936.331 20.766-6.63 24.084-17.056l21.474-67.477c1.101-3.459 5.995-3.459 7.096 0l21.474 67.477c3.318 10.426 13.148 17.387 24.084 17.056 19.989-.606 38.862 9.199 49.858 25.902 7.508 11.404 8.274 25.974 2.003 38.102l-6.28 12.146c-10.373 20.062-32.408 31.249-54.725 27.784l-34.621-5.376c-3.074-.477-5.341-3.124-5.341-6.234z" fill="#f1f1f4"/><path d="m354.97 306.892c-2.267-3.444-4.87-6.594-7.748-9.421l-19.102 12.248c-.024.016-.049.031-.073.047-4.217 2.699-7.534 6.599-9.31 11.28-.508 1.339-1.096 2.658-1.763 3.949l-6.28 12.146c-10.373 20.062-32.408 31.249-54.725 27.783l-34.621-5.376c-.031-.005-.061-.01-.092-.015-3.485-.593-7.013-.594-10.498 0-.031.005-.061.01-.092.015l-34.621 5.376c-3.123.485-6.241.683-9.322.61 11.572 14.689 30.344 22.337 49.321 19.39l34.621-5.376c3.074-.477 5.341-3.124 5.341-6.234 0 3.11 2.267 5.757 5.341 6.234l34.621 5.376c22.318 3.466 44.352-7.721 54.725-27.783l6.28-12.146c6.272-12.129 5.506-26.699-2.003-38.103z" fill="#dfdde2"/><path d="m256.007 362.773-24.915-28.071c-2.309-2.601-1.322-6.706 1.916-7.974 14.786-5.79 31.211-5.79 45.997 0 3.238 1.268 4.225 5.373 1.916 7.974z" fill="#f9c6da"/><path d="m385.5 433.137c-23.871-22.115-34.928-55.168-28.746-87.718l-6.06 11.721c-10.373 20.062-32.408 31.249-54.725 27.783l-34.621-5.376c-3.074-.477-5.341-3.124-5.341-6.234 0 3.11-2.267 5.757-5.341 6.234l-34.621 5.376c-22.318 3.466-44.352-7.721-54.725-27.783l-6.06-11.72c6.181 32.55-4.875 65.603-28.747 87.717-21.041 19.493-37.751 43.775-48.341 71.377h355.668c-10.589-27.602-27.298-51.884-48.34-71.377z" fill="#f1f1f4"/><path d="m385.5 433.137c-23.871-22.115-34.928-55.168-28.746-87.718l-6.06 11.721c-5.995 11.596-15.887 20.227-27.477 24.777 5.167 11.678 12.69 22.333 22.283 31.22 8.464 7.841 16.227 16.458 23.173 25.753 14.064 18.822.714 45.624-22.783 45.624h-258.685c-3.373 6.445-6.393 13.119-9.033 20h355.668c-10.589-27.602-27.298-51.884-48.34-71.377z" fill="#dfdde2"/><path d="m295.969 384.923-34.621-5.376c-3.074-.477-5.341-3.124-5.341-6.234 0 3.111-2.267 5.757-5.341 6.234l-34.621 5.376c-4.957.77-9.899.816-14.704.203 16.273 16.946 50.345 28.617 54.666 28.617s38.393-11.671 54.666-28.617c-4.805.613-9.747.567-14.704-.203z" fill="#c6c1c8"/><path d="m445.898 31.224c0-18.189-19.698-29.615-35.447-20.514-4.399 2.542-8.727 5.192-12.982 7.946-29.796 26.803-53.096 59.196-69.199 96.266-2.551 5.873.848 12.629 7.066 14.16l.004.001c22.036 4.964 41.343 15.7 54.82 30.483l36.332 39.852 13.046-32.315c4.067-10.075 3.899-21.365-.468-31.314 4.537-19.378 6.828-39.213 6.828-59.115z" fill="#f4e2c1"/><path d="m445.898 31.224c0-18.189-19.698-29.615-35.447-20.514-1.526.882-3.044 1.777-4.553 2.685v43.28c0 15.637-1.414 31.233-4.221 46.599-1.272 6.963-1.294 14.092.055 21.04 1.473 7.588.746 15.507-2.194 22.791l-6.365 15.767 33.319 36.548 13.046-32.315c4.067-10.075 3.899-21.365-.468-31.314 4.537-19.378 6.828-39.213 6.828-59.115z" fill="#f4ddb1"/><path d="m426.491 199.419-33.319-36.548-2.762 6.842c-2.059 5.101-2.409 10.792-.674 16.012 1.458 4.385 1.585 9.163.271 13.707l-6.13 21.193c-3.022 10.447-5.399 21.069-7.117 31.808l-.367 2.293c-2.728 17.046-12.597 32.12-27.129 41.437l-2.04 1.308c2.878 2.826 5.48 5.977 7.748 9.421 5.36 8.14 7.283 17.894 5.665 27.221 2.546-1.363 5.043-2.828 7.486-4.394l21.144-13.557c14.532-9.318 24.4-24.391 27.128-41.437l.367-2.293c1.719-10.738 4.095-21.36 7.117-31.806l6.131-21.195c1.98-6.855.682-14.243-3.519-20.012z" fill="#efcb84"/><path d="m114.545 18.655c-4.255-2.754-8.583-5.404-12.982-7.946-15.749-9.101-35.447 2.325-35.447 20.514v45.45c0 19.902 2.291 39.737 6.828 59.115-4.366 9.949-4.535 21.239-.468 31.314l13.046 32.315 36.332-39.852c13.477-14.783 32.784-25.519 54.82-30.483l.004-.001c6.218-1.531 9.617-8.287 7.066-14.16-16.103-37.069-39.403-69.463-69.199-96.266z" fill="#f4e2c1"/><path d="m313.938 255.588v-5.188c0-3.177 2.144-5.971 5.213-6.793l48.75-13.063c4.001-1.071 6.375-5.185 5.303-9.186-1.071-4.001-5.183-6.38-9.186-5.303l-48.749 13.063c-9.615 2.575-16.331 11.327-16.331 21.281v5.188c0 4.143 3.357 7.5 7.5 7.5s7.5-3.356 7.5-7.499z"/><path d="m205.576 263.088c4.143 0 7.5-3.357 7.5-7.5v-5.188c0-9.954-6.716-18.706-16.33-21.281l-48.75-13.063c-4.002-1.077-8.114 1.302-9.186 5.303s1.302 8.114 5.303 9.186l48.751 13.063c3.068.822 5.212 3.616 5.212 6.793v5.188c0 4.142 3.358 7.499 7.5 7.499z"/><path d="m406.699 4.215c-37.467 21.647-69.898 50.772-95.535 86.111l-3.404 4.69c-33.905-10.012-69.599-10.011-103.506 0l-3.404-4.69c-25.614-35.306-58.033-64.444-95.535-86.111-20.753-11.988-46.699 3.032-46.699 27.009v45.45c0 19.652 2.183 39.316 6.49 58.489-4.181 11.15-4.057 23.673.415 34.748l11.623 28.791c-3.712 6.974-4.58 15.078-2.343 22.814l6.131 21.195c6.012 20.78 6.84 32.805 8.338 38.442 2.054 8.462 5.74 16.541 10.804 23.62 1.464 2.047 3.768 3.138 6.105 3.138 6.009 0 9.675-6.86 6.094-11.864-3.349-4.682-5.925-9.925-7.607-15.434l6.575-9.55c8.004-11.63 15.344-17.424 23.091-24.068 3.144-2.697 3.507-7.432.811-10.576s-7.431-3.508-10.576-.811c-8.13 6.973-15.38 12.752-23.932 24.483-2.796-13.767-5.304-21.591-11.423-42.743-1.314-4.546-.526-9.339 2.161-13.213l36.026-39.515c13.283-14.57 31.788-23.846 50.975-28.231.002-.001.041-.009.098-.023 10.761-2.649 16.539-14.331 12.152-24.431-4.24-9.762-9.081-19.469-14.575-29.035 7.592 9.067 12.13 15.504 17.353 22.703 2.996 4.127 8.28 5.894 13.155 4.389 3.853-1.188 7.732-2.234 11.631-3.138v28.334c0 .328-.112.649-.315.906l-14.669 18.519c-6.398 8.076-9.396 18.174-8.441 28.433l2.306 24.793c.379 4.077 3.979 7.154 8.162 6.773 4.124-.384 7.157-4.038 6.773-8.162l-2.306-24.794c-.596-6.396 1.273-12.692 5.264-17.729l1.451-1.831 4.809 3.58c2.062 1.534 3.385 3.881 3.631 6.44l.482 4.99c.374 3.878 3.639 6.78 7.456 6.78 4.448 0 7.898-3.828 7.475-8.222l-.481-4.989c-.652-6.767-4.154-12.975-9.606-17.032l-4.448-3.311 3.901-4.924c2.294-2.896 3.558-6.526 3.558-10.221v-31.105c15.154-2.093 30.486-2.093 45.641 0v31.105c0 3.694 1.264 7.324 3.558 10.221l3.901 4.924-4.447 3.31c-5.453 4.059-8.955 10.267-9.607 17.032l-.481 4.99c-.397 4.123 2.623 7.788 6.745 8.186 4.095.408 7.786-2.607 8.186-6.744l.482-4.991c.246-2.559 1.569-4.905 3.632-6.44l4.808-3.579 1.451 1.831c3.99 5.036 5.859 11.332 5.264 17.729l-2.306 24.793c-.409 4.398 3.053 8.195 7.477 8.195 3.828 0 7.098-2.919 7.459-6.807l2.306-24.792c.955-10.26-2.043-20.357-8.441-28.434l-14.669-18.519c-.203-.257-.315-.578-.315-.906v-28.334c10.963 2.544 11.809 3.669 15.142 3.669 3.748 0 7.362-1.773 9.644-4.919 5.866-8.084 9.963-13.877 17.354-22.704-5.367 9.344-10.228 19.028-14.576 29.037-4.438 10.217 1.536 21.893 12.237 24.45 19.342 4.621 37.434 13.366 50.99 28.235l36.028 39.52c2.684 3.873 3.472 8.665 2.157 13.209-5.74 19.843-8.611 28.904-11.422 42.742-8.61-11.81-16.214-17.863-23.932-24.483-3.146-2.697-7.881-2.333-10.576.811-2.696 3.145-2.333 7.879.811 10.576 7.974 6.839 15.16 12.545 23.091 24.068l6.577 9.554c-3.653 11.982-11.467 22.393-22.133 29.232l-17.057 10.936c-.97-6.334-3.286-12.491-6.924-18.017-12.336-18.735-33.931-29.959-56.35-29.273-7.582.232-14.42-4.639-16.711-11.834l-21.474-67.477c-1.488-4.677-5.786-7.82-10.694-7.82s-9.206 3.144-10.694 7.82l-21.474 67.477c-2.291 7.197-9.205 12.043-16.71 11.834-22.471-.668-44.015 10.538-56.351 29.273-3.638 5.526-5.954 11.683-6.924 18.017l-5.5-3.527c-3.489-2.236-8.126-1.222-10.362 2.265s-1.222 8.126 2.265 10.362l9.249 5.931c-20.652 5.79-39.907 15.858-56.577 29.689-3.188 2.645-3.628 7.373-.982 10.561 2.631 3.172 7.358 3.64 10.561.982 16.306-13.529 35.352-23.068 55.775-28.024 1.588 9.66 1.566 19.319.041 28.65-13.943 9.339-26.046 21.258-35.67 35.24-3.461 5.028.237 11.754 6.171 11.754 2.385 0 4.73-1.136 6.185-3.248 4.276-6.212 9.104-11.965 14.411-17.202-4.552 8.626-10.592 16.552-18.003 23.418-22.106 20.479-39.48 46.135-50.245 74.192-1.878 4.894 1.729 10.187 7.002 10.187h355.668c5.244 0 8.889-5.264 7.003-10.187-2.851-7.43-6.188-14.763-9.919-21.794-1.94-3.659-6.482-5.053-10.141-3.109-3.659 1.941-5.051 6.481-3.109 10.141 1.727 3.254 3.362 6.579 4.896 9.949h-114.715c7.371-4.641 14.237-10.309 20.442-16.935 2.831-3.023 2.675-7.77-.349-10.601s-7.77-2.675-10.601.349c-33.966 36.271-88.732 36.279-122.705 0-2.831-3.024-7.577-3.181-10.601-.349-3.023 2.831-3.18 7.577-.349 10.601 6.204 6.626 13.071 12.294 20.442 16.935h-114.698c10.007-21.939 24.439-41.956 42.161-58.375 15.293-14.168 25.606-32.188 30.179-51.743 3.397-2.032 6.904-3.899 10.509-5.591 7.508 5.549 16.245 9.295 25.514 10.884 17.667 16.792 51.329 29.054 58.195 29.054s40.527-12.261 58.195-29.053c9.271-1.588 18.008-5.335 25.515-10.885 3.605 1.692 7.112 3.559 10.509 5.591 4.573 19.555 14.885 37.575 30.178 51.743 6.662 6.172 12.917 12.897 18.589 19.99 1.481 1.852 3.662 2.815 5.862 2.815 6.194 0 9.814-7.231 5.853-12.185-6.137-7.673-12.902-14.949-20.11-21.625-7.411-6.866-13.451-14.793-18.003-23.42 5.308 5.238 10.136 10.991 14.413 17.204 1.455 2.113 3.8 3.248 6.185 3.248 5.94 0 9.629-6.73 6.171-11.754-9.625-13.981-21.728-25.901-35.671-35.24-1.525-9.331-1.547-18.99.042-28.65 20.423 4.957 39.469 14.495 55.774 28.024 3.179 2.638 7.91 2.213 10.561-.982 2.646-3.188 2.205-7.916-.982-10.561-16.67-13.832-35.925-23.899-56.578-29.69l20.805-13.34c15.239-9.771 25.678-25.137 29.488-41.551.689-2.888.959-4.77 1.364-7.306 3.073-19.196 6.987-31.148 13.047-52.103 2.239-7.736 1.37-15.84-2.342-22.814l11.622-28.791c4.473-11.075 4.597-23.598.416-34.748 3.331-14.831 5.402-30.023 6.159-45.2.207-4.137-2.979-7.658-7.116-7.864-4.149-.205-7.658 2.979-7.864 7.116-.753 15.077-2.879 30.171-6.319 44.864-.37 1.58-.217 3.238.435 4.724 3.533 8.051 3.672 17.343.381 25.493l-8.585 21.26-28.298-31.04c-10.73-11.77-24.999-21.215-41.23-27.456l4.669-2.587c11.734-6.501 25.594-7.334 38.021-2.291 3.841 1.56 8.213-.292 9.77-4.129 1.558-3.838-.291-8.212-4.129-9.77-16.65-6.76-35.214-5.641-50.932 3.068l-16.522 9.154c-.476-.772-.583-1.714-.201-2.593.751-1.729 1.519-3.448 2.302-5.156l15.357-14.559c9.735-9.229 22.949-13.501 36.24-11.729 4.1.548 7.879-2.334 8.427-6.44.549-4.105-2.335-7.879-6.44-8.427-11.8-1.578-23.552.405-33.933 5.52 12.619-19.304 27.644-36.863 44.942-52.491 3.99-2.57 8.078-5.067 12.161-7.426 10.753-6.216 24.193 1.605 24.193 14.021v22.048c0 4.143 3.357 7.5 7.5 7.5s7.5-3.357 7.5-7.5v-22.047c0-23.965-25.936-39.003-46.698-27.009zm-290.386 150.299-28.299 31.041-8.583-21.259c-3.29-8.15-3.151-17.442.382-25.493.651-1.485.805-3.144.435-4.724-4.4-18.79-6.631-38.104-6.631-57.405v-45.45c0-12.414 13.437-20.237 24.194-14.021 4.082 2.358 8.17 4.855 12.16 7.426 17.298 15.627 32.323 33.187 44.942 52.49-10.381-5.115-22.134-7.099-33.933-5.52-4.105.548-6.989 4.321-6.44 8.427.548 4.106 4.322 6.988 8.427 6.44 13.292-1.773 26.504 2.498 36.24 11.728l15.358 14.561c.783 1.708 1.55 3.426 2.301 5.154.381.877.277 1.819-.201 2.594l-16.522-9.154c-15.717-8.706-34.281-9.825-50.932-3.068-3.838 1.558-5.687 5.932-4.129 9.77 1.557 3.837 5.931 5.688 9.77 4.129 12.43-5.044 26.289-4.21 38.021 2.291l4.669 2.587c-16.232 6.241-30.5 15.686-41.229 27.456zm46.995 156.502c9.435-14.33 25.98-23.044 43.367-22.529 14.193.419 27.146-8.729 31.457-22.277l17.875-56.168 17.875 56.168c4.312 13.547 17.222 22.681 31.458 22.277 17.264-.521 33.873 8.11 43.366 22.529 4.082 6.201 5.674 13.589 4.702 20.732-2.431-.358-.707-.126-38.613-4.865-4.117-.504-7.858 2.401-8.373 6.512-.514 4.11 2.402 7.858 6.512 8.373l35.003 4.376c-3.85 7.447-5.847 12.098-10.987 17.61l-23.904-10.097c-3.811-1.61-8.216.175-9.827 3.991-1.611 3.815.175 8.215 3.991 9.827l15.478 6.538c-3.99 1.815-8.25 3.051-12.653 3.64-.207.018-.413.043-.618.078-4.019.481-8.151.425-12.297-.22l-33.612-5.22v-6.67l23.024-25.942c5.765-6.494 3.297-16.768-4.791-19.936-16.593-6.498-34.871-6.498-51.468 0-8.086 3.168-10.556 13.439-4.79 19.937l23.024 25.941v6.67l-33.613 5.22c-4.151.645-8.287.701-12.31.217-.196-.033-.394-.058-.592-.075-4.406-.588-8.671-1.825-12.664-3.642l15.476-6.537c3.816-1.612 5.603-6.012 3.991-9.827-1.612-3.816-6.016-5.603-9.827-3.991l-23.903 10.096c-5.151-5.524-7.095-10.082-10.987-17.61l35.003-4.376c4.109-.515 7.025-4.263 6.512-8.373-.515-4.11-4.258-7.015-8.373-6.512-38.084 4.761-36.214 4.511-38.613 4.865-.973-7.141.619-14.529 4.701-20.73zm92.699 40.459-16.844-18.977c10.979-3.499 22.71-3.499 33.688 0zm-33.945 40.103 29.754-4.62c1.499-.232 2.907-.694 4.191-1.347 1.283.652 2.691 1.114 4.19 1.347l29.755 4.62c-13.967 8.339-29.951 13.885-33.945 14.621-3.994-.735-19.978-6.281-33.945-14.621z"/></g></svg>