<svg id="Capa_1" enable-background="new 0 0 512 512" height="512" viewBox="0 0 512 512" width="512" xmlns="http://www.w3.org/2000/svg"><g><path d="m81.411 55.363c1.643 17.466 7.976 34.163 18.329 48.325l10.22 13.98c3.278 4.484 9.871 4.54 13.353.212 4.28-5.318 9.288-10.054 14.889-14.02l3.117-2.207c15.132-10.714 31.884-18.359 49.545-22.71 7.223-1.779 8.782-11.333 2.458-15.25l-86.111-53.343c-6.761-4.188-15.411-3.75-21.716 1.1-4.768 3.667-7.319 9.526-6.755 15.514z" fill="#f9c6da"/><path d="m430.589 55.363c-1.643 17.466-7.976 34.164-18.329 48.326l-10.22 13.98c-3.278 4.484-9.871 4.54-13.353.212-4.28-5.318-9.288-10.054-14.889-14.02l-3.117-2.207c-15.132-10.714-31.884-18.359-49.545-22.71-7.223-1.779-8.782-11.333-2.458-15.25l86.111-53.343c6.761-4.189 15.411-3.751 21.716 1.099 4.768 3.667 7.319 9.526 6.755 15.514z" fill="#f9c6da"/><path d="m14.185 248.714c24.343 24.343 57.358 38.018 91.784 38.018h6.421c18.94 0 34.293-15.354 34.293-34.293 0-15.556 10.471-29.164 25.509-33.149l17.94-4.754c25.191-6.675 42.733-29.471 42.733-55.531v-2.633c0-16.754 3.9-33.278 11.39-48.264l8.621-17.249c1.604-3.208 6.182-3.208 7.785 0l8.621 17.249c7.49 14.986 11.39 31.51 11.39 48.264v2.633c0 26.06 17.542 48.856 42.733 55.531l17.941 4.754c15.037 3.985 25.509 17.593 25.509 33.149 0 18.939 15.354 34.293 34.293 34.293h6.421c34.159 0 66.93-13.465 91.217-37.455l-14.066-26.409c-12.335-23.158-27.584-44.642-45.375-63.928-6.244-6.769-10.89-14.852-13.595-23.655-3.295-10.721-8.359-20.73-14.916-29.644l-8.793 12.028c-3.278 4.484-9.871 4.54-13.353.212-4.28-5.318-9.288-10.054-14.889-14.02l-3.117-2.207c-15.132-10.714-31.884-18.359-49.545-22.71-7.223-1.779-8.782-11.333-2.458-15.25l12.711-7.874c-14.716-4.04-29.99-6.123-45.429-6.123h-59.916c-15.439 0-30.713 2.083-45.429 6.123l12.711 7.874c6.324 3.918 4.765 13.471-2.458 15.25-17.661 4.351-34.413 11.996-49.545 22.71l-3.117 2.207c-5.601 3.965-10.609 8.702-14.889 14.02-3.482 4.327-10.075 4.272-13.353-.212l-8.793-12.028c-6.557 8.915-11.622 18.923-14.916 29.644-2.705 8.803-7.351 16.886-13.595 23.655-17.791 19.286-33.04 40.77-45.375 63.928l-13.412 25.18z" fill="#ceb1a5"/><path d="m498.786 249.278c-24.287 23.99-57.058 37.455-91.217 37.455h-6.421c-18.939 0-34.293-15.353-34.293-34.293 0-15.556-10.471-29.164-25.509-33.149l-17.94-4.754c-25.191-6.675-42.733-29.471-42.733-55.531v-2.633c0-16.754-3.9-33.278-11.39-48.265l-8.621-17.248c-1.604-3.208-6.182-3.208-7.785 0l-8.621 17.249c-7.49 14.986-11.39 31.51-11.39 48.265v2.633c0 26.06-17.542 48.856-42.733 55.531l-17.94 4.754c-15.038 3.985-25.509 17.593-25.509 33.149 0 18.94-15.354 34.293-34.293 34.293h-6.421c-34.426 0-67.441-13.676-91.784-38.018l-.316-.666-.655 1.229c-3.753 7.042-5.715 14.9-5.715 22.88v232.327h497v-232.327c0-7.98-1.962-15.838-5.714-22.881z" fill="#f1f1f4"/><path d="m498.786 249.278c-10.125 10.002-21.726 18.173-34.286 24.303v98.767c0 61.932-50.206 112.139-112.139 112.139h-344.861v20h497v-232.328c0-7.98-1.962-15.838-5.714-22.881z" fill="#dfdde2"/><path d="m385.749 115.285c2.683 8.73 7.275 16.753 13.441 23.488 16.945 18.506 31.986 38.668 43.782 60.814l15.814 29.691c3.752 7.043 5.714 14.901 5.714 22.881v21.422c12.561-6.13 24.161-14.302 34.286-24.303l-15.814-29.691c-11.796-22.146-26.837-42.309-43.782-60.814-6.166-6.734-10.758-14.757-13.441-23.488-3.295-10.721-8.359-20.73-14.916-29.644l-8.793 12.028c-3.27 4.473-9.859 4.558-13.332.239-1.075-1.337-2.196-2.637-3.361-3.898.137.424.271.849.402 1.275z" fill="#c19d8e"/><path d="m274.78 49.698c-.49 3.933 1.812 8.127 6.355 9.247 11.683 2.878 22.968 7.198 33.65 12.894-.387-3.021.826-6.245 3.892-8.144l12.711-7.874c-14.716-4.04-29.99-6.123-45.429-6.123z" fill="#c19d8e"/><path d="m256.769 266.12-23.151-21.154c-1.039-.949-.996-2.598.09-3.492 13.397-11.024 32.724-11.024 46.121 0 1.087.894 1.129 2.543.091 3.492z" fill="#ffbee4"/><path d="m228.691 289.749c-3.441 2.305-4.362 6.964-2.058 10.405 2.314 3.453 6.975 4.356 10.405 2.058l19.729-13.215 19.731 13.215c3.442 2.304 8.1 1.384 10.405-2.058s1.384-8.1-2.058-10.405l-20.578-13.782v-6.541l20.708-18.921c4.411-4.027 4.225-11.031-.382-14.822-16.122-13.267-39.527-13.269-55.653.001-4.592 3.78-4.805 10.779-.383 14.819l20.71 18.923v6.541zm41.269-45.842-13.191 12.054-13.191-12.054c8.25-4.244 18.129-4.246 26.382 0z"/><path d="m411.094 328.185-102.785-57.252c-3.616-2.015-8.187-.716-10.201 2.903-2.016 3.619-.717 8.186 2.902 10.202l102.785 57.252c3.63 2.022 8.194.704 10.201-2.903 2.016-3.619.717-8.187-2.902-10.202z"/><path d="m205.229 270.932-102.786 57.252c-3.619 2.016-4.918 6.583-2.902 10.202 2.01 3.609 6.574 4.923 10.201 2.903l102.786-57.252c3.619-2.016 4.918-6.583 2.902-10.202-2.015-3.618-6.579-4.918-10.201-2.903z"/><path d="m63.219 431.032c-3.807 1.632-5.57 6.042-3.938 9.849 1.629 3.8 6.032 5.572 9.849 3.938l24.459-10.484c38.776-16.622 73.813-42.315 101.323-74.303 2.701-3.14 2.345-7.875-.796-10.577-3.141-2.7-7.876-2.346-10.577.796-26.026 30.263-59.175 54.571-95.86 70.296z"/><path d="m228.104 381.24c-13.397 28.791-33.533 54.558-58.231 74.517l-16.583 13.402c-3.222 2.604-3.723 7.326-1.119 10.547 2.611 3.232 7.334 3.715 10.547 1.119l16.583-13.401c26.468-21.389 48.046-49.002 62.403-79.855 1.748-3.755.12-8.216-3.636-9.964-3.754-1.747-8.215-.12-9.964 3.635z"/><path d="m340.533 455.757c-24.697-19.958-44.833-45.726-58.231-74.517-1.748-3.755-6.209-5.383-9.964-3.635-3.756 1.748-5.384 6.209-3.636 9.964 14.358 30.853 35.937 58.466 62.403 79.855l16.584 13.402c3.242 2.62 7.961 2.082 10.547-1.12 2.604-3.222 2.103-7.944-1.119-10.547z"/><path d="m440.278 444.819c3.807 1.632 8.217-.132 9.849-3.938 1.632-3.807-.132-8.216-3.938-9.849l-24.459-10.484c-36.688-15.726-69.835-40.034-95.86-70.296-2.701-3.142-7.437-3.497-10.577-.796s-3.497 7.436-.796 10.577c27.509 31.987 62.546 57.68 101.323 74.303z"/><path d="m214.265 311.861c-2.88-2.973-7.629-3.05-10.604-.167-2.975 2.882-3.05 7.63-.167 10.605.788.814 19.704 19.937 53.275 19.937 33.572 0 52.488-19.123 53.276-19.937 2.883-2.975 2.808-7.723-.167-10.605-2.974-2.883-7.723-2.808-10.604.167-.149.154-15.215 15.375-42.505 15.375-26.968.001-41.909-14.774-42.504-15.375z"/><path d="m413.455 34.39c-2.181-3.521-6.805-4.607-10.325-2.426l-46.13 28.576c-5.011 3.104-4.639 10.535.664 13.118 7.996 3.896 15.778 8.51 23.129 13.714 3.402 2.409 8.077 1.571 10.455-1.788 2.394-3.381 1.593-8.062-1.787-10.455-4.372-3.095-8.886-6-13.501-8.69l35.068-21.724c3.522-2.181 4.608-6.803 2.427-10.325z"/><path d="m122.54 75.129c-3.38 2.393-4.181 7.074-1.787 10.455 2.382 3.364 7.058 4.192 10.455 1.788 7.351-5.204 15.131-9.817 23.127-13.713 5.299-2.581 5.679-10.012.664-13.118l-46.129-28.577c-3.519-2.18-8.143-1.096-10.325 2.426-2.181 3.521-1.095 8.144 2.427 10.326l35.067 21.724c-4.615 2.689-9.127 5.594-13.499 8.689z"/><path d="m505.405 245.752-14.066-26.409c-12.628-23.71-28.268-45.744-46.482-65.488-5.449-5.907-9.577-13.09-11.938-20.773-2.989-9.726-7.319-18.91-12.898-27.372 2.73-3.965 5.199-8.136 7.357-12.436 1.858-3.702.363-8.209-3.339-10.067-3.699-1.859-8.209-.363-10.067 3.338-2.227 4.437-4.84 8.715-7.766 12.717-2.035 2.784-8.182 11.193-10.22 13.979-.337.466-1.031.465-1.455-.063-4.752-5.905-10.269-11.1-16.398-15.439l-3.117-2.207c-15.87-11.235-33.395-19.267-52.086-23.871-.197-.048-.606-.149-.7-.745-.086-.547.217-.735.397-.847l86.112-53.344c7.549-4.677 17.892.642 17.055 9.535l-2.671 28.399c-.388 4.124 2.641 7.781 6.765 8.169 4.116.385 7.781-2.64 8.169-6.765l2.671-28.398c.81-8.606-2.797-16.891-9.648-22.161-8.726-6.713-20.88-7.329-30.239-1.53l-70.656 43.769c-14.447-3.681-29.308-5.546-44.225-5.546h-24.916c-4.143 0-7.5 3.358-7.5 7.5s3.357 7.5 7.5 7.5h24.916c8.781 0 17.542.706 26.194 2.104-9.062 8.587-5.055 23.908 7.189 26.924 16.86 4.153 32.676 11.403 47.006 21.548l3.117 2.207c4.997 3.538 9.498 7.777 13.38 12.601 6.587 8.186 19.069 7.966 25.251-.488l2.391-3.271c3.376 5.888 6.087 12.134 8.094 18.665 3.016 9.814 8.289 18.991 15.251 26.538 17.348 18.804 32.242 39.788 44.27 62.369l11.378 21.362c-22.51 20.339-51.384 31.476-81.91 31.476h-6.421c-11.347 0-21.069-7.091-24.969-17.075 62.482 4.225 58.371 3.956 58.763 3.956 3.911 0 7.207-3.034 7.476-6.995.279-4.133-2.845-7.709-6.978-7.989l-61.443-4.154c-2.187-16.6-14.209-30.558-30.729-34.936l-17.94-4.754c-10.706-2.837-19.832-9.041-26.36-17.29l37.276-9.988c4.001-1.072 6.375-5.185 5.303-9.186-1.071-4.001-5.185-6.375-9.186-5.304l-41.015 10.99c-2.058-5.484-3.172-11.393-3.172-17.504v-2.633c0-17.827-4.212-35.676-12.181-51.618l-8.621-17.249c-4.366-8.734-16.839-8.731-21.203 0l-8.621 17.249c-7.969 15.944-12.181 33.793-12.181 51.618v2.633c0 5.535-.915 10.904-2.615 15.942l-35.187-9.428c-4.003-1.071-8.114 1.302-9.186 5.304-1.072 4.001 1.302 8.113 5.303 9.186l31.975 8.568c-6.583 8.956-16.131 15.713-27.444 18.71l-17.94 4.754c-16.52 4.378-28.542 18.336-30.73 34.936l-61.442 4.154c-4.133.279-7.257 3.856-6.978 7.989.269 3.961 3.564 6.995 7.476 6.995.394 0-3.721.269 58.762-3.956-3.899 9.984-13.622 17.075-24.969 17.075-4.143 0-7.5 3.358-7.5 7.5s3.357 7.5 7.5 7.5c20.083 0 36.902-14.239 40.894-33.151l51.007-3.449c4.133-.279 7.257-3.856 6.978-7.989-.28-4.133-3.854-7.252-7.989-6.977l-48.293 3.265c2.331-9.293 9.55-16.854 19.127-19.392l17.94-4.754c16.182-4.288 29.588-14.492 38.139-27.911.58.871.913 1.911.913 3.011v4.618c0 4.142 3.357 7.5 7.5 7.5s7.5-3.358 7.5-7.5v-4.618c0-6.991-3.57-13.341-9.175-17.051 2.234-6.58 3.436-13.596 3.436-20.831v-2.633c0-15.509 3.665-31.039 10.599-44.912l5.805-11.614 5.805 11.615c6.934 13.87 10.599 29.4 10.599 44.911v2.633c0 8.852 1.798 17.376 5.086 25.175-2.801 3.527-4.441 7.97-4.441 12.707v4.618c0 4.142 3.357 7.5 7.5 7.5 3.89 0 7.5-3.018 7.5-7.746 8.351 9.75 19.604 17.066 32.667 20.528l17.94 4.754c9.577 2.538 16.796 10.098 19.127 19.392l-48.292-3.265c-4.116-.28-7.709 2.844-7.989 6.977-.279 4.133 2.845 7.709 6.978 7.989l51.006 3.449c3.992 18.912 20.811 33.151 40.894 33.151h6.421c32.595 0 63.51-11.31 88.198-32.061.815 3.26 1.234 6.62 1.234 9.988v224.827h-482.008v-224.827c0-3.739.516-7.467 1.518-11.06 16.987 14.595 37.278 24.818 59.25 29.772 4.023.907 8.05-1.608 8.966-5.667.911-4.041-1.626-8.055-5.667-8.966-20.999-4.735-40.276-14.874-56.042-29.428l10.874-20.416c12.027-22.581 26.922-43.565 44.27-62.369 6.962-7.547 12.235-16.723 15.251-26.538 2.007-6.529 4.717-12.776 8.094-18.664l2.391 3.271c6.168 8.434 18.648 8.692 25.252.487 5.96-7.407 11.182-11.045 16.496-14.808 14.33-10.145 30.146-17.395 47.006-21.548 12.268-3.022 16.234-18.354 7.189-26.924 8.652-1.399 17.412-2.104 26.194-2.104 4.143 0 7.5-3.358 7.5-7.5s-3.357-7.5-7.5-7.5c-14.917 0-29.779 1.865-44.225 5.546l-70.655-43.767c-9.36-5.8-21.513-5.184-30.24 1.529-6.852 5.271-10.458 13.556-9.648 22.161l2.671 28.399c1.677 17.825 7.898 34.925 18.036 49.645-5.58 8.463-9.91 17.647-12.898 27.372-2.361 7.683-6.489 14.866-11.938 20.773-18.215 19.744-33.854 41.778-46.482 65.488l-13.394 25.141c-4.651 8.605-7.269 17.497-7.269 27.675v232.328c0 4.142 3.357 7.5 7.5 7.5h497c4.143 0 7.5-3.358 7.5-7.5v-232.328c0-9.177-2.28-18.309-6.595-26.407zm-419.198-219.491c-.839-8.912 9.538-14.192 17.056-9.534l86.111 53.343c.181.112.483.3.397.847-.094.595-.503.696-.7.745-18.691 4.604-36.216 12.635-52.086 23.871l-3.117 2.207c-6.13 4.34-11.646 9.535-16.397 15.439-.273.34-.582.409-.819.4-.397-.009-.565-.239-.637-.337-1.978-2.706-8.242-11.275-10.22-13.98-9.552-13.065-15.401-28.488-16.917-44.601z"/></g></svg>