<svg id="Capa_1" enable-background="new 0 0 512.016 512.016" height="512" viewBox="0 0 512.016 512.016" width="512" xmlns="http://www.w3.org/2000/svg"><g><path d="m397.193 482.325c-6.081-30.723-21.674-57.534-43.351-77.616-15.714-14.558-24.079-35.39-22.882-56.778l.837-14.954c-6.336 4.31-13.184 8.558-20.568 12.726-10.081 18.362-27.677 29.818-55.221 29.818s-45.14-11.456-55.221-29.818c-7.384-4.168-14.233-8.416-20.568-12.726l.837 14.954c1.197 21.388-7.168 42.22-22.882 56.778-21.677 20.083-37.27 46.893-43.351 77.616l-4.392 22.191h145.577 145.577z" fill="#e7d8d5"/><path d="m397.193 482.325c-6.081-30.723-21.674-57.534-43.351-77.616-15.714-14.558-24.079-35.39-22.882-56.778l.837-14.954c-6.336 4.31-13.184 8.558-20.568 12.726-3.569 6.5-8.08 12.135-13.64 16.702 3.878 8.32 9.358 15.916 16.253 22.304 21.677 20.083 37.27 46.893 43.351 77.616 2.274 11.489-6.518 22.191-18.23 22.191h-122.955-101.619l-3.958 20h145.577 145.577z" fill="#d5beb9"/><path d="m406.847 129.895c11.707-11.762 18.28-27.681 18.28-44.276v-44.498c0-7.295-1.805-14.478-5.254-20.906-7.795-14.53-27.558-17.103-38.815-5.055l-52.811 56.526c-15.061 16.12-26.234 35.436-32.707 56.466-1.088 3.534-4.645 5.72-8.29 5.095-10.048-1.722-20.504-2.633-31.242-2.633s-21.194.911-31.242 2.633c-3.644.625-7.202-1.561-8.29-5.095-6.473-21.03-17.646-40.346-32.707-56.466l-52.81-56.526c-11.257-12.048-31.02-9.475-38.815 5.055-3.449 6.429-5.254 13.611-5.254 20.906v44.498c0 16.595 6.572 32.514 18.28 44.276l.026.026c-10.278 10.278-12.946 25.927-6.653 39.03l20.576 42.846c-13.06 41.36 6.893 91.694 81.669 133.905 10.081 18.362 27.677 29.818 55.221 29.818s45.14-11.456 55.221-29.818c74.776-42.211 94.729-92.545 81.669-133.905l20.576-42.846c6.293-13.103 3.625-28.752-6.653-39.03z" fill="#e7d8d5"/><path d="m425.127 85.619v-44.498c0-7.295-1.805-14.478-5.254-20.906-7.104-13.241-24.148-16.552-35.635-7.916.589 2.893.889 5.848.889 8.822v44.498c0 16.595-6.572 32.514-18.28 44.276l-.026.026c10.278 10.278 12.946 25.927 6.653 39.03l-20.576 42.846c13.06 41.36-6.893 91.694-81.669 133.905-10.081 18.362-27.677 29.818-55.221 29.818-3.087 0-6.048-.144-8.889-.426 10.55 12.792 26.405 20.426 48.889 20.426 27.544 0 45.14-11.456 55.221-29.818 74.776-42.211 94.729-92.545 81.669-133.905l20.576-42.846c6.293-13.103 3.625-28.752-6.653-39.03l.026-.026c11.707-11.762 18.28-27.681 18.28-44.276z" fill="#d5beb9"/><path d="m256.008 311.773-25.551-18.067c-1.76-1.245-1.638-3.895.23-4.972 15.671-9.038 34.971-9.038 50.642 0 1.868 1.077 1.99 3.727.23 4.972z" fill="#ceb4af"/><path d="m331.287 132.062c-5.092-3.971-6.548-11.003-3.564-16.73 5.024-9.644 11.345-18.609 18.792-26.579l51.903-55.554c1.122 2.483 1.709 5.196 1.709 7.922v44.643c0 9.993-3.891 19.387-10.957 26.453l-17.526 17.83 17.5 17.552c2.769 2.769 3.49 7 1.795 10.53-3.672 7.647-13.47 9.945-20.16 4.728z" fill="#f9c6da"/><path d="m389.17 112.217c7.066-7.065 10.957-16.46 10.957-26.453v-44.643c0-2.727-.588-5.439-1.709-7.922l-13.291 14.225v18.195c0 16.595-6.572 32.514-18.28 44.276l-.026.026c4.488 4.488 7.525 10 8.998 15.877z" fill="#efa5c3"/><path d="m390.938 158.129c1.695-3.53.974-7.762-1.795-10.53l-12.312-12.349c-.151 4.655-1.253 9.32-3.357 13.701l-5.593 11.647 2.897 2.259c6.69 5.217 16.488 2.919 20.16-4.728z" fill="#efa5c3"/><path d="m121.078 158.129c-1.698-3.535-.978-7.757 1.795-10.53l17.526-17.526-17.552-17.856c-7.066-7.065-10.957-16.46-10.957-26.453v-44.643c0-2.727.588-5.441 1.709-7.922l51.903 55.554c7.446 7.97 13.768 16.935 18.791 26.579 2.983 5.727 1.528 12.759-3.564 16.73l-39.491 30.796c-6.69 5.216-16.488 2.918-20.16-4.729z" fill="#f9c6da"/><path d="m285.888 299.83c6.234-4.407 5.791-13.786-.812-17.594-17.931-10.341-40.208-10.341-58.137 0-6.612 3.813-7.035 13.194-.813 17.593l22.381 15.826v13.268c0 2.36-1.92 4.28-4.28 4.28h-13.564c-4.142 0-7.5 3.358-7.5 7.5s3.358 7.5 7.5 7.5h13.564c4.432 0 8.52-1.504 11.78-4.027 3.26 2.524 7.348 4.027 11.78 4.027h13.564c4.142 0 7.5-3.358 7.5-7.5s-3.358-7.5-7.5-7.5h-13.564c-2.36 0-4.28-1.92-4.28-4.28v-13.268zm-15.036-7.739-14.844 10.496-14.844-10.496c9.567-3.49 20.121-3.49 29.688 0z"/><path d="m226.729 260.958c4.142 0 7.5-3.358 7.5-7.5v-4.996c0-9.712-6.553-18.252-15.935-20.767l-46.958-12.582c-3.995-1.067-8.113 1.302-9.186 5.304-1.072 4.001 1.303 8.113 5.304 9.186l46.957 12.582c2.836.76 4.817 3.342 4.817 6.278v4.996c.001 4.141 3.359 7.499 7.501 7.499z"/><path d="m292.787 253.458v-4.996c0-2.936 1.981-5.518 4.817-6.277l46.958-12.582c4.001-1.072 6.375-5.185 5.304-9.186-1.072-4.001-5.187-6.374-9.186-5.304l-46.958 12.583c-9.382 2.514-15.935 11.054-15.935 20.766v4.996c0 4.142 3.358 7.5 7.5 7.5s7.5-3.358 7.5-7.5z"/><path d="m397.699 161.375c3.071-6.396 1.764-14.063-3.245-19.072l-12.258-12.294 12.276-12.489c8.482-8.482 13.154-19.76 13.154-31.756v-44.643c0-3.764-.821-7.571-2.375-11.01-2.194-4.859-8.652-5.954-12.315-2.033l-51.903 55.554c-7.881 8.436-14.598 17.935-19.963 28.234-4.666 8.958-2.309 19.938 5.604 26.109l39.491 30.796c10.476 8.17 25.795 4.555 31.534-7.396zm-63.325-42.578c4.738-9.095 10.667-17.481 17.621-24.924l40.632-43.49v35.382c0 7.99-3.111 15.5-8.806 21.195l-17.526 17.83c-2.883 2.933-2.866 7.64.038 10.553l17.508 17.56c.521.521.656 1.316.337 1.98-1.603 3.337-5.868 4.337-8.787 2.061l-39.491-30.796c-2.207-1.721-2.849-4.813-1.526-7.351z"/><path d="m432.627 41.12c0-8.503-2.125-16.959-6.146-24.452-10.238-19.08-36.127-22.447-50.904-6.629l-52.811 56.526c-15.7 16.804-27.579 37.296-34.361 59.271-10.434-1.782-21.192-2.685-31.954-2.709-.302-.018-.574-.018-.885 0-10.762.024-21.52.927-31.954 2.709-6.781-21.974-18.661-42.466-34.361-59.271l-52.811-56.526c-14.783-15.821-40.67-12.446-50.905 6.629-4.021 7.493-6.146 15.949-6.146 24.452v44.499c0 16.415 5.596 31.98 15.878 44.499-8.575 12.2-10.094 28.321-3.486 42.08l19.324 40.238c-6.391 22.905-3.184 46.909 9.342 69.617 10.913 19.785 28.516 38.222 52.489 55.018l.631 11.278c1.077 19.255-6.39 37.794-20.491 50.857-15.797 14.635-28.06 32.077-36.448 51.84-1.618 3.813.161 8.216 3.974 9.834 3.796 1.611 8.208-.144 9.834-3.974 2.953-6.958 6.44-13.596 10.442-19.89 2.86 5.471 6.546 10.503 10.955 14.912l7.353 7.353c2.929 2.929 7.678 2.929 10.606 0 2.929-2.929 2.929-7.678 0-10.606l-7.353-7.353c-5.168-5.168-9.02-11.47-11.266-18.388 3.293-3.942 6.823-7.711 10.582-11.3 3.044 7.259 7.481 13.879 13.15 19.549l11.731 11.731c2.928 2.929 7.677 2.929 10.606 0s2.929-7.678 0-10.606l-11.731-11.731c-6.01-6.01-10.186-13.435-12.191-21.626 10.727-14.599 16.279-32.57 15.206-51.731 2.21 1.34 4.464 2.667 6.761 3.983 12.276 20.827 33.221 31.816 60.719 31.816s48.443-10.99 60.719-31.816c2.293-1.314 4.547-2.643 6.761-3.986-1.073 19.206 4.5 37.163 15.205 51.733-2.007 8.193-6.185 15.623-12.19 21.627l-11.731 11.731c-2.929 2.929-2.929 7.677 0 10.606 2.928 2.929 7.677 2.929 10.606 0l11.731-11.731c5.665-5.665 10.103-12.287 13.149-19.55 3.759 3.588 7.29 7.361 10.583 11.3-2.246 6.918-6.098 13.22-11.266 18.388l-7.353 7.353c-2.929 2.929-2.929 7.678 0 10.606 2.929 2.929 7.678 2.929 10.606 0l7.353-7.353c4.412-4.412 8.1-9.448 10.961-14.923 9.024 14.16 15.361 29.942 18.693 46.774l2.619 13.235h-272.891l1.259-6.359c.804-4.063-1.838-8.009-5.901-8.813-4.06-.802-8.009 1.837-8.813 5.901l-3.031 15.315c-.917 4.635 2.634 8.956 7.357 8.956h291.154c4.725 0 8.274-4.323 7.357-8.956l-4.392-22.191c-6.248-31.568-22.02-59.806-45.611-81.662-14.1-13.063-21.569-31.599-20.491-50.857l.632-11.291c3.707-2.599 7.261-5.235 10.649-7.902 3.255-2.562 3.817-7.277 1.255-10.532s-7.279-3.817-10.532-1.255c-4.518 3.556-9.358 7.061-14.488 10.493 1.893-7.661 3.084-16.055 3.56-25.133.134-2.549 1.792-4.829 4.223-5.809 11.511-4.64 19.72-8.329 26.617-11.963 3.665-1.931 5.07-6.467 3.139-10.131-1.932-3.665-6.466-5.069-10.131-3.139-6.429 3.388-14.211 6.879-25.232 11.321-7.82 3.153-13.156 10.586-13.594 18.937-.851 16.239-4.179 29.747-9.89 40.149-9.579 17.446-25.491 25.927-48.647 25.927s-39.068-8.481-48.647-25.927c-5.711-10.403-9.039-23.911-9.89-40.149-.438-8.351-5.774-15.784-13.595-18.937-11.023-4.442-18.807-7.935-25.238-11.324-3.664-1.929-8.201-.525-10.132 3.139-1.931 3.665-.526 8.201 3.139 10.132 6.899 3.636 15.111 7.326 26.624 11.966 2.432.98 4.089 3.261 4.223 5.81.475 9.072 1.665 17.46 3.556 25.117-50.467-33.851-72.153-74.597-59.777-113.79.574-1.818.435-3.787-.391-5.505l-20.576-42.847c-4.907-10.217-2.819-22.466 5.196-30.48 2.924-2.924 2.903-7.689-.014-10.621-10.379-10.428-16.095-24.273-16.095-38.985v-44.498c0-6.037 1.509-12.04 4.363-17.36 5.364-10 18.951-11.801 26.726-3.48l52.811 56.526c14.182 15.18 24.909 33.698 31.02 53.553 1.655 5.378 6.163 9.215 11.434 10.229v25.63c0 4.142 3.358 7.5 7.5 7.5s7.5-3.358 7.5-7.5v-26.955c4.224-.478 8.488-.806 12.765-.982v41.831c0 4.142 3.358 7.5 7.5 7.5s7.5-3.358 7.5-7.5v-41.832c4.278.176 8.541.504 12.765.982v26.955c0 4.142 3.358 7.5 7.5 7.5s7.5-3.358 7.5-7.5v-25.629c5.27-1.013 9.78-4.852 11.434-10.23 6.111-19.854 16.837-38.372 31.02-53.552l52.811-56.526c7.776-8.324 21.364-6.515 26.726 3.48 2.854 5.32 4.363 11.323 4.363 17.36v44.499c0 14.712-5.716 28.558-16.158 39.049-2.882 2.937-2.86 7.647.049 10.557 8.014 8.014 10.102 20.263 5.196 30.48l-20.577 42.846c-.825 1.718-.965 3.687-.391 5.505 8.278 26.217 1.341 53.6-20.061 79.188-2.658 3.178-2.236 7.908.941 10.565 3.179 2.658 7.908 2.237 10.565-.941 23.732-28.375 32.092-60.368 23.719-90.43l19.325-40.239c6.608-13.76 5.088-29.881-3.487-42.081 10.284-12.524 15.878-28.087 15.878-44.499v-44.499z"/><path d="m114.317 161.375c5.751 11.975 21.079 15.55 31.533 7.396l39.491-30.796c7.913-6.171 10.27-17.151 5.604-26.109-5.365-10.299-12.082-19.798-19.962-28.233-2.828-3.026-7.574-3.187-10.601-.36-3.027 2.828-3.188 7.574-.36 10.601 6.954 7.443 12.882 15.829 17.62 24.923 1.323 2.539.681 5.63-1.525 7.351l-39.491 30.796c-2.918 2.277-7.184 1.276-8.787-2.062-.319-.664-.183-1.459.337-1.979l17.526-17.526c2.911-2.911 2.932-7.625.045-10.561l-17.598-17.902c-5.649-5.648-8.76-13.159-8.76-21.149v-35.383l16.713 17.889c2.829 3.028 7.575 3.188 10.601.36 3.027-2.828 3.188-7.574.36-10.601l-27.984-29.953c-3.652-3.908-10.114-2.841-12.315 2.032-1.553 3.438-2.375 7.246-2.375 11.01v44.643c0 11.997 4.671 23.274 13.108 31.71l12.34 12.553-12.268 12.269c-5.017 5.018-6.323 12.686-3.252 19.081z"/><path d="m256.008 455.339c14.518 0 34.055-6.606 44.687-38.08 1.326-3.924-.781-8.18-4.705-9.506-3.922-1.326-8.18.78-9.506 4.705-6.337 18.761-16.307 27.88-30.476 27.88s-24.139-9.12-30.476-27.88c-1.326-3.924-5.582-6.033-9.506-4.705-3.924 1.326-6.031 5.582-4.705 9.506 10.632 31.473 30.169 38.08 44.687 38.08z"/></g></svg>