<svg id="Capa_1" enable-background="new 0 0 512 512" height="512" viewBox="0 0 512 512" width="512" xmlns="http://www.w3.org/2000/svg"><g><path d="m303.828 405.618 44.5-39.269c-1.651-7.593-2.294-15.448-1.851-23.367l.11-1.971c-4.459 2.046-9.32 3.115-14.255 3.115h-12.659l-19.48 19.48c-7.618 7.618-17.95 11.897-28.723 11.897h-30.94c-10.773 0-21.105-4.28-28.723-11.897l-19.48-19.48h-12.659c-4.935 0-9.796-1.069-14.255-3.115l.11 1.971c.443 7.918-.2 15.774-1.851 23.367l44.5 39.269c27.326 24.113 68.33 24.113 95.656 0z" fill="#f9efda"/><path d="m374.098 411.521c-13.151-12.184-22.038-28.008-25.771-45.172l-44.5 39.269c-27.326 24.114-68.329 24.114-95.655 0l-44.5-39.269c-3.733 17.164-12.619 32.988-25.771 45.172-25.999 24.087-44.748 56.191-52.187 92.979h340.57c-7.438-36.788-26.186-68.893-52.186-92.979z" fill="#f1d59d"/><path d="m374.098 411.521c-13.151-12.184-22.038-28.008-25.771-45.172l-44.5 39.269c-27.326 24.114-68.329 24.114-95.655 0l-44.5-39.269c-3.733 17.164-12.619 32.988-25.771 45.172-25.999 24.087-44.748 56.191-52.187 92.979h340.57c-7.438-36.788-26.186-68.893-52.186-92.979z" fill="#f1d59d"/><path d="m303.828 405.618 44.5-39.269c-1.651-7.593-2.294-15.448-1.851-23.367l.11-1.971c-4.459 2.046-9.32 3.115-14.255 3.115h-12.659l-19.48 19.48c-7.618 7.618-17.95 11.897-28.723 11.897h-30.94c-10.773 0-21.105-4.28-28.723-11.897l-19.48-19.48h-12.659c-4.935 0-9.796-1.069-14.255-3.115l.11 1.971c.443 7.918-.2 15.774-1.851 23.367l44.5 39.269c27.326 24.113 68.33 24.113 95.656 0z" fill="#fbf6ec"/><path d="m374.098 411.521c-13.151-12.184-22.038-28.008-25.771-45.172l-20.812 18.365c2.057 2.374 4.253 4.648 6.583 6.806 13.606 12.605 25.227 27.406 34.279 43.926 12.099 22.077-3.724 49.054-28.899 49.054h-248.471c-2.137 6.491-3.91 13.164-5.292 20h340.57c-7.439-36.788-26.187-68.893-52.187-92.979z" fill="#efcb84"/><path d="m327.516 384.714 20.812-18.365c-1.651-7.593-2.294-15.448-1.851-23.367l.11-1.971c-4.459 2.046-9.32 3.115-14.255 3.115h-12.659l-9.446 9.446c3.526 11.396 9.383 22.018 17.289 31.142z" fill="#f9efda"/><path d="m408.453 197.015-33.525-39.627c-8.108-9.584-9.842-23.033-4.43-34.36l53.724-112.434c2.067-1.986 4.822-3.095 7.688-3.095 6.784 0 11.98 6.034 10.974 12.742l-10.966 73.105c-2.842 18.95-13.758 35.739-29.924 46.027l3.688 3.688c5.493 5.493 7.367 13.64 4.827 20.981l-8.694 25.128z" fill="#efa5c3"/><path d="m137.072 157.391c8.108-9.584 9.842-23.033 4.43-34.36l-53.724-112.434c-2.067-1.986-4.822-3.095-7.688-3.095-6.784 0-11.98 6.034-10.974 12.742l10.966 73.105c2.843 18.95 13.758 35.739 29.924 46.027l-3.688 3.688c-5.493 5.493-7.367 13.64-4.827 20.981l8.694 25.128z" fill="#f9c6da"/><path d="m374.929 157.389c-8.108-9.584-9.842-23.033-4.43-34.36l53.724-112.434-99.931 96.014c-11.857-6.326-25.217-9.746-38.97-9.746h-29.322-29.322c-13.754 0-27.113 3.42-38.97 9.746l-99.931-96.014 53.725 112.435c5.412 11.326 3.678 24.774-4.429 34.357l-33.526 39.628c-4.577 5.41-6.476 12.594-5.171 19.56l8.046 42.925c6.259 33.39 26.581 62.473 55.784 79.829 5.283 3.14 11.315 4.797 17.461 4.797h12.659l19.48 19.48c7.618 7.618 17.95 11.897 28.723 11.897h30.941c10.773 0 21.105-4.28 28.723-11.897l19.48-19.48h12.659c6.146 0 12.178-1.657 17.461-4.797 29.203-17.357 49.526-46.439 55.784-79.829l8.046-42.925c1.306-6.966-.593-14.149-5.171-19.56z" fill="#f1d59d"/><path d="m374.929 157.389c-8.108-9.584-9.842-23.033-4.43-34.36l53.724-112.434-91.618 88.027-2.106 4.407c-5.413 11.327-3.679 24.776 4.43 34.36l33.525 39.627c4.577 5.411 6.476 12.594 5.171 19.56l-8.046 42.925c-6.259 33.39-26.581 62.473-55.784 79.829-5.283 3.14-11.315 4.797-17.461 4.797-8.105 0-15.878 3.22-21.61 8.951l-10.529 10.529c-7.618 7.618-17.95 11.897-28.723 11.897h-27.766l8.103 8.103c7.618 7.618 17.95 11.897 28.723 11.897h30.941c10.773 0 21.105-4.28 28.723-11.897l19.48-19.48h12.659c6.146 0 12.178-1.657 17.461-4.797 29.203-17.357 49.526-46.439 55.784-79.829l8.046-42.925c1.306-6.966-.593-14.149-5.171-19.56z" fill="#efcb84"/><path d="m302.987 279.133c17.206 0 31.155 13.948 31.155 31.155 0 12.767-5.216 24.996-14.468 33.838l-19.48 19.48c-7.618 7.618-17.95 11.897-28.723 11.897h-30.941c-10.773 0-21.105-4.28-28.723-11.897l-19.48-19.48c-9.252-8.842-14.468-21.071-14.468-33.838 0-17.206 13.948-31.155 31.155-31.155z" fill="#fbf6ec"/><path d="m334.142 310.288c0-3.08-.447-6.056-1.28-8.866-6.856 6.837-14.588 12.866-23.068 17.907-5.283 3.14-11.315 4.797-17.461 4.797-8.105 0-15.878 3.22-21.61 8.951l-10.529 10.529c-7.618 7.618-17.95 11.897-28.723 11.897h-27.766l8.103 8.103c1.309 1.309 2.699 2.52 4.157 3.627.133.101.266.2.399.299 1.604 1.187 3.289 2.251 5.039 3.185.292.156.585.308.88.456s.592.293.891.434c.149.071.299.14.449.209.3.137.602.271.906.401.152.065.304.129.456.192.458.19.919.371 1.383.543.619.23 1.244.446 1.874.646 1.26.4 2.541.739 3.838 1.015.162.034.325.068.487.1.325.065.652.126.979.183s.655.11.984.159.659.094.989.135c.165.021.331.04.497.059 1.491.167 2.997.251 4.512.251h30.941c2.693 0 5.359-.267 7.962-.788.325-.065.65-.134.973-.207.97-.219 1.93-.473 2.879-.761.316-.096.631-.196.945-.3.628-.208 1.25-.43 1.866-.668.308-.119.615-.241.92-.368 2.899-1.201 5.658-2.737 8.219-4.584.27-.194.537-.392.802-.594.133-.101.265-.202.396-.305.263-.205.523-.413.782-.624.129-.106.258-.212.385-.32.384-.323.762-.652 1.134-.99.124-.112.248-.226.371-.34.369-.342.732-.692 1.089-1.049l19.48-19.48c9.254-8.838 14.47-21.067 14.47-33.834z" fill="#f9efda"/><path d="m256 314.01c-2.338 0-4.541-1.091-5.959-2.949l-18.939-24.826c-2.219-2.909-.145-7.102 3.514-7.102h42.767c3.659 0 5.734 4.192 3.514 7.102l-18.939 24.826c-1.417 1.858-3.62 2.949-5.958 2.949z" fill="#f9c6da"/><path d="m187.914 151.105 6.326-10.655c.048-.081.096-.161.144-.242 6.336-10.612 4.154-24.235-5.195-32.319l-1.481-1.281c11.857-6.326 25.217-9.746 38.97-9.746h58.644c13.754 0 27.113 3.42 38.97 9.746l-1.48 1.28c-9.35 8.084-11.532 21.708-5.195 32.321.048.081.096.161.144.242l6.325 10.654-37.826-11.612-25.233 42.323c-2.27 3.807-7.784 3.807-10.054 0l-25.233-42.323z" fill="#c3a2a2"/><path d="m223.07 350.877c1.122 0-.281.225 23.247-4.749 3.675-.777 6.978-2.482 9.683-4.836 2.705 2.354 6.008 4.059 9.684 4.836 23.507 4.97 22.126 4.749 23.246 4.749 3.469 0 6.584-2.42 7.331-5.95.857-4.052-1.734-8.032-5.787-8.889l-21.687-4.585c-3.063-.647-5.287-3.39-5.287-6.521v-5.443c1.7-.981 3.212-2.292 4.422-3.878l18.939-24.826c5.984-7.843.384-19.15-9.477-19.15h-42.768c-9.866 0-15.458 11.311-9.477 19.15l18.938 24.825c1.21 1.586 2.723 2.898 4.422 3.879v5.443c0 3.131-2.223 5.874-5.286 6.521l-21.688 4.585c-4.053.857-6.644 4.837-5.787 8.889.748 3.53 3.863 5.95 7.332 5.95zm17.769-64.244h30.321l-15.16 19.874z"/><path d="m331.914 261.175 29.545-20.681c3.394-2.375 4.219-7.052 1.844-10.445-2.376-3.394-7.053-4.218-10.445-1.844l-29.545 20.681c-8.147 5.703-18.879 6.012-27.341.79-3.526-2.176-8.145-1.081-10.321 2.443-2.175 3.525-1.082 8.146 2.443 10.321 13.62 8.407 30.82 7.834 43.82-1.265z"/><path d="m139.58 230.049c-2.375 3.394-1.55 8.07 1.844 10.445l29.545 20.681c13.034 9.123 30.233 9.651 43.82 1.266 3.525-2.175 4.619-6.796 2.443-10.321-2.175-3.524-6.795-4.618-10.321-2.443-8.462 5.222-19.194 4.912-27.34-.79l-29.545-20.681c-3.394-2.374-8.07-1.55-10.446 1.843z"/><path d="m296.422 233.923v-5.608c0-3.71 2.503-6.972 6.086-7.932l52.705-14.122c4.001-1.072 6.375-5.185 5.304-9.186-1.072-4.001-5.186-6.373-9.186-5.304l-52.706 14.123c-10.129 2.714-17.204 11.934-17.204 22.421v5.608c0 4.142 3.358 7.5 7.5 7.5s7.501-3.358 7.501-7.5z"/><path d="m223.078 241.423c4.142 0 7.5-3.358 7.5-7.5v-5.608c0-10.487-7.075-19.707-17.205-22.421l-52.705-14.122c-3.996-1.069-8.113 1.302-9.186 5.304-1.072 4.001 1.303 8.113 5.304 9.186l52.705 14.122c3.584.96 6.087 4.222 6.087 7.932v5.608c0 4.141 3.358 7.499 7.5 7.499z"/><path d="m460.381 313.877c-15.109-15.108-33.558-25.662-53.683-30.97 2.729-7.083 4.831-14.45 6.251-22.025.763-4.071-1.918-7.99-5.99-8.753-4.076-.762-7.99 1.919-8.753 5.99-1.415 7.552-3.6 14.869-6.485 21.854-9.764-1.271-15.584-1.009-31.832-1.009l.667-.667c2.929-2.929 2.929-7.678 0-10.606-2.929-2.929-7.678-2.929-10.606 0-10.329 10.329-10.718 10.71-11.258 11.274h-30.854c-4.142 0-7.5 3.358-7.5 7.5s3.358 7.5 7.5 7.5h21.466c-1.887 5.129-2.663 10.12-2.663 15.434l-16.519-5.284c-3.944-1.263-8.166.914-9.428 4.859s.914 8.167 4.859 9.428l18.484 5.912c-2.067 5.401-5.311 10.344-9.546 14.392-.211.202-18.386 18.384-19.602 19.599-6.256 6.255-14.573 9.701-23.42 9.701h-30.94c-8.847 0-17.164-3.445-23.42-9.701-26.223-26.223-17.906-17.976-19.602-19.599-4.235-4.048-7.479-8.991-9.546-14.392l18.484-5.912c3.945-1.262 6.121-5.483 4.859-9.428-1.262-3.946-5.485-6.12-9.428-4.859l-16.519 5.283c0-5.315-.776-10.306-2.663-15.434h21.466c4.142 0 7.5-3.358 7.5-7.5s-3.358-7.5-7.5-7.5h-30.854c-.55-.575.196.18-11.258-11.274-2.929-2.929-7.678-2.929-10.606 0-2.929 2.929-2.929 7.678 0 10.606l.667.667c-15.665 0-22.049-.264-31.832 1.009-2.885-6.985-5.07-14.302-6.485-21.854l-8.046-42.925c-.894-4.77.391-9.629 3.524-13.333l33.527-39.629c9.995-11.814 12.142-28.471 5.47-42.434l-35.937-75.208c77.844 74.792 69.253 66.641 71.952 68.974 6.602 5.708 8.141 15.297 3.669 22.787l-6.488 10.927c-1.583 2.665-1.363 6.029.553 8.465 1.916 2.437 5.132 3.444 8.097 2.534l32.199-9.885 22.218 37.267c5.176 8.681 17.754 8.693 22.938 0l22.218-37.267 32.198 9.884c2.964.91 6.181-.098 8.097-2.534s2.136-5.8.553-8.465l-6.479-10.911c-4.48-7.504-2.94-17.094 3.661-22.802 2.574-2.225-6.137 6.053 71.952-68.974l-35.936 75.207c-6.673 13.965-4.525 30.623 5.471 42.438 24.19 28.593-32.945-38.942 33.525 39.627 3.134 3.704 4.418 8.564 3.524 13.333l-1.523 8.125c-.763 4.071 1.918 7.99 5.99 8.753 4.076.764 7.991-1.918 8.753-5.99l1.523-8.125c1.729-9.224-.755-18.622-6.816-25.786l-3.878-4.584 7.298-21.092c3.067-8.866 1.365-18.752-4.285-26.086 13.975-11.508 23.305-27.834 26.022-45.949l10.966-73.105c1.687-11.247-7.034-21.355-18.391-21.355-4.828 0-9.403 1.842-12.884 5.187l-96.135 92.366c-11.755-5.371-24.635-8.19-37.57-8.19h-58.644c-12.936 0-25.815 2.819-37.57 8.19l-96.135-92.366c-.624-.6-1.33-1.072-2.082-1.415-3.219-2.446-7.134-3.772-11.23-3.772-11.373 0-20.075 10.123-18.39 21.355l10.965 73.105c.558 3.719 3.757 6.388 7.408 6.388 4.605 0 8.105-4.088 7.426-8.614l-10.966-73.105c-.486-3.235 3.31-5.435 5.867-3.29l52.764 110.424c4.132 8.647 2.802 18.963-3.388 26.279l-18.686 22.087-4.511-13.039c-1.59-4.596-.396-9.787 3.043-13.226l3.688-3.688c3.388-3.388 2.77-9.055-1.277-11.63-6.132-3.902-11.427-8.847-15.738-14.698-2.457-3.334-7.152-4.045-10.487-1.589-3.334 2.457-4.046 7.152-1.589 10.487 3.621 4.914 7.795 9.32 12.467 13.165-5.648 7.334-7.35 17.22-4.283 26.084l7.422 21.451-3.575 4.225c-6.061 7.164-8.545 16.562-6.816 25.786l8.046 42.925c1.42 7.575 3.522 14.942 6.251 22.025-20.124 5.308-38.574 15.861-53.683 30.97-2.929 2.929-2.929 7.677 0 10.606 2.928 2.929 7.677 2.929 10.606 0 13.828-13.828 30.858-23.291 49.417-27.697 6.069 11.398 13.868 21.813 23.127 30.859-15.478 8.775-28.095 21.854-36.436 38.039-1.897 3.682-.451 8.205 3.231 10.103 3.659 1.885 8.193.473 10.103-3.231 7.837-15.208 20.18-27.143 35.357-34.389 3.548 2.67 7.253 5.162 11.103 7.463.618 22.139-8.004 44.254-25.159 60.236-.13.113-.256.231-.378.352-27.919 25.946-46.668 59.411-54.227 96.796-.937 4.636 2.609 8.986 7.352 8.986h340.57c4.73 0 8.291-4.337 7.351-8.986-7.559-37.385-26.308-70.85-54.227-96.796-.121-.121-.247-.239-.378-.352-17.154-15.981-25.777-38.099-25.159-60.236 3.85-2.3 7.555-4.793 11.103-7.463 15.177 7.247 27.52 19.181 35.357 34.389 1.332 2.583 3.955 4.066 6.673 4.066 5.538 0 9.254-5.906 6.661-10.937-8.341-16.185-20.958-29.264-36.436-38.039 9.259-9.046 17.058-19.46 23.127-30.859 18.559 4.406 35.589 13.869 49.417 27.697 2.929 2.929 7.678 2.929 10.606 0 2.931-2.93 2.931-7.678.001-10.607zm-24.913-294.748-10.966 73.106c-2.521 16.81-12.192 31.685-26.534 40.811-4.043 2.573-4.67 8.239-1.277 11.631l3.688 3.688c3.438 3.438 4.633 8.63 3.043 13.226l-4.387 12.68-18.381-21.727c-6.19-7.317-7.521-17.634-3.388-26.283l52.966-110.847c2.597-1.373 5.673.8 5.236 3.715zm-150.146 85.233c9.04 0 18.047 1.651 26.497 4.823-5.62 8.635-6.898 19.502-3.302 29.295l-20.057-6.157c-3.306-1.014-6.874.36-8.643 3.329l-23.817 39.95-23.817-39.95c-1.77-2.968-5.337-4.341-8.643-3.329l-20.054 6.157c3.598-9.789 2.319-20.658-3.303-29.295 8.45-3.171 17.457-4.822 26.496-4.822h58.643zm60.64 228.52c-3.391 2.015-7.182 3.248-11.089 3.622 1.347-2.448 2.504-4.995 3.463-7.618l9.306 2.977c-.557.344-1.117.684-1.68 1.019zm-168.835 3.622c-3.237-.31-5.842-1.099-8.682-2.354-1.477-.685-2.551-1.338-4.087-2.288l9.306-2.977c.959 2.624 2.117 5.172 3.463 7.619zm-49.676-42.205c5.574-.445 5.941-.336 38.62-.336 2.793 4.473 4.287 9.646 4.287 15.049 0 1.767-.012 3.033.14 5.138-20.315 6.498-19.082 6.088-20.946 6.749-8.741-7.676-16.191-16.662-22.101-26.6zm266.287 151.49c-2.778 4.732-6.143 9.085-10.038 12.981l-9.891 9.891c-2.929 2.929-2.929 7.677 0 10.606 2.928 2.929 7.677 2.929 10.606 0 10.114-10.114 13.361-13.02 17.929-19.284 6.273 11.633 11.147 24.035 14.516 37.017h-321.721c3.37-12.982 8.244-25.384 14.516-37.017 4.751 6.514 8.433 9.788 17.929 19.284 2.928 2.929 7.677 2.929 10.606 0s2.929-7.678 0-10.606l-9.891-9.891c-3.895-3.895-7.259-8.249-10.038-12.981 5.156-7.608 10.965-14.807 17.391-21.533 3.538 6.286 7.913 12.049 13.078 17.214l15.781 15.781c2.929 2.929 7.678 2.929 10.606 0 2.929-2.929 2.929-7.678 0-10.606l-15.781-15.781c-5.167-5.167-9.36-11.07-12.507-17.597 9.256-9.599 16.295-20.952 20.77-33.448l9.25 8.163c3.119 2.752 7.856 2.432 10.586-.661 2.741-3.106 2.445-7.845-.661-10.586l-14.93-13.174c.694-4.119 1.114-8.279 1.257-12.453 4.098.654 5.827.521 16.116.521l17.284 17.284c9.089 9.089 21.173 14.094 34.026 14.094h30.94c12.854 0 24.938-5.005 34.026-14.094l17.284-17.284c9.63 0 11.907.151 16.116-.521.144 4.174.563 8.335 1.257 12.453l-41.289 36.435c-24.438 21.563-61.293 21.563-85.73 0-3.106-2.741-7.845-2.444-10.586.661-2.741 3.106-2.445 7.845.661 10.586 30.094 26.555 75.484 26.558 105.58 0l35.609-31.423c4.475 12.496 11.514 23.849 20.77 33.448-3.147 6.527-7.34 12.431-12.507 17.597l-15.781 15.781c-2.929 2.929-2.929 7.678 0 10.606 2.929 2.929 7.678 2.929 10.606 0l15.781-15.78c5.165-5.165 9.541-10.928 13.078-17.214 6.431 6.724 12.24 13.923 17.396 21.531zm-31.29-124.889c-2.177-.773-2.37-.808-20.946-6.75.157-2.174.14-3.594.14-5.138 0-5.403 1.495-10.577 4.287-15.049 32.11 0 33-.112 38.62.336-5.91 9.938-13.36 18.924-22.101 26.601z"/></g></svg>