<svg id="Capa_1" enable-background="new 0 0 512.005 512.005" height="512" viewBox="0 0 512.005 512.005" width="512" xmlns="http://www.w3.org/2000/svg"><g><path d="m193.845 288.103c15.483-10.045 33.544-15.39 52-15.39h20.315c18.456 0 36.517 5.345 52 15.39l4.497 2.917c6.014 3.902 13.038 5.962 20.207 5.929l67.751-.32c2.794-8.951 4.258-18.361 4.258-27.939 0-6.92.912-13.809 2.713-20.491l8.931-33.13c1.182-4.386-.176-9.065-3.523-12.136 0 0-49.623-45.429-74.84-68.365-8.546-7.773-11.208-20.112-6.632-30.719l26.034-60.349-54.83 60.241c-3.491 3.836-8.516 5.877-13.697 5.633-1.003-.047-2.009-.071-3.017-.071h-81.042c-.69 0-1.379.045-2.068.074-5.154.22-10.146-1.819-13.62-5.637l-54.83-60.241 26.034 60.349c4.576 10.608 1.914 22.946-6.632 30.719-25.217 22.936-74.841 68.365-74.841 68.365-3.347 3.071-4.706 7.75-3.523 12.136l8.931 33.13c1.801 6.681 2.713 13.571 2.713 20.491 0 9.577 1.464 18.988 4.258 27.939l67.751.32c7.169.034 14.192-2.027 20.207-5.929z" fill="#ecb780"/><path d="m342.864 296.948c-7.169.034-14.192-2.027-20.207-5.929l-4.497-2.918c-15.483-10.044-33.543-15.39-51.999-15.39h-20.315c-18.456 0-36.517 5.345-52 15.39l-4.497 2.917c-6.014 3.902-13.038 5.962-20.207 5.929l-67.751-.32c5.176 16.582 14.916 31.588 28.367 43.158l19.577 16.839c19.148 16.47 41.477 28.827 65.601 36.304l16.348 5.067 24.719 14.449 24.719-14.449 16.347-5.067c24.124-7.477 46.454-19.834 65.602-36.304l19.577-16.839c13.451-11.57 23.191-26.576 28.367-43.158z" fill="#ffead8"/><path d="m416.028 8.298c-14.129 3.737-26.878 11.475-36.716 22.283l-11.757 12.917-26.035 60.352c-4.574 10.607-1.912 22.944 6.634 30.716 17.969 16.344 48.331 44.109 64.3 58.719l12.196-26.619c4.226-9.223 3.201-20.002-2.687-28.263l-5.013-7.033 5.448-3.269c6.746-4.048 11.292-10.937 12.36-18.731l10.327-75.37c2.258-16.481-12.976-29.955-29.057-25.702z" fill="#efa5c3"/><path d="m87.356 166.667 12.196 26.619c15.969-14.61 46.33-42.375 64.3-58.719 8.546-7.773 11.209-20.112 6.632-30.719l-26.034-60.349-11.757-12.917c-9.838-10.808-22.587-18.546-36.716-22.283-16.081-4.254-31.315 9.22-29.057 25.701l10.327 75.37c1.068 7.794 5.614 14.684 12.36 18.731l5.448 3.269-5.013 7.033c-5.887 8.262-6.912 19.041-2.686 28.264z" fill="#f9c6da"/><path d="m279.607 312.37c3.821-3.821 1.115-10.353-4.288-10.353h-38.631c-5.403 0-8.109 6.533-4.288 10.353l23.604 23.604z" fill="#efa5c3"/><path d="m423.546 427.373-16.207-13.634c-2.853-2.4-4.693-5.789-5.153-9.488l-9.348-75.167c-3.214 3.819-6.751 7.401-10.59 10.703l-19.577 16.839c-19.147 16.47-41.476 28.827-65.6 36.304l-16.348 5.067-24.719 14.449-24.719-14.449-16.348-5.067c-24.124-7.477-46.453-19.834-65.6-36.304l-19.577-16.84c-3.839-3.302-7.375-6.884-10.59-10.703l-9.348 75.167c-.46 3.699-2.301 7.088-5.154 9.488l-16.207 13.634c-24.67 20.754-43.879 47.237-55.945 77.132h446.977c-12.069-29.894-31.277-56.377-55.947-77.131z" fill="#ecb780"/><path d="m361.555 296.86c-5.11 8.537-11.599 16.296-19.307 22.926l-19.578 16.84c-19.148 16.47-41.477 28.827-65.601 36.304l-16.347 5.067c-15.271 8.926-34.167 8.926-49.438 0l-16.348-5.067c-2.433-.754-4.847-1.559-7.242-2.411 14.569 9.656 30.472 17.213 47.242 22.411l16.348 5.067 24.719 14.449 24.719-14.449 16.346-5.066c24.125-7.477 46.455-19.834 65.603-36.305l19.577-16.839c13.451-11.57 23.191-26.576 28.367-43.158z" fill="#ffe2cb"/><path d="m422.994 202.932s-49.623-45.429-74.84-68.365c-8.546-7.773-11.208-20.112-6.632-30.719l26.034-60.349-54.83 60.241c-2.472 2.716-5.713 4.532-9.234 5.274 1.276 2.019 2.835 3.89 4.663 5.552 25.217 22.936 74.84 68.365 74.84 68.365 3.347 3.071 4.706 7.75 3.523 12.136l-8.931 33.13c-1.801 6.681-2.713 13.571-2.713 20.491 0 9.577-1.464 18.988-4.258 27.939-2.21 7.08-5.252 13.871-9.059 20.232l49.059-.232c2.794-8.951 4.258-18.361 4.258-27.939 0-6.92.912-13.809 2.713-20.491l8.931-33.13c1.181-4.384-.177-9.063-3.524-12.135z" fill="#e7a561"/><path d="m423.546 427.373-16.207-13.634c-2.853-2.4-4.694-5.789-5.154-9.489l-9.348-75.167c-3.214 3.819-6.751 7.401-10.59 10.703l-19.577 16.839c-1.172 1.008-2.355 2-3.551 2.977l3.065 24.648c.46 3.7 2.301 7.089 5.154 9.489l16.207 13.634c4.653 3.915 9.112 8.033 13.366 12.34 23.729 24.027 6.547 64.792-27.222 64.792h-327.767c-3.498 6.469-6.641 13.145-9.408 20h446.977c-12.067-29.895-31.275-56.378-55.945-77.132z" fill="#e7a561"/><path d="m224.154 302.891c-2.107 5.087-.952 10.89 2.941 14.782l21.407 21.407v9.272c0 .324-.209.605-.519.699l-35.202 10.676c-3.964 1.202-6.203 5.39-5 9.354 1.201 3.958 5.383 6.204 9.354 5l35.203-10.677c1.312-.398 2.539-.952 3.664-1.637 1.126.685 2.353 1.24 3.665 1.638l35.201 10.676c3.955 1.2 8.15-1.03 9.354-5 1.202-3.964-1.036-8.152-5-9.354l-35.2-10.676c-.311-.094-.52-.375-.52-.7v-9.272l21.408-21.408c3.893-3.893 5.047-9.695 2.939-14.782-2.106-5.087-7.026-8.374-12.532-8.374h-38.631c-5.505.002-10.425 3.289-12.532 8.376zm47.699 6.626-15.851 15.851-15.851-15.851z"/><path d="m201.838 196.462c1.754 3.753 6.218 5.373 9.97 3.619s5.373-6.218 3.619-9.97l-9.77-20.902c-1.754-3.753-6.219-5.373-9.97-3.619-3.752 1.754-5.373 6.218-3.619 9.97z"/><path d="m300.197 200.081c3.765 1.759 8.221.122 9.971-3.619l9.77-20.902c1.754-3.752.133-8.216-3.619-9.97-3.755-1.754-8.217-.133-9.971 3.619l-9.77 20.902c-1.754 3.752-.133 8.216 3.619 9.97z"/><path d="m289.465 256.843c4.143 0 7.5-3.358 7.5-7.5v-5.7c0-3.827 2.582-7.191 6.278-8.181l53.569-14.354c4.001-1.072 6.375-5.185 5.303-9.186-1.071-4.001-5.185-6.375-9.186-5.304l-53.569 14.354c-10.242 2.745-17.396 12.067-17.396 22.67v5.7c.001 4.143 3.358 7.501 7.501 7.501z"/><path d="m155.194 221.108 53.569 14.354c3.696.99 6.277 4.354 6.277 8.181v5.7c0 4.142 3.358 7.5 7.5 7.5s7.5-3.358 7.5-7.5v-5.7c0-10.604-7.153-19.926-17.395-22.67l-53.569-14.354c-3.997-1.067-8.114 1.302-9.186 5.303-1.071 4.001 1.303 8.114 5.304 9.186z"/><path d="m388.597 488.086 14.854-9.368c3.503-2.209 4.553-6.841 2.343-10.344-2.208-3.504-6.841-4.552-10.345-2.343l-14.854 9.368c-3.503 2.209-4.553 6.841-2.343 10.344 2.212 3.508 6.845 4.55 10.345 2.343z"/><path d="m32.514 512.005h446.977c5.307 0 8.943-5.379 6.955-10.307-7.325-18.149-17.27-35.184-29.396-50.501-.231-.345-.49-.67-.773-.971-14.722-18.368-26.429-27.353-44.11-42.227-1.41-1.186-2.312-2.846-2.539-4.675l-2.967-23.86c14.091 4.491 27.611 10.639 40.265 18.318 3.518 2.135 8.14 1.042 10.303-2.521 2.148-3.541 1.02-8.154-2.521-10.303-15.68-9.515-32.28-16.71-50.069-21.76l-3.865-31.079 6.737.844c19.491 2.44 38.394 7.904 56.183 16.241 3.734 1.75 8.208.16 9.974-3.608 1.758-3.75.143-8.216-3.608-9.974-19.171-8.985-39.54-14.881-60.543-17.525 8.825-15.789 13.049-33.625 12.859-49.505.008-6.227.834-12.431 2.455-18.442l8.932-33.131c1.917-7.116-.266-14.631-5.701-19.619-.108-.099-2.53-2.316-6.511-5.959l9.92-21.651c5.098-11.128 4.458-24.725-3.728-36.202 7.914-5.322 13.146-13.685 14.448-23.201l3.708-27.061c.563-4.104-2.309-7.886-6.412-8.449-4.099-.563-7.888 2.308-8.449 6.413l-3.708 27.061c-.763 5.57-3.966 10.424-8.788 13.317l-5.448 3.269c-3.748 2.249-4.788 7.221-2.249 10.784l5.013 7.033c4.317 6.058 5.075 14.023 1.977 20.786l-7.909 17.263c-15.99-14.625-39.076-35.727-54.487-49.754l7.867-2.513c4.521-1.442 9.425-.533 13.123 2.435 3.229 2.592 7.95 2.074 10.543-1.156 2.593-3.231 2.075-7.951-1.156-10.543-7.633-6.125-17.756-8.001-27.074-5.023l-11.629 3.715c-.551-3.115-.348-6.369.669-9.477l19.254-14.909c4.786-3.706 11.066-4.76 16.799-2.818 3.925 1.328 8.18-.775 9.509-4.699s-.774-8.181-4.698-9.509c-9.724-3.293-20.308-1.885-28.785 3.727l14.089-32.66 10.915-11.991c8.884-9.761 20.325-16.705 33.087-20.081 10.859-2.87 21.252 6.174 19.708 17.433l-1.463 10.676c-.617 4.503 2.881 8.519 7.44 8.519 3.689 0 6.906-2.725 7.421-6.483l1.463-10.676c2.98-21.74-17.13-39.598-38.405-33.971-15.561 4.116-29.512 12.583-40.345 24.485-21.361 23.467-52.666 57.863-66.587 73.158-1.973 2.168-4.814 3.324-7.802 3.19-2.396-.113 4.093-.079-83.382-.079-1.112 0-2.245.026-3.368.079-2.984.143-5.826-1.021-7.799-3.19-13.944-15.32-45.311-49.782-66.587-73.158-10.841-11.9-24.792-20.367-40.351-24.482-21.246-5.621-41.388 12.206-38.406 33.97l10.328 75.37c1.304 9.517 6.535 17.879 14.447 23.201-8.142 11.432-8.852 25.016-3.727 36.202l9.92 21.651c-4.073 3.727-6.514 5.962-6.517 5.964-5.431 4.982-7.613 12.499-5.694 19.615l8.931 33.13c1.621 6.013 2.446 12.217 2.455 18.442-.19 15.846 4.019 33.688 12.859 49.504-21.003 2.644-41.372 8.54-60.543 17.525-3.751 1.758-5.366 6.223-3.608 9.974 1.749 3.732 6.206 5.375 9.974 3.608 17.789-8.336 36.691-13.801 56.182-16.241l6.737-.844-3.865 31.079c-17.757 5.038-34.38 12.241-50.069 21.76-3.541 2.149-4.67 6.761-2.521 10.303 2.16 3.559 6.779 4.66 10.303 2.521 12.655-7.679 26.175-13.827 40.265-18.318l-2.967 23.86c-.227 1.828-1.129 3.488-2.539 4.674-17.737 14.921-29.382 23.852-44.11 42.228-.283.3-.541.624-.772.969-12.126 15.317-22.072 32.353-29.397 50.502-1.988 4.924 1.641 10.308 6.953 10.308zm319.078-163.853c3.336-6.7 4.968-14.124 4.698-21.601l25.738 3.223c-3.195 3.186-3.798 3.576-23.346 20.39zm35.709-2.82 1.669 13.423-12.989-3.685c.385-.332 10.996-9.459 11.32-9.738zm-293.127-181.789c-3.099-6.763-2.342-14.728 1.976-20.786l5.013-7.033c2.537-3.561 1.503-8.533-2.249-10.784l-5.449-3.269c-4.821-2.893-8.024-7.747-8.788-13.318l-10.328-75.37c-1.526-11.136 8.731-20.336 19.708-17.433 12.761 3.375 24.202 10.319 33.088 20.081l10.913 11.99 14.09 32.661c-8.477-5.612-19.059-7.022-28.785-3.727-3.923 1.328-6.026 5.586-4.698 9.509 1.328 3.924 5.589 6.027 9.509 4.698 5.733-1.94 12.012-.888 16.797 2.818l19.255 14.911c1.017 3.108 1.219 6.362.668 9.476l-11.63-3.716c-9.322-2.979-19.443-1.101-27.075 5.023-3.23 2.592-3.748 7.313-1.156 10.543 2.591 3.229 7.312 3.749 10.543 1.156 3.698-2.968 8.604-3.878 13.122-2.435l7.868 2.514c-4.595 4.182-9.855 8.978-15.4 14.037-3.06 2.792-3.277 7.536-.485 10.596s7.536 3.277 10.595.485c6.46-5.895 12.535-11.432 17.618-16.055 11.175-10.165 14.24-26.307 8.435-39.326l-8.217-19.048 24.618 27.047c4.15 4.559 9.788 7.367 15.857 7.979l5.723 35.446c.656 4.064 4.48 6.87 8.6 6.209 4.089-.661 6.869-4.511 6.209-8.6l-5.332-33.02h23.711v54.849c0 4.142 3.358 7.5 7.5 7.5 4.143 0 7.5-3.358 7.5-7.5v-54.849h23.711l-5.331 33.02c-.66 4.089 2.12 7.939 6.209 8.6 4.095.658 7.94-2.122 8.6-6.209l5.723-35.446c6.07-.612 11.709-3.419 15.858-7.979l24.617-27.048-8.205 19.02c-5.732 12.737-2.951 29.01 8.422 39.355 21.787 19.816 52.137 47.588 74.816 68.344 1.289 1.183 1.808 2.968 1.353 4.658-9.586 35.56-9.112 33.754-9.5 35.361-6.993-7.836-15.372-14.374-24.819-19.305-3.668-1.917-8.201-.495-10.118 3.179-1.917 3.672-.494 8.203 3.179 10.119 12.304 6.422 22.422 16.133 29.334 28.138-.221 9.991-2.166 19.749-5.657 28.886-10.926-13.921-20.997-20.142-31.131-27.163-3.405-2.361-8.077-1.511-10.436 1.894-2.358 3.405-1.511 8.078 1.895 10.436l8.831 6.118c9.159 6.344 17.138 14.534 23.276 23.856-.3.476-.604.949-.913 1.42l-40.334-5.05c-3.435-8.241-9.295-15.349-16.923-20.298l-21.745-14.106c-3.477-2.255-8.119-1.265-10.374 2.21-2.254 3.475-1.265 8.119 2.21 10.374l21.745 14.106c2.317 1.503 4.389 3.307 6.173 5.346l-18.839-2.359c-4.103-.513-7.858 2.399-8.373 6.51-.515 4.11 2.399 7.859 6.51 8.374l27.845 3.487c.829 6.814-.687 13.508-4.316 19.304l-15.844-4.495c-3.988-1.13-8.133 1.183-9.262 5.168-1.131 3.985 1.184 8.132 5.168 9.262 9.522 2.701 6.535 1.853 27.225 7.723-15.017 10.563-31.513 18.661-49.231 24.153l-16.349 5.067c-1.147.356.342-.426-22.498 12.926-22.721-13.281-21.332-12.565-22.499-12.926l-16.348-5.067c-17.717-5.492-34.213-13.591-49.23-24.153 43.326-12.29 11.095-3.147 27.225-7.723 3.985-1.13 6.299-5.277 5.168-9.262s-5.276-6.3-9.262-5.168l-15.845 4.495c-3.63-5.797-5.145-12.491-4.316-19.304l27.845-3.487c4.11-.515 7.025-4.264 6.51-8.374s-4.267-7.027-8.374-6.51l-18.839 2.359c1.785-2.038 3.856-3.842 6.173-5.346l21.745-14.106c3.475-2.254 4.464-6.899 2.21-10.374-2.254-3.474-6.898-4.463-10.374-2.21l-21.745 14.106c-7.629 4.949-13.488 12.057-16.924 20.298l-40.335 5.05c-.309-.47-.614-.944-.913-1.42 6.139-9.323 14.118-17.512 23.276-23.856l8.831-6.118c3.405-2.358 4.253-7.031 1.894-10.436-2.358-3.405-7.031-4.252-10.436-1.894l-8.831 6.117c-8.405 5.822-15.963 12.972-22.3 21.046-3.491-9.138-5.436-18.895-5.657-28.887 6.912-12.005 17.03-21.716 29.334-28.138 3.672-1.917 5.095-6.447 3.179-10.119-1.917-3.672-6.448-5.095-10.119-3.179-9.447 4.931-17.825 11.469-24.818 19.304-.427-1.771.189.58-9.5-35.361-.456-1.689.063-3.474 1.346-4.652.001 0 4.053-3.71 10.43-9.545.077-.068.152-.137.226-.207 5.394-4.935 12.409-11.352 20.026-18.315 3.057-2.795 3.27-7.539.475-10.596-2.794-3.057-7.538-3.269-10.596-.475-4.459 4.076-8.711 7.965-12.554 11.479zm59.148 186.62c-20.224-17.395-20.336-17.389-23.346-20.39l25.738-3.223c-.269 7.477 1.363 14.902 4.698 21.601zm-28.617-4.831c.45.388 10.748 9.246 11.32 9.738l-12.989 3.684zm-60.107 117.9c15.572 1.803 30.691 7.12 43.956 15.486l14.854 9.368c3.496 2.204 8.13 1.169 10.345-2.343 2.209-3.503 1.161-8.135-2.343-10.344l-14.854-9.368c-12.443-7.847-26.313-13.347-40.724-16.206 7.286-7.927 13.023-12.983 20.215-19.033 8.315 2.22 16.209 5.668 23.513 10.275l12.28 7.745c3.489 2.201 8.126 1.174 10.345-2.343 2.209-3.504 1.161-8.135-2.343-10.345l-12.28-7.745c-5.707-3.6-11.722-6.597-17.984-8.97 4.267-3.625 6.995-8.675 7.687-14.233l3.763-30.26 28.774-8.162c18.747 14.997 39.88 26.2 62.915 33.339l15.526 4.812 23.976 14.016c2.344 1.369 5.236 1.364 7.57 0l23.976-14.016 15.527-4.813c23.035-7.139 44.168-18.342 62.915-33.339l28.774 8.162 3.763 30.26c.691 5.559 3.42 10.609 7.687 14.233-6.262 2.372-12.277 5.37-17.985 8.97l-12.28 7.745c-3.503 2.209-4.553 6.841-2.343 10.345 2.213 3.509 6.846 4.549 10.345 2.343l12.28-7.745c7.304-4.606 15.198-8.054 23.512-10.274 6.973 5.866 12.683 10.839 20.21 19.027-2.377.469-4.739 1.01-7.076 1.622-4.008 1.048-6.407 5.146-5.359 9.153 1.04 3.98 5.118 6.413 9.152 5.359 4.759-1.244 9.627-2.156 14.522-2.721 8.01 10.502 14.931 21.832 20.604 33.773h-165.743c13.078-8.48 24.573-20.315 31.286-34.888 1.733-3.762.089-8.217-3.674-9.95-3.765-1.734-8.217-.088-9.949 3.674-11.713 25.426-42.305 41.165-63.93 41.165-21.626 0-52.217-15.738-63.929-41.165-1.733-3.762-6.187-5.407-9.95-3.674-3.762 1.733-5.407 6.188-3.674 9.95 6.713 14.573 18.208 26.409 31.286 34.889h-165.743c5.674-11.942 12.595-23.272 20.605-33.774z"/></g></svg>