<svg id="Capa_1" enable-background="new 0 0 512 512" height="512" viewBox="0 0 512 512" width="512" xmlns="http://www.w3.org/2000/svg"><g><path d="m360.196 411.551c-8.524-6.141-12.897-16.534-11.367-26.928l1.264-8.591c-13.622 11.198-30.78 17.409-48.595 17.409h-33.859c-3.692 1.533-7.597 2.356-11.638 2.356s-7.946-.823-11.638-2.356h-33.854c-17.818 0-34.979-6.213-48.602-17.414l1.265 8.597c1.53 10.394-2.843 20.786-11.367 26.928-31.106 22.411-54.878 54.73-66.44 92.949h341.272c-11.563-38.221-35.335-70.539-66.441-92.95z" fill="#8b818e"/><path d="m360.196 411.551c-8.524-6.141-12.897-16.534-11.367-26.928l1.264-8.591c-8.877 7.297-19.255 12.476-30.338 15.199.098.072.196.144.295.215 19.416 13.959 35.982 31.775 48.515 52.476 10.786 17.816-1.893 40.578-22.72 40.578h-253.098c-2.836 6.461-5.307 13.135-7.384 20h341.272c-11.561-38.22-35.333-70.538-66.439-92.949z" fill="#756e78"/><path d="m405.507 172.121c6.108-8.922 10.031-19.157 11.453-29.876l14.273-107.677c1.364-10.289-4.247-20.238-13.757-24.395-13.281-5.805-28.808-1.902-37.764 9.495l-70.235 89.371c-11.693-3.458-23.925-5.262-36.352-5.262h-34.246c-12.43 0-24.667 1.805-36.363 5.266.004-.001.008-.002.012-.004l-70.241-89.379c-8.956-11.396-24.483-15.3-37.764-9.495-9.51 4.157-15.121 14.107-13.757 24.395l14.274 107.678c1.421 10.719 5.344 20.954 11.452 29.876l5.684 8.302s.001-.001.001-.001c-15.221 20.787-21.057 47.233-15.662 72.79l9.518 45.087c3.62 17.148 11.988 32.933 24.15 45.553l25.22 26.17c14.425 14.969 34.318 23.425 55.106 23.425h33.854c3.692 1.533 7.597 2.356 11.638 2.356 4.04 0 7.946-.823 11.638-2.356h33.859c20.788 0 40.681-8.456 55.106-23.425l25.22-26.17c12.162-12.62 20.53-28.405 24.15-45.553l9.518-45.087c5.395-25.557-.441-52.002-15.662-72.789z" fill="#8b818e"/><path d="m405.507 172.121c6.108-8.922 10.031-19.157 11.453-29.876l14.273-107.677c1.364-10.289-4.247-20.238-13.757-24.395-8.545-3.735-18.018-3.451-26.074.261.065 1.389.008 2.797-.179 4.209l-14.263 107.601c-1.421 10.719-5.344 20.954-11.453 29.876-3.317 4.844-3.449 11.141-.49 16.212 11.298 19.364 15.204 42.459 10.473 64.871l-9.518 45.087c-3.62 17.148-11.988 32.933-24.15 45.553l-25.22 26.17c-14.425 14.969-34.318 23.425-55.106 23.425h-90.989c-4.295 0-8.553-.361-12.731-1.066 14.193 13.495 33.062 21.066 52.732 21.066h33.854c3.692 1.533 7.597 2.356 11.638 2.356 4.04 0 7.946-.823 11.638-2.356h33.859c20.788 0 40.681-8.456 55.106-23.425l25.22-26.17c12.162-12.62 20.53-28.405 24.15-45.553l9.518-45.087c5.395-25.557-.441-52.002-15.662-72.789z" fill="#756e78"/><path d="m337.372 114.002c-1.983 2.523-1.333 6.238 1.423 7.882 10.026 5.98 19.277 13.355 27.45 21.995l11.786 12.459c2.424 2.563 6.677 2.157 8.463-.885 2.963-5.047 4.914-10.692 5.683-16.493l13.908-104.925c.107-.807-.521-1.525-1.335-1.526h-.015c-2.045 0-4.041.921-5.366 2.607z" fill="#c6c1c8"/><path d="m386.494 155.452c2.963-5.047 4.914-10.692 5.683-16.493l13.908-104.925c.107-.807-.521-1.525-1.335-1.526h-.015c-2.045 0-4.041.921-5.366 2.607l-13.062 16.621-9.346 70.508c-1.139 8.594-3.887 16.876-8.08 24.42l9.15 9.673c2.424 2.563 6.677 2.157 8.463-.885z" fill="#afaab4"/><path d="m174.628 114.002c1.983 2.523 1.333 6.238-1.423 7.882-10.026 5.98-19.277 13.355-27.45 21.995l-11.786 12.459c-2.424 2.563-6.677 2.157-8.463-.885-2.963-5.047-4.914-10.692-5.683-16.493l-13.908-104.926c-.107-.807.521-1.525 1.335-1.526h.015c2.045 0 4.041.921 5.366 2.607z" fill="#c6c1c8"/><path d="m256 315.553-24.139-24.139c-1.97-1.97-1.192-5.323 1.444-6.225l1.765-.604c13.568-4.642 28.294-4.642 41.862 0l1.765.604c2.636.902 3.413 4.255 1.444 6.225z" fill="#665e66"/><path d="m392.962 159.249c3.457-5.889 5.757-12.564 6.649-19.304l13.908-104.922c.702-5.274-3.387-10.009-8.785-10.015-4.425 0-8.53 1.995-11.262 5.473l-61.997 78.887c-4.738 6.028-3.188 14.866 3.338 18.873 4.036 2.521 8.57 5.249 15.024 10.564 7.845 6.666 7.822 6.912 22.744 22.686 5.755 6.084 15.992 5.236 20.381-2.242zm-22.74-22.056 6.802-1.579c4.035-.937 6.546-4.967 5.609-9.002-.938-4.035-4.97-6.546-9.002-5.609l-17.075 3.965c-.772-.602-1.551-1.196-2.337-1.781l25.656-11.506c3.779-1.695 5.469-6.133 3.774-9.912-1.695-3.78-6.134-5.468-9.913-3.774l-21.999 9.866 44.501-56.624-11.497 86.739c-.503 3.793-1.636 7.56-3.312 11.043-8.809-9.315-10.069-10.66-11.207-11.826z"/><path d="m130.569 149.017c-1.675-3.483-2.809-7.25-3.312-11.043l-2.938-22.168c-.544-4.106-4.305-6.993-8.42-6.45-4.106.544-6.994 4.314-6.45 8.42l2.938 22.168c.894 6.74 3.193 13.416 6.65 19.304 4.394 7.486 14.632 8.319 20.379 2.243 14.07-14.873 15.062-16.215 22.715-22.663 5.677-4.678 9.776-7.323 15.024-10.57 6.571-4.01 8.101-12.871 3.368-18.891l-61.997-78.887c-2.733-3.478-6.838-5.473-11.287-5.473-5.324.006-9.466 4.696-8.762 10.011l6.373 48.075c.544 4.106 4.32 6.998 8.42 6.45 4.106-.544 6.994-4.314 6.45-8.42l-3.962-29.889 44.502 56.625-22-9.866c-3.779-1.695-8.216-.005-9.912 3.774-1.695 3.779-.005 8.217 3.774 9.912l25.656 11.506c-.785.585-1.564 1.179-2.337 1.781l-17.074-3.965c-4.036-.937-8.065 1.575-9.002 5.609-.937 4.035 1.575 8.065 5.609 9.002l6.802 1.579c-.984 1.013-1.358 1.415-11.207 11.826z"/><path d="m214.76 261.128c4.142 0 7.5-3.358 7.5-7.5v-5.32c0-10.123-6.829-19.022-16.606-21.642l-49.999-13.397c-3.997-1.068-8.114 1.302-9.186 5.303s1.302 8.114 5.303 9.186l50 13.397c3.231.866 5.489 3.807 5.489 7.153v5.32c-.001 4.142 3.356 7.5 7.499 7.5z"/><path d="m297.24 261.128c4.143 0 7.5-3.358 7.5-7.5v-5.32c0-3.346 2.257-6.287 5.489-7.153l49.999-13.397c4.001-1.072 6.375-5.185 5.303-9.186-1.071-4-5.184-6.374-9.186-5.303l-49.999 13.397c-9.777 2.62-16.606 11.52-16.606 21.642v5.32c0 4.142 3.357 7.5 7.5 7.5z"/><path d="m313.122 131.515c-9.694 9.471-17.359 20.573-22.781 32.998l-17.669 40.489c-2.169 4.971 1.505 10.501 6.87 10.501 2.892 0 5.647-1.683 6.878-4.502l17.669-40.488c4.645-10.644 11.211-20.154 19.516-28.268 2.963-2.895 3.019-7.643.123-10.606-2.893-2.963-7.643-3.02-10.606-.124z"/><path d="m298.218 203.975c-3.196 5.024.477 11.527 6.321 11.527 2.479 0 4.905-1.229 6.335-3.475l3.247-5.104c7.975-12.534 17.762-23.765 29.087-33.381 3.158-2.681 3.545-7.414.864-10.571-2.679-3.157-7.412-3.544-10.571-.863-12.474 10.589-23.252 22.958-32.036 36.764z"/><path d="m232.458 215.503c5.379 0 9.035-5.541 6.87-10.502l-17.67-40.488c-5.421-12.423-13.085-23.525-22.781-32.998-2.963-2.895-7.711-2.84-10.605.124-2.895 2.962-2.84 7.711.123 10.605 8.305 8.115 14.871 17.625 19.515 28.268l17.67 40.489c1.231 2.82 3.986 4.502 6.878 4.502z"/><path d="m167.928 162.971c-2.681 3.158-2.294 7.891.863 10.571 11.326 9.616 21.112 20.847 29.088 33.381l3.248 5.104c1.429 2.247 3.855 3.475 6.335 3.475 5.842 0 9.518-6.501 6.32-11.527l-3.248-5.104c-8.783-13.805-19.562-26.174-32.035-36.764-3.158-2.682-7.891-2.293-10.571.864z"/><path d="m319.971 445.389c2.831-3.023 2.675-7.77-.349-10.601-3.022-2.831-7.77-2.674-10.601.348-29.359 31.354-76.677 31.363-106.045 0-2.832-3.023-7.577-3.18-10.601-.348-3.023 2.832-3.179 7.578-.348 10.601 35.299 37.695 92.644 37.698 127.944 0z"/><path d="m397.277 336.834c14.83 4.668 29.24 10.736 43.147 18.18 3.651 1.955 8.197.578 10.151-3.073 1.955-3.652.579-8.197-3.073-10.152-13.695-7.331-27.852-13.402-42.399-18.195 3.695-7.505 6.46-15.477 8.207-23.754l9.518-45.087c5.423-25.683.356-52.481-13.897-74.356l2.766-4.04c6.74-9.845 11.131-21.3 12.698-33.127l4.959-37.407c.545-4.106-2.343-7.876-6.449-8.421-4.097-.546-7.875 2.343-8.42 6.449l-4.959 37.408c-1.261 9.506-4.79 18.713-10.206 26.625l-5.679 8.294c-1.798 2.625-1.743 6.1.138 8.667 14.048 19.186 19.287 43.537 14.374 66.81l-9.518 45.087c-1.666 7.891-4.418 15.456-8.151 22.501-12.331-3.283-24.915-5.673-37.711-7.157-.088-.088-.178-.174-.271-.258-17.98-16.283-40.722-25.948-64.723-27.646-1.255-2.849-3.634-5.058-6.656-6.091l-1.764-.603c-15.062-5.154-31.653-5.153-46.716 0l-1.766.604c-3.021 1.034-5.4 3.242-6.654 6.091-24.001 1.697-46.743 11.363-64.723 27.646-.093.084-.183.17-.271.258-12.795 1.484-25.378 3.873-37.707 7.156-3.733-7.045-6.485-14.61-8.15-22.5l-9.518-45.088c-4.913-23.272.326-47.623 14.374-66.809 1.88-2.567 1.935-6.042.137-8.667l-5.683-8.302c-5.417-7.912-8.946-17.119-10.206-26.625l-14.275-107.677c-.919-6.936 2.916-13.736 9.326-16.538 10.149-4.437 22.019-1.452 28.863 7.257l69.961 89.022c1.799 2.595 5.113 3.855 8.292 2.917 11.12-3.29 22.638-4.958 34.235-4.958h34.247c11.594 0 23.109 1.667 34.225 4.954 2.947.873 6.126-.143 8.023-2.558l70.236-89.371c6.844-8.71 18.713-11.692 28.862-7.257 6.41 2.802 10.245 9.603 9.326 16.538l-4.598 34.682c-.545 4.106 2.343 7.876 6.449 8.42 4.087.542 7.875-2.343 8.42-6.449l4.598-34.682c1.794-13.525-5.686-26.788-18.188-32.253-16.41-7.173-35.6-2.349-46.664 11.732l-67.156 85.452c-10.953-2.794-22.21-4.209-33.534-4.209h-34.247c-11.324 0-22.58 1.414-33.534 4.209l-67.161-85.458c-11.065-14.079-30.253-18.905-46.663-11.731-12.501 5.464-19.981 18.727-18.188 32.252l14.273 107.677c1.568 11.828 5.959 23.283 12.699 33.129l2.771 4.045c-14.254 21.875-19.32 48.673-13.898 74.356l9.518 45.088c1.747 8.276 4.513 16.248 8.207 23.752-14.548 4.793-28.707 10.865-42.404 18.196-3.652 1.955-5.027 6.5-3.073 10.152 1.955 3.652 6.501 5.027 10.152 3.073 13.907-7.444 28.319-13.513 43.151-18.181 5.439 7.778 9.631 11.776 17.229 19.661-21.502 9.358-41.641 21.535-60.177 36.41-3.231 2.593-3.748 7.313-1.156 10.543 2.58 3.215 7.297 3.761 10.543 1.156 18.966-15.22 39.71-27.447 61.944-36.534 6.503 6.748 8.436 8.879 11.785 11.829l.856 5.817c1.128 7.667-2.065 15.235-8.332 19.751-3.167 2.282-6.297 4.691-9.305 7.16-3.201 2.628-3.666 7.354-1.037 10.556 2.615 3.185 7.34 3.678 10.556 1.037 2.765-2.27 5.643-4.485 8.555-6.583 8.783-6.328 14.073-16.117 14.721-26.648 12.098 6.452 25.727 9.953 39.599 9.953h32.439c8.502 3.142 17.601 3.143 26.104 0h32.445c13.869 0 27.496-3.5 39.593-9.95.649 10.53 5.939 20.318 14.721 26.646 27.5 19.813 48.673 47.726 60.394 79.364h-320.421c6.403-17.377 15.544-33.481 27.25-47.982 2.602-3.223 2.098-7.945-1.125-10.547-3.222-2.601-7.945-2.098-10.547 1.125-15.069 18.668-26.231 39.774-33.176 62.733-1.455 4.81 2.15 9.671 7.179 9.671h341.271c5.025 0 8.635-4.858 7.179-9.671-11.719-38.74-36.307-73.14-69.234-96.863-6.268-4.516-9.46-12.084-8.332-19.75l.855-5.812c3.461-3.048 5.298-5.097 11.789-11.833 22.232 9.087 42.975 21.313 61.939 36.532 3.218 2.581 7.94 2.09 10.544-1.156 2.592-3.23 2.075-7.951-1.155-10.543-18.535-14.874-38.673-27.05-60.173-36.408 7.484-7.767 11.802-11.902 17.23-19.663zm-126.801-46.364-14.476 14.477-14.477-14.477c9.464-2.467 19.494-2.467 28.953 0zm30.526 57.327c38.842 10.419 42.82 11.326 52.547 14.579l-2.345 2.434c-12.941 13.428-31.059 21.13-49.706 21.13h-13.125c.888-2.715.177-5.819-2.068-7.871-3.058-2.794-7.801-2.583-10.596.475-11.855 12.965-27.473 13.062-39.416 0-2.795-3.057-7.54-3.269-10.596-.474-2.245 2.052-2.955 5.156-2.068 7.871h-13.119c-18.648 0-36.765-7.702-49.706-21.129l-2.347-2.436c9.969-3.334 14.312-4.323 52.542-14.578 4-1.073 6.374-5.187 5.301-9.188-1.074-4-5.187-6.37-9.188-5.301-38.599 10.355-45.88 11.997-60.111 17.18-11.75-12.192-13.429-13.755-16.793-17.982 13.21-3.235 26.718-5.393 40.467-6.458l28.57-2.213c4.13-.32 7.218-3.927 6.898-8.057s-3.938-7.218-8.057-6.898l-9.482.734c12.344-6.515 26.061-10.187 40.201-10.65l19.695 19.696v11.213c0 2.343-1.02 4.561-2.799 6.086l-8.136 6.975c-6.733 5.772-14.966 9.2-23.809 9.912-4.129.333-7.207 3.949-6.874 8.078.334 4.146 3.968 7.207 8.078 6.874 12.021-.968 23.213-5.628 32.367-13.475 8.011-6.868 8.254-7.068 8.673-7.45.43.393-.008.009 8.673 7.45 9.153 7.847 20.346 12.507 32.366 13.475 4.138.335 7.746-2.756 8.078-6.873.333-4.129-2.744-7.746-6.873-8.078-8.843-.712-17.075-4.14-23.809-9.912l-8.136-6.974c-1.779-1.525-2.8-3.744-2.8-6.086v-11.216l19.696-19.696c14.139.463 27.856 4.136 40.2 10.65l-9.483-.735c-4.129-.311-7.736 2.769-8.057 6.898-.32 4.13 2.769 7.737 6.898 8.057l28.57 2.213c13.751 1.065 27.26 3.224 40.472 6.46-3.38 4.248-5.032 5.779-16.793 17.983-14.69-5.351-23.161-7.268-60.115-17.181-4.004-1.071-8.114 1.3-9.188 5.301s1.302 8.114 5.303 9.187z"/></g></svg>