<svg id="Capa_1" enable-background="new 0 0 512 512" height="512" viewBox="0 0 512 512" width="512" xmlns="http://www.w3.org/2000/svg"><g><path d="m346.147 131.469 10.504 7.799c20.227 15.019 37.739 33.383 51.781 54.3l1.961 2.921c31.498-52.699 47.045-188.989-4.442-188.989-7.832 0-17.635 6.301-27.993 15.848l-36.916 89.738c-2.704 6.574-.602 14.145 5.105 18.383z" fill="#617881"/><path d="m155.349 139.268 10.504-7.799c5.707-4.238 7.81-11.808 5.106-18.382l-36.916-89.738c-10.359-9.548-20.162-15.849-27.994-15.849-51.487 0-35.94 136.29-4.442 188.989l1.961-2.921c14.042-20.917 31.554-39.281 51.781-54.3z" fill="#617881"/><path d="m403.6 382.966 9.061-13.676c10.947-16.523 16.595-35.991 16.19-55.807l-1.558-63.151c-.357-17.452-5.277-34.507-14.27-49.468l-2.63-4.376-1.959-2.918c-14.042-20.918-31.555-39.284-51.783-54.303l-10.504-7.799c-5.707-4.238-7.81-11.808-5.106-18.382l36.916-89.738c-32.369 29.834-70.16 91.366-70.16 91.366l-2.773-1.098c-8.624-3.416-17.816-5.17-27.092-5.17h-43.865c-9.276 0-18.468 1.754-27.092 5.17l-2.773 1.098s-37.791-61.532-70.16-91.366l36.916 89.738c2.704 6.574.602 14.145-5.106 18.382l-10.507 7.802c-20.226 15.018-37.737 33.382-51.778 54.298l-1.961 2.921-2.631 4.376c-8.993 14.961-13.912 32.015-14.269 49.466l-1.557 63.085c-.406 19.858 5.266 39.365 16.257 55.909l8.679 13.064c8.198 12.34 20.646 21.237 34.975 24.999l83.766 21.989c19.912 5.227 40.838 5.22 60.746-.022l81.052-21.339c14.339-3.774 26.788-12.69 34.976-25.05z" fill="#86a0af"/><path d="m428.851 313.483-1.558-63.151c-.357-17.452-5.277-34.507-14.27-49.468l-2.63-4.376-1.958-2.918c-14.042-20.918-31.555-39.284-51.783-54.303l-10.504-7.799c-5.707-4.238-7.81-11.808-5.106-18.382l36.916-89.738c-29.503 27.193-63.51 80.718-69.301 89.984l7.995 5.936c20.228 15.02 37.741 33.385 51.783 54.303l1.958 2.918 2.63 4.376c8.993 14.961 13.913 32.016 14.27 49.468l1.558 63.151c.406 19.816-5.242 39.285-16.19 55.807l-9.061 13.675c-8.189 12.359-20.637 21.276-34.975 25.05l-81.052 21.339c-19.908 5.241-40.834 5.249-60.746.022l-72.407-19.007c7.717 8.196 17.622 14.126 28.641 17.018l83.766 21.989c19.912 5.227 40.838 5.22 60.746-.022l81.052-21.339c14.338-3.775 26.786-12.691 34.975-25.05l9.061-13.675c10.948-16.523 16.595-35.991 16.19-55.808z" fill="#738b95"/><path d="m256 317.227-26.478-31.32c-1.41-1.668-.903-4.215 1.039-5.215 15.963-8.222 34.915-8.222 50.877 0 1.942 1 2.45 3.547 1.039 5.215z" fill="#617881"/><path d="m442.364 475.245c-12.829-28.129-30.078-54.023-51.092-76.699l-1.074-1.159c-6.354 4.914-13.676 8.552-21.572 10.631l-81.052 21.339c-19.908 5.241-40.834 5.249-60.746.022l-83.766-21.989c-7.682-2.017-14.823-5.51-21.059-10.218l-1.274 1.375c-21.014 22.677-38.262 48.571-51.092 76.699l-13.344 29.254h399.414z" fill="#86a0af"/><path d="m442.364 475.245c-12.829-28.129-30.078-54.023-51.092-76.699l-1.074-1.159c-4.889 3.781-10.351 6.806-16.207 8.948 11.013 15.317 20.521 31.695 28.373 48.911 6.245 13.692-3.763 29.255-18.811 29.255h-318.138l-9.122 20h399.414z" fill="#738b95"/><path d="m285.958 293.407h2.787c6.577 0 13.01 1.83 18.602 5.291 3.51 2.173 8.137 1.104 10.324-2.43 2.181-3.522 1.093-8.144-2.43-10.324-7.776-4.814-16.694-7.411-25.831-7.532-1.03-1.857-2.592-3.386-4.538-4.388-18.079-9.312-39.665-9.313-57.746 0-1.945 1.002-3.508 2.531-4.538 4.388-9.137.12-18.054 2.718-25.831 7.532-3.522 2.18-4.61 6.802-2.43 10.324 2.191 3.54 6.819 4.6 10.324 2.43 5.592-3.461 12.024-5.291 18.602-5.291h2.787l22.458 26.565v12.143c0 1.67-.921 3.187-2.402 3.956l-46.19 23.992c-3.514 1.826-7.631 2.01-11.295.504-3.835-1.575-8.213.257-9.788 4.087-1.574 3.832.256 8.213 4.087 9.788 7.622 3.131 16.339 2.865 23.91-1.067 50.154-26.051 47.171-24.347 49.179-25.905 2.01 1.56-.931-.122 49.179 25.905 7.517 3.905 16.235 4.221 23.91 1.067 3.831-1.574 5.661-5.956 4.087-9.788-1.574-3.831-5.957-5.661-9.788-4.087-3.665 1.505-7.781 1.321-11.295-.504l-46.19-23.992c-1.481-.77-2.402-2.286-2.402-3.956v-12.143zm-12.724-8.184-17.234 20.386-17.234-20.386c11.076-4.25 23.392-4.25 34.468 0z"/><path d="m37.894 363.175c2.93 2.929 7.678 2.929 10.607 0 9.063-9.063 19.218-16.638 30.168-22.601 2.868 11.634 7.739 22.738 14.491 32.902l1.153 1.736c-9.518 8.818-17.871 19.011-24.81 30.395-3.062 5.024.609 11.404 6.397 11.404 2.529 0 4.998-1.28 6.411-3.598 5.777-9.479 12.651-18.033 20.441-25.532 2.521 3.606 5.368 6.934 8.493 9.951-6.509 7.314-12.694 14.991-18.432 22.885-3.634 4.999.027 11.91 6.061 11.91 2.318 0 4.605-1.072 6.072-3.091 5.656-7.782 11.769-15.341 18.211-22.524 5.553 3.37 11.606 5.951 17.999 7.63l83.767 21.989c20.443 5.366 42.778 5.711 64.56-.023l81.052-21.339c6.607-1.739 12.849-4.443 18.551-7.985 19.001 21.232 34.617 45.119 46.454 71.072l8.503 18.644h-136.131c7.401-4.654 14.296-10.342 20.524-16.994 2.831-3.023 2.675-7.77-.349-10.601-3.023-2.831-7.77-2.675-10.601.348-34.039 36.351-88.927 36.359-122.975 0-2.831-3.023-7.577-3.18-10.601-.348s-3.18 7.578-.349 10.601c6.229 6.651 13.123 12.339 20.524 16.994h-136.128c8.054-17.658 11.504-25.702 17.789-37.169 1.99-3.632.66-8.191-2.973-10.182-3.631-1.99-8.19-.66-10.182 2.973-6.747 12.309-9.438 18.765-23.122 48.766-2.258 4.949 1.356 10.612 6.824 10.612h399.414c5.446 0 9.091-5.644 6.823-10.612l-13.343-29.255c-12.335-27.046-28.567-51.961-48.293-74.144 3.098-3.053 5.916-6.417 8.404-10.057 7.769 7.487 14.625 16.025 20.389 25.482 1.413 2.318 3.882 3.598 6.411 3.598 5.79 0 9.459-6.381 6.397-11.404-6.931-11.372-15.274-21.555-24.78-30.367l1.197-1.806c6.725-10.15 11.575-21.236 14.431-32.853 10.945 5.962 21.096 13.534 30.155 22.594 2.93 2.929 7.678 2.929 10.607 0s2.929-7.678 0-10.606c-11.343-11.343-24.22-20.592-38.164-27.557.61-6.756.417-11.245.3-16.001-.103-4.141-3.582-7.435-7.683-7.313-4.141.102-7.415 3.541-7.313 7.682.09 3.623.188 5.886.068 9.309-15.998-5.89-33.082-8.963-50.638-8.963h-59.384c-4.143 0-7.5 3.358-7.5 7.5s3.357 7.5 7.5 7.5h59.384c16.979 0 33.466 3.202 48.772 9.32-2.391 11.369-6.814 21.707-13.335 31.547-15.078-11.22-32.408-19.393-51.223-23.958l-34.655-8.409c-4.03-.977-8.081 1.495-9.057 5.52-.978 4.025 1.494 8.081 5.52 9.057l34.655 8.409c17.097 4.148 32.822 11.628 46.457 21.913-3.298 4.978-6.887 9.184-12.01 13.184-.127.092-.253.189-.375.291-5.519 4.229-11.863 7.361-18.709 9.164l-81.052 21.339c-18.621 4.903-38.308 4.91-56.933.021l-83.767-21.989c-6.66-1.748-12.845-4.754-18.259-8.804-.126-.102-.255-.199-.385-.292-4.738-3.612-8.738-7.905-12.087-12.947 13.624-10.268 29.333-17.735 46.411-21.879l34.655-8.409c4.025-.977 6.497-5.032 5.52-9.057-.976-4.025-5.029-6.497-9.057-5.52l-34.655 8.409c-18.802 4.562-36.121 12.727-51.192 23.935-6.508-9.796-10.954-20.157-13.354-31.528 15.302-6.115 31.785-9.315 48.76-9.315h59.384c4.143 0 7.5-3.358 7.5-7.5s-3.357-7.5-7.5-7.5h-59.384c-17.555 0-34.638 3.072-50.635 8.962-.137-3.858-.169.21 1.518-68.203.33-16.117 4.895-31.939 13.199-45.756 12.786-21.265 31.368-42.307 54.322-59.369.024-.017 10.607-7.875 10.701-7.947 8.393-6.305 11.465-17.462 7.468-27.18l-20.276-49.29c21.646 27.632 39.933 57.272 40.193 57.696 1.906 3.104 5.771 4.391 9.152 3.047l2.773-1.098c7.779-3.081 15.965-4.643 24.33-4.643h43.865c8.365 0 16.551 1.562 24.33 4.643l2.773 1.099c3.387 1.344 7.247.057 9.152-3.047.261-.424 18.547-30.064 40.193-57.697l-20.276 49.29c-4.147 10.082-.574 21.41 7.674 27.333 9.827 7.297 10.408 7.732 10.515 7.808 22.875 17.01 41.501 38.065 54.301 59.354 8.306 13.817 12.87 29.64 13.2 45.789l.597 24.192c.103 4.14 3.531 7.437 7.683 7.313 4.142-.102 7.415-3.542 7.313-7.683l-.597-24.161c-.381-18.63-5.517-36.841-15.71-53.794 11.677-21.461 21.352-54.526 25.567-87.791 2.881-22.74 5.591-64.633-8.633-89.705-7.006-12.359-17.403-18.891-30.061-18.891-9.237 0-20.057 5.833-33.077 17.833-24.435 22.908-50.764 60.328-68.149 87.667-8.622-3.023-17.619-4.554-26.792-4.554h-43.865c-9.173 0-18.17 1.531-26.792 4.554-10.014-15.747-40.615-62.277-68.126-87.646-8.555-8.018-21.331-17.854-33.101-17.854-10.541 0-19.678 4.624-26.42 13.372-20.598 26.724-16.673 89.424-4.31 136.372 1.052 3.992 5.142 6.4 9.163 5.343 4.006-1.055 6.397-5.157 5.343-9.163-13.563-51.504-12.839-104.552 1.685-123.395 3.959-5.136 8.579-7.529 14.539-7.529 2.847 0 9.396 1.69 21.698 12.758l36.275 88.181c.491 1.194.676 2.451.582 3.674l-15.063-15.062c-8.92-8.92-20.78-13.833-33.396-13.833-4.143 0-7.5 3.358-7.5 7.5s3.357 7.5 7.5 7.5c8.608 0 16.702 3.352 22.788 9.439l14.449 14.449-11.945-6.615c-11.797-6.533-26.101-6.953-38.261-1.125-3.734 1.791-5.312 6.27-3.521 10.005 1.791 3.736 6.271 5.311 10.005 3.521 7.788-3.734 16.953-3.465 24.509.72l7.637 4.229c-14.827 12.205-28.002 26.177-39.327 41.704-.735-1.576-1.462-3.207-2.178-4.89-1.621-3.812-6.028-5.585-9.838-3.963-3.812 1.622-5.586 6.027-3.963 9.838 2.056 4.831 4.206 9.306 6.416 13.358-10.294 17.13-15.331 35.347-15.708 53.758-1.644 66.678-1.896 66.601-1.147 74.863-13.946 6.964-26.825 16.215-38.168 27.559-2.928 2.929-2.928 7.678.001 10.607zm346.359-335.417c12.302-11.068 18.851-12.758 21.698-12.758 4.556 0 11.276 1.17 17.018 11.291 8.695 15.327 11.236 45.39 6.799 80.418-3.547 27.993-11.05 55.613-20.247 75.337-11.324-15.526-24.5-29.498-39.327-41.704l7.636-4.229c7.557-4.185 16.719-4.455 24.509-.72 3.732 1.79 8.214.215 10.005-3.521 1.791-3.735.214-8.214-3.521-10.005-12.16-5.828-26.462-5.408-38.261 1.125l-11.945 6.615 14.449-14.449c6.086-6.087 14.18-9.439 22.788-9.439 4.143 0 7.5-3.358 7.5-7.5s-3.357-7.5-7.5-7.5c-12.615 0-24.476 4.913-33.396 13.833l-15.063 15.062c-.094-1.223.091-2.479.582-3.674z"/><path d="m361.548 211.558c-1.071-4.001-5.184-6.372-9.186-5.304l-54.033 14.479c-10.303 2.761-17.498 12.138-17.498 22.804v5.75c0 4.142 3.357 7.5 7.5 7.5s7.5-3.358 7.5-7.5v-5.75c0-3.889 2.624-7.309 6.381-8.315l54.033-14.478c4.001-1.073 6.375-5.185 5.303-9.186z"/><path d="m150.452 211.558c-1.072 4.001 1.302 8.113 5.303 9.186l54.033 14.478c3.757 1.007 6.381 4.426 6.381 8.315v5.75c0 4.142 3.357 7.5 7.5 7.5s7.5-3.358 7.5-7.5v-5.75c0-10.666-7.195-20.043-17.498-22.804l-54.033-14.478c-4.001-1.069-8.115 1.301-9.186 5.303z"/><path d="m220.876 203.991c4.925 0 8.522-4.675 7.251-9.437l-11.74-43.965c-1.068-4.002-5.183-6.378-9.181-5.311-4.002 1.069-6.38 5.179-5.312 9.181l11.74 43.965c.896 3.354 3.928 5.567 7.242 5.567z"/><path d="m291.124 203.991c3.313 0 6.346-2.213 7.241-5.567l11.74-43.965c1.068-4.002-1.31-8.112-5.312-9.181-3.995-1.069-8.112 1.309-9.181 5.311l-11.74 43.965c-1.269 4.759 2.323 9.437 7.252 9.437z"/><path d="m278.824 374.645c-14.175 7.625-31.448 7.639-45.648 0-3.646-1.961-8.195-.594-10.158 3.052-1.962 3.648-.596 8.196 3.053 10.158 18.603 10.008 41.222 10.026 59.859 0 3.648-1.962 5.015-6.51 3.053-10.158s-6.511-5.014-10.159-3.052z"/></g></svg>