<svg id="Capa_1" enable-background="new 0 0 512.001 512.001" height="512" viewBox="0 0 512.001 512.001" width="512" xmlns="http://www.w3.org/2000/svg"><g><path d="m329.204 112.468c-7.72 14.027-2.613 31.517 11.319 39.408 25.828 14.629 44.735 35.735 52.368 59.905l20.576-42.846c6.293-13.103 3.625-28.752-6.653-39.03l.026-.026c11.707-11.762 18.28-27.681 18.28-44.276v-44.497c0-7.295-1.805-14.478-5.254-20.906-1.136-2.118-2.527-3.981-4.109-5.583l-69.25 74.121c-7.785 8.332-13.286 16.432-17.303 23.73z" fill="#dfdde2"/><g fill="#f1f1f4"><path d="m171.479 151.877c13.932-7.891 19.039-25.381 11.319-39.408-4.017-7.299-9.519-15.399-17.303-23.731l-69.25-74.121c-1.581 1.602-2.972 3.465-4.109 5.583-3.449 6.429-5.254 13.611-5.254 20.906v44.498c0 16.595 6.573 32.514 18.28 44.276l.026.026c-10.279 10.278-12.946 25.927-6.653 39.03l20.576 42.846c7.632-24.17 26.539-45.276 52.368-59.905z"/><path d="m256.001 311.997v21.09c0 4.185 1.849 8.155 5.052 10.848l14.127 11.877c4.922 4.138 11.146 6.407 17.576 6.407 15.084 0 27.312-12.228 27.312-27.312v-2.244c0-9.129-3.626-17.884-10.081-24.339l-4.097-4.097c-6.455-6.455-15.21-10.081-24.339-10.081h-.306z"/><path d="m256.001 311.997v21.09c0 4.185-1.849 8.155-5.052 10.848l-14.127 11.877c-4.922 4.138-11.146 6.407-17.576 6.407-15.084 0-27.312-12.228-27.312-27.312v-2.244c0-9.129 3.626-17.884 10.081-24.339l4.097-4.097c6.455-6.455 15.21-10.081 24.339-10.081h.306z"/></g><path d="m256.001 311.997-25.245-17.85c-9.239-.082-18.117 3.553-24.644 10.08l-4.097 4.097c-6.455 6.455-10.082 15.21-10.082 24.339v2.244c0 2.06.229 4.066.661 5.996-68.04-41.191-86.053-89.312-73.483-129.12 7.633-24.17 26.54-45.276 52.368-59.905 13.932-7.891 19.039-25.381 11.319-39.408-4.017-7.299-9.519-15.399-17.303-23.731l-69.25-74.121c9.268-9.386 25.091-9.764 34.706.528l52.811 56.526c15.061 16.12 26.234 35.436 32.707 56.466 1.088 3.534 4.645 5.72 8.29 5.095 10.048-1.722 20.504-2.633 31.242-2.633s21.194.911 31.242 2.633c3.644.625 7.202-1.561 8.29-5.095 6.473-21.03 17.646-40.346 32.707-56.466l52.811-56.526c9.616-10.292 25.439-9.914 34.707-.528l-69.25 74.121c-7.784 8.332-13.286 16.432-17.303 23.731-7.72 14.027-2.613 31.517 11.319 39.408 25.828 14.629 44.735 35.735 52.368 59.905 12.571 39.809-5.443 87.93-73.483 129.12.432-1.93.661-3.936.661-5.996v-2.244c0-9.129-3.626-17.884-10.081-24.339l-4.097-4.097c-6.527-6.527-15.406-10.162-24.644-10.08z" fill="#8b818e"/><path d="m281.525 288.773c-15.797-9.111-35.252-9.111-51.049 0-1.883 1.086-2.006 3.757-.232 5.012l25.756 18.212 25.756-18.212c1.775-1.255 1.652-3.927-.231-5.012z" fill="#665e66"/><path d="m392.89 211.782c-7.633-24.17-26.54-45.276-52.368-59.905-13.932-7.891-19.039-25.381-11.319-39.408 4.017-7.299 9.519-15.399 17.303-23.731l69.25-74.121c-9.268-9.386-25.091-9.764-34.707.528l-52.811 56.526c-15.061 16.12-26.234 35.436-32.707 56.466-.725 2.356-2.547 4.112-4.761 4.836 2.454 3.557 5.736 6.629 9.752 8.904 25.828 14.629 44.735 35.735 52.368 59.905 10.382 32.879-.099 71.428-42.396 107.06 6.137 6.401 9.574 14.933 9.574 23.82v2.244c0 2.06-.229 4.067-.661 5.996 68.041-41.19 86.054-89.311 73.483-129.12z" fill="#756e78"/><path d="m292.756 362.219c-6.43 0-12.654-2.269-17.576-6.407l-14.127-11.877c-3.203-2.693-5.052-6.664-5.052-10.848 0 4.185-1.849 8.155-5.052 10.848l-14.127 11.877c-4.922 4.138-11.146 6.407-17.576 6.407-1.973 0-3.897-.21-5.751-.607 10.237 8.814 24.166 13.893 42.506 13.893s32.269-5.079 42.506-13.893c-1.855.397-3.778.607-5.751.607z" fill="#f1f1f4"/><path d="m397.186 482.31c-6.081-30.723-21.674-57.534-43.351-77.616-15.714-14.558-24.079-35.39-22.882-56.778l.837-14.954c-3.928 2.672-8.054 5.321-12.383 7.941-2.319 10.352-10.514 18.483-20.901 20.709-10.237 8.815-24.166 13.893-42.506 13.893s-32.269-5.079-42.506-13.893c-10.386-2.226-18.582-10.357-20.901-20.709-4.328-2.62-8.454-5.269-12.383-7.941l.837 14.954c1.197 21.388-7.168 42.22-22.882 56.778-21.677 20.083-37.27 46.893-43.351 77.616l-4.392 22.191h291.154z" fill="#dfdde2"/><path d="m397.186 482.31c-6.081-30.723-21.674-57.534-43.351-77.616-15.714-14.558-24.079-35.39-22.882-56.778l.837-14.954c-3.928 2.672-8.054 5.321-12.383 7.941-2.319 10.352-10.514 18.483-20.901 20.709-.305.263-.614.522-.925.777 3.878 8.321 9.358 15.917 16.253 22.304 21.677 20.083 37.27 46.893 43.351 77.616 2.274 11.489-6.518 22.191-18.23 22.191h-224.573l-3.958 20h291.154z" fill="#c6c1c8"/><path d="m271.488 284.363-2.74-80.441c-.112-3.291-1.184-6.477-3.083-9.166l-6.716-9.512c-1.438-2.037-4.46-2.037-5.898 0l-6.716 9.512c-1.899 2.69-2.971 5.876-3.083 9.166l-2.74 80.441c10.068-3.231 20.909-3.231 30.976 0z" fill="#f1f1f4"/><path d="m218.424 260.943c4.143 0 7.5-3.358 7.5-7.5v-4.996c0-9.713-6.552-18.252-15.934-20.767l-46.958-12.582c-4.003-1.069-8.114 1.302-9.186 5.304-1.072 4.001 1.302 8.113 5.303 9.186l46.958 12.582c2.836.76 4.816 3.341 4.816 6.277v4.996c.001 4.142 3.359 7.5 7.501 7.5z"/><path d="m348.968 215.099-46.958 12.582c-9.382 2.514-15.934 11.054-15.934 20.767v4.996c0 4.142 3.357 7.5 7.5 7.5s7.5-3.358 7.5-7.5v-4.996c0-2.937 1.98-5.518 4.816-6.277l46.958-12.582c4.001-1.072 6.375-5.185 5.303-9.186-1.07-4.002-5.183-6.374-9.185-5.304z"/><path d="m286.477 412.443c-6.338 18.761-16.307 27.88-30.477 27.88s-24.139-9.12-30.477-27.881c-1.326-3.924-5.581-6.033-9.506-4.705-3.924 1.326-6.031 5.582-4.705 9.506 10.633 31.474 30.17 38.08 44.688 38.08s34.055-6.606 44.688-38.08c1.326-3.924-.78-8.18-4.705-9.506-3.925-1.325-8.181.782-9.506 4.706z"/><path d="m86.881 75.544c-4.143 0-7.5 3.358-7.5 7.5v2.559c0 16.398 5.586 31.95 15.881 44.496-8.577 12.2-10.097 28.323-3.488 42.084l19.322 40.235c-12.224 43.611 10.095 88.214 61.831 124.609l.633 11.307c1.079 19.292-6.417 37.819-20.491 50.857-23.591 21.855-39.363 50.094-45.611 81.662l-4.392 22.191c-.917 4.635 2.634 8.956 7.357 8.956h291.154c4.724 0 8.274-4.323 7.357-8.956-4.643-23.462-4.881-25.064-6.296-30.567-1.032-4.012-5.124-6.428-9.132-5.395-4.012 1.032-6.428 5.121-5.396 9.132 1.328 5.156 1.864 8.295 4.336 20.786h-272.893l2.619-13.235c3.331-16.833 9.668-32.614 18.692-46.774 2.861 5.476 6.549 10.512 10.961 14.924l7.354 7.353c2.927 2.928 7.677 2.929 10.606-.001 2.929-2.929 2.929-7.678-.001-10.606l-7.353-7.352c-5.169-5.168-9.021-11.47-11.267-18.389 3.293-3.94 6.823-7.712 10.583-11.3 3.044 7.26 7.481 13.88 13.151 19.55l11.731 11.731c2.927 2.929 7.677 2.929 10.606 0s2.929-7.678-.001-10.606l-11.73-11.731c-6.011-6.011-10.186-13.437-12.191-21.627 10.029-13.649 15.449-30.209 15.346-47.414 4.477 8.208 12.162 14.424 21.358 16.955 11.925 9.641 27.382 14.528 45.981 14.528s34.056-4.887 45.981-14.528c9.197-2.53 16.882-8.747 21.359-16.955-.102 17.205 5.317 33.764 15.345 47.413-2.006 8.192-6.184 15.622-12.189 21.628l-11.731 11.731c-2.93 2.929-2.93 7.677-.001 10.606 2.928 2.928 7.677 2.93 10.606 0l11.732-11.731c5.665-5.665 10.103-12.287 13.149-19.55 3.747 3.578 7.277 7.354 10.579 11.313-2.246 6.913-6.097 13.21-11.261 18.374l-7.354 7.353c-2.93 2.929-2.93 7.678-.001 10.606 2.928 2.928 7.677 2.931 10.606.001l7.354-7.353c4.404-4.404 8.086-9.43 10.945-14.895 1.338 2.103 2.621 4.245 3.845 6.424 1.377 2.45 3.923 3.828 6.546 3.828 5.636 0 9.37-6.123 6.532-11.175-7.724-13.749-17.519-26.165-29.113-36.905-14.099-13.062-21.567-31.599-20.49-50.857l.632-11.294c12.334-8.655 23.042-17.786 31.962-27.267 2.839-3.017 2.694-7.763-.322-10.602-3.015-2.837-7.762-2.695-10.602.323-8.995 9.559-20.032 18.783-32.918 27.518-1.212-9.056-5.333-17.424-11.902-23.993l-4.097-4.097c-5.995-5.995-13.486-9.95-21.631-11.518-.855-2.154-2.416-3.987-4.494-5.186-2.033-1.173-4.123-2.212-6.255-3.119l-2.569-75.436c-.163-4.765-1.702-9.342-4.452-13.236l-6.716-9.512c-4.423-6.264-13.73-6.263-18.152 0l-6.716 9.511c-2.75 3.895-4.289 8.472-4.452 13.237l-2.569 75.436c-2.133.907-4.223 1.946-6.256 3.119-2.077 1.198-3.638 3.031-4.493 5.185-8.145 1.568-15.636 5.523-21.631 11.518l-4.096 4.096c-6.569 6.568-10.689 14.932-11.902 23.986-49.482-33.626-70.756-74.298-58.546-112.966 6.927-21.937 24.298-41.696 48.912-55.638 17.431-9.873 23.797-32.101 14.192-49.551-4.933-8.961-11.121-17.451-18.393-25.234l-63.198-67.644c6.077-2.155 13.006-.727 17.697 4.295l52.812 56.526c14.183 15.18 24.908 33.698 31.02 53.553 2.191 7.119 9.385 11.54 16.724 10.281 1.097-.188 2.198-.365 3.303-.532v6.889c0 4.637-1.806 8.996-5.084 12.275l-7.717 7.716c-2.93 2.929-2.93 7.677-.001 10.606 2.929 2.928 7.678 2.93 10.606 0l7.718-7.716c6.111-6.112 9.478-14.238 9.478-22.881v-8.496c7.758-.499 15.589-.499 23.346 0v8.496c0 8.644 3.366 16.77 9.479 22.881l7.717 7.716c2.927 2.929 7.677 2.929 10.606 0s2.929-7.678-.001-10.606l-7.716-7.716c-3.279-3.279-5.085-7.638-5.085-12.275v-6.889c1.104.167 2.206.344 3.303.532 7.34 1.26 14.532-3.16 16.724-10.281 6.111-19.854 16.837-38.372 31.02-53.552l52.811-56.526c4.685-5.014 11.615-6.451 17.698-4.295-68.095 72.885-64.832 69.241-68.45 73.614-5.229 6.321-9.585 12.801-13.145 19.268-9.604 17.45-3.238 39.678 14.192 49.551 43.893 24.862 66.216 68.914 42.837 114.08-1.904 3.678-.466 8.204 3.212 10.108 3.68 1.903 8.205.466 10.108-3.213 11.332-21.891 14.049-44.975 7.92-66.957l19.324-40.238c6.608-13.76 5.089-29.882-3.486-42.081 10.285-12.525 15.879-28.087 15.879-44.499v-44.498c0-8.503-2.125-16.958-6.146-24.451-10.153-18.927-36.054-22.525-50.905-6.63l-52.813 56.525c-15.699 16.804-27.58 37.297-34.361 59.27-21.182-3.616-43.68-3.604-64.793 0-6.782-21.974-18.662-42.466-34.361-59.27l-52.812-56.526c-14.875-15.923-40.777-12.262-50.903 6.629-4.021 7.494-6.146 15.949-6.146 24.452v6.939c0 4.142 3.357 7.5 7.5 7.5s7.5-3.358 7.5-7.5v-6.939c0-4.927 1.006-9.833 2.928-14.363l62.705 67.116c6.424 6.876 11.879 14.354 16.213 22.227 5.682 10.32 2.145 22.933-7.957 28.983-.012.007-2.134 1.218-3.653 2.127-18.958 11.363-35.553 26.973-45.924 46.391l-13.397-27.897c-4.907-10.217-2.818-22.466 5.195-30.479 2.925-2.924 2.904-7.69-.014-10.621-10.379-10.428-16.096-24.273-16.096-38.985v-2.559c-.001-4.143-3.358-7.501-7.501-7.501zm149.215 289.822c3.872-2.14 4.54-2.963 19.68-15.69.076-.064.151-.128.225-.192.075.065.15.129.226.193 14.896 12.523 15.73 13.508 19.678 15.69-11.98 3.528-27.809 3.534-39.809-.001zm19.905-62.794-14.844-10.497c9.568-3.489 20.123-3.489 29.688 0zm48.683 11.056c5.084 5.083 7.884 11.844 7.884 19.035v2.244c0 10.924-8.888 19.812-19.812 19.812-4.657 0-9.186-1.65-12.75-4.647l-14.127-11.877c-1.512-1.271-2.379-3.133-2.379-5.107v-17.181l20.281-14.17c6.35.518 12.25 3.239 16.805 7.794zm-53.935-109.45c.063-1.835.655-3.597 1.714-5.097l3.538-5.011 3.538 5.012c1.059 1.499 1.651 3.261 1.714 5.096l2.41 70.757c-4.962-.665-10.099-.7-15.324 0zm-51.316 128.485c0-7.191 2.8-13.951 7.885-19.035l4.097-4.097c4.555-4.555 10.455-7.277 16.805-7.794l20.281 14.17v17.181c0 1.975-.867 3.837-2.378 5.107l-14.128 11.877c-3.564 2.997-8.093 4.647-12.75 4.647-10.924 0-19.812-8.888-19.812-19.812zm218.187-247.059c0 14.712-5.717 28.557-16.11 38.999-2.926 2.927-2.929 7.678.001 10.607 8.014 8.014 10.103 20.263 5.195 30.48-14.035 29.223-13.362 27.962-13.416 27.862-10.944-20.478-28.868-36.763-49.072-48.201-10.47-5.928-14.218-18.776-8.444-29.266 4.334-7.873 9.789-15.351 16.213-22.227l62.705-67.116c1.922 4.53 2.928 9.436 2.928 14.363z"/></g></svg>