<svg id="Capa_1" enable-background="new 0 0 512.026 512.026" height="512" viewBox="0 0 512.026 512.026" width="512" xmlns="http://www.w3.org/2000/svg"><g><path d="m489.336 303.338-5.094-28.44c-20.605 86.948-103.227 149.515-228.109 149.515s-207.504-62.566-228.109-149.515l-5.094 28.44c-11.124 62.107-10.34 125.763 2.309 187.577l2.785 13.61h456.217l2.785-13.61c12.65-61.814 13.434-125.469 2.31-187.577z" fill="#c6c1c8"/><path d="m461.077 134.202-5.034-21.445c-7.922-33.748-30.818-62.033-62.175-76.81l-52.435-24.711c-14.23-6.706-31.1-4.177-42.737 6.408-3.767 3.426-6.78 7.517-8.926 12.014-10.948-1.366-22.175-2.076-33.637-2.076s-22.689.71-33.637 2.076c-2.147-4.497-5.16-8.588-8.926-12.014-11.637-10.584-28.506-13.114-42.736-6.408l-52.435 24.711c-31.357 14.778-54.253 43.062-62.175 76.81l-5.034 21.445c-18.068 29.062-28.214 62.138-28.214 96.698 0 109.042 88.051 193.514 233.158 193.514s233.157-84.472 233.157-193.514c0-34.56-10.146-67.636-28.214-96.698z" fill="#c6c1c8"/><path d="m489.336 303.338-5.094-28.44c-5.356 22.6-14.902 43.553-28.291 62.188 1.563 22.949 1.406 44.012.35 62.61-2.702 47.581-41.958 84.829-89.615 84.829h-342.71c.407 2.132.828 4.262 1.264 6.39l2.785 13.61h456.217l2.785-13.61c12.649-61.814 13.433-125.469 2.309-187.577z" fill="#afaab4"/><path d="m461.077 134.202-5.034-21.445c-7.922-33.748-30.818-62.032-62.175-76.81l-26.566-12.52c24.415 15.849 42 40.611 48.741 69.33l5.034 21.445c18.067 29.062 28.213 62.138 28.213 96.698 0 109.042-88.051 193.514-233.158 193.514-40.534 0-76.615-6.592-107.569-18.469 38.175 24.27 88.077 38.469 147.569 38.469 145.107 0 233.158-84.472 233.158-193.514.001-34.56-10.145-67.636-28.213-96.698z" fill="#afaab4"/><path d="m256.133 274.895-21.054-24.452c-2.924-3.396-2.138-8.599 1.659-10.98 11.861-7.436 26.929-7.436 38.79 0 3.797 2.381 4.583 7.583 1.659 10.98z" fill="#f9c6da"/><path d="m221.718 216.226c4.142 0 7.5-3.358 7.5-7.5v-5.873c0-10.823-7.301-20.338-17.755-23.139l-55.196-14.79c-3.995-1.069-8.113 1.302-9.186 5.304-1.072 4.001 1.303 8.113 5.304 9.186l55.196 14.79c3.908 1.047 6.637 4.604 6.637 8.649v5.873c0 4.142 3.358 7.5 7.5 7.5z"/><path d="m283.049 202.853v5.873c0 4.142 3.358 7.5 7.5 7.5s7.5-3.358 7.5-7.5v-5.873c0-4.046 2.729-7.603 6.637-8.649l55.196-14.79c4.001-1.072 6.375-5.185 5.304-9.186-1.072-4.001-5.187-6.375-9.186-5.304l-55.196 14.79c-10.454 2.801-17.755 12.316-17.755 23.139z"/><path d="m320.872 351.329c2.929-2.929 2.929-7.678 0-10.606-2.929-2.929-7.678-2.929-10.606 0-29.917 29.917-78.343 29.922-108.265 0-2.929-2.93-7.678-2.929-10.606 0-2.929 2.929-2.929 7.678 0 10.606 35.778 35.779 93.694 35.784 129.477 0z"/><path d="m17.892 492.419 2.785 13.61c.714 3.49 3.785 5.997 7.348 5.997h456.218c3.563 0 6.634-2.506 7.348-5.997 4.825-23.579 10.652-50.928 12.52-91.898.188-4.138-3.013-7.646-7.15-7.834-4.153-.202-7.646 3.013-7.834 7.15-1.16 25.449-4.338 51.007-9.446 75.965l-1.558 7.613h-443.978l-1.558-7.613c-12.459-60.885-13.271-122.77-2.417-183.95 15.353 36.639 42.324 67.872 79.956 90.281-4.837 10.387-9.11 21.038-12.785 31.901-1.648 4.871 1.991 9.906 7.105 9.906 3.127 0 6.045-1.972 7.104-5.098 3.391-10.023 7.317-19.858 11.748-29.458 37.475 19.029 82.518 28.92 132.836 28.92s95.361-9.891 132.836-28.92c4.43 9.6 8.357 19.435 11.748 29.458 1.058 3.127 3.976 5.098 7.104 5.098 5.123 0 8.751-5.042 7.105-9.906-3.675-10.862-7.949-21.514-12.785-31.901 37.631-22.408 64.603-53.641 79.956-90.281 4.187 23.611 6.657 47.726 7.339 71.69.117 4.096 3.519 7.397 7.71 7.284 4.141-.118 7.401-3.57 7.284-7.71-1.219-42.813-6.959-70.512-12.552-101.741 11.031-48.175 3.761-98.776-23.779-143.685l-4.755-20.256c-8.495-36.189-32.653-66.034-66.279-81.881l-52.436-24.711c-21.423-10.097-46.606-2.443-58.986 17.182-19.466-2.061-39.557-2.061-59.022 0-12.351-19.579-37.513-27.301-58.986-17.182l-52.435 24.711c-33.626 15.847-57.785 45.691-66.28 81.881l-4.755 20.256c-12.04 19.628-20.416 40.632-24.903 62.454-.834 4.057 1.778 8.022 5.835 8.857 4.058.834 8.023-1.778 8.857-5.835 4.21-20.473 12.151-40.193 23.603-58.613.431-.692.746-1.451.932-2.246l5.035-21.444c7.443-31.708 28.609-57.855 58.071-71.74l52.435-24.71c21.006-9.898 44.759 5.622 44.759 28.387 0 22.911-14.616 43.131-36.371 50.315-19.217 6.346-39.821 7.407-59.586 3.068l-26.96-5.918c-4.045-.886-8.046 1.671-8.934 5.718-.888 4.046 1.672 8.045 5.718 8.934l26.96 5.918c22.175 4.868 45.525 3.783 67.507-3.477 27.913-9.218 46.667-35.163 46.667-64.559 0-3.45-.395-6.911-1.162-10.286 15.546-1.373 31.466-1.373 47.012 0-3.447 15.156.669 36.151 13.391 52.324 1.48 1.881 3.679 2.863 5.9 2.863 6.155 0 9.803-7.163 5.89-12.137-7.315-9.299-11.344-20.936-11.344-32.765 0-22.822 23.796-38.264 44.759-28.387l52.436 24.711c29.462 13.885 50.627 40.033 58.07 71.74l5.035 21.444c.186.794.501 1.553.932 2.246 25.427 40.9 32.942 87.519 22.718 133.609-.42.912-.659 1.915-.682 2.955-10.997 45.811-39.518 82.935-81.164 107.748-11.494-21.943-25.55-42.536-41.817-61.224 6.26-4.961 11.433-11.254 15.167-18.579l1.644-3.224 2.716.621c21.279 4.865 41.134 13.679 59.014 26.199 3.393 2.376 8.069 1.551 10.445-1.842s1.551-8.069-1.842-10.445c-19.203-13.446-40.499-22.968-63.309-28.311l.935-1.834c1.881-3.69.415-8.207-3.275-10.088-3.689-1.883-8.207-.415-10.088 3.275l-2.649 5.196-30.338-6.936c-4.039-.92-8.06 1.602-8.983 5.64s1.602 8.06 5.64 8.983l26.655 6.094c-2.899 5.634-6.961 10.431-11.886 14.133-5.449-5.686-9.045-9.061-14.407-14.192-2.993-2.864-7.741-2.76-10.604.233-2.864 2.993-2.76 7.74.233 10.604 4.925 4.713 7.109 6.77 10.56 10.255-10.436 2.783-21.642 1.372-31.082-3.982l-28.767-16.317c-3.644-2.067-5.908-5.954-5.908-10.143v-8.911l19.237-22.342c5.921-6.876 4.322-17.412-3.358-22.228-14.202-8.903-32.555-8.904-46.758 0-7.688 4.821-9.272 15.359-3.358 22.227l19.238 22.343v8.911c0 4.189-2.264 8.076-5.907 10.143l-28.767 16.317c-9.441 5.354-20.647 6.766-31.082 3.983 3.489-3.524 5.661-5.567 10.56-10.256 2.993-2.864 3.097-7.611.233-10.604s-7.611-3.097-10.604-.233c-5.418 5.184-8.96 8.509-14.407 14.192-4.926-3.702-8.987-8.499-11.886-14.133l26.655-6.094c4.038-.923 6.563-4.945 5.64-8.983s-4.945-6.559-8.983-5.64l-30.338 6.937-2.649-5.196c-1.882-3.691-6.399-5.158-10.088-3.275-3.69 1.881-5.157 6.398-3.275 10.088l.935 1.834c-22.811 5.343-44.106 14.865-63.309 28.311-3.393 2.376-4.218 7.052-1.842 10.445 2.379 3.398 7.058 4.214 10.445 1.842 17.88-12.52 37.735-21.334 59.015-26.199l2.715-.621 1.644 3.224c3.734 7.325 8.907 13.618 15.167 18.579-16.267 18.688-30.323 39.281-41.817 61.224-41.647-24.813-70.167-61.938-81.164-107.748-.023-1.04-.263-2.042-.682-2.955-2.878-12.972-4.365-26.622-4.365-40.872 0-4.142-3.358-7.5-7.5-7.5s-7.5 3.358-7.5 7.5c0 15.146 1.666 29.901 4.914 44.085l-4.842 27.032c-11.346 63.32-10.557 127.381 2.339 190.402zm253.476-246.711-15.234 17.692-15.234-17.693c9.277-5.722 21.189-5.722 30.468.001zm-99.715 83.302c16.603 6.969 34.949 5.458 49.707-2.914l28.768-16.317c2.245-1.273 4.26-2.849 6.006-4.658 1.747 1.809 3.762 3.385 6.007 4.658l28.767 16.317c14.786 8.387 33.13 9.87 49.706 2.913 16.342 18.426 30.406 38.85 41.81 60.672-34.928 17.561-77.745 27.231-126.29 27.231s-91.362-9.67-126.29-27.231c11.403-21.821 25.467-42.245 41.809-60.671z"/><path d="m334.936 445.247c-20.023 17.519-47.273 26.778-78.803 26.778s-58.779-9.26-78.802-26.778c-3.117-2.727-7.854-2.412-10.583.706-2.728 3.117-2.411 7.855.706 10.583 22.797 19.946 53.462 30.489 88.679 30.489s65.882-10.543 88.68-30.489c3.117-2.728 3.434-7.465.706-10.583-2.728-3.117-7.466-3.434-10.583-.706z"/><path d="m392.65 114.443 26.96-5.918c4.046-.888 6.606-4.888 5.718-8.934s-4.888-6.603-8.934-5.718l-26.96 5.918c-19.766 4.34-40.371 3.278-59.586-3.068-3.933-1.3-8.175.836-9.474 4.77-1.299 3.933.836 8.175 4.77 9.474 21.557 7.118 44.893 8.439 67.506 3.476z"/></g></svg>