<svg id="Capa_1" enable-background="new 0 0 512.021 512.021" height="512" viewBox="0 0 512.021 512.021" width="512" xmlns="http://www.w3.org/2000/svg"><g><path d="m256.01 136.1c0 57.633-24.601 112.526-67.619 150.88l-88.62 79.013-22.17 37.173c-17.478 29.305-28.827 61.853-33.362 95.671l-.761 5.672h425.063l-.761-5.672c-4.534-33.819-15.884-66.366-33.362-95.671l-22.17-37.173-88.62-79.013c-43.017-38.354-67.618-93.247-67.618-150.88z" fill="#f1f1f4"/><path d="m256.01 346.446-24.891-24.891c-2.314-2.314-.922-6.278 2.332-6.637 14.994-1.651 30.125-1.651 45.119 0 3.253.358 4.646 4.322 2.332 6.637z" fill="#efa5c3"/><path d="m321.817 137.042c26.95 12.737 52.124 28.884 74.912 48.027 3.908 3.283 9.839 2.205 12.371-2.227l1.13-1.977c5.228-9.15 7.289-19.77 5.861-30.211l-1.615-11.81c8.741-14.619 13.357-31.334 13.357-48.367v-23.557c0-11.854-7.931-22.243-19.366-25.367-8.895-2.43-18.413.003-25.051 6.403l-36.142 34.851c-17.26 16.644-25.696 34.105-29.588 43.756-1.627 4.037.195 8.619 4.131 10.479z" fill="#b48e84"/><path d="m427.833 90.479v-23.559c0-11.854-7.931-22.243-19.366-25.367-7.111-1.943-14.62-.777-20.737 3.038.068.769.103 1.546.103 2.329v23.559c0 13.886-3.068 27.56-8.938 40.06-2.781 5.923-3.845 12.506-2.959 18.989l.154 1.127c1.428 10.441-.633 21.061-5.861 30.211l-1.13 1.977c-.178.311-.373.605-.583.883 9.754 6.626 19.171 13.749 28.211 21.344 3.908 3.283 9.839 2.205 12.371-2.227l1.13-1.977c5.229-9.15 7.289-19.77 5.861-30.211l-1.615-11.81c8.743-14.619 13.359-31.333 13.359-48.366z" fill="#a77d73"/><path d="m190.204 137.042c-26.95 12.737-52.124 28.884-74.912 48.027-3.908 3.283-9.839 2.205-12.371-2.227l-1.13-1.977c-5.228-9.15-7.289-19.77-5.861-30.211l1.615-11.81c-8.741-14.619-13.357-31.334-13.357-48.367v-23.557c0-11.854 7.931-22.243 19.366-25.367 8.895-2.43 18.413.003 25.051 6.403l36.142 34.851c17.26 16.644 25.696 34.105 29.588 43.756 1.626 4.037-.196 8.619-4.131 10.479z" fill="#b48e84"/><path d="m498.86 316.183 5.651 2.776-2.811-10.553c-12.323-46.264-37.223-88.209-71.939-121.18l-15.701-14.912c-.988 2.953-2.267 5.819-3.83 8.553l-1.13 1.977c-2.532 4.432-8.463 5.51-12.372 2.227-22.787-19.144-47.962-35.291-74.912-48.028-3.935-1.86-5.757-6.442-4.129-10.479 2.793-6.925 7.925-17.872 16.979-29.653l-.042-.039c-6.807-6.464-17.051-7.689-25.19-3.011-5.151 2.961-10.989 4.519-16.93 4.519h-36.494v37.72c0 57.633 24.601 112.526 67.619 150.88l88.62 79.013.192.054c22.018 6.216 41.575 19.091 55.987 36.86l4.884 6.022-.371-8.199c-1.616-35.727-14.891-69.94-37.793-97.408l1.003-.051c21.66-1.094 43.242 3.35 62.709 12.912z" fill="#ceb4af"/><path d="m467.781 498.838c-4.534-33.819-15.884-66.366-33.362-95.671l-22.17-37.173-11.504-10.257c-2.955-.078-6.008-.799-9.022-2.29-.352-.174-.706-.347-1.063-.519-5.911-2.846-11.91 3.776-8.567 9.422l12.326 20.818c6.626 11.111 11.946 22.018 16.222 32.32 13.639 32.861-10.546 69.024-46.125 69.024h-317.934c-.917 4.747-1.699 9.524-2.343 14.328l-.761 5.672h425.063z" fill="#dfdde2"/><path d="m327.174 107.784c2.136-3.472 4.616-7.131 7.492-10.874l-.042-.039c-6.258-5.943-15.421-7.457-23.182-4.028z" fill="#c1a098"/><path d="m498.86 316.183 5.651 2.776-2.811-10.553c-12.323-46.264-37.223-88.209-71.939-121.18l-15.701-14.912c-.988 2.953-2.267 5.819-3.83 8.553l-1.13 1.977c-.555.972-1.274 1.782-2.098 2.42 19.593 22.598 32.544 45.511 41.116 64.811 8.12 18.283-6.821 38.415-26.659 35.84-.072-.009-.145-.019-.22-.028-9.796-1.25-16.65 9.374-11.549 17.83 4.615 7.651 8.312 15.212 11.277 22.484 6.168 15.133-5.861 29.916-20.22 29.536l11.504 10.257.192.054c22.018 6.216 41.575 19.091 55.987 36.86l4.884 6.022-.371-8.199c-1.616-35.727-14.891-69.94-37.793-97.408l1.003-.051c21.658-1.095 43.24 3.349 62.707 12.911z" fill="#c1a098"/><path d="m202.585 93.86c-8.138-4.678-18.383-3.453-25.19 3.011l-.042.039c9.054 11.781 14.186 22.728 16.979 29.653 1.628 4.037-.194 8.619-4.129 10.479-26.95 12.737-52.124 28.884-74.912 48.028-3.908 3.283-9.839 2.205-12.372-2.227l-1.13-1.977c-1.562-2.734-2.842-5.6-3.83-8.553l-15.699 14.912c-34.715 32.971-59.616 74.916-71.939 121.18l-2.811 10.553 5.651-2.776c19.466-9.562 41.048-14.005 62.709-12.912l1.003.051c-22.903 27.469-36.178 61.682-37.794 97.409l-.371 8.199 4.884-6.022c14.412-17.769 33.968-30.644 55.987-36.86l.192-.054 88.62-79.013c43.018-38.354 67.619-93.247 67.619-150.88v-37.721h-36.495c-5.941 0-11.779-1.559-16.93-4.519z" fill="#ceb4af"/><path d="m219.515 98.379c-1.174 0-2.344-.061-3.505-.182v17.903c0 57.633-24.601 112.526-67.619 150.88l-66.761 59.436c-9.608 8.554-20.183 15.921-31.462 22.067-6.49 16.583-10.273 34.222-11.088 52.247l-.371 8.199 4.884-6.022c14.412-17.769 33.969-30.644 55.987-36.86l.192-.054 88.62-79.013c43.018-38.354 67.619-93.247 67.619-150.88v-37.721z" fill="#c1a098"/><path d="m336.444 365.708 53.103 30.697c3.593 2.077 8.178.84 10.247-2.74 2.073-3.586.847-8.173-2.739-10.247l-47.468-27.44c2.357-2.284 4.543-4.766 6.526-7.431 2.473-3.323 1.782-8.022-1.541-10.494-3.322-2.472-8.021-1.783-10.494 1.54-2.371 3.187-5.124 6.028-8.169 8.479l-21.607-12.491c-3.587-2.073-8.174-.847-10.247 2.74-2.073 3.586-.847 8.173 2.739 10.247l13.516 7.813c-4.446 1.382-9.116 2.112-13.856 2.112h-31.88c-3.966 0-7.887-1.303-11.063-3.673v-5.267l22.695-22.695c6.754-6.754 2.704-18.346-6.814-19.395-15.516-1.708-31.246-1.708-46.762 0-9.494 1.047-13.586 12.623-6.814 19.395l22.695 22.695v5.267c-3.178 2.37-7.098 3.673-11.063 3.673h-31.88c-4.74 0-9.41-.729-13.856-2.112l13.516-7.814c3.586-2.073 4.813-6.661 2.739-10.247s-6.658-4.813-10.247-2.74l-21.608 12.491c-3.045-2.45-5.798-5.291-8.168-8.478-2.474-3.324-7.171-4.012-10.494-1.541-3.323 2.473-4.014 7.171-1.541 10.494 1.983 2.666 4.169 5.148 6.526 7.432l-47.468 27.44c-3.586 2.073-4.813 6.661-2.739 10.247 2.069 3.58 6.652 4.816 10.247 2.74l53.103-30.697c9.081 5.027 19.401 7.785 29.99 7.785h31.88c6.58 0 13.092-1.982 18.563-5.616 5.471 3.634 11.984 5.616 18.564 5.616h31.88c10.588 0 20.908-2.758 29.989-7.785zm-66.28-44.023-14.154 14.155-14.154-14.155c9.418-.672 18.891-.672 28.308 0z"/><path d="m282.67 385.534c-4.914 4.617-11.335 7.16-18.079 7.16h-17.162c-6.745 0-13.166-2.543-18.081-7.162-3.017-2.836-7.763-2.69-10.602.33-2.836 3.019-2.688 7.765.33 10.601 7.707 7.243 17.776 11.231 28.353 11.231h17.162c10.575 0 20.644-3.988 28.351-11.229 3.019-2.836 3.166-7.583.33-10.601-2.835-3.018-7.582-3.165-10.602-.33z"/><path d="m508.947 306.475c-12.687-47.629-38.283-90.746-74.021-124.687l-12.424-11.799c1.582-6.635 1.948-13.556 1.02-20.348l-1.266-9.259c2.325-4.133 4.371-8.449 6.096-12.86 1.508-3.858-.397-8.208-4.255-9.716-3.859-1.507-8.208.397-9.716 4.255-1.74 4.45-3.863 8.785-6.309 12.884-.879 1.44-1.265 3.157-1.026 4.918 1.652 12.087 2.34 15.089 1.816 20.874-.523 5.782-2.284 11.407-5.143 16.409l-1.13 1.978c-.222.386-.719.471-1.036.206-6.22-5.226-12.616-10.233-19.174-15.014 2.866-1.347 5.983-2.1 9.185-2.202 4.141-.132 7.39-3.596 7.257-7.736s-3.596-7.384-7.735-7.256c-7.422.237-14.568 2.602-20.665 6.837l-1.48 1.028c-1.39-.918-2.785-1.827-4.188-2.725l4.31-4.31c5.648-5.647 13.151-8.949 21.129-9.296 4.139-.18 7.347-3.681 7.167-7.819-.181-4.139-3.698-7.346-7.819-7.167-11.736.511-22.774 5.367-31.083 13.675l-6.877 6.877c-1.62-.941-3.248-1.869-4.883-2.784 2.325-6.242 9.058-21.561 23.185-35.183l36.141-34.855c2.981-2.875 3.068-7.623.192-10.605-2.874-2.98-7.621-3.068-10.604-.193l-36.143 34.852c-14.968 14.433-22.757 30.466-26.11 38.884-2.761-1.394-5.54-2.754-8.338-4.076-.354-.167-.517-.551-.379-.893 6.184-15.329 15.81-29.563 27.839-41.163l36.142-34.851c4.708-4.541 11.553-6.293 17.868-4.567 8.15 2.227 13.843 9.683 13.843 18.132v23.559c0 4.142 3.357 7.5 7.5 7.5s7.5-3.358 7.5-7.5v-23.559c0-7.371-2.41-14.322-6.565-19.982l7.707-7.708c2.929-2.929 2.929-7.678-.001-10.606-2.928-2.93-7.677-2.929-10.606 0l-8.461 8.462c-2.891-1.542-6-2.657-9.215-3.298l20.904-20.904c2.929-2.929 2.929-7.678 0-10.606-2.93-2.929-7.678-2.929-10.607 0-48.407 48.407-30.983 31.317-76.42 75.131-3.088 2.978-6.035 6.111-8.828 9.378-8.524-4.387-18.981-4.35-27.544.571-4.008 2.304-8.57 3.521-13.192 3.521-122.751 0 6.828 0-72.99 0-4.622 0-9.185-1.218-13.192-3.521-8.562-4.922-19.02-4.958-27.543-.571-5.622-6.575-5.755-6.414-44.915-44.175l-40.402-40.403c-2.929-2.929-7.677-2.929-10.607 0-2.929 2.929-2.929 7.678 0 10.606l20.972 20.973c-3.213.641-6.323 1.756-9.215 3.298l-8.461-8.462c-2.929-2.929-7.678-2.929-10.606 0-2.93 2.929-2.93 7.677-.001 10.606l7.707 7.708c-4.155 5.66-6.565 12.611-6.565 19.982v23.559c0 17.491 4.514 34.684 13.078 49.902l-1.266 9.258c-.929 6.793-.562 13.713 1.02 20.349-11.924 11.325-14.938 14.103-19.57 18.848-2.894 2.964-2.837 7.712.127 10.606 2.964 2.893 7.713 2.836 10.605-.127 4.346-4.451 7.134-7.021 14.826-14.327l.901 1.576c4.857 8.502 16.228 10.534 23.708 4.249 8.905-7.482 18.354-14.605 27.133-20.563 9.465-6.453 15.387-9.856 16.113-10.332 18.963-11.419 30.517-16.095 30.045-16.095 7.523-3.555 10.985-12.369 7.881-20.065-3.467-8.595-7.893-16.883-13.133-24.649 3.514-1.02 7.397-.64 10.693 1.253 6.278 3.609 13.425 5.517 20.667 5.517h2.288l-12.635 46.143c-4.289 15.662-5.718 31.803-4.247 47.977.354 3.895 3.624 6.822 7.46 6.822 4.434 0 7.875-3.802 7.478-8.179-1.307-14.381-.036-28.733 3.776-42.658l13.719-50.104h11.156v30.22c0 36.476-10.274 71.877-29.09 102.335l-63.195-16.933c-4.002-1.069-8.114 1.302-9.186 5.304-1.072 4.001 1.302 8.113 5.303 9.186l58.195 15.593c-7.928 10.763-17.004 20.762-27.138 29.797l-22.445 20.012-51.822-10.192c-4.063-.801-8.008 1.848-8.807 5.912s1.848 8.007 5.912 8.806l40.67 7.999-50.854 45.341c-18.236 5.401-34.66 14.959-48.229 27.984 3.945-28.949 16.055-56.627 34.809-79.119 3.95-4.739.788-11.981-5.382-12.293-21.036-1.064-40.308 2.324-58.316 9.569 8.311-28.858 21.575-55.721 39.473-79.918 2.463-3.33 1.76-8.027-1.57-10.49s-8.025-1.761-10.49 1.57c-20.04 27.095-34.6 57.345-43.273 89.912l-2.811 10.554c-1.65 6.196 4.775 11.501 10.554 8.662l5.65-2.775c14.157-6.954 29.593-11.043 45.284-12.056-18.113 26.298-28.719 57.56-30.165 89.533l-.37 8.199c-.146 3.235 1.801 6.198 4.827 7.349 3.034 1.152 6.454.224 8.49-2.287l4.884-6.021c9.054-11.163 20.147-20.182 32.694-26.672l-10.952 18.363c-18.099 30.346-29.657 63.492-34.354 98.518l-.76 5.672c-.601 4.489 2.891 8.496 7.434 8.496h425.063c4.529 0 8.037-3.993 7.434-8.496l-.76-5.674c-2.766-20.617-8.015-40.89-15.604-60.253-1.512-3.856-5.863-5.756-9.719-4.246-3.856 1.512-5.758 5.863-4.246 9.72 6.804 17.361 11.612 35.496 14.307 53.949h-181.364c13.074-11.262 24.159-24.749 32.669-39.786 6.348 4.721 10.269 12.235 10.323 20.334.04 5.976 6.747 9.517 11.704 6.16l10.073-6.818c14.952-10.12 27.224-23.954 35.489-40.005 1.896-3.683.448-8.205-3.234-10.102-3.682-1.895-8.204-.449-10.102 3.234-7.077 13.744-17.435 25.561-31.055 34.784-3.555-10.519-11.354-19.36-21.788-24.053l-1.379-.62c-3.671-1.648-7.992-.109-9.788 3.495-10.155 20.373-25.434 37.963-44.184 50.869l-1.312.902-1.311-.902c-18.75-12.906-34.029-30.496-44.185-50.869-1.795-3.603-6.116-5.146-9.788-3.495l-1.379.62c-10.435 4.692-18.233 13.534-21.788 24.053-13.616-9.221-23.976-21.036-31.055-34.784-1.896-3.682-6.419-5.128-10.102-3.234-3.683 1.896-5.131 6.419-3.234 10.102 8.266 16.052 20.537 29.885 35.489 40.005l10.073 6.818c4.951 3.351 11.664-.175 11.704-6.16.055-8.1 3.976-15.613 10.323-20.334 8.51 15.037 19.595 28.524 32.669 39.786h-181.355c4.657-31.96 15.408-62.225 31.975-90.002l21.58-36.184 59.751-53.274c37.866 7.448 35.064 6.958 36.107 6.958 3.512 0 6.648-2.479 7.352-6.054.799-4.064-1.848-8.007-5.912-8.806l-23.5-4.622 13.961-12.448c11.465-10.222 21.672-21.589 30.51-33.852 1.001 1.735 1.566 3.737 1.566 5.841v6.856c0 4.142 3.357 7.5 7.5 7.5s7.5-3.358 7.5-7.5v-6.856c0-7.277-2.96-14.023-7.866-18.917 10.297-16.81 18.187-35.005 23.418-54.028 5.231 19.022 13.121 37.217 23.418 54.028-4.906 4.894-7.866 11.641-7.866 18.917v6.856c0 4.142 3.357 7.5 7.5 7.5s7.5-3.358 7.5-7.5v-6.856c0-2.103.565-4.105 1.566-5.841 8.838 12.263 19.045 23.63 30.51 33.852l13.961 12.448-23.5 4.622c-4.064.799-6.711 4.742-5.912 8.806.704 3.576 3.84 6.054 7.352 6.054 1.025 0-1.905.518 36.107-6.958l59.751 53.274c23.638 39.635 22.488 37.666 24.24 40.756 1.381 2.434 3.918 3.8 6.53 3.8 5.666 0 9.376-6.162 6.517-11.203-2.023-3.563-2.834-4.87-13.777-23.218 12.546 6.489 23.64 15.508 32.695 26.672l4.884 6.022c2.036 2.511 5.456 3.439 8.49 2.287 3.026-1.151 4.974-4.114 4.827-7.349l-.37-8.2c-1.446-31.973-12.051-63.234-30.165-89.532 15.69 1.013 31.128 5.102 45.284 12.055l5.65 2.776c5.755 2.827 12.211-2.44 10.554-8.662zm-321.948-176.214c-.101 0-6.023 2.906-8.338 4.076-3.353-8.417-11.142-24.45-26.11-38.883l-36.141-34.852c-2.98-2.874-7.729-2.789-10.604.193-2.876 2.982-2.789 7.729.192 10.605l36.143 34.852c14.022 13.521 20.821 28.927 23.175 35.188-1.632.914-3.256 1.84-4.873 2.779l-6.878-6.878c-8.308-8.307-19.346-13.164-31.082-13.674-4.144-.188-7.639 3.028-7.819 7.167-.18 4.138 3.028 7.639 7.167 7.819 7.978.348 15.48 3.649 21.128 9.296l4.311 4.311c-1.402.898-2.798 1.807-4.188 2.725l-1.478-1.027c-6.098-4.237-13.244-6.601-20.666-6.838-4.104-.147-7.604 3.116-7.735 7.256-.133 4.14 3.116 7.604 7.257 7.736 3.202.102 6.318.855 9.184 2.202-6.558 4.781-12.954 9.788-19.174 15.014-.316.265-.815.181-1.036-.206l-1.13-1.977c-4.384-7.672-6.139-16.719-4.941-25.475l1.614-11.81c.23-1.688-.119-3.403-.994-4.865-8.043-13.451-12.294-28.845-12.294-44.518v-23.557c0-10.3 8.387-18.785 18.722-18.785 4.779 0 9.479 1.835 12.989 5.22l36.142 34.851c12.029 11.6 21.655 25.833 27.838 41.162.136.342-.027.726-.381.893zm247.77 165.571c-6.163.312-9.336 7.549-5.382 12.293 18.754 22.492 30.863 50.171 34.809 79.119-13.569-13.026-29.995-22.584-48.229-27.984l-50.854-45.341 40.67-7.999c4.064-.799 6.711-4.742 5.912-8.806-.8-4.064-4.739-6.712-8.807-5.912l-51.822 10.192-22.445-20.012c-10.135-9.035-19.21-19.034-27.138-29.797l58.195-15.593c4.001-1.072 6.375-5.185 5.303-9.186-1.071-4.001-5.184-6.373-9.186-5.304l-63.195 16.933c-18.815-30.458-29.09-65.859-29.09-102.335v-30.222h11.156l13.719 50.104c3.813 13.925 5.083 28.277 3.776 42.658-.375 4.125 2.665 7.773 6.79 8.148 4.111.375 7.772-2.652 8.147-6.791 1.471-16.173.042-32.315-4.247-47.977l-12.635-46.143h2.288c7.242 0 14.389-1.908 20.667-5.517 3.295-1.894 7.178-2.273 10.693-1.253-5.24 7.766-9.667 16.054-13.134 24.649-3.104 7.696.358 16.51 7.881 20.065 26.437 12.494 51.082 28.33 73.292 46.99 7.5 6.299 18.861 4.234 23.708-4.249l.901-1.577 8.082 7.676c32.489 30.855 56.097 69.747 68.489 112.737-19.061-7.667-38.439-10.573-58.314-9.566z"/></g></svg>