<svg id="Capa_1" enable-background="new 0 0 512.001 512.001" height="512" viewBox="0 0 512.001 512.001" width="512" xmlns="http://www.w3.org/2000/svg"><g><path d="m329.939 351.875h-42.293l-31.646 31.645v16.351c0 9.389 7.612 17.001 17.001 17.001h33.747c17.183 0 32.363-11.189 37.448-27.602l3.937-12.709c3.799-12.256-5.363-24.686-18.194-24.686z" fill="#f1f1f4"/><path d="m329.938 351.875h-20.964c-.081 1.547-.354 3.118-.84 4.686l-3.937 12.709c-5.085 16.413-20.266 27.602-37.448 27.602h-10.749v2.999c0 9.389 7.612 17.001 17.001 17.001h33.747c17.183 0 32.363-11.189 37.448-27.602l3.937-12.709c3.799-12.256-5.363-24.686-18.195-24.686z" fill="#dfdde2"/><path d="m163.867 376.562 3.937 12.709c5.085 16.413 20.266 27.602 37.448 27.602h33.748c9.389 0 17.001-7.612 17.001-17.001v-16.352l-31.645-31.645h-42.293c-12.832 0-21.994 12.43-18.196 24.687z" fill="#f1f1f4"/><path d="m224.355 351.875h-20l6.922 6.923c3.024 3.024 4.723 7.125 4.723 11.402v9.672c0 9.389-7.612 17.001-17.001 17.001h-27.929c6.834 12.169 19.807 20 34.182 20h33.748c9.389 0 17.001-7.612 17.001-17.001v-16.352z" fill="#dfdde2"/><path d="m306.749 416.872h-33.747c-9.389 0-17.001-7.612-17.001-17.001 0 9.389-7.612 17.001-17.001 17.001h-33.747c-5.695 0-11.17-1.23-16.131-3.471 8.428 4.815 17.218 9.019 26.306 12.569l40.572 15.85 40.573-15.849c9.088-3.55 17.878-7.754 26.306-12.569-4.96 2.241-10.435 3.47-16.13 3.47z" fill="#f1f1f4"/><path d="m417.435 33.533c-6.92-6.727-18.158-5.916-24.041 1.734l-83.725 108.875c-4.039 5.253-10.29 8.331-16.916 8.331h-36.753-36.753c-6.626 0-12.877-3.078-16.916-8.331l-83.724-108.875c-5.883-7.65-17.121-8.461-24.04-1.734-16.624 16.16-24.891 39.069-22.417 62.121l17.838 166.213c4.713 43.918 23.906 85.019 54.554 116.827 11.021 11.438 23.339 21.481 36.673 29.943-6.199-4.812-10.968-11.487-13.409-19.366l-3.937-12.709c-3.797-12.257 5.364-24.686 18.196-24.686h42.293l31.642 31.644 31.645-31.645h42.293c12.832 0 21.993 12.429 18.196 24.686l-3.937 12.709c-2.441 7.879-7.209 14.555-13.408 19.366 13.334-8.462 25.651-18.505 36.672-29.942 30.648-31.808 49.84-72.909 54.553-116.827l17.838-166.213c2.474-23.052-5.793-45.961-22.417-62.121z" fill="#c6c1c8"/><path d="m417.435 33.533c-6.92-6.727-18.158-5.916-24.041 1.734l-.247.321c5.786 12.34 8.195 26.177 6.705 40.067l-17.838 166.213c-4.398 40.983-21.406 79.513-48.564 110.327 10.927 2.015 18.125 13.262 14.684 24.368l-3.937 12.709c-2.441 7.879-7.209 14.555-13.408 19.366 13.334-8.462 25.651-18.505 36.672-29.942 30.648-31.808 49.84-72.909 54.553-116.827l17.838-166.213c2.474-23.054-5.793-45.963-22.417-62.123z" fill="#afaab4"/><path d="m406.532 59.192s-59.702 77.637-74.112 96.375c-1.543 2.006-.854 4.942 1.44 6.011 10.209 4.755 19.611 11.29 27.727 19.406l33.59 33.59c.065.065.13.131.195.196 2.374 2.388 6.446.992 6.806-2.356l12.816-119.427c1.3-12.111-1.743-23.991-8.462-33.795z" fill="#f1f1f4"/><path d="m399.852 75.654-13.917 129.678 9.242 9.242c.065.065.13.13.195.196 2.375 2.388 6.447.992 6.806-2.356l12.816-119.427c1.3-12.111-1.743-23.991-8.462-33.794 0 0-2.358 3.067-6.25 8.128.01 2.768-.131 5.549-.43 8.333z" fill="#dfdde2"/><path d="m105.469 59.192s59.702 77.637 74.112 96.375c1.543 2.006.854 4.942-1.44 6.011-10.209 4.755-19.611 11.29-27.727 19.406l-33.59 33.59c-.065.065-.13.131-.195.196-2.374 2.388-6.446.992-6.806-2.356l-12.816-119.427c-1.3-12.111 1.743-23.991 8.462-33.795z" fill="#f1f1f4"/><path d="m212.879 152.473c-7.394 0-12.991 6.665-11.741 13.953 2.158 12.575 7.216 24.544 14.851 34.924l5.262 7.155 5.263-7.155c2.338-3.179 4.434-6.507 6.28-9.956 3.769 10.573 9.076 20.609 15.811 29.764l7.396 10.054 7.395-10.054c6.735-9.156 12.042-19.191 15.811-29.764 1.845 3.449 3.941 6.777 6.28 9.956l5.262 7.155 5.263-7.155c7.635-10.38 12.693-22.349 14.851-34.924 1.251-7.287-4.347-13.953-11.741-13.953z" fill="#8b818e"/><path d="m256 383.52-31.645-31.645 2.389-.782c19.009-6.22 39.505-6.22 58.513 0l2.389.782z" fill="#efa5c3"/><path d="m352.634 428.421c-7.141-6.615-12.744-14.543-16.599-23.231-1.73 1.176-3.479 2.326-5.246 3.447.001-.001.002-.002.004-.003-2.435 1.89-5.091 3.493-7.913 4.768-8.428 4.815-17.218 9.019-26.306 12.569l-40.574 15.849-40.573-15.849c-9.088-3.55-17.878-7.754-26.306-12.569.001 0 .001.001.002.001-2.822-1.275-5.477-2.877-7.911-4.766-1.767-1.121-3.516-2.27-5.246-3.447-3.855 8.689-9.459 16.616-16.599 23.231-21.274 19.709-36.615 45.978-42.702 76.08h278.67c-6.086-30.102-21.428-56.371-42.701-76.08z" fill="#c6c1c8"/><g fill="#afaab4"><path d=""/><path d="m179.596 407.599c-1.219-.79-2.428-1.593-3.629-2.409-.125.282-.252.563-.381.843z"/><path d="m352.634 428.421c-7.141-6.615-12.744-14.543-16.599-23.231-1.73 1.176-3.479 2.326-5.246 3.447.001-.001.002-.002.004-.003-2.435 1.89-5.091 3.493-7.913 4.768-1.108.633-2.222 1.255-3.343 1.867 8.02 8.517 15.018 18.05 20.774 28.42 10.165 18.312-3.139 40.812-24.083 40.812h-193.98c-2.317 6.445-4.191 13.122-5.582 20h278.67c-6.087-30.102-21.429-56.371-42.702-76.08z"/></g><path d="m402.751 136.779c-.442 4.118 2.538 7.815 6.656 8.257 4.129.448 7.816-2.538 8.258-6.657l4.786-44.592c1.475-13.735-1.982-27.526-9.732-38.834-2.873-4.192-9.021-4.378-12.132-.332l-74.111 96.374c-4.471 5.812-2.429 14.285 4.217 17.382 9.54 4.443 18.15 10.47 25.591 17.911l33.61 33.61c7.197 7.241 18.731 2.734 19.741-6.684l4.356-40.599c.442-4.119-2.538-7.815-6.657-8.257-4.103-.438-7.814 2.539-8.257 6.657l-3.571 33.282-28.615-28.616c-7.642-7.641-16.339-14.003-25.901-18.954l64.296-83.61c2.159 6.042 2.95 12.562 2.252 19.07z"/><path d="m111.414 54.621c-3.124-4.062-9.268-3.848-12.132.332-7.75 11.308-11.207 25.1-9.732 38.834l12.816 119.427c1.031 9.613 12.764 13.701 19.566 6.859l33.785-33.786c7.44-7.441 16.051-13.467 25.592-17.911 6.633-3.091 8.695-11.559 4.217-17.381zm-.105 154.862c.026-.026.053-.052.08-.077 6.897 6.856 7.313 7.212-.08.077zm33.801-33.802-28.615 28.616-12.031-112.11c-.698-6.508.093-13.028 2.252-19.07l64.296 83.61c-9.564 4.951-18.261 11.313-25.902 18.954z"/><path d="m275.42 295.337v6.127c0 4.142 3.357 7.5 7.5 7.5s7.5-3.358 7.5-7.5v-6.127c0-4.367 2.946-8.206 7.164-9.336l57.581-15.429c4.001-1.072 6.375-5.185 5.303-9.186-1.071-4.001-5.185-6.373-9.186-5.304l-57.581 15.429c-10.763 2.885-18.281 12.682-18.281 23.826z"/><path d="m229.081 308.964c4.143 0 7.5-3.358 7.5-7.5v-6.127c0-11.144-7.518-20.941-18.281-23.825l-57.581-15.429c-4.002-1.069-8.114 1.302-9.186 5.304-1.072 4.001 1.302 8.113 5.303 9.186l57.581 15.429c4.218 1.13 7.164 4.969 7.164 9.336v6.127c0 4.141 3.357 7.499 7.5 7.499z"/><path d="m431.098 37.694 6.519-8.477c2.525-3.284 1.91-7.993-1.373-10.518-3.286-2.526-7.993-1.91-10.518 1.373l-4.949 6.436c-2.399-1.882-5.129-3.271-8.027-4.11l7.941-10.326c2.525-3.283 1.91-7.992-1.373-10.517-3.287-2.525-7.994-1.91-10.518 1.374-3.512 4.568-47.912 62.304-105.076 136.641-2.602 3.383-6.702 5.403-10.971 5.403h-73.506c-4.269 0-8.369-2.02-10.971-5.403l-52.323-68.04c-2.525-3.283-7.231-3.899-10.518-1.374-3.283 2.525-3.898 7.234-1.373 10.517 57.244 74.439 52.835 68.848 54.526 70.577-4.088 4.454-5.862 10.501-4.842 16.444 2.354 13.716 7.956 26.891 16.202 38.1l1.993 2.71c-7.123 9.757-8.544 22.676-3.703 33.748 1.66 3.794 6.08 5.526 9.877 3.867 3.795-1.659 5.526-6.081 3.867-9.876-2.719-6.218-1.91-13.478 2.112-18.946 3.84-5.22.352-.478 7.331-9.966 5.632 11.352 10.578 17.511 18.532 28.325 2.992 4.066 9.083 4.078 12.084 0 7.9-10.74 12.898-16.97 18.533-28.326 2.936 3.993 2.63 3.577 7.331 9.967 4.021 5.467 4.831 12.727 2.111 18.945-1.659 3.795.072 8.217 3.867 9.876 3.8 1.661 8.218-.075 9.877-3.867 4.842-11.073 3.42-23.993-3.703-33.748l1.994-2.71c8.245-11.209 13.848-24.384 16.201-38.1 1.016-5.915-.733-11.965-4.842-16.444 1.731-1.771-3.638 5.058 85.927-111.412 3.137-4.08 9.14-4.55 12.867-.928 15.035 14.614 22.436 34.993 20.188 55.943l-17.838 166.213c-1.533 14.291-4.7 28.337-9.365 41.849-5.118-13.444-15.324-24.557-28.594-30.718-3.755-1.745-8.216-.113-9.961 3.644-1.744 3.757-.112 8.217 3.645 9.961 11.967 5.557 20.523 16.624 22.888 29.605l2.039 11.193c-2.774 5.523-5.813 10.913-9.106 16.147l-1.486-3.954c-4.112-10.945-12.217-19.684-22.821-24.608-3.758-1.745-8.218-.113-9.961 3.644-1.744 3.757-.112 8.217 3.645 9.961 7.015 3.257 12.376 9.038 15.097 16.279l5.115 13.609c-6.354 8.246-13.336 15.916-20.996 23.051l.604-1.95c5.297-17.097-7.457-34.406-25.359-34.406h-41.097l-1.252-.41c-20.666-6.763-42.513-6.762-63.179 0l-1.252.41h-41.097c-17.898 0-30.657 17.306-25.359 34.406l.604 1.95c-7.654-7.129-14.633-14.792-20.996-23.051l5.115-13.61c2.721-7.241 8.082-13.022 15.097-16.279 3.757-1.745 5.389-6.204 3.645-9.961-1.745-3.757-6.205-5.386-9.961-3.644-10.604 4.924-18.709 13.663-22.821 24.608l-1.486 3.954c-3.293-5.235-6.332-10.625-9.106-16.148l2.039-11.193c2.364-12.981 10.921-24.048 22.888-29.605 3.757-1.744 5.389-6.204 3.645-9.961-1.745-3.757-6.207-5.387-9.961-3.644-13.271 6.161-23.476 17.274-28.594 30.718-4.664-13.512-7.831-27.558-9.365-41.849l-17.839-166.209c-2.241-20.892 5.11-41.286 20.188-55.943 3.706-3.602 9.71-3.178 12.867.928l9.224 11.995c2.522 3.282 7.232 3.9 10.517 1.374 3.284-2.525 3.899-7.233 1.374-10.517-10.635-13.831-15.67-20.379-30.575-39.761-2.525-3.283-7.23-3.9-10.518-1.374-3.283 2.525-3.898 7.234-1.373 10.517l7.939 10.324c-2.897.839-5.627 2.229-8.026 4.111l-4.949-6.436c-2.525-3.282-7.23-3.899-10.518-1.373-3.283 2.525-3.898 7.234-1.373 10.518l6.519 8.477c-12.644 16.698-18.491 37.513-16.211 58.76l17.839 166.213c6.156 57.365 36.324 110.37 83.841 144.941-3.209 5.697-7.263 10.829-12.102 15.311-8.076 7.483-15.332 15.866-21.564 24.917-3.462 5.027.236 11.754 6.17 11.754 2.385 0 4.729-1.134 6.184-3.247 5.608-8.143 12.138-15.687 19.405-22.42 5.643-5.228 10.424-11.171 14.279-17.739 2.319 1.596 4.786 2.981 7.372 4.135 8.527 4.826 17.467 9.076 26.584 12.637l40.573 15.849c1.754.686 3.703.686 5.457 0l40.573-15.849c9.117-3.561 18.057-7.811 26.584-12.637 2.586-1.154 5.052-2.54 7.372-4.135 3.855 6.568 8.636 12.511 14.279 17.739 18.563 17.197 31.69 38.857 38.313 63.078h-92.376c5.272-4.632 10.159-10.287 14.55-16.896 2.292-3.451 1.353-8.105-2.098-10.397-3.45-2.291-8.105-1.353-10.396 2.098-22.301 33.573-56.725 33.623-79.059 0-2.291-3.451-6.946-4.389-10.396-2.098-3.45 2.292-4.39 6.947-2.098 10.397 4.39 6.61 9.278 12.265 14.549 16.897h-92.37c.923-3.369 1.976-6.699 3.149-9.963 1.401-3.898-.622-8.194-4.521-9.595-3.895-1.4-8.193.622-9.595 4.52-2.455 6.828-4.432 13.911-5.876 21.052-.935 4.628 2.598 8.986 7.352 8.986h278.67c4.73 0 8.291-4.336 7.352-8.986-6.259-30.95-21.805-58.647-44.957-80.096-4.837-4.481-8.891-9.614-12.1-15.311 47.622-34.646 77.701-87.724 83.841-144.941l17.838-166.213c2.28-21.248-3.567-42.063-16.211-58.761zm-127.627 127.463c-1.887 10.992-6.277 21.567-12.723 30.669-1.803-2.545-3.458-5.221-4.93-7.971-3.062-5.725-11.495-5.101-13.677 1.021-3.549 9.957-8.524 19.323-14.788 27.838l-1.354 1.84-1.354-1.84c-6.264-8.516-11.239-17.882-14.788-27.838-2.167-6.082-10.589-6.79-13.677-1.021-1.472 2.75-3.127 5.426-4.93 7.972-6.445-9.102-10.836-19.677-12.723-30.67-.465-2.709 1.605-5.184 4.349-5.184.75 0 1.474-.111 2.157-.315 1.388.208 2.796.315 4.212.315 79.411 0 74.712.135 77.718-.315.683.205 1.407.315 2.157.315 2.762 0 4.814 2.49 4.351 5.184zm37.499 209.185-3.938 12.708c-1.917 6.187-5.559 11.433-10.307 15.282-.379.244-.729.517-1.049.814-5.374 3.993-11.961 6.226-18.929 6.226h-33.747c-5.239 0-9.501-4.262-9.501-9.501v-13.245l27.252-27.252h39.187c7.785.001 13.338 7.53 11.032 14.968zm-67.711-18.687-17.259 17.259-17.258-17.258c11.42-2.342 23.099-2.342 34.517-.001zm-91.197 3.72h39.187l27.252 27.252v13.245c0 5.239-4.262 9.501-9.501 9.501h-33.747c-6.992 0-13.579-2.252-18.927-6.224-.32-.298-.671-.571-1.052-.816-4.747-3.849-8.389-9.095-10.306-15.281l-3.938-12.708c-2.304-7.438 3.244-14.969 11.032-14.969zm73.938 74.393-24.052-9.395h7.052c6.596 0 12.592-2.62 17.001-6.875 4.409 4.254 10.405 6.875 17.001 6.875h7.051z"/><path d="m286.004 386.51c-4.142 0-7.5 3.358-7.5 7.5s3.358 7.5 7.5 7.5 7.5-3.358 7.5-7.5-3.358-7.5-7.5-7.5z"/><circle cx="310" cy="394.01" r="7.5"/><circle cx="298.026" cy="374.331" r="7.5"/><circle cx="225.997" cy="394.01" r="7.5"/><circle cx="202" cy="394.01" r="7.5"/><circle cx="213.975" cy="374.331" r="7.5"/></g></svg>