<svg id="Capa_1" enable-background="new 0 0 512.007 512.007" height="512" viewBox="0 0 512.007 512.007" width="512" xmlns="http://www.w3.org/2000/svg"><g><path d="m48.421 504.507 2.868-12.542c7.795-34.083 21.721-66.465 41.1-95.567 8.519-12.794 11.334-28.555 7.769-43.506l-21.76-91.264c-3.71-15.559-4.27-31.703-1.648-47.482l2.08-12.513-8.627-15.639c-9.094-16.487-13.419-35.18-12.489-53.985l.517-10.458-22.399-92.387c-3.072-12.67 8.28-24.136 20.98-21.191 30.441 7.058 58.205 22.733 79.974 45.15l37.922 39.051 2.983-.849c25.472-7.253 51.827-10.932 78.312-10.932 26.484 0 52.84 3.679 78.312 10.932l2.983.849 37.922-39.051c21.769-22.417 49.534-38.092 79.974-45.15 12.7-2.945 24.051 8.521 20.98 21.191l-22.399 92.385.517 10.458c.93 18.806-3.395 37.499-12.489 53.985l-8.627 15.639 2.08 12.513c2.622 15.779 2.062 31.923-1.648 47.482l-21.76 91.264c-3.565 14.952-.751 30.712 7.769 43.506 19.378 29.102 33.305 61.484 41.1 95.567l2.868 12.542h-415.164z" fill="#c6c1c8"/><path d="m366.335 361.899c-29.349 23.42-63.855 39.513-100.66 46.944l-9.672 1.953-9.672-1.953c-36.805-7.431-71.311-23.524-100.66-46.944l8.488-7.672c20.412-18.448 45.994-30.188 73.291-33.634h57.106.003c27.296 3.447 52.878 15.187 73.289 33.635z" fill="#dfdde2"/><path d="m455.194 7.973c-6.886 1.597-13.635 3.634-20.208 6.091l-21.211 87.485.517 10.458c.93 18.806-3.395 37.499-12.489 53.985l-8.627 15.639 2.08 12.513c2.622 15.779 2.062 31.923-1.648 47.482l-21.76 91.264c-3.565 14.952-.751 30.712 7.769 43.506 6.074 9.121 11.291 18.081 15.778 26.703 19.299 37.081-7.787 81.406-49.59 81.406h-292.704c-.636 2.476-1.24 4.963-1.811 7.458l-2.869 12.542h415.163l-2.869-12.542c-7.795-34.083-21.721-66.465-41.1-95.567-8.519-12.794-11.334-28.555-7.769-43.506l21.76-91.264c3.71-15.559 4.27-31.703 1.648-47.482l-2.08-12.513 8.627-15.639c9.094-16.487 13.419-35.18 12.489-53.985l-.517-10.458 22.399-92.385c3.073-12.67-8.278-24.136-20.978-21.191z" fill="#afaab4"/><path d="m256.003 348.402-28.553-27.809c-1.799-1.752-1.263-4.766 1.029-5.791l3.046-1.361c15.576-6.962 33.379-6.962 48.955 0l3.046 1.361c2.292 1.025 2.828 4.039 1.029 5.791z" fill="#efa5c3"/><path d="m417.409 173.739c.492.782 1.638.756 2.084-.053 6.814-12.353 10.048-26.33 9.351-40.421l-.699-14.138 20.057-82.726c-20.677 6.943-39.395 18.707-54.705 34.472l-32.167 33.124c-1.528 1.574-1.391 4.124.314 5.505 20.437 16.569 39.322 38.088 55.765 64.237z" fill="#dfdde2"/><path d="m417.409 173.739c.492.782 1.638.756 2.084-.053 6.814-12.353 10.048-26.33 9.351-40.421l-.699-14.138 20.057-82.726c-7.193 2.415-14.148 5.415-20.806 8.962l-13.622 56.186.517 10.458c.766 15.493-2.035 30.91-8.131 45.079 3.863 5.323 7.616 10.874 11.249 16.653z" fill="#c6c1c8"/><path d="m94.597 173.739c-.492.782-1.638.756-2.084-.053-6.814-12.353-10.048-26.33-9.351-40.421l.699-14.138-20.058-82.726c20.677 6.943 39.395 18.707 54.705 34.472l32.167 33.124c1.528 1.574 1.391 4.124-.313 5.505-20.437 16.569-39.323 38.088-55.765 64.237z" fill="#dfdde2"/><path d="m40.424 79.934c.976 4.025 5.031 6.495 9.056 5.522 4.025-.976 6.498-5.031 5.521-9.056l-11.88-49.003c-1.761-7.26 4.712-13.804 11.996-12.118 29.099 6.748 55.479 21.641 76.289 43.069l37.922 39.05c1.923 1.979 4.779 2.744 7.434 1.988 13.491-3.84 25.849-6.82 42.111-9.008v26.533c0 2.554-.913 5.03-2.57 6.972l-5.509 6.457c-11.89 13.936-16.709 32.243-13.222 50.228l.479 2.466c.696 3.584 3.835 6.073 7.354 6.073 4.725 0 8.269-4.304 7.371-8.93l-.479-2.464c-2.612-13.476.999-27.194 9.908-37.636l5.508-6.457c3.972-4.655 6.16-10.589 6.16-16.708v-28.139c14.737-1.175 29.522-1.175 44.261 0v28.138c0 6.119 2.188 12.053 6.159 16.708l5.509 6.457c8.909 10.442 12.521 24.16 9.908 37.636l-.478 2.466c-.897 4.627 2.649 8.929 7.371 8.929 3.52 0 6.66-2.49 7.354-6.074l.478-2.465c3.487-17.984-1.332-36.291-13.222-50.227l-5.509-6.456c-1.657-1.943-2.57-4.419-2.57-6.973v-26.533c16.098 2.166 28.427 5.113 42.111 9.008 2.654.756 5.511-.007 7.434-1.988l37.922-39.05c20.81-21.429 47.189-36.322 76.288-43.069 7.278-1.685 13.759 4.85 11.997 12.118l-22.398 92.385c-.349 1.437-.248 1.214.315 12.595.861 17.428-3.138 34.715-11.565 49.992l-8.627 15.639c-.815 1.478-1.108 3.187-.832 4.852l2.08 12.514c2.272 13.671 2.016 27.431-.756 40.957l-4.504-2.798c-10.715-6.657-19.054-16.857-23.435-28.75l-6.143-16.677c-1.432-3.886-5.743-5.877-9.63-4.445s-5.877 5.743-4.445 9.63l6.143 16.677c2.299 6.243 5.466 12.122 9.357 17.468-7.995.582-15.885 2.435-23.408 5.533-3.83 1.578-5.656 5.961-4.078 9.791 1.573 3.818 5.951 5.661 9.791 4.078 10.543-4.343 21.985-5.638 33.202-3.773 3.24 2.393 5.319 3.577 13.534 8.681l-9.258 38.828-1.6-1.71c-15.511-16.576-35.045-29.274-56.492-36.722-3.908-1.357-8.187.712-9.545 4.625-1.359 3.913.712 8.186 4.625 9.545 19.156 6.652 36.605 17.994 50.459 32.801l8.381 8.957-4.332 18.171c-24.365-15.452-50.736-27.392-78.807-35.654-3.972-1.168-8.143 1.103-9.313 5.077-1.169 3.974 1.104 8.143 5.078 9.313 28.746 8.461 55.619 20.974 80.258 37.342-.715 13.432 2.894 26.914 10.434 38.237 5.788 8.692 11.065 17.652 15.82 26.855l-.541 1.447c-5.829 15.595-17.111 28.53-31.769 36.422-3.647 1.964-5.012 6.512-3.048 10.159s6.512 5.012 10.159 3.048c14.252-7.674 25.885-19.26 33.612-33.283 8.168 18.977 12.664 34.722 16.569 51.804h-396.347c3.956-17.301 8.472-32.991 16.569-51.804 7.727 14.023 19.36 25.609 33.612 33.283 3.647 1.964 8.196.599 10.159-3.048 1.964-3.647.599-8.195-3.048-10.159-14.658-7.893-25.94-20.828-31.769-36.422l-.541-1.447c4.755-9.203 10.032-18.163 15.82-26.855 7.54-11.323 11.149-24.805 10.434-38.237 24.639-16.368 51.512-28.881 80.258-37.342 3.974-1.169 6.247-5.339 5.077-9.313-1.169-3.973-5.338-6.246-9.313-5.077-28.071 8.262-54.442 20.202-78.807 35.654l-4.332-18.171 8.381-8.957c13.854-14.807 31.303-26.149 50.459-32.801 3.913-1.359 5.984-5.632 4.625-9.545-1.359-3.914-5.633-5.982-9.545-4.625-21.447 7.447-40.981 20.146-56.492 36.722l-1.6 1.71-9.258-38.828c7.381-4.586 10.296-6.288 13.534-8.681 11.216-1.866 22.659-.57 33.202 3.773 3.844 1.585 8.221-.265 9.791-4.078 1.578-3.83-.248-8.213-4.078-9.791-7.523-3.099-15.413-4.952-23.407-5.534 3.892-5.345 7.058-11.224 9.357-17.467l6.143-16.677c1.432-3.887-.559-8.198-4.445-9.63-3.887-1.432-8.198.559-9.63 4.445l-6.143 16.677c-3.636 9.869-10.005 18.592-18.225 25.089-.198.14-.389.289-.572.446-2.854 2.197-4.729 3.272-9.143 6.014-2.773-13.526-3.029-27.286-.756-40.957l2.08-12.514c.277-1.665-.016-3.375-.832-4.852l-8.627-15.639c-8.428-15.277-12.427-32.564-11.565-49.992l.517-10.458c.071-1.428.024-1.205-2.504-11.632-.976-4.024-5.025-6.499-9.056-5.521-4.025.976-6.497 5.03-5.521 9.056l2.046 8.44-.463 9.375c-1 20.211 3.639 40.26 13.413 57.978l7.368 13.357-1.652 9.943c-2.801 16.854-2.212 33.829 1.75 50.451.024.101 21.786 91.366 21.883 91.797-7.967 5.649-15.7 11.695-23.186 18.13-3.147 2.658-3.556 7.356-.916 10.525 2.652 3.182 7.387 3.607 10.569.956 3.274-2.737 6.764-5.833 14.085-11.405-1.083 6.688-3.576 13.143-7.391 18.872-19.955 29.967-34.143 62.957-42.168 98.052l-2.868 12.542c-1.074 4.691 2.497 9.172 7.311 9.172h415.162c4.812 0 8.385-4.479 7.311-9.172l-2.868-12.542c-8.026-35.095-22.214-68.085-42.168-98.052-3.815-5.729-6.308-12.184-7.391-18.872 4.76 3.623 9.426 7.4 13.996 11.329 3.145 2.725 7.958 2.359 10.658-.88 2.632-3.159 2.222-7.847-.896-10.509-7.492-6.442-15.231-12.492-23.205-18.146.17-.75-.323 1.341 21.883-91.796 3.963-16.622 4.552-33.596 1.75-50.451l-1.652-9.943 7.368-13.357c9.774-17.718 14.413-37.766 13.413-57.978l-.463-9.375 22.144-91.331c4.391-18.113-11.846-34.467-29.963-30.264-31.911 7.399-60.84 23.732-83.661 47.231l-34.802 35.837c-51.296-14.346-105.935-14.579-158.068 0l-34.802-35.837c-22.82-23.5-51.75-39.832-83.661-47.231-18.156-4.21-34.344 12.19-29.962 30.264z"/><path d="m325.656 454.55c2.831-3.023 2.675-7.77-.348-10.601-3.023-2.83-7.769-2.676-10.601.348-32.501 34.709-84.9 34.716-117.408 0-2.832-3.023-7.578-3.18-10.601-.348s-3.179 7.578-.348 10.601c38.439 41.049 100.865 41.051 139.306 0z"/><path d="m388.138 87.158c2.886-2.972 2.816-7.72-.155-10.605-2.972-2.886-7.72-2.816-10.605.155l-21.428 22.064c-4.595 4.731-4.152 12.404.971 16.556 20.168 16.352 38.384 37.347 54.14 62.404 3.525 5.605 11.802 5.378 15-.423 7.488-13.574 11.041-28.933 10.275-44.414l-.645-13.055 19.802-81.672c1.387-5.726-4.089-10.756-9.676-8.877-18.376 6.17-35.066 15.806-49.605 28.639-3.105 2.741-3.4 7.481-.66 10.586 2.741 3.105 7.48 3.401 10.586.66 9.487-8.375 19.995-15.229 31.365-20.472-18.145 74.842-16.925 69.235-16.848 70.792l.699 14.139c.447 9.029-.898 18.007-3.92 26.444-5.276-7.749-10.796-15.097-16.543-22.027.357-4.439 4.009-7.545 8.117-7.545 4.142 0 7.5-3.358 7.5-7.5s-3.358-7.5-7.5-7.5c-7.577 0-14.749 3.728-19.115 10.089-1.391-1.479-2.794-2.935-4.209-4.368l1.438-2.117c4.033-5.938 10.727-9.483 17.905-9.483h1.516c4.142 0 7.5-3.358 7.5-7.5s-3.358-7.5-7.5-7.5h-1.516c-11.943 0-23.345 5.803-30.357 16.118-1.694-1.512-3.401-2.994-5.124-4.443z"/><path d="m123.888 65.648c-16.009-16.486-35.96-29.058-57.697-36.357-5.583-1.874-11.066 3.144-9.677 8.877l19.802 81.672-.645 13.055c-.766 15.482 2.787 30.841 10.274 44.413 3.205 5.813 11.483 6.019 15.001.424 15.755-25.056 33.971-46.051 54.139-62.402 5.124-4.153 5.565-11.827.971-16.556zm-29.315 94.432c-3.022-8.437-4.367-17.415-3.92-26.445l.699-14.138c.079-1.601 1.33 4.181-16.842-70.771 14.382 6.664 27.551 15.975 38.619 27.372l29.332 30.205c-5.574 4.69-5.058 4.54-5.167 4.379-6.829-10.053-18.161-16.054-30.313-16.054h-1.516c-4.142 0-7.5 3.358-7.5 7.5s3.358 7.5 7.5 7.5h1.516c7.178 0 13.872 3.545 17.905 9.483l1.438 2.117c-1.414 1.433-2.817 2.889-4.209 4.368-4.352-6.34-11.515-10.089-19.115-10.089-4.142 0-7.5 3.358-7.5 7.5s3.358 7.5 7.5 7.5c4.101 0 7.76 3.099 8.117 7.545-5.749 6.931-11.268 14.279-16.544 22.028z"/><path d="m228.464 306.594-3.045 1.361c-7.114 3.179-8.802 12.557-3.203 18.011l26.286 25.601v7.19l-6.662 3.017c-6.834 3.095-14.104 4.665-21.608 4.665h-2.266c-4.142 0-7.5 3.358-7.5 7.5s3.358 7.5 7.5 7.5h2.266c9.652 0 19.004-2.019 27.796-6 5.465-2.475 7.784-3.524 7.973-3.612.166.077 1.099.499 5.909 2.677 10.163 4.602 20.971 6.935 32.126 6.935 4.142 0 7.5-3.358 7.5-7.5s-3.358-7.5-7.5-7.5c-9.007 0-17.734-1.884-25.938-5.599l-4.597-2.082v-7.19l26.286-25.601c5.603-5.457 3.907-14.834-3.202-18.01l-3.046-1.362c-17.499-7.824-37.573-7.824-55.075-.001zm27.539 31.338-19.109-18.611c12.271-4.795 25.946-4.794 38.218 0z"/><path d="m140.702 465.554c3.999 1.048 8.091-1.349 9.15-5.34 6.392-24.093 15.622-46.966 27.582-68.408 21.117 11.366 43.899 19.641 67.412 24.388 10.679 2.156 10.152 2.101 11.157 2.101 1.768 0 17.135-3.298 23.412-4.906 4.013-1.028 6.432-5.114 5.404-9.127-1.027-4.012-5.111-6.43-9.126-5.404-7.063 1.81-11.734 2.68-19.689 4.286l-8.188-1.653c-21.87-4.416-43.066-12.083-62.735-22.604 6.506-10.382 13.684-20.398 21.52-30.023 2.615-3.212 2.131-7.936-1.081-10.551-3.212-2.616-7.936-2.132-10.551 1.081-8.344 10.248-15.977 20.919-22.886 31.986-7.534-4.686-14.796-9.809-21.733-15.344-3.238-2.583-7.957-2.054-10.541 1.184-2.583 3.238-2.053 7.957 1.184 10.541 7.483 5.971 15.321 11.492 23.455 16.535-12.624 22.593-22.364 46.708-29.111 72.136-1.032 4.001 1.367 8.076 5.365 9.122z"/><path d="m347.558 384.296c12.624 22.593 22.364 46.708 29.111 72.136 1.032 4.001-1.368 8.076-5.365 9.122-3.999 1.048-8.091-1.349-9.15-5.34-6.392-24.093-15.622-46.966-27.582-68.408l.014.024c-6.648 3.582-13.465 6.858-20.431 9.814-3.823 1.623-8.221-.173-9.834-3.975-1.618-3.813.162-8.216 3.975-9.834 6.353-2.696 12.574-5.675 18.646-8.926-6.51-10.389-13.692-20.413-21.534-30.045-2.615-3.212-2.131-7.936 1.081-10.551 3.211-2.615 7.937-2.132 10.551 1.081 8.348 10.253 15.984 20.929 22.895 31.999 7.524-4.688 14.779-9.815 21.724-15.357 3.239-2.583 7.958-2.052 10.541 1.184 2.583 3.238 2.053 7.957-1.184 10.541-7.492 5.979-15.322 11.503-23.446 16.549z"/><path d="m241.798 142.441c-4.015-1.024-8.097 1.403-9.119 5.417-3.769 14.799-3.512 30.374.743 45.04 1.152 3.971 5.305 6.268 9.293 5.113 3.978-1.154 6.267-5.314 5.113-9.293-3.51-12.1-3.722-24.948-.613-37.158 1.022-4.014-1.404-8.097-5.417-9.119z"/><path d="m269.291 198.011c3.962 1.15 8.134-1.12 9.293-5.113 4.254-14.666 4.511-30.24.743-45.04-1.022-4.013-5.101-6.441-9.119-5.417-4.014 1.022-6.439 5.105-5.417 9.119 3.109 12.209 2.897 25.058-.613 37.158-1.154 3.978 1.135 8.138 5.113 9.293z"/><path d="m287.45 231.611v5.498c0 4.142 3.358 7.5 7.5 7.5s7.5-3.358 7.5-7.5v-5.498c0-3.57 2.409-6.709 5.857-7.633l51.667-13.844c4.001-1.072 6.375-5.185 5.304-9.186-1.072-4.001-5.187-6.372-9.186-5.303l-51.667 13.844c-9.995 2.678-16.975 11.774-16.975 22.122z"/><path d="m207.58 209.489-51.667-13.844c-3.994-1.067-8.113 1.302-9.186 5.303-1.072 4.001 1.302 8.114 5.304 9.186l51.667 13.844c3.449.924 5.857 4.063 5.857 7.633v5.498c0 4.142 3.358 7.5 7.5 7.5s7.5-3.358 7.5-7.5v-5.498c0-10.348-6.98-19.444-16.975-22.122z"/><path d="m220.938 255.149c-4.126.358-7.182 3.994-6.823 8.12l2.333 26.886c.359 4.142 4.017 7.187 8.12 6.823 4.126-.358 7.182-3.994 6.823-8.12l-2.333-26.886c-.357-4.126-3.99-7.187-8.12-6.823z"/><path d="m282.948 261.972-2.334 26.886c-.358 4.126 2.696 7.762 6.823 8.12 4.106.364 7.761-2.683 8.12-6.823l2.334-26.886c.358-4.126-2.696-7.762-6.823-8.12-4.107-.357-7.762 2.696-8.12 6.823z"/></g></svg>