<svg id="Capa_1" enable-background="new 0 0 511.998 511.998" height="512" viewBox="0 0 511.998 511.998" width="512" xmlns="http://www.w3.org/2000/svg"><g><path d="m255.999 436.49c25.177 0 49.794-7.438 70.759-21.379 31.904-21.216 55.466-52.836 66.673-89.474l13.303-43.49 3.063-2.067c19.059-12.862 32.852-32.155 38.857-54.35l20.792-76.851c10.636-39.311 8.416-80.994-6.336-118.953-7.49-19.273-29.917-27.947-48.426-18.729-25.219 12.56-46.416 31.934-61.187 55.925l-37.477 60.869-14.536-2.173c-30.155-4.509-60.814-4.509-90.969 0l-14.536 2.173-37.477-60.869c-14.771-23.991-35.968-43.364-61.187-55.925-18.508-9.218-40.936-.544-48.426 18.729-14.751 37.959-16.972 79.642-6.336 118.953l20.792 76.851c6.005 22.195 19.798 41.488 38.857 54.35l3.063 2.067 13.303 43.49c11.207 36.638 34.769 68.258 66.673 89.474 20.965 13.941 45.581 21.379 70.758 21.379z" fill="#8b818e"/><path d="m463.11 29.925c-6.462-16.629-24.045-25.367-40.636-21.53.222.502.435 1.012.636 1.53 14.751 37.959 16.972 79.642 6.336 118.953l-20.792 76.851c-6.005 22.195-19.798 41.488-38.857 54.35-1.982 1.337-3.444 3.314-4.144 5.601l-12.222 39.956c-11.207 36.638-34.769 68.258-66.673 89.474-20.965 13.942-45.581 21.379-70.758 21.379-12.385 0-24.634-1.8-36.38-5.288 1.844 1.339 3.718 2.643 5.621 3.909 20.965 13.942 45.581 21.379 70.758 21.379s49.794-7.438 70.758-21.379c31.904-21.216 55.466-52.836 66.673-89.474l13.303-43.49 3.063-2.067c19.059-12.862 32.852-32.155 38.857-54.35l20.792-76.851c10.637-39.311 8.417-80.994-6.335-118.953z" fill="#756e78"/><path d="m255.999 368.932-31.074-31.074c-2.864-2.864-1.299-7.768 2.696-8.443l1.937-.327c17.504-2.956 35.379-2.956 52.883 0l1.937.327c3.994.674 5.56 5.578 2.696 8.443z" fill="#665e66"/><path d="m167.493 139.322c2.073-1.164 2.741-3.833 1.494-5.858l-32.502-52.788c-12.251-19.897-29.782-35.92-50.697-46.337-1.314-.654-2.697-.986-4.112-.986-2.944 0-6.986 1.555-8.689 5.937-12.843 33.049-14.737 68.609-5.477 102.836l20.792 76.852c1.713 6.332 4.086 11.825 6.828 16.597 2.04 3.551 7.4 2.465 7.85-1.606 1.479-13.399 5.054-27.961 12.476-41.401 15.399-27.889 35.681-44.06 52.037-53.246z" fill="#c6c1c8"/><path d="m344.505 139.322c-2.073-1.164-2.741-3.833-1.494-5.858l32.502-52.788c12.251-19.897 29.782-35.92 50.697-46.337 1.314-.654 2.697-.986 4.112-.986 2.944 0 6.986 1.555 8.689 5.937 12.844 33.049 14.737 68.609 5.477 102.836l-20.792 76.852c-1.713 6.332-4.086 11.825-6.828 16.597-2.04 3.551-7.4 2.465-7.85-1.606-1.479-13.399-5.054-27.961-12.475-41.401-15.4-27.889-35.682-44.06-52.038-53.246z" fill="#c6c1c8"/><path d="m439.011 39.29c-1.665-4.285-5.568-5.866-8.493-5.934 7.715 31.287 7.413 64.159-1.072 95.522l-20.792 76.851c-.874 3.229-1.912 6.396-3.107 9.491 1.698 6.347 2.801 12.667 3.472 18.749.449 4.071 5.809 5.157 7.85 1.606 2.742-4.772 5.115-10.265 6.828-16.597l20.792-76.852c9.259-34.227 7.366-69.787-5.478-102.836z" fill="#afaab4"/><path d="m326.758 415.11c-20.965 13.942-45.581 21.379-70.759 21.379-25.177 0-49.794-7.438-70.758-21.379-14.571-9.69-27.402-21.55-38.111-35.068-31.381 34.63-51.494 78.038-57.589 124.456h332.916c-6.095-46.418-26.208-89.826-57.589-124.456-10.708 13.518-23.539 25.378-38.11 35.068z" fill="#8b818e"/><path d="m364.868 380.042c-4.247 5.361-8.828 10.461-13.719 15.268 9.329 15.402 16.823 31.857 22.319 49.024 6.359 19.865-8.526 40.164-29.384 40.164h-251.012c-1.466 6.592-2.647 13.264-3.531 20h332.916c-6.094-46.418-26.208-89.826-57.589-124.456z" fill="#756e78"/><path d="m206.529 118.828-6.761 1.011-34.88-56.651c-15.521-25.208-37.731-45.508-64.23-58.706-22.492-11.202-49.701-.589-58.761 22.726-15.44 39.731-17.717 82.481-6.584 123.628l20.792 76.852c6.282 23.217 20.473 44.152 42.765 59.19 13.658 44.652 13.477 44.42 15.945 51.003-15.314 1.406-24.94 3.478-39.148 6.239-4.066.79-6.722 4.727-5.932 8.793s4.728 6.723 8.793 5.932c14.891-2.893 25.388-5.188 42.512-6.422 3.975 8.223 8.59 16.109 13.789 23.584-25.426 6.702-41.349 14.625-57.174 22.089-3.747 1.767-5.351 6.236-3.584 9.982 1.761 3.735 6.227 5.357 9.982 3.584 14.248-6.72 24.474-11.828 41.839-17.416-4.874 6.662-9.402 13.578-13.55 20.7-2.938 5.046.779 11.276 6.474 11.276 2.582 0 5.095-1.335 6.488-3.727 6.339-10.885 13.626-21.254 21.722-30.919 9.95 11.312 21.388 21.352 34.062 29.78 45.397 30.189 104.419 30.193 149.823 0 12.674-8.428 24.112-18.469 34.063-29.782 25.418 30.296 42.138 66.437 48.77 105.425h-106.921c6.774-4.366 13.095-9.639 18.829-15.763 2.831-3.023 2.675-7.77-.349-10.601-3.023-2.831-7.771-2.675-10.601.348-32.502 34.708-84.9 34.717-117.409 0-2.832-3.023-7.578-3.18-10.601-.348s-3.179 7.578-.348 10.601c5.734 6.123 12.055 11.397 18.829 15.763h-106.916c2.569-15.044 6.688-29.815 12.277-44.02 1.517-3.854-.378-8.208-4.232-9.726-3.853-1.515-8.208.378-9.726 4.232-7.084 18.001-11.954 36.854-14.472 56.036-.589 4.482 2.901 8.477 7.436 8.477h332.916c4.548 0 8.024-4.007 7.437-8.477-5.233-39.854-20.24-77.186-43.757-109.266 17.754 5.716 28.967 11.35 41.809 17.406 3.762 1.776 8.224.146 9.982-3.584 1.768-3.746.162-8.216-3.584-9.982-16.816-7.932-32.035-15.463-57.174-22.089 5.199-7.475 9.814-15.361 13.789-23.584 17.048 1.229 27.719 3.547 42.512 6.422 4.075.792 8.003-1.866 8.793-5.932s-1.865-8.003-5.932-8.793c-14.333-2.785-23.767-4.826-39.148-6.239 2.463-6.571 2.242-6.207 15.945-51.004 22.262-15.027 36.47-35.926 42.764-59.19l20.793-76.852c11.133-41.146 8.855-83.896-6.585-123.628-9.082-23.369-36.324-33.899-58.76-22.725-26.499 13.197-48.709 33.497-64.23 58.706l-34.88 56.653-9.637-1.441c-19.653-2.938-39.69-4.015-59.543-3.198-4.139.17-7.356 3.663-7.186 7.802s3.665 7.359 7.802 7.186c30.944-1.273 51.587 2.28 71.245 5.219 2.973.444 5.921-.928 7.496-3.485l37.478-60.869c14.051-22.82 34.156-41.197 58.145-53.144 14.694-7.316 32.241-.322 38.092 14.732 14.271 36.727 16.377 76.244 6.087 114.278l-20.794 76.852c-5.532 20.451-18.251 38.241-35.813 50.092l-3.063 2.067c-1.424.961-2.475 2.381-2.977 4.023-14.033 45.878-14.487 48.107-18.104 56.958-23.551-.748-47.083 1.682-70.338 7.281-4.026.97-6.506 5.02-5.536 9.047.972 4.032 5.025 6.505 9.048 5.536 19.788-4.765 39.788-7.095 59.823-6.989-3.852 7.188-8.251 14.064-13.15 20.564-15.818-3.132-31.956-4.811-48.336-5.016-4.146-.069-7.542 3.264-7.593 7.406-.052 4.142 3.264 7.542 7.405 7.593 12.623.158 25.094 1.244 37.373 3.247-8.224 8.744-17.458 16.575-27.551 23.286-40.364 26.842-92.841 26.845-133.211 0-10.092-6.711-19.326-14.542-27.55-23.286 12.279-2.003 24.75-3.088 37.373-3.246 4.142-.052 7.458-3.452 7.406-7.593-.052-4.142-3.457-7.5-7.593-7.406-16.379.205-32.518 1.883-48.335 5.016-4.899-6.5-9.298-13.377-13.15-20.565 20.035-.106 40.035 2.225 59.823 6.99 4.033.971 8.079-1.514 9.047-5.536.97-4.027-1.509-8.078-5.536-9.047-23.255-5.6-46.787-8.029-70.337-7.281-3.6-8.811-3.822-10.266-18.104-56.958-.502-1.642-1.553-3.063-2.977-4.023l-3.063-2.067c-17.561-11.851-30.28-29.641-35.813-50.092l-20.792-76.852c-10.291-38.036-8.186-77.552 6.087-114.278 5.85-15.054 23.404-22.049 38.091-14.731 23.988 11.947 44.094 30.324 58.144 53.144l37.478 60.869c1.575 2.558 4.527 3.933 7.496 3.485l11.66-1.744c4.097-.613 6.921-4.43 6.308-8.527-.612-4.099-4.427-6.923-8.526-6.311z"/><path d="m226.372 322.019c-9.993 1.687-13.918 13.973-6.75 21.141l28.877 28.877v7.231c0 3.718-2.643 6.962-6.283 7.715l-24.654 5.098c-4.057.839-6.665 4.807-5.826 8.863.841 4.067 4.819 6.664 8.863 5.826l24.654-5.098c4.115-.851 7.79-2.798 10.745-5.496 2.955 2.698 6.631 4.645 10.746 5.496l24.653 5.098c4.038.835 8.021-1.752 8.863-5.826.839-4.056-1.77-8.024-5.826-8.863l-24.653-5.098c-3.641-.753-6.283-3.998-6.283-7.715v-7.231l28.878-28.878c7.165-7.165 3.245-19.453-6.75-21.141-22.445-3.789-39.736-3.291-59.254.001zm29.627 36.306-22.302-22.302c14.813-2.21 29.789-2.21 44.604 0z"/><path d="m171.166 145.861c5.824-3.271 7.66-10.721 4.208-16.329l-32.502-52.788c-12.986-21.091-31.569-38.076-53.739-49.118-8.71-4.338-19.487-.441-23.135 8.947-13.427 34.551-15.408 71.728-5.727 107.511l20.792 76.852c1.768 6.534 4.313 12.717 7.564 18.375 2.131 3.709 6.028 5.906 10.168 5.906 5.965 0 10.98-4.453 11.639-10.425 1.612-14.609 5.51-27.596 11.586-38.598 15.04-27.234 35.026-42.403 49.146-50.333zm-62.276 43.081c-5.45 9.868-9.375 21.013-11.72 33.24-1.31-3.62.236 1.727-22.42-82.015-8.839-32.671-7.031-66.614 5.229-98.161.416-1.07 1.405-1.153 1.698-1.153.157 0 .408.021.768.2 19.66 9.792 36.138 24.853 47.654 43.555l10.09 16.387c-6.843-3.269-14.199-5.565-21.899-6.785-4.087-.647-7.933 2.144-8.581 6.234-.648 4.091 2.144 7.933 6.234 8.581 16.972 2.688 31.881 11.824 41.982 25.727l.773 1.063c-3.974 2.475-8.236 5.419-12.631 8.899-12.478-10.67-28.551-16.679-45.073-16.679-4.142 0-7.5 3.358-7.5 7.5s3.358 7.5 7.5 7.5c12.239 0 24.165 4.21 33.692 11.736-9 8.853-18.007 20.066-25.796 34.171z"/><path d="m429.219 169.848c-1.082 3.998 1.282 8.117 5.28 9.198 4.001 1.079 8.116-1.282 9.198-5.281l8.03-29.682c9.682-35.783 7.701-72.959-5.727-107.511-3.653-9.398-14.435-13.277-23.135-8.946-22.169 11.041-40.752 28.026-53.74 49.118l-32.503 52.79c-3.419 5.559-1.664 13.03 4.209 16.327 14.119 7.93 34.106 23.1 49.146 50.332 6.076 11.002 9.975 23.989 11.586 38.598.66 5.976 5.677 10.425 11.639 10.425 4.141 0 8.038-2.197 10.169-5.905 3.252-5.66 5.798-11.842 7.564-18.375l3.333-12.32c1.082-3.998-1.282-8.117-5.28-9.198-3.999-1.082-8.117 1.282-9.198 5.281-3.52 13.01-3.758 14.156-4.962 17.484-2.344-12.229-6.27-23.373-11.72-33.241-7.789-14.105-16.796-25.317-25.794-34.17 9.527-7.526 21.452-11.736 33.691-11.736 4.143 0 7.5-3.358 7.5-7.5s-3.357-7.5-7.5-7.5c-16.521 0-32.595 6.01-45.073 16.68-4.395-3.48-8.657-6.424-12.632-8.899l.773-1.064c10.101-13.902 25.011-23.039 41.981-25.727 4.092-.648 6.883-4.49 6.234-8.581-.647-4.09-4.491-6.88-8.58-6.234-7.7 1.22-15.057 3.516-21.9 6.785l10.092-16.387c11.517-18.704 27.995-33.765 47.652-43.555.361-.18.612-.201.77-.201.293 0 1.283.083 1.699 1.153 12.259 31.546 14.067 65.489 5.229 98.16z"/><path d="m220.53 189.218c-4.106-.575-7.893 2.287-8.466 6.389-1.718 12.286-.184 24.866 4.435 36.378 1.552 3.869 5.935 5.702 9.753 4.168 3.844-1.542 5.71-5.909 4.168-9.753-3.646-9.088-4.857-19.018-3.501-28.716.574-4.102-2.287-7.893-6.389-8.466z"/><path d="m285.745 236.153c3.837 1.54 8.208-.316 9.754-4.167 4.619-11.513 6.153-24.092 4.436-36.378-.573-4.103-4.37-6.965-8.466-6.389-4.103.573-6.963 4.364-6.39 8.466 1.355 9.698.145 19.627-3.502 28.715-1.542 3.844.324 8.211 4.168 9.753z"/><path d="m288.778 276.371v5.686c0 4.142 3.357 7.5 7.5 7.5s7.5-3.358 7.5-7.5v-5.686c0-3.808 2.569-7.156 6.248-8.142l53.434-14.318c4.001-1.072 6.375-5.185 5.303-9.186-1.071-4.001-5.184-6.372-9.186-5.303l-53.434 14.318c-10.224 2.74-17.365 12.046-17.365 22.631z"/><path d="m215.72 289.557c4.142 0 7.5-3.358 7.5-7.5v-5.686c0-10.585-7.141-19.892-17.365-22.631l-53.434-14.318c-3.999-1.068-8.113 1.302-9.186 5.303-1.072 4.001 1.302 8.114 5.303 9.186l53.434 14.318c3.679.985 6.248 4.333 6.248 8.142v5.686c0 4.142 3.358 7.5 7.5 7.5z"/></g></svg>