<svg id="Capa_1" enable-background="new 0 0 512.016 512.016" height="512" viewBox="0 0 512.016 512.016" width="512" xmlns="http://www.w3.org/2000/svg"><g><path d="m73.229 145.462-3.932 5.574c-6.708 9.51-8.11 21.781-3.722 32.559l7.902 19.408c8.328-18.134 19.991-34.796 34.622-49.03l11.968-11.643c6.255-6.086 12.884-11.717 19.833-16.868 10.769-7.984 13.142-23.118 5.201-33.918l-58.856-80.052c-10.98-9.207-27.713-1.401-27.713 12.928v85.294c0 8.507 2.459 16.834 7.08 23.976z" fill="#f1f1f4"/><path d="m425.768 11.492-58.856 80.052c-7.941 10.801-5.568 25.934 5.201 33.919 6.949 5.152 13.577 10.783 19.833 16.868l11.968 11.643c14.632 14.234 26.294 30.896 34.622 49.03l7.902-19.408c4.388-10.778 2.986-23.049-3.722-32.559l-3.932-5.574 7.616-11.772c4.621-7.143 7.08-15.469 7.08-23.976v-85.295c.001-14.329-16.732-22.135-27.712-12.928z" fill="#dfdde2"/><path d="m403.914 153.974-11.968-11.643c-6.255-6.086-12.884-11.717-19.833-16.868-10.769-7.984-13.142-23.118-5.201-33.919l58.856-80.052-103.867 87.098c-13.986-5.023-28.584-8.461-43.529-10.187-14.861-1.716-29.87-1.716-44.731 0-14.945 1.726-29.543 5.164-43.529 10.187l-103.867-87.098 58.856 80.052c7.941 10.801 5.568 25.934-5.201 33.918-6.949 5.152-13.577 10.783-19.833 16.868l-11.968 11.643c-34.278 33.347-52.265 80.012-49.238 127.738l1.997 31.483c1.894 29.865 14.73 57.984 36.054 78.979 31.449 30.965 73.815 48.321 117.95 48.321h82.289c44.135 0 86.501-17.356 117.95-48.321 21.324-20.995 34.16-49.114 36.054-78.979l1.997-31.483c3.028-47.726-14.96-94.39-49.238-127.737z" fill="#c6c1c8"/><path d="m403.914 153.974-11.968-11.643c-6.255-6.086-12.884-11.717-19.833-16.868-10.769-7.984-13.142-23.118-5.201-33.919l58.856-80.052-101.182 84.847c1.668 3.499 4.195 6.654 7.527 9.124 6.949 5.152 13.577 10.783 19.833 16.868l11.968 11.643c34.278 33.347 52.265 80.012 49.238 127.738l-1.997 31.482c-1.894 29.865-14.73 57.984-36.054 78.979-31.449 30.965-73.815 48.321-117.95 48.321h-82.289c-18.724 0-37.129-3.124-54.517-9.086 27.687 18.822 60.578 29.086 94.517 29.086h82.289c44.135 0 86.501-17.356 117.95-48.321 21.324-20.995 34.16-49.114 36.054-78.979l1.997-31.482c3.028-47.727-14.96-94.391-49.238-127.738z" fill="#afaab4"/><path d="m256.007 335.603-31.827-24.85c-1.093-.854-.908-2.559.342-3.158 19.906-9.538 43.063-9.538 62.97 0 1.251.599 1.436 2.305.342 3.158z" fill="#efa5c3"/><path d="m287.834 310.753 10.485 1.933c19.107 3.522 37.316 10.834 53.552 21.506 8.506 5.591 9.898 17.509 2.909 24.91l-14.881 15.756c-9.881 10.462-25.393 13.334-38.364 7.102l-34.764-16.701c-6.579-3.161-10.764-9.814-10.764-17.113v-12.543z" fill="#f1f1f4"/><path d="m224.18 310.753-10.485 1.933c-19.107 3.522-37.316 10.834-53.552 21.506-8.506 5.591-9.898 17.509-2.909 24.91l14.881 15.756c9.881 10.462 25.393 13.334 38.364 7.102l34.764-16.701c6.579-3.161 10.764-9.814 10.764-17.113v-12.543z" fill="#f1f1f4"/><path d="m351.871 334.191c-7.92-5.206-16.309-9.611-25.043-13.168 1.701 1.021 3.383 2.077 5.043 3.168 8.506 5.591 9.898 17.509 2.909 24.91l-14.881 15.756c-9.881 10.462-25.393 13.334-38.364 7.102l-17.9-8.599c.97.724 2.018 1.362 3.135 1.898l34.764 16.701c12.971 6.231 28.483 3.359 38.364-7.102l14.881-15.756c6.99-7.4 5.599-19.319-2.908-24.91z" fill="#dfdde2"/><path d="m224.18 310.753-5.818 1.072 7.759 6.058c6.24 4.872 9.887 12.346 9.887 20.263 0 7.299-4.185 13.952-10.764 17.113l-34.765 16.701c-5.814 2.793-12.14 3.757-18.239 3.028 9.886 10.355 25.322 13.177 38.239 6.972l34.765-16.701c6.579-3.161 10.764-9.814 10.764-17.113v-12.543z" fill="#dfdde2"/><path d="m301.536 381.96-34.764-16.701c-6.579-3.161-10.764-9.814-10.764-17.113 0 7.299-4.185 13.952-10.764 17.113l-34.764 16.701c-5.053 2.427-10.49 3.473-15.831 3.227 14.462 17.874 36.576 29.303 61.36 29.303s46.897-11.429 61.36-29.303c-5.343.246-10.781-.8-15.833-3.227z" fill="#f1f1f4"/><path d="m301.536 381.96-20.49-9.843c-14.213 13.845-33.63 22.374-55.039 22.374-9.697 0-18.986-1.75-27.568-4.951 14.393 15.356 34.86 24.951 57.568 24.951 24.783 0 46.897-11.429 61.36-29.303-5.341.245-10.779-.801-15.831-3.228z" fill="#dfdde2"/><path d="m455.949 473.129c-12.312-26.994-28.418-52.07-47.815-74.473-30.599 26.895-70.028 41.839-110.982 41.839h-82.289c-40.954 0-80.383-14.945-110.982-41.839-19.397 22.403-35.503 47.479-47.815 74.473l-14.315 31.387h428.515z" fill="#c6c1c8"/><path d="m120.344 411.409c-5.723-3.89-11.223-8.146-16.464-12.753-1.244 1.437-2.474 2.885-3.691 4.344 6.529 3.237 13.262 6.045 20.155 8.409z" fill="#afaab4"/><path d="m455.949 473.129c-12.312-26.994-28.418-52.07-47.815-74.473-4.981 4.378-10.196 8.439-15.614 12.171 8.882 13.45 16.719 27.591 23.429 42.302 6.7 14.689-4.037 31.387-20.182 31.387h-344.896l-9.122 20h428.515z" fill="#afaab4"/><path d="m301.03 109.894c-4.143 0-7.5 3.358-7.5 7.5v17.887l-13.639 13.639c-3.87 3.87-6.002 9.015-6.002 14.489v56.007c0 4.142 3.357 7.5 7.5 7.5s7.5-3.358 7.5-7.5v-56.007c0-1.466.571-2.845 1.608-3.882l6.714-6.714 11.528 22.312c.31.599.473 1.271.473 1.944v21.46c0 4.142 3.357 7.5 7.5 7.5s7.5-3.358 7.5-7.5v-21.46c0-3.059-.742-6.112-2.146-8.83l-11.86-22.954c-1.06-2.051-1.676-4.422-1.676-6.918v-20.973c0-4.142-3.357-7.5-7.5-7.5z"/><path d="m189.947 168.239c-1.404 2.718-2.146 5.771-2.146 8.83v21.46c0 4.142 3.357 7.5 7.5 7.5s7.5-3.358 7.5-7.5v-21.46c0-.673.163-1.346.473-1.944l11.528-22.312 6.715 6.715c1.036 1.037 1.607 2.415 1.607 3.881v56.007c0 4.142 3.357 7.5 7.5 7.5s7.5-3.358 7.5-7.5v-56.007c0-5.474-2.132-10.619-6.001-14.488l-13.64-13.64v-17.887c0-4.142-3.357-7.5-7.5-7.5s-7.5 3.358-7.5 7.5v21.006c-.002 2.385-.581 4.766-1.676 6.884z"/><path d="m300.127 265.672v5.914c0 4.142 3.357 7.5 7.5 7.5s7.5-3.358 7.5-7.5v-5.914c0-4.097 2.765-7.699 6.723-8.76l55.581-14.893c4.001-1.072 6.375-5.185 5.303-9.186-1.071-4.001-5.183-6.373-9.186-5.304l-55.581 14.893c-10.504 2.816-17.84 12.376-17.84 23.25z"/><path d="m129.28 232.834c-1.072 4.001 1.302 8.113 5.303 9.186l55.581 14.893c3.958 1.06 6.722 4.663 6.722 8.76v5.914c0 4.142 3.357 7.5 7.5 7.5s7.5-3.358 7.5-7.5v-5.914c0-10.874-7.336-20.435-17.839-23.249l-55.581-14.893c-4.002-1.07-8.114 1.302-9.186 5.303z"/><path d="m34.925 501.403c-2.256 4.948 1.353 10.612 6.824 10.612h428.516c5.438 0 9.094-5.634 6.824-10.612-14.391-31.553-17.818-39.693-25.437-53.456-2.007-3.624-6.569-4.935-10.194-2.929-3.624 2.006-4.935 6.57-2.929 10.194 7.087 12.802 10.472 20.757 20.071 41.803h-150.681c7.401-4.654 14.296-10.342 20.524-16.994 2.831-3.023 2.675-7.77-.349-10.601-3.023-2.831-7.77-2.675-10.601.348-34.039 36.351-88.927 36.359-122.975 0-2.831-3.024-7.577-3.18-10.601-.348s-3.18 7.578-.349 10.601c6.229 6.651 13.123 12.339 20.524 16.994h-150.679l9.475-20.775c10.989-24.09 25.061-46.602 41.883-67.017 31.115 25.115 69.599 38.771 110.092 38.771h82.289c40.493 0 78.976-13.656 110.091-38.771 4.467 5.423 8.763 11.021 12.823 16.712 1.464 2.051 3.771 3.144 6.112 3.144 6.015 0 9.665-6.857 6.099-11.857-4.354-6.101-8.967-12.102-13.764-17.909 24.497-23.439 38.106-53.754 40.13-85.645l1.996-31.483c1.747-27.536-3.168-54.682-13.936-79.349l6.683-16.414c5.379-13.21 3.682-28.055-4.539-39.71l-1.011-1.433 4.863-7.517c5.419-8.376 8.283-18.075 8.283-28.05v-31.271c0-4.142-3.357-7.5-7.5-7.5s-7.5 3.358-7.5 7.5v31.274c0 7.077-2.032 13.959-5.877 19.901l-7.616 11.772c-1.663 2.571-1.597 5.895.168 8.397l3.932 5.575c5.261 7.457 6.346 16.955 2.904 25.408l-1.777 4.365c-7.74-13.276-17.313-25.583-28.571-36.535-11.787-11.467-18.507-18.442-30.205-27.385l10.735-5.805c4.681-2.532 10.579-1.672 14.342 2.092 2.93 2.929 7.678 2.929 10.607 0s2.929-7.678 0-10.606c-8.419-8.418-21.612-10.343-32.084-4.68l-12.51 6.765c-.833-4.409.083-9.124 2.927-12.992l7.01-9.534 10.48-2.213c9.526-2.012 19.48-.54 28.019 4.146 3.632 1.991 8.19.666 10.184-2.967 1.992-3.631.664-8.19-2.967-10.183-9.99-5.481-21.391-7.748-32.639-6.569l38.161-51.904c6.058-4.336 14.778-.099 14.778 7.658v19.021c0 4.142 3.357 7.5 7.5 7.5s7.5-3.358 7.5-7.5v-19.022c0-20.714-24.182-31.964-40.032-18.675l-100.609 84.365c-41.673-13.962-86.812-14.024-128.67 0l-100.608-84.365c-15.872-13.309-40.032-2.009-40.032 18.675v85.294c0 9.975 2.864 19.674 8.283 28.051l4.863 7.516-1.011 1.432c-8.221 11.655-9.918 26.5-4.539 39.71l6.698 16.451c-2.405 5.503-4.522 11.136-6.335 16.874-1.248 3.95.941 8.163 4.892 9.411 3.95 1.25 8.163-.942 9.411-4.892 7.752-24.531 21.596-46.979 40.035-64.918 12.422-12.085 18.972-18.916 31.038-27.863 2.883-2.138 5.302-4.674 7.239-7.477.172-.227.332-.465.48-.715 7.036-10.799 7.089-25.269-.941-36.194l-21.857-29.728 56.006 46.964c2.045 1.713 4.847 2.212 7.354 1.312 17.55-6.304 36.388-10.104 55.859-10.882v84.135c0 4.142 3.357 7.5 7.5 7.5s7.5-3.358 7.5-7.5v-84.134c19.47.778 38.309 4.578 55.859 10.882 2.512.9 5.31.402 7.354-1.312l56.006-46.964-21.857 29.728c-8.033 10.927-7.978 25.403-.936 36.202.145.245.303.479.471.702 1.937 2.805 4.358 5.343 7.243 7.482 12.119 8.985 18.557 15.721 31.038 27.863 13.852 13.475 24.908 29.199 32.837 46.308.123.324.267.639.433.943 10.518 23.097 15.359 48.676 13.712 74.636-2.084 32.875-2.056 34.274-2.87 40.098l-24.649-21.797c-4.811-4.254-10.997-6.597-17.419-6.597h-18.03c-4.143 0-7.5 3.358-7.5 7.5s3.357 7.5 7.5 7.5h18.03c2.759 0 5.416 1.006 7.482 2.833l30.933 27.352c-1.214 4.074-2.653 8.071-4.31 11.974l-10.817-9.565c-4.811-4.253-10.996-6.596-17.417-6.596h-18.031c-4.143 0-7.5 3.358-7.5 7.5s3.357 7.5 7.5 7.5h18.031c2.758 0 5.415 1.006 7.481 2.833l13.74 12.15c-6.815 11.432-14.642 20.27-24.422 28.915-.143.116-.27.227-.428.376-29.302 25.72-66.526 39.779-105.819 39.779h-82.289c-39.297 0-76.524-14.062-105.827-39.786-.08-.076-.162-.151-.246-.224-10.373-8.974-18.373-18.623-24.596-29.062l13.74-12.15c2.066-1.827 4.724-2.833 7.481-2.833h18.031c4.143 0 7.5-3.358 7.5-7.5s-3.357-7.5-7.5-7.5h-18.031c-6.421 0-12.606 2.343-17.417 6.596l-10.817 9.565c-1.657-3.903-3.096-7.901-4.31-11.974l30.934-27.353c2.065-1.827 4.723-2.833 7.481-2.833h18.03c4.143 0 7.5-3.358 7.5-7.5s-3.357-7.5-7.5-7.5h-18.03c-6.422 0-12.608 2.343-17.418 6.596l-24.65 21.797c-.783-5.604-.707-5.977-2.87-40.098-.488-7.686-.405-15.472.247-23.142.352-4.127-2.71-7.758-6.837-8.109-4.122-.348-7.758 2.709-8.108 6.837-1.363 16.008-.308 24.798 1.724 56.846 2.018 31.801 15.569 62.145 40.129 85.644-17.79 21.523-32.662 45.276-44.261 70.703zm67.945-352.805c-11.141 10.838-20.75 23.178-28.555 36.575l-1.793-4.405c-3.441-8.453-2.356-17.951 2.904-25.408l3.932-5.574c1.765-2.502 1.831-5.826.168-8.397l-7.616-11.771c-3.845-5.943-5.877-12.826-5.877-19.903v-85.295c0-7.761 8.725-11.992 14.778-7.658l38.162 51.904c-11.247-1.179-22.649 1.088-32.639 6.569-3.631 1.993-4.959 6.552-2.967 10.183 1.999 3.643 6.562 4.954 10.184 2.967 8.539-4.687 18.489-6.158 28.019-4.146l10.481 2.213 7.009 9.534c2.843 3.868 3.759 8.583 2.927 12.992l-12.51-6.765c-10.472-5.661-23.665-3.737-32.084 4.681-2.929 2.929-2.929 7.678 0 10.606 2.93 2.929 7.678 2.929 10.607 0 3.762-3.762 9.658-4.624 14.342-2.092l10.735 5.805c-11.748 8.981-18.315 15.815-30.207 27.385z"/><path d="m221.283 300.831c-1.671.8-3.028 2.041-3.953 3.558l-4.995.921c-20.2 3.724-39.146 11.332-56.312 22.614-12.389 8.142-14.447 25.522-4.242 36.327l14.881 15.756c6.615 7.004 15.221 11.235 24.265 12.407 34.442 39.471 95.779 39.401 130.16 0 9.044-1.172 17.65-5.403 24.265-12.407l14.882-15.756c10.22-10.822 8.126-28.197-4.243-36.327-17.166-11.282-36.111-18.891-56.312-22.614l-4.995-.921c-.926-1.517-2.282-2.757-3.951-3.557-22.072-10.577-47.384-10.575-69.45-.001zm-43.717 68.876-14.88-15.755c-3.789-4.012-3.029-10.467 1.575-13.493 15.483-10.177 32.572-17.04 50.792-20.397l7.169-1.321 26.284 20.522v8.884c0 4.389-2.556 8.452-6.513 10.353l-34.764 16.701c-3.773 1.813-7.806 2.637-11.778 2.531-.311-.033-.623-.048-.936-.042-6.297-.403-12.377-3.143-16.949-7.983zm32.506 20.556c2.629-.964.97-.254 38.417-18.244 2.847-1.368 5.38-3.221 7.518-5.432 2.137 2.211 4.67 4.064 7.517 5.432 37.498 18.014 35.794 17.282 38.418 18.244-26.274 22.141-65.213 22.464-91.87 0zm137.68-49.804c4.612 3.031 5.357 9.487 1.576 13.492l-14.881 15.756c-4.573 4.842-10.654 7.582-16.954 7.981-.31-.005-.619.009-.927.042-3.973.107-8.007-.717-11.783-2.531l-34.765-16.701c-3.956-1.9-6.512-5.963-6.512-10.352v-8.884l26.284-20.522 7.169 1.321c18.221 3.359 35.31 10.221 50.793 20.398zm-72.287-29.564-19.458 15.192-19.459-15.193c12.695-3.981 26.222-3.981 38.917.001z"/><circle cx="313.306" cy="360.638" r="7.5"/><circle cx="291.207" cy="351.286" r="7.5"/><circle cx="309.904" cy="337.829" r="7.5"/><circle cx="198.707" cy="360.638" r="7.5"/><circle cx="220.807" cy="351.286" r="7.5"/><circle cx="202.11" cy="337.829" r="7.5"/></g></svg>