<svg id="Capa_1" enable-background="new 0 0 512 512" height="512" viewBox="0 0 512 512" width="512" xmlns="http://www.w3.org/2000/svg"><g><path d="m422.257 437.045c52.491-34.606 77.457-98.549 62.302-159.567l-37.587-151.336c-2.43-9.786-6.141-19.16-11.003-27.892l-15.932 35.68c-.643 1.44-2.744 1.254-3.124-.276-3.444-13.865-10.368-26.652-20.236-36.982-13.643-14.282-30.481-24.628-49.158-30.309-1.178-.358-1.589-1.81-.755-2.715l21.139-22.927c-8.351-3.328-17.034-5.889-25.945-7.625-56.771-11.062-115.145-11.062-171.916 0-8.911 1.736-17.593 4.297-25.945 7.625l21.141 22.93c.834.904.422 2.354-.754 2.712-18.319 5.571-34.868 15.63-48.369 29.488-10.22 10.491-17.488 23.548-21.019 37.762l-.01.041c-.38 1.531-2.481 1.716-3.124.276l-15.933-35.68c-4.862 8.733-8.573 18.107-11.003 27.892l-37.587 151.336c-15.155 61.018 9.811 124.96 62.302 159.567l102.316 67.455h63.942 63.942z" fill="#fbf6ec"/><path d="m422.257 437.045c52.491-34.606 77.457-98.549 62.302-159.567l-37.587-151.336c-2.43-9.786-6.141-19.16-11.003-27.892l-15.932 35.68c-.641 1.435-2.742 1.262-3.121-.264-1.818-7.327-4.609-14.352-8.292-20.873l35.935 144.685c15.155 61.018-9.811 124.961-62.302 159.567l-72.022 47.483c-19.761 13.028-42.911 19.973-66.58 19.973h-81.934l30.336 20h127.883z" fill="#f9efda"/><path d="m288.348 203.858c-1.332-1.922-2.543-3.933-3.622-6.024-5.517-10.687-16.596-17.344-28.622-17.383-12.126-.039-23.287 6.675-28.863 17.443-1.069 2.064-2.266 4.051-3.581 5.951l32.356 19.528z" fill="#ecb780"/><path d="m65.845 417.443c-11.452 16.569-21.436 34.143-29.821 52.526l-15.75 34.531h171.783l-102.316-67.455c-8.75-5.769-16.735-12.353-23.896-19.602z" fill="#fbf6ec"/><path d="m475.974 469.968c-8.384-18.383-18.369-35.957-29.821-52.526-7.162 7.249-15.146 13.833-23.896 19.602l-102.316 67.456h171.783z" fill="#fbf6ec"/><path d="m89.741 437.045c-8.75-5.769-16.734-12.353-23.896-19.602-1.617 2.34-3.205 4.699-4.763 7.079l62.752 41.371c8.399 5.538 4.479 18.607-5.582 18.607h-88.856l-9.122 20h171.783z" fill="#f9efda"/><path d="m475.974 469.968c-8.384-18.383-18.369-35.957-29.821-52.526-5.627 5.695-11.761 10.98-18.376 15.781 2.881 5.501 5.615 11.084 8.196 16.745l3.543 7.767c5.713 12.526-3.442 26.765-17.21 26.765h-72.03l-30.336 20h171.783z" fill="#f9efda"/><path d="m357.657 221.443c-7.382 3.748-15.735 5.86-24.581 5.86-18.54 0-34.912-9.279-44.728-23.445l-32.333 19.514-32.356-19.528c-9.815 14.174-26.192 23.459-44.738 23.459-8.793 0-17.098-2.087-24.448-5.793-23.527-11.862-51.122 5.811-49.237 32.092.022.305.046.61.072.916.068.801.147 1.603.237 2.404l.007.06c4.022 35.821 29.088 65.758 63.645 76.012l22.472 6.668 1.538.373c41.588 10.085 84.985 10.083 126.572-.006l22.46-6.502c34.666-10.035 59.945-39.863 64.16-75.706.094-.802.178-1.604.25-2.406.082-.912.146-1.822.192-2.728 1.306-25.864-26.092-42.967-49.184-31.244z" fill="#f4d8bc"/><path d="m364.609 218.79c1.661 4.206 2.485 8.887 2.232 13.897-.046.906-.11 1.815-.192 2.728-.073.802-.156 1.604-.25 2.406-4.214 35.842-29.494 65.671-64.16 75.706l-22.46 6.502c-41.587 10.089-84.984 10.091-126.572.006l-1.538-.373-15.326-4.548c9.392 8.05 20.518 14.219 32.855 17.88l22.472 6.668 1.538.373c41.588 10.085 84.985 10.083 126.572-.006l22.46-6.502c34.666-10.035 59.945-39.863 64.16-75.706.094-.802.178-1.604.25-2.406.082-.912.146-1.822.192-2.728 1.176-23.304-20.95-39.495-42.233-33.897z" fill="#efc89d"/><path d="m91.961 133.928c.643 1.44 2.744 1.254 3.124-.276l.01-.041c3.53-14.214 10.798-27.271 21.019-37.762 13.501-13.858 30.051-23.917 48.369-29.488 1.177-.358 1.588-1.808.754-2.712l-37.682-40.87c-8.979-9.739-21.622-15.279-34.868-15.279h-2.165c-16.705 0-30.248 13.542-30.248 30.248-.992 14.338 1.554 28.7 7.414 41.824z" fill="#f4d8bc"/><path d="m396.676 96.671c9.869 10.33 16.793 23.117 20.236 36.982.38 1.531 2.481 1.716 3.124.276l24.273-54.358c5.86-13.123 8.406-27.486 7.414-41.824 0-16.705-13.542-30.247-30.247-30.247h-2.165c-13.247 0-25.89 5.54-34.869 15.279l-37.68 40.868c-.834.905-.423 2.357.755 2.715 18.678 5.681 35.516 16.027 49.159 30.309z" fill="#f4d8bc"/><path d="m451.724 37.748c0-16.705-13.542-30.248-30.247-30.248h-1.533c1.152 3.2 1.781 6.65 1.781 10.247.992 14.338-1.554 28.7-7.414 41.824l-16.911 37.868c9.484 10.193 16.154 22.69 19.513 36.213.38 1.531 2.481 1.716 3.124.276l24.273-54.358c5.86-13.122 8.406-27.484 7.414-41.822z" fill="#efc89d"/><path d="m306.683 192.556v4.761c0 4.143 3.358 7.5 7.5 7.5s7.5-3.357 7.5-7.5v-4.761c0-2.638 1.779-4.957 4.327-5.64l44.742-11.988c4.001-1.071 6.375-5.185 5.304-9.186-1.072-4-5.185-6.377-9.186-5.303l-44.742 11.988c-9.094 2.437-15.445 10.715-15.445 20.129z"/><path d="m197.848 204.816c4.142 0 7.5-3.357 7.5-7.5v-4.761c0-9.414-6.351-17.691-15.445-20.128l-44.742-11.988c-3.997-1.072-8.113 1.302-9.186 5.303-1.072 4.001 1.303 8.114 5.304 9.186l44.741 11.988c2.548.683 4.327 3.002 4.327 5.64v4.761c.001 4.142 3.358 7.499 7.501 7.499z"/><path d="m263.604 154.631v-29.968c0-4.143-3.358-7.5-7.5-7.5s-7.5 3.357-7.5 7.5v29.968c0 4.143 3.358 7.5 7.5 7.5s7.5-3.358 7.5-7.5z"/><path d="m195.475 375.223c-.803-4.063-4.75-6.711-8.813-5.902-4.063.804-6.706 4.749-5.902 8.813 8.959 45.311 69.22 78.319 71.78 79.703 2.206 1.184 4.861 1.217 7.128 0 2.561-1.384 62.82-34.393 71.78-79.703.804-4.063-1.839-8.009-5.902-8.813-4.065-.81-8.009 1.839-8.813 5.902-4.346 21.974-24.589 41.449-41.198 54.136 4.397-11.093 8.559-25.062 10.069-40.599.401-4.122-2.616-7.789-6.739-8.19-4.121-.404-7.79 2.617-8.19 6.739-1.976 20.319-9.201 37.964-14.581 48.702-5.374-10.709-12.579-28.31-14.562-48.702-.401-4.122-4.063-7.146-8.19-6.739-4.123.401-7.14 4.068-6.739 8.19 1.511 15.538 5.672 29.507 10.069 40.599-16.61-12.688-36.852-32.162-41.197-54.136z"/><path d="m74.161 279.509c2.089 3.569 6.681 4.78 10.261 2.686 5.425-3.175 11.046-5.996 16.816-8.454 3.493 12.247 9.314 23.537 17.01 33.332-10.381 9.178-19.626 19.647-27.411 31.159-2.32 3.431-1.419 8.094 2.012 10.414 3.417 2.312 8.084 1.433 10.414-2.012 7.132-10.546 15.611-20.13 25.136-28.52 10.776 10.039 23.912 17.692 38.664 22.07 25.196 7.476 22.546 6.696 22.836 6.766 44.48 10.813 89.064 10.697 131.647.368.258-.064 5.512-1.589 18.394-5.317 3.979-1.151 6.271-5.311 5.119-9.289-1.152-3.979-5.309-6.274-9.29-5.119l-17.917 5.187c-39.782 9.623-81.935 9.923-124.231-.361l-22.291-6.614c-11.726-3.479-22.244-9.406-31.034-17.158 10.966-7.868 22.979-14.282 35.675-18.963-.466 3.19-.846 6.401-1.138 9.629-.395 4.371 3.039 8.175 7.479 8.175 3.837 0 7.109-2.93 7.461-6.825 1.1-12.173 3.174-20.207 3.319-21.042 5.083-22.411 15.193-44.474 30.868-64.124 1.191-1.493.517-.666 1.508-1.797l23.046 13.909v9.376c0 3.286-1.222 6.431-3.441 8.854-8.997 9.826-15.955 21.124-20.68 33.581l-5.22 13.763c-3.344 8.814-9.769 16.106-18.09 20.532-3.657 1.945-5.045 6.486-3.1 10.144 1.948 3.664 6.492 5.043 10.143 3.101 11.534-6.134 20.438-16.24 25.072-28.456l5.22-13.763c4.027-10.616 9.948-20.251 17.597-28.639 7.65 8.389 13.57 18.023 17.596 28.639l5.221 13.763c4.634 12.216 13.538 22.322 25.072 28.456 3.658 1.945 8.198.557 10.143-3.101 1.945-3.657.557-8.198-3.1-10.144-8.322-4.426-14.746-11.718-18.09-20.532l-5.22-13.763c-4.725-12.455-11.682-23.754-20.68-33.581-2.22-2.425-3.442-5.568-3.442-8.854v-9.376l23.025-13.896c.314.358.632.713.954 1.063 20.366 25.529 31.954 54.801 34.763 85.888.352 3.896 3.624 6.825 7.461 6.825 4.441 0 7.873-3.806 7.479-8.175-.292-3.228-.671-6.438-1.138-9.629 12.772 4.709 24.851 11.171 35.87 19.102-2.167 1.929-4.443 3.751-6.824 5.453-3.37 2.409-4.148 7.094-1.738 10.463 2.414 3.375 7.099 4.145 10.463 1.738 3.518-2.516 6.844-5.251 9.964-8.182 9.459 8.356 17.883 17.891 24.974 28.377 2.328 3.442 6.994 4.326 10.414 2.012 3.431-2.32 4.332-6.983 2.012-10.414-7.755-11.468-16.959-21.902-27.292-31.054 7.729-9.909 13.505-21.262 16.945-33.414 5.751 2.453 11.354 5.266 16.762 8.431 3.583 2.096 8.174.881 10.261-2.686 2.092-3.575.89-8.169-2.686-10.262-6.857-4.012-13.997-7.51-21.345-10.479.227-1.919.396-3.788.493-5.703 1.589-31.464-31.678-52.722-60.068-38.31-18.542 9.41-41.15 5.41-55.4-9.785l-4.629-5.802c-.484-.608-1.953-3.05-2.843-4.774-1.833-3.551-4.154-6.742-6.859-9.51 8.057-3.549 14.725-9.988 18.459-18.317l11.456-25.557c1.694-3.779.004-8.217-3.776-9.911-3.78-1.693-8.217-.004-9.912 3.776l-11.456 25.556c-3.409 7.605-10.998 12.52-19.332 12.52h-27.735c-8.334 0-15.923-4.914-19.332-12.519l-11.456-25.557c-1.694-3.78-6.133-5.469-9.912-3.776-3.78 1.694-5.47 6.132-3.776 9.911l11.456 25.558c3.713 8.283 10.329 14.696 18.326 18.257-2.743 2.794-5.099 6.022-6.962 9.621-.878 1.696-1.871 3.354-2.952 4.932l-4.266 5.349c-14.236 15.399-36.937 19.451-55.512 10.087-28.573-14.406-62.869 6.949-60.015 40.342.105 1.228.233 2.449.374 3.605-7.354 2.971-14.5 6.472-21.363 10.487-3.576 2.09-4.778 6.684-2.686 10.259zm99.647-4.983c-15.714 5.442-30.526 13.29-43.879 23.116-6.668-8.53-11.659-18.396-14.561-29.105 19.992-6.253 41.259-8.367 62.132-5.989l4.517.514c-.981 3.153-1.874 6.337-2.676 9.548zm82.207-59.914-22.084-13.328c4.302-8.257 12.779-13.403 22.148-13.334 9.678.031 18.096 5.552 21.995 13.349zm126.224 83.131c-13.389-9.873-28.248-17.756-44.016-23.217l-5.533-1.916c-.802-3.211-1.695-6.395-2.676-9.548l4.517-.515c20.893-2.378 42.183-.257 62.193 6.01-2.844 10.62-7.79 20.547-14.485 29.186zm-21.187-69.612c18.14-9.209 39.303 4.272 38.298 24.177-.023.448-.051.896-.084 1.346-21.432-6.425-44.139-8.546-66.433-6.01l-8.049.917c-2.215-5.382-4.702-10.653-7.452-15.796 13.976 3.681 29.61 2.527 43.72-4.634zm-209.954.077c13.842 6.978 29.404 8.297 43.605 4.547-2.752 5.146-5.24 10.42-7.457 15.805l-8.049-.917c-22.296-2.539-45.002-.417-66.435 6.009-1.711-21.199 20.026-34.676 38.336-25.444z"/><circle cx="225.242" cy="240.406" r="7.5"/><circle cx="213.29" cy="264.153" r="7.5"/><circle cx="286.788" cy="240.406" r="7.5"/><circle cx="298.74" cy="264.153" r="7.5"/><path d="m13.451 501.388c-2.257 4.946 1.352 10.612 6.823 10.612h471.449c5.439 0 9.095-5.635 6.824-10.612l-15.75-34.532c-7.69-16.859-16.78-33.197-27.062-48.646 34.49-37.88 48.829-91.296 36.102-142.539l-37.587-151.336c-2.273-9.153-5.61-18.012-9.934-26.386l6.841-15.32c1.689-3.782-.008-8.217-3.79-9.906-3.784-1.687-8.217.008-9.906 3.791-2.958 6.624-17.225 38.574-18.215 40.792-3.219-7.357-7.397-14.24-12.419-20.441l13.889-11.115c3.234-2.588 3.758-7.308 1.17-10.542-2.587-3.232-7.307-3.758-10.542-1.169l-14.89 11.916c-2.413-2.217-4.911-4.333-7.487-6.344l10.085-22.161c1.716-3.77.05-8.217-3.72-9.933-3.771-1.719-8.218-.052-9.933 3.72l-8.999 19.774c-5.768-3.439-11.816-6.4-18.078-8.838 13.313-14.44-8.577 9.302 31.633-34.31 7.539-8.175 18.238-12.863 29.356-12.863h2.165c12.543 0 22.748 10.204 22.748 22.747 0 .783.192 2.331.208 5.654.021 4.13 3.375 7.463 7.499 7.463 4.157 0 7.522-3.38 7.501-7.537-.01-1.939-.08-3.905-.209-5.847-.144-20.692-17.021-37.48-37.747-37.48h-2.165c-15.295 0-30.015 6.45-40.383 17.695l-13.108 14.218c-7.302-2.624-14.825-4.698-22.428-6.18-57.99-11.3-116.796-11.3-174.785 0-7.603 1.482-15.126 3.555-22.428 6.18l-13.109-14.218c-10.369-11.245-25.088-17.695-40.384-17.695h-2.165c-20.725 0-37.602 16.787-37.746 37.479-1.026 15.427 1.761 31.033 8.065 45.149l6.841 15.32c-4.324 8.374-7.662 17.232-9.934 26.386l-6.953 27.994c-1.172 4.72 2.398 9.31 7.285 9.31 3.365 0 6.425-2.281 7.273-5.694 7.368-29.666 7.766-32.149 10.549-39.589 9.906 22.184 9.213 20.533 9.213 20.633 1.482 3.317 4.774 5.423 8.359 5.423 4.183 0 7.87-2.842 8.901-6.992 3.23-13.004 9.552-24.287 19.168-34.394 12.495-12.805 28.097-22.31 45.126-27.489 6.484-1.975 8.651-10.017 4.083-14.971l-13.425-14.561c4.653-1.432 9.384-2.619 14.15-3.548 56.086-10.928 112.961-10.928 169.047 0 4.766.929 9.496 2.116 14.15 3.548l-13.424 14.56c-4.577 4.964-2.386 13.003 4.087 14.975 17.4 5.292 33.278 15.083 45.918 28.313 8.87 9.285 15.226 20.907 18.381 33.611 1.012 4.074 4.677 6.949 8.891 6.949 3.584 0 6.877-2.105 8.36-5.425l9.213-20.632c2.973 7.949.28-1.755 41.183 162.931 14.361 57.821-9.41 118.703-59.151 151.497l-100.44 66.217h-123.384l-100.438-66.217c-49.741-32.794-73.512-93.676-59.151-151.497l21.99-88.538c.999-4.02-1.451-8.088-5.471-9.087-4.018-.995-8.088 1.451-9.086 5.472l-21.99 88.538c-12.728 51.243 1.611 104.658 36.101 142.539-10.282 15.449-19.372 31.786-27.062 48.645zm85.356-370.523.002.004v.002zm36.955-59.951-8.954-19.677c-1.716-3.771-6.163-5.438-9.933-3.72-3.77 1.716-5.436 6.163-3.72 9.933l10.03 22.04c-2.597 2.019-5.115 4.146-7.545 6.374l-14.777-11.825c-3.234-2.59-7.954-2.064-10.542 1.169-2.588 3.234-2.064 7.954 1.17 10.542l13.777 11.025c-5.07 6.261-9.277 13.173-12.511 20.542-.998-2.234-15.244-34.138-18.221-40.805-5.339-11.956-7.684-25.183-6.781-38.248.012-.172.018-.345.018-.518.001-12.542 10.205-22.746 22.748-22.746h2.165c11.119 0 21.818 4.688 29.355 12.863 63.063 68.397-12.926-14.019 31.634 34.31-6.2 2.415-12.193 5.343-17.913 8.741zm290.624 372.393c6.586-4.342 12.76-9.129 18.5-14.302 16.135 24.718 23.289 41.934 35.174 67.995h-135.117zm-359.273-14.303c5.74 5.173 11.914 9.96 18.5 14.302l81.442 53.694h-135.117c11.989-26.288 19.046-43.287 35.175-67.996z"/></g></svg>