<svg id="Capa_1" enable-background="new 0 0 512.009 512.009" height="512" viewBox="0 0 512.009 512.009" width="512" xmlns="http://www.w3.org/2000/svg"><g><path d="m96.034 202.203c26.386-44.155 60.083-68.626 90.811-81.934l-77.001-72.284c-5.592-5.25-12.974-8.172-20.645-8.172-16.659 0-30.164 13.505-30.164 30.164 0 23.313 4.261 46.43 12.572 68.212z" fill="#fbf6ec"/><path d="m415.976 202.203c-26.386-44.155-60.083-68.626-90.811-81.934l77.001-72.284c5.592-5.25 12.974-8.172 20.645-8.172 16.659 0 30.164 13.505 30.164 30.164 0 23.313-4.261 46.43-12.572 68.212z" fill="#f9efda"/><path d="m333.809 313.799-44.944-5.778-32.859 27.766v9.447c0 13.599 10.384 24.949 23.929 26.155l63.803 5.681c10.285.916 19.141-7.187 19.141-17.513v-12.712c-.001-16.759-12.448-30.909-29.07-33.046z" fill="#fbf6ec"/><path d="m178.201 313.799c-16.622 2.137-29.07 16.288-29.07 33.046v12.712c0 10.326 8.856 18.428 19.141 17.513l63.803-5.681c13.546-1.206 23.929-12.555 23.929-26.155v-9.447l-32.859-27.766z" fill="#fbf6ec"/><path d="m279.934 371.388c-13.546-1.206-23.929-12.555-23.929-26.155 0 13.599-10.383 24.949-23.929 26.155l-59.133 5.265c20.977 25.736 69.259 43.142 83.063 43.142s62.085-17.406 83.063-43.142z" fill="#f9efda"/><path d="m448.639 373.847-10.463-29.267-75.943 19.72c-2.216 7.937-9.85 13.539-18.495 12.769l-4.67-.416c-20.977 25.736-69.259 43.142-83.063 43.142s-62.085-17.406-83.063-43.142l-4.67.416c-8.645.77-16.281-4.833-18.496-12.771 0 .001 0 .002.001.002l-75.943-19.72-10.463 29.267c-3.356 9.387-.413 19.869 7.338 26.138l-8.327 37.253c-3.717 16.632-.608 34.06 8.632 48.38l12.184 18.882 345.605.01 12.191-18.892c9.24-14.32 12.35-31.748 8.632-48.38l-8.327-37.253c7.753-6.269 10.696-16.752 7.34-26.138z" fill="#f4e2c1"/><path d="m449.627 437.237-8.327-37.253c7.751-6.268 10.694-16.751 7.339-26.138l-10.463-29.267-30.059 7.805.522 1.461c2.233 6.245 1.677 12.975-1.227 18.626-3.619 7.043-4.391 15.211-2.663 22.939l4.878 21.825c3.718 16.632.608 34.06-8.632 48.38-7.6 11.777-20.658 18.892-34.674 18.891l-294.698-.006c-.274.504-.334.613-.609 1.117l12.184 18.882 345.605.01 12.191-18.892c9.241-14.32 12.351-31.748 8.633-48.38z" fill="#f4ddb1"/><path d="m149.131 359.556v-12.712c0-16.759 12.448-30.909 29.07-33.046l44.944-5.778 32.859 27.766 32.859-27.766 44.944 5.778c16.622 2.137 29.07 16.288 29.07 33.046v12.712c0 1.647-.226 3.237-.646 4.743l92.435-24.002c2.349-.61 3.893-2.87 3.581-5.277-26.707-206.262-158.132-229.779-202.244-229.779-44.113 0-175.538 23.517-202.244 229.779-.312 2.407 1.232 4.667 3.581 5.277l92.435 24.002c-.418-1.506-.644-3.096-.644-4.743z" fill="#f1d59d"/><path d="m149.131 354.518-94.685-24.586c-.235 1.684-.464 3.38-.685 5.088-.312 2.407 1.232 4.667 3.581 5.277l92.435 24.002c-.42-1.506-.646-3.096-.646-4.743z" fill="#efcb84"/><path d="m458.249 335.016c-18.731-144.657-88.969-199.427-144.471-219.24 40.379 26.719 80.492 75.925 98.859 165.429 4.325 21.076-8.613 41.856-29.438 47.264l-22.738 5.904c1.562 3.865 2.417 8.079 2.417 12.472v12.712c0 1.647-.226 3.237-.646 4.743l92.435-24.002c2.351-.611 3.893-2.874 3.582-5.282z" fill="#efcb84"/><path d="m256.005 335.786-32.859-27.766 2.912-2.142c17.815-13.101 42.079-13.101 59.894 0l2.912 2.142z" fill="#ecb780"/><path d="m465.686 334.057c-6.796-52.487-20.646-96.827-41.376-132.661l15.139-39.678c1.477-3.87-.463-8.204-4.333-9.681-3.867-1.477-8.204.462-9.681 4.333l-11.129 29.167c-19.41-28.243-44.863-51.675-75.928-67.389l2.42-2.272h11.272c14.146 0 27.445 5.509 37.448 15.513 2.931 2.929 7.678 2.928 10.607 0 2.929-2.93 2.929-7.678 0-10.607-10.073-10.072-22.751-16.594-36.514-18.935 10.714-2.939 22.286-2.415 32.687 1.501 3.877 1.459 8.202-.501 9.661-4.378 1.459-3.876-.501-8.202-4.378-9.661-8.918-3.356-18.509-4.77-27.994-4.214l33.707-31.642c4.219-3.96 9.728-6.141 15.512-6.141 12.497 0 22.664 10.167 22.664 22.664 0 18.147-2.679 36.151-7.96 53.511-1.465 4.814 2.143 9.686 7.178 9.686 3.215 0 6.188-2.084 7.172-5.318 5.714-18.777 8.61-38.25 8.61-57.878 0-10.478-4.301-19.969-11.23-26.804l10.26-10.082c2.954-2.903 2.994-7.652.091-10.606-2.905-2.954-7.653-2.993-10.606-.091l-12.646 12.432c-2.625-1.014-5.391-1.742-8.26-2.145l19.877-19.877c2.929-2.93 2.929-7.678 0-10.607-2.929-2.927-7.677-2.929-10.607 0l-40.427 40.426c-7.579 7.114-64.182 60.251-73.314 68.823-29.645-11.969-55.279-13.703-67.602-13.703-10.865 0-37.092 1.484-67.564 13.739-8.607-8.08-67.099-62.989-73.376-68.882l-40.404-40.404c-2.929-2.928-7.678-2.928-10.606 0-2.929 2.93-2.929 7.678 0 10.607l19.877 19.877c-2.869.403-5.635 1.132-8.261 2.145l-12.647-12.431c-2.954-2.904-7.703-2.863-10.606.091-2.904 2.954-2.863 7.703.091 10.606l10.256 10.082c-6.929 6.834-11.23 16.326-11.23 26.804 0 24.316 4.396 48.166 13.064 70.886l23.139 60.642c-2.917 5.053-5.704 10.279-8.358 15.676-1.828 3.717-.296 8.212 3.421 10.04 3.717 1.827 8.212.296 10.04-3.421 22.231-45.211 55.897-80.815 102.225-99.028v48.211c0 11.545 2.765 23.089 7.995 33.384l3.436 6.763c1.323 2.604 3.958 4.104 6.692 4.104 5.539 0 9.229-5.883 6.681-10.899l-3.436-6.763c-3.996-7.864-6.185-16.644-6.357-25.463l7.162 3.985c2.821 1.57 4.777 4.291 5.367 7.465l.942 5.07c.671 3.609 3.822 6.131 7.366 6.131 4.708 0 8.237-4.269 7.382-8.871l-.942-5.069c-1.408-7.583-6.081-14.082-12.821-17.833l-14.467-8.049v-37.296c15.457-4.522 28.927-6.166 38.437-6.687v57.059c0 4.143 3.358 7.5 7.5 7.5 4.143 0 7.5-3.357 7.5-7.5v-57.041c9.12.535 22.673 2.192 38.437 6.865v37.099l-14.465 8.048c-6.741 3.75-11.414 10.251-12.822 17.835l-.941 5.068c-.856 4.611 2.681 8.871 7.383 8.871 3.543 0 6.694-2.521 7.365-6.131l.941-5.069c.589-3.176 2.545-5.896 5.366-7.466l7.161-3.985c-.172 8.819-2.361 17.599-6.356 25.462l-3.437 6.763c-2.549 5.017 1.143 10.899 6.681 10.899 2.733 0 5.369-1.5 6.692-4.104l3.437-6.763c5.229-10.293 7.994-21.837 7.994-33.384 0-14.176 0-34.054 0-47.963 50.741 20.088 115.282 72.557 133.56 208.612-18.901 4.908-2.449.636-18.717 4.86-3.799-29.754-10.475-44.749-18.112-59.665-7.441-14.532-18.854-26.588-33.004-34.862-3.575-2.088-8.169-.887-10.261 2.688-2.091 3.576-.887 8.17 2.688 10.261 11.676 6.827 21.09 16.769 27.225 28.749 7.13 13.925 13.347 27.955 16.819 56.631l-46.762 12.142v-7.591c0-20.47-15.311-37.875-35.613-40.484l-43.019-5.531-1.35-.993c-20.57-15.127-48.211-15.127-68.781 0l-1.35.992c-20.996 2.699-43.136 5.531-43.02 5.531-17.607 2.263-31.458 15.652-34.827 32.518-1.029 5.157-.786 8.675-.786 15.557l-46.762-12.142c3.473-28.676 9.69-42.706 16.82-56.631 6.135-11.98 15.548-21.922 27.224-28.749 3.576-2.091 4.779-6.685 2.688-10.261s-6.684-4.776-10.26-2.688c-14.15 8.274-25.563 20.33-33.003 34.862-7.637 14.916-14.313 29.909-18.112 59.665l-18.716-4.86c3.714-27.638 9.556-53.198 17.374-76.008 1.343-3.918-.745-8.184-4.663-9.526-3.919-1.346-8.184.745-9.526 4.663-8.365 24.406-14.546 51.759-18.371 81.298-.794 6.14 3.133 11.943 9.135 13.499l8.554 2.221-7.703 21.545c-3.872 10.827-1.374 22.796 6.159 31.152l-7.404 33.127c-4.128 18.469-.611 38.181 9.65 54.082l12.184 18.883c1.381 2.141 3.754 3.434 6.302 3.434l345.606.01c2.548 0 4.921-1.293 6.302-3.434l12.19-18.893c4.288-6.646 7.42-13.911 9.308-21.593.988-4.022-1.471-8.085-5.493-9.073-4.024-.987-8.085 1.471-9.073 5.493-1.49 6.063-3.961 11.796-7.345 17.04l-9.975 15.459-116.813-.003c7.406-4.656 14.304-10.346 20.536-17 2.831-3.023 2.676-7.77-.349-10.601-3.023-2.831-7.77-2.675-10.601.349-34.041 36.35-88.928 36.358-122.974 0-2.831-3.024-7.577-3.181-10.601-.349-3.023 2.831-3.179 7.577-.348 10.601 6.23 6.653 13.126 12.342 20.53 16.998l-116.815-.003-9.969-15.449c-8.097-12.548-10.872-28.104-7.615-42.678l5.69-25.456c13.496 10.913 26.886 20.087 44.227 28.656 3.725 1.843 8.218.299 10.046-3.4 1.835-3.714.313-8.212-3.401-10.047-23.5-11.613-36.758-23.087-50.77-34.417-5.729-4.746-7.193-11.873-5.061-17.837l8.155-22.809c98.16 25.488 53.526 13.899 65.612 17.037 4.215 8.599 12.948 14.038 22.527 14.038 1.282 0 2.125-.09 3.053-.173 23.945 26.309 71.514 42.831 86.225 42.831s62.279-16.522 86.225-42.831c1.081.096 1.818.173 3.053.173 9.589 0 18.314-5.443 22.527-14.038l65.612-17.036 8.154 22.809c2.146 6 .637 13.13-5.06 17.837-14.86 12.016-27.455 22.894-50.77 34.417-3.713 1.835-5.235 6.333-3.4 10.047 1.83 3.701 6.323 5.242 10.047 3.4 17.516-8.657 30.91-17.889 44.226-28.656l4.427 19.805c.902 4.035 4.904 6.589 8.955 5.684 4.043-.903 6.587-4.913 5.684-8.955l-6.141-27.476c7.531-8.356 10.029-20.326 6.158-31.152l-7.702-21.544 8.553-2.221c6.002-1.559 9.929-7.363 9.134-13.502zm-367.954-148.441-19.117-50.1c-8.015-21.007-12.079-43.057-12.079-65.539 0-7.709 3.883-15.217 11.424-19.676 8.498-4.873 19.358-3.761 26.719 3.121 2.639 2.501-10.932-10.263 33.74 31.673-9.484-.556-19.076.858-27.994 4.214-3.876 1.459-5.836 5.785-4.377 9.661 1.459 3.877 5.785 5.837 9.661 4.378 10.401-3.915 21.974-4.44 32.686-1.501-13.763 2.341-26.44 8.863-36.512 18.936-2.929 2.929-2.929 7.678 0 10.606s7.678 2.929 10.606-.001c10.003-10.003 23.302-15.512 37.449-15.512h11.271l2.442 2.292c-31.183 15.709-56.354 38.868-75.919 67.448zm178.705 123.086-20.433 17.266-20.433-17.266c12.776-6.925 28.095-6.926 40.866 0zm-119.399 53.718c-.559-2.157-.407-1.333-.407-15.576 0-12.975 9.711-23.96 22.526-25.607l41.669-5.357 27.678 23.389v5.966c0 9.784-7.349 17.816-17.095 18.684l-63.803 5.681c-5.083.457-9.312-2.891-10.568-7.18zm98.967 49.875c-9.311 0-43.831-11.573-66.21-29.613l42.946-3.824c9.487-.845 17.712-5.463 23.265-12.311 5.552 6.848 13.777 11.466 23.265 12.311l42.945 3.824c-22.38 18.041-56.9 29.613-66.211 29.613zm88.397-42.697-63.803-5.681c-9.745-.867-17.095-8.899-17.095-18.684v-5.966l27.678-23.389 41.669 5.357c12.842 1.651 22.525 12.66 22.525 25.607 0 13.656.013 12.939-.034 13.55-.436 5.483-5.301 9.724-10.94 9.206z"/><circle cx="288.604" cy="340.682" r="7.5"/><circle cx="312.942" cy="344.58" r="7.5"/><circle cx="337.279" cy="348.478" r="7.5"/><circle cx="223.406" cy="340.682" r="7.5"/><circle cx="199.068" cy="344.58" r="7.5"/><circle cx="174.731" cy="348.478" r="7.5"/><path d="m301.855 259.61v-6.361c0-4.665 3.146-8.766 7.652-9.974l59.791-16.021c4.001-1.071 6.375-5.185 5.303-9.186s-5.185-6.379-9.186-5.303l-59.791 16.021c-11.051 2.961-18.77 13.021-18.77 24.462v6.361c0 4.143 3.357 7.5 7.5 7.5s7.501-3.357 7.501-7.499z"/><path d="m217.654 267.11c4.142 0 7.5-3.357 7.5-7.5v-6.361c0-11.441-7.719-21.501-18.771-24.462l-59.791-16.021c-3.995-1.075-8.113 1.302-9.186 5.303-1.072 4.001 1.303 8.114 5.304 9.186l59.791 16.021c4.505 1.208 7.652 5.309 7.652 9.974v6.361c.001 4.141 3.359 7.499 7.501 7.499z"/></g></svg>