<svg id="Capa_1" enable-background="new 0 0 512 512" height="512" viewBox="0 0 512 512" width="512" xmlns="http://www.w3.org/2000/svg"><g><path d="m61.927 83.984c2.291 27.705 14.337 53.698 33.994 73.355 2.363 2.363 6.331 1.809 7.956-1.111l7.42-13.333c15.267-27.432 39.982-47.708 68.781-57.674 3.657-1.266 4.626-5.972 1.726-8.535l-12.497-11.042c-3.233-2.856-5.374-6.747-6.057-11.006l-.352-2.192c-4.156-25.898-26.504-44.946-52.735-44.946-13.323 0-26.101 5.293-35.522 14.714-10.441 10.441-15.76 24.947-14.543 39.662z" fill="#f1f1f4"/><path d="m400.702 142.896 7.421 13.333c1.625 2.92 5.593 3.474 7.956 1.111l.001-.001c19.657-19.656 31.702-45.647 33.993-73.351l1.829-22.113c1.217-14.716-4.102-29.221-14.543-39.663-9.421-9.419-22.199-14.712-35.522-14.712h-.001c-26.23 0-48.578 19.047-52.735 44.945l-.352 2.195c-.684 4.259-2.825 8.149-6.057 11.005l-12.497 11.042c-2.9 2.563-1.931 7.269 1.726 8.535 28.799 9.966 53.514 30.242 68.781 57.674z" fill="#f1f1f4"/><path d="m437.359 22.214c-9.393-9.393-22.123-14.682-35.404-14.713 7.374 9.784 10.969 22.005 9.946 34.375l-1.829 22.113c-1.799 21.753-9.613 42.45-22.402 59.853 4.871 5.878 9.242 12.246 13.031 19.054l7.421 13.333c1.625 2.92 5.593 3.474 7.956 1.111 19.656-19.656 31.702-45.647 33.993-73.351l1.829-22.113c1.219-14.715-4.1-29.221-14.541-39.662z" fill="#dfdde2"/><path d="m489.767 483.269c-3.939-41.061-12.439-81.549-25.336-120.716 3.746-6.311 6.735-13.088 8.87-20.195 5.73-19.069 2.702-39.698-8.265-56.317l-24.482-37.099c-7.211 20.831-24.23 36.767-45.489 42.594l-41.932 11.494.971-3.972c3.6-14.721-6.133-28.972-20.42-31.569l-4.267-31.55c-5.064-37.442-20.603-72.691-44.827-101.686l-19.822-23.726c-4.568-5.467-12.97-5.467-17.538 0l-19.823 23.727c-24.223 28.995-39.762 64.243-44.826 101.684l-4.267 31.551c-14.287 2.598-24.02 16.849-20.42 31.569l.971 3.972-41.932-11.494c-21.26-5.827-38.279-21.763-45.489-42.594l-24.482 37.099c-10.967 16.619-13.994 37.248-8.265 56.317 2.136 7.108 5.123 13.884 8.87 20.195-12.897 39.167-21.396 79.655-25.336 120.716l-2.035 21.231h471.608z" fill="#f1f1f4"/><path d="m256 300.93-35.812-34.541c-2.101-2.027-1.353-5.554 1.39-6.553 22.234-8.096 46.609-8.096 68.843 0 2.743.999 3.491 4.526 1.39 6.553z" fill="#f9c6da"/><path d="m419.015 154.296c-.959 1.03-1.937 2.045-2.935 3.043l-.001.001c-2.363 2.363-6.331 1.809-7.956-1.111l-7.421-13.333c-15.28-27.455-40.025-47.742-68.855-57.699-3.625-1.252-4.526-5.97-1.652-8.509l2.527-2.233c-13.332-4.31-27.435-6.594-41.869-6.594h-69.709c-14.433 0-28.536 2.284-41.868 6.594l2.527 2.233c2.874 2.539 1.973 7.257-1.653 8.509-28.83 9.957-53.574 30.244-68.855 57.699l-7.42 13.333c-1.625 2.92-5.593 3.474-7.956 1.111-.998-.998-1.977-2.013-2.935-3.044l-20.788 37.35c-8.076 14.51-9.587 31.774-4.155 47.466l3.403 9.83c7.211 20.831 24.23 36.767 45.489 42.594l41.932 11.494-.971-3.972c-3.6-14.721 6.133-28.972 20.42-31.569l4.267-31.551c5.064-37.441 20.602-72.689 44.826-101.684l19.866-23.779c4.545-5.44 12.906-5.44 17.451 0l19.865 23.778c24.224 28.995 39.763 64.244 44.827 101.686l4.267 31.55c14.287 2.598 24.02 16.849 20.42 31.569l-.971 3.972 41.932-11.494c21.26-5.827 38.279-21.764 45.49-42.595l3.402-9.829c5.432-15.693 3.921-32.956-4.155-47.467z" fill="#f1d59d"/><path d="m443.957 239.113c5.432-15.693 3.921-32.956-4.155-47.467l-20.787-37.35c-.959 1.03-1.937 2.045-2.935 3.043-2.363 2.363-6.331 1.809-7.956-1.111l-7.421-13.333c-11.12-19.98-27.253-36.164-46.324-47.333 6.016 7.04 11.363 14.751 15.915 23.063l29.509 53.021c8.076 14.51 9.587 31.774 4.155 47.467-2.345 6.773-1.335 14.257 2.72 20.168l21.468 31.291c5.384-6.281 9.628-13.591 12.41-21.63z" fill="#efcb84"/><path d="m428.145 270.571 2.72 6.365c6.021 14.279 6.969 30.339 2.437 45.422-.712 2.369-1.519 4.702-2.417 6.992-3.815 9.734-4.006 20.493-1.062 30.525 4.621 15.747 8.193 30.489 10.979 43.962 8.604 41.618-23.075 80.663-65.573 80.663h-353.114l-1.919 20h471.608l-2.037-21.231c-3.939-41.061-12.439-81.549-25.336-120.716 3.747-6.311 6.735-13.088 8.87-20.195 5.729-19.069 2.702-39.698-8.265-56.317l-24.482-37.099c-2.782 8.039-7.026 15.348-12.409 21.629z" fill="#dfdde2"/><path d="m295.95 369.04c3.443-2.303 4.368-6.961 2.065-10.403-2.303-3.443-6.961-4.369-10.403-2.065-19.093 12.769-44.133 12.768-63.225 0-3.44-2.302-8.1-1.379-10.403 2.065-2.303 3.442-1.378 8.101 2.065 10.403 24.14 16.145 55.761 16.145 79.901 0z"/><path d="m12.73 503.783c-.422 4.397 3.035 8.217 7.466 8.217h471.607c4.417 0 7.889-3.807 7.466-8.217l-2.037-21.229c-3.879-40.431-12.167-80.506-24.643-119.171 3.277-5.992 5.928-12.323 7.894-18.866 6.389-21.26 3.04-44.079-9.188-62.606l-22.444-34.011 2.193-6.334c6.122-17.688 4.413-37.213-4.689-53.567l-18.2-32.702c2.498-2.94 4.856-5.993 7.067-9.146 1.27.978-1.705-1.372 31.136 24.704 3.239 2.569 7.956 2.04 10.538-1.21 2.575-3.244 2.033-7.962-1.21-10.538-31.383-24.918-30.467-24.217-32.563-25.796 2.825-5.275 5.275-10.751 7.324-16.376l29.177 17.698c3.555 2.159 8.165 1.003 10.302-2.522 2.148-3.542 1.02-8.154-2.522-10.302-42.625-25.855-30.17-18.309-32.56-19.749.9-3.929 1.61-7.906 2.123-11.917.524-4.108-2.381-7.865-6.489-8.39-4.102-.524-7.865 2.38-8.39 6.489-.277 2.169-.62 4.327-1.027 6.471-25.275-11.768-53.656-16.129-81.424-12.303l-11.136 1.533c-3.333-1.599-6.741-3.064-10.219-4.389l9.38-8.288c4.521-3.996 7.539-9.479 8.495-15.436l.353-2.196c5.876-36.604 50.469-51.199 75.549-26.116 7.055 7.054 11.438 16.409 12.342 26.343.375 4.124 4.007 7.166 8.148 6.789 4.125-.375 7.165-4.023 6.789-8.148-2.659-29.199-27.093-52.502-57.501-52.502-30.08 0-55.373 21.557-60.141 51.256l-.353 2.196c-.407 2.537-1.692 4.871-3.617 6.573l-6.822 6.028c-9.223-2.677-18.719-4.427-28.289-5.211-4.097-.344-7.748 2.733-8.087 6.862-.339 4.128 2.733 7.749 6.862 8.087 6.628.543 13.217 1.605 19.684 3.167-.663 5.721 2.608 11.348 8.394 13.351 52.512 18.173 67.721 61.869 72.101 67.566 3.091 5.551 9.613 7.696 15.153 5.724l16.525 29.693c7.029 12.63 8.35 27.707 3.621 41.366l-3.401 9.829c-6.405 18.503-21.503 32.639-40.385 37.814l-27.452 7.525c-1.103-.343-2.211-.672-3.325-.984-.783-13.082-9.392-24.677-21.851-29.253-3.705-27.393-4.602-37.193-9.069-53.571l23.555-6.312c4.001-1.071 6.375-5.185 5.303-9.186s-5.182-6.379-9.186-5.303l-24.143 6.469c-8.209-23.313-20.548-45.067-36.568-64.243l-19.865-23.778c-7.553-9.038-21.427-9.018-28.963 0l-19.866 23.779c-16.02 19.176-28.359 40.929-36.567 64.243l-24.143-6.469c-4.001-1.076-8.114 1.302-9.186 5.303s1.302 8.114 5.303 9.186l23.554 6.312c-4.495 16.481-5.405 26.481-9.069 53.571-12.449 4.572-21.068 16.16-21.851 29.253-1.114.313-2.222.641-3.326.985l-27.451-7.525c-18.883-5.176-33.979-19.312-40.384-37.813l-3.403-9.83c-4.728-13.658-3.408-28.735 3.621-41.365l16.526-29.693c5.529 1.968 12.053-.156 15.154-5.725 4.345-5.658 19.663-49.419 72.101-67.566 5.801-2.009 9.055-7.656 8.394-13.354 9.879-2.388 20.006-3.595 30.22-3.595h45.316c4.143 0 7.5-3.357 7.5-7.5s-3.357-7.5-7.5-7.5h-45.316c-13.589 0-27.041 1.914-40.051 5.692l-6.821-6.027c-1.927-1.702-3.212-4.037-3.619-6.573l-.352-2.193c-4.765-29.703-30.058-51.261-60.139-51.261-33.884 0-60.313 28.965-57.54 62.494 1.846 22.311 2.051 28.704 4.531 39.568-.487.295-32.055 19.443-32.556 19.747-3.542 2.147-4.671 6.76-2.522 10.302 2.154 3.553 6.77 4.664 10.302 2.522l29.161-17.688c2.045 5.629 4.492 11.104 7.32 16.381-2.115 1.594-.771.553-32.543 25.781-3.243 2.576-3.785 7.294-1.21 10.538 2.586 3.254 7.305 3.776 10.538 1.21 29.72-23.598 29.859-23.72 31.123-24.694 2.211 3.147 4.572 6.198 7.077 9.141l-18.199 32.698c-9.103 16.355-10.811 35.88-4.688 53.566l2.193 6.334-22.446 34.01c-3.32 5.031.375 11.632 6.253 11.632 2.436 0 4.825-1.186 6.267-3.37l17.051-25.839c9.692 16.744 25.651 29.221 44.677 34.436l9.084 2.49c-7.856 4.266-15.26 9.384-22.063 15.284-3.129 2.714-3.466 7.451-.752 10.58 2.723 3.139 7.461 3.457 10.58.752 10.313-8.944 22.198-15.846 34.983-20.381l5.866 1.608c1.556 5.695 4.051 11 7.355 15.734-15.792 8.238-29.688 19.82-40.651 33.963-3.849 4.966-.222 12.095 5.923 12.095 2.238 0 4.454-.998 5.933-2.905 10.542-13.599 24.168-24.503 39.686-31.814 15.254 11.611 35.347 13.706 52.576 5.625l27.51-12.902c1.842-.864 3.525-1.973 5.02-3.276 1.495 1.303 3.178 2.412 5.02 3.276l27.509 12.902c17.215 8.074 37.306 5.997 52.575-5.625 15.518 7.311 29.144 18.215 39.686 31.814 1.479 1.907 3.693 2.905 5.933 2.905 6.136 0 9.779-7.12 5.923-12.095-10.963-14.143-24.86-25.725-40.651-33.963 3.304-4.734 5.798-10.038 7.353-15.733l5.867-1.608c12.785 4.535 24.671 11.436 34.983 20.381 3.115 2.701 7.853 2.391 10.58-.752 2.714-3.129 2.377-7.866-.752-10.58-6.803-5.9-14.207-11.019-22.063-15.284l9.084-2.49c19.026-5.215 34.985-17.692 44.677-34.437l17.051 25.839c9.771 14.806 12.446 33.04 7.342 50.028-4.862 16.181-14.574 30.625-28.026 41.277-35.549 28.145-69.208 44.658-105.927 51.97-4.063.809-6.699 4.758-5.891 8.82.811 4.079 4.777 6.698 8.82 5.891 39.139-7.793 74.826-25.245 112.308-54.922 5.298-4.194 10.111-8.881 14.402-14.018 10.211 34.142 17.095 69.314 20.497 104.768l1.248 13.014h-170.152c8.101-4.965 15.634-11.108 22.411-18.346 2.831-3.023 2.675-7.77-.349-10.601s-7.771-2.675-10.601.349c-35.728 38.154-93.35 38.161-129.084 0-2.831-3.024-7.577-3.18-10.601-.349s-3.18 7.577-.349 10.601c6.777 7.238 14.31 13.38 22.411 18.346h-178.786l1.249-13.015c3.401-35.456 10.286-70.629 20.497-104.768 4.291 5.137 9.104 9.825 14.402 14.02 39.735 31.46 77.796 49.344 119.778 56.28 4.084.674 7.947-2.086 8.622-6.177.676-4.087-2.09-7.947-6.177-8.622-39.373-6.506-75.252-23.424-112.913-53.242-13.839-10.956-23.314-25.588-28.026-41.276-1.957-6.514-2.783-13.262-2.454-20.056.2-4.137-2.991-7.653-7.129-7.854-4.133-.2-7.653 2.991-7.854 7.129-.412 8.502.622 16.945 3.071 25.096 1.964 6.541 4.614 12.872 7.894 18.867-12.476 38.661-20.763 78.735-24.643 119.17zm424.441-394.304c-1.793 5.289-3.987 10.438-6.553 15.393-15.111-9.094-31.826-15.419-49.23-18.571-3.796-3.516-7.795-6.808-11.978-9.859 23.316-1.789 46.802 2.742 67.761 13.037zm-37.967 17.048c8.223 2.925 16.145 6.668 23.629 11.169-2.694 3.826-5.905 7.872-9.771 11.984-5.682-10.209-8.462-15.606-13.858-23.153zm-331.632-65.269c-1.037-12.544 3.472-24.842 12.372-33.74 25.054-25.057 69.666-10.539 75.549 26.117l.352 2.193c.956 5.958 3.974 11.44 8.497 15.438l9.379 8.288c-3.478 1.326-6.886 2.791-10.219 4.389l-11.136-1.533c-27.767-3.823-56.149.536-81.425 12.303-1.422-7.508-1.535-11.293-3.369-33.455zm7.244 48.228c20.963-10.3 44.456-14.834 67.774-13.044-4.182 3.052-8.181 6.344-11.978 9.859-17.411 3.153-34.133 9.482-49.249 18.582-2.567-4.956-4.757-10.104-6.547-15.397zm37.979 17.041c-5.409 7.564-8.051 12.72-13.858 23.154-3.571-3.794-6.826-7.788-9.782-11.978 7.487-4.504 15.414-8.249 23.64-11.176zm143.205 163.984-26.368-25.434c17.189-5.07 35.547-5.071 52.736.001zm38.898 37.709-27.508-12.902c-2.363-1.108-3.891-3.512-3.891-6.122v-5.078l30.636-29.549h13.113c4.143 0 7.5-3.357 7.5-7.5s-3.357-7.5-7.5-7.5h-7.441c-1.154-3.137-3.614-5.611-6.82-6.778-23.854-8.688-50.126-8.688-73.977 0-3.206 1.168-5.666 3.642-6.82 6.778h-7.441c-4.143 0-7.5 3.357-7.5 7.5s3.357 7.5 7.5 7.5h13.113l30.636 29.549v5.078c0 2.61-1.527 5.014-3.89 6.122l-27.509 12.902c-9.205 4.316-19.581 4.529-28.784.783l11.548-4.613c3.847-1.536 5.719-5.9 4.183-9.747s-5.899-5.717-9.747-4.183l-20.245 8.087c-3.414-4.133-5.879-9.014-7.185-14.355l-.419-1.714 29.787-5.516c4.073-.755 6.764-4.668 6.01-8.74-.755-4.073-4.678-6.763-8.74-6.01l-28.02 5.188c2.029-6.388 7.49-11.318 14.169-12.532 3.196-.581 5.655-3.154 6.091-6.374 4.335-32.047 5.131-41.127 9.356-56.592l6.384 1.711c2.507.671 4.257 2.952 4.257 5.548v4.727c0 4.143 3.357 7.5 7.5 7.5s7.5-3.357 7.5-7.5v-4.727c0-9.373-6.323-17.613-15.375-20.037l-5.748-1.54c7.615-21.22 18.928-41.026 33.543-58.52l19.866-23.779c1.547-1.853 4.392-1.853 5.939 0l19.865 23.778c14.616 17.494 25.929 37.3 33.544 58.521l-5.747 1.54c-9.053 2.425-15.376 10.665-15.376 20.038v4.727c0 4.143 3.357 7.5 7.5 7.5s7.5-3.357 7.5-7.5v-4.727c0-2.596 1.75-4.877 4.258-5.549l6.382-1.71c4.243 15.534 4.948 24.002 9.356 56.593.436 3.22 2.895 5.793 6.091 6.374 6.633 1.206 12.124 6.096 14.169 12.532l-28.021-5.188c-4.068-.749-7.986 1.937-8.74 6.01-.754 4.072 1.937 7.985 6.01 8.74l29.891 5.535c-.006.085-.011.17-.014.254-.214.453-.387.934-.51 1.44-1.306 5.341-3.771 10.222-7.185 14.355l-20.245-8.086c-3.842-1.535-8.21.336-9.747 4.183-1.536 3.847.336 8.211 4.183 9.747l11.548 4.613c-9.201 3.744-19.577 3.532-28.783-.785z"/></g></svg>