<svg id="Capa_1" enable-background="new 0 0 511.999 511.999" height="512" viewBox="0 0 511.999 511.999" width="512" xmlns="http://www.w3.org/2000/svg"><g><path d="m290.153 417.573c38.529 0 75.803-13.701 105.159-38.654 20.917-17.78 33.712-43.296 35.447-70.694l4.19-66.144c.939-14.521-2.215-29.014-9.103-41.832l-3.538-6.583 4.658-8.611c1.988-3.676 2.173-8.062.502-11.892l-3.28-7.514 3.8-5.338c17.265-24.25 25.916-53.582 24.573-83.32l-1.67-36.988c-.921-20.388-19.456-35.386-39.587-32.033-14.373 2.394-27.197 10.422-35.63 22.304l-54.465 76.741c-2.539 3.578-6.655 5.704-11.043 5.704h-108.334c-4.388 0-8.503-2.126-11.043-5.704l-54.465-76.741c-8.433-11.882-21.257-19.91-35.63-22.304-20.131-3.354-38.666 11.644-39.587 32.032l-1.67 36.988c-1.343 29.738 7.307 59.07 24.573 83.32l3.8 5.338-3.28 7.514c-1.672 3.83-1.487 8.217.502 11.892l4.658 8.611-3.538 6.583c-6.888 12.818-10.042 27.311-9.103 41.832l4.19 66.144c1.736 27.398 14.53 52.914 35.447 70.694 29.357 24.953 66.63 38.654 105.159 38.654h68.308z" fill="#f4d8bc"/><path d="m422.309 193.665 4.658-8.611c1.988-3.676 2.173-8.062.502-11.892l-3.28-7.514 3.8-5.338c17.265-24.25 25.916-53.582 24.573-83.32l-1.67-36.988c-.921-20.388-19.456-35.386-39.587-32.033-.988.165-1.969.357-2.942.574 1.459 3.536 2.345 7.39 2.529 11.459l1.67 36.988c1.343 29.738-7.307 59.07-24.573 83.32-2.358 3.312-2.805 7.617-1.179 11.343l.658 1.508c1.672 3.83 1.487 8.217-.502 11.892l-1.689 3.123c-1.853 3.426-1.859 7.554-.015 10.986l.584 1.086c6.888 12.818 10.042 27.311 9.103 41.832l-4.19 66.144c-1.736 27.398-14.53 52.914-35.447 70.694-29.357 24.953-66.63 38.654-105.159 38.654h-68.308c-17.794 0-35.32-2.923-51.922-8.526 26.946 18.507 58.975 28.526 91.922 28.526h68.308c38.529 0 75.803-13.701 105.159-38.654 20.917-17.78 33.712-43.296 35.447-70.694l4.19-66.144c.939-14.521-2.215-29.014-9.103-41.832z" fill="#efc89d"/><path d="m256 326.557-33.639-31.21c-2.597-2.409-1.876-6.69 1.367-8.115 20.565-9.041 43.979-9.041 64.544 0 3.242 1.426 3.963 5.706 1.367 8.115z" fill="#e490b7"/><path d="m85.484 78.167c-1.081 23.921 5.878 47.516 19.767 67.023l2.477 3.479c3.021 4.243 4.481 9.401 4.13 14.599l-.065.959c-.336 4.978 5.504 7.884 9.269 4.611 10.763-9.356 28.561-23.937 46.06-34.323 4.305-2.555 5.426-8.191 2.51-12.26-.036-.05-.071-.1-.107-.15l-54.465-76.741c-.061-.086-.122-.171-.184-.256-8.68-11.941-27.626-6.062-28.292 8.686z" fill="#f9c6da"/><path d="m426.515 78.167c1.081 23.921-5.878 47.516-19.767 67.023l-2.477 3.479c-3.021 4.243-4.481 9.401-4.13 14.599l.065.959c.336 4.978-5.504 7.884-9.269 4.611-10.763-9.356-28.561-23.937-46.06-34.323-4.305-2.555-5.426-8.191-2.51-12.26.036-.05.071-.1.107-.15l54.465-76.741c.061-.086.122-.171.184-.256 8.68-11.941 27.626-6.062 28.292 8.686z" fill="#f9c6da"/><path d="m406.748 145.189c13.889-19.507 20.847-43.101 19.767-67.022l-1.101-24.374c-.38-8.406-6.698-13.931-13.67-14.916l.818 18.113c1.343 29.738-7.307 59.07-24.573 83.32-2.358 3.312-2.805 7.617-1.179 11.343l.658 1.508c1.672 3.83 1.487 8.217-.502 11.892l-.138.255c1.46 1.239 2.833 2.42 4.107 3.528 3.765 3.273 9.604.367 9.269-4.611l-.065-.959c-.35-5.197 1.109-10.355 4.13-14.599z" fill="#efa5c3"/><path d="m289.849 288.329c1.819 1.896 1.889 5.069-.211 7.017l-33.638 31.211-33.639-31.21c-2.1-1.948-2.03-5.121-.211-7.017-38.604 7.113-66.212 26.636-66.212 54.35 0 35.304 44.799 74.894 100.062 74.894s100.062-39.59 100.062-74.894c-.001-27.715-27.608-47.238-66.213-54.351z" fill="#f1f1f4"/><path d="m352.014 361.648c-28.825 23.221-64.761 35.925-101.861 35.925h-59.196c17.491 12.006 40.21 20 65.042 20 45.449 0 83.82-26.777 96.015-55.925z" fill="#dfdde2"/><path d="m380.169 390.338c-26.544 17.682-57.842 27.236-90.016 27.236h-68.308c-32.174 0-63.472-9.554-90.016-27.236-22.801 24.451-41.499 52.423-55.371 82.838l-14.287 31.324h387.654l-14.287-31.324c-13.87-30.415-32.568-58.388-55.369-82.838z" fill="#f4d8bc"/><path d="m435.54 473.175c-13.872-30.414-32.57-58.387-55.371-82.838-5.116 3.408-10.408 6.513-15.849 9.307 12.149 16.732 22.614 34.661 31.22 53.531 6.686 14.66-4.029 31.324-20.141 31.324h-304.105l-9.122 20h387.654z" fill="#efc89d"/><path d="m460.054 76.652-1.67-36.989c-1.122-24.837-23.718-43.177-48.312-39.093-16.227 2.704-30.993 11.947-40.513 25.361l-54.465 76.741c-1.131 1.594-2.973 2.545-4.927 2.545h-108.335c-1.954 0-3.796-.951-4.927-2.545l-54.465-76.741c-9.52-13.414-24.286-22.657-40.513-25.361-24.528-4.076-47.187 14.187-48.312 39.094l-1.67 36.987c-1.412 31.261 7.805 62.517 25.955 88.008l1.338 1.88-1.581 3.622c-2.613 5.986-2.33 12.715.778 18.461l2.734 5.055-1.624 3.021c-7.56 14.068-11.012 29.928-9.981 45.865.267 4.134 3.825 7.261 7.968 7.001 4.133-.268 7.268-3.835 7-7.968-.849-13.135 1.996-26.205 8.226-37.799l3.538-6.583c1.195-2.223 1.191-4.898-.01-7.118l-4.658-8.611c-.896-1.657-.978-3.598-.224-5.324l3.279-7.514c1.054-2.414.763-5.204-.764-7.35l-3.8-5.338c-16.216-22.776-24.451-50.701-23.19-78.632l1.67-36.987c.719-15.918 15.213-27.587 30.863-24.974 12.314 2.051 23.521 9.066 30.746 19.246l54.465 76.741c3.939 5.55 10.354 8.863 17.159 8.863h3.798c1.546 17.72 8.537 34.651 20.073 48.329l10.851 12.865c2.677 3.175 7.41 3.562 10.569.898 3.167-2.671 3.568-7.402.898-10.568l-10.851-12.865c-9.256-10.975-14.972-24.481-16.471-38.659h27.801v33.428c0 4.143 3.358 7.5 7.5 7.5s7.5-3.357 7.5-7.5v-33.428h27.801c-1.498 14.178-7.215 27.685-16.471 38.659l-10.851 12.865c-2.67 3.166-2.269 7.897.898 10.568 3.168 2.67 7.898 2.268 10.569-.898l10.851-12.865c11.536-13.678 18.527-30.609 20.073-48.329h3.798c6.806 0 13.22-3.313 17.159-8.863l54.465-76.741c7.225-10.18 18.431-17.195 30.746-19.246 15.651-2.615 30.144 9.062 30.863 24.973l1.67 36.989c1.261 27.93-6.974 55.854-23.19 78.631l-3.8 5.338c-1.527 2.146-1.818 4.936-.764 7.35l3.28 7.514c.753 1.727.671 3.667-.225 5.324l-4.658 8.611c-1.201 2.22-1.205 4.896-.01 7.118l3.538 6.583c6.23 11.594 9.074 24.664 8.225 37.808l-2.928 46.222c-6.916-10.372-14.891-20.008-23.815-28.763-2.957-2.901-7.705-2.854-10.606.101-2.901 2.957-2.855 7.706.101 10.606 11.41 11.194 21.127 23.957 28.881 37.934l3.552 6.4c-1.073 8.047-3.196 15.899-6.268 23.348-9.882-17.155-22.848-31.982-38.598-44.127-3.278-2.527-7.989-1.921-10.519 1.359-2.529 3.28-1.92 7.99 1.36 10.52 15.404 11.878 27.852 26.605 36.998 43.773l2.342 4.396c-4.841 7.361-10.722 14.061-17.509 19.83-20.27 17.23-44.558 28.849-70.367 33.942 22.99-14.104 43.473-37.781 43.473-64.467 0-14.675-6.615-28.11-19.131-38.854-3.144-2.698-7.878-2.338-10.576.806-2.698 3.143-2.337 7.878.806 10.575 9.224 7.919 13.901 17.161 13.901 27.473 0 30.525-41.289 67.395-92.562 67.395s-92.562-36.869-92.562-67.395c0-20.345 19.424-37.189 51.309-45.089.641 1.198 1.484 2.3 2.512 3.254l31.24 28.985v13.017c0 3.85-2.732 7.23-6.497 8.038-9.855 2.116-19.001 6.824-26.448 13.614l-3.408 3.107c-3.061 2.791-3.279 7.535-.488 10.596 2.777 3.045 7.519 3.292 10.596.488l3.407-3.107c5.488-5.004 12.228-8.473 19.489-10.032 4.158-.892 7.87-2.896 10.849-5.655 2.979 2.76 6.691 4.763 10.848 5.655 7.263 1.56 14.003 5.028 19.49 10.032l3.408 3.107c3.053 2.784 7.796 2.58 10.596-.488 2.791-3.061 2.572-7.805-.488-10.596l-3.408-3.107c-7.447-6.79-16.592-11.498-26.449-13.614-3.764-.808-6.496-4.188-6.496-8.038v-13.017l31.24-28.985c1.028-.953 1.87-2.054 2.511-3.251 2.939.729 5.792 1.539 8.537 2.424 3.959 1.274 8.174-.911 9.439-4.838 1.271-3.942-.895-8.168-4.837-9.439-5.471-1.763-11.302-3.255-17.36-4.44-.549-.354-1.13-.667-1.74-.935-22.428-9.859-48.153-9.86-70.582.001-.609.268-1.19.581-1.739.934-19.944 3.903-36.871 11.004-49.041 20.586-39.089 30.78-20.82 79.002 21.983 105.26-25.809-5.092-50.097-16.712-70.367-33.942-6.787-5.769-12.668-12.469-17.509-19.83l2.342-4.396c9.146-17.168 21.593-31.896 36.998-43.773 3.28-2.529 3.889-7.239 1.36-10.52-2.528-3.279-7.239-3.889-10.519-1.359-15.75 12.145-28.716 26.973-38.598 44.128-3.072-7.45-5.196-15.301-6.268-23.349l3.552-6.401c7.754-13.976 17.471-26.738 28.881-37.933 2.957-2.9 3.002-7.649.101-10.606-2.901-2.955-7.649-3.002-10.606-.101-8.924 8.755-16.898 18.391-23.815 28.763l-.758-11.96c-.262-4.133-3.826-7.271-7.959-7.011-4.134.263-7.273 3.825-7.011 7.96l2.02 31.883c1.08 17.042 6.237 33.546 14.769 48.109.232.513.522 1.001.867 1.454 8.506 14.02 18.492 23.899 31.184 33.32-20.778 23.517-37.894 49.88-50.938 78.48l-14.287 31.324c-2.257 4.947 1.352 10.612 6.824 10.612h387.654c5.437 0 9.095-5.634 6.824-10.612l-14.287-31.324c-13.043-28.598-30.159-54.961-50.937-78.48 12.651-9.391 22.646-19.248 31.183-33.32.345-.453.634-.941.866-1.454 8.532-14.564 13.69-31.068 14.769-48.111l4.189-66.135c1.03-15.938-2.421-31.797-9.981-45.865l-1.624-3.021 2.734-5.055c3.108-5.746 3.392-12.475.779-18.461l-1.581-3.622 1.338-1.88c18.147-25.49 27.364-56.746 25.952-88.006zm-178.481 215.946-25.573 23.728-25.574-23.729c16.45-6.174 34.696-6.174 51.147.001zm97.317 107.458c6.336 7.08 12.32 14.435 17.941 22.045l-1.235 1.718c-9.139 12.71-21.314 23.239-35.208 30.45-3.676 1.908-5.11 6.436-3.202 10.112 1.904 3.669 6.423 5.113 10.112 3.202 15.046-7.809 28.338-19.004 38.612-32.49 4.334 6.563 8.41 13.296 12.224 20.188-5.802 6.877-12.491 12.929-19.935 18.031-3.417 2.342-4.289 7.01-1.947 10.427s7.011 4.288 10.426 1.946c6.869-4.708 13.179-10.12 18.851-16.161 2.118 4.358 2.278 4.771 12.632 27.474h-133.721c6.951-4.688 13.421-10.425 19.258-17.14 2.718-3.127 2.386-7.863-.74-10.581-3.125-2.717-7.862-2.386-10.581.739-31.287 35.992-81.457 36.006-112.756 0-2.718-3.126-7.455-3.456-10.581-.739-3.126 2.718-3.458 7.454-.74 10.581 5.837 6.714 12.307 12.451 19.258 17.14h-133.721c8.519-18.678 10.253-22.58 12.632-27.474 5.672 6.041 11.982 11.453 18.851 16.161 3.416 2.342 8.085 1.47 10.426-1.946 2.342-3.417 1.47-8.085-1.947-10.427-7.444-5.102-14.133-11.154-19.935-18.031 3.814-6.892 7.891-13.625 12.224-20.188 10.274 13.487 23.566 24.682 38.612 32.491 3.686 1.91 8.206.469 10.112-3.202 1.908-3.677.475-8.204-3.202-10.112-13.894-7.211-26.069-17.74-35.208-30.451l-1.235-1.718c5.621-7.611 11.606-14.965 17.941-22.044 26.54 16.273 56.959 24.91 87.87 25.014.391.002 68.947.007 70.273-.001 30.42-.197 60.657-8.47 87.639-25.014z"/><path d="m298.846 252.319c0 4.143 3.358 7.5 7.5 7.5s7.5-3.357 7.5-7.5v-5.542c0-3.626 2.446-6.814 5.949-7.753l52.083-13.956c4.001-1.072 6.375-5.185 5.303-9.186s-5.183-6.379-9.186-5.303l-52.082 13.956c-10.049 2.691-17.067 11.838-17.067 22.241z"/><path d="m134.818 215.883c-1.072 4.001 1.302 8.113 5.303 9.186l52.084 13.956c3.502.938 5.948 4.127 5.948 7.753v5.542c0 4.143 3.358 7.5 7.5 7.5s7.5-3.357 7.5-7.5v-5.542c0-10.403-7.018-19.55-17.066-22.241l-52.083-13.956c-3.999-1.074-8.113 1.301-9.186 5.302z"/><path d="m201.833 208.594c5.186 0 8.814-5.157 7.057-10.04l-7.871-21.885c-1.402-3.898-5.698-5.922-9.596-4.52s-5.921 5.698-4.52 9.596l7.871 21.885c1.101 3.06 3.984 4.964 7.059 4.964z"/><path d="m310.167 208.594c3.074 0 5.958-1.904 7.058-4.964l7.871-21.885c1.402-3.897-.622-8.193-4.52-9.596-3.896-1.402-8.194.621-9.596 4.52l-7.871 21.885c-1.755 4.881 1.869 10.04 7.058 10.04z"/><path d="m121.176 41.021c-13.109-18.232-41.102-9.291-42.083 12.434l-1.101 24.374c-1.151 25.473 6.36 50.94 21.15 71.712l2.476 3.478c2.011 2.825 2.991 6.286 2.757 9.746l-.064.958c-.522 7.738 5.661 13.997 13.083 13.997 3.091 0 6.147-1.099 8.589-3.222 11.309-9.83 28.275-23.617 44.909-33.499 8.008-4.649 10.391-15.361 4.84-23.11-21.159-29.812-40.972-57.729-54.556-76.868zm-1.798 119.369c-.265-5.748-2.181-11.354-5.54-16.072l-2.477-3.478c-12.855-18.056-19.384-40.193-18.384-62.334l1.101-24.375c.245-5.421 4.594-7.143 5.921-7.541 1.288-.388 5.727-1.316 8.804 2.916l30.573 43.077c-8.009-1.438-16.324-1.117-24.328 1.059-3.997 1.086-6.357 5.207-5.271 9.204s5.208 6.358 9.204 5.271c11.016-2.995 22.844-1.172 32.449 5.001l4.632 2.976 4.64 6.537c-12.533-5.876-26.979-6.601-40.083-1.928-3.901 1.392-5.937 5.682-4.545 9.583 1.391 3.902 5.683 5.937 9.583 4.546 8.585-3.062 17.977-2.884 26.386.398-12.151 8.225-23.732 17.534-32.665 25.16z"/><path d="m374.843 76.495c-3.379-2.397-8.06-1.603-10.457 1.775-7.973 11.234-19.908 28.05-28.116 39.615-5.63 7.856-3.049 18.604 4.872 23.133 16.624 9.881 33.573 23.655 44.873 33.478 4.021 3.495 9.688 4.203 14.429 1.846 4.758-2.364 7.601-7.318 7.244-12.618l-.065-.963c-.233-3.458.746-6.919 2.756-9.743l2.478-3.479c14.789-20.771 22.3-46.238 21.149-71.711l-1.101-24.373c-.986-21.838-29.004-30.433-41.859-12.746l-5.94 8.366c-2.397 3.378-1.603 8.06 1.775 10.457 3.379 2.396 8.059 1.603 10.457-1.775 6.021-8.484 5.638-7.947 5.849-8.239 3.087-4.246 7.526-3.313 8.812-2.928 1.327.398 5.676 2.12 5.921 7.542l1.101 24.374c1 22.141-5.529 44.278-18.383 62.333l-2.479 3.479c-3.358 4.718-5.274 10.324-5.539 16.071-8.933-7.625-20.513-16.934-32.665-25.16 8.408-3.281 17.799-3.459 26.385-.398 3.9 1.391 8.192-.644 9.583-4.546 1.391-3.901-.644-8.191-4.545-9.583-13.103-4.673-27.551-3.946-40.084 1.929l4.639-6.537 4.634-2.978c9.605-6.172 21.432-7.994 32.448-5.001 3.998 1.084 8.118-1.273 9.204-5.271s-1.273-8.118-5.271-9.204c-8.005-2.176-16.32-2.497-24.328-1.059l3.996-5.63c2.4-3.377 1.605-8.058-1.773-10.456z"/><circle cx="290.445" cy="334.593" r="7.5"/><circle cx="312.602" cy="348.852" r="7.5"/><circle cx="312.102" cy="324.474" r="7.5"/><circle cx="221.554" cy="334.593" r="7.5"/><circle cx="199.397" cy="348.852" r="7.5"/><circle cx="199.897" cy="324.474" r="7.5"/></g></svg>