<svg id="Capa_1" enable-background="new 0 0 512.024 512.024" height="512" viewBox="0 0 512.024 512.024" width="512" xmlns="http://www.w3.org/2000/svg"><g><path d="m420.674 504.524-.969-3.375c-10.025-34.923-25.72-67.961-46.458-97.795-5.618-8.082-4-19.136 3.699-25.268 18.54-14.769 30.108-36.579 31.936-60.211l5.104-65.956 14.178-46.551c5.429-17.824 6.079-36.762 1.886-54.916l-.122-.527c10.055-28.32 14.667-58.284 13.596-88.317l-.912-25.572c-.441-12.364-8.534-23.145-20.283-27.021-12.29-4.055-25.789.356-33.314 10.885l-78.909 110.413c-3.933 5.504-10.282 8.77-17.047 8.77h-37.047-37.047c-6.765 0-13.114-3.266-17.047-8.77l-78.909-110.413c-7.525-10.529-21.024-14.94-33.314-10.886-11.749 3.876-19.842 14.657-20.283 27.021l-.912 25.572c-1.071 30.032 3.542 59.997 13.596 88.317l-.122.527c-4.193 18.155-3.543 37.092 1.886 54.916l14.178 46.551 5.104 65.956c1.829 23.633 13.397 45.442 31.936 60.211 7.698 6.133 9.316 17.187 3.699 25.268-20.738 29.834-36.433 62.872-46.458 97.795l-.969 3.375h329.324z" fill="#fbf6ec"/><path d="m429.927 149.924c10.055-28.32 14.667-58.284 13.596-88.317l-.912-25.572c-.441-12.364-8.534-23.145-20.283-27.021-6.915-2.281-14.211-1.883-20.612.777.513 2.016.818 4.106.894 6.244l.912 25.572c1.065 29.852-3.486 59.637-13.416 87.807-.118.333-.138.693-.059 1.037 4.195 18.149 3.546 37.082-1.881 54.901l-14.183 46.567-5.104 65.956c-1.829 23.633-13.397 45.442-31.936 60.211-7.698 6.132-9.316 17.187-3.699 25.268 8.874 12.766 16.204 25.293 22.226 36.948 15.14 29.3-6.318 64.222-39.298 64.222h-218.606c-1.893 5.49-3.644 11.033-5.25 16.625l-.969 3.375h329.323l-.969-3.375c-10.025-34.923-25.72-67.961-46.458-97.795-5.618-8.082-4-19.136 3.699-25.268 18.54-14.769 30.108-36.578 31.936-60.211l5.104-65.956 14.181-46.562c5.428-17.821 6.077-36.755 1.883-54.906z" fill="#f9efda"/><path d="m173.615 149.838c4.264-2.143 5.633-7.561 2.857-11.443-18.034-25.221-74.138-103.717-74.138-103.717-.779-1.09-2.043-1.74-3.382-1.74-.656 0-1.317.161-1.928.479-1.364.71-2.166 2.179-2.221 3.716l-.905 25.381c-.961 26.949 3.126 53.497 12.148 78.909l2.477 6.978-1.786 7.771c-3.187 13.796-2.69 28.248 1.435 41.793l4.606 15.123c.813 2.67 4.447 3.028 5.766.568l11.401-21.277c10.006-18.678 25.4-33.358 43.67-42.541z" fill="#f9c6da"/><path d="m338.409 149.838c-4.264-2.143-5.633-7.561-2.857-11.443 18.034-25.221 74.138-103.717 74.138-103.717.779-1.09 2.043-1.74 3.382-1.74.656 0 1.317.161 1.928.479 1.364.71 2.166 2.179 2.221 3.716l.905 25.381c.961 26.949-3.126 53.497-12.148 78.909l-2.477 6.978 1.786 7.771c3.187 13.796 2.69 28.248-1.435 41.793l-4.606 15.123c-.813 2.67-4.447 3.028-5.766.568l-11.401-21.277c-10.007-18.678-25.4-33.358-43.67-42.541z" fill="#f9c6da"/><path d="m390.046 130.436c4.197 18.159 3.548 37.102-1.883 54.932l-3.566 11.708 8.884 16.579c1.318 2.46 4.952 2.103 5.766-.568l4.606-15.123c4.125-13.545 4.622-27.997 1.435-41.793l-1.786-7.771 2.477-6.978c9.022-25.412 13.109-51.961 12.148-78.909l-.906-25.381c-.055-1.537-.857-3.006-2.222-3.716-.611-.318-1.271-.478-1.927-.478-1.339 0-2.603.65-3.382 1.74 0 0-2.298 3.216-6.114 8.554.846 29.313-3.72 58.534-13.473 86.197-.114.323-.135.672-.057 1.007z" fill="#efa5c3"/><path d="m256.012 354.205-23.381-26.766c-1.515-2.063-.85-4.991 1.409-6.196 13.732-7.328 30.213-7.328 43.944 0 2.258 1.205 2.924 4.132 1.409 6.196z" fill="#f9c6da"/><path d="m273.559 259.397c5.297-23.211 9.294-46.7 11.974-70.357l5.659-49.957h-70.361l5.659 49.957c2.68 23.657 6.677 47.145 11.974 70.357 2.69 11.789 1.829 24.111-2.476 35.411-2.772 7.277-4.193 14.998-4.193 22.785v7.444h.019c-.029-1.519.765-3.016 2.224-3.794 13.732-7.328 30.213-7.328 43.944 0 1.459.779 2.253 2.276 2.224 3.794h.019v-7.444c0-7.787-1.421-15.508-4.193-22.785-4.302-11.3-5.163-23.622-2.473-35.411z" fill="#f1d59d"/><path d="m451.019 61.339-.912-25.572c-.551-15.426-10.77-29.039-25.429-33.875-15.49-5.114-32.278.372-41.765 13.647l-78.908 110.412c-2.521 3.526-6.612 5.632-10.945 5.632h-74.096c-4.333 0-8.425-2.105-10.945-5.631l-78.908-110.413c-9.488-13.275-26.271-18.76-41.765-13.647-14.659 4.836-24.878 18.449-25.429 33.875l-.912 25.572c-1.084 30.381 3.391 60.324 13.302 89.035-4.08 18.918-3.264 38.651 2.379 57.179l13.938 45.764 1.335 17.249c.32 4.13 3.925 7.24 8.057 6.898 4.13-.319 7.218-3.927 6.898-8.057l-1.398-18.068c-.09-1.174 1.05 2.836-14.48-48.157-4.911-16.122-5.78-33.535-1.63-51.576.319-1.392.236-2.846-.242-4.19-9.779-27.549-14.21-56.329-13.168-85.541l.912-25.572c.328-9.183 6.411-17.287 15.138-20.166 9.223-3.04 19.214.222 24.862 8.124l78.908 110.414c4.371 6.116 10.978 10.21 18.269 11.485 5.146 45.425 7.506 73.004 17.068 114.906 2.368 10.38 1.617 21.125-2.172 31.073-3.108 8.159-4.685 16.725-4.685 25.456 0 7.747-.031 7.754.075 8.501.203 2.069.957 4.069 2.215 5.783.282.385-1.008-1.113 21.926 25.141v6.667c0 9.288-6.446 16.927-14.994 18.947l-14.41 3.402c-4.031.951-6.527 4.991-5.575 9.022.814 3.451 3.894 5.778 7.292 5.778 1.192 0 .503.087 16.142-3.605 7.311-1.727 14.067-5.842 19.046-12.071 4.77 5.967 11.407 10.267 19.047 12.071 15.462 3.651 14.92 3.605 16.141 3.605 3.398 0 6.478-2.327 7.292-5.778.952-4.031-1.544-8.071-5.575-9.022l-14.409-3.402c-8.531-2.015-14.995-9.643-14.995-18.947v-6.667c23.006-26.336 21.652-24.767 21.926-25.141 1.261-1.717 2.014-3.721 2.216-5.794.104-.743.073-.478.073-8.49 0-8.733-1.576-17.298-4.684-25.455-3.79-9.95-4.541-20.695-2.173-31.073 3.981-17.442 7.275-35.264 9.791-52.971.582-4.101-2.27-7.897-6.371-8.48-4.094-.585-7.897 2.27-8.48 6.371-2.457 17.296-5.675 34.705-9.563 51.742-3.03 13.276-2.069 27.021 2.778 39.75 1.638 4.301 2.737 8.744 3.288 13.275-10.613-3.357-21.991-3.357-32.604 0 .551-4.53 1.65-8.974 3.289-13.276 4.847-12.726 5.808-26.471 2.778-39.749-9.306-40.786-11.515-66.715-16.548-111.145h53.567l-2.509 22.149c-.504 4.446 2.974 8.345 7.462 8.345 3.764 0 7.009-2.828 7.442-6.657l2.748-24.261c7.291-1.275 13.899-5.369 18.269-11.486l78.908-110.412c5.647-7.902 15.642-11.168 24.862-8.125 8.727 2.879 14.81 10.983 15.138 20.166l.912 25.572c1.042 29.212-3.389 57.992-13.168 85.541-.479 1.345-.562 2.799-.242 4.19 4.161 17.998 3.272 35.484-1.63 51.576l-14.178 46.551c-.347 1.142.124-3.912-5.407 67.564-.375 4.849-1.207 9.623-2.464 14.264l-65.272 7.637c-2.522-2.884-5.45-5.455-8.737-7.626l-15.304-10.109c-3.456-2.283-8.108-1.332-10.392 2.124s-1.332 8.108 2.124 10.392l11.574 7.646-4.632.542c-4.114.481-7.06 4.207-6.578 8.321.447 3.817 3.688 6.629 7.439 6.629.623 0-.607.122 17.257-1.968 1.875 3.811 2.89 8.055 2.89 12.45v2.458l-19.181-2.466c-4.101-.536-7.866 2.372-8.395 6.482-.528 4.107 2.374 7.866 6.482 8.395l54.411 6.996c-.774 6.204.65 12.691 4.46 18.172 19.08 27.448 33.72 57.492 43.563 89.388h-309.277c9.844-31.896 24.482-61.939 43.563-89.39 3.81-5.481 5.234-11.967 4.46-18.171l54.411-6.996c4.108-.528 7.011-4.287 6.482-8.395-.527-4.109-4.296-7.008-8.395-6.482l-19.181 2.466v-2.458c0-4.395 1.015-8.64 2.89-12.45l16.375 1.916c4.156.479 7.844-2.495 8.321-6.577.481-4.114-2.464-7.84-6.578-8.321l-4.632-.542 11.574-7.646c3.456-2.283 4.407-6.936 2.124-10.392s-6.936-4.407-10.392-2.124l-15.304 10.109c-3.287 2.171-6.215 4.742-8.737 7.626l-65.272-7.637c-2.303-8.504-2.435-13.895-3.32-25.332-.319-4.129-3.92-7.213-8.057-6.898-4.13.319-7.218 3.927-6.898 8.057.883 11.407 1.03 15.428 2.431 22.32l-18.64-2.181c-4.11-.478-7.84 2.464-8.32 6.578-.481 4.113 2.464 7.839 6.577 8.32l25.028 2.928c4.783 12.104 12.078 23.161 21.443 32.339l-46.38 5.964c-4.108.528-7.011 4.287-6.482 8.395.486 3.784 3.713 6.545 7.429 6.545.744 0-2.972.444 56.637-7.221.314 2.631-.297 5.376-1.911 7.698-21.252 30.571-37.236 64.218-47.51 100.006l-.969 3.375c-1.373 4.785 2.22 9.569 7.209 9.569h329.324c4.977 0 8.585-4.774 7.209-9.569l-.969-3.375c-10.273-35.787-26.258-69.434-47.51-100.006-1.615-2.323-2.225-5.068-1.911-7.698l55.671 7.158c4.088.53 7.864-2.358 8.395-6.482.528-4.107-2.374-7.866-6.482-8.395l-46.38-5.964c9.365-9.178 16.66-20.235 21.443-32.339l25.028-2.928c4.113-.481 7.059-4.207 6.577-8.32-.482-4.114-4.229-7.057-8.32-6.578l-18.64 2.181c1.539-7.568 1.079-4.859 6.615-76.391l13.938-45.764c5.644-18.529 6.459-38.264 2.379-57.179 9.913-28.709 14.388-58.653 13.304-89.034zm-180.393 264.736-14.614 16.729-14.614-16.73c9.384-3.78 19.845-3.781 29.228.001zm-130.874 46.145c-8.542-6.805-15.483-15.305-20.467-24.831l50.839 5.948c-2.659 7.618-2.41 13.076-2.41 18.648l-24.821 3.192c-.95-1.055-1.997-2.046-3.141-2.957zm232.52 0c-1.144.911-2.191 1.901-3.141 2.957l-24.821-3.192c0-5.999.219-11.114-2.41-18.648l50.839-5.948c-4.984 9.526-11.925 18.026-20.467 24.831z"/><path d="m100.996 200.148 4.605 15.124c1.258 4.126 4.843 7.064 9.135 7.486 4.39.424 8.422-1.837 10.418-5.563l11.399-21.277c9.145-17.064 23.125-30.682 40.429-39.38 8.349-4.195 11.023-14.812 5.641-22.434-.07-.101-74.088-103.689-74.189-103.79-3.306-4.625-9.608-6.294-14.873-3.553-3.705 1.928-6.101 5.799-6.254 10.102l-.905 25.381c-.995 27.897 3.236 55.38 12.574 81.686l1.746 4.918-1.295 5.635c-3.481 15.075-2.939 30.866 1.569 45.665zm.397-137.368.562-15.736c8.059 11.275 23.408 32.75 38.041 53.222-6.956-1.305-14.174-1.279-21.262.167-4.059.829-6.676 4.791-5.848 8.85.828 4.058 4.782 6.676 8.85 5.848 11.338-2.319 23.138.358 32.369 7.339l3.836 2.9c.564.788 1.119 1.565 1.665 2.329-11.867-.44-23.679 2.951-33.597 9.836-3.402 2.363-4.246 7.036-1.884 10.438 2.37 3.413 7.046 4.239 10.438 1.884 9.508-6.602 21.403-8.797 32.641-6.024l1.144.282c-19.204 10.123-34.74 25.546-45.015 44.721l-6.44 12.021-1.546-5.077c-3.744-12.289-4.194-25.401-1.301-37.928l1.786-7.771c.319-1.391.235-2.844-.241-4.188l-2.478-6.978c-8.704-24.52-12.647-50.135-11.72-76.135z"/><path d="m410.631 62.78c.146 4.08 3.547 7.364 7.763 7.228 4.14-.147 7.375-3.623 7.228-7.763l-.905-25.38c-.231-6.482-5.385-11.428-11.645-11.428-3.754 0-7.299 1.823-9.483 4.879-79.769 111.607-73.729 103.133-74.176 103.771-5.401 7.625-2.722 18.256 5.629 22.451 17.304 8.698 31.284 22.315 40.428 39.38l11.4 21.277c1.995 3.724 6.027 5.987 10.418 5.563 4.292-.422 7.877-3.36 9.135-7.487l4.605-15.122c4.508-14.8 5.051-30.591 1.57-45.658l-1.297-5.643 1.745-4.917c5.169-14.558 8.809-29.642 10.82-44.835.543-4.106-2.345-7.876-6.451-8.42-4.106-.536-7.876 2.345-8.42 6.451-1.873 14.156-5.267 28.214-10.085 41.785l-2.477 6.978c-.477 1.345-.561 2.798-.241 4.188l1.788 7.779c2.892 12.519 2.441 25.631-1.303 37.921l-1.546 5.076-6.441-12.021c-10.275-19.174-25.809-34.597-45.014-44.721l1.144-.282c11.234-2.771 23.134-.577 32.641 6.024 3.389 2.353 8.067 1.532 10.438-1.884 2.362-3.402 1.519-8.075-1.884-10.438-9.917-6.884-21.729-10.276-33.597-9.836.546-.764 1.101-1.54 1.665-2.329l3.837-2.901c9.232-6.98 21.03-9.658 32.369-7.339 4.059.827 8.021-1.789 8.85-5.848.828-4.059-1.789-8.021-5.848-8.85-7.088-1.447-14.306-1.473-21.262-.168 14.633-20.471 29.982-41.946 38.04-53.221z"/><path d="m286.703 425.575c3.265-2.55 3.843-7.264 1.293-10.527-2.551-3.266-7.264-3.843-10.527-1.293-13.494 10.541-29.409 10.55-42.914 0-3.264-2.55-7.978-1.973-10.527 1.293-2.55 3.264-1.972 7.978 1.293 10.527 18.888 14.758 42.47 14.777 61.382 0z"/><path d="m173.731 309.3c-16.394 1.286-32.041-9.011-36.761-25.509l-4.688-16.382c-1.14-3.982-5.293-6.286-9.274-5.147-3.982 1.14-6.287 5.292-5.147 9.274l4.688 16.381c6.7 23.418 28.943 38.189 52.364 36.336 4.129-.326 7.212-3.938 6.886-8.067s-3.911-7.205-8.068-6.886z"/><path d="m195.421 231.995c3.226 0 6.206-2.099 7.181-5.347l6.522-21.739c1.19-3.968-1.061-8.148-5.028-9.339-3.968-1.193-8.148 1.062-9.339 5.028l-6.522 21.739c-1.448 4.825 2.18 9.658 7.186 9.658z"/><path d="m379.741 267.41-4.688 16.383c-4.675 16.34-20.217 26.82-36.761 25.508-4.134-.321-7.741 2.758-8.067 6.886-.326 4.129 2.757 7.741 6.886 8.067 23.694 1.873 45.737-13.174 52.364-36.335l4.688-16.382c1.14-3.982-1.165-8.135-5.147-9.274-3.982-1.14-8.135 1.164-9.275 5.147z"/><path d="m316.603 231.995c4.999 0 8.637-4.824 7.187-9.657l-6.522-21.739c-1.19-3.968-5.372-6.217-9.339-5.028-3.968 1.19-6.219 5.371-5.028 9.339l6.522 21.739c.974 3.248 3.954 5.346 7.18 5.346z"/><path d="m297.993 284.792c0 4.143 3.357 7.5 7.5 7.5s7.5-3.357 7.5-7.5v-5.099c0-3.064 2.067-5.759 5.028-6.553l47.914-12.839c4.001-1.072 6.375-5.185 5.303-9.186s-5.185-6.38-9.186-5.303l-47.913 12.839c-9.507 2.547-16.146 11.199-16.146 21.041z"/><path d="m140.785 251.117c-1.072 4.001 1.302 8.113 5.303 9.186l47.915 12.839c2.96.794 5.027 3.488 5.027 6.553v5.099c0 4.143 3.357 7.5 7.5 7.5s7.5-3.357 7.5-7.5v-5.099c0-9.842-6.64-18.494-16.146-21.041l-47.914-12.839c-4.002-1.078-8.113 1.301-9.185 5.302z"/></g></svg>