<svg id="Capa_1" enable-background="new 0 0 512.016 512.016" height="512" viewBox="0 0 512.016 512.016" width="512" xmlns="http://www.w3.org/2000/svg"><g><path d="m413.676 361.658c31.006 30.733 56.147 66.803 74.228 106.447l16.603 36.403h-497l16.603-36.403c18.081-39.643 43.224-75.712 74.23-106.445l14.494 12.867c.707.628 1.769-.125 1.415-1.003-3.19-7.913-3.849-16.619-1.886-24.922.022-.094.076-.164.127-.236.076-.068.151-.137.227-.204.248-.14.565-.149.81.061l4.069 3.487c14.157 12.134 31.194 20.427 49.478 24.083l3.104.621c1.428.286 2.626-1.058 2.2-2.451-1.716-5.614-1.395-11.653.907-17.053.391-.916 1.575-1.173 2.319-.512l6.771 6.019c16.79 14.925 37.895 24.118 60.258 26.248 8.896.847 17.852.847 26.748 0 22.363-2.13 43.468-11.323 60.258-26.247l6.772-6.019c.744-.662 1.929-.404 2.319.512 2.303 5.4 2.624 11.44.907 17.053-.426 1.393.772 2.736 2.2 2.451l3.103-.621c18.284-3.656 35.321-11.949 49.478-24.083l4.069-3.487c.24-.206.548-.201.794-.071.083.073.164.148.247.221.048.071.101.138.123.229 1.962 8.302 1.303 17.009-1.886 24.922-.354.877.708 1.63 1.415 1.003z" fill="#a298a5"/><path d="m487.903 468.104c-18.081-39.643-43.222-75.714-74.228-106.447l-12.246 10.872c18.523 23.156 34.141 48.534 46.474 75.575 7.771 17.037-4.682 36.403-23.408 36.403h-407.866l-9.122 20h497z" fill="#8b818e"/><path d="m489.322 281.565-1.138-7.464c-3.487-22.861-13.919-44.097-29.882-60.83l-4.033-4.228c-.713-.747-.209-1.991.823-2.032 8.839-.351 17.576 2.001 25.044 6.742l.141.09c.749.476 1.657-.318 1.286-1.124l-8.745-18.984c-10.376-22.524-25.834-42.208-45.024-57.619-.072.324-.164.635-.275.934.111-.298.203-.61.274-.934l4.689-21.162c6.873-31.02 8.756-62.931 5.585-94.532-.713-7.108-7.219-12.915-14.363-12.915-44.783 10.223-69.054 35.207-74.139 38.75l-16.947-10.26c-9.498-5.75-21.368-5.896-31.004-.379l-5.402 3.092-2.937-2.203c-1.798-1.349-3.56-2.597-5.282-3.757-9.646-6.494-20.817-9.742-31.986-9.743-11.17.001-22.34 3.249-31.986 9.743-1.722 1.159-3.484 2.408-5.282 3.757l-2.937 2.203-5.402-3.092c-9.636-5.516-21.506-5.371-31.004.379l-16.947 10.26c-2.144-1.494-28.189-28.26-74.139-38.75-7.143 0-13.65 5.808-14.363 12.915-3.171 31.601-1.288 63.512 5.585 94.532l4.689 21.162c.072.324.164.635.274.934-.111-.298-.203-.61-.275-.934-19.189 15.41-34.648 35.095-45.024 57.619l-8.745 18.984c-.371.806.536 1.6 1.286 1.124l.141-.09c7.469-4.741 16.205-7.093 25.044-6.742 1.031.041 1.535 1.285.823 2.032l-4.033 4.228c-15.963 16.732-26.395 37.969-29.882 60.83l-1.138 7.464c-.121.791.781 1.327 1.418.844l1.127-.855c10.829-8.216 22.003-5.789 25.107-4.904.472.135.737.619.608 1.092-5.615 20.617.928 42.673 16.945 56.892l44.936 39.892c.706.627 1.77-.124 1.416-1-3.192-7.916-3.851-16.627-1.885-24.934.122-.516.759-.715 1.162-.37l4.069 3.487c14.156 12.133 31.192 20.425 49.474 24.082l3.108.622c1.428.286 2.626-1.058 2.2-2.451-1.716-5.614-1.395-11.653.907-17.053.391-.916 1.575-1.173 2.319-.512l6.773 6.02c16.79 14.924 37.894 24.117 60.257 26.247h.001c8.895.847 17.851.847 26.746 0h.001c22.363-2.13 43.467-11.322 60.257-26.247l6.773-6.02c.744-.662 1.929-.404 2.319.512 2.303 5.4 2.624 11.439.907 17.053-.426 1.393.772 2.736 2.2 2.451l3.108-.622c18.282-3.657 35.318-11.949 49.474-24.082l4.069-3.487c.403-.345 1.039-.146 1.162.37 1.965 8.307 1.307 17.018-1.885 24.934-.353.876.71 1.626 1.416 1l44.936-39.892c16.017-14.219 22.56-36.275 16.945-56.892-.129-.473.137-.958.608-1.092 3.105-.886 14.278-3.312 25.107 4.904l1.127.855c.637.483 1.538-.054 1.418-.844z" fill="#a298a5"/><path d="m489.322 281.565-1.138-7.464c-3.487-22.861-13.919-44.097-29.882-60.83l-4.033-4.228c-.713-.747-.209-1.991.823-2.032 8.839-.351 17.576 2.001 25.044 6.742l.141.09c.749.476 1.657-.318 1.286-1.124l-8.745-18.984c-10.376-22.524-25.834-42.208-45.024-57.619-.054.243-.119.479-.195.708.076-.229.141-.465.195-.708l4.689-21.162c6.873-31.02 8.756-62.931 5.585-94.532-.713-7.108-7.219-12.915-14.363-12.915-9 2.054-17.171 4.706-24.525 7.659 1.354 26.749-.892 53.587-6.697 79.789l-.606 2.733c-2.401 10.838.942 22.126 8.798 29.97 13.287 13.268 24.203 28.841 32.143 46.077l8.745 18.984c.371.806-.536 1.6-1.286 1.124l-.141-.09c-7.469-4.741-16.205-7.093-25.044-6.742-1.031.041-1.535 1.285-.823 2.032l4.035 4.229c15.962 16.732 26.394 37.968 29.881 60.828l1.138 7.464c.121.79-.781 1.327-1.418.844l-1.127-.855c-10.834-8.219-22.013-5.787-25.112-4.902-.469.134-.734.616-.605 1.086 5.618 20.619-.925 42.677-16.943 56.897l-44.936 39.892c-.706.627-1.77-.124-1.416-1 3.192-7.916 3.85-16.627 1.885-24.934-.122-.516-.759-.715-1.162-.37l-4.069 3.487c-14.157 12.134-31.194 20.426-49.477 24.082l-3.105.621c-1.428.286-2.626-1.058-2.2-2.451 1.716-5.614 1.395-11.653-.907-17.053-.391-.916-1.575-1.173-2.319-.511l-6.773 6.02c-16.79 14.924-37.894 24.117-60.257 26.247h-.001c-8.854 1.476-17.892 1.476-26.746 0h-.001c-5.496-.523-10.916-1.474-16.214-2.831 16.077 12.911 35.611 20.869 56.214 22.831h.001c8.895.847 17.851.847 26.746 0h.001c22.363-2.13 43.467-11.322 60.257-26.247l6.773-6.02c.744-.662 1.929-.404 2.319.512 2.303 5.4 2.624 11.439.907 17.053-.426 1.393.772 2.736 2.2 2.451l3.108-.622c18.282-3.657 35.318-11.949 49.474-24.082l4.069-3.487c.403-.345 1.039-.146 1.162.37 1.965 8.307 1.307 17.018-1.885 24.934-.353.876.71 1.626 1.416 1l44.936-39.892c16.017-14.219 22.56-36.275 16.945-56.892-.129-.473.137-.958.608-1.092 3.105-.886 14.278-3.312 25.107 4.904l1.127.855c.636.483 1.537-.054 1.417-.844z" fill="#8b818e"/><path d="m144.365 65.772c-11.111-10.088-23.808-18.278-37.494-24.259-3.63-1.587-7.738 1.03-7.793 4.992-.378 27.05 3.299 54.024 10.961 80.294 17.891-15.096 37.202-28.434 57.66-39.849z" fill="#f9c6da"/><path d="m367.649 65.772c11.111-10.088 23.808-18.278 37.494-24.259 3.63-1.587 7.738 1.03 7.793 4.992.378 27.05-3.299 54.024-10.961 80.294-17.891-15.096-37.202-28.434-57.66-39.849z" fill="#f9c6da"/><path d="m412.936 46.505c-.055-3.962-4.163-6.579-7.793-4.992-1.992.87-3.962 1.788-5.91 2.751-.797 17.03-3.051 33.99-6.751 50.691l-.606 2.733c-1.868 8.429-.26 17.131 4.242 24.272 1.969 1.592 3.921 3.205 5.856 4.838 7.663-26.27 11.34-53.243 10.962-80.293z" fill="#efa5c3"/><path d="m256.007 257.943-23.563-26.313c-2.249-2.512-1.439-6.482 1.614-7.912 13.908-6.513 29.99-6.513 43.897 0 3.054 1.43 3.864 5.4 1.614 7.912z" fill="#665e66"/><path d="m256.007 257.943v7.771c0 5.931 2.799 11.514 7.551 15.063l13.506 10.087c12.398 9.259 26.923 15.258 42.242 17.447 14.891 2.127 30.077.589 44.239-4.483l53.284-19.081-18.265-25.403c-16.156-22.47-42.139-35.79-69.814-35.79h-15.45c-11.083 0-22.025 2.481-32.025 7.261l-1.706.815z" fill="#c6c1c8"/><path d="m256.007 257.943v7.771c0 5.931-2.799 11.514-7.551 15.063l-13.506 10.087c-12.398 9.259-26.923 15.258-42.242 17.447-14.891 2.127-30.077.589-44.239-4.483l-53.284-19.081 18.265-25.403c16.156-22.47 42.139-35.79 69.814-35.79h15.449c11.083 0 22.025 2.481 32.025 7.261l1.706.815z" fill="#c6c1c8"/><path d="m497.848 471.835c-1.719-3.77-6.168-5.43-9.936-3.712-3.769 1.72-5.43 6.168-3.711 9.937l8.642 18.948h-188.396c6.951-4.688 13.421-10.425 19.258-17.14 2.718-3.127 2.386-7.863-.74-10.581-3.125-2.717-7.863-2.386-10.581.739-31.287 35.992-81.457 36.006-112.756 0-2.717-3.126-7.455-3.457-10.581-.739s-3.458 7.454-.74 10.581c5.837 6.714 12.307 12.451 19.258 17.14h-188.394l11.763-25.791c16.805-36.845 39.577-70.196 67.74-99.231l9.179 8.149c2.929 2.6 7.208 2.842 10.407.585 3.199-2.255 4.41-6.367 2.946-9.997-1.083-2.685-1.81-5.462-2.177-8.277 13.766 10.222 29.715 17.329 46.567 20.701l3.112.622c6.998 1.404 12.922-5.197 10.84-11.999-.235-.769-.416-1.55-.542-2.338 43.203 36.997 111.303 36.566 153.999 0-.125.787-.306 1.567-.541 2.336-2.055 6.713 3.739 13.407 10.843 12.001l3.108-.622c16.853-3.372 32.802-10.479 46.568-20.701-.368 2.814-1.094 5.592-2.176 8.275-1.465 3.632-.254 7.744 2.945 9.999 3.199 2.257 7.479 2.016 10.406-.585l9.18-8.15c21.433 22.105 39.873 46.9 54.872 73.795 2.011 3.605 6.578 4.921 10.203 2.896 3.618-2.018 4.915-6.585 2.897-10.203-15.529-27.845-34.597-53.532-56.744-76.457l24.527-21.774c16.364-14.528 23.972-35.878 20.757-57.11 3.522.091 8 1.064 12.393 4.397l1.123.852c5.993 4.549 14.503-.505 13.367-7.948l-1.138-7.463c-3.085-20.226-11.131-39.041-23.468-55.079 1.464.689 2.813 1.443 4.123 2.281 3.165 2.014 7.192 1.707 10.02-.76 2.827-2.469 3.672-6.418 2.102-9.831l-8.745-18.984c-10.097-21.917-25.09-41.651-43.521-57.337l3.696-16.684c7.056-31.847 8.982-64.449 5.725-96.903-1.086-10.843-10.877-19.665-21.823-19.665-.562 0-1.122.063-1.669.188-39.013 8.905-63.261 28.617-73.117 36.902l-12.416-7.517c-11.824-7.159-26.621-7.341-38.615-.473l-1.126.646c-1.512-1.112-3.048-2.194-4.58-3.226-21.754-14.644-50.429-14.757-72.349 0-1.532 1.031-3.068 2.112-4.58 3.225l-1.126-.645c-11.995-6.867-26.792-6.688-38.615.473l-12.272 7.43c-26.458-22.59-54.292-32.485-73.261-36.815-.547-.125-1.107-.188-1.669-.188-10.946 0-20.737 8.822-21.825 19.666-3.257 32.454-1.331 65.057 5.725 96.903l3.696 16.684c-2.365 2.011-4.678 4.09-6.91 6.212-3.002 2.854-3.122 7.601-.268 10.603 2.854 3.004 7.602 3.123 10.603.269 2.712-2.578 5.555-5.086 8.466-7.471 2.894-1.55 4.52-4.88 3.778-8.232l-4.721-21.308c-6.71-30.288-8.542-61.296-5.445-92.161.302-3.003 3.173-5.757 6.22-6.123 17.89 4.211 43.946 13.791 68.375 35.556 5.285 4.709-8.394-7.689 27.021 24.464 3.061 2.778 7.802 2.563 10.594-.512 2.777-3.06 2.563-7.803-.512-10.595-.365-.331 2.897 2.629-18.17-16.497l8.344-5.051c7.163-4.337 16.126-4.446 23.393-.287l5.402 3.093c2.599 1.487 5.833 1.288 8.228-.51 3.147-2.36 4.949-3.747 7.906-5.737 16.739-11.27 38.793-11.313 55.596 0 2.98 2.006 4.743 3.365 7.907 5.738 2.395 1.796 5.627 1.996 8.227.509l5.402-3.093c7.266-4.159 16.23-4.052 23.393.287l8.343 5.051-18.171 16.497c-3.071 2.789-3.292 7.532-.512 10.595 2.789 3.07 7.53 3.294 10.594.512 32.24-29.27 22.2-20.265 28.714-25.756 8.397-7.079 30.578-25.776 66.681-34.264 3.048.366 5.919 3.12 6.221 6.123 3.098 30.865 1.266 61.873-5.445 92.161l-4.688 21.162c-.618 2.787.4 5.683 2.626 7.47 18.289 14.687 33.126 33.674 42.908 54.908l1.741 3.778c-4.217-.922-8.563-1.309-12.953-1.134-3.409.136-6.439 2.268-7.72 5.431-1.281 3.164-.587 6.803 1.768 9.272l4.033 4.228c13.672 14.331 22.901 31.94 26.895 51.217-9.262-2.778-17.29-1.045-20.161-.226-4.392 1.255-6.987 5.864-5.784 10.273 4.908 18.018-.72 36.913-14.687 49.313l-30.897 27.429c-.111-3.205-.541-6.412-1.292-9.587-1.424-6.031-8.715-8.301-13.341-4.34l-4.068 3.487c-11.919 10.216-26.121 17.541-41.322 21.354.096-4.569-.772-9.145-2.587-13.401-2.398-5.621-9.634-7.24-14.2-3.175l-6.773 6.02c-15.707 13.961-35.066 22.394-55.985 24.387-30.324 2.882-58.357-3.984-81.311-24.387l-6.77-6.018c-4.556-4.052-11.797-2.467-14.203 3.173-1.815 4.257-2.684 8.832-2.587 13.401-15.201-3.812-29.403-11.138-41.322-21.354l-4.073-3.491c-4.627-3.959-11.914-1.682-13.336 4.342-.751 3.175-1.181 6.384-1.292 9.589l-30.897-27.429c-13.967-12.4-19.595-31.296-14.688-49.311 1.203-4.412-1.392-9.021-5.787-10.277-2.869-.818-10.896-2.552-20.158.227 3.994-19.276 13.223-36.886 26.895-51.217l4.034-4.229c2.354-2.469 3.047-6.107 1.767-9.271-1.281-3.163-4.311-5.295-7.72-5.431-4.392-.172-8.734.211-12.953 1.135 3.588-7.791 6.77-14.576 12.987-23.976 2.285-3.455 1.337-8.108-2.118-10.394-3.456-2.283-8.107-1.337-10.393 2.118-8.745 13.222-12.509 22.521-21.106 41.184-1.569 3.41-.723 7.359 2.104 9.828 2.827 2.468 6.854 2.772 10.024.757 1.331-.841 2.585-1.556 4.118-2.277-12.336 16.039-20.382 34.853-23.467 55.078l-1.138 7.463c-1.134 7.435 7.367 12.501 13.363 7.951l1.129-.855c4.393-3.333 8.87-4.306 12.391-4.396-3.215 21.23 4.393 42.582 20.758 57.11l24.528 21.775c-29.149 30.158-52.732 64.763-70.16 102.974l-16.608 36.403c-2.257 4.947 1.352 10.612 6.824 10.612h497c5.439 0 9.095-5.635 6.824-10.612z"/><path d="m172.739 81.395-23.333-21.177c-11.699-10.621-25-19.228-39.532-25.578-8.541-3.735-18.166 2.443-18.296 11.76-.388 27.793 3.4 55.55 11.26 82.497 1.517 5.201 7.895 7.127 12.037 3.633 17.455-14.728 36.457-27.86 56.478-39.031 4.474-2.497 5.181-8.658 1.386-12.104zm-58.469 32.262c-5.183-21.05-7.774-42.539-7.718-64.063 11.993 5.563 23.005 12.863 32.771 21.729 0 0 0 .001.001.001l15.716 14.266c-14.195 8.447-27.845 17.845-40.77 28.067z"/><path d="m340.661 93.499c20.021 11.171 39.023 24.304 56.478 39.031 4.132 3.485 10.517 1.578 12.037-3.633 7.86-26.947 11.648-54.704 11.26-82.497-.13-9.322-9.763-15.494-18.296-11.76-14.534 6.352-27.834 14.957-39.532 25.578l-23.333 21.177c-3.794 3.444-3.09 9.606 1.386 12.104zm32.028-22.174c.001 0 .001-.001 0 0 9.765-8.866 20.779-16.168 32.772-21.73.056 21.523-2.535 43.013-7.718 64.063-12.924-10.223-26.574-19.62-40.77-28.067z"/><path d="m303.128 192.444v4.506c0 4.143 3.358 7.5 7.5 7.5s7.5-3.357 7.5-7.5v-4.506c0-2.315 1.562-4.351 3.798-4.95l42.348-11.347c4.001-1.071 6.375-5.185 5.304-9.186-1.072-4-5.187-6.379-9.186-5.303l-42.349 11.347c-8.782 2.355-14.915 10.348-14.915 19.439z"/><path d="m142.436 166.962c-1.072 4.001 1.303 8.114 5.304 9.186l42.347 11.347c2.237.6 3.799 2.635 3.799 4.95v4.506c0 4.143 3.358 7.5 7.5 7.5s7.5-3.357 7.5-7.5v-4.506c0-9.091-6.133-17.084-14.916-19.438l-42.348-11.347c-3.998-1.078-8.114 1.301-9.186 5.302z"/><path d="m301.201 327.341c-1.875 1.681-3.875 3.195-5.984 4.537-2.846-5.774-7.815-10.188-14.004-12.335-4.367-1.513-9.064 1.246-9.85 5.814-1.856 10.788-7.271 20.577-15.356 27.863-8.085-7.286-13.5-17.074-15.356-27.863-.783-4.551-5.468-7.333-9.85-5.814-6.189 2.147-11.158 6.561-14.004 12.335-2.109-1.342-4.108-2.856-5.984-4.537-3.084-2.763-7.827-2.502-10.59.583s-2.503 7.827.583 10.591c5.097 4.565 10.884 8.215 17.2 10.846 3.99 1.664 8.572-.388 9.979-4.489l1.459-4.255c4.067 10.24 10.753 19.31 19.504 26.274l2.389 1.901c2.733 2.176 6.608 2.176 9.342 0l2.388-1.901c8.751-6.965 15.437-16.034 19.504-26.274l1.459 4.255c1.406 4.1 5.983 6.151 9.979 4.489 6.317-2.632 12.104-6.281 17.201-10.846 3.085-2.764 3.346-7.506.583-10.591-2.765-3.086-7.508-3.347-10.592-.583z"/><path d="m188.594 110.521c15.356 10.926 27.73 25.707 35.785 42.745 1.281 2.71 3.975 4.297 6.785 4.297 5.426 0 9.149-5.687 6.775-10.707-9.15-19.355-23.206-36.146-40.649-48.557l-1.229-.875c-3.374-2.4-8.058-1.613-10.459 1.762-2.402 3.375-1.613 8.058 1.762 10.459z"/><path d="m315.952 97.425-1.229.874c-17.443 12.412-31.5 29.202-40.649 48.558-2.374 5.02 1.347 10.707 6.775 10.707 2.81 0 5.505-1.587 6.785-4.297 8.055-17.038 20.429-31.819 35.786-42.746l1.229-.875c3.375-2.401 4.164-7.084 1.762-10.459-2.401-3.376-7.084-4.164-10.459-1.762z"/><path d="m263.507 132.523v-40.964c0-4.143-3.358-7.5-7.5-7.5s-7.5 3.357-7.5 7.5v40.965c0 4.143 3.358 7.5 7.5 7.5 4.142-.001 7.5-3.358 7.5-7.501z"/><path d="m64.958 258.227c.152 4.029 3.494 7.342 7.777 7.212l27.852-1.051-11.491 15.982c-2.912 4.049-1.127 9.76 3.561 11.438l22.482 8.051-33.924 12.493c-3.887 1.432-5.877 5.743-4.446 9.63 1.431 3.886 5.74 5.877 9.63 4.446l50.748-18.688 8.794 3.149c31.211 11.179 66.412 6.213 93.497-14.016 14.494-10.824 14.66-10.815 16.569-12.774 1.911 1.96 1.864 1.791 16.569 12.774 26.916 20.103 62.084 25.265 93.497 14.016l8.794-3.149 50.748 18.688c3.887 1.43 8.198-.558 9.63-4.446 1.431-3.887-.56-8.198-4.446-9.63l-33.924-12.493 22.482-8.051c4.695-1.681 6.468-7.396 3.561-11.438l-11.491-15.982 27.852 1.051c4.295.131 7.626-3.195 7.777-7.212.156-4.14-3.073-7.622-7.212-7.778l-39.902-1.506c-13.903-16.371-32.895-27.398-54.219-31.335-4.065-.746-7.984 1.939-8.737 6.014-.752 4.073 1.941 7.984 6.014 8.736 12.833 2.369 24.659 7.797 34.627 15.743l-40.864-1.542c-4.138-.112-7.621 3.073-7.777 7.212-.156 4.14 3.073 7.622 7.212 7.778l56.239 2.123c1.053 1.459-3.568-4.963 12.491 17.373l-29.986 10.738-50.859-18.729c-3.888-1.431-8.199.559-9.63 4.446s.56 8.198 4.446 9.63l33.299 12.263c-24.987 5.977-50.77.307-70.645-14.535l-13.506-10.087c-2.842-2.123-4.539-5.508-4.539-9.055v-4.903c22.269-24.869 20.475-22.977 21.003-23.229 7.62-3.643 15.756-5.784 24.182-6.367 4.132-.286 7.25-3.868 6.964-8-.286-4.133-3.868-7.236-8-6.965-7.48.517-14.772 2.039-21.773 4.535-1.213-1.632-2.828-2.958-4.748-3.858-15.97-7.479-34.289-7.479-50.26 0-1.923.901-3.54 2.231-4.754 3.867-8.78-3.114-18.114-4.739-27.409-4.739h-15.449c-27.447 0-53.526 12.169-71.183 32.888l-39.911 1.506c-4.139.153-7.368 3.636-7.212 7.776zm206.72-29.027-15.671 17.5-15.671-17.5c10.113-3.838 21.228-3.839 31.342 0zm-88.414 1.854h15.449c9.9 0 19.856 2.257 28.79 6.527.53.253-1.233-1.602 21.003 23.229v4.903c0 3.547-1.697 6.932-4.539 9.055l-13.506 10.087c-19.861 14.832-45.641 20.516-70.645 14.535l33.299-12.263c3.887-1.432 5.877-5.743 4.446-9.63-1.432-3.887-5.742-5.876-9.63-4.446l-50.859 18.729-29.986-10.738c16.416-22.833 11.532-16.044 12.491-17.373l56.239-2.123c4.139-.156 7.368-3.639 7.212-7.778-.156-4.14-3.617-7.351-7.777-7.212l-40.798 1.54c13.732-10.888 30.926-17.042 48.811-17.042z"/><path d="m380.323 426.537c-10.951 4.696-14.377 18.544-6.865 27.804l18.172 22.398c1.482 1.827 3.646 2.774 5.829 2.774 6.241 0 9.816-7.3 5.82-12.226l-18.172-22.397c-1.234-1.522-.675-3.794 1.126-4.566 12.383-5.306 14.709-21.834 4.318-30.366l-16.614-13.642c-3.202-2.629-7.928-2.164-10.556 1.037-2.628 3.202-2.164 7.928 1.037 10.557l16.614 13.642c1.715 1.407 1.329 4.111-.709 4.985z"/><path d="m130.981 421.552 16.614-13.642c3.201-2.629 3.666-7.354 1.037-10.557-2.628-3.2-7.355-3.665-10.556-1.037l-16.614 13.642c-10.41 8.546-8.042 25.071 4.316 30.365 1.797.772 2.365 3.042 1.128 4.566l-18.172 22.398c-2.61 3.217-2.118 7.94 1.099 10.55 3.201 2.598 7.928 2.132 10.549-1.099l18.173-22.399c7.505-9.251 4.093-23.104-6.867-27.803-2.033-.871-2.424-3.575-.707-4.984z"/></g></svg>