<svg id="Capa_1" enable-background="new 0 0 512 512" height="512" viewBox="0 0 512 512" width="512" xmlns="http://www.w3.org/2000/svg"><g><g fill="#f9c6da"><path d="m255.999 366.597-26.576-26.576c-2.942-2.942-1.642-7.961 2.357-9.106 15.828-4.529 32.609-4.529 48.436 0 4 1.145 5.299 6.164 2.357 9.106z"/><path d="m72.845 152.512c-1.717 12.022-.971 24.267 2.195 35.991l5.407 20.027c6.542-10.64 14.807-20.27 24.578-28.453l43.935-36.794c7.245-6.067 9.248-16.382 4.806-24.723-6.339-11.901-13.327-23.459-20.91-34.574l-22.303-32.694-10.853-9.617c-9.832-8.712-25.254-7.177-32.72 3.631-6.693 9.69-9.394 21.729-7.285 33.54z"/><path d="m445.018 45.307c-7.466-10.808-22.888-12.343-32.72-3.631l-10.853 9.617-22.303 32.694c-7.584 11.115-14.572 22.673-20.91 34.574-4.443 8.341-2.439 18.655 4.806 24.723l43.935 36.794c9.771 8.183 18.036 17.813 24.578 28.453l5.407-20.027c3.165-11.724 3.912-23.969 2.195-35.991l13.151-73.665c2.108-11.812-.592-23.851-7.286-33.541z"/></g><path d="m382.827 352.2c-31.629-12.262-65.731-16.78-99.459-13.177-.218.351-.482.686-.793.998l-26.576 26.576-26.576-26.576c-.311-.312-.575-.646-.793-.998-33.728-3.603-67.831.914-99.459 13.177l-50.797 19.694c3.289 3.68 6.984 7.045 11.052 10.021 39.191 28.671 86.188 44.722 134.73 46.016l31.843.848 31.843-.848c48.542-1.294 95.538-17.344 134.73-46.016 4.068-2.976 7.764-6.34 11.053-10.021z" fill="#fbf6ec"/><path d="m451.641 320.845-2.884-56.884c-1.651-32.557-16.792-62.954-41.784-83.884l-43.935-36.795c-7.245-6.067-9.248-16.382-4.806-24.723 6.339-11.901 13.327-23.459 20.91-34.574l22.303-32.694-25.712 22.782c-11.259 9.977-21.936 20.579-31.98 31.753-6.235 6.937-15.957 9.57-24.856 6.777-4.174-1.31-8.495-2.19-12.895-2.611-33.26-3.185-66.748-3.185-100.009 0-4.4.421-8.72 1.301-12.895 2.611-8.899 2.793-18.621.16-24.856-6.777-10.044-11.174-20.721-21.776-31.98-31.753l-25.712-22.782 22.303 32.694c7.584 11.115 14.572 22.673 20.91 34.574 4.443 8.341 2.439 18.655-4.806 24.723l-43.935 36.795c-24.992 20.93-40.133 51.327-41.784 83.884l-2.884 56.884c-.959 18.919 5.656 37.216 18.017 51.048l50.797-19.694c31.629-12.262 65.731-16.78 99.459-13.177-1.842-2.964-.426-7.085 3.151-8.108 15.828-4.529 32.609-4.529 48.436 0 3.576 1.023 4.993 5.144 3.15 8.108 33.728-3.603 67.831.914 99.459 13.177l50.797 19.694c12.365-13.832 18.98-32.128 18.021-51.048z" fill="#ceb1a5"/><path d="m390.498 355.174c-2.455 2.418-5.101 4.673-7.927 6.74-39.191 28.671-86.188 44.722-134.729 46.016l-31.843.848-31.843-.848c-27.559-.735-54.619-6.226-80.036-16.082 35.997 22.437 77.421 34.947 120.036 36.082l31.843.848 31.843-.848c48.542-1.294 95.538-17.344 134.73-46.016 4.068-2.976 7.764-6.341 11.052-10.021z" fill="#f9efda"/><path d="m451.641 320.845-2.884-56.884c-1.651-32.557-16.792-62.954-41.784-83.884l-10.717-8.975s-1.13 4.183-2.282 8.45c-1.504 5.569-.77 11.469 1.877 16.595 7.581 14.683 12.052 30.959 12.906 47.815l2.884 56.884c.959 18.919-5.656 37.216-18.017 51.048-1.004 1.124-2.046 2.218-3.125 3.281l43.125 16.719c12.361-13.832 18.976-32.129 18.017-51.049z" fill="#c19d8e"/><path d="m445.018 45.307c-7.466-10.808-22.888-12.343-32.72-3.631l-.213.189c1.133 5.521 1.237 11.278.218 16.982l-13.151 73.665c1.717 12.021.971 24.267-2.195 35.991l-.702 2.599 10.717 8.975c9.771 8.183 18.036 17.813 24.578 28.452l5.407-20.027c3.165-11.724 3.912-23.969 2.195-35.991l13.151-73.665c2.109-11.81-.591-23.849-7.285-33.539z" fill="#efa5c3"/><path d="m474.582 470.187c-14.214-31.165-33.055-59.989-55.873-85.505-38.399 26.936-83.91 41.998-130.867 43.249l-17.344.462c-9.655.638-19.342.638-28.997 0l-17.344-.462c-46.958-1.251-92.469-16.313-130.867-43.249-22.818 25.516-41.659 54.341-55.873 85.506l-15.651 34.312h468.465z" fill="#ceb1a5"/><path d="m474.582 470.187c-14.214-31.165-33.055-59.99-55.873-85.505-5.177 3.632-10.484 7.047-15.906 10.243 12.282 17.357 22.928 35.856 31.779 55.262 7.324 16.059-4.413 34.313-22.064 34.313h-381.63l-9.122 20h468.465z" fill="#c19d8e"/><path d="m481.405 467.074c-13.396-29.371-30.764-56.647-51.688-81.188 19.165-15.347 30.743-39.205 29.413-65.421l-2.884-56.885c-1.009-19.901-6.821-39.14-16.64-56.119l4.591-17.004c3.343-12.383 4.199-25.09 2.545-37.79l12.943-72.503c1.985-11.115.389-22.329-4.492-32.289l7.922-7.567c2.996-2.861 3.104-7.608.243-10.604-2.86-2.993-7.608-3.103-10.604-.243l-6.445 6.156c-3.096-2.668-6.741-4.665-10.694-5.844l17.641-16.85c2.996-2.861 3.104-7.608.243-10.604-2.862-2.995-7.61-3.104-10.604-.243-75.385 72.005-76.656 67.511-104.722 98.738-4.25 4.729-10.936 6.549-17.032 4.635-4.681-1.47-9.535-2.453-14.426-2.922-16.739-1.603-33.594-2.408-50.451-2.417-.201-.007-.336-.007-.536 0-16.856.008-33.712.814-50.452 2.417-4.891.469-9.744 1.452-14.425 2.921-6.096 1.914-12.782.094-17.032-4.634-28.409-31.609-29.285-26.685-104.719-98.738-2.996-2.86-7.744-2.752-10.604.243-2.861 2.996-2.752 7.743.243 10.604l17.641 16.85c-3.953 1.179-7.599 3.176-10.694 5.844l-6.445-6.156c-2.996-2.861-7.744-2.752-10.604.243-2.861 2.996-2.752 7.743.243 10.604l7.922 7.567c-4.881 9.959-6.476 21.173-4.492 32.289l2.055 11.511c.735 4.118 4.669 6.79 8.701 6.064 4.078-.728 6.793-4.623 6.065-8.701l-2.055-11.511c-1.753-9.817.401-19.75 6.073-27.959 4.948-7.161 15.155-7.966 21.575-2.28l10.155 8.998c23.432 34.35 22.976 33.644 25.383 37.314-11.057-3.308-22.951-2.864-33.995 1.463-3.856 1.512-5.758 5.863-4.247 9.72 1.511 3.856 5.863 5.756 9.719 4.247 10.733-4.206 22.589-3.269 32.53 2.568l10.552 6.196c2.454 4.462 2.745 5.039 3.109 6.102l-5.273-1.774c-15.315-5.151-31.852-3.028-45.368 5.827-3.465 2.27-4.434 6.919-2.164 10.384 2.27 3.464 6.919 4.432 10.383 2.163 9.642-6.316 21.439-7.831 32.366-4.157l5.489 1.847-43.156 36.141c-6.119 5.125-11.689 10.801-16.659 16.925l-1.27-4.704c-2.917-10.803-3.593-21.897-2.011-32.976.113-.79.099-1.593-.042-2.379l-4.8-26.89c-.728-4.077-4.625-6.798-8.701-6.064-4.078.728-6.793 4.623-6.065 8.701l4.593 25.728c-1.654 12.699-.799 25.407 2.545 37.79l4.591 17.004c-9.819 16.979-15.631 36.218-16.64 56.119l-2.884 56.885c-1.313 25.894 10.007 49.881 29.415 65.422-15.392 18.059-29.396 38.246-41.315 60.323-2.708 5.017.965 11.064 6.593 11.064 2.667 0 5.25-1.426 6.606-3.938 1.149-2.129 2.322-4.245 3.518-6.348 27.768 20.866 49.361 30.253 69.059 39.323 3.762 1.732 8.216.088 9.949-3.676 1.732-3.763.087-8.217-3.676-9.949l-13.839-6.372c-19.023-8.759-37.072-19.599-53.74-32.269 3.689-5.853 7.561-11.591 11.607-17.203 13.173 10.04 27.215 19.027 41.838 26.77 3.666 1.942 8.202.538 10.138-3.118 1.938-3.66.542-8.199-3.118-10.138-13.916-7.369-27.279-15.923-39.813-25.48 2.752-3.475 5.573-6.895 8.462-10.257 38.502 25.503 82.997 39.57 129.406 40.807l31.843.848c.295.009-1.868.06 32.242-.848 46.409-1.237 90.904-15.304 129.406-40.807 2.892 3.365 5.713 6.784 8.463 10.255-12.534 9.558-25.898 18.113-39.815 25.482-3.661 1.938-5.057 6.478-3.118 10.138 1.938 3.661 6.478 5.057 10.138 3.118 14.625-7.744 28.668-16.732 41.842-26.773 4.049 5.614 7.919 11.351 11.607 17.204-27.071 20.578-48.222 29.729-67.584 38.644-3.762 1.732-5.408 6.187-3.676 9.949 1.737 3.772 6.196 5.404 9.949 3.676 19.923-9.173 41.204-18.391 69.062-39.325 9.087 15.99 13.409 26.24 24.252 50.012h-445.135l5.331-11.688c1.719-3.769.057-8.217-3.711-9.937-3.768-1.718-8.217-.057-9.936 3.712l-10.171 22.301c-2.258 4.946 1.351 10.612 6.823 10.612h468.466c5.437 0 9.095-5.634 6.824-10.612zm-74.287-410.787 10.155-8.998c6.395-5.667 16.614-4.9 21.575 2.28 5.668 8.205 7.827 18.137 6.073 27.959l-13.151 73.665c-.14.786-.154 1.589-.042 2.379 1.583 11.078.906 22.173-2.011 32.976l-1.27 4.704c-4.97-6.124-10.54-11.8-16.659-16.925l-43.155-36.141 5.488-1.846c10.928-3.673 22.724-2.159 32.366 4.157 3.462 2.268 8.113 1.301 10.383-2.163 2.27-3.465 1.301-8.114-2.164-10.384-13.516-8.854-30.052-10.978-45.369-5.827l-5.273 1.774c.443-1.296.935-2.15 3.109-6.102l10.552-6.196c9.942-5.837 21.799-6.773 32.53-2.568 3.858 1.51 8.208-.391 9.719-4.247s-.39-8.208-4.247-9.72c-11.044-4.325-22.938-4.769-33.996-1.462 2.508-3.82 1.354-2.086 25.387-37.315zm-119.476 364.147-31.643.842-31.643-.842c-45.66-1.218-89.347-15.659-126.656-41.818-.106-.077-3.533-2.462-5.527-4.027 60.481-23.447 39.799-15.315 44.234-17.087 28.233-10.177 58.695-14.072 88.586-11.302l23.506 23.505v3.864c0 1.952-.982 3.745-2.627 4.795l-7.427 4.741c-5.083 3.245-10.958 4.96-16.988 4.96h-32.39c-9.942 0-18.696-6.704-21.288-16.304l-.646-2.396c-1.079-3.998-5.193-6.361-9.195-5.287-3.999 1.079-6.366 5.196-5.287 9.195l.646 2.396c4.354 16.13 19.063 27.396 35.769 27.396h32.39c8.896 0 17.561-2.53 25.059-7.316 7.886-5.034 8.171-5.155 9.483-6.237 1.401 1.156 2.05 1.492 9.483 6.236 7.498 4.787 16.163 7.317 25.059 7.317h32.39c16.707 0 31.416-11.266 35.769-27.396l.646-2.396c1.08-3.999-1.288-8.116-5.287-9.195-4.001-1.081-8.116 1.289-9.195 5.287l-.646 2.396c-2.591 9.6-11.345 16.304-21.288 16.304h-32.39c-6.03 0-11.905-1.715-16.988-4.961l-7.426-4.739c-1.646-1.051-2.628-2.844-2.628-4.796v-3.864l23.506-23.505c7.276-.673 14.643-.957 21.929-.857 4.184.082 7.548-3.249 7.608-7.391s-3.249-7.548-7.39-7.607c-6.182-.09-12.412.084-18.607.518-1.541-3.476-4.512-6.083-8.265-7.158-17.193-4.92-35.37-4.92-52.563 0-3.753 1.074-6.724 3.683-8.265 7.158-25.309-1.763-50.905.894-75.317 7.777l3.528-9.357c4.549-12.065 12.471-22.445 22.908-30.017 3.353-2.433 4.099-7.122 1.667-10.476-2.432-3.353-7.122-4.099-10.475-1.667-12.819 9.3-22.549 22.048-28.136 36.868l-7.801 20.691c-1.14.433-14.2 5.5-47.12 18.262-5.363-7.049-9.142-15.033-11.181-23.508l26.169-37.994c9.746-14.15 22.805-26.098 37.766-34.552 3.606-2.037 4.878-6.612 2.84-10.219s-6.615-4.88-10.219-2.84c-16.931 9.566-31.71 23.088-42.74 39.103l-15.176 22.034 2.567-50.628c1.54-30.37 15.794-58.987 39.109-78.514l43.936-36.794c10.064-8.429 12.598-22.756 6.609-34-3.001-5.633-6.158-11.211-9.407-16.631 3.995 4.069 7.896 8.221 11.688 12.439 8.167 9.086 20.997 12.589 32.68 8.918 5.16-1.619 8.879-2.081 13.686-2.517v58.348c0 5.508 1.659 10.813 4.797 15.341l11.701 16.878c1.39 2.006 2.125 4.355 2.125 6.795v22.563c0 4.143 3.358 7.5 7.5 7.5s7.5-3.357 7.5-7.5v-22.563c0-5.508-1.659-10.813-4.797-15.341l-11.701-16.878c-1.39-2.006-2.125-4.355-2.125-6.795v-59.495c8.142-.503 16.302-.813 24.467-.931v45.677c0 4.143 3.358 7.5 7.5 7.5s7.5-3.357 7.5-7.5v-45.677c8.165.118 16.325.428 24.467.931v59.495c0 2.439-.735 4.789-2.125 6.794l-11.702 16.88c-3.138 4.527-4.797 9.832-4.797 15.34v22.563c0 4.143 3.358 7.5 7.5 7.5s7.5-3.357 7.5-7.5v-22.563c0-2.439.735-4.789 2.125-6.794l11.702-16.88c3.138-4.527 4.797-9.832 4.797-15.34v-58.348c4.706.429 8.437.869 13.686 2.518 11.687 3.667 24.514.167 32.68-8.919 3.791-4.218 7.693-8.371 11.687-12.439-3.237 5.401-6.395 10.976-9.407 16.631-6.021 11.304-3.378 25.635 6.61 34l43.936 36.794c23.314 19.526 37.569 48.144 39.109 78.514l2.567 50.628-15.176-22.034c-11.03-16.015-25.809-29.536-42.74-39.103-3.608-2.04-8.182-.768-10.219 2.84-2.038 3.606-.766 8.182 2.84 10.219 14.96 8.454 28.02 20.401 37.766 34.552l26.169 37.994c-2.039 8.474-5.819 16.459-11.181 23.508-36.324-14.082-45.904-17.8-47.12-18.262l-7.801-20.692c-5.587-14.82-15.316-27.568-28.136-36.868-3.354-2.433-8.043-1.687-10.475 1.667s-1.686 8.043 1.667 10.476c10.438 7.571 18.359 17.951 22.908 30.017l3.524 9.348c-6.821-1.928-13.735-3.53-20.692-4.789-4.081-.736-7.978 1.968-8.716 6.044s1.968 7.979 6.044 8.716c11.227 2.032 22.331 5.019 33.076 8.893 3.326 1.335-14.037-5.504 44.254 17.094-2.184 1.712-5.336 3.887-5.549 4.043-37.305 26.15-80.984 40.585-126.634 41.803zm-31.643-64.444-18.758-18.758c12.339-2.957 25.177-2.957 37.516 0z"/><path d="m328.487 461.763c3.302-2.501 3.95-7.205 1.449-10.507s-7.206-3.95-10.507-1.448c-34.976 26.5-91.883 26.5-126.858 0-3.302-2.503-8.005-1.853-10.507 1.448-2.501 3.302-1.853 8.006 1.449 10.507 40.227 30.483 104.729 30.495 144.974 0z"/><path d="m359.351 247.71c-1.072-4.001-5.186-6.381-9.186-5.303l-46.39 12.43c-9.308 2.494-15.809 10.966-15.809 20.603v4.936c0 4.143 3.358 7.5 7.5 7.5s7.5-3.357 7.5-7.5v-4.936c0-2.859 1.929-5.374 4.691-6.114l46.39-12.43c4.001-1.072 6.375-5.185 5.304-9.186z"/><path d="m208.223 254.837-46.39-12.43c-3.994-1.076-8.113 1.302-9.186 5.303-1.072 4.001 1.303 8.114 5.304 9.186l46.389 12.43c2.762.74 4.691 3.255 4.691 6.114v4.936c0 4.143 3.358 7.5 7.5 7.5s7.5-3.357 7.5-7.5v-4.936c.001-9.637-6.5-18.109-15.808-20.603z"/><path d="m192.196 232.07c.95 4.01 4.976 6.529 9.026 5.569 4.031-.954 6.524-4.996 5.569-9.026l-7.028-29.674c-.955-4.03-4.996-6.524-9.026-5.569-4.031.954-6.524 4.996-5.569 9.026z"/><path d="m310.775 237.64c4.052.96 8.077-1.56 9.026-5.569l7.028-29.674c.955-4.03-1.539-8.072-5.569-9.026-4.029-.957-8.072 1.539-9.026 5.569l-7.028 29.674c-.955 4.03 1.539 8.072 5.569 9.026z"/><circle cx="191.041" cy="372.097" r="7.5"/><circle cx="217.482" cy="362.097" r="7.5"/><circle cx="320.957" cy="372.097" r="7.5"/><circle cx="294.516" cy="362.097" r="7.5"/></g></svg>