<svg id="Capa_1" enable-background="new 0 0 512.956 512.956" height="512" viewBox="0 0 512.956 512.956" width="512" xmlns="http://www.w3.org/2000/svg"><g><path d="m164.201 149.928c5.72-3.2 8.358-10.017 6.368-16.262l-29.209-91.656c-12.189-11.57-25.79-21.674-40.54-30.045-22.016-12.496-49.453 2.725-50.506 28.018l-2.124 51.014c-.894 21.482 3.88 42.82 13.843 61.872v14.127c0 16.458 3.332 32.747 9.796 47.883l12.331 28.876 4.746-10.834c15.429-35.218 41.916-64.319 75.295-82.993z" fill="#f4d8bc"/><path d="m464.221 90.997-2.124-51.013c-1.053-25.293-28.491-40.514-50.507-28.019-14.75 8.371-28.35 18.475-40.54 30.045l-29.209 91.656c-1.99 6.245.648 13.062 6.368 16.262 33.378 18.674 59.866 47.775 75.294 82.993l4.746 10.834 12.331-28.876c6.464-15.136 9.796-31.424 9.796-47.883v-14.127c9.965-19.052 14.739-40.391 13.845-61.872z" fill="#f4d8bc"/><path d="m416.141 505.455-2.842-16.382c-4.918-28.345-17.278-54.875-35.815-76.874l-7.576-8.991c-6.615-7.851-6.841-19.258-.54-27.364l15.929-20.494c18.369-23.632 30.871-51.285 36.479-80.686l5.428-28.456 1.047-2.452-4.746-10.834c-15.428-35.218-41.916-64.319-75.294-82.993-5.72-3.2-8.358-10.017-6.368-16.262l29.209-91.656c-15.001 14.24-27.863 30.701-38.096 48.892l-20.118 35.765c-1.614 2.869-4.982 4.26-8.15 3.367l-.425-.12c-31.424-8.864-64.688-8.864-96.113 0l-.425.12c-3.168.894-6.536-.498-8.15-3.367l-20.118-35.765c-10.232-18.191-23.095-34.653-38.096-48.892l29.209 91.656c1.99 6.245-.648 13.062-6.368 16.262-33.378 18.674-59.866 47.775-75.294 82.993l-4.746 10.834 1.047 2.452 5.428 28.456c5.608 29.401 18.11 57.053 36.479 80.686l15.929 20.494c6.3 8.106 6.075 19.513-.54 27.364l-7.576 8.991c-18.538 22-30.898 48.53-35.816 76.875l-2.842 16.383z" fill="#ecb780"/><path d="m464.221 90.997-2.123-51.013c-.927-22.264-22.299-36.724-42.42-31.345 1.4 3.469 2.251 7.275 2.42 11.345l2.124 51.013c.894 21.482-3.88 42.82-13.843 61.873v14.127c0 16.409-3.313 32.649-9.739 47.748 9.141 11.624 16.845 24.435 22.865 38.177l4.746 10.834 12.331-28.876c6.464-15.136 9.796-31.424 9.796-47.883v-14.127c9.963-19.053 14.737-40.392 13.843-61.873z" fill="#efc89d"/><path d="m423.505 232.921c-6.02-13.742-13.725-26.554-22.865-38.177-.019.045-.038.09-.057.135l-12.331 28.876-1.047 2.452-5.428 28.456c-5.608 29.402-18.11 57.054-36.479 80.686l-15.929 20.494c-6.301 8.106-6.075 19.514.54 27.365l7.574 8.989c18.538 22 30.899 48.53 35.817 76.876 1.484 8.555-5.102 16.382-13.784 16.382l-259.732.001c-.237 1.203-.461 2.408-.67 3.618l-2.842 16.383 319.871-.001-2.842-16.382c-4.918-28.345-17.278-54.875-35.815-76.874l-7.576-8.991c-6.615-7.851-6.841-19.259-.54-27.364l15.929-20.494c18.369-23.633 30.871-51.285 36.479-80.686l5.428-28.456 1.047-2.452z" fill="#e7a561"/><path d="m256.206 329.387-78.509 13.759c-3.627.636-6.368 3.748-6.374 7.43v.066c0 27.404 29.086 45.023 53.374 32.332l23.325-12.188c5.031-2.629 8.185-7.835 8.185-13.511v-3.723 3.723c0 5.676 3.154 10.883 8.185 13.511l23.325 12.188c24.288 12.691 53.374-4.928 53.374-32.332 0-.022 0-.044 0-.066-.006-3.682-2.748-6.794-6.374-7.43z" fill="#ffead8"/><path d="m256.206 353.553-26.18-26.18c-4.911-4.911-3.633-13.179 2.531-16.378 14.827-7.696 32.472-7.696 47.299 0 6.164 3.2 7.442 11.467 2.531 16.378z" fill="#f9c6da"/><path d="m287.715 382.974-23.325-12.188c-5.031-2.629-8.185-7.835-8.185-13.511 0 5.676-3.154 10.882-8.185 13.511l-23.325 12.188c-9.445 4.935-19.616 5.287-28.52 2.261 10.711 22.376 33.565 37.832 60.029 37.832s49.318-15.456 60.029-37.832c-8.902 3.026-19.073 2.675-28.518-2.261z" fill="#ffe2cb"/><path d="m225.592 125.934 9.15 72.286c11.944-11.636 30.985-11.636 42.929 0l9.15-72.286c-20.255-3.557-40.976-3.557-61.229 0z" fill="#e28424"/><path d="m286.547 258.495v5.622c0 4.143 3.357 7.5 7.5 7.5s7.5-3.357 7.5-7.5v-5.622c0-3.729 2.515-7.006 6.116-7.972l52.841-14.158c4.001-1.071 6.375-5.185 5.303-9.186s-5.182-6.379-9.186-5.303l-52.841 14.158c-10.146 2.72-17.233 11.956-17.233 22.461z"/><path d="m218.364 271.617c4.142 0 7.5-3.357 7.5-7.5v-5.622c0-10.505-7.087-19.74-17.234-22.46l-52.84-14.158c-3.996-1.076-8.113 1.302-9.186 5.303-1.072 4.001 1.303 8.114 5.304 9.186l52.84 14.158c3.602.966 6.117 4.243 6.117 7.972v5.622c-.001 4.142 3.357 7.499 7.499 7.499z"/><path d="m469.59 39.672c-1.286-30.93-34.834-49.481-61.702-34.23-32.685 18.551-61.473 46.237-81.471 81.783l-19.975 35.512c-32.185-9.134-66.786-9.461-100.475 0l-19.976-35.512c-18.635-33.131-46.38-61.867-81.47-81.783-26.92-15.281-60.416 3.361-61.701 34.23l-1.342 32.239c-.172 4.139 3.043 7.633 7.182 7.805 4.101.188 7.632-3.024 7.806-7.182l1.342-32.239c.82-19.708 22.192-31.522 39.311-21.809 13.587 7.712 26.257 17.01 37.687 27.655l16.001 50.21c-10.165-8.898-21.962-15.916-34.797-20.561-3.896-1.411-8.196.604-9.605 4.499-1.41 3.895.605 8.195 4.5 9.604 20.398 7.384 37.756 21.707 48.876 40.333l3.819 6.396c.192.953.16 1.917-.068 2.825-18.717-13.78-41.534-21.313-64.846-21.313-4.142 0-7.5 3.357-7.5 7.5s3.358 7.5 7.5 7.5c18.67 0 36.973 5.6 52.42 15.913-28.771 18.486-52.138 45.001-66.812 75.921l-5.566-13.034c-6.1-14.285-9.193-29.404-9.193-44.938v-14.127c0-1.21-.293-2.403-.854-3.476-6.937-13.265-11.17-27.547-12.583-42.452-.39-4.123-4.053-7.138-8.174-6.759-4.124.391-7.15 4.051-6.759 8.175 1.538 16.228 6.034 31.803 13.37 46.326v12.313c0 17.57 3.499 34.671 10.398 50.828 8.166 19.123-11.951-27.979 13.061 30.585l5.276 27.66c4.986 26.141 15.37 51.236 30.253 73.295-15.728 5.68-30.657 13.596-44.132 23.469-3.341 2.448-4.065 7.142-1.617 10.482 2.451 3.347 7.144 4.063 10.482 1.617 13.513-9.901 28.626-17.649 44.549-22.909 16.233 20.885 14.243 18.323 14.414 18.548-19 8.659-36.475 20.72-51.244 35.457-2.932 2.926-2.938 7.675-.012 10.607 2.916 2.922 7.664 2.946 10.606.012 12.051-12.024 26.071-22.1 41.294-29.756-4.186 6.542-36.539 35.57-46.138 90.9l-2.842 16.383c-.796 4.588 2.741 8.782 7.39 8.782l319.871-.001c4.658 0 8.183-4.203 7.39-8.782l-2.842-16.382c-9.586-55.247-42.052-84.513-46.139-90.9 15.223 7.656 29.243 17.732 41.293 29.756 2.929 2.921 7.678 2.924 10.607-.012 2.926-2.933 2.92-7.682-.012-10.607-14.77-14.736-32.244-26.798-51.244-35.457.431-.565.112-.147 14.414-18.547 15.922 5.26 31.035 13.008 44.547 22.909 3.333 2.444 8.029 1.732 10.482-1.617 2.448-3.341 1.725-8.034-1.617-10.482-13.472-9.872-28.398-17.786-44.124-23.466 8.774-12.981 15.961-26.957 21.432-41.695 1.441-3.883-.538-8.199-4.422-9.641-3.883-1.44-8.199.538-9.641 4.422-5.58 15.034-13.095 29.209-22.382 42.237-9.596-2.524-14.611-3.179-37.118-7.034-.41-1.425-.885-2.824-1.423-4.192 17.244-5.948 30.051-20.435 33.765-38.472l2.695-13.094c.835-4.057-1.776-8.022-5.834-8.857-4.054-.837-8.023 1.775-8.857 5.834l-2.695 13.093c-2.787 13.532-12.782 24.253-26.086 27.978l-.964.27c-6.856-7.999-16.426-13.676-27.493-15.583-4.09-.701-7.962 2.035-8.665 6.116-.704 4.082 2.034 7.962 6.116 8.665 8.624 1.487 15.907 6.35 20.6 13.1.187.332.398.646.629.94.256.398.503.801.741 1.21l-11.795-2.021c-4.079-.693-7.96 2.044-8.659 6.126-.699 4.083 2.044 7.96 6.126 8.659l18.62 3.19c0 4.977-1.221 9.708-3.498 13.895l-21.644-7.211c-3.933-1.313-8.178.814-9.486 4.744-1.31 3.93.814 8.178 4.744 9.486l14.353 4.782c-8.427 4.434-18.343 4.469-26.87.014l-23.324-12.188c-2.565-1.34-4.158-3.97-4.158-6.864v-.615l23.984-23.985c8.502-8.502 6.299-22.794-4.38-28.339-16.972-8.808-37.236-8.809-54.209.001-10.676 5.542-12.885 19.832-4.378 28.339l23.983 23.984v.616c0 2.894-1.593 5.524-4.158 6.864l-23.325 12.188c-8.528 4.454-18.444 4.42-26.87-.014l14.353-4.782c3.93-1.309 6.054-5.557 4.745-9.486-1.309-3.93-5.558-6.061-9.486-4.744l-21.644 7.211c-2.276-4.184-3.498-8.915-3.498-13.895l18.62-3.19c4.083-.699 6.826-4.576 6.126-8.659-.699-4.083-4.575-6.818-8.658-6.126l-11.797 2.021c4.657-8.001 12.612-13.637 21.97-15.25 4.082-.703 6.821-4.583 6.117-8.665-.703-4.081-4.586-6.816-8.665-6.116-11.067 1.907-20.637 7.584-27.493 15.583l-.963-.27c-13.304-3.725-23.299-14.445-26.085-27.978l-2.696-13.094c-.835-4.058-4.806-6.668-8.858-5.833-4.057.835-6.669 4.801-5.833 8.858l2.695 13.094c3.713 18.035 16.521 32.523 33.765 38.471-.539 1.368-1.014 2.767-1.424 4.192-22.917 3.926-27.773 4.576-37.114 7.033-15.13-21.256-25.637-45.799-30.526-71.43-5.888-30.867-5.451-28.74-5.685-29.435l3.458-7.894c14.643-33.424 40.243-61.643 72.086-79.458 9.095-5.1 12.912-16.012 9.817-25.196l-18.407-57.759c4.975 6.716 9.533 13.747 13.647 21.061l20.118 35.766c3.323 5.907 10.2 8.75 16.726 6.908 3.022-.851 5.874-1.599 9.399-2.389 3.677 29.045 9.654 76.271 11.988 94.712.479 3.79 3.708 6.56 7.431 6.56 4.542 0 8.015-3.978 7.45-8.442l-3.339-26.382c8.094-5.825 18.933-5.825 27.027 0l-3.339 26.382c-.521 4.109 2.39 7.862 6.499 8.382 4.087.525 7.86-2.376 8.382-6.499 6.412-50.669.678-5.354 6.845-54.082.521-4.109-2.39-7.862-6.499-8.382-4.104-.535-7.861 2.389-8.382 6.499l-1.472 11.63c-9.89-4.44-21.205-4.44-31.095 0l-6.71-53.009c14.775-1.959 29.741-1.959 44.515 0l-.851 6.72c-.567 4.48 2.923 8.443 7.45 8.443 3.722 0 6.951-2.77 7.431-6.559l.756-5.974c3.323.745 6.357 1.526 9.402 2.391 6.523 1.836 13.399-1.001 16.724-6.909 21.647-38.487 24.291-44.04 33.765-56.827l-18.4 57.74c-3.099 9.116.677 20.097 9.81 25.216 31.844 17.815 57.444 46.033 72.087 79.458l3.458 7.893c-.232.692.189-1.356-4.901 25.332-.776 4.069 1.894 7.996 5.962 8.772 4.064.78 7.996-1.893 8.772-5.962l4.492-23.557c1.009-2.36 12.898-30.202 13.062-30.585 6.9-16.159 10.398-33.26 10.398-50.828v-12.313c9.977-19.77 14.758-41.854 13.836-63.998zm-121.072 313.503c18.939 3.244 20.537 3.459 25.44 4.542-10.975 14.12-11.462 14.555-12.909 17.139-1.982-.701-1.712-.601-16.566-5.55 2.327-4.987 3.716-10.442 4.035-16.131zm-112.507-35.524c12.644-6.563 27.74-6.564 40.388-.001 1.676.87 2.003 3.1.684 4.419l-20.877 20.878-20.877-20.878c-1.326-1.325-.986-3.553.682-4.418zm-7.841 71.971 23.325-12.188c1.728-.903 3.305-2.006 4.711-3.271 1.406 1.266 2.983 2.369 4.711 3.271l23.324 12.188c17.574 9.182 37.906 5.345 51.149-7.534 19.295 6.429 19.228 6.386 21.942 7.372.062 6.638 2.35 13.253 6.84 18.581l7.576 8.99c17.663 20.962 29.476 46.317 34.161 73.324l1.318 7.6-302.045.001 1.319-7.601c4.686-27.007 16.498-52.362 34.161-73.324l7.576-8.99c4.49-5.328 6.778-11.943 6.84-18.581 2.705-.983 2.42-.867 21.942-7.372 13.353 12.985 33.696 16.653 51.15 7.534zm-64.277-36.447c.319 5.689 1.708 11.144 4.035 16.132-14.566 4.853-14.558 4.84-16.565 5.55-1.492-2.664-1.789-2.833-12.909-17.139 4.896-1.083 6.47-1.293 25.439-4.543zm279.839-203.781c-.561 1.073-.854 2.266-.854 3.476v14.127c0 15.532-3.093 30.651-9.193 44.938l-5.566 13.034c-14.674-30.919-38.04-57.435-66.811-75.921 15.447-10.313 33.75-15.914 52.419-15.914 4.143 0 7.5-3.357 7.5-7.5s-3.357-7.5-7.5-7.5c-23.312 0-46.131 7.534-64.846 21.313-.229-.907-.261-1.871-.069-2.823l3.82-6.397c11.12-18.626 28.478-32.949 48.876-40.333 3.895-1.409 5.909-5.71 4.499-9.604s-5.711-5.91-9.604-4.499c-12.835 4.646-24.632 11.663-34.797 20.561l16-50.208c11.428-10.644 24.098-19.942 37.687-27.656 17.151-9.735 38.493 2.141 39.312 21.809l2.124 51.013c.836 20.137-3.657 40.223-12.997 58.084z"/><path d="m214.092 417.425c25.197 17.463 58.83 17.601 84.227 0 3.405-2.359 4.252-7.031 1.893-10.436-2.358-3.406-7.031-4.253-10.436-1.893-20.078 13.913-46.906 14.023-67.14 0-3.405-2.36-8.077-1.512-10.437 1.893-2.359 3.405-1.511 8.077 1.893 10.436z"/><path d="m210.047 191.406c.745-4.075-1.954-7.982-6.028-8.728-4.077-.74-7.982 1.954-8.727 6.028-2.004 10.945-.993 21.278 3.043 31.15 1.562 3.822 5.936 5.677 9.78 4.104 3.834-1.567 5.672-5.946 4.104-9.78-3.036-7.427-3.616-14.879-2.172-22.774z"/><path d="m304.295 223.962c3.818 1.56 8.205-.252 9.781-4.104 4.033-9.866 5.048-20.19 3.044-31.151-.746-4.073-4.648-6.769-8.728-6.028-4.074.745-6.773 4.652-6.028 8.728 1.441 7.829.877 15.317-2.173 22.774-1.567 3.834.27 8.213 4.104 9.781z"/></g></svg>