<svg id="Capa_1" enable-background="new 0 0 512.008 512.008" height="512" viewBox="0 0 512.008 512.008" width="512" xmlns="http://www.w3.org/2000/svg"><g><path d="m392.112 397.35c-11.828-10.958-20.663-24.47-26.018-39.278-.888.57-1.786 1.128-2.693 1.674-16.798 10.101-36.03 15.437-55.631 15.437h-15.794c-6.701 0-13.308 1.377-19.54 3.839-5.996 2.369-11.682 3.709-16.433 3.709-4.75 0-10.436-1.34-16.433-3.709-6.232-2.462-12.839-3.839-19.54-3.839h-15.794c-19.601 0-38.833-5.336-55.631-15.437-.907-.546-1.805-1.104-2.693-1.674-5.355 14.808-14.189 28.321-26.018 39.278-29.964 27.76-51.572 64.76-60.145 107.158h392.506c-8.572-42.398-30.179-79.398-60.143-107.158z" fill="#665e66"/><path d="m392.112 397.35c-11.828-10.958-20.663-24.47-26.018-39.278-.888.57-1.786 1.128-2.693 1.674-6.167 3.708-12.663 6.774-19.385 9.169 2.517 2.951 5.217 5.769 8.095 8.435 15.34 14.211 28.49 30.844 38.822 49.384 14.434 25.899-4.344 57.774-33.994 57.774h-292.066c-2.031 6.517-3.745 13.188-5.122 20h392.506c-8.574-42.398-30.181-79.398-60.145-107.158z" fill="#544f57"/><path d="m422.185 187.759-.085.085-11.414-16.063c-13.669-19.236-41.693-48.624-57.464-64.709-5.913-6.031-6.861-15.349-2.279-22.443l.079-.122 40.913-63.638-53.972 49.53c-2.518 2.311-5.343 4.214-8.374 5.669-4.664 2.239-10.073 2.466-14.953.749-6.366-2.24-13.126-3.418-20.016-3.418h-77.231c-6.89 0-13.651 1.178-20.016 3.418-4.88 1.717-10.29 1.49-14.953-.749-3.03-1.455-5.856-3.358-8.374-5.669l-53.972-49.53 40.913 63.638.078.122c4.575 7.105 3.62 16.426-2.296 22.46-15.774 16.089-43.783 45.463-57.447 64.692l-11.414 16.063-.085-.085c-3.248 7.651-4.374 16.141-3.099 24.553l10.775 71.092c4.818 31.788 23.554 59.774 51.107 76.342 16.798 10.101 36.03 15.437 55.631 15.437h15.794c6.701 0 13.308 1.377 19.54 3.839 5.996 2.369 11.682 3.709 16.433 3.709 4.75 0 10.436-1.34 16.432-3.709 6.232-2.462 12.839-3.839 19.54-3.839h15.794c19.601 0 38.832-5.336 55.631-15.437 27.554-16.568 46.289-44.554 51.107-76.342l10.775-71.092c1.276-8.412.15-16.902-3.098-24.553z" fill="#665e66"/><path d="m256.004 327.352-26.923-26.923c-3.103-3.103-1.909-8.38 2.227-9.845 15.977-5.659 33.413-5.659 49.391 0 4.136 1.465 5.33 6.742 2.227 9.845z" fill="#544f57"/><path d="m101.322 171.781c13.721-19.309 41.908-48.849 57.644-64.893 5.876-5.991 6.655-15.213 2.099-22.259-.026-.041-.052-.081-.078-.122l-40.913-63.638-9.887-9.074c-8.009-7.35-20.834-4.932-25.617 4.83-11.34 23.143-11.709 50.149-1.008 73.594l6.641 14.549-1.922 18.657c-1.169 11.346.782 22.753 5.583 33.01 1.911 4.082 2.252 8.725 1.062 13.072l-4.81 17.581c-.099.223-.196.447-.292.672l.085.085z" fill="#e490b7"/><path d="m415.08 162.185c7.006-11.642 10.041-25.245 8.648-38.76l-1.922-18.657 6.641-14.549c10.702-23.444 10.332-50.451-1.008-73.594-4.783-9.761-17.608-12.179-25.617-4.83l-9.887 9.074-40.913 63.638c-.026.041-.052.081-.079.122-4.556 7.047-3.777 16.269 2.099 22.259 15.736 16.044 43.923 45.584 57.644 64.893l11.414 16.063.085-.085c-.095-.225-.193-.449-.292-.672z" fill="#e490b7"/><path d="m422.185 187.759-.085.084-11.414-16.063c-7.574-10.658-19.555-24.434-31.417-37.336-2.042 7.282-2.212 14.967-.206 22.298l2.83 10.344c.099.223.196.448.292.672 3.248 7.651 4.375 16.141 3.1 24.553l-10.775 71.092c-4.818 31.788-23.554 59.774-51.107 76.342-16.798 10.101-36.03 15.437-55.631 15.437h-15.77c-6.454 0-12.884 1.126-18.862 3.558-6.254 2.544-12.199 3.99-17.135 3.99s-10.881-1.446-17.135-3.99c-5.979-2.432-12.408-3.558-18.863-3.558h-15.769c-9.232 0-18.382-1.184-27.235-3.492 3.665 2.917 7.539 5.611 11.604 8.055 16.798 10.101 36.03 15.437 55.631 15.437h15.794c6.701 0 13.308 1.377 19.54 3.839 5.996 2.369 11.682 3.709 16.433 3.709 4.75 0 10.436-1.34 16.433-3.709 6.232-2.462 12.839-3.839 19.54-3.839h15.794c19.601 0 38.833-5.336 55.631-15.437 27.554-16.568 46.289-44.554 51.107-76.342l10.775-71.092c1.274-8.411.148-16.901-3.1-24.552z" fill="#544f57"/><path d="m427.44 16.625c-4.783-9.762-17.608-12.18-25.617-4.83l-7.134 6.546c3.312 17.341 1.243 35.48-6.242 51.877l-1.014 2.222c-3.685 8.072-5.148 16.981-4.239 25.807l.533 5.177c.975 9.461-.22 18.964-3.427 27.808-.385 1.06-.729 2.131-1.031 3.212 11.862 12.902 23.843 26.677 31.417 37.336l11.414 16.063.085-.084c-.095-.225-.193-.449-.292-.672l-6.813-24.902c7.006-11.642 10.041-25.245 8.648-38.76l-1.922-18.657 6.642-14.55c10.701-23.444 10.331-50.45-1.008-73.593z" fill="#df75a5"/><path d="m203.41 338.301c1.83-1.861 3.7-3.691 5.609-5.49 3.015-2.84 3.156-7.587.315-10.602-2.84-3.013-7.586-3.154-10.602-.315-3.901 3.676-7.65 7.474-11.242 11.387l-3.896-1.351c-6.637-2.301-11.33-8.139-12.264-14.962 7.954-2.422 16.098-4.367 24.402-5.818 4.08-.713 6.81-4.599 6.097-8.679-.713-4.081-4.601-6.82-8.679-6.097-4.757.831-9.464 1.813-14.118 2.944.971-.681.453-.355 11.199-6.456 3.602-2.046 4.864-6.623 2.819-10.226-2.046-3.602-6.624-4.862-10.226-2.819l-6.299 3.577c-21.957-10.54-38.55-26.365-49.679-46.603-1.996-3.629-6.555-4.951-10.187-2.958-3.629 1.996-4.953 6.557-2.958 10.187 11.607 21.106 28.73 38.135 49.764 49.567-2.863 3.596-4.97 7.759-6.167 12.221-12.777 4.554-25.049 10.283-36.696 17.125-8.039-12.07-13.452-25.893-15.689-40.652l-10.775-71.092c-.989-6.524-.258-13.178 2.113-19.324l11.183-15.738c16.712-23.517 56.533-63.562 57.171-64.291 4.308-4.632 6.63-10.474 6.855-16.429.046-.454.051-.912.015-1.367-.075-4.646-1.427-9.311-4.109-13.476l-9.585-14.909 11.192 10.271c3.045 2.795 6.477 5.117 10.198 6.904 6.371 3.06 13.912 3.448 20.69 1.063 5.642-1.985 11.539-2.992 17.526-2.992h29.013c4.143 0 7.5-3.357 7.5-7.5s-3.357-7.5-7.5-7.5h-29.011c-7.688 0-15.261 1.293-22.505 3.843-3.049 1.072-6.409.915-9.219-.436-2.391-1.146-4.594-2.639-6.549-4.433-13.112-12.033-49.274-45.218-63.86-58.604-11.706-10.745-30.428-7.221-37.423 7.055-7.105 14.502-10.347 30.688-9.372 46.81.24 3.981 3.544 7.048 7.479 7.048 4.331 0 7.754-3.644 7.493-7.952-.818-13.537 1.903-27.129 7.87-39.307 2.584-5.275 9.497-6.562 13.811-2.604l9.174 8.419 22.934 35.672c-10.401-4.853-22.236-6.204-33.876-3.572-4.04.913-6.575 4.929-5.662 8.969.912 4.04 4.924 6.576 8.969 5.662 12.864-2.907 26.066.979 35.303 10.4l12.738 12.991-8.049-4.546c-12.174-6.876-26.755-6.954-39.003-.209-3.628 1.998-4.949 6.56-2.951 10.188 1.999 3.628 6.56 4.95 10.188 2.951 7.659-4.217 16.776-4.168 24.39.131l7.534 4.255c-13.408 13.87-31.654 33.353-44.457 49.399-.405-1.637-.968-3.237-1.688-4.774-4.24-9.062-5.939-19.111-4.914-29.063l1.922-18.656c.137-1.328-.084-2.669-.639-3.883l-4.623-10.127c-1.72-3.769-6.172-5.43-9.937-3.708-3.769 1.72-5.429 6.169-3.708 9.937l3.775 8.272-1.713 16.628c-1.304 12.655.857 25.435 6.251 36.958 1.134 2.422 1.354 5.232.62 7.913-5.038 18.413-4.617 16.937-4.765 17.289-3.944 9.399-5.053 19.148-3.617 28.62l10.775 71.092c2.554 16.853 8.711 32.644 17.852 46.453-11.948 8.19-23.13 17.627-33.404 28.233-2.882 2.975-2.807 7.723.169 10.604 2.962 2.871 7.711 2.819 10.604-.169 9.743-10.059 20.366-18.987 31.725-26.71 5.801 6.672 12.396 12.703 19.693 17.953-5.084 11.692-12.589 22.307-21.924 30.957-32.136 29.771-53.713 68.214-62.4 111.174-.935 4.628 2.598 8.986 7.352 8.986h392.506c4.73 0 8.291-4.337 7.352-8.986-4.973-24.587-14.208-47.787-27.452-68.956-2.198-3.513-6.826-4.578-10.336-2.381-3.512 2.197-4.577 6.824-2.381 10.336 10.659 17.038 18.521 35.497 23.428 54.987h-134.953c7.401-4.655 14.296-10.343 20.524-16.994 2.831-3.023 2.676-7.77-.349-10.601-3.023-2.831-7.77-2.675-10.601.349-34.042 36.351-88.927 36.357-122.975 0-2.831-3.024-7.577-3.181-10.601-.349-3.024 2.831-3.18 7.577-.349 10.601 6.229 6.652 13.123 12.34 20.525 16.994h-134.95c9.111-36.23 28.299-68.629 55.854-94.156 10.307-9.548 18.692-21.155 24.572-33.935 2.906 1.563 5.872 2.996 8.89 4.3-11.55 20.467-19.725 42.813-24.185 66.418-.77 4.07 1.906 7.993 5.977 8.762 4.037.771 7.989-1.884 8.762-5.977 4.318-22.849 12.374-44.43 23.812-64.095 10.177 2.878 20.747 4.358 31.417 4.358h15.794c5.57 0 11.217 1.115 16.784 3.314 7.11 2.809 13.565 4.233 19.188 4.233s12.078-1.425 19.188-4.233c5.567-2.199 11.214-3.314 16.784-3.314h15.794c10.67 0 21.241-1.48 31.417-4.358 11.438 19.665 19.494 41.247 23.812 64.095.765 4.049 4.67 6.749 8.762 5.977 4.07-.769 6.746-4.691 5.977-8.762-4.46-23.606-12.635-45.952-24.185-66.418 3.017-1.303 5.983-2.737 8.889-4.3 5.879 12.78 14.265 24.387 24.572 33.935 4.116 3.813 8.11 7.852 11.871 12.002 1.48 1.634 3.516 2.464 5.56 2.464 6.445 0 9.932-7.707 5.556-12.536-4.053-4.473-8.357-8.824-12.793-12.934-9.335-8.649-16.84-19.265-21.924-30.957 7.297-5.25 13.892-11.281 19.693-17.953 11.359 7.723 21.982 16.652 31.725 26.71 2.876 2.971 7.626 3.055 10.604.169 2.976-2.882 3.051-7.63.169-10.604-10.273-10.606-21.456-20.042-33.404-28.233 9.141-13.809 15.298-29.6 17.852-46.453l10.775-71.092c1.47-9.689.221-19.582-3.611-28.607-.166-.391.209.899-5.955-21.632 6.638-12.329 9.492-26.598 8.056-40.541l-1.713-16.628 5.795-12.695c11.68-25.588 11.28-54.75-1.097-80.009-6.99-14.264-25.711-17.8-37.423-7.054-13.14 12.059-50.504 46.347-63.859 58.604-1.954 1.793-4.158 3.285-6.549 4.434-2.81 1.347-6.169 1.506-9.217.436-7.246-2.551-14.818-3.844-22.507-3.844h-13.219c-4.143 0-7.5 3.357-7.5 7.5s3.357 7.5 7.5 7.5h13.22c5.987 0 11.885 1.007 17.527 2.993 6.776 2.384 14.317 1.996 20.688-1.063 3.725-1.788 7.155-4.111 10.199-6.904l11.192-10.271-9.583 14.906c-2.729 4.226-4.085 8.968-4.125 13.683-.017.317-.013.634.01.951.177 6.051 2.523 11.998 6.92 16.693 3.006 3.368 40.187 40.405 57.124 64.238l11.183 15.739c2.371 6.146 3.103 12.8 2.113 19.324l-10.775 71.092c-2.237 14.76-7.65 28.582-15.689 40.652-11.647-6.842-23.919-12.571-36.696-17.125-1.197-4.462-3.304-8.624-6.167-12.221 21.033-11.432 38.156-28.46 49.764-49.567 1.995-3.63.671-8.19-2.958-10.187-3.63-1.994-8.189-.671-10.187 2.958-11.119 20.222-27.706 36.056-49.678 46.603l-6.3-3.577c-3.6-2.043-8.18-.783-10.226 2.819-2.045 3.603-.782 8.18 2.819 10.226 10.858 6.164 10.259 5.795 11.201 6.457-4.655-1.13-9.363-2.113-14.12-2.944-4.082-.72-7.966 2.017-8.679 6.097s2.017 7.966 6.097 8.679c8.304 1.451 16.448 3.396 24.402 5.818-.934 6.823-5.627 12.66-12.265 14.962l-3.896 1.35c-3.593-3.913-7.341-7.711-11.242-11.387-3.016-2.839-7.762-2.697-10.602.315-2.841 3.015-2.699 7.762.315 10.602 1.909 1.799 3.779 3.63 5.609 5.49-11.912 3.085-24.15 4.644-36.521 4.644-4.728 0-8.573-3.846-8.573-8.572v-3.913l24.727-24.727c7.006-7.008 4.299-18.914-5.027-22.219-17.539-6.213-36.857-6.211-54.4 0-9.324 3.305-12.031 15.211-5.025 22.219l24.727 24.727v3.913c0 4.727-3.846 8.572-8.573 8.572-12.37-.001-24.608-1.561-36.52-4.645zm161.798-229.67 7.533-4.254c7.612-4.302 16.732-4.348 24.39-.131 3.629 1.998 8.189.677 10.188-2.951s.677-8.189-2.951-10.188c-12.245-6.744-26.826-6.667-39.003.209l-8.049 4.546 12.738-12.991c9.237-9.421 22.438-13.307 35.303-10.4 4.039.91 8.056-1.622 8.969-5.662s-1.622-8.056-5.662-8.969c-11.639-2.63-23.475-1.28-33.877 3.573l22.933-35.673 9.173-8.418c4.318-3.964 11.23-2.667 13.812 2.604 10.392 21.208 10.728 45.693.92 67.179l-6.642 14.55c-.554 1.214-.774 2.555-.638 3.883l1.922 18.656c1.183 11.478-1.331 23.235-7.086 33.23-12.774-15.925-30.73-35.093-43.973-48.793zm-10.202 213.296c9.351 3.636 18.393 7.958 27.07 12.939-6.55 7.184-14.135 13.398-22.54 18.452-4.464 2.684-9.114 5.006-13.904 6.955-3.349-5.063-6.918-9.991-10.7-14.774 10.235-4.144 17.661-13.034 20.074-23.572zm-79.135-25.048-19.867 19.867-19.867-19.867c12.9-4.035 26.834-4.037 39.734 0zm-35.94 61.066c6.206 0 11.859-2.411 16.073-6.344 4.214 3.934 9.867 6.344 16.073 6.344 16.244 0 32.281-2.438 47.75-7.251 3.858 4.626 7.494 9.406 10.903 14.329-7.493 1.76-15.197 2.661-22.96 2.661h-15.794c-7.465 0-14.966 1.468-22.296 4.363-5.272 2.083-10.002 3.185-13.677 3.185s-8.404-1.102-13.677-3.185c-7.33-2.896-14.831-4.363-22.296-4.363h-15.794c-7.764 0-15.467-.901-22.96-2.661 3.409-4.923 7.046-9.703 10.903-14.329 15.471 4.813 31.508 7.251 47.752 7.251zm-110-23.079c8.677-4.98 17.719-9.303 27.07-12.939 2.414 10.539 9.84 19.429 20.073 23.572-3.782 4.784-7.351 9.712-10.7 14.774-13.884-5.65-26.374-14.364-36.443-25.407z"/><path d="m294.677 227.141v4.894c0 4.143 3.357 7.5 7.5 7.5s7.5-3.357 7.5-7.5v-4.894c0-2.807 1.894-5.274 4.604-6.001l45.997-12.325c4.001-1.072 6.375-5.185 5.303-9.186-1.071-4-5.183-6.378-9.186-5.303l-45.997 12.325c-9.256 2.481-15.721 10.907-15.721 20.49z"/><path d="m209.831 239.535c4.143 0 7.5-3.357 7.5-7.5v-4.894c0-9.583-6.465-18.009-15.722-20.489l-45.997-12.325c-4.003-1.075-8.114 1.303-9.186 5.303-1.072 4.001 1.302 8.113 5.303 9.186l45.997 12.325c2.711.727 4.604 3.194 4.604 6.001v4.894c.001 4.141 3.359 7.499 7.501 7.499z"/><path d="m223.928 190.996c1.646 2.39 4.584 3.675 7.55 3.122 3.88-.721 6.538-4.324 6.08-8.244l-.337-2.884c-3.084-26.424-16.274-50.064-37.139-66.567l-4.104-3.246c-3.249-2.57-7.967-2.021-10.535 1.229-2.57 3.249-2.02 7.966 1.229 10.535l4.104 3.247c11.945 9.448 20.929 21.651 26.319 35.475-13.575-11.035-30.34-17.572-47.926-18.573-4.109-.236-7.678 2.928-7.913 7.063s2.927 7.679 7.063 7.914c16.406.934 31.942 7.742 43.748 19.172 8.83 8.545 11.221 11.046 11.861 11.757z"/><path d="m288.08 190.996c-1.646 2.39-4.584 3.675-7.55 3.122-3.88-.721-6.538-4.324-6.08-8.244l.337-2.884c3.084-26.424 16.274-50.064 37.139-66.567l4.104-3.246c3.249-2.57 7.967-2.021 10.535 1.229 2.57 3.249 2.02 7.966-1.229 10.535l-4.104 3.247c-11.945 9.448-20.929 21.651-26.319 35.475 13.575-11.035 30.34-17.572 47.926-18.573 4.109-.236 7.678 2.928 7.913 7.063s-2.927 7.679-7.063 7.914c-16.406.934-31.942 7.742-43.748 19.172-8.83 8.545-11.221 11.046-11.861 11.757z"/></g></svg>